<svg xmlns="http://www.w3.org/2000/svg" viewBox="0 0 32 32">
    <path d="M 17.09375 4 L 16.6875 4.15625 L 14.53125 4.90625 L 14.5 4.90625 C 12.805599 4.9282586 11.75 6.1875 11.75 6.1875 L 11 7.15625 L 12.09375 7.6875 L 13.21875 8.25 L 12.34375 10.25 L 6.96875 13.875 C 6.6944124 14.05996 6.4585792 14.291575 6.25 14.53125 L 4.4375 13.6875 L 3.5625 15.46875 L 5.375 16.34375 C 5.2317183 17.176056 5.3673656 18.062736 5.8125 18.84375 L 6.28125 19.6875 C 6.5507569 20.189649 6.5886079 20.560991 6.5 20.96875 C 6.4113921 21.376509 6.1760485 21.805931 5.875 22.1875 C 5.2729029 22.950637 4.46875 23.46875 4.46875 23.46875 L 4 23.75 L 4 24.3125 L 4 28 L 6 28 L 6 24.71875 C 6.3339811 24.487702 6.793882 24.253264 7.4375 23.4375 C 7.8664515 22.893819 8.2609829 22.218553 8.4375 21.40625 C 8.6140171 20.593947 8.5459931 19.650851 8.0625 18.75 L 8.03125 18.71875 L 7.53125 17.84375 C 7.0725282 17.038896 7.325887 16.048947 8.09375 15.53125 L 13.6875 11.75 L 13.90625 11.59375 L 14.03125 11.3125 L 15.4375 8.1875 L 15.84375 7.3125 L 14.96875 6.875 L 15.15625 6.8125 L 16.9375 6.1875 L 18.03125 6.75 L 18.21875 6.875 L 18.4375 6.875 L 20 6.9375 L 20 7.875 L 17.25 8.875 L 16.84375 9.03125 L 16.65625 9.4375 L 16.0625 11 L 15.75 11.78125 L 16.5 12.21875 C 16.5 12.21875 16.998389 12.573873 17 13 L 17 14 L 18 14 L 18.8125 14 L 19.0625 14 L 19.28125 13.875 L 22.5625 12 L 24 12 L 24 10 L 22.28125 10 L 22.03125 10 L 21.8125 10.125 L 18.59375 11.96875 C 18.42354 11.625629 18.366318 11.269415 18.15625 11.0625 L 18.34375 10.59375 L 21.34375 9.5 L 22 9.25 L 22 8.5625 L 22 6 L 22 5.0625 L 21.0625 5 L 18.75 4.875 L 17.46875 4.21875 L 17.09375 4 z M 26 5 C 24.895431 5 24 5.8954305 24 7 C 24 8.1045695 24.895431 9 26 9 C 27.104569 9 28 8.1045695 28 7 C 28 5.8954305 27.104569 5 26 5 z M 23.09375 13 L 22.875 13.125 L 19.65625 15 L 17.5625 15 L 17.28125 15 L 17.03125 15.15625 C 17.03125 15.15625 16.025878 15.780024 14.6875 16.625 C 13.831171 17.165638 11.96875 17.03125 11.96875 17.03125 L 11.59375 16.96875 L 11.28125 17.1875 L 9.96875 18.0625 L 9.3125 18.5 L 9.59375 19.25 C 10.637428 22.140123 8.28125 24.6875 8.28125 24.6875 L 8 24.96875 L 8 25.375 L 8 28 L 10 28 L 10 25.625 C 10.462769 25.093551 12.262575 22.71978 11.5625 19.40625 L 12.125 19.03125 C 12.679016 19.11469 14.22324 19.30766 15.75 18.34375 C 16.949491 17.58646 17.660309 17.116729 17.84375 17 L 19.9375 17 L 20.21875 17 L 20.4375 16.875 L 23.65625 15 L 25 15 L 25 13 L 23.375 13 L 23.09375 13 z"></path>
</svg>
