<?xml version="1.0" encoding="utf-8"?>
<!-- Generator: Adobe Illustrator 16.0.0, SVG Export Plug-In . SVG Version: 6.00 Build 0)  -->
<!DOCTYPE svg PUBLIC "-//W3C//DTD SVG 1.1//EN" "http://www.w3.org/Graphics/SVG/1.1/DTD/svg11.dtd" [
	<!ENTITY ns_extend "http://ns.adobe.com/Extensibility/1.0/">
	<!ENTITY ns_ai "http://ns.adobe.com/AdobeIllustrator/10.0/">
	<!ENTITY ns_graphs "http://ns.adobe.com/Graphs/1.0/">
	<!ENTITY ns_vars "http://ns.adobe.com/Variables/1.0/">
	<!ENTITY ns_imrep "http://ns.adobe.com/ImageReplacement/1.0/">
	<!ENTITY ns_sfw "http://ns.adobe.com/SaveForWeb/1.0/">
	<!ENTITY ns_custom "http://ns.adobe.com/GenericCustomNamespace/1.0/">
	<!ENTITY ns_adobe_xpath "http://ns.adobe.com/XPath/1.0/">
]>
<svg version="1.1" id="Layer_1" xmlns:x="&ns_extend;" xmlns:i="&ns_ai;" xmlns:graph="&ns_graphs;"
	 xmlns="http://www.w3.org/2000/svg" xmlns:xlink="http://www.w3.org/1999/xlink" x="0px" y="0px" width="1024px" height="1024px"
	 viewBox="0 0 1024 1024" enable-background="new 0 0 1024 1024" xml:space="preserve">
<metadata>
	<sfw  xmlns="&ns_sfw;">
		<slices></slices>
		<sliceSourceBounds  height="760.666" width="997.235" y="138.37" x="7.4" bottomLeftOrigin="true"></sliceSourceBounds>
	</sfw>
</metadata>
<g>
	<g>
		<path d="M889.245,531.28c1.527-4.527-4.267-4.92-3.099-9.201c1.772-6.494-71.609-29.785-74.153-32.21
			c-1.171-1.117-2.954-1.461-4.453-0.872c-3.806,1.515-27.666,33.118-31.706,39.239c-4.149,6.278-18.041,17.715-28.313,25.657
			l-0.62-8.007c0.768-1.425,1.594-2.968,2.517-4.702c6.853-12.864,8.505-24.14,9.96-34.06c0.755-5.081,1.457-9.883,2.789-14.641
			c0.941-3.401,1.768-4.228,1.843-4.294c0,0,0.058-0.032,0.196-0.07c0.621-0.188,1.679-0.314,2.823-0.449
			c1.88-0.238,4.225-0.53,6.848-1.317c1.99-0.601,3.843-1.391,5.639-2.412c12.443-7.11,10.229-27.284,8.431-43.499
			c-0.338-3.127-0.645-5.842-0.718-7.634c-0.233-6.089-3.019-11.327-7.819-14.763c-0.226-0.15-0.466-0.269-0.691-0.423
			c43.301-57.325,146.458-163.746,191.67-208.851c1.631-1.618,1.642-4.274,0.009-5.912c-1.635-1.641-4.278-1.657-5.913-0.009
			c-6.365,6.352-120.776,120.696-179.524,193.474c21.134-42.989,56.617-105.099,57.108-105.934c1.148-2.023,0.451-4.563-1.56-5.719
			c-2.009-1.153-4.56-0.456-5.703,1.551c-2.344,4.088-50.064,87.622-67.299,127.857c-3.547-0.237-7.268,0.151-10.984,1.269
			c-1.223,0.369-2.461,0.822-3.667,1.34c-7.747,3.304-15.399,11.269-20.523,17.457c-19.873-49.446-62.309-114.584-114.947-175.567
			c-30.354-35.159-107.35-118.079-169.402-131.981c-2.654-0.922-7.287-1.879-12.682-0.257c-21.19,6.375-20.466,40.313-20.23,51.473
			c0.734,33.98,10.317,86.549,28.53,156.426c-69.436-14.592-295.712-58.667-381.848-32.76c-7.891,2.373-14.667,5.344-20.193,8.822
			c-22.229,14.024-33.542,31.437-33.655,51.717c-0.26,44.518,56.029,85.79,80.302,101.46
			c40.322,26.115,90.864,69.666,100.558,106.421l0.03,0.1c0.086,0.33,0.194,0.643,0.321,0.977c0.019,0.06,0.033,0.153,0.068,0.228
			c0.054,0.135,7.431,20.458,9.442,65.077c0.191,4.11,0.341,8.034,0.476,11.817c1.521,41.261,2.507,68.54,49.056,105.798
			c43.935,35.202,124.028,50.495,178.51,34.109c6.908-2.077,13.36-4.666,19.176-7.679c5.781-2.989,11.425-5.841,16.913-8.619
			c26.142-13.221,49.994-25.277,71.18-43.729c12.188-1.481,23.039-3.383,32.847-6.334c20.547-6.179,36.584-16.887,51.062-37.487
			c13.388-19.066,14.51-32.336,12.823-45.535c1.313-0.751,2.841-1.512,4.325-2.261c1.896-0.957,3.805-1.918,5.567-3.009
			c-2.132,10.648-3.541,20.72-2.899,26.423c0.32,2.888,0.514,5.868,0.72,9.025c0.854,13.253,1.828,28.286,14.004,37.326
			c1.103,0.823,2.477,1.015,3.699,0.648c0.819-0.246,1.589-0.754,2.147-1.512c1.363-1.854,0.987-4.477-0.869-5.858
			c-9.075-6.725-9.837-18.578-10.656-31.132c-0.2-3.128-0.412-6.35-0.763-9.435c-0.877-7.763,3.178-27.099,7.2-43.388
			c1.165-0.697,2.332-1.294,3.331-1.677c8.579,3.397,29.021,6.956,40.441,5.268c1.583-0.228,2.977-0.536,4.271-0.929
			c0.745-0.221,1.426-0.468,2.071-0.747l14.423,47.953c0.267,0.883,0.797,1.645,1.536,2.178l16.783,12.3
			c1.093,0.799,2.456,0.991,3.667,0.629c0.844-0.254,1.609-0.771,2.166-1.532c1.363-1.866,0.961-4.48-0.893-5.848l-15.654-11.458
			l-15.003-49.881c2.115-3.301,2.623-7.056,2.994-9.984c0.276-2.09,0.563-4.253,1.291-6.628c2.784-9.211,3.25-9.625,6.666-10.653
			c1.045-0.315,2.334-0.604,3.822-0.819c2.521-0.389,4.631-0.827,6.382-1.355c5.105-1.534,7.931-4.074,9.413-6.858l4.757,60.511
			c0.066,0.722,0.309,1.433,0.722,2.035l30.981,44.871c0.226,0.343,0.507,0.643,0.816,0.893l25.335,20.341
			c1.122,0.887,2.567,1.124,3.844,0.742c0.765-0.231,1.492-0.697,2.04-1.385c1.449-1.811,1.156-4.429-0.641-5.882l-24.867-19.973
			l-29.997-43.433l-5.512-70.291c9.021-6.797,28.638-22.099,34.503-30.98c3.734-5.646,20.764-26.832,26.953-34.591
			c13.691,9.005,78.85,21.453,72.231,41.133 M530.392,205.538c5.003,4.431,10.048,9.046,15.115,13.832
			c-5.856-2.197-12.021-4.275-18.446-6.164C528.147,210.599,529.26,208.036,530.392,205.538z M520.98,229.042
			c24.709,7.113,45.598,17.518,58.379,24.725c9.35,10.109,18.57,20.614,27.572,31.351c-1.379-0.518-2.791-1.057-4.306-1.661
			c-5.824-2.315-11.42-4.605-16.86-6.833c-25.301-10.357-47.294-19.356-72.808-21.967
			C515.416,245.738,518.107,237.177,520.98,229.042z M442.988,151.218c7.755,1.792,16.166,5.075,25.067,9.628
			c1.179,8.305,2.169,24.352,3.01,43.508c-9.383-0.119-18.915,0.549-28.479,2.159C437.78,168.455,441.156,155.275,442.988,151.218z
			 M505.592,310.744c11.092-2.703,14.565-0.89,22.898,3.462c4.142,2.165,9.301,4.875,16.376,7.464
			c7.728,2.842,18.883,13.013,30.641,25.188c-16.795-2.001-42.061-2.55-79.147,1.468c1.179-12.438,2.692-24.59,4.5-36.363
			C502.474,311.531,504.057,311.124,505.592,310.744z M444.974,223.088c8.941-1.532,17.911-2.1,26.772-1.933
			c0.403,10.89,0.757,22.261,1.095,33.485c-8.436,0.791-15.717,1.991-21.479,3.173C448.668,244.743,446.58,233.233,444.974,223.088z
			 M454.868,274.176c5.509-1.104,11.708-2.064,18.447-2.743c0.271,10.229,0.52,20.008,0.74,28.74
			c0.008,0.713,0.034,1.393,0.047,2.074c-4.266,1.314-8.268,2.585-11.783,3.696C459.515,294.565,457.034,283.986,454.868,274.176z
			 M466.43,322.22c2.456-0.793,5.192-1.657,8.119-2.58c0.225,8.841,0.424,16.314,0.627,22.657c-1.41-0.481-2.68-0.912-3.822-1.284
			C469.622,334.525,467.978,328.282,466.43,322.22z M313.296,335.874c16.352,2.588,32.099,5.264,46.842,7.894
			c-20.994-0.835-41.232-1.442-57.573-1.612C306.549,339.542,310.242,337.467,313.296,335.874z M282.566,358.974
			c1.216-0.022,2.449-0.036,3.715-0.074c24.171-0.395,67.501,1.214,107.305,3.07c-41.008,0.813-81.841,5.63-122.831,14.414
			C273.873,369.834,277.984,364.035,282.566,358.974z M264.786,394.878c88.229-20.267,175.528-21.601,265.612-4.03
			c30.5,13.659,63.012,30.808,88.958,50.167c-34.004-12.333-72.359-13.209-108.159-14.002l-0.529-0.02
			c-24.441-0.552-50.188,0.909-76.342,4.169c-59.774-13.183-112.721-24.327-174.398-9.101
			C261.083,413.052,262.634,403.857,264.786,394.878z M363.786,559.24c57.378-20.008,67.461-20.854,104.755-23.96l3.758-0.305
			c7.698-0.641,14.768-1.446,21.212-2.368c-2.754,1.901-5.499,3.469-8.447,4.547c-4.159,1.526-9.913,3.19-17.201,5.283
			c-21.205,6.145-56.018,16.177-106.798,39.022C360.95,574.305,361.778,567.69,363.786,559.24z M338.295,550.534
			c-30.002,10.989-60.876,23.643-85.255,34c-0.008-2.269,0.055-4.525,0.192-6.766c0.571-9.26,0.745-18.095,0.719-26.499
			c30.224-13.174,59.733-23.835,95.49-32.281l-0.259,0.696C344.961,530.783,341.178,540.745,338.295,550.534z M470.91,518.291
			l-3.752,0.318c-35.566,2.958-47.848,3.985-97.831,21.025c0.769-2.473,1.569-5.063,2.452-7.846
			c2.073-6.587,4.944-14.134,8.334-19.179c3.35-0.61,6.742-1.218,10.211-1.793c45.226-7.581,90.099-2.948,119.176,2.097
			C499.499,514.944,486.574,516.99,470.91,518.291z M405.56,491.87c4.119-10.71,4.773-23.664,4.694-31.79
			c5.174-0.896,10.361-1.702,15.536-2.46c99.757-3.692,132.829,22.265,161.339,46.078c-16.721-1.709-32.205-2.231-42.398-0.295
			C532.73,500.115,472.293,484.818,405.56,491.87z M256.428,463.346c0.419-7.108,0.896-15.074,1.604-23.507
			c45.928-12.466,87.161-9.197,130.305-1.168c-41.687,8.43-82.983,21.124-120.203,37.362c-4.616,2.02-8.959,4.123-13.055,6.315
			C255.618,477.059,256.002,470.746,256.428,463.346z M253.485,525.774c-0.129-4.5-0.259-8.818-0.313-12.885
			c7.033-4.903,15.285-9.6,25.009-13.832c28.179-12.293,58.76-22.455,90.039-30.156c1.271,7.426-4.832,20.684-9.913,30.982
			c-40.009,8.568-72.54,19.74-104.614,33.345C253.61,530.71,253.542,528.201,253.485,525.774z M102.826,374.845
			c-13.588-23.832-2.215-36.475,19.438-56.209c12.592-0.367,26.146-0.18,40.374,0.458c12.312,7.117,20.12,18.225,26.705,31.982
			c-5.969,1.453-43.937,10.864-85.107,26.081C103.759,376.393,103.269,375.632,102.826,374.845z M141.115,413.212
			c-9.306-6.809-18.389-13.93-26.089-22.117c41.229-14.833,78.326-23.765,78.888-23.905c0.066-0.007,0.129-0.027,0.193-0.045
			c0.65-0.167,1.289-0.331,1.914-0.491c1.434,3.622,2.872,7.354,4.341,11.188c1.862,4.911,3.836,9.965,5.892,15.069
			C178.675,400.665,157.875,407.238,141.115,413.212z M157.782,425.165c14.765-4.977,32.575-10.43,54.865-16.667
			c3.08,7.679,6.373,16.391,9.254,25.56c-15.595,5.463-28,9.92-38.151,13.688C176.837,439.572,167.704,432.378,157.782,425.165z
			 M226.352,450.23c4.232,18.277,5.615,36.993-0.323,52.032c-0.348,0.313-0.71,0.613-1.056,0.921
			c-7.272-13.757-18.729-28.124-29.931-41.749C203.732,458.246,214.019,454.561,226.352,450.23z M254.261,602.214
			c22.267-9.513,50.989-21.425,79.642-32.187c-0.626,4.23-1.048,8.536-1.193,12.991c-0.13,3.545,0.043,7.408,0.456,11.479
			c-27.725,13.396-52.119,26.437-72.039,37.72C258.036,622.674,255.62,612.445,254.261,602.214z M281.674,672.889
			c-5.062-6.097-10.117-14.719-14.546-24.784c19.012-10.832,42.385-23.427,68.837-36.348c1.649,7.59,3.844,15.477,6.377,23.31
			c-19.304,11.137-40.115,24.848-59.776,38.914C282.265,673.613,281.979,673.26,281.674,672.889z M292.997,687.088
			c18.153-12.951,37.272-25.575,55.125-36.004c3.729,9.52,7.863,18.561,12.038,26.364c-13.331,10.248-29.936,23.229-47.49,37.484
			C307.092,706.438,300.679,697.137,292.997,687.088z M322.762,730.661c-0.318-0.51-0.659-1.053-0.995-1.57
			c17.209-13.989,33.561-26.809,46.866-37.051c7.591,12.124,15.152,21.726,23.42,29.973c-18.101,19.025-33.322,35.372-41.836,44.543
			C340.483,758.639,332.895,746.664,322.762,730.661z M434.227,758.032c-4.424,2.293-9.432,4.294-14.865,5.926
			c-14.508,4.365-31.4,6.063-48.915,5.421c8.744-9.367,20.661-22.078,34.166-36.27c9.962,7.848,21.213,14.775,34.749,22.306
			C437.656,756.273,435.965,757.137,434.227,758.032z M382.226,660.678c-0.059,0.032-0.115,0.077-0.159,0.119
			c-3.597-7.03-6.961-14.651-9.854-22.758c29.118-14.612,37.263-17.556,71.362-25.022
			C423.701,628.697,397.895,648.931,382.226,660.678z M480.577,605.053c12.228-2.718,24.017-6.029,35.098-9.677
			c-29.766,26.629-58.634,57.564-84.195,84.965c-7.016,7.524-13.73,14.729-20.126,21.477c-2.765-2.84-5.319-5.576-7.559-8.133
			c-4.314-4.972-8.903-11.138-13.387-18.228c0.651-0.485,1.266-0.961,1.861-1.4C418.08,654.708,471.027,612.653,480.577,605.053z
			 M597.225,669.725c-9.657,13.777-19.483,21.873-35.158,27.069c1.447-2.043,2.874-4.111,4.287-6.266
			c5.613-8.575,11.092-17.057,16.499-25.403c4.313-6.686,8.576-13.301,12.839-19.837c3.316,0.063,6.834-0.032,10.307-0.279
			C606.489,652.806,604.656,659.146,597.225,669.725z M561.768,651.509c-5.365,8.305-10.804,16.731-16.403,25.263
			c-7.689,11.727-15.829,21.229-24.624,29.37c-0.447,0.341-0.871,0.717-1.253,1.135c-15.261,13.799-32.495,23.726-52.707,34.176
			c31.11-66.856,70.414-115.792,119.604-149.047c9.48-6.413,19.406-13.084,29.023-19.535
			C596.582,597.611,579.551,623.983,561.768,651.509z M576.975,578.531c-52.469,35.468-94.066,87.522-126.683,158.644
			c-8.156-6.87-17.88-15.299-26.931-23.724c6.482-6.83,13.27-14.108,20.358-21.712c38.326-41.082,84.236-90.313,128.279-119.519
			c17.197-8.497,28.498-15.443,31.293-17.203c7.81-3.327,14.929-6.128,21.317-8.463
			C609.775,556.463,592.783,567.841,576.975,578.531z M596.115,539.883c-10.489,4.473-21.147,10.401-31.849,17.373
			c-21.992,10.836-53.861,24.254-89.173,31.848c-5.464,1.163-10.514,2.242-15.174,3.246c-51.419,10.984-58.885,12.58-92.727,29.453
			c-1.072-4.256-2.021-8.602-2.786-13.017c-0.612-3.54-1.142-6.763-1.611-9.743c52.508-23.999,88.209-34.323,109.701-40.513
			c7.599-2.202,13.597-3.924,18.313-5.658c8.645-3.163,15.172-8.468,22.072-14.089c7.365-5.995,14.941-12.161,26.067-16.308
			c0.434-0.157,0.769-0.272,1.017-0.36c2.037-0.723,4.189-1.383,6.502-1.968c12.783-3.199,42.087-0.013,69.779,4.403
			c3.026,1.563,5.99,2.912,8.884,4.078C616.705,531.516,607.051,535.202,596.115,539.883z M662.425,516.021
			c-9.491-1.984-24.445-4.948-40.923-7.636c-4.695-2.632-9.549-5.872-14.483-9.899c-2.461-2.009-4.937-4.068-7.418-6.155
			c-16.406-13.732-34.982-29.247-66.093-39.629c54.303,1.939,103.893,8.963,133.511,57.803
			C665.494,512.337,663.945,514.178,662.425,516.021z M688.905,484.004c-13.68-33.883-51.26-66.967-112.26-98.67
			c-16.779-8.713-33.427-16.351-48.584-22.776c46.068-2.267,63.909,4.351,67.629,6.024c0.08,0.087,0.166,0.183,0.247,0.27
			c9.546,10.492,19.415,21.325,28.326,29.927c25.664,24.723,48.303,38.795,86.169,58.94
			C705.293,464.037,697.683,473.334,688.905,484.004z M635.881,386.725c-8.518-8.215-17.778-18.396-27.571-29.154
			c-21.413-23.528-41.649-45.744-57.688-51.627c-6.052-2.206-10.476-4.534-14.389-6.574c-8.904-4.646-16.659-8.68-32.315-5.389
			c1.476-7.839,3.094-15.485,4.846-22.914c24.15,2.001,45.707,10.832,70.649,21.048c5.501,2.252,11.163,4.576,17.063,6.911
			c13.745,5.447,22.786,7.994,28.944,8.903c34.616,44.16,64.163,90.396,80.629,128.374
			C674.402,418.919,656.341,406.439,635.881,386.725z"/>
		<path fill="#E4FF1A" d="M545.507,219.37c-5.856-2.197-12.021-4.275-18.446-6.164c1.086-2.607,2.199-5.17,3.331-7.668
			C535.395,209.969,540.44,214.584,545.507,219.37z"/>
		<path fill="#E4FF1A" d="M360.138,343.768c-20.994-0.835-41.232-1.442-57.573-1.612c3.983-2.614,7.676-4.689,10.73-6.282
			C329.648,338.462,345.395,341.138,360.138,343.768z"/>
		<path fill="#E8AA14" d="M606.931,285.118c-1.379-0.518-2.791-1.057-4.306-1.661c-5.824-2.315-11.42-4.605-16.86-6.833
			c-25.301-10.357-47.294-19.356-72.808-21.967c2.459-8.918,5.149-17.479,8.022-25.614c24.709,7.113,45.598,17.518,58.379,24.725
			C588.708,263.876,597.929,274.381,606.931,285.118z"/>
		<path fill="#E4FF1A" d="M509.499,512.914c-10,2.03-22.925,4.076-38.589,5.377l-3.752,0.318
			c-35.566,2.958-47.848,3.985-97.831,21.025c0.769-2.473,1.569-5.063,2.452-7.846c2.073-6.587,4.944-14.134,8.334-19.179
			c3.35-0.61,6.742-1.218,10.211-1.793C435.55,503.236,480.423,507.869,509.499,512.914z"/>
		<path fill="#E8AA14" d="M575.506,346.857c-16.795-2.001-42.061-2.55-79.147,1.468c1.179-12.438,2.692-24.59,4.5-36.363
			c1.616-0.431,3.199-0.838,4.733-1.218c11.092-2.703,14.565-0.89,22.898,3.462c4.142,2.165,9.301,4.875,16.376,7.464
			C552.593,324.512,563.748,334.683,575.506,346.857z"/>
		<path fill="#FF5714" d="M706.05,436.302c-31.648-17.383-49.709-29.863-70.169-49.578c-8.518-8.215-17.778-18.396-27.571-29.154
			c-21.413-23.528-41.649-45.744-57.688-51.627c-6.052-2.206-10.476-4.534-14.389-6.574c-8.904-4.646-16.659-8.68-32.315-5.389
			c1.476-7.839,3.094-15.485,4.846-22.914c24.15,2.001,45.707,10.832,70.649,21.048c5.501,2.252,11.163,4.576,17.063,6.911
			c13.745,5.447,22.786,7.994,28.944,8.903C660.037,352.088,689.584,398.325,706.05,436.302z"/>
		<path fill="#E4FF1A" d="M710.432,457.72c-5.139,6.317-12.749,15.614-21.527,26.284c-13.68-33.883-51.26-66.967-112.26-98.67
			c-16.779-8.713-33.427-16.351-48.584-22.776c46.068-2.267,63.909,4.351,67.629,6.024c0.08,0.087,0.166,0.183,0.247,0.27
			c9.546,10.492,19.415,21.325,28.326,29.927C649.927,423.502,672.566,437.575,710.432,457.72z"/>
		<path fill="#E8AA14" d="M605.998,645.009c0.49,7.797-1.342,14.137-8.773,24.716c-9.657,13.777-19.483,21.873-35.158,27.069
			c1.447-2.043,2.874-4.111,4.287-6.266c5.613-8.575,11.092-17.057,16.499-25.403c4.313-6.686,8.576-13.301,12.839-19.837
			C599.008,645.352,602.526,645.256,605.998,645.009z"/>
		<path fill="#E8AA14" d="M615.408,572.87c-18.826,24.741-35.857,51.113-53.641,78.639c-5.365,8.305-10.804,16.731-16.403,25.263
			c-7.689,11.727-15.829,21.229-24.624,29.37c-0.447,0.341-0.871,0.717-1.253,1.135c-15.261,13.799-32.495,23.726-52.707,34.176
			c31.11-66.856,70.414-115.792,119.604-149.047C595.865,585.992,605.791,579.321,615.408,572.87z"/>
		<path fill="#FF5714" d="M624.609,546.555c-14.834,9.908-31.825,21.286-47.634,31.977
			c-52.469,35.468-94.066,87.522-126.683,158.644c-8.156-6.87-17.88-15.299-26.931-23.724c6.482-6.83,13.27-14.108,20.358-21.712
			c38.326-41.082,84.236-90.313,128.279-119.519c17.197-8.497,28.498-15.443,31.293-17.203
			C611.101,551.69,618.22,548.89,624.609,546.555z"/>
		<path fill="#E4FF1A" d="M515.675,595.376c-29.766,26.629-58.634,57.564-84.195,84.965c-7.016,7.524-13.73,14.729-20.126,21.477
			c-2.765-2.84-5.319-5.576-7.559-8.133c-4.314-4.972-8.903-11.138-13.387-18.228c0.651-0.485,1.266-0.961,1.861-1.4
			c25.811-19.349,78.758-61.403,88.308-69.004C492.804,602.335,504.594,599.023,515.675,595.376z"/>
		<path fill="#E8AA14" d="M443.576,613.017c-19.875,15.681-45.681,35.914-61.35,47.661c-0.059,0.032-0.115,0.077-0.159,0.119
			c-3.597-7.03-6.961-14.651-9.854-22.758C401.331,623.427,409.477,620.483,443.576,613.017z"/>
		<path fill="#FF5714" d="M625.13,528.629c-8.425,2.887-18.079,6.573-29.016,11.254c-10.489,4.473-21.147,10.401-31.849,17.373
			c-21.992,10.836-53.861,24.254-89.173,31.848c-5.464,1.163-10.514,2.242-15.174,3.246c-51.419,10.984-58.885,12.58-92.727,29.453
			c-1.072-4.256-2.021-8.602-2.786-13.017c-0.612-3.54-1.142-6.763-1.611-9.743c52.508-23.999,88.209-34.323,109.701-40.513
			c7.599-2.202,13.597-3.924,18.313-5.658c8.645-3.163,15.172-8.468,22.072-14.089c7.365-5.995,14.941-12.161,26.067-16.308
			c0.434-0.157,0.769-0.272,1.017-0.36c2.037-0.723,4.189-1.383,6.502-1.968c12.783-3.199,42.087-0.013,69.779,4.403
			C619.273,526.114,622.237,527.463,625.13,528.629z"/>
		<path fill="#E8AA14" d="M493.511,532.607c-2.754,1.901-5.499,3.469-8.447,4.547c-4.159,1.526-9.913,3.19-17.201,5.283
			c-21.205,6.145-56.018,16.177-106.798,39.022c-0.116-7.155,0.712-13.77,2.72-22.22c57.378-20.008,67.461-20.854,104.755-23.96
			l3.758-0.305C479.997,534.335,487.067,533.529,493.511,532.607z"/>
		<path fill="#FF5714" d="M667.019,510.504c-1.524,1.833-3.074,3.674-4.594,5.517c-9.491-1.984-24.445-4.948-40.923-7.636
			c-4.695-2.632-9.549-5.872-14.483-9.899c-2.461-2.009-4.937-4.068-7.418-6.155c-16.406-13.732-34.982-29.247-66.093-39.629
			C587.811,454.641,637.401,461.664,667.019,510.504z"/>
		<path fill="#E8AA14" d="M587.129,503.698c-16.721-1.709-32.205-2.231-42.398-0.295c-12.001-3.288-72.438-18.585-139.17-11.533
			c4.119-10.71,4.773-23.664,4.694-31.79c5.174-0.896,10.361-1.702,15.536-2.46C525.547,453.928,558.619,479.885,587.129,503.698z"
			/>
		<path fill="#FF5714" d="M619.357,441.015c-34.004-12.333-72.359-13.209-108.159-14.002l-0.529-0.02
			c-24.441-0.552-50.188,0.909-76.342,4.169c-59.774-13.183-112.721-24.327-174.398-9.101c1.154-9.009,2.705-18.203,4.857-27.182
			c88.229-20.267,175.528-21.601,265.612-4.03C560.899,404.507,593.41,421.656,619.357,441.015z"/>
		<path fill="#E8AA14" d="M393.586,361.97c-41.008,0.813-81.841,5.63-122.831,14.414c3.118-6.549,7.229-12.349,11.811-17.41
			c1.216-0.022,2.449-0.036,3.715-0.074C310.452,358.506,353.782,360.115,393.586,361.97z"/>
		<g>
			<path fill="#1BE7FF" d="M474.549,319.64c0.225,8.841,0.424,16.314,0.627,22.657c-1.41-0.481-2.68-0.912-3.822-1.284
				c-1.733-6.488-3.376-12.731-4.925-18.793C468.885,321.426,471.622,320.563,474.549,319.64z"/>
			<path fill="#1BE7FF" d="M471.746,221.155c0.403,10.89,0.757,22.261,1.095,33.485c-8.436,0.791-15.717,1.991-21.479,3.173
				c-2.695-13.07-4.782-24.58-6.389-34.725C453.915,221.556,462.885,220.988,471.746,221.155z"/>
			<path fill="#1BE7FF" d="M473.315,271.433c0.271,10.229,0.52,20.008,0.74,28.74c0.008,0.713,0.034,1.393,0.047,2.074
				c-4.266,1.314-8.268,2.585-11.783,3.696c-2.803-11.378-5.284-21.957-7.45-31.768
				C460.377,273.071,466.576,272.111,473.315,271.433z"/>
			<path fill="#1BE7FF" d="M468.055,160.847c1.179,8.305,2.169,24.352,3.01,43.508c-9.383-0.119-18.915,0.549-28.479,2.159
				c-4.808-38.059-1.432-51.239,0.401-55.295C450.743,153.011,459.154,156.293,468.055,160.847z"/>
			<path fill="#1BE7FF" d="M189.343,351.077c-5.969,1.453-43.937,10.864-85.107,26.081c-0.477-0.765-0.966-1.525-1.409-2.312
				c-13.588-23.832-2.215-36.475,19.438-56.209c12.592-0.367,26.146-0.18,40.374,0.458
				C174.95,326.211,182.759,337.319,189.343,351.077z"/>
			<path fill="#1BE7FF" d="M206.254,392.91c-27.579,7.755-48.378,14.328-65.139,20.302c-9.306-6.809-18.389-13.93-26.089-22.117
				c41.229-14.833,78.326-23.765,78.888-23.905c0.066-0.007,0.129-0.027,0.193-0.045c0.65-0.167,1.289-0.331,1.914-0.491
				c1.434,3.622,2.872,7.354,4.341,11.188C202.223,382.752,204.198,387.806,206.254,392.91z"/>
			<path fill="#1BE7FF" d="M221.901,434.058c-15.595,5.463-28,9.92-38.151,13.688c-6.913-8.174-16.045-15.368-25.968-22.582
				c14.765-4.977,32.575-10.43,54.865-16.667C215.727,416.177,219.02,424.889,221.901,434.058z"/>
			<path fill="#1BE7FF" d="M226.352,450.23c4.232,18.277,5.615,36.993-0.323,52.032c-0.348,0.313-0.71,0.613-1.056,0.921
				c-7.272-13.757-18.729-28.124-29.931-41.749C203.732,458.246,214.019,454.561,226.352,450.23z"/>
		</g>
		<path fill="#E4FF1A" d="M388.337,438.67c-41.687,8.43-82.983,21.124-120.203,37.362c-4.616,2.02-8.959,4.123-13.055,6.315
			c0.539-5.289,0.922-11.602,1.349-19.002c0.419-7.108,0.896-15.074,1.604-23.507C303.961,427.372,345.193,430.642,388.337,438.67z"
			/>
		<path fill="#E8AA14" d="M368.219,468.901c1.271,7.426-4.832,20.684-9.913,30.982c-40.009,8.568-72.54,19.74-104.614,33.345
			c-0.083-2.519-0.15-5.027-0.208-7.454c-0.129-4.5-0.259-8.818-0.313-12.885c7.033-4.903,15.285-9.6,25.009-13.832
			C306.359,486.765,336.94,476.603,368.219,468.901z"/>
		<path fill="#E4FF1A" d="M349.441,518.988l-0.259,0.696c-4.221,11.099-8.003,21.061-10.887,30.85
			c-30.002,10.989-60.876,23.643-85.255,34c-0.008-2.269,0.055-4.525,0.192-6.766c0.571-9.26,0.745-18.095,0.719-26.499
			C284.175,538.096,313.684,527.435,349.441,518.988z"/>
		<path fill="#E8AA14" d="M333.903,570.027c-0.626,4.23-1.048,8.536-1.193,12.991c-0.13,3.545,0.043,7.408,0.456,11.479
			c-27.725,13.396-52.119,26.437-72.039,37.72c-3.091-9.544-5.507-19.772-6.866-30.004
			C276.528,592.701,305.25,580.789,333.903,570.027z"/>
		<path fill="#FF5714" d="M342.343,635.066c-19.304,11.137-40.115,24.848-59.776,38.914c-0.301-0.367-0.587-0.721-0.892-1.092
			c-5.062-6.097-10.117-14.719-14.546-24.784c19.012-10.832,42.385-23.427,68.837-36.348
			C337.615,619.347,339.809,627.233,342.343,635.066z"/>
		<path fill="#E8AA14" d="M360.161,677.448c-13.331,10.248-29.936,23.229-47.49,37.484c-5.579-8.495-11.991-17.796-19.673-27.845
			c18.153-12.951,37.272-25.575,55.125-36.004C351.851,660.604,355.986,669.645,360.161,677.448z"/>
		<path fill="#E4FF1A" d="M392.053,722.013c-18.101,19.025-33.322,35.372-41.836,44.543c-9.734-7.917-17.322-19.892-27.455-35.895
			c-0.318-0.51-0.659-1.053-0.995-1.57c17.209-13.989,33.561-26.809,46.866-37.051C376.224,704.164,383.785,713.766,392.053,722.013
			z"/>
		<path fill="#FF5714" d="M439.363,755.415c-1.707,0.858-3.398,1.722-5.136,2.617c-4.424,2.293-9.432,4.294-14.865,5.926
			c-14.508,4.365-31.4,6.063-48.915,5.421c8.744-9.367,20.661-22.078,34.166-36.27C414.576,740.957,425.827,747.885,439.363,755.415
			z"/>
	</g>
	<g opacity="0.6">
		<path fill="#9FD384" d="M733.778,458.452c0,0-0.224,0.612-0.645,1.759c-0.216,0.57-0.483,1.273-0.797,2.101
			c-0.327,0.823-0.758,1.751-1.234,2.798c-0.463,1.061-1.026,2.196-1.652,3.428c-0.597,1.254-1.329,2.555-2.123,3.938
			c-1.552,2.798-3.438,5.864-5.588,9.14c-2.161,3.258-4.579,6.734-7.162,10.339c-2.58,3.612-5.325,7.375-8.065,11.277
			c-2.729,3.912-5.51,7.945-8.089,12.14c-2.563,4.204-5.005,8.528-7.115,12.987c-2.131,4.447-3.844,9.048-5.295,13.646
			c-1.429,4.612-2.346,9.278-3.096,13.839c-0.561,4.583-1.013,9.065-1,13.358c-0.019,1.074-0.037,2.135-0.055,3.179
			c0.04,1.047,0.08,2.078,0.119,3.091c0.031,1.019,0.063,2.02,0.093,3.002c0.082,0.981,0.163,1.945,0.242,2.889
			c0.228,3.794,0.75,7.257,1.082,10.366c0.542,3.063,0.888,5.788,1.284,8.012c0.455,2.207,0.734,3.976,0.96,5.174
			c0.202,1.207,0.311,1.851,0.311,1.851s-0.283-0.586-0.813-1.685c-0.506-1.108-1.302-2.722-2.215-4.818
			c-0.883-2.105-1.876-4.702-2.956-7.715c-0.928-3.053-2.12-6.487-2.931-10.372c-0.221-0.968-0.445-1.957-0.675-2.965
			c-0.172-1.021-0.348-2.061-0.526-3.118c-0.17-1.063-0.343-2.144-0.519-3.241c-0.109-1.108-0.222-2.233-0.335-3.374
			c-0.493-4.569-0.473-9.454-0.191-14.506c0.118-1.26,0.248-2.531,0.397-3.81c0.073-0.641,0.147-1.282,0.222-1.927
			c0.112-0.64,0.225-1.28,0.337-1.924c0.235-1.285,0.431-2.589,0.708-3.881c0.318-1.284,0.639-2.574,0.959-3.87
			c1.393-5.152,3.281-10.255,5.566-15.143c2.354-4.852,5.024-9.512,7.933-13.869c0.736-1.08,1.47-2.156,2.199-3.227
			c0.765-1.038,1.524-2.071,2.281-3.099c1.525-2.036,3.057-4.025,4.624-5.913c3.09-3.821,6.211-7.349,9.162-10.671
			c2.963-3.289,5.763-6.398,8.348-9.268c1.276-1.438,2.498-2.817,3.661-4.128c1.166-1.309,2.263-2.56,3.253-3.764
			c0.502-0.599,0.988-1.179,1.458-1.738c0.445-0.575,0.891-1.12,1.321-1.644c0.865-1.046,1.651-2.014,2.312-2.914
			c0.685-0.896,1.297-1.696,1.829-2.393c0.515-0.72,0.952-1.331,1.308-1.827C733.392,458.978,733.778,458.452,733.778,458.452z"/>
	</g>
</g>
<g>
	<g>
		
			<path fill="#E2E2DC" stroke="#000000" stroke-width="14.9743" stroke-linecap="round" stroke-linejoin="round" stroke-miterlimit="10" d="
			M867.938,566.692l56.006-103.534c-16.074,58.108,73.083,141.725,73.083,141.725L867.938,566.692z"/>
		<g>
			<path fill="#E2E2DC" stroke="#000000" stroke-width="14.9743" stroke-linecap="round" stroke-linejoin="round" d="
				M997.648,603.742l-148.708,274.9c0,0-157.398-70.949-248.676-28.113l148.707-274.9
				C840.237,532.78,997.648,603.742,997.648,603.742z"/>
		</g>
	</g>
	<g>
		<path stroke="#000000" stroke-width="3.2826" stroke-linecap="round" stroke-linejoin="round" d="M838.876,606.038l-31.634,60.495
			c0,0-32.578-7.279-61.886,3.788l33.971-63.472C808.521,596.368,838.876,606.038,838.876,606.038z"/>
	</g>
	<path fill="none" stroke="#000000" stroke-width="4.9914" stroke-linecap="round" stroke-linejoin="round" d="M855.969,621.882
		c31.264,4.545,57.531,12.475,69.263,17.741"/>
	<path fill="none" stroke="#000000" stroke-width="4.9914" stroke-linecap="round" stroke-linejoin="round" d="M844.929,642.09
		c31.262,4.545,57.529,12.476,69.259,17.741"/>
	<path fill="none" stroke="#000000" stroke-width="4.9914" stroke-linecap="round" stroke-linejoin="round" d="M833.887,662.299
		c31.262,4.545,57.53,12.475,69.259,17.74"/>
</g>
</svg>
