<?xml version="1.0" encoding="utf-8"?>
<!-- Generator: Adobe Illustrator 19.0.0, SVG Export Plug-In . SVG Version: 6.00 Build 0)  -->
<svg version="1.1" id="Layer_1" xmlns="http://www.w3.org/2000/svg" xmlns:xlink="http://www.w3.org/1999/xlink" x="0px" y="0px"
	 viewBox="0 0 1000 218.2" style="enable-background:new 0 0 1000 218.2;" xml:space="preserve">
<style type="text/css">
	.st0{fill:url(#SVGID_1_);}
	.st1{fill:#FFFFFF;}
	.st2{fill-rule:evenodd;clip-rule:evenodd;fill:#5F6062;}
	.st3{fill:none;}
	.st4{fill:url(#SVGID_2_);}
</style>
<g>
	<radialGradient id="SVGID_1_" cx="500" cy="216.2206" r="332.1515" gradientUnits="userSpaceOnUse">
		<stop  offset="0.2121" style="stop-color:#B0B0B0"/>
		<stop  offset="0.3359" style="stop-color:#C1C1C1"/>
		<stop  offset="0.615" style="stop-color:#E3E3E3"/>
		<stop  offset="0.8464" style="stop-color:#F8F8F8"/>
		<stop  offset="1" style="stop-color:#FFFFFF"/>
	</radialGradient>
	<path class="st0" d="M734.9,218.2h264.7c0.3-0.6,0.5-1.3,0.5-1.9c0-24.9-223.9-45-500-45S0,191.4,0,216.2c0,0.6,0.2,1.3,0.5,1.9
		h263.3H734.9z"/>
	<path class="st1" d="M692.9,115.4c0,16.8-5.4,31.9-14.1,42.7c-8.7,10.8-20.4,17.4-33.3,17.4c-12.9,0-24.6-6.5-33.3-17.4
		c-3-3.8-5.6-8-7.7-12.7c-3.9-9.2-6-19.6-6.4-30.1c0-16.7,5.4-31.8,14.1-42.7c8.7-10.9,20.4-17.4,33.3-17.4
		c12.9,0,24.6,6.5,33.3,17.4C687.5,83.5,692.9,98.6,692.9,115.4z"/>
	<path class="st1" d="M546.7,176.6c-2.9,1.7-7.9-1.5-11.2-7.1c-3.3-5.6-3.6-11.5-0.7-13.2c2.9-1.7,7.9,1.5,11.2,7.1
		C549.2,169,549.6,174.9,546.7,176.6z"/>
	<path class="st1" d="M463.1,169.5c-3.3,5.6-8.3,8.8-11.2,7.1c-2.9-1.7-2.6-7.6,0.7-13.2c3.3-5.6,8.3-8.8,11.2-7.1
		C466.7,158,466.4,163.9,463.1,169.5z"/>
	<path class="st1" d="M400.4,115.3c-0.4,10.5-2.5,20.9-6.4,30.1c-2.1,4.7-4.7,9-7.7,12.7c-8.7,10.8-20.4,17.4-33.3,17.4
		c-12.9,0-24.6-6.5-33.3-17.4c-8.6-10.8-14.1-26-14.1-42.7s5.4-31.9,14.1-42.7c8.7-10.9,20.4-17.4,33.3-17.4
		c12.9,0,24.6,6.5,33.3,17.4C395,83.5,400.4,98.6,400.4,115.3z"/>
	<path class="st2" d="M362.1,92.4c-1.3,2.9-4,5.2-8.2,5.2c-12.2,0-12.2-18.8,0-18.8c0.9,0,1.8,0.1,2.6,0.4
		c-3.6-5.3-8.6-8.8-14.3-9.5c-14.1-1.9-27.8,13.3-30.6,33.9c-2.8,20.6,6.4,38.9,20.5,40.8c14.1,1.9,27.8-13.3,30.6-33.9
		C363.6,104,363.3,97.8,362.1,92.4z"/>
	<path class="st2" d="M686.3,103.4c-0.5-3.4-1.3-6.7-2.3-9.8c-1.5,1.9-3.8,3.2-7,3.2c-11.6,0-12.1-17.1-1.6-18.7
		c-5.6-6.2-12.6-9.6-19.7-8.7c-14.1,1.9-23.3,20.2-20.5,40.8c2.8,20.6,16.5,35.8,30.6,33.9C679.9,142.3,689.1,124.1,686.3,103.4z"/>
	<path class="st3" d="M678.8,72.6c-8.7-10.9-20.4-17.4-33.3-17.4c-12.9,0-24.6,6.5-33.3,17.4c-8.6,10.8-14,25.9-14.1,42.7
		c0.3,10.5,2.5,20.9,6.4,30.1c2.1,4.7,4.7,9,7.7,12.7c8.7,10.9,20.4,17.4,33.3,17.4c12.9,0,24.6-6.5,33.3-17.4
		c8.6-10.8,14.1-26,14.1-42.7C692.9,98.6,687.5,83.5,678.8,72.6z"/>
	<path class="st3" d="M463.8,156.3c-2.9-1.7-7.9,1.5-11.2,7.1c-3.3,5.6-3.6,11.5-0.7,13.2c2.9,1.7,7.9-1.5,11.2-7.1
		C466.4,163.9,466.7,158,463.8,156.3z"/>
	<path class="st3" d="M353.1,55.2c-12.9,0-24.6,6.5-33.3,17.4c-8.6,10.8-14.1,26-14.1,42.7c0,16.8,5.4,31.9,14.1,42.7
		c8.7,10.9,20.4,17.4,33.3,17.4c12.9,0,24.6-6.5,33.3-17.4c3-3.8,5.6-8,7.7-12.7c3.9-9.2,6-19.6,6.4-30.1c0-16.7-5.4-31.8-14.1-42.7
		C377.7,61.8,365.9,55.2,353.1,55.2z"/>
	<path class="st3" d="M534.8,156.3c-2.9,1.7-2.6,7.6,0.7,13.2c3.3,5.6,8.3,8.8,11.2,7.1c2.9-1.7,2.6-7.6-0.7-13.2
		C542.7,157.8,537.7,154.6,534.8,156.3z"/>
	<linearGradient id="SVGID_2_" gradientUnits="userSpaceOnUse" x1="499.3162" y1="228.8439" x2="499.3162" y2="88.5787">
		<stop  offset="0" style="stop-color:#008B3E"/>
		<stop  offset="9.471834e-003" style="stop-color:#008D3E"/>
		<stop  offset="0.1315" style="stop-color:#2C9E43"/>
		<stop  offset="0.2677" style="stop-color:#50AC46"/>
		<stop  offset="0.4264" style="stop-color:#64B649"/>
		<stop  offset="0.6262" style="stop-color:#71BD4A"/>
		<stop  offset="1" style="stop-color:#75C04B"/>
	</linearGradient>
	<path class="st4" d="M689.3,151.9c5.7-10.5,8.9-23,8.9-36.5c0-17.9-5.8-34.2-15.2-46.1c-9.5-11.9-22.7-19.4-37.5-19.4
		c-14.7,0-28,7.5-37.5,19.4c-1.9,2.4-3.6,5-5.2,7.7c-28.1,25.9-57.8,54.6-103.6,65.6c-45.7-11-75.4-39.7-103.5-65.6
		c-1.6-2.7-3.3-5.4-5.2-7.7c-9.5-11.9-22.7-19.4-37.5-19.4c-14.8,0-28,7.5-37.5,19.4c-9.5,11.9-15.2,28.2-15.2,46.1
		c0,13.5,3.3,26.1,8.9,36.5c-20.6,17.1-38.5,36.7-45.5,66.3h471.1C727.8,188.5,709.9,169,689.3,151.9z M394,145.4
		c-2.1,4.7-4.7,9-7.7,12.7c-8.7,10.8-20.4,17.4-33.3,17.4c-12.9,0-24.6-6.5-33.3-17.4c-8.6-10.8-14.1-26-14.1-42.7
		s5.4-31.9,14.1-42.7c8.7-10.9,20.4-17.4,33.3-17.4c12.9,0,24.6,6.5,33.3,17.4c8.6,10.8,14,25.9,14.1,42.7
		C400.1,125.8,397.9,136.2,394,145.4z M463.1,169.5c-3.3,5.6-8.3,8.8-11.2,7.1c-2.9-1.7-2.6-7.6,0.7-13.2c3.3-5.6,8.3-8.8,11.2-7.1
		C466.7,158,466.4,163.9,463.1,169.5z M546.7,176.6c-2.9,1.7-7.9-1.5-11.2-7.1c-3.3-5.6-3.6-11.5-0.7-13.2c2.9-1.7,7.9,1.5,11.2,7.1
		C549.2,169,549.6,174.9,546.7,176.6z M645.6,175.5c-12.9,0-24.6-6.5-33.3-17.4c-3-3.8-5.6-8-7.7-12.7c-3.9-9.2-6-19.6-6.4-30.1
		c0-16.7,5.4-31.8,14.1-42.7c8.7-10.9,20.4-17.4,33.3-17.4c12.9,0,24.6,6.5,33.3,17.4c8.6,10.8,14.1,26,14.1,42.7
		c0,16.8-5.4,31.9-14.1,42.7C670.2,169,658.4,175.5,645.6,175.5z"/>
</g>
</svg>
