<?xml version="1.0" encoding="utf-8"?>
<!-- Generator: Adobe Illustrator 16.0.0, SVG Export Plug-In . SVG Version: 6.00 Build 0)  -->
<!DOCTYPE svg PUBLIC "-//W3C//DTD SVG 1.1//EN" "http://www.w3.org/Graphics/SVG/1.1/DTD/svg11.dtd" [
	<!ENTITY ns_extend "http://ns.adobe.com/Extensibility/1.0/">
	<!ENTITY ns_ai "http://ns.adobe.com/AdobeIllustrator/10.0/">
	<!ENTITY ns_graphs "http://ns.adobe.com/Graphs/1.0/">
	<!ENTITY ns_vars "http://ns.adobe.com/Variables/1.0/">
	<!ENTITY ns_imrep "http://ns.adobe.com/ImageReplacement/1.0/">
	<!ENTITY ns_sfw "http://ns.adobe.com/SaveForWeb/1.0/">
	<!ENTITY ns_custom "http://ns.adobe.com/GenericCustomNamespace/1.0/">
	<!ENTITY ns_adobe_xpath "http://ns.adobe.com/XPath/1.0/">
]>
<svg version="1.1" id="Layer_1" xmlns:x="&ns_extend;" xmlns:i="&ns_ai;" xmlns:graph="&ns_graphs;"
	 xmlns="http://www.w3.org/2000/svg" xmlns:xlink="http://www.w3.org/1999/xlink" x="0px" y="0px" width="4889.821px"
	 height="1401.068px" viewBox="0 0 4889.821 1401.068" enable-background="new 0 0 4889.821 1401.068" xml:space="preserve">
<metadata><?xpacket begin="﻿" id="W5M0MpCehiHzreSzNTczkc9d"?>
<x:xmpmeta xmlns:x="adobe:ns:meta/" x:xmptk="Adobe XMP Core 5.3-c011 66.145661, 2012/02/06-14:56:27        ">
   <rdf:RDF xmlns:rdf="http://www.w3.org/1999/02/22-rdf-syntax-ns#">
      <rdf:Description rdf:about=""
            xmlns:xmp="http://ns.adobe.com/xap/1.0/"
            xmlns:xmpGImg="http://ns.adobe.com/xap/1.0/g/img/">
         <xmp:CreatorTool>Adobe Illustrator CS6 (Windows)</xmp:CreatorTool>
         <xmp:CreateDate>2015-01-15T09:06:12+01:00</xmp:CreateDate>
         <xmp:MetadataDate>2015-01-15T09:06:13+01:00</xmp:MetadataDate>
         <xmp:ModifyDate>2015-01-15T09:06:13+01:00</xmp:ModifyDate>
         <xmp:Thumbnails>
            <rdf:Alt>
               <rdf:li rdf:parseType="Resource">
                  <xmpGImg:width>256</xmpGImg:width>
                  <xmpGImg:height>80</xmpGImg:height>
                  <xmpGImg:format>JPEG</xmpGImg:format>
                  <xmpGImg:image>/9j/4AAQSkZJRgABAgEASABIAAD/7QAsUGhvdG9zaG9wIDMuMAA4QklNA+0AAAAAABAASAAAAAEA&#xA;AQBIAAAAAQAB/+4ADkFkb2JlAGTAAAAAAf/bAIQABgQEBAUEBgUFBgkGBQYJCwgGBggLDAoKCwoK&#xA;DBAMDAwMDAwQDA4PEA8ODBMTFBQTExwbGxscHx8fHx8fHx8fHwEHBwcNDA0YEBAYGhURFRofHx8f&#xA;Hx8fHx8fHx8fHx8fHx8fHx8fHx8fHx8fHx8fHx8fHx8fHx8fHx8fHx8fHx8f/8AAEQgAUAEAAwER&#xA;AAIRAQMRAf/EAaIAAAAHAQEBAQEAAAAAAAAAAAQFAwIGAQAHCAkKCwEAAgIDAQEBAQEAAAAAAAAA&#xA;AQACAwQFBgcICQoLEAACAQMDAgQCBgcDBAIGAnMBAgMRBAAFIRIxQVEGE2EicYEUMpGhBxWxQiPB&#xA;UtHhMxZi8CRygvElQzRTkqKyY3PCNUQnk6OzNhdUZHTD0uIIJoMJChgZhJRFRqS0VtNVKBry4/PE&#xA;1OT0ZXWFlaW1xdXl9WZ2hpamtsbW5vY3R1dnd4eXp7fH1+f3OEhYaHiImKi4yNjo+Ck5SVlpeYmZ&#xA;qbnJ2en5KjpKWmp6ipqqusra6voRAAICAQIDBQUEBQYECAMDbQEAAhEDBCESMUEFURNhIgZxgZEy&#xA;obHwFMHR4SNCFVJicvEzJDRDghaSUyWiY7LCB3PSNeJEgxdUkwgJChgZJjZFGidkdFU38qOzwygp&#xA;0+PzhJSktMTU5PRldYWVpbXF1eX1RlZmdoaWprbG1ub2R1dnd4eXp7fH1+f3OEhYaHiImKi4yNjo&#xA;+DlJWWl5iZmpucnZ6fkqOkpaanqKmqq6ytrq+v/aAAwDAQACEQMRAD8A9TTzRQQyTzMEiiUvI56K&#xA;qipJ+QwgXsqXaR5k0/VJGhiWW3uVjWcW9zGYpGhk+zKqt9pT0NOh2NDk54jFANo97u1S4S3eaNbi&#xA;QExwlgHYDqVUmpyFGrSq4FaJpkJSpLlNRhhKwpbySFoauUxyApIXZaEOwq4kAVJoMVUTcEmiLXJU&#xA;i2/WdftrQHuMaW13rR/zYKTbYljP7QxpVwYHoa4FdirsVdirsVdirRZRSp69MVbxV2KuxV2KuxV2&#xA;KuxV2KpMnm3RludVt7yZbB9IYfWfrUkSVhMayCdRzJ9I86BjTcEdRlvgyoEb8X4pjxBNoJ4Z4Y54&#xA;XEkMqh45FNQysKgg+BGVkVsyYrrHmCPXfL+pWuiWN5qUV3bXFvFeQxokDM6NHyR7iSD1Fr+0lQe1&#xA;cyIY+CQMiBR/HJgTY2Yn5o/MKPU7fTzo9rcWmsQqLi3uwiSuvqxK31eFIBdeo9wjqArDitVduig5&#xA;OLTcJPEQY/jfpyYSnfJOLN/Jep3GkWvl5oby9uLiPULy9YiW9SG14zepPJJWUNI/px0b9ljTYZVL&#xA;xIgmWw5eW7LY8noOYTYhp5gtR3zT6vV8O3VuhC27OX1Ff2OW9mZuOMvejLGlaVuMTt4KT+GZ2eXD&#xA;jke4FhEWUDDdV75zun1hDkTxo5DVQfHOiwy4oguMV2WoQsjmR6Dp2GTApirqqxoT3HU5HmlRbdOb&#xA;Hc/ZGSQviiRkqRvgJSA2bdO1Rg4lpabZuxrh4lpaUmXx+jDYQsLOTuTXCq4TyAdcFLbf1iT2x4U2&#xA;0Z5D3pjSLbiRmcMeg3riSoROQZOxV2KtM6qKscaVsEEVHQ4qsuHmSCR4YxLMqMY4i3AMwGy8iDSp&#xA;2rhHNXnnmnzT5unl0nQk8vajaXeoo089xaXVvGBLbRmb6rFc8mQeo6cWZ+J4Voprtm4cMBcuIEDv&#xA;B+dNcpHlTMtcsNS1Xy5dWdrdSaRqN3BxjuYirPBIwrsaEHf4SRvToQaHMXHIRmCRxAMyLDFvy78j&#xA;+X4bCz8wXQ/SvmSa2SDUNUuXad/VhPCRBzZ1UxlfTqN6Lv3zI1OokSYjaF7BhCI59ULY+eLjTPMO&#xA;v6XHo1/qET3jT6VJHLHJ9YoIoruOD15EqsEpJKx1CdCFpk5acSjGVgbb/ov3qJUSmuqwa/5ct4bH&#xA;y5PDcJeyG20zTLwH/R2Ks5aKZT/cworN6bqdhxVhsuVQMZm59OZHX9pSbHJ4R5u/LvU31qKFmuLE&#xA;2JEMdq0ZuLh1leWaD6sLMOjvIoZd+A5IxJG/Hc4dSOHvv8G7ceUN3qflGHy8bTULfXtPvLjVIrrk&#xA;jrZahJNbwyoJoY4JUhWWERGZ1BHCp5MKKc1ucysGJFV3jf377t0a6s78oy6s+lsNSWZWE0gszdcP&#xA;rLWwP7ozhPhD0+mlOXxVzX5Zw46Hd8POmyINMT/Mv81fLnk+7W0uS93qMiCQWdvxLIp6GRiQEr27&#xA;+2a6XYWfVZSYVGHef0Nw1EYDfmkn5ffn75b1fVl0u/t5NLnvGVLWSRhJC0hJARnAUqWrtUU982Gm&#xA;9n8ukEjxCYNeXJryauOStqZj+ZH5j+XvJumr+kZGkvbsEWtlCA0rAbFzUgKo8T9GE6DJqYShDa+p&#xA;5IGWMCCXnnl//nIPyveX8drfW8+nJIQq3UhV4gSafGV3Ue9Pnmrzeyepxx4oSjPy5FvGuhI0RT3B&#xA;ZIxCrKwZCBwYGoIPQg5mykMUAD02aeZakf8AdH32yzEbRJZbrVi3h0yySAruvJCPHAEoYRyMQCCK&#xA;ePbJWxXNKRRI+g2r44KTapG7V4swJ8O+AqsWdudCfhr1w0tttcHlsNvfHhW1OU8pSB8hhCC504OA&#xA;dxscQVXI0LNQpSvTAbS6Uop4qor3PXEKV0buCAzDf9nviQrvWYSFeorTGltbCx5kk7EVOEqG2ncm&#xA;idPxwUtrGZnWp6r/ABw0hek4VQpHTvgITauCCAR0ORS80/Mzz5B9cPkzQZGXztI1vNpkjIvoxy81&#xA;ehkkIUMYuXYg14nrTM/S6fbxJf3e9tU59BzVvMnmj8zND0nSIpdItLm6vHS21LVbeSSWG3ZwE9Z4&#xA;mjhCLyatS/HahO4wYsWGcjuaHId6ZSkEWPyw8qaJ5Q1DTLO7vtOs3imluLxL2dCtUPOVkVhEaKN/&#xA;g6ZH83OcwSAT7gvAAE98krYP5Q0GS0IlgWwtxBM278TEtak71NPi98pz3xyvvZR5Bdrmn62+q6fq&#xA;OlLayyWsVxBJFdvIgAuGhb1EMaSVZfRIpQVDdR3cco8JEr6cvipBSy48tapZ6jD5oMp1bXIFMNxA&#xA;qLFG1m5q8NrGzERsjfGpZyzbqzUPwzGUEcHKP6fNHD1TDQJGu9R1XVEt5re2uDBHCLiGS3kcwxnm&#xA;5jlVHAq/GpG/HwplWf0xA7rZR5ojUtVttPRru6mSC2h+KWWRgiKvclmoBnLz1MvHHCDI3yHVy4wH&#xA;Du+V21rSbz83NY1O8uILm3nurw6Zdz/Fbc/iWzZ67cFHHr0zvtfiyfkxGAN+niA+rh/irzcDTyj4&#xA;tnzruvol/na+ubjTrX9MSwza+JSRJC8Eri3EYBEj2wWOjS1aNd2UZHsrFGE5eECMNdRIeq+glvy2&#xA;keRLPVEmI4q4/hy+HnyQ1j5ok1vzppuqecLk30MbRRzySqvERxikYZUAHENu22+9a1zM1uCcdNOO&#xA;Dadbfjv7mnBKPiAz5Jl5wv7240SRNfntbnUhNGdLa1e3lIjBk9UqYAOEBQxhUck8hUd6a7szDCOa&#xA;8IlGHCeLiEhvtX1c5XxWRtWzfqZHh9ZBle1V+jpy5vevyh1w3n5eaFC9wk89rC0M3Fw5ThIwiRqd&#xA;CsQXY5y3tLnMdVwAUOfvtyNJC8dvQQ3OGvgd8yOzsvFFryilS2+yfnmwk1hWyKVshojEeGEKpW6g&#xA;knw2GGSA5lVZfh/ZFT88VWwR8mqegwkoDmPKUnsP4Y9Fbt1qxY9v14CkKgIq8h6DYfRgVShFX5Ho&#xA;u5yRQHQrykqe2+JULpVUOpHWtTgCSthXlJU9tzhKhp1pyK/ZrT+OIQviDqvwrUnvgKQ4R0ITqSat&#xA;8hjarZviloPlhHJBRC0A4j9nIMnlv523ll5Wt7Dznp+mQTeZorlbaC9kFQsbRS8vURSpccageG2/&#xA;Y7HQROQnGT6Kasu2/VLPMH522Y/L+xGtabdWuqeZLO4hdIYnjiiDKYvWR5R8atzV1C8qA7+9mPQH&#xA;xTwkERIQcu2/VNvK/wCUGsaZ5LvPL83mm6UaiWkla2RVVOdAwQyBpKOo+KhWtfvqy62MsglwjZMc&#xA;ZAq2eeWv0uulRwarbJb3Nsxt1Mbh1lji+BJwF+x6gHLh+z0zDy8PFcS2RtNMrS7FXVHTBYV81f8A&#xA;OTOvXw8w2fl+ORk0+K3W7kjBoHlkdlHLxCKm3zObLsHs2GIyy/xE0PIf2tWpyk1F4pnRuI7FXYq7&#xA;FWZ/lFrmoaX580uK1dvS1GeOzuYR9l1mbgpYf5DNyrmo7c0MdRppCvVHeJ7j+1yNNlMJjufZKRLH&#xA;CI67U3PvnNYMUcMBFypHiKipaJtxt+vMrmGHJW+sR++DhW3fHJ1HFPxOPJWljkSvEgg+ONquEQ4s&#xA;Cas3U42tOijKAgmoxJUKXospqxHHpXDa00jcarzAB6mhrhKFeitHxU7UpkWSmkLioJHE9aYSUU2I&#xA;mRiUIoexwWtN+kTUsasRT2GNrS1IZBUcgAetOuElaXtGpTgNvDBaaaVJgONQB498dkL1QKPEnqcF&#xA;pQ71WUkdeoyY5MVdBRd+p3PzyJZJNpvlHSrDXdT1tWmuL7VOIlNw5lWKNVAMcIb7CNQEj5dgBlks&#xA;0jER6BiI72iPMHl3SddsXtr+0t7hgjrbS3ESzGF3UrzTlupH+SQffBjyygbBSRbflqz1qz0O0tdb&#xA;vU1HU4k43F4iemJDU0PHxAoK9+tMcsomRMRQWINbpllaUv1HzDoWmXdnZ6hfwWt1fv6dlDLIqPK1&#xA;QKICd9yB89snHFKQJAsBBICYZBLy/wA9/ndo/lXzhb6DNA00Sxh9RuojVoHkoY14ftfD8TDwIp4Z&#xA;L+S8ufEcmM1IH0+aPGjE0eTFvzl8mHz3YWXm/wAqsmoXMEAiubaEhmmg5FkeKn2mVmYFftduoocr&#xA;sXtMC8WUcEwdweh/UUanBykNw+fLi2uLad7e5ieCeM8ZIpFKOpHZlahBzqAQRYcFTxV2KuxV7H+R&#xA;X5cai2tQeb9biax0XTFNxavOOBnlKkIyhqHgleXLuaAV3pqO1NdCGMxvf8fb5ORgxGUnoX/K/fLt&#xA;z55s9CtlMunzyfV31LkBGszHjHxH7Slti1aeG2+c7PsrUZMZzy9PDuIda6k+fl8HJOaAPCN/N6yt&#xA;Cu++HEbClsIo6AD6MstDeKuxV2KuxVDOS8vE9K0yY5IV/TjpTiKZG0qKHhNxB2JpkjyQiMgl3TFV&#xA;qyI2ymtMNKuwK7FXYq7FUPKSXNTQjpkggq6klQT1IyKW8VdirsVdir5p8x6h5f1rynf+b9HubzVr&#xA;/wAuass4l1lSeEN3KOCRLE/AxiUBgGHiOIrm/wAUZQmMcgAJR/h8nGJBFjo9R/Izzhrfmvynd6lr&#xA;V19avY76SDaOONURYo2UKI1X+c7tmu7QwRxzAiNqbcUiRu+afzLmnm/MPzI8xJcaldICevCOVkT/&#xA;AIRRm+0gAxRr+aHFn9RSe31nVreyexgu5YrR5EmaFWIX1IzVXFOhHt7eAyUtPjMxMxHGBV+SRkkB&#xA;w3sncvmu01y1itvNEbz3cCiO31yGhuwg2CXAY0nVexJ5gbVPajJgyQ9WGv6p5H3dx+xsxSgdp3Xe&#xA;OY/WonyXcT24udK1Cy1GJn4CJJ1huBtUF4JjGwB8RUZH8+Ij95GUPhY+YttGjMpVjIn8a++lY/lv&#xA;5ohujb36W2mhUMjzXd1bpGqgVqSHY/QBkzr8V0LJ8gf1MBpJmPFsI+8LbS58teX5RcIqa9qke8Sy&#xA;KRYROOjMrANPTsDRfGuVR8fMdx4eP/ZH/ifvZ5I4sYoHjn/sR+tAX3m/zPfm9N5qdxN+kSpvQzmk&#xA;gjLFFIGwVebUUbe2ZX5XHcTwj08vL9vm43iS335pSCVIINCNwR1By9g+n/zb/Ny58r+XbDTdOYDz&#xA;LqdrHLLIR/vNG60MlD+2zVCDtQk9q852f2eJSJP0RPzcvLloeaH/AOccfPM+paDqek6rctLcaW5u&#xA;0uJnLMYJyzScmapPCQEkk/tZZ2npxGQlEc2OGVikr0T8+NU1782dOsrb9z5Xnlezht+I5y+oCsc0&#xA;hO4bmFIHYbdd8sydniGAk/XzQMty8nvmaZyHYq7FUNKpSSviag5MMS0Wckstd+tMVXRRty5NsBvv&#xA;gJSFQzxg0/HBS228i8Ov2uhxAVqFAiliQa9/bElQ71460/HGltc0qLSvfocaTbZdQKk7eOBXBlIq&#xA;Dt44qh5XDOSOg6ZMBiUQrAqG7ZBks9eOtPxw0i1N5G9XrsKU8MIGyojIpdiryP8APjUbHS/KL+Wd&#xA;H05H1PzDIHe2tYfi9OJ1eSdljG7FwqgnrU+GbPs+JlPjkdotOU0KHV57+UfmvzJ+Xl0bbzFpdzZ+&#xA;W9Ub1HluIXikjdAqmeNXCtIgDr6nEGg37UObrcMcwuBBmPxTXjkY8+SC/wCcgvKn1HzSPMlkBJpO&#xA;uqsqzoeSCfiOQ5DakigOvjv4ZX2Rro5AcR2nDp5fjZOfHW/QvKs3DQ7FXYq7FXYq7FWU/lr5Rk80&#xA;+bbKwZC1jG4m1Fx0WBDVhXxf7I+ea7tTtCGlwmcuZ2A7y24cRnKgzvV/Imq+f/zi8xQ3M5sLGylR&#xA;Z7thzCIyrHaxopK/FLtT6T88fT62MNNCQFmQ5ff8mUsZMyFv5C6BOvmfzbY3z+jZQaXdWGo3FaJG&#xA;7yqtSTQbLHId/DLe0cg4IEc+IEIxDcslbyro+lr5W8w6LZQ6iuhW0k8en2skcV1dGpeO6umkPwKE&#xA;HqnqwY8ONBXKPGlLijI1xHn0HkPuZcIFEM3/ACt/Ns+fJbuNdEm09bNQ0lz6qzQcmNFTlxibkRvT&#xA;jmJq9H4Neq7bIZOJ6FmC2KRlZzxj+knJUi1vIlvTkNQe/gcVWHlE/wAvxGHmhfPJUKB0IqcACS00&#xA;BCCm7d8bWnTUUKg7bnCFLTkhFT2qfpxCHMiKgFaufDG1akqOKnqo/XiFbkTjGCx+LoB4DEFWiSIw&#xA;vjucVXNAQgI3bvgtNNS/CBGOg3PzwhS50RVABq58MQUNlAxVQRUD4jgtLcTsr8G6dMSFCvkUvLtH&#xA;121sfzG806h5htr1NTDRWOjpFZ3Vyp09ByBhMEcv97IeTe9PfNjPGTiiIkVzO4G/xagfUbT3XNat&#xA;Nf02XTn8ratqNvOKcZLaG3AJFA3+nSQ0Ir3XMeMDA3xxHx/UyJvowu28vWei/l5qWmeejHY6NLdz&#xA;PptnLMJpLW2choYllXlykQgkcK/wzTa/PknrIy0gMsoiL22J635e9yMMYiBGT6XzjqcNjDfzxWFw&#xA;buzVyLe4ZDGXTsSp3Bzv8EpygDMcM+o5usmADsbCFy1i7FXYq7FWxSorsO5G+KvpT8kn8mR6QbXQ&#xA;bj173aTUmlX052bpUqf2B0XiSB41JzzD2iGrOcSzRqHKNbx/t773+DvNN4QhUDv172Uea/Mfljyx&#xA;5i0We/khsl1CeW51O5NSzC0s5Eh9RVqTvIOO3UCmbjsjHPJgNb0NviXDzECTHNIsp7ib09O8s6hD&#xA;5Jnme/1O8ma1iutTmZuSm4W5mtmW2G7cQPiG1ACc3E5Ac5DxOQ51H3UDu0geWzG/zU1Hzl5TjgSd&#xA;NJvvKepyCSLSxZRW4BX4/TkiRvU2/nWQ18RWmX6SOPJy4hMdbYTJHuekfk3578p+YtC+paNZRaPd&#xA;2QrdaRGAAtdvVjIA5qx6nqD17E4Ou084SuR4gerbjkCNnoWYLYhZI2Q+x6HJgsaXxRgEMzDbpvgJ&#xA;SsmcM+3QbYQEFt0ZQre2/wA8QVVRMD9kEnwyNJtReol+P2rkhyQ29S4cj4T+rEJVAyf7rWreNMiq&#xA;xVImHPffrkuiuuSeYHamCKl0q0CsNxQYQpVBOD9kEnwyNLam6lXDPuD1yQVfVCCI1qTtWlKYFUx6&#xA;aijAhx3GFDaLIzc/xOJSiBWm/XIJdirsVePfnF+U/njzxr1tcWF9Yw6TaQCOC2uJZlYSsSZJCqQy&#xA;LVvhHXoM2mh1mPDEgg2fx3tOTGZF543/ADjH+YQO11ph9xNN/GHMr+WMf82f+x/4piNOe8fb+paf&#xA;+cZfzE/3/px/57y/9Usf5Yx/zZf7H/ik/lv6Q+39SO03/nF3zbMsh1DVLK0IH7lYvUnLH/KqsXEf&#xA;f8sT2vDpE/Z+1B05HUIi8/5xY19LQvZ65az3dRSGWKSKOn7X7xTKajt8G/tgHa8b3iaR4B70oH/O&#xA;M35if7+04f8APeT/AKpZL+WMf82X2f8AFM/yv9KP2/qXD/nGT8w/+WnTR/z2l/6o4P5Yx/zZ/wCx&#xA;/wCKR+WPePt/UjtK/wCcZPO0eoWz3mpWMVn6iC7a2mnE4hLD1PTrBx58a0qaVxl2tjMdgb86/Wx8&#xA;A3zexeVfyd8heWplurSw+tX6Hkt9et68obryWoCK3uqg5rM2tyZNiaHk3RxgMxuLeC5t5ba4jWWC&#xA;ZGjmicVVkcUZSD1BBzFBINhm8Z1b/nF3y1cXzzadq1zY2zkt9VZFn41PRHJQ08OVT75tYdrTA3AL&#xA;QcAZZ5D/ACX8peTr1dSs2ubrVFVkF1PJQAOKMFjj4JQ/5QbMbUa6eUUaAZxxgM+zCbGmUMKHcYqp&#xA;G2HZqZLiRS5IFU1O5wErSpgS7FXYq7FXYq7FXEA9RXFXYq7FXYq7FXYq7FXYq//Z</xmpGImg:image>
               </rdf:li>
            </rdf:Alt>
         </xmp:Thumbnails>
      </rdf:Description>
      <rdf:Description rdf:about=""
            xmlns:xmpTPg="http://ns.adobe.com/xap/1.0/t/pg/"
            xmlns:stDim="http://ns.adobe.com/xap/1.0/sType/Dimensions#"
            xmlns:xmpG="http://ns.adobe.com/xap/1.0/g/">
         <xmpTPg:NPages>1</xmpTPg:NPages>
         <xmpTPg:HasVisibleTransparency>True</xmpTPg:HasVisibleTransparency>
         <xmpTPg:HasVisibleOverprint>False</xmpTPg:HasVisibleOverprint>
         <xmpTPg:MaxPageSize rdf:parseType="Resource">
            <stDim:w>4889.820801</stDim:w>
            <stDim:h>1401.068359</stDim:h>
            <stDim:unit>Points</stDim:unit>
         </xmpTPg:MaxPageSize>
         <xmpTPg:PlateNames>
            <rdf:Seq>
               <rdf:li>Cyan</rdf:li>
               <rdf:li>Magenta</rdf:li>
               <rdf:li>Yellow</rdf:li>
               <rdf:li>Black</rdf:li>
            </rdf:Seq>
         </xmpTPg:PlateNames>
         <xmpTPg:SwatchGroups>
            <rdf:Seq>
               <rdf:li rdf:parseType="Resource">
                  <xmpG:groupName>Default Swatch Group</xmpG:groupName>
                  <xmpG:groupType>0</xmpG:groupType>
               </rdf:li>
            </rdf:Seq>
         </xmpTPg:SwatchGroups>
      </rdf:Description>
      <rdf:Description rdf:about=""
            xmlns:dc="http://purl.org/dc/elements/1.1/">
         <dc:format>image/svg+xml</dc:format>
         <dc:title>
            <rdf:Alt>
               <rdf:li xml:lang="x-default">header</rdf:li>
            </rdf:Alt>
         </dc:title>
      </rdf:Description>
      <rdf:Description rdf:about=""
            xmlns:xmpMM="http://ns.adobe.com/xap/1.0/mm/"
            xmlns:stEvt="http://ns.adobe.com/xap/1.0/sType/ResourceEvent#"
            xmlns:stRef="http://ns.adobe.com/xap/1.0/sType/ResourceRef#">
         <xmpMM:DocumentID>xmp.did:3D70B6598C9CE411B66292289F839EA7</xmpMM:DocumentID>
         <xmpMM:InstanceID>xmp.iid:3D70B6598C9CE411B66292289F839EA7</xmpMM:InstanceID>
         <xmpMM:OriginalDocumentID>xmp.did:5CD2879DFB46E411A2A3ED9EB2EAF70A</xmpMM:OriginalDocumentID>
         <xmpMM:RenditionClass>proof:pdf</xmpMM:RenditionClass>
         <xmpMM:History>
            <rdf:Seq>
               <rdf:li rdf:parseType="Resource">
                  <stEvt:action>saved</stEvt:action>
                  <stEvt:instanceID>xmp.iid:5CD2879DFB46E411A2A3ED9EB2EAF70A</stEvt:instanceID>
                  <stEvt:when>2014-09-28T12:38:42+02:00</stEvt:when>
                  <stEvt:softwareAgent>Adobe Illustrator CS6 (Windows)</stEvt:softwareAgent>
                  <stEvt:changed>/</stEvt:changed>
               </rdf:li>
               <rdf:li rdf:parseType="Resource">
                  <stEvt:action>saved</stEvt:action>
                  <stEvt:instanceID>xmp.iid:3D70B6598C9CE411B66292289F839EA7</stEvt:instanceID>
                  <stEvt:when>2015-01-15T09:06:13+01:00</stEvt:when>
                  <stEvt:softwareAgent>Adobe Illustrator CS6 (Windows)</stEvt:softwareAgent>
                  <stEvt:changed>/</stEvt:changed>
               </rdf:li>
            </rdf:Seq>
         </xmpMM:History>
         <xmpMM:DerivedFrom rdf:parseType="Resource">
            <stRef:instanceID>uuid:cb71320c-c855-4ee5-b996-6d2c8a3483cb</stRef:instanceID>
            <stRef:documentID>xmp.did:29D2ACF03395E411AF15FC4E7FF31341</stRef:documentID>
            <stRef:originalDocumentID>xmp.did:5CD2879DFB46E411A2A3ED9EB2EAF70A</stRef:originalDocumentID>
            <stRef:renditionClass>proof:pdf</stRef:renditionClass>
         </xmpMM:DerivedFrom>
      </rdf:Description>
      <rdf:Description rdf:about=""
            xmlns:pdf="http://ns.adobe.com/pdf/1.3/">
         <pdf:Producer>Adobe PDF library 10.01</pdf:Producer>
      </rdf:Description>
   </rdf:RDF>
</x:xmpmeta>
                                                                                                    
                                                                                                    
                                                                                                    
                                                                                                    
                                                                                                    
                                                                                                    
                                                                                                    
                                                                                                    
                                                                                                    
                                                                                                    
                                                                                                    
                                                                                                    
                                                                                                    
                                                                                                    
                                                                                                    
                                                                                                    
                                                                                                    
                                                                                                    
                                                                                                    
                                                                                                    
                           
<?xpacket end="w"?>
	</metadata>
<g id="Layer_1_2_">
	<g>
		<g id="Layer_4">
			<g>
				<g>
					<g>
						<g>
							<g>
								<g>
									<g>
										<defs>
											<path id="SVGID_1_" d="M1650.573,1398.859c0,5.166-3.956,9.353-8.836,9.353H276.374c-4.88,0-8.837-4.187-8.837-9.353
												V-45.618c0-5.165,3.957-9.348,8.837-9.348h1365.362c4.88,0,8.836,4.183,8.836,9.348L1650.573,1398.859L1650.573,1398.859
												z"/>
										</defs>
										<clipPath id="SVGID_2_">
											<use xlink:href="#SVGID_1_"  overflow="visible"/>
										</clipPath>
										<g opacity="0.6" clip-path="url(#SVGID_2_)">
											<g>
												
													<radialGradient id="SVGID_3_" cx="17838.3145" cy="25344.5957" r="1415.4467" gradientTransform="matrix(0 -1.0579 -0.55 0 14900.0527 20111.8574)" gradientUnits="userSpaceOnUse">
													<stop  offset="0" style="stop-color:#ED1C24"/>
													<stop  offset="0.0874" style="stop-color:#EE2424"/>
													<stop  offset="0.1784" style="stop-color:#EE3724"/>
													<stop  offset="0.271" style="stop-color:#F04D23"/>
													<stop  offset="0.3647" style="stop-color:#F16822"/>
													<stop  offset="0.4594" style="stop-color:#F48320"/>
													<stop  offset="0.5534" style="stop-color:#F8A31B"/>
													<stop  offset="0.6411" style="stop-color:#FDC70C"/>
													<stop  offset="0.7203" style="stop-color:#FFDF00;stop-opacity:0.6899"/>
													<stop  offset="0.7688" style="stop-color:#FFF200;stop-opacity:0.5"/>
													<stop  offset="0.7754" style="stop-color:#FFF324;stop-opacity:0.4858"/>
													<stop  offset="0.7911" style="stop-color:#FFF467;stop-opacity:0.4519"/>
													<stop  offset="0.8081" style="stop-color:#FFF78F;stop-opacity:0.4151"/>
													<stop  offset="0.826" style="stop-color:#FFF9AD;stop-opacity:0.3764"/>
													<stop  offset="0.845" style="stop-color:#FFFAC7;stop-opacity:0.3352"/>
													<stop  offset="0.8655" style="stop-color:#FFFCDA;stop-opacity:0.2908"/>
													<stop  offset="0.8881" style="stop-color:#FFFDE9;stop-opacity:0.2419"/>
													<stop  offset="0.9139" style="stop-color:#FFFEF4;stop-opacity:0.1862"/>
													<stop  offset="0.9455" style="stop-color:#FFFFFB;stop-opacity:0.1179"/>
													<stop  offset="1" style="stop-color:#FFFFFF;stop-opacity:0"/>
												</radialGradient>
												<polygon fill="url(#SVGID_3_)" points="958.519,1243.584 1247.001,1631.035 2077.706,1661.424 												"/>
												
													<radialGradient id="SVGID_4_" cx="17838.3203" cy="25344.5957" r="1416.2396" gradientTransform="matrix(0 -1.0579 -0.55 0 14900.0527 20111.8574)" gradientUnits="userSpaceOnUse">
													<stop  offset="0" style="stop-color:#ED1C24"/>
													<stop  offset="0.0874" style="stop-color:#EE2424"/>
													<stop  offset="0.1784" style="stop-color:#EE3724"/>
													<stop  offset="0.271" style="stop-color:#F04D23"/>
													<stop  offset="0.3647" style="stop-color:#F16822"/>
													<stop  offset="0.4594" style="stop-color:#F48320"/>
													<stop  offset="0.5534" style="stop-color:#F8A31B"/>
													<stop  offset="0.6411" style="stop-color:#FDC70C"/>
													<stop  offset="0.7203" style="stop-color:#FFDF00;stop-opacity:0.6899"/>
													<stop  offset="0.7688" style="stop-color:#FFF200;stop-opacity:0.5"/>
													<stop  offset="0.7754" style="stop-color:#FFF324;stop-opacity:0.4858"/>
													<stop  offset="0.7911" style="stop-color:#FFF467;stop-opacity:0.4519"/>
													<stop  offset="0.8081" style="stop-color:#FFF78F;stop-opacity:0.4151"/>
													<stop  offset="0.826" style="stop-color:#FFF9AD;stop-opacity:0.3764"/>
													<stop  offset="0.845" style="stop-color:#FFFAC7;stop-opacity:0.3352"/>
													<stop  offset="0.8655" style="stop-color:#FFFCDA;stop-opacity:0.2908"/>
													<stop  offset="0.8881" style="stop-color:#FFFDE9;stop-opacity:0.2419"/>
													<stop  offset="0.9139" style="stop-color:#FFFEF4;stop-opacity:0.1862"/>
													<stop  offset="0.9455" style="stop-color:#FFFFFB;stop-opacity:0.1179"/>
													<stop  offset="1" style="stop-color:#FFFFFF;stop-opacity:0"/>
												</radialGradient>
												<polygon fill="url(#SVGID_4_)" points="958.519,1243.584 2077.706,1369.255 2062.242,960.219 												"/>
												
													<radialGradient id="SVGID_5_" cx="17838.3086" cy="25344.5957" r="1416.2498" gradientTransform="matrix(0 -1.0579 -0.55 0 14900.0527 20111.8574)" gradientUnits="userSpaceOnUse">
													<stop  offset="0" style="stop-color:#ED1C24"/>
													<stop  offset="0.0874" style="stop-color:#EE2424"/>
													<stop  offset="0.1784" style="stop-color:#EE3724"/>
													<stop  offset="0.271" style="stop-color:#F04D23"/>
													<stop  offset="0.3647" style="stop-color:#F16822"/>
													<stop  offset="0.4594" style="stop-color:#F48320"/>
													<stop  offset="0.5534" style="stop-color:#F8A31B"/>
													<stop  offset="0.6411" style="stop-color:#FDC70C"/>
													<stop  offset="0.7203" style="stop-color:#FFDF00;stop-opacity:0.6899"/>
													<stop  offset="0.7688" style="stop-color:#FFF200;stop-opacity:0.5"/>
													<stop  offset="0.7754" style="stop-color:#FFF324;stop-opacity:0.4858"/>
													<stop  offset="0.7911" style="stop-color:#FFF467;stop-opacity:0.4519"/>
													<stop  offset="0.8081" style="stop-color:#FFF78F;stop-opacity:0.4151"/>
													<stop  offset="0.826" style="stop-color:#FFF9AD;stop-opacity:0.3764"/>
													<stop  offset="0.845" style="stop-color:#FFFAC7;stop-opacity:0.3352"/>
													<stop  offset="0.8655" style="stop-color:#FFFCDA;stop-opacity:0.2908"/>
													<stop  offset="0.8881" style="stop-color:#FFFDE9;stop-opacity:0.2419"/>
													<stop  offset="0.9139" style="stop-color:#FFFEF4;stop-opacity:0.1862"/>
													<stop  offset="0.9455" style="stop-color:#FFFFFB;stop-opacity:0.1179"/>
													<stop  offset="1" style="stop-color:#FFFFFF;stop-opacity:0"/>
												</radialGradient>
												<polygon fill="url(#SVGID_5_)" points="958.519,1243.584 2051.195,647.017 2040.149,148.094 												"/>
												
													<radialGradient id="SVGID_6_" cx="17838.3164" cy="25344.5879" r="1416.2362" gradientTransform="matrix(0 -1.0579 -0.55 0 14900.0527 20111.8574)" gradientUnits="userSpaceOnUse">
													<stop  offset="0" style="stop-color:#ED1C24"/>
													<stop  offset="0.0874" style="stop-color:#EE2424"/>
													<stop  offset="0.1784" style="stop-color:#EE3724"/>
													<stop  offset="0.271" style="stop-color:#F04D23"/>
													<stop  offset="0.3647" style="stop-color:#F16822"/>
													<stop  offset="0.4594" style="stop-color:#F48320"/>
													<stop  offset="0.5534" style="stop-color:#F8A31B"/>
													<stop  offset="0.6411" style="stop-color:#FDC70C"/>
													<stop  offset="0.7203" style="stop-color:#FFDF00;stop-opacity:0.6899"/>
													<stop  offset="0.7688" style="stop-color:#FFF200;stop-opacity:0.5"/>
													<stop  offset="0.7754" style="stop-color:#FFF324;stop-opacity:0.4858"/>
													<stop  offset="0.7911" style="stop-color:#FFF467;stop-opacity:0.4519"/>
													<stop  offset="0.8081" style="stop-color:#FFF78F;stop-opacity:0.4151"/>
													<stop  offset="0.826" style="stop-color:#FFF9AD;stop-opacity:0.3764"/>
													<stop  offset="0.845" style="stop-color:#FFFAC7;stop-opacity:0.3352"/>
													<stop  offset="0.8655" style="stop-color:#FFFCDA;stop-opacity:0.2908"/>
													<stop  offset="0.8881" style="stop-color:#FFFDE9;stop-opacity:0.2419"/>
													<stop  offset="0.9139" style="stop-color:#FFFEF4;stop-opacity:0.1862"/>
													<stop  offset="0.9455" style="stop-color:#FFFFFB;stop-opacity:0.1179"/>
													<stop  offset="1" style="stop-color:#FFFFFF;stop-opacity:0"/>
												</radialGradient>
												<polygon fill="url(#SVGID_6_)" points="958.519,1243.584 1929.685,-131.321 1568.472,-117.296 												"/>
												
													<radialGradient id="SVGID_7_" cx="17838.3164" cy="25344.5879" r="1416.2369" gradientTransform="matrix(0 -1.0579 -0.55 0 14900.0527 20111.8574)" gradientUnits="userSpaceOnUse">
													<stop  offset="0" style="stop-color:#ED1C24"/>
													<stop  offset="0.0874" style="stop-color:#EE2424"/>
													<stop  offset="0.1784" style="stop-color:#EE3724"/>
													<stop  offset="0.271" style="stop-color:#F04D23"/>
													<stop  offset="0.3647" style="stop-color:#F16822"/>
													<stop  offset="0.4594" style="stop-color:#F48320"/>
													<stop  offset="0.5534" style="stop-color:#F8A31B"/>
													<stop  offset="0.6411" style="stop-color:#FDC70C"/>
													<stop  offset="0.7203" style="stop-color:#FFDF00;stop-opacity:0.6899"/>
													<stop  offset="0.7688" style="stop-color:#FFF200;stop-opacity:0.5"/>
													<stop  offset="0.7754" style="stop-color:#FFF324;stop-opacity:0.4858"/>
													<stop  offset="0.7911" style="stop-color:#FFF467;stop-opacity:0.4519"/>
													<stop  offset="0.8081" style="stop-color:#FFF78F;stop-opacity:0.4151"/>
													<stop  offset="0.826" style="stop-color:#FFF9AD;stop-opacity:0.3764"/>
													<stop  offset="0.845" style="stop-color:#FFFAC7;stop-opacity:0.3352"/>
													<stop  offset="0.8655" style="stop-color:#FFFCDA;stop-opacity:0.2908"/>
													<stop  offset="0.8881" style="stop-color:#FFFDE9;stop-opacity:0.2419"/>
													<stop  offset="0.9139" style="stop-color:#FFFEF4;stop-opacity:0.1862"/>
													<stop  offset="0.9455" style="stop-color:#FFFFFB;stop-opacity:0.1179"/>
													<stop  offset="1" style="stop-color:#FFFFFF;stop-opacity:0"/>
												</radialGradient>
												<polygon fill="url(#SVGID_7_)" points="958.519,1243.584 1106.751,-131.321 1375.551,-131.321 												"/>
											</g>
											<g>
												
													<radialGradient id="SVGID_8_" cx="17838.3145" cy="25344.5918" r="1416.0686" gradientTransform="matrix(0 -1.0579 -0.55 0 14900.0527 20111.8574)" gradientUnits="userSpaceOnUse">
													<stop  offset="0" style="stop-color:#ED1C24"/>
													<stop  offset="0.0874" style="stop-color:#EE2424"/>
													<stop  offset="0.1784" style="stop-color:#EE3724"/>
													<stop  offset="0.271" style="stop-color:#F04D23"/>
													<stop  offset="0.3647" style="stop-color:#F16822"/>
													<stop  offset="0.4594" style="stop-color:#F48320"/>
													<stop  offset="0.5534" style="stop-color:#F8A31B"/>
													<stop  offset="0.6411" style="stop-color:#FDC70C"/>
													<stop  offset="0.7203" style="stop-color:#FFDF00;stop-opacity:0.6899"/>
													<stop  offset="0.7688" style="stop-color:#FFF200;stop-opacity:0.5"/>
													<stop  offset="0.7754" style="stop-color:#FFF324;stop-opacity:0.4858"/>
													<stop  offset="0.7911" style="stop-color:#FFF467;stop-opacity:0.4519"/>
													<stop  offset="0.8081" style="stop-color:#FFF78F;stop-opacity:0.4151"/>
													<stop  offset="0.826" style="stop-color:#FFF9AD;stop-opacity:0.3764"/>
													<stop  offset="0.845" style="stop-color:#FFFAC7;stop-opacity:0.3352"/>
													<stop  offset="0.8655" style="stop-color:#FFFCDA;stop-opacity:0.2908"/>
													<stop  offset="0.8881" style="stop-color:#FFFDE9;stop-opacity:0.2419"/>
													<stop  offset="0.9139" style="stop-color:#FFFEF4;stop-opacity:0.1862"/>
													<stop  offset="0.9455" style="stop-color:#FFFFFB;stop-opacity:0.1179"/>
													<stop  offset="1" style="stop-color:#FFFFFF;stop-opacity:0"/>
												</radialGradient>
												<polygon fill="url(#SVGID_8_)" points="958.519,1243.584 670.03,1631.035 -160.672,1661.424 												"/>
												
													<radialGradient id="SVGID_9_" cx="17838.3203" cy="25344.5918" r="1416.1639" gradientTransform="matrix(0 -1.0579 -0.55 0 14900.0527 20111.8574)" gradientUnits="userSpaceOnUse">
													<stop  offset="0" style="stop-color:#ED1C24"/>
													<stop  offset="0.0874" style="stop-color:#EE2424"/>
													<stop  offset="0.1784" style="stop-color:#EE3724"/>
													<stop  offset="0.271" style="stop-color:#F04D23"/>
													<stop  offset="0.3647" style="stop-color:#F16822"/>
													<stop  offset="0.4594" style="stop-color:#F48320"/>
													<stop  offset="0.5534" style="stop-color:#F8A31B"/>
													<stop  offset="0.6411" style="stop-color:#FDC70C"/>
													<stop  offset="0.7203" style="stop-color:#FFDF00;stop-opacity:0.6899"/>
													<stop  offset="0.7688" style="stop-color:#FFF200;stop-opacity:0.5"/>
													<stop  offset="0.7754" style="stop-color:#FFF324;stop-opacity:0.4858"/>
													<stop  offset="0.7911" style="stop-color:#FFF467;stop-opacity:0.4519"/>
													<stop  offset="0.8081" style="stop-color:#FFF78F;stop-opacity:0.4151"/>
													<stop  offset="0.826" style="stop-color:#FFF9AD;stop-opacity:0.3764"/>
													<stop  offset="0.845" style="stop-color:#FFFAC7;stop-opacity:0.3352"/>
													<stop  offset="0.8655" style="stop-color:#FFFCDA;stop-opacity:0.2908"/>
													<stop  offset="0.8881" style="stop-color:#FFFDE9;stop-opacity:0.2419"/>
													<stop  offset="0.9139" style="stop-color:#FFFEF4;stop-opacity:0.1862"/>
													<stop  offset="0.9455" style="stop-color:#FFFFFB;stop-opacity:0.1179"/>
													<stop  offset="1" style="stop-color:#FFFFFF;stop-opacity:0"/>
												</radialGradient>
												<polygon fill="url(#SVGID_9_)" points="958.519,1243.584 -160.672,1369.255 -145.208,960.219 												"/>
												
													<radialGradient id="SVGID_10_" cx="17838.3086" cy="25344.5918" r="1416.1996" gradientTransform="matrix(0 -1.0579 -0.55 0 14900.0527 20111.8574)" gradientUnits="userSpaceOnUse">
													<stop  offset="0" style="stop-color:#ED1C24"/>
													<stop  offset="0.0874" style="stop-color:#EE2424"/>
													<stop  offset="0.1784" style="stop-color:#EE3724"/>
													<stop  offset="0.271" style="stop-color:#F04D23"/>
													<stop  offset="0.3647" style="stop-color:#F16822"/>
													<stop  offset="0.4594" style="stop-color:#F48320"/>
													<stop  offset="0.5534" style="stop-color:#F8A31B"/>
													<stop  offset="0.6411" style="stop-color:#FDC70C"/>
													<stop  offset="0.7203" style="stop-color:#FFDF00;stop-opacity:0.6899"/>
													<stop  offset="0.7688" style="stop-color:#FFF200;stop-opacity:0.5"/>
													<stop  offset="0.7754" style="stop-color:#FFF324;stop-opacity:0.4858"/>
													<stop  offset="0.7911" style="stop-color:#FFF467;stop-opacity:0.4519"/>
													<stop  offset="0.8081" style="stop-color:#FFF78F;stop-opacity:0.4151"/>
													<stop  offset="0.826" style="stop-color:#FFF9AD;stop-opacity:0.3764"/>
													<stop  offset="0.845" style="stop-color:#FFFAC7;stop-opacity:0.3352"/>
													<stop  offset="0.8655" style="stop-color:#FFFCDA;stop-opacity:0.2908"/>
													<stop  offset="0.8881" style="stop-color:#FFFDE9;stop-opacity:0.2419"/>
													<stop  offset="0.9139" style="stop-color:#FFFEF4;stop-opacity:0.1862"/>
													<stop  offset="0.9455" style="stop-color:#FFFFFB;stop-opacity:0.1179"/>
													<stop  offset="1" style="stop-color:#FFFFFF;stop-opacity:0"/>
												</radialGradient>
												<polygon fill="url(#SVGID_10_)" points="958.519,1243.584 -134.161,647.017 -123.114,148.094 												"/>
												
													<radialGradient id="SVGID_11_" cx="17838.3164" cy="25344.5879" r="1416.2067" gradientTransform="matrix(0 -1.0579 -0.55 0 14900.0527 20111.8574)" gradientUnits="userSpaceOnUse">
													<stop  offset="0" style="stop-color:#ED1C24"/>
													<stop  offset="0.0874" style="stop-color:#EE2424"/>
													<stop  offset="0.1784" style="stop-color:#EE3724"/>
													<stop  offset="0.271" style="stop-color:#F04D23"/>
													<stop  offset="0.3647" style="stop-color:#F16822"/>
													<stop  offset="0.4594" style="stop-color:#F48320"/>
													<stop  offset="0.5534" style="stop-color:#F8A31B"/>
													<stop  offset="0.6411" style="stop-color:#FDC70C"/>
													<stop  offset="0.7203" style="stop-color:#FFDF00;stop-opacity:0.6899"/>
													<stop  offset="0.7688" style="stop-color:#FFF200;stop-opacity:0.5"/>
													<stop  offset="0.7754" style="stop-color:#FFF324;stop-opacity:0.4858"/>
													<stop  offset="0.7911" style="stop-color:#FFF467;stop-opacity:0.4519"/>
													<stop  offset="0.8081" style="stop-color:#FFF78F;stop-opacity:0.4151"/>
													<stop  offset="0.826" style="stop-color:#FFF9AD;stop-opacity:0.3764"/>
													<stop  offset="0.845" style="stop-color:#FFFAC7;stop-opacity:0.3352"/>
													<stop  offset="0.8655" style="stop-color:#FFFCDA;stop-opacity:0.2908"/>
													<stop  offset="0.8881" style="stop-color:#FFFDE9;stop-opacity:0.2419"/>
													<stop  offset="0.9139" style="stop-color:#FFFEF4;stop-opacity:0.1862"/>
													<stop  offset="0.9455" style="stop-color:#FFFFFB;stop-opacity:0.1179"/>
													<stop  offset="1" style="stop-color:#FFFFFF;stop-opacity:0"/>
												</radialGradient>
												<polygon fill="url(#SVGID_11_)" points="958.519,1243.584 -12.65,-131.321 348.564,-117.296 												"/>
												
													<radialGradient id="SVGID_12_" cx="17838.3164" cy="25344.5879" r="1416.229" gradientTransform="matrix(0 -1.0579 -0.55 0 14900.0527 20111.8574)" gradientUnits="userSpaceOnUse">
													<stop  offset="0" style="stop-color:#ED1C24"/>
													<stop  offset="0.0874" style="stop-color:#EE2424"/>
													<stop  offset="0.1784" style="stop-color:#EE3724"/>
													<stop  offset="0.271" style="stop-color:#F04D23"/>
													<stop  offset="0.3647" style="stop-color:#F16822"/>
													<stop  offset="0.4594" style="stop-color:#F48320"/>
													<stop  offset="0.5534" style="stop-color:#F8A31B"/>
													<stop  offset="0.6411" style="stop-color:#FDC70C"/>
													<stop  offset="0.7203" style="stop-color:#FFDF00;stop-opacity:0.6899"/>
													<stop  offset="0.7688" style="stop-color:#FFF200;stop-opacity:0.5"/>
													<stop  offset="0.7754" style="stop-color:#FFF324;stop-opacity:0.4858"/>
													<stop  offset="0.7911" style="stop-color:#FFF467;stop-opacity:0.4519"/>
													<stop  offset="0.8081" style="stop-color:#FFF78F;stop-opacity:0.4151"/>
													<stop  offset="0.826" style="stop-color:#FFF9AD;stop-opacity:0.3764"/>
													<stop  offset="0.845" style="stop-color:#FFFAC7;stop-opacity:0.3352"/>
													<stop  offset="0.8655" style="stop-color:#FFFCDA;stop-opacity:0.2908"/>
													<stop  offset="0.8881" style="stop-color:#FFFDE9;stop-opacity:0.2419"/>
													<stop  offset="0.9139" style="stop-color:#FFFEF4;stop-opacity:0.1862"/>
													<stop  offset="0.9455" style="stop-color:#FFFFFB;stop-opacity:0.1179"/>
													<stop  offset="1" style="stop-color:#FFFFFF;stop-opacity:0"/>
												</radialGradient>
												<polygon fill="url(#SVGID_12_)" points="958.519,1243.584 810.281,-131.321 541.484,-131.321 												"/>
											</g>
										</g>
									</g>
								</g>
							</g>
						</g>
					</g>
				</g>
			</g>
		</g>
	</g>
	<path fill="#2B3990" d="M1624.32,1299.918c0,0,2.088-0.448,5.642-1.438c-42.563,13.063-91.299,19.876-146.83,16.87l28.91,53.847
		c0,0,119.936-16.679,227.024-97.786c-2.597,2.029-4.824,3.748-6.194,4.731c0,0,76.291-18.214,135.749-1.261
		c0,0-58.125-30.137-106.786-21.781c0,0-0.961,0.791-2.501,2.056c31.414-26.806,60.898-59.644,84.92-99.855
		c-2.835,4.729-6.587,10.855-9.116,14.606c0,0,39.354,5.555,117.182-28.832c0,0-70.322,20.899-104.118,7.604
		c0,0-0.736,1.238-1.819,3.062c15.229-26.096,28.18-55.23,37.846-87.784c0,0-62.219,162.683-231.252,226.677
		c4.259-1.923-23.125-63.38,13.804-157.179C1666.761,1133.45,1619.817,1225.323,1624.32,1299.918z"/>
	<path fill="#2B3990" d="M1679.974,1065.719c-61.412,32.976-80.646,125.704-80.646,125.704
		c-112.48-164.267,119.595-331.378,119.595-331.378c158.085,286.372-17.818,351.329-17.818,351.329
		C1725.346,1104.716,1679.971,1065.703,1679.974,1065.719z"/>
	<path fill="#2B3990" d="M1943.012,1292.429c-23.375-51.323-97.185-71.754-97.185-71.754
		c138.539-82.084,261.133,114.081,261.133,114.081c-239.495,112.434-282.624-32.983-282.624-32.983
		C1909.13,1326.979,1943.008,1292.423,1943.012,1292.429z"/>
	<path fill="#2B3990" d="M1903.21,1008.677c-39.84,17.396-56.511,74.066-56.511,74.066c-61.588-107.837,91.165-199.97,91.165-199.97
		c83.768,186.056-28.868,217.526-28.868,217.526C1929.459,1035.228,1903.219,1008.68,1903.21,1008.677z"/>
	<path fill="#2B3990" d="M2000.802,1132.226c-26.162-17.854-67.554-6.199-67.554-6.199c42.688-79.729,158.633-21.133,158.633-21.133
		c-82.364,123.67-145.374,66.35-145.374,66.35C1994.575,1158.688,2000.802,1132.226,2000.802,1132.226z"/>
	<path fill="#F2F5FB" d="M4068.204,869.844c-12.314-4.983-24.201-14.829-32.623-26.998c-5.01-7.237-10.791-18.203-12.887-32.209
		h84.342c-1.025,6.854-2.936,12.979-5.203,18.296h-66.529c1.512,2.928,3.109,5.512,4.625,7.702
		c3.709,5.354,8.164,10.227,13.049,14.344h34.721c-4.189,4.635-8.865,8.743-13.814,12.135c9.389,4.394,18.363,10.634,26.461,18.345
		c4.039-4.207,7.807-8.813,11.229-13.741c13.629-19.707,20.842-43.233,20.842-68.032c0-24.793-7.213-48.315-20.842-68.021
		c-11.48-16.587-26.887-29.4-43.377-36.082c-12.314-4.981-24.201-14.822-32.623-26.994c-5.01-7.233-10.781-18.188-12.885-32.177
		h84.336c-1.025,6.854-2.939,12.979-5.209,18.298h-66.502c1.51,2.911,3.102,5.479,4.613,7.663
		c3.719,5.369,8.188,10.25,13.088,14.382h34.645c-4.18,4.62-8.85,8.717-13.779,12.104c9.396,4.386,18.367,10.627,26.477,18.35
		c4.039-4.212,7.811-8.813,11.225-13.755c13.631-19.7,20.844-43.226,20.844-68.02V610.85c0-0.992-0.072-1.959-0.182-2.906
		c-0.637,0.354-1.389,0.576-2.266,0.617c-3.988,0.186-7.311,2.291-10.861,3.882c-3.795,1.696-7.646,2.52-11.805,2.118
		c-0.355-0.033-0.695-0.097-1.033-0.188h-84.402v-3.521c0-9.745-5.5-17.645-12.277-17.645c-6.787,0-12.287,7.896-12.287,17.645
		v14.582c0,24.794,7.205,48.313,20.84,68.019c11.48,16.595,26.885,29.409,43.383,36.089c12.309,4.987,24.201,14.823,32.621,27
		c5.01,7.238,10.791,18.199,12.889,32.209h-84.35c1.027-6.854,2.938-12.979,5.201-18.3h66.529c-1.514-2.925-3.111-5.511-4.625-7.694
		c-3.709-5.355-8.16-10.229-13.049-14.352h-34.721c4.186-4.638,8.863-8.747,13.813-12.139c-9.385-4.382-18.363-10.623-26.459-18.339
		c-4.041,4.208-7.811,8.809-11.229,13.75c-13.646,19.696-20.846,43.224-20.846,68.02c0,24.797,7.205,48.32,20.84,68.027
		c11.479,16.586,26.887,29.396,43.383,36.081c12.309,4.979,24.201,14.825,32.623,26.996c5.006,7.229,10.779,18.186,12.885,32.175
		h-84.342c1.029-6.855,2.938-12.982,5.213-18.298h66.496c-1.504-2.92-3.102-5.479-4.611-7.662
		c-3.717-5.376-8.188-10.251-13.09-14.381h-34.646c4.174-4.622,8.846-8.712,13.775-12.104c-9.385-4.385-18.361-10.626-26.461-18.339
		c-4.037,4.212-7.807,8.813-11.225,13.752c-13.643,19.702-20.846,43.219-20.846,68.021v14.584c0,9.737,5.5,17.634,12.285,17.634
		c6.777,0,12.279-7.896,12.279-17.634v-3.532h85.986v3.532c0,9.732,5.498,17.634,12.283,17.634s12.283-7.896,12.283-17.634v-14.584
		c0-24.804-7.209-48.315-20.842-68.023C4100.1,889.343,4084.692,876.525,4068.204,869.844z"/>
	<path fill="#2B3990" d="M413.946,769.539L575.204,896.58l22.003-46.414c0,0,24.422,22,46.425,22c0,0,302.979,300.535,627.961-2.442
		c0,0,17.108,2.442,36.637-17.107l12.236,46.431l158.832-127.063c0,0,210.129,207.699-107.511,481.358
		c0,0,144.172,19.555,149.043,149.046h-486.249c0,0-2.46-12.214,12.2-21.979c0,0-149.044,21.979-180.813-2.443
		c0,0,4.882,17.104,0,24.424H379.734c0,0-12.235-109.959,151.485-144.148C531.222,1258.209,216.01,1026.104,413.946,769.539z"/>
	<path fill="#2B3990" d="M808.556,434.78c-20.92,0-37.855,16.963-37.855,37.871c0,20.922,16.963,37.886,37.855,37.886
		c20.91,0,37.89-16.964,37.89-37.886C846.443,451.742,829.468,434.78,808.556,434.78z M815.877,483.659
		c-10.115,0-18.319-8.206-18.319-18.331c0-10.115,8.205-18.32,18.319-18.32c10.124,0,18.33,8.207,18.33,18.32
		C834.206,475.453,826.026,483.659,815.877,483.659z"/>
	<path fill="#2B3990" d="M1261.816,532.525c0,0,51.307-127.063-87.976-190.592c0,0-141.713-48.868-195.47,95.298l-34.212,2.438
		c0,0-51.313-163.702-217.471-87.975c0,0-105.063,53.756-65.979,171.053c0,0-131.938,21.986-127.042,173.49
		c0,0,2.424,109.952,124.608,146.607c0,0,285.885,285.873,598.648-2.441c0,0,102.617-24.437,109.938-171.037
		C1366.879,669.344,1364.444,559.403,1261.816,532.525z M803.674,542.304c-39.802,0-72.085-32.271-72.085-72.087
		c0-39.813,32.282-72.08,72.085-72.08c39.816,0,72.085,32.271,72.085,72.08C875.737,510.021,843.467,542.304,803.674,542.304z
		 M1121.326,542.304c-39.806,0-72.075-32.271-72.075-72.087c0-39.813,32.273-72.08,72.075-72.08
		c39.803,0,72.074,32.271,72.074,72.08C1193.4,510.021,1161.129,542.304,1121.326,542.304z"/>
	<path fill="#2B3990" d="M1126.198,434.78c-20.911,0-37.874,16.963-37.874,37.871c0,20.922,16.962,37.886,37.874,37.886
		c20.92,0,37.885-16.964,37.885-37.886C1164.081,451.742,1147.117,434.78,1126.198,434.78z M1133.538,483.659
		c-10.125,0-18.331-8.206-18.331-18.331c0-10.115,8.205-18.32,18.331-18.32c10.125,0,18.33,8.207,18.33,18.32
		C1151.868,475.453,1143.663,483.659,1133.538,483.659z"/>
	<path fill="none" d="M1188.946,93.327l5.97,5.438c0,0,23.776-24.287,54.538-12.942c30.732,11.334,184.687,83.045,184.687,83.045
		l15.099-33.032c0,0-159.799-77.712-196.83-81.146C1215.225,51.228,1188.946,93.327,1188.946,93.327z"/>
	<path fill="none" d="M1273.323,90.639c0,0-30.611,96.26-116.406,126.732c0,0-24.738,17.104-1.212,42.732
		c0,0,22.138,20.939,47.719-7.288c0,0,32.396-33.896,58.124-87.08l35.858-66.146L1273.323,90.639z"/>
	<path fill="none" d="M1348.831,125.808l-76.34,136.254c0,0-23.229,63.133,51.298,68.104c0,0,34.308-2.591,56.062-44.063
		l-10.477-4.789c0,0-41.071,31.281-53.104,2.108c0,0-9.115-10.919,20.723-66.964l42.402-77.353l-29.47-14.127"/>
	<path fill="#2B3990" d="M370.642,1183.888c-10.782-17.589-132.167-146.06-132.167-146.06l-11.489-97.481
		c-3.576-35.949,12.612-46.749,12.612-46.749l-57.771,7.438l-12.907,1.662l-57.777,7.438c0,0,18.38,6.349,24.043,42.025
		l13.583,97.221c0,0-84.884,155.026-90.848,174.771c0,0-28.919,64.729,36.049,73.297l128.97-16.604l2.435-0.313l128.965-16.604
		C415.025,1239.18,370.642,1183.888,370.642,1183.888z M325.825,1250.76L222.989,1264l-1.939,0.252l-102.836,13.239
		c-51.803-6.813-28.754-58.446-28.754-58.446c4.769-15.748,37.884-71.978,37.884-71.978l158.531-20.416
		c0,0,4.171,4.354,10.199,10.777l-35.788,4.604c-3.245,0.42-5.534,3.295-5.132,6.408c0.401,3.114,3.341,5.308,6.586,4.89
		l43.866-5.646c4.186,4.547,8.637,9.436,12.886,14.228l-32.219,4.147c-3.221,0.414-5.537,3.28-5.137,6.396
		c0.403,3.107,3.369,5.298,6.592,4.887l39.743-5.118c5.002,5.902,9.081,11.063,11.194,14.448l-28.651,3.688
		c-3.229,0.416-5.54,3.285-5.138,6.399c0.404,3.123,3.36,5.306,6.59,4.89l33.854-4.359
		C352.63,1211.573,359.452,1237.062,325.825,1250.76z"/>
	<path fill="#2B3990" d="M124.582,830.477c19.156-2.467,36.605,10.497,38.982,28.949c2.377,18.457-11.219,35.414-30.375,37.881
		c-19.149,2.466-36.607-10.492-38.983-28.948C91.828,849.907,105.43,832.944,124.582,830.477z"/>
	<path fill="#2B3990" d="M56.131,951.204c19.148-2.468,36.604,10.49,38.981,28.946c2.376,18.453-11.226,35.414-30.376,37.878
		c-19.156,2.471-36.606-10.491-38.981-28.947C23.377,970.631,36.974,953.674,56.131,951.204z"/>
	<path fill="#2B3990" d="M57.117,868.665c15.569-2.004,29.764,8.529,31.691,23.533c1.934,15.002-9.127,28.786-24.695,30.791
		c-15.569,2.003-29.76-8.524-31.691-23.525C30.49,884.454,41.547,870.675,57.117,868.665z"/>
	<path fill="none" d="M293.206,210.93c10.771,1.977,21.518,4.193,32.165,6.611c-7.822-18.227-15.896-35.053-24.045-50.438
		c-13.352,11.711-26.903,24.617-40.432,38.563C271.557,207.196,282.342,208.934,293.206,210.93z"/>
	<path fill="none" d="M296.325,157.897c-38.046-68.771-76.977-105.008-99.006-97.164c-22.03,7.845-29.3,60.521-15.33,137.877
		c21.006,0.672,43.305,2.472,66.331,5.393C264.337,187.181,280.474,171.69,296.325,157.897z"/>
	<path fill="none" d="M264.34,368.139c-10.759-1.979-21.503-4.196-32.153-6.611c7.819,18.219,15.892,35.053,24.044,50.434
		c13.35-11.713,26.909-24.606,40.433-38.563C286,371.873,275.21,370.133,264.34,368.139z"/>
	<path fill="none" d="M161.425,331.318c16.52,5.602,34.457,10.902,53.743,15.72c-4.09-10.133-8.004-20.386-11.672-30.688
		c-3.675-10.313-7.12-20.729-10.354-31.169C181.24,301.097,170.688,316.535,161.425,331.318z"/>
	<path fill="none" d="M39.896,245.693c-4.226,23.011,37.833,55.676,111.904,82.269c11.244-18.147,23.972-36.636,37.71-54.811
		c-6.375-21.827-11.701-43.598-15.76-64.521c-42.275-0.801-78.509,3.176-103.358,12.021
		C57.749,225.147,42.192,233.147,39.896,245.693z"/>
	<path fill="none" d="M156.092,340.015c-40.603,67.404-52.554,119.305-34.729,134.475c9.707,8.268,26.812,4.629,39.447,0.131
		c24.851-8.849,55.443-28.666,87.706-56.003c-10.077-18.779-19.706-39.015-28.562-59.967
		C197.819,353.251,176.274,346.967,156.092,340.015z"/>
	<path fill="none" d="M261.23,421.17c38.057,68.779,76.983,105.019,99.02,97.173c16.264-5.789,24.306-35.342,22.052-81.082
		c-0.859-17.485-3.188-36.604-6.829-56.802c-20.979-0.674-43.248-2.479-66.243-5.395C293.22,391.884,277.081,407.376,261.23,421.17z
		"/>
	<path fill="none" d="M239.637,213.241c-19.293-2.264-37.954-3.691-55.69-4.336c3.401,17.068,7.772,35.217,13.229,54.287
		c6.725-8.604,13.648-17.116,20.735-25.444C225.079,229.321,232.342,221.161,239.637,213.241z"/>
	<path fill="none" d="M401.463,239.064c40.604-67.419,52.556-119.313,34.738-134.479c-9.708-8.27-26.82-4.639-39.461-0.137
		c-24.854,8.846-55.438,28.664-87.701,55.999c10.081,18.786,19.708,39.018,28.563,59.97
		C359.736,225.821,381.284,232.105,401.463,239.064z"/>
	<path fill="none" d="M396.122,247.756c-16.511-5.601-34.445-10.901-53.729-15.716c4.092,10.13,8.009,20.39,11.678,30.694
		c3.711,10.424,7.153,20.807,10.376,31.121C376.332,277.952,386.874,262.521,396.122,247.756z"/>
	<path fill="none" d="M405.756,251.123c-11.229,18.125-23.938,36.589-37.666,54.732c6.552,22.187,11.896,43.887,15.934,64.591
		c42.188,0.778,78.352-3.193,103.151-12.026c12.633-4.497,28.188-12.487,30.486-25.026
		C521.888,310.37,479.829,277.707,405.756,251.123z"/>
	<path fill="none" d="M291.352,221.021c-13.223-2.423-26.295-4.453-39.168-6.184c-8.888,9.479-17.74,19.313-26.452,29.554
		c-8.854,10.403-17.195,20.688-25.016,30.813c3.718,12.244,7.857,24.828,12.44,37.701c4.581,12.866,9.321,25.229,14.179,37.065
		c9.516,2.216,19.366,4.306,29.461,6.271c3.961,1.496,8.184,2.287,12.492,2.336c12.169,2.188,24.213,4.063,36.079,5.646
		c8.89-9.471,17.732-19.306,26.449-29.542c8.846-10.396,17.171-20.667,24.979-30.774c-3.768-12.468-7.896-25.063-12.405-37.729
		c-4.583-12.872-9.316-25.237-14.182-37.078C317.76,226.192,304.796,223.49,291.352,221.021z M295.76,337.235
		c-26.343,9.377-55.299-4.381-64.674-30.713c-9.38-26.342,4.368-55.297,30.712-64.678c26.334-9.375,55.296,4.368,64.674,30.715
		C335.849,298.894,322.095,327.857,295.76,337.235z"/>
	<path fill="none" d="M317.917,365.825c19.261,2.259,37.892,3.688,55.601,4.328c-3.466-17.46-7.886-35.639-13.18-54.221
		c-6.715,8.587-13.621,17.073-20.694,25.391C332.474,349.742,325.217,357.905,317.917,365.825z"/>
	<path fill="#2B3990" d="M411.026,242.45c38.809-65.028,57.146-124.127,31.828-145.679c-10.784-9.188-27.464-9.855-49.559-1.986
		c-25.449,9.063-56.55,29.047-89.254,56.53C267.147,85.272,225.17,39.922,193.876,51.065
		c-31.294,11.143-35.166,72.814-22.025,147.314c-42.713-0.629-79.456,3.538-104.898,12.6c-22.094,7.867-34.593,18.92-37.15,32.855
		c-6.003,32.702,45.56,66.912,116.733,92.781c-38.812,65.034-57.146,124.142-31.828,145.688c10.79,9.182,27.451,9.846,49.542,1.979
		c25.45-9.063,56.556-29.049,89.258-56.537c36.899,66.052,78.878,111.402,110.187,100.261c21.133-7.522,31.382-39.936,28.855-91.253
		c-0.855-17.318-3.115-36.184-6.625-56.063c42.625,0.611,79.283-3.552,104.692-12.599c22.089-7.865,34.578-18.924,37.137-32.849
		C533.759,302.543,482.2,268.323,411.026,242.45z M160.809,474.62c-12.636,4.5-29.74,8.137-39.447-0.129
		c-17.824-15.17-5.875-67.069,34.727-134.487c20.186,6.962,41.73,13.246,63.862,18.646c8.854,20.938,18.481,41.183,28.563,59.97
		C216.253,445.954,185.66,465.774,160.809,474.62z M215.168,347.036c-19.29-4.825-37.225-10.121-53.743-15.718
		c9.265-14.783,19.815-30.224,31.717-46.146c3.235,10.438,6.681,20.857,10.353,31.174
		C207.164,326.652,211.076,336.905,215.168,347.036z M189.519,273.145c-13.749,18.177-26.471,36.658-37.713,54.812
		C77.729,301.37,35.67,268.704,39.896,245.694c2.296-12.546,17.854-20.546,30.495-25.046c24.849-8.852,61.083-12.824,103.358-12.021
		C177.815,229.545,183.134,251.316,189.519,273.145z M325.371,217.545c-10.653-2.417-21.406-4.635-32.165-6.611
		c-10.871-1.994-21.647-3.732-32.312-5.261c13.523-13.944,27.078-26.849,40.423-38.559
		C309.478,182.491,317.549,199.319,325.371,217.545z M197.321,60.733c22.029-7.842,60.957,28.393,99.004,97.164
		c-15.851,13.793-31.993,29.285-48.003,46.104c-23.032-2.918-45.326-4.724-66.331-5.393
		C168.022,121.263,175.289,68.578,197.321,60.733z M183.945,208.908c17.736,0.646,36.398,2.069,55.692,4.333
		c-7.309,7.924-14.559,16.08-21.726,24.503c-7.09,8.327-14.016,16.839-20.736,25.444
		C191.718,244.122,187.344,225.976,183.945,208.908z M232.186,361.527c10.654,2.415,21.406,4.636,32.162,6.604
		c10.865,1.992,21.651,3.736,32.312,5.262c-13.518,13.945-27.078,26.851-40.42,38.559
		C248.077,396.58,240.006,379.746,232.186,361.527z M382.302,437.26c2.257,45.736-5.785,75.291-22.052,81.082
		c-22.037,7.846-60.964-28.395-99.02-97.173c15.852-13.792,31.994-29.283,48-46.104c22.991,2.918,45.263,4.723,66.239,5.396
		C379.112,400.647,381.44,419.773,382.302,437.26z M373.512,370.155c-17.708-0.644-36.339-2.07-55.596-4.33
		c7.299-7.922,14.552-16.082,21.716-24.493c7.072-8.313,13.982-16.805,20.694-25.396
		C365.632,334.515,370.047,352.696,373.512,370.155z M356.802,303.907c-7.812,10.106-16.138,20.383-24.979,30.774
		c-8.712,10.236-17.563,20.071-26.449,29.544c-11.867-1.585-23.912-3.458-36.078-5.646c-4.312-0.049-8.534-0.838-12.494-2.336
		c-10.095-1.97-19.945-4.057-29.461-6.271c-4.852-11.826-9.595-24.199-14.18-37.066c-4.582-12.873-8.721-25.451-12.44-37.7
		c7.821-10.121,16.162-20.409,25.018-30.813c8.714-10.24,17.564-20.075,26.451-29.552c12.875,1.729,25.944,3.759,39.168,6.184
		c13.443,2.472,26.406,5.173,38.866,8.078c4.854,11.834,9.602,24.204,14.187,37.077C348.908,278.836,353.036,291.44,356.802,303.907
		z M396.742,104.452c12.641-4.501,29.753-8.131,39.461,0.138c17.813,15.168,5.866,67.06-34.738,134.479
		c-20.178-6.958-41.726-13.242-63.855-18.646c-8.854-20.944-18.481-41.187-28.563-59.969
		C341.304,133.117,371.892,113.299,396.742,104.452z M342.392,232.04c19.285,4.817,37.228,10.121,53.729,15.716
		c-9.248,14.77-19.795,30.198-31.68,46.103c-3.225-10.317-6.666-20.696-10.378-31.122C350.396,252.427,346.48,242.17,342.392,232.04
		z M517.664,333.391c-2.301,12.537-17.856,20.529-30.489,25.026c-24.804,8.833-60.965,12.813-103.154,12.026
		c-4.03-20.707-9.377-42.405-15.927-64.591c13.724-18.152,26.435-36.615,37.663-54.732
		C479.829,277.707,521.888,310.37,517.664,333.391z"/>
	<path fill="#2B3990" stroke="#2B3990" stroke-miterlimit="10" d="M261.8,241.844c26.342-9.383,55.296,4.368,64.674,30.715
		c9.384,26.342-4.365,55.296-30.708,64.677c-26.342,9.378-55.296-4.371-64.674-30.715
		C221.707,280.181,235.455,251.224,261.8,241.844z"/>
	<path fill="#2B3990" d="M4855.338,182.557c-9.826-0.688-18.467,5.757-20.939,14.903l-28.086-2.923
		c-1.439-12.38-11.508-22.384-24.387-23.287c-1.643-0.113-3.26-0.03-4.85,0.146l-8.563-33.32c3.805-2.476,6.451-6.598,6.793-11.469
		c0.578-8.246-5.6-15.438-13.867-16.015c-8.246-0.577-15.443,5.676-16.021,13.923c-0.576,8.229,5.68,15.402,13.928,15.979
		c0.785,0.061,1.553-0.006,2.311-0.063l8.449,32.816c-9,3.704-15.658,12.146-16.383,22.509c-0.619,8.8,3.201,16.854,9.492,22.104
		l-34.688,42.243c-3.258-1.812-6.918-3.001-10.896-3.278c-13.477-0.946-25.203,8.509-27.658,21.508l-59.744-10.246
		c0.992-16.378-11.395-30.563-27.811-31.719c-2.014-0.138-3.977-0.063-5.9,0.188l-12.77-60.444
		c10.793-4.932,18.686-15.318,19.574-28.003c0.305-4.347-0.314-8.542-1.561-12.464l17.949-7.443
		c4.758,5.673,11.689,9.507,19.646,10.063c15.551,1.089,29.063-10.589,30.152-26.153c0.129-1.813,0.035-3.583-0.168-5.32
		l38.871-13.083c2.48,3.854,6.627,6.563,11.549,6.908c8.258,0.578,15.371-5.668,15.953-13.928c0.576-8.243-5.6-15.396-13.855-15.975
		c-8.26-0.577-15.451,5.63-16.029,13.881c-0.057,0.766,0.021,1.513,0.074,2.263l-38.389,12.933
		c-3.891-9.771-13.025-17.013-24.215-17.799c-4.172-0.291-8.168,0.401-11.848,1.782l-8.914-18.625
		c3.814-2.479,6.479-6.604,6.816-11.498c0.578-8.246-5.609-15.403-13.859-15.982c-8.268-0.58-15.449,5.646-16.027,13.892
		c-0.578,8.271,5.67,15.421,13.938,16.002c0.756,0.053,1.486-0.02,2.215-0.068l9.463,19.742
		c-6.662,4.723-11.305,12.169-11.92,20.938c-0.346,4.938,0.709,9.604,2.668,13.786l-16.957,7.035
		c-5.389-9.27-15.119-15.797-26.635-16.604c-18.412-1.291-34.439,12.623-35.729,31.048c-1.295,18.47,12.641,34.469,31.057,35.761
		c3.199,0.228,6.271-0.154,9.26-0.788l12.689,60.026c-10.447,4.092-18.215,13.83-19.059,25.769
		c-0.586,8.378,2.355,16.175,7.535,21.998l-29.27,32.53c-5.348-4.467-12.029-7.406-19.494-7.931
		c-16.604-1.161-31.271,9.656-35.547,25.073l-46.021-11.227c0.08-0.64,0.283-1.23,0.326-1.878
		c1.293-18.453-12.646-34.483-31.059-35.771c-5.896-0.409-11.463,0.854-16.459,3.194l-32.404-62.758
		c7.781-4.546,13.271-12.729,13.943-22.41c0.08-1.154-0.061-2.277-0.107-3.401l16.496-2.782c2.439,6.071,8.113,10.576,15.08,11.063
		c9.684,0.68,18.127-6.646,18.814-16.354c0.682-9.702-6.666-18.139-16.35-18.813c-9.707-0.681-18.145,6.646-18.83,16.353
		c-0.016,0.21,0.033,0.402,0.021,0.604l-16.445,2.766c-1.645-5.138-4.732-9.617-8.828-13.021l16.543-32.806
		c2.355,1.445,5.023,2.428,7.963,2.632c9.73,0.682,18.166-6.621,18.852-16.342c0.68-9.688-6.652-18.113-16.393-18.794
		c-9.684-0.683-18.119,6.638-18.799,16.328c-0.277,4.028,0.873,7.797,2.941,10.91l-17.25,34.193
		c-3.037-1.407-6.328-2.36-9.859-2.607c-14.932-1.048-27.83,9.733-29.797,24.355l-36.602-9.837
		c0.537-9.611-6.729-17.886-16.355-18.563c-9.713-0.681-18.135,6.64-18.813,16.354c-0.686,9.726,6.639,18.134,16.35,18.813
		c7.283,0.516,13.854-3.471,16.959-9.595l38.332,10.305c1.717,13.021,12.383,23.463,25.98,24.413
		c3.275,0.231,6.418-0.222,9.412-1.045l32.936,63.796c-7.34,5.642-12.396,14.175-13.098,24.139
		c-0.646,9.227,2.514,17.832,8.145,24.307l-12.328,15.938c-6.057-4.833-13.594-7.938-21.91-8.521
		c-21.826-1.529-40.785,14.938-42.313,36.827c-1.529,21.814,14.949,40.739,36.77,42.271c5.955,0.418,11.686-0.531,16.914-2.532
		l16.541,36.187c-13.084,7.688-22.299,21.475-23.438,37.784c-0.924,13.18,3.645,25.503,11.756,34.725l-33.701,30.396
		c-4.232-4.375-9.963-7.313-16.504-7.771c-14.078-0.982-26.289,9.607-27.273,23.676c-0.982,14.081,9.623,26.313,23.703,27.299
		c14.082,0.982,26.297-9.646,27.283-23.729c0.34-4.888-0.787-9.509-2.91-13.563l34.611-31.259c7.43,6.229,16.797,10.3,27.203,11.025
		c21.918,1.536,41.391-12.104,48.244-31.929l40.063,8.308c-0.441,21.457,16.002,39.743,37.629,41.26
		c9.32,0.652,18.08-1.92,25.281-6.723l15.688,31.647c-5.834,4.273-9.893,10.893-10.438,18.688
		c-0.986,14.076,9.658,26.317,23.723,27.308c14.088,0.986,26.311-9.651,27.291-23.729c0.986-14.097-9.631-26.254-23.717-27.241
		c-3.689-0.258-7.23,0.319-10.51,1.502l-16.271-32.828c6.92-6.705,11.516-15.853,12.24-26.202
		c0.844-12.021-3.672-23.158-11.48-31.148l14.043-19.345c4.523,2.193,9.504,3.604,14.816,3.976
		c18.283,1.28,34.592-9.783,40.773-26.063l54.563-3.938c4.033,6.414,10.92,10.925,19.082,11.497
		c5.367,0.375,10.398-1.034,14.652-3.667l21.611,20.898c-1.498,2.378-2.508,5.102-2.725,8.091
		c-0.682,9.729,6.627,18.176,16.354,18.854c9.664,0.681,18.129-6.661,18.813-16.394c0.684-9.697-6.682-18.146-16.346-18.819
		c-4.09-0.289-7.904,0.903-11.057,3.036l-21.109-20.408c3.438-3.925,5.73-8.892,6.131-14.5c0.672-9.598-4.297-18.231-12.037-22.86
		l5.408-14.915c0.725,0.137,1.426,0.324,2.184,0.375c11.648,0.818,21.754-7.947,22.57-19.604
		c0.729-10.481-6.314-19.659-16.229-22.006l-5.467-57.473c8.105-4.034,13.979-12.034,14.648-21.702
		c0.563-8.018-2.584-15.357-7.875-20.601l35.154-42.786c2.723,1.208,5.65,2.061,8.791,2.277c5.115,0.356,9.955-0.83,14.184-3.071
		l10.064,11.2c-1.854,2.301-3.063,5.163-3.283,8.34c-0.582,8.278,5.607,15.436,13.867,16.013
		c8.254,0.577,15.451-5.633,16.031-13.914c0.578-8.263-5.689-15.399-13.939-15.979c-2.434-0.17-4.729,0.298-6.824,1.185
		l-10.02-11.136c4.023-3.855,6.793-8.971,7.73-14.792l27.771,2.879c0.908,9.688,8.631,17.58,18.674,18.283
		c11.146,0.78,20.891-7.627,21.668-18.79C4874.959,193.046,4866.502,183.339,4855.338,182.557z M4555.965,495.332
		c-5.895-4.185-12.914-6.888-20.65-7.432c-20.518-1.436-38.537,12.729-42.504,32.402l-38.979-8.073
		c0.309-1.717,0.551-3.463,0.674-5.23c1.84-26.271-17.939-49.021-44.135-50.854c-7.355-0.517-14.408,0.713-20.828,3.26
		l-16.576-36.214c10.564-6.45,17.973-17.712,18.898-31.001c0.771-10.948-2.973-21.166-9.625-28.836l12.441-16.087
		c4.951,3.67,10.939,6.085,17.557,6.55c15.268,1.065,28.754-8.376,33.713-22.109l46.564,11.358
		c-1.102,18.753,13.098,34.938,31.895,36.261c5.105,0.356,9.984-0.501,14.48-2.202l27.426,36.716
		c-7.693,6.806-12.842,16.497-13.615,27.546c-1.014,14.439,5.715,27.639,16.604,35.597L4555.965,495.332z M4725.667,363.799
		c-9.902,1.15-17.93,9.202-18.65,19.519c-0.586,8.354,3.814,15.849,10.631,19.75l-5.289,14.563
		c-1.348-0.318-2.709-0.622-4.145-0.722c-13.611-0.953-25.377,9.339-26.328,22.91c-0.189,2.716,0.168,5.318,0.809,7.803
		l-49.533,3.584c0.244-1.363,0.412-2.753,0.508-4.158c1.566-22.333-15.314-41.712-37.672-43.275
		c-8.672-0.605-16.883,1.584-23.789,5.771l-26.732-35.783c8.713-5.68,14.838-15.115,15.617-26.288
		c0.621-8.847-2.27-17.061-7.33-23.524l29.77-33.017c4.244,2.917,9.223,4.869,14.73,5.261c14.133,0.99,26.604-8.039,30.645-21.001
		l60.689,10.408c1.135,12.684,11.26,23.063,24.365,23.979c2.229,0.154,4.4-0.056,6.51-0.434L4725.667,363.799z"/>
	<path fill="#F2F5FB" d="M1708.235,719.679c-41.156-2.375-75.781-12.875-103.846-31.453c-28.076-18.609-50.813-41.766-68.188-69.453
		c-17.393-27.703-30.031-58.172-37.938-91.422c-7.905-33.25-11.857-65.703-11.857-97.375c0-45.109,9.078-92.406,27.266-141.875
		c18.172-49.471,43.656-94.781,76.469-135.938c32.798-41.156,71.518-75.203,116.173-102.107
		c44.655-26.906,93.858-40.375,147.608-40.375c27.656,0,54.517,3.982,80.609,11.951c26.077,7.971,50.188,24.703,72.313,50.174
		c26.095-4.75,51.798-7.125,77.125-7.125c28.484,0,64.893,2.154,109.203,6.469c44.312,4.313,92.969,9.607,146,15.875
		c53.017,6.281,109,13.328,167.954,21.156c58.953,7.844,117.107,14.891,174.482,21.154c57.375,6.281,112.564,11.563,165.596,15.875
		c53.016,4.313,100.891,6.471,143.625,6.471c63.313,0,124.826-6.688,184.576-20.063S3287.188,93.07,3331.5,56.101
		c1.578,7.904,2.969,15.404,4.156,22.5c1.188,7.107,1.777,14.219,1.777,21.313c0,33.938-7.719,62.156-23.152,84.656
		c-15.439,22.5-35.814,40.453-61.125,53.859c-25.328,13.422-54.814,23.279-88.439,29.594c-33.625,6.313-68.25,9.875-103.857,10.656
		c-62.518,2.375-125.424,0.219-188.734-6.484c-63.313-6.688-126.016-15.547-188.141-26.578s-122.656-23.422-181.609-37.203
		c-58.953-13.781-115.921-26.578-170.921-38.391c-55-11.813-107.031-21.656-156.094-29.531
		c-49.063-7.875-94.174-11.813-135.313-11.813c-0.797,0-1.391,0.201-1.78,0.594c-0.405,0.406-1,0.594-1.78,0.594
		c3.938,14.25,5.922,28.5,5.922,42.734c0,21.375-3.953,43.922-11.859,67.654c-7.905,23.75-18.577,45.703-32.016,65.893
		c-13.438,20.188-29.047,37.594-46.828,52.232c-17.781,14.642-36.953,23.938-57.5,27.875c-14.219-0.779-26.469-4.922-36.75-12.451
		c-10.281-7.518-18.766-17.203-25.484-29.078c-6.718-11.875-11.672-24.531-14.827-37.984s-4.733-26.516-4.733-39.172
		c0-15.031,2.563-31.266,7.719-48.672c5.142-17.406,13.25-34.406,24.328-51.031s25.328-32.063,42.734-46.328
		c17.404-14.265,37.969-25.766,61.719-34.5c-1.595-3.156-7.922-8.516-19-16.047s-25.722-11.313-43.91-11.313
		c-31.656,0-64.297,10.891-97.891,32.641c-33.596,21.75-64.221,51.016-91.875,87.797c-27.656,36.781-50.375,79.297-68.156,127.547
		s-26.672,98.484-26.672,150.688c0,26.109,2.766,51.219,8.297,75.344s14.828,45.297,27.891,63.484
		c13.063,18.187,30.268,32.813,51.643,43.891c21.357,11.063,47.875,16.609,79.529,16.609c39.563,0,73.203-6.344,100.893-18.984
		c27.688-12.656,51.03-26.906,70.03-42.732c19-15.828,33.828-31.453,44.517-46.893c10.688-15.422,19.188-26.297,25.53-32.641
		c3.953-3.953,7.517-4.75,10.673-2.375c3.155,2.375,4.75,5.547,4.75,9.5v2.375c0,8.703-7.531,23.938-22.563,45.703
		c-15.031,21.765-36.594,43.732-64.688,65.905c-28.096,22.155-61.518,41.78-100.297,58.875
		C1798.829,713.492,1755.704,721.242,1708.235,719.679z M1952.438,143.742c-37.828,15.031-64.625,35.609-80.393,61.719
		c-15.766,26.125-23.641,52.625-23.641,79.531c0-7.109,1.529-15.609,4.625-25.516c3.094-9.893,6.766-19.393,11.047-28.484
		c4.266-9.094,8.781-17.016,13.531-23.732c4.75-6.72,8.313-10.096,10.688-10.096c3.156,0,4.75,1.578,4.75,4.734h-1.188
		c-3.174,1.594-5.938,5.547-8.313,11.875c-2.375,6.344-4.563,13.857-6.531,22.563c-1.982,8.703-3.766,18.203-5.344,28.484
		c-1.594,10.281-3.172,19.391-4.733,27.297c14.22-7.125,27.267-16.813,39.125-29.078c11.845-12.266,21.922-25.516,30.233-39.766
		c8.297-14.25,14.813-28.297,19.563-42.142c4.733-13.845,7.5-26.298,8.298-37.392c6.313-3.953,14.608-7.516,24.891-10.688
		c4.75-1.578,9.484-2.375,14.234-2.375c-6.313,0.797-12.609,1.779-18.923,2.969c-6.313,1.188-11.827,2.578-16.547,4.156
		C1962.282,140.179,1957.157,142.164,1952.438,143.742z"/>
	<path fill="#F2F5FB" d="M2250.636,376.179c4.781,5.563,8.156,14.076,10.156,25.563c1.984,11.484,2.188,25.143,0.609,40.971
		c-1.596,20.594-5.75,43.172-12.471,67.719c-6.732,24.563-17.232,46.938-31.482,67.125c-14.25,20.203-32.672,36.828-55.234,49.891
		c-22.562,13.063-49.688,18.797-81.344,17.234c-15.844-0.797-30.703-4.359-44.547-10.672c-13.859-6.346-25.938-15.423-36.234-27.281
		c-10.281-11.859-18.203-26.893-23.75-45.078c-5.531-18.188-7.516-39.156-5.938-62.875c1.594-23.719,7.359-48.828,17.281-75.328
		s23.422-50.422,40.516-71.781c17.078-21.344,36.906-38.75,59.469-52.188c22.563-13.438,47.281-19.375,74.188-17.797
		c12.655,0.779,24.327,3.529,35.016,8.25c10.688,4.719,19.595,10.016,26.72,15.904c7.125,5.892,12.452,11.781,16.017,17.656
		c3.563,5.891,5.344,10.406,5.344,13.563c0,1.594-1.188,2.375-3.563,2.375c-3.953-0.781-7.703-1.781-11.268-2.971
		c-3.563-1.188-7.327-1.779-11.28-1.779c-21.375-0.781-41.548,5.529-60.548,18.969c-19,13.438-35.813,30.844-50.438,52.203
		c-14.643,21.375-26.518,44.906-35.609,70.625c-9.107,25.719-14.063,50.063-14.844,73c-1.594,20.578,0.578,37.203,6.5,49.858
		c5.906,12.655,17.547,19.392,34.892,20.173c9.452,0.797,21.28-1.971,35.47-8.298c14.188-6.327,29.172-21.358,44.938-45.108
		c4.72-8.703,8.859-16.813,12.423-24.328c3.548-7.516,6.702-16.031,9.452-25.531s4.531-18.982,5.328-28.482
		c0.797-14.25,0.203-25.518-1.781-33.828c-1.982-8.313-4.75-14.643-8.313-19c-3.563-4.344-7.109-6.922-10.673-7.719
		c-3.563-0.781-6.142-1.188-7.72-1.188c-4.75,0-9.107,1.188-13.063,3.563s-7.313,5.344-10.078,8.904
		c-2.781,3.563-5.156,6.734-7.125,9.5c-1.983,2.781-3.375,4.156-4.156,4.156c-3.172,0-4.75-3.563-4.75-10.688
		c0.781-9.5,3.359-18.797,7.72-27.891c4.345-9.094,10.28-17.203,17.798-24.328c7.516-7.125,16.219-12.859,26.107-17.219
		c9.893-4.344,20.813-6.125,32.768-5.344c4.78,0,9.563,0.594,14.344,1.779C2242.263,369.647,2246.652,372.226,2250.636,376.179z"/>
	<path fill="#F2F5FB" d="M2596.348,380.461c-3.172,17.422-7.125,35.422-11.875,54.018c-4.75,18.594-9.5,37-14.25,55.203
		s-8.703,35.607-11.859,52.232c-3.172,16.625-4.75,31.656-4.75,45.109s2.172,24.922,6.531,34.422
		c4.344,9.484,12.063,15.422,23.141,17.797c0,1.578-6.922,4.547-20.766,8.906c-13.844,4.344-29.469,6.531-46.859,6.531
		c-16.609,0-31.438-3.768-44.484-11.25c-13.047-7.518-19.563-21.938-19.563-43.281c0-19.75,2.563-38.313,7.703-55.703
		c5.141-17.375,10.672-34.375,16.609-50.969c5.922-16.594,11.656-33.188,17.188-49.781s8.703-33.984,9.5-52.156
		c0-7.906-1.984-11.857-5.938-11.857c-13.469,0-28.703,7.326-45.719,21.951c-17.033,14.643-32.859,32.455-47.5,53.424
		c-14.656,20.969-27.125,42.732-37.406,65.281c-10.297,22.563-15.438,42.141-15.438,58.75c0,7.922,2.375,15.844,7.125,23.75
		c4.75,7.904,13.063,15.029,24.938,21.357c0,1.594-5.547,3.563-16.625,5.938c-11.094,2.375-20.188,3.563-27.297,3.563
		c-14.233,0-26.094-1.982-35.578-5.938c-9.469-3.953-16.78-8.893-21.938-14.828c-5.125-5.938-8.688-12.656-10.673-20.188
		c-1.952-7.516-2.952-15.232-2.952-23.141c0-3.156,0.344-6.719,1-10.688c0.672-3.952,1-6.719,1-8.313
		c12.655-59.344,24.327-108.219,34.982-146.609c10.673-38.391,16.018-64.719,16.018-78.984c0-7.125-1.393-12.469-4.156-16.029
		c-2.765-3.563-5.531-5.953-8.297-7.143c-2.781-1.188-5.548-1.779-8.313-1.779c-2.781,0-4.156-0.781-4.156-2.375
		c2.375,0,5.143-0.328,8.313-1c6.313-1.328,14.219-2,23.719-2c11.031,0,22.281,0.404,33.734,1.188
		c11.438,0.797,21.702,3.563,30.78,8.297c9.063,4.734,16.563,11.844,22.483,21.313c5.921,9.469,8.892,22.5,8.892,39.063
		c0,4.75-0.845,10.281-2.5,16.594c-1.673,6.313-2.5,12.625-2.5,18.938c10.345-13.531,21.892-26.078,34.642-37.641
		c12.75-11.549,25.48-21.5,38.23-29.859c12.734-8.359,24.875-14.938,36.439-19.719c11.547-4.781,20.906-7.172,28.063-7.172
		c12.656,0,22.939,4.563,30.859,13.654c7.906,9.096,11.875,21.563,11.875,37.393c0,3.969,0,7.922,0,11.875
		S2597.926,376.508,2596.348,380.461z"/>
	<path fill="#F2F5FB" d="M2656.844,117.539c-2.375-0.781-3.563-1.578-3.563-2.375c0-2.357,4.951-4.531,14.857-6.516
		c9.906-1.969,21.594-2.969,35.064-2.969c7.922,0,17.029,1,27.344,2.969c10.297,1.969,19.813,4.938,28.531,8.875
		c8.719,3.953,16.232,8.688,22.576,14.219c6.346,5.531,9.518,11.844,9.518,18.938c6.328-0.656,14.047-1.156,23.141-1.5
		c9.096-0.328,19.189-0.5,30.281-0.5c17.406,0,35.594,0.404,54.594,1.188s36.609,3.156,52.828,7.094
		c16.219,3.938,29.469,10.25,39.75,18.906c10.281,8.672,15.439,21.281,15.439,37.828c0,11.047-1.984,16.563-5.926,16.563
		l-2.375-2.375c-3.172-5.531-11.48-9.096-24.938-10.688c-13.453-1.578-29.672-1.781-48.672-0.594
		c-19,1.187-39.172,3.375-60.531,6.531c-21.375,3.172-41.359,6.344-59.984,9.5c-18.625,3.154-34.688,6.125-48.199,8.891
		c-13.531,2.781-21.473,4.156-23.848,4.156c0.781,0,1.375-0.156,1.781-0.5c0.395-0.328,1.375-0.5,2.969-0.5
		c10.281,0,20.973,1.188,32.064,3.563c11.078,2.375,16.625,6.719,16.625,13.031c0,1.594-0.797,5.547-2.375,11.859
		c-7.156,21.344-17.469,45.654-30.969,72.922c-13.5,27.279-27.189,54.938-41.064,83c-13.891,28.063-25.797,55.141-35.719,81.219
		c-9.922,26.094-14.875,48.609-14.875,67.578c0,5.531,1.375,12.063,4.156,19.563c2.766,7.516,8.5,11.266,17.203,11.266
		c18.984,0,34.219-5.531,45.703-16.609c11.469-11.078,20.766-23.141,27.891-36.203c7.125-13.062,12.859-25.125,17.219-36.203
		c4.344-11.076,8.891-16.625,13.641-16.625c3.953,0,6.328,1.596,7.125,4.75c0.781,3.174,1.189,5.549,1.189,7.125
		c0,1.596-1.781,9.109-5.344,22.563c-3.564,13.454-10.5,28.297-20.781,44.516c-10.281,16.221-24.719,30.893-43.314,44.018
		c-18.594,13.107-43.324,19.672-74.188,19.672c-15.063,0-27.359-2.188-36.859-6.531c-9.48-4.358-16.813-9.906-21.98-16.608
		c-5.145-6.72-8.703-14.438-10.689-23.142c-1.969-8.703-2.969-17.406-2.969-26.125c0-24.531,3.359-50.438,10.078-77.733
		c6.719-27.297,14.828-55.188,24.297-83.688c9.484-28.484,18.781-56.969,27.875-85.453s16-55.391,20.75-80.719
		c-35.469-2.375-61.656-11.471-78.594-27.281c-16.939-15.813-25.406-35.203-25.406-58.141c0-6.328,1.393-14.049,4.156-23.143
		c2.797-9.094,6.953-13.641,12.482-13.641c0.799,7.125,3.971,13.047,9.5,17.797c5.564,4.75,14.875,8.906,27.939,12.469
		c13.078,3.563,32.703,5.328,58.857,5.328c0-1.578-0.404-4.344-1.188-8.297c-0.797-3.953-1.797-8.297-2.984-13.047
		c-1.186-4.75-2.576-9.094-4.154-13.063C2661.188,120.711,2659.219,118.336,2656.844,117.539z"/>
	<path fill="#F2F5FB" d="M2851.866,397.351c-16.564,42.781-30.156,76.25-40.781,100.406c-10.643,24.154-17.922,36.232-21.859,36.232
		c-8.654,0-13-2.766-13-8.313c9.346-25.344,16.518-46.547,21.578-63.578c5.063-17.031,9.719-33.859,14-50.484
		s6.422-28.906,6.422-36.844c0-1.578-0.201-2.563-0.594-2.969c-0.391-0.393-0.578-0.984-0.578-1.781
		c-9.422-8.703-18.25-21.969-26.482-39.797c-8.219-17.813-12.344-33.471-12.344-46.938c0-14.25,1.982-26.328,5.938-36.232
		c3.984-9.906,8.922-18.221,14.859-24.953c5.938-6.734,12.279-11.484,19.029-14.268c6.734-2.766,12.875-4.154,18.424-4.154
		c10.313,0,18.625,3.563,24.969,10.688s11.297,15.25,14.857,24.344c3.564,9.109,5.953,18.221,7.143,27.313
		c1.188,9.107,1.781,15.641,1.781,19.594c0,2.375-0.221,8.313-0.625,17.813c-0.424,9.5-1.875,14.25-4.375,14.25
		c-1.596,0-3.971-0.781-7.143-2.375c-2.375-1.578-4.953-2.971-7.732-4.156c-2.781-1.188-6.143-3.359-10.096-6.531
		c3.156,5.547,7.5,10.297,13.031,14.25c4.75,3.969,11.268,7.328,19.564,10.094c8.279,2.781,18.75,4.156,31.404,4.156
		c3.939,0,8.096-0.188,12.439-0.594c4.344-0.393,8.5-0.594,12.453-0.594c22.904,0,43.654,5.154,62.219,15.438
		c18.563,10.297,27.857,26.922,27.857,49.875c0,11.875-2.375,23.75-7.107,35.625c-4.75,11.875-10.469,24.75-17.189,38.596
		c-6.719,13.857-13.422,28.904-20.141,45.125c-6.719,16.232-12.047,34.25-15.984,54.029c0,1.596-0.201,3.375-0.594,5.346
		c-0.391,1.982-0.578,3.766-0.578,5.344c0,8.719,1.578,14.453,4.734,17.219c3.156,2.781,9.078,4.156,17.766,4.156
		c13.424,0,23.893-5.143,31.393-15.438c7.5-10.279,13.438-21.766,17.797-34.422c4.344-12.656,8.314-24.141,11.875-34.422
		c3.563-10.281,7.703-15.438,12.453-15.438c3.953,0,6.328,1.779,7.125,5.344c0.781,3.563,1.188,6.141,1.188,7.719
		c0,4.75-1.391,12.281-4.154,22.563c-2.781,10.279-10.893,27.688-24.328,52.219c-2.375,3.969-6.143,9.125-11.281,15.482
		c-5.141,6.359-11.656,12.531-19.563,18.5c-7.906,5.953-17.189,10.938-27.846,14.924c-10.654,3.969-23.094,5.969-37.297,5.969
		c-29.219,0-48.578-6.938-58.047-20.797c-9.484-13.859-14.219-29.893-14.219-48.109c0-25.344,4.732-51.297,14.232-77.828
		s18.984-53.266,28.484-80.203c0-3.156-2.578-6.125-7.721-8.906c-5.141-2.779-11.266-5.154-18.391-7.141
		c-7.125-1.969-14.439-3.563-21.922-4.75c-7.5-1.188-13.609-1.781-18.328-1.781c-0.781,0-1.375,0.203-1.768,0.594
		c-0.404,0.406-1,0.596-1.779,0.596h-1.17V397.351L2851.866,397.351z M2833.926,265.836c0,4.75,0.984,9.5,2.969,14.25
		c1.971,4.75,4.549,9.096,7.703,13.047c0-7.904-0.594-16.813-1.781-26.701c-1.186-9.892-2.951-15.234-5.326-16.031
		c-1.596,0-2.578,1.781-2.971,5.344C2834.116,259.304,2833.926,262.679,2833.926,265.836z"/>
	<path fill="#F2F5FB" d="M3333.987,376.179c4.781,5.563,8.156,14.076,10.156,25.563c1.984,11.484,2.188,25.143,0.609,40.971
		c-1.594,20.594-5.75,43.172-12.469,67.719c-6.734,24.563-17.234,46.938-31.484,67.125c-14.25,20.203-32.672,36.828-55.234,49.891
		c-22.563,13.063-49.688,18.797-81.344,17.234c-15.844-0.797-30.703-4.359-44.547-10.672c-13.859-6.346-25.938-15.423-36.234-27.281
		c-10.281-11.859-18.203-26.893-23.75-45.078c-5.531-18.188-7.516-39.156-5.938-62.875c1.594-23.719,7.359-48.828,17.281-75.328
		s23.422-50.422,40.516-71.781c17.078-21.344,36.906-38.75,59.469-52.188c22.563-13.438,47.281-19.375,74.188-17.797
		c12.656,0.779,24.328,3.529,35.02,8.25c10.688,4.719,19.594,10.016,26.719,15.904c7.125,5.892,12.453,11.781,16.016,17.656
		c3.563,5.891,5.344,10.406,5.344,13.563c0,1.594-1.188,2.375-3.563,2.375c-3.953-0.781-7.703-1.781-11.266-2.971
		c-3.564-1.188-7.328-1.779-11.281-1.779c-21.375-0.781-41.547,5.529-60.547,18.969c-19,13.438-35.814,30.844-50.439,52.203
		c-14.641,21.375-26.516,44.906-35.607,70.625c-9.109,25.719-14.064,50.063-14.846,73c-1.594,20.578,0.578,37.203,6.5,49.858
		c5.906,12.655,17.549,19.392,34.893,20.173c9.453,0.797,21.281-1.971,35.469-8.298c14.189-6.327,29.172-21.358,44.939-45.108
		c4.719-8.703,8.857-16.813,12.422-24.328c3.547-7.516,6.703-16.031,9.453-25.531s4.529-18.982,5.326-28.482
		c0.799-14.25,0.203-25.518-1.779-33.828c-1.984-8.313-4.75-14.643-8.314-19c-3.563-4.344-7.107-6.922-10.672-7.719
		c-3.564-0.781-6.143-1.188-7.719-1.188c-4.75,0-9.109,1.188-13.064,3.563c-3.953,2.375-7.313,5.344-10.078,8.904
		c-2.777,3.563-5.152,6.734-7.125,9.5c-1.98,2.781-3.375,4.156-4.152,4.156c-3.176,0-4.75-3.563-4.75-10.688
		c0.777-9.5,3.355-18.797,7.719-27.891c4.344-9.094,10.281-17.203,17.797-24.328s16.219-12.859,26.109-17.219
		c9.891-4.344,20.813-6.125,32.766-5.344c4.781,0,9.563,0.594,14.344,1.779C3325.614,369.647,3330.002,372.226,3333.987,376.179z"/>
	<path fill="#F2F5FB" d="M3521.653,593.617c-8.689,10.297-22.5,21.375-41.439,33.25c-18.938,11.875-41.031,17.813-66.281,17.813
		c-20.527,0-38.688-3.143-54.527-9.393c-15.814-6.279-23.734-21.172-23.734-44.732c0-2.375,0-4.938,0-7.72
		c0-2.767,0.406-5.733,1.188-8.905c0.797-4.734,3.172-15.018,7.125-30.845c3.969-15.827,8.313-33.642,13.047-53.423
		c4.766-19.779,9.5-38.766,14.25-56.969s8.313-32.063,10.688-41.563c2.281-11.063,4.176-20.357,5.703-27.891
		c1.531-7.516,2.297-14.438,2.297-20.766c0-9.5-1.188-16.813-3.563-21.971c-2.375-5.141-5.156-8.891-8.313-11.266
		s-5.938-3.953-8.313-4.75c-2.375-0.781-3.564-1.578-3.564-2.375c0-1.578,2.971-2.563,8.906-2.969
		c5.939-0.393,12.219-0.595,18.844-0.595c12.609,0,24.828,1,36.674,2.97c11.826,1.982,22.076,5.75,30.75,11.28
		c8.672,5.53,15.766,12.858,21.297,21.952c5.516,9.109,8.281,20.781,8.281,35.018c0,12.655-1.781,25.328-5.346,37.982
		c-3.563,12.656-8.125,26.906-13.654,42.734c-3.156,8.703-7.109,18.203-11.859,28.484c-4.75,10.297-9.5,21.188-14.25,32.656
		c-4.75,11.468-8.906,22.952-12.469,34.422c-3.564,11.469-5.328,22.344-5.328,32.625c0,8.719,0.984,14.063,2.953,16.03
		c1.969,1.983,4.938,2.97,8.906,2.97c19,0,40.047-10.875,63.172-32.656c23.107-21.781,41.391-52.453,54.844-92.047
		c-20.578-12.672-35.219-30.297-43.922-52.859s-13.047-44.531-13.047-65.922c0-12.656,1.576-25.125,4.766-37.406
		c3.172-12.266,7.547-23.344,13.109-33.25c5.561-9.906,12.107-18.016,19.654-24.357c7.531-6.328,15.674-9.5,24.424-9.5
		c9.529,0,17.672,2.779,24.422,8.313s11.922,12.453,15.5,20.766c3.563,8.313,6.141,17.596,7.732,27.875
		c1.594,10.281,2.393,19.781,2.393,28.471c0,9.5-0.609,24.719-1.797,45.688c-1.189,20.969-4.971,43.703-11.314,68.221
		c7.156,3.953,13.689,6.719,19.625,8.297c5.939,1.594,12.064,2.375,18.406,2.375c8.703,0,16.219-1.156,22.547-3.5
		c6.328-2.328,11.469-3.5,15.439-3.5c3.951,0,6.922,1.766,8.904,5.297c1.971,3.531,2.971,7.266,2.971,11.172
		c0,8.625-6.143,14.703-18.406,18.234c-12.266,3.529-25.518,5.297-39.768,5.297c-8.701,0-16.826-0.594-24.357-1.781
		c-7.547-1.188-13.297-3.359-17.268-6.516c-3.951,11.875-7.904,22.563-11.844,32.063c-3.938,9.5-8.482,18.219-13.607,26.125
		c-5.125,7.922-10.859,16.031-17.174,24.344C3539.01,575.227,3531.122,584.117,3521.653,593.617z M3567.682,349.133
		c-3.969,0-5.938,5.156-5.938,15.438c0,8.719,0.188,19.406,0.594,32.063c0.393,12.656,1.781,21.359,4.156,26.109
		c1.576-5.531,2.969-15.422,4.154-29.672c1.188-14.25,1.781-24.141,1.781-29.688c0-6.326-0.406-10.279-1.188-11.875
		C3570.45,349.929,3569.26,349.133,3567.682,349.133z"/>
	<path fill="#F2F5FB" d="M3699.329,646.679c-20.596-0.797-36.846-6.328-48.75-16.594c-11.906-10.268-21.031-21.924-27.393-34.971
		c-6.328-13.029-10.5-26.078-12.5-39.125c-1.969-13.029-2.969-23.5-2.969-31.404c0-41.096,6.938-76.453,20.797-106.096
		c13.859-29.641,30.893-54.141,51.094-73.5c20.189-19.359,41.375-33.578,63.564-42.672c22.188-9.094,41.203-13.641,57.047-13.641
		c23.766,0,44.953,8.719,63.578,26.125c18.607,17.422,27.922,40.374,27.922,68.874c0,20.595-4.563,39.188-13.688,55.813
		s-21.02,30.688-35.674,42.156c-14.674,11.484-31.125,20.188-49.357,26.125c-18.25,5.938-36.875,8.906-55.893,8.906
		c-16.654,0-32.125-2.375-46.393-7.125c-2.281,6.328-4.188,12.828-5.719,19.516c-1.531,6.688-2.281,13.172-2.281,19.453
		c0,15.734,4.143,29.688,12.453,41.875c8.313,12.188,22.359,18.281,42.141,18.281c23.734,0,46.096-6.328,67.064-18.984
		s39.563-27.482,55.779-44.5c16.219-17.016,29.281-33.828,39.174-50.453c9.891-16.625,15.625-28.891,17.219-36.797l1.189-1.188
		c1.576-1.578,3.563-2.375,5.938-2.375c2.375,0.797,4.75,1.779,7.125,2.969c2.375,1.188,3.953,4.156,4.75,8.891v3.563
		c-8.719,25.328-20.781,48.875-36.219,70.625c-15.439,21.766-33.439,40.563-54,56.391c-20.578,15.828-43.328,28.094-68.25,36.797
		C3752.139,642.32,3726.233,646.679,3699.329,646.679z M3781.358,380.664c-7.125,0.797-15.25,5.344-24.344,13.656
		c-9.094,8.312-17.797,18-26.107,29.078c-8.313,11.078-15.234,22.156-20.768,33.234c-5.547,11.078-8.313,19.779-8.313,26.107
		c0,1.596,2.375,2.971,7.125,4.156c4.75,1.188,10.279,1.781,16.607,1.781c7.906,0,17.406-1.188,28.484-3.563
		c11.076-2.375,21.563-6.529,31.451-12.469c9.891-5.938,18.406-14.047,25.531-24.328s10.689-23.732,10.689-40.359
		c0-12.654-3.973-21.357-11.875-26.107C3801.92,377.101,3792.42,376.711,3781.358,380.664z"/>
	<path fill="#F2F5FB" d="M3961.362,397.351c-16.563,42.781-30.156,76.25-40.781,100.406c-10.641,24.154-17.922,36.232-21.859,36.232
		c-8.652,0-13-2.766-13-8.313c9.348-25.344,16.52-46.547,21.578-63.578c5.064-17.031,9.719-33.859,14-50.484
		s6.422-28.906,6.422-36.844c0-1.578-0.199-2.563-0.594-2.969c-0.391-0.393-0.578-0.984-0.578-1.781
		c-9.422-8.703-18.25-21.969-26.48-39.797c-8.219-17.813-12.344-33.471-12.344-46.938c0-14.25,1.98-26.328,5.938-36.232
		c3.984-9.906,8.922-18.221,14.859-24.953c5.936-6.734,12.277-11.484,19.027-14.268c6.734-2.766,12.875-4.154,18.426-4.154
		c10.313,0,18.625,3.563,24.969,10.688s11.297,15.25,14.855,24.344c3.564,9.109,5.953,18.221,7.145,27.313
		c1.188,9.107,1.781,15.641,1.781,19.594c0,2.375-0.223,8.313-0.625,17.813c-0.426,9.5-1.875,14.25-4.375,14.25
		c-1.598,0-3.973-0.781-7.145-2.375c-2.375-1.578-4.953-2.971-7.73-4.156c-2.781-1.188-6.145-3.359-10.098-6.531
		c3.156,5.547,7.5,10.297,13.031,14.25c4.75,3.969,11.27,7.328,19.564,10.094c8.279,2.781,18.75,4.156,31.404,4.156
		c3.939,0,8.096-0.188,12.439-0.594c4.344-0.393,8.5-0.594,12.453-0.594c22.902,0,43.652,5.154,62.219,15.438
		c18.563,10.297,27.855,26.922,27.855,49.875c0,11.875-2.375,23.75-7.105,35.625c-4.75,11.875-10.473,24.75-17.189,38.596
		c-6.719,13.857-13.422,28.904-20.141,45.125c-6.719,16.232-12.047,34.25-15.984,54.029c0,1.596-0.201,3.375-0.594,5.346
		c-0.391,1.982-0.578,3.766-0.578,5.344c0,8.719,1.578,14.453,4.734,17.219c3.156,2.781,9.078,4.156,17.766,4.156
		c13.422,0,23.893-5.143,31.393-15.438c7.5-10.279,13.438-21.766,17.797-34.422c4.344-12.656,8.313-24.141,11.875-34.422
		c3.561-10.281,7.703-15.438,12.453-15.438c3.953,0,6.328,1.779,7.125,5.344c0.779,3.563,1.188,6.141,1.188,7.719
		c0,4.75-1.391,12.281-4.154,22.563c-2.781,10.279-10.893,27.688-24.328,52.219c-2.375,3.969-6.143,9.125-11.281,15.482
		c-5.139,6.359-11.654,12.531-19.563,18.5c-7.906,5.953-17.189,10.938-27.846,14.924c-10.654,3.969-23.094,5.969-37.297,5.969
		c-29.219,0-48.578-6.938-58.047-20.797c-9.484-13.859-14.219-29.893-14.219-48.109c0-25.344,4.732-51.297,14.232-77.828
		s18.984-53.266,28.484-80.203c0-3.156-2.578-6.125-7.721-8.906c-5.141-2.779-11.266-5.154-18.391-7.141
		c-7.125-1.969-14.439-3.563-21.922-4.75c-7.5-1.188-13.609-1.781-18.328-1.781c-0.781,0-1.375,0.203-1.768,0.594
		c-0.404,0.406-1,0.596-1.779,0.596h-1.172v-0.005H3961.362z M3943.424,265.836c0,4.75,0.984,9.5,2.969,14.25
		c1.969,4.75,4.547,9.096,7.703,13.047c0-7.904-0.594-16.813-1.781-26.701c-1.188-9.892-2.953-15.234-5.328-16.031
		c-1.594,0-2.578,1.781-2.969,5.344C3943.612,259.304,3943.424,262.679,3943.424,265.836z"/>
	<g enable-background="new    ">
		<path fill="#F2F5FB" d="M2371.179,1262.579c-21.375-4.75-39.203-14.25-53.469-28.5c-14.25-14.25-21.391-33.654-21.391-58.219
			c0-19.797,3.375-37.608,10.094-53.453c6.732-15.844,12.078-23.766,16.047-23.766c0.797,0,2.969,2.531,6.531,7.594
			c3.562,5.063,9.313,11.094,17.219,18.094c1.594-9.516,6.328-19.438,14.25-29.75c7.906-10.313,17.219-19.625,27.906-27.969
			c10.688-8.328,22.578-15.078,35.641-20.233c13.063-5.155,25.921-7.733,38.609-7.733c16.625,0,31.281,2.781,43.953,8.328
			c12.672,5.563,23.563,12.297,32.672,20.219c9.094,7.938,16.219,16.656,21.375,26.172c5.156,9.517,8.516,17.844,10.109,24.969
			c8.703,42.828,0.984,77.125-23.172,102.893c-24.156,25.78-62.375,40.25-114.64,43.422c15.812,25.094,42.328,38.422,79.515,40
			c29.266-0.797,53.781-4.767,73.563-11.892s35.406-16.25,46.875-27.345c11.469-11.094,19.578-23.375,24.328-36.844
			s7.125-26.156,7.125-38.063c0-23.767-4.766-44.375-14.266-61.813c-9.52-17.438-21.609-33.484-36.27-48.141
			c-14.672-14.656-30.328-29.328-46.969-44c-16.656-14.656-32.313-30.721-46.969-48.156c-14.672-17.438-26.766-37.643-36.266-60.625
			c-9.516-22.984-14.266-50.328-14.266-82.031c0-23.781,4.75-46.766,14.266-68.953c9.516-22.187,23.203-41.813,41.047-58.857
			c17.844-17.031,39.063-30.518,63.656-40.422c24.578-9.906,52.328-14.859,83.266-14.859c26.969,0,53.141,3.766,78.516,11.281
			c25.375,7.529,47.984,19.016,67.814,34.453c19.828,15.437,35.688,34.641,47.594,57.607c11.891,22.969,17.844,49.875,17.844,80.75
			c0,19.813-3.578,38.422-10.703,55.828c-7.141,17.422-17.047,32.672-29.732,45.734c-12.688,13.062-27.143,23.563-43.393,31.469
			c-16.25,7.922-33.891,11.875-52.891,11.875c-22.969,0-41.984-3.375-57.031-10.143c-15.063-6.766-26.938-14.922-35.641-24.482
			c-8.721-9.547-15.25-19.297-19.609-29.25c-4.357-9.938-6.938-18.5-7.719-25.672c-1.594-11.125-1.189-20.672,1.188-28.609
			c2.375-7.937,5.549-12.313,9.518-13.107c11.875,3.969,25.922,7.344,42.156,10.107c16.232,2.781,32.279,4.156,48.125,4.156
			c10.297,0,18.016-0.984,23.172-2.969c5.141-1.971,6.922-2.174,5.344-0.596c-3.969,4.078-12.281,7.75-24.953,11
			c-12.672,3.268-23.357,5.721-32.076,7.346c3.969,0.813,7.326,1.219,10.107,1.219c2.768,0,6.125,0,10.094,0
			c11.875,0,22.156-2.563,30.859-7.719c8.688-5.156,15.982-11.688,21.891-19.625c5.908-7.938,10.424-16.453,13.578-25.578
			c3.143-9.109,4.719-17.234,4.719-24.375c0-11.893-2.779-23.781-8.313-35.672c-5.547-11.893-13.268-22.596-23.156-32.109
			c-9.891-9.5-21.563-17.031-35.016-22.594c-13.453-5.547-27.703-8.328-42.734-8.328c-21.375,0-39.172,3.781-53.422,11.328
			c-14.25,7.563-25.734,16.703-34.439,27.438c-8.705,10.735-15.029,21.672-18.982,32.797c-3.969,11.125-5.939,20.268-5.939,27.424
			c0,27.029,5.346,51.094,16.049,72.154c10.688,21.063,24.172,40.938,40.422,59.625c16.25,18.688,33.688,36.768,52.313,54.25
			c18.625,17.5,35.859,35.578,51.721,54.268c15.844,18.688,28.922,39.125,39.232,61.313c10.297,22.203,15.047,47.156,14.268,74.875
			c-0.799,37.234-9.518,69.516-26.143,96.828c-16.641,27.313-38.031,48.891-64.172,64.75
			c-26.143,15.828-54.859,25.922-86.143,30.297c-31.297,4.344-62,2.953-92.094-4.156c-30.107-7.141-58.031-20.219-83.781-39.219
			C2404.241,1319.594,2384.647,1294.252,2371.179,1262.579z M2390.163,1149.157c-4.75-1.578-8.906-2.563-12.469-2.969
			c-3.563-0.391-6.547-1.375-8.922-2.969c11.094,6.297,20.797,11.607,29.107,15.938s20.393,6.484,36.232,6.484
			c7.924,0,16.234-1.375,24.953-4.125c8.703-2.75,16.219-6.5,22.564-11.219c6.344-4.721,10.891-10.423,13.672-17.109
			c2.766-6.688,2.172-13.563-1.781-20.656c-0.797-1.563-4.357-5.107-10.703-10.625c-6.344-5.5-17.029-8.266-32.063-8.266
			c-10.312,0-21.407,3.75-33.282,11.219S2396.491,1127.094,2390.163,1149.157z"/>
		<path fill="#F2F5FB" d="M2987.932,956.766c10.313-1.578,21.797-1.375,34.484,0.594c12.688,1.984,24.375,5.344,35.063,10.094
			s19.797,10.893,27.328,18.423c7.516,7.53,11.672,16.03,12.469,25.53c0.781,10.313-1.594,20.018-7.125,29.125
			c-5.547,9.109-11.688,18.018-18.422,26.72c-6.734,8.72-13.064,17.625-19,26.733c-5.939,9.109-8.906,18.813-8.906,29.094
			c0,6.346,2.375,11.893,7.125,16.643c-18.219-3.953-32.688-12.063-43.375-24.345c-10.688-12.28-15.641-25.155-14.844-38.625
			c0.781-10.28,5.141-20.78,13.063-31.47c7.922-10.688,14.266-18.422,19.016-23.172h1.188c-3.949,3.172-8.297,6.344-13.047,9.5
			c-4.75,3.172-9.094,6.734-13.031,10.688c-16.605,1.594-31.625,6.732-45.063,15.453c-13.438,8.719-24.906,19.797-34.391,33.266
			s-16.797,28.516-21.938,45.141s-7.703,33.268-7.703,49.893c0,9.516,0.984,18.826,2.969,27.922
			c1.969,9.107,5.344,17.625,10.094,25.547s11.078,14.25,19,19s17.828,7.125,29.703,7.125c21.375,0,41.781-4.938,61.188-14.844
			c19.408-9.906,36.625-21.188,51.672-33.859s27.125-24.75,36.234-36.234c9.109-11.469,14.453-18.797,16.047-21.982
			c1.578-3.156,4.156-3.359,7.719-0.594c3.564,2.779,5.344,6.547,5.344,11.297v2.375c0-0.781-4.563,6.141-13.672,20.797
			s-22.375,30.688-39.797,48.107s-39.391,33.438-65.922,48.031s-56.828,21.906-90.891,21.906c-28.563,0-50.594-5.922-66.125-17.768
			c-15.531-11.844-27.063-25.279-34.641-40.313c-7.547-15.031-11.939-29.281-13.145-42.75c-1.172-13.469-1.777-21.781-1.777-24.953
			c0-37.219,6.344-70.078,19.016-98.594c12.688-28.516,28.344-52.281,46.969-71.281s38.453-33.453,59.453-43.359
			C2951.26,961.721,2970.495,956.766,2987.932,956.766z"/>
		<path fill="#F2F5FB" d="M3159.278,1310.641c-14.25,0-25.922-2.203-35.016-6.563c-9.078-4.391-16-9.969-20.766-16.719
			c-4.734-6.766-8.098-14.313-10.078-22.656c-1.969-8.328-2.969-16.453-2.969-24.375c0-19,2.969-38.813,8.902-59.404
			c5.939-20.595,12.473-41.375,19.598-62.375c7.125-20.984,13.652-41.768,19.594-62.359c5.938-20.593,8.906-40.781,8.906-60.594
			c0-7.125-1.395-12.268-4.156-15.438c-2.781-3.172-5.547-5.357-8.314-6.547c-2.779-1.188-5.529-1.781-8.313-1.781
			c-2.768,0-4.156-0.779-4.156-2.375c0-3.154,10.672-4.75,32.047-4.75c11.859,0,23.328,1.188,34.393,3.563
			c11.063,2.375,21.156,6.344,30.25,11.891s16.406,12.672,21.938,21.393c5.531,8.719,8.314,19.404,8.314,32.063
			c0,12.688-2.781,26.75-8.314,42.188c-5.529,15.438-12.266,31.875-20.172,49.297s-15.625,35.233-23.141,53.453
			c-7.518,18.219-13.643,36.827-18.375,55.827c-2.375,3.97-3.564,7.938-3.564,11.892c0,6.344,2.172,11.483,6.52,15.438
			c4.344,3.97,10.094,5.938,17.219,5.938c13.438,0,24.297-4.938,32.605-14.844c8.314-9.893,15.234-20.781,20.781-32.656
			s10.109-22.766,13.672-32.672c3.564-9.906,7.723-14.859,12.473-14.859c5.527,0,8.5,1.781,8.902,5.344
			c0.395,3.563,0.598,6.143,0.598,7.721c-4.75,26.141-11.689,46.938-20.801,62.375c-9.105,15.452-22.172,29.75-39.172,42.891
			C3211.668,1304.063,3188.528,1310.641,3159.278,1310.641z M3255.247,813.641c8.719,0,17.422,1.781,26.141,5.328
			c8.703,3.563,13.064,11.25,13.064,23.094c0,10.266-2.578,22.313-7.719,36.125c-5.156,13.813-10.096,27.438-14.846,40.844
			c-1.594,3.953-7.141,9.875-16.641,17.768c-9.5,7.904-24.156,11.844-43.953,11.844c-11.094,0-19.016-1.578-23.766-4.734
			c-4.75-3.155-7.125-6.703-7.125-10.655c3.969-22.892,8.922-42.03,14.857-57.438c5.939-15.391,8.906-27.031,8.906-34.938
			c0-7.096-2.375-10.656-7.125-10.656s-7.125-0.781-7.125-2.375c0-1.563,6.922-4.328,20.781-8.281
			C3224.559,815.628,3239.403,813.641,3255.247,813.641z"/>
		<path fill="#F2F5FB" d="M3347.803,1312.641c-20.625-0.797-36.875-6.344-48.781-16.642s-21.031-21.983-27.391-35.063
			c-6.328-13.078-10.5-26.156-12.5-39.234c-1.969-13.063-2.969-23.563-2.969-31.5c0-41.202,6.938-76.672,20.797-106.391
			s30.891-54.281,51.094-73.703c20.188-19.406,41.375-33.672,63.563-42.797c22.188-9.109,41.203-13.672,57.047-13.672
			c23.766,0,44.953,8.719,63.578,26.125c18.609,17.422,27.922,40.375,27.922,68.875c0,20.594-4.563,39.188-13.688,55.813
			s-21.016,30.688-35.672,42.156c-14.672,11.484-31.125,20.188-49.359,26.125c-18.25,5.938-36.875,8.906-55.891,8.906
			c-16.656,0-32.125-2.375-46.391-7.125c-2.281,6.344-4.189,12.906-5.723,19.656c-1.527,6.75-2.277,13.313-2.277,19.654
			c0,15.906,4.152,30.018,12.469,42.328c8.313,12.328,22.375,18.484,42.188,18.484c23.75,0,46.125-6.328,67.125-19.017
			c20.984-12.673,39.594-27.517,55.828-44.548c16.234-17.029,29.297-33.857,39.203-50.482c9.904-16.625,15.641-28.906,17.23-36.845
			l1.189-1.188c1.578-1.578,3.563-2.375,5.938-2.375c2.375,0.797,4.75,1.781,7.125,2.969c2.375,1.188,3.953,4.172,4.75,8.922v3.563
			c-8.719,25.344-20.797,48.906-36.232,70.688c-15.438,21.782-33.453,40.596-54.047,56.438
			c-20.596,15.843-43.375,28.108-68.314,36.813C3400.663,1308.282,3374.725,1312.641,3347.803,1312.641z M3429.772,1044.532
			c-7.125,0.797-15.25,5.359-24.359,13.672c-9.109,8.313-17.828,18.018-26.141,29.109s-15.25,22.172-20.781,33.266
			c-5.547,11.096-8.313,19.798-8.313,26.125c0,1.596,2.375,2.971,7.125,4.156c4.75,1.188,10.297,1.781,16.641,1.781
			c7.906,0,17.406-1.188,28.5-3.563s21.578-6.529,31.484-12.469c9.906-5.938,18.422-14.047,25.547-24.344
			s10.688-23.766,10.688-40.406c0-12.656-3.969-21.375-11.875-26.125C3450.366,1040.985,3440.866,1040.579,3429.772,1044.532z"/>
		<path fill="#F2F5FB" d="M3862.553,1046.641c-3.172,17.469-7.125,35.516-11.875,54.172s-9.516,37.109-14.266,55.359
			s-8.723,35.719-11.875,52.375c-3.176,16.672-4.75,31.75-4.75,45.232c0,13.5,2.172,25,6.527,34.531
			c4.348,9.516,12.078,15.469,23.176,17.859c0,1.577-6.939,4.547-20.781,8.922c-13.859,4.357-29.484,6.547-46.875,6.547
			c-16.609,0-31.439-3.781-44.484-11.297c-13.047-7.547-19.563-22.018-19.563-43.422c0-19.828,2.563-38.471,7.703-55.923
			c5.141-17.438,10.672-34.5,16.605-51.155c5.922-16.656,11.656-33.297,17.189-49.953c5.531-16.656,8.701-34.109,9.5-52.359
			c0-7.922-1.984-11.891-5.939-11.891c-13.469,0-28.703,7.328-45.719,21.983c-17.031,14.655-32.859,32.483-47.5,53.47
			c-14.656,20.982-27.125,42.766-37.406,65.328c-10.297,22.577-15.438,42.188-15.438,58.813c0,7.922,2.375,15.844,7.125,23.767
			s13.063,15.048,24.938,21.375c0,1.595-5.547,3.563-16.625,5.938c-11.094,2.375-20.188,3.563-27.297,3.563
			c-14.234,0-26.094-1.983-35.578-5.938c-9.469-3.953-16.781-8.906-21.938-14.844c-5.125-5.938-8.688-12.672-10.672-20.203
			c-1.953-7.518-2.953-15.234-2.953-23.172c0-3.156,0.344-6.721,1-10.688c0.672-3.953,1-6.719,1-8.313
			c12.656-59.393,24.328-108.297,34.984-146.72c10.672-38.423,16.016-64.767,16.016-79.03c0-7.125-1.391-12.47-4.172-16.031
			s-5.547-5.953-8.313-7.141c-2.781-1.188-5.547-1.781-8.314-1.781c-2.779,0-4.154-0.781-4.154-2.375c2.375,0,5.141-0.328,8.313-1
			c6.344-2,14.25-3,23.75-3c11.031,0,22.281,0.406,33.734,1.188c11.438,0.798,21.701,3.578,30.779,8.346
			c9.064,4.766,16.564,11.904,22.484,21.438c5.922,9.532,8.891,22.625,8.891,39.297c0,4.768-0.844,10.328-2.5,16.672
			c-1.672,6.346-2.5,12.703-2.5,19.048c10.346-13.47,21.893-25.97,34.643-37.47s25.482-21.405,38.232-29.732
			c12.734-8.328,24.875-14.875,36.439-19.643c11.547-4.75,20.906-7.141,28.063-7.141c12.672,0,22.969,4.563,30.891,13.688
			c7.906,9.125,11.875,21.625,11.875,37.5c0,3.971,0,7.938,0,11.906S3864.131,1042.675,3862.553,1046.641z"/>
		<path fill="#F2F5FB" d="M4050.221,956.766c10.313-1.578,21.797-1.375,34.484,0.594c12.688,1.984,24.375,5.344,35.063,10.094
			s19.797,10.893,27.328,18.423c7.516,7.53,11.672,16.03,12.469,25.53c0.781,10.313-1.594,20.018-7.125,29.125
			c-5.547,9.109-11.688,18.018-18.422,26.72c-6.734,8.72-13.063,17.625-19,26.733c-5.938,9.109-8.906,18.813-8.906,29.094
			c0,6.346,2.375,11.893,7.125,16.643c-18.219-3.953-32.688-12.063-43.375-24.345c-10.686-12.28-15.641-25.155-14.844-38.625
			c0.781-10.28,5.145-20.78,13.064-31.47c7.922-10.688,14.266-18.422,19.016-23.172h1.189c-3.953,3.172-8.299,6.344-13.049,9.5
			c-4.75,3.172-9.094,6.734-13.029,10.688c-16.609,1.594-31.625,6.732-45.064,15.453c-13.438,8.719-24.906,19.797-34.391,33.266
			c-9.486,13.469-16.799,28.516-21.939,45.141c-5.139,16.625-7.703,33.268-7.703,49.893c0,9.516,0.984,18.826,2.973,27.922
			c1.969,9.107,5.344,17.625,10.094,25.547s11.078,14.25,19,19s17.828,7.125,29.703,7.125c21.375,0,41.777-4.938,61.188-14.844
			c19.406-9.906,36.625-21.188,51.672-33.859s27.125-24.75,36.234-36.234c9.105-11.469,14.453-18.797,16.047-21.982
			c1.578-3.156,4.152-3.359,7.719-0.594c3.563,2.779,5.344,6.547,5.344,11.297v2.375c0-0.781-4.563,6.141-13.672,20.797
			s-22.375,30.688-39.797,48.107s-39.391,33.438-65.922,48.031s-56.828,21.906-90.891,21.906c-28.563,0-50.594-5.922-66.125-17.768
			c-15.531-11.844-27.063-25.279-34.641-40.313c-7.547-15.031-11.939-29.281-13.145-42.75c-1.172-13.469-1.777-21.781-1.777-24.953
			c0-37.219,6.344-70.078,19.016-98.594c12.688-28.516,28.344-52.281,46.969-71.281s38.453-33.453,59.453-43.359
			C4013.551,961.721,4032.784,956.766,4050.221,956.766z"/>
		<path fill="#F2F5FB" d="M4253.252,1312.641c-20.625-0.797-36.875-6.344-48.781-16.642s-21.031-21.983-27.391-35.063
			c-6.328-13.078-10.5-26.156-12.5-39.234c-1.973-13.063-2.973-23.563-2.973-31.5c0-41.202,6.939-76.672,20.797-106.391
			c13.859-29.719,30.895-54.281,51.098-73.703c20.188-19.406,41.375-33.672,63.563-42.797c22.188-9.109,41.203-13.672,57.047-13.672
			c23.766,0,44.953,8.719,63.578,26.125c18.609,17.422,27.922,40.375,27.922,68.875c0,20.594-4.563,39.188-13.688,55.813
			s-21.02,30.688-35.672,42.156c-14.672,11.484-31.125,20.188-49.359,26.125c-18.25,5.938-36.875,8.906-55.891,8.906
			c-16.656,0-32.125-2.375-46.395-7.125c-2.277,6.344-4.188,12.906-5.719,19.656s-2.281,13.313-2.281,19.654
			c0,15.906,4.156,30.018,12.473,42.328c8.313,12.328,22.375,18.484,42.188,18.484c23.75,0,46.125-6.328,67.125-19.017
			c20.984-12.673,39.594-27.517,55.828-44.548c16.234-17.029,29.297-33.857,39.203-50.482s15.641-28.906,17.234-36.845l1.188-1.188
			c1.578-1.578,3.563-2.375,5.938-2.375c2.375,0.797,4.75,1.781,7.125,2.969c2.375,1.188,3.953,4.172,4.75,8.922v3.563
			c-8.719,25.344-20.797,48.906-36.234,70.688c-15.436,21.782-33.453,40.596-54.047,56.438s-43.375,28.108-68.313,36.813
			C4306.112,1308.282,4280.174,1312.641,4253.252,1312.641z M4335.221,1044.532c-7.125,0.797-15.25,5.359-24.359,13.672
			c-9.109,8.313-17.828,18.018-26.141,29.109s-15.25,22.172-20.781,33.266c-5.547,11.096-8.313,19.798-8.313,26.125
			c0,1.596,2.375,2.971,7.125,4.156c4.75,1.188,10.297,1.781,16.641,1.781c7.906,0,17.406-1.188,28.5-3.563
			s21.578-6.529,31.484-12.469c9.906-5.938,18.422-14.047,25.547-24.344s10.688-23.766,10.688-40.406
			c0-12.656-3.969-21.375-11.875-26.125C4355.815,1040.985,4346.315,1040.579,4335.221,1044.532z"/>
		<path fill="#F2F5FB" d="M4731.389,1207.313c0.781-0.781,1.969-1.188,3.563-1.188c3.953,0,5.938,3.563,5.938,10.688
			c0,3.172-0.402,6.531-1.188,10.094c-0.797,3.563-3.563,7.125-8.313,10.688c-4.75,3.563-12.672,6.732-23.766,9.5
			c-11.098,2.781-26.922,5.344-47.52,7.719c-14.266,16.641-32.5,30.109-54.688,40.391c-22.188,10.282-45.969,15.438-71.313,15.438
			c-37.25,0-68.344-9.703-93.313-29.094c-24.953-19.406-37.439-46.923-37.439-82.548c0-15.03,4.297-28.298,12.875-39.78
			c8.596-11.484,22.672-18.018,42.268-19.609c3.154,0,6.719-2.766,10.688-8.313c3.953-5.531,7.721-12.471,11.281-20.781
			c3.561-8.313,7.125-17.406,10.688-27.313c3.564-9.891,6.547-19.188,8.922-27.904c-14.266-12.656-25.953-27.5-35.063-44.531
			c-9.111-17.031-13.656-37.018-13.656-59.984c0-24.547,6.564-44.547,19.689-59.982c13.125-15.438,30.047-23.156,50.732-23.156
			c13.518,0,23.656,8.313,30.422,24.938c6.768,16.625,10.156,33.656,10.156,51.078c0,8.719-0.797,17.031-2.375,24.938
			c-1.596,7.922-4.359,13.857-8.314,17.813c23,15.047,43.422,28.313,61.297,39.797c17.859,11.484,32.75,23.359,44.656,35.625
			c11.906,12.281,20.844,25.938,26.797,40.971c5.953,15.047,8.938,33.654,8.938,55.827s-4.75,43.938-14.23,65.313
			c19.777-4.75,33.25-8.5,40.375-11.281C4726.624,1209.891,4730.592,1208.11,4731.389,1207.313z M4456.358,1216.377
			c0,19.813,6.125,33.47,18.406,40.983c12.277,7.531,27.516,11.281,45.73,11.281c12.672,0,24.75-2.969,36.234-8.906
			c11.484-5.937,21.984-14.453,31.484-25.547c-10.297-5.531-19.406-11.078-27.328-16.625c-7.922-5.531-15.453-10.484-22.578-14.844
			c-7.125-4.36-14.656-7.922-22.563-10.703c-7.922-2.767-16.645-4.156-26.145-4.156c-8.719,0-16.438,2.392-23.152,7.142
			C4459.717,1199.752,4456.358,1206.877,4456.358,1216.377z M4533.78,1077.61c-6.344,16.642-11.703,29.517-16.047,38.625
			c-4.359,9.109-10.094,19.203-17.219,30.281c15.828,6.344,28.328,12.281,37.48,17.828c9.156,5.547,16.922,10.688,23.297,15.438
			s12.77,9.518,19.145,14.268s14.355,9.5,23.938,14.25c3.984-13.471,5.984-24.953,5.984-34.453c0-16.625-3.797-30.893-11.375-42.768
			s-16.156-21.779-25.723-29.702c-9.578-7.905-18.355-13.655-26.328-17.22C4538.965,1080.594,4534.577,1078.407,4533.78,1077.61z
			 M4512.577,930.3c0,4.75,0.188,9.313,0.594,13.672c0.395,4.357,2.172,8.906,5.348,13.656c1.578-1.578,2.563-4.75,2.969-9.5
			c0.391-4.75,0.594-9.109,0.594-13.078c0-3.953-0.406-8.109-1.188-12.471c-0.797-4.344-1.984-7.313-3.563-8.904
			c-1.598,2.375-2.578,5.154-2.973,8.313C4513.952,925.157,4513.358,927.925,4512.577,930.3z"/>
	</g>
</g>
</svg>
