<?xml version="1.0" encoding="utf-8"?>
<!-- Generator: Adobe Illustrator 19.0.0, SVG Export Plug-In . SVG Version: 6.00 Build 0)  -->
<svg version="1.1" id="Layer_1" xmlns="http://www.w3.org/2000/svg" xmlns:xlink="http://www.w3.org/1999/xlink" x="0px" y="0px"
	 viewBox="0 0 1005 288" style="enable-background:new 0 0 1005 288;" xml:space="preserve">
<style type="text/css">
	.st0{fill:#FFFFFF;}
</style>
<g id="XMLID_28_">
	<g id="XMLID_441_">
		<g id="XMLID_60_">
			<path class="st0" d="M15.9,129.1l24.6,19.4l3.4-7.1c0,0,3.7,3.4,7.1,3.4c0,0,46.2,45.8,95.7-0.4c0,0,2.6,0.4,5.6-2.6l1.9,7.1
				l24.2-19.4c0,0,32,31.7-16.4,73.4c0,0,22,3,22.7,22.7h-74.1c0,0-0.4-1.9,1.9-3.3c0,0-22.7,3.3-27.6-0.4c0,0,0.7,2.6,0,3.7H10.7
				c0,0-1.9-16.8,23.1-22C33.8,203.6-14.2,168.2,15.9,129.1z"/>
		</g>
	</g>
	<g id="XMLID_553_">
		<g id="XMLID_59_">
			<path class="st0" d="M76.1,78.1c-3.2,0-5.8,2.6-5.8,5.8c0,3.2,2.6,5.8,5.8,5.8c3.2,0,5.8-2.6,5.8-5.8
				C81.9,80.7,79.3,78.1,76.1,78.1z M77.2,85.6c-1.5,0-2.8-1.3-2.8-2.8c0-1.5,1.3-2.8,2.8-2.8c1.5,0,2.8,1.3,2.8,2.8
				C80,84.3,78.7,85.6,77.2,85.6z"/>
		</g>
	</g>
	<g id="XMLID_549_">
		<g id="XMLID_58_">
			<path class="st0" d="M145.2,93c0,0,7.8-19.4-13.4-29c0,0-21.6-7.4-29.8,14.5l-5.2,0.4c0,0-7.8-24.9-33.1-13.4
				c0,0-16,8.2-10.1,26.1c0,0-20.1,3.4-19.4,26.4c0,0,0.4,16.8,19,22.3c0,0,43.6,43.6,91.2-0.4c0,0,15.6-3.7,16.8-26.1
				C161.2,113.9,160.8,97.1,145.2,93z M75.3,94.5c-6.1,0-11-4.9-11-11c0-6.1,4.9-11,11-11c6.1,0,11,4.9,11,11
				C86.3,89.6,81.4,94.5,75.3,94.5z M123.7,94.5c-6.1,0-11-4.9-11-11c0-6.1,4.9-11,11-11c6.1,0,11,4.9,11,11
				C134.7,89.6,129.8,94.5,123.7,94.5z"/>
		</g>
	</g>
	<g id="XMLID_546_">
		<g id="XMLID_1_">
			<path class="st0" d="M124.5,78.1c-3.2,0-5.8,2.6-5.8,5.8c0,3.2,2.6,5.8,5.8,5.8c3.2,0,5.8-2.6,5.8-5.8
				C130.3,80.7,127.7,78.1,124.5,78.1z M125.6,85.6c-1.5,0-2.8-1.3-2.8-2.8c0-1.5,1.3-2.8,2.8-2.8s2.8,1.3,2.8,2.8
				C128.4,84.3,127.1,85.6,125.6,85.6z"/>
		</g>
	</g>
</g>
<g id="XMLID_27_">
	<g id="XMLID_37_">
		<path id="XMLID_40_" class="st0" d="M241.4,177.3c-11.5,0-20.2-3.2-26.3-9.6c-6-6.4-9-15.5-9-27.2c0-5.8,0.9-11.1,2.8-15.7
			s4.3-8.5,7.5-11.6c3.2-3.2,7-5.6,11.4-7.2c4.4-1.6,9.2-2.4,14.4-2.4c3,0,5.7,0.2,8.2,0.7c2.4,0.4,4.6,1,6.4,1.5
			c1.8,0.6,3.4,1.2,4.6,1.8s2.1,1.1,2.7,1.4l-4.6,12.8c-2.2-1.2-4.7-2.1-7.6-3c-2.9-0.8-6.2-1.2-9.8-1.2c-2.4,0-4.8,0.4-7.2,1.2
			c-2.3,0.8-4.4,2.1-6.2,3.9c-1.8,1.8-3.2,4.1-4.3,7c-1.1,2.9-1.6,6.3-1.6,10.4c0,3.3,0.4,6.3,1.1,9.1c0.7,2.8,1.9,5.3,3.5,7.3
			c1.6,2,3.7,3.7,6.3,4.8c2.6,1.2,5.7,1.8,9.4,1.8c2.3,0,4.4-0.1,6.2-0.4c1.8-0.3,3.5-0.6,4.9-1c1.4-0.4,2.7-0.8,3.8-1.3
			c1.1-0.5,2.1-0.9,3-1.3l4.4,12.7c-2.2,1.4-5.4,2.6-9.5,3.7C251.5,176.8,246.8,177.3,241.4,177.3z"/>
		<path id="XMLID_139_" class="st0" d="M241.4,177.8c-11.6,0-20.5-3.3-26.6-9.7c-6.1-6.5-9.2-15.7-9.2-27.6c0-5.9,0.9-11.2,2.8-15.8
			c1.9-4.6,4.4-8.6,7.7-11.8c3.2-3.2,7.1-5.7,11.6-7.3c4.5-1.6,9.3-2.5,14.5-2.5c3,0,5.8,0.2,8.2,0.7c2.5,0.4,4.6,1,6.5,1.5
			c1.9,0.6,3.4,1.2,4.7,1.8c1.2,0.6,2.1,1.1,2.7,1.5l0.3,0.2l-4.9,13.8l-0.5-0.3c-2.1-1.1-4.7-2.1-7.5-2.9c-2.8-0.8-6.1-1.2-9.7-1.2
			c-2.4,0-4.7,0.4-7,1.2c-2.3,0.8-4.3,2.1-6,3.8c-1.7,1.7-3.2,4-4.2,6.8c-1.1,2.8-1.6,6.2-1.6,10.2c0,3.2,0.4,6.2,1.1,9
			c0.7,2.7,1.8,5.1,3.4,7.1c1.5,2,3.6,3.5,6.1,4.7c2.5,1.2,5.6,1.7,9.2,1.7c2.3,0,4.4-0.1,6.1-0.4c1.8-0.3,3.4-0.6,4.8-1
			c1.4-0.4,2.6-0.8,3.7-1.2c1.1-0.5,2.1-0.9,2.9-1.3l0.5-0.2l4.7,13.6l-0.3,0.2c-2.3,1.4-5.5,2.6-9.6,3.7
			C251.6,177.3,246.8,177.8,241.4,177.8z M242.2,104.1c-5.1,0-9.9,0.8-14.2,2.4c-4.3,1.6-8.1,4-11.2,7.1c-3.1,3.1-5.6,7-7.4,11.5
			c-1.8,4.5-2.7,9.7-2.7,15.5c0,11.6,3,20.6,8.9,26.9c5.9,6.3,14.6,9.4,25.9,9.4c5.3,0,10-0.5,14-1.6c3.8-1,6.8-2.2,9-3.4l-4.1-11.8
			c-0.8,0.3-1.6,0.7-2.5,1.1c-1.1,0.5-2.4,0.9-3.8,1.3c-1.4,0.4-3.1,0.7-4.9,1c-1.8,0.3-4,0.4-6.3,0.4c-3.7,0-7-0.6-9.6-1.8
			c-2.6-1.2-4.8-2.9-6.5-5c-1.6-2.1-2.8-4.6-3.6-7.5c-0.7-2.8-1.1-6-1.1-9.2c0-4.1,0.6-7.7,1.7-10.6c1.1-2.9,2.6-5.3,4.4-7.2
			c1.8-1.8,4-3.2,6.4-4c2.4-0.8,4.9-1.3,7.4-1.3c3.7,0,7.1,0.4,10,1.2c2.7,0.8,5.1,1.7,7.2,2.7l4.3-11.9c-0.5-0.3-1.3-0.7-2.3-1.2
			c-1.2-0.6-2.7-1.2-4.5-1.8s-3.9-1.1-6.4-1.5C247.9,104.3,245.2,104.1,242.2,104.1z"/>
	</g>
	<g id="XMLID_39_">
		<path id="XMLID_43_" class="st0" d="M318.4,149c0,4.2-0.6,8.1-1.8,11.6c-1.2,3.5-3,6.5-5.3,9c-2.3,2.5-5.1,4.4-8.3,5.8
			c-3.2,1.4-6.8,2-10.9,2c-3.9,0-7.5-0.7-10.8-2c-3.2-1.4-6-3.3-8.3-5.8c-2.3-2.5-4.1-5.5-5.4-9c-1.3-3.5-1.9-7.4-1.9-11.6
			c0-4.2,0.7-8.1,2-11.5s3.2-6.4,5.5-8.9c2.3-2.4,5.1-4.3,8.4-5.7c3.2-1.4,6.7-2,10.6-2c3.9,0,7.4,0.7,10.7,2c3.2,1.4,6,3.3,8.3,5.7
			c2.3,2.4,4.1,5.4,5.4,8.9C317.7,140.9,318.4,144.8,318.4,149z M302.9,149c0-4.7-0.9-8.4-2.8-11.1c-1.9-2.7-4.5-4-8-4
			s-6.2,1.3-8.1,4c-1.9,2.7-2.9,6.4-2.9,11.1s1,8.4,2.9,11.2c1.9,2.8,4.6,4.1,8.1,4.1s6.1-1.4,8-4.1
			C301.9,157.4,302.9,153.7,302.9,149z"/>
		<path id="XMLID_134_" class="st0" d="M292.1,177.8c-4,0-7.7-0.7-11-2.1c-3.3-1.4-6.1-3.4-8.5-5.9c-2.3-2.5-4.2-5.6-5.5-9.1
			c-1.3-3.5-2-7.5-2-11.7c0-4.3,0.7-8.2,2-11.7c1.3-3.5,3.2-6.6,5.6-9c2.4-2.5,5.2-4.4,8.5-5.8c3.3-1.4,6.9-2.1,10.7-2.1
			c3.9,0,7.6,0.7,10.8,2.1c3.3,1.4,6.1,3.3,8.5,5.8c2.3,2.5,4.2,5.5,5.5,9c1.3,3.5,2,7.4,2,11.7s-0.6,8.2-1.9,11.7
			c-1.2,3.5-3.1,6.6-5.4,9.1c-2.3,2.5-5.2,4.5-8.5,5.9C299.9,177.1,296.1,177.8,292.1,177.8z M292.1,121.3c-3.7,0-7.2,0.7-10.4,2
			c-3.2,1.3-5.9,3.2-8.2,5.6c-2.3,2.4-4.1,5.3-5.4,8.7c-1.3,3.4-2,7.2-2,11.3c0,4.1,0.6,8,1.9,11.4c1.3,3.4,3,6.4,5.3,8.8
			c2.2,2.4,5,4.3,8.1,5.6c3.2,1.3,6.7,2,10.6,2c3.9,0,7.5-0.7,10.7-2c3.1-1.3,5.9-3.2,8.1-5.6c2.3-2.4,4-5.4,5.2-8.8
			c1.2-3.4,1.8-7.3,1.8-11.4c0-4.1-0.6-7.9-1.9-11.3c-1.3-3.4-3-6.3-5.3-8.7c-2.3-2.4-5-4.3-8.1-5.6
			C299.4,122,295.9,121.3,292.1,121.3z M292.1,164.8c-3.6,0-6.5-1.5-8.5-4.3c-2-2.8-2.9-6.7-2.9-11.4c0-4.8,1-8.6,2.9-11.4
			c2-2.8,4.8-4.2,8.5-4.2s6.5,1.4,8.4,4.2c1.9,2.8,2.9,6.6,2.9,11.3c0,4.8-1,8.6-2.9,11.4C298.5,163.3,295.7,164.8,292.1,164.8z
			 M292.1,134.4c-3.3,0-5.8,1.2-7.6,3.8c-1.8,2.6-2.8,6.2-2.8,10.8c0,4.6,0.9,8.2,2.8,10.9c1.8,2.6,4.3,3.9,7.6,3.9
			c3.3,0,5.8-1.3,7.6-3.9c1.8-2.7,2.7-6.3,2.7-10.9c0-4.6-0.9-8.2-2.7-10.8C297.9,135.6,295.4,134.4,292.1,134.4z"/>
	</g>
	<g id="XMLID_42_">
		<path id="XMLID_45_" class="st0" d="M325.3,124.1c2.6-0.7,5.9-1.4,10-2.1c4.1-0.6,8.4-1,12.8-1c4.6,0,8.3,0.6,11.4,1.8
			c3,1.2,5.4,2.9,7.2,5c1.8,2.2,3,4.8,3.8,7.7c0.7,3,1.1,6.3,1.1,10v30.3h-15.2v-28.4c0-4.9-0.6-8.4-1.9-10.4
			c-1.3-2-3.7-3.1-7.2-3.1c-1.1,0-2.2,0.1-3.5,0.2c-1.2,0.1-2.3,0.2-3.3,0.4v41.4h-15.2V124.1z"/>
		<path id="XMLID_129_" class="st0" d="M372.1,176.4h-16.2v-28.9c0-4.8-0.6-8.2-1.9-10.1c-1.2-1.9-3.5-2.8-6.8-2.8
			c-1.1,0-2.2,0.1-3.4,0.2c-1,0.1-2,0.2-2.8,0.3v41.5h-16.2v-52.7l0.4-0.1c2.6-0.7,6-1.5,10.1-2.1c4.1-0.6,8.4-1,12.9-1
			c4.6,0,8.5,0.6,11.6,1.8c3.1,1.2,5.6,3,7.4,5.2c1.8,2.2,3.1,4.9,3.9,7.9c0.8,3,1.1,6.4,1.1,10.1V176.4z M356.9,175.4h14.2v-29.8
			c0-3.6-0.4-6.9-1.1-9.9c-0.7-2.9-2-5.4-3.7-7.6c-1.7-2.1-4.1-3.7-7-4.9c-3-1.2-6.7-1.7-11.2-1.7c-4.4,0-8.7,0.3-12.8,1
			c-3.9,0.6-7.1,1.3-9.6,2v50.9H340v-41.3l0.4-0.1c1-0.1,2.1-0.3,3.3-0.4c1.2-0.1,2.4-0.2,3.5-0.2c3.7,0,6.3,1.1,7.7,3.3
			c1.4,2.1,2,5.6,2,10.7V175.4z"/>
	</g>
	<g id="XMLID_44_">
		<path id="XMLID_47_" class="st0" d="M380.1,108.9l15.2-2.4v15.8h18.3v12.6h-18.3v18.9c0,3.2,0.6,5.7,1.7,7.6
			c1.1,1.9,3.4,2.9,6.8,2.9c1.6,0,3.3-0.2,5-0.5c1.7-0.3,3.3-0.7,4.7-1.3l2.1,11.8c-1.8,0.7-3.9,1.4-6.1,1.9c-2.2,0.5-5,0.8-8.3,0.8
			c-4.1,0-7.6-0.6-10.3-1.7c-2.7-1.1-4.9-2.7-6.5-4.7c-1.6-2-2.8-4.4-3.4-7.3c-0.6-2.9-1-6-1-9.5V108.9z"/>
		<path id="XMLID_125_" class="st0" d="M401.3,177.6c-4.2,0-7.7-0.6-10.5-1.7c-2.8-1.1-5-2.8-6.7-4.8c-1.7-2.1-2.9-4.6-3.5-7.5
			c-0.7-2.9-1-6.1-1-9.6v-45.5l16.2-2.6v15.9H414v13.6h-18.3v18.4c0,3.1,0.5,5.6,1.6,7.4c1,1.7,3.2,2.6,6.3,2.6c1.6,0,3.3-0.2,5-0.5
			c1.7-0.3,3.3-0.7,4.6-1.2l0.6-0.2l2.3,12.8l-0.4,0.2c-1.8,0.8-3.9,1.4-6.2,2C407.4,177.3,404.6,177.6,401.3,177.6z M380.6,109.3
			V154c0,3.4,0.3,6.6,1,9.4c0.6,2.8,1.7,5.2,3.3,7.1c1.6,1.9,3.7,3.5,6.3,4.5c2.6,1.1,6,1.6,10.1,1.6c3.2,0,5.9-0.3,8.1-0.8
			c2.1-0.5,4-1.1,5.7-1.8l-2-10.8c-1.3,0.5-2.7,0.8-4.3,1.1c-1.8,0.3-3.5,0.5-5.1,0.5c-3.6,0-6-1-7.2-3.1c-1.2-2-1.8-4.6-1.8-7.9
			v-19.4H413v-11.6h-18.3V107L380.6,109.3z"/>
	</g>
	<g id="XMLID_46_">
		<path id="XMLID_49_" class="st0" d="M453.4,135.7c-1.4-0.3-3-0.7-4.8-1.1c-1.8-0.4-3.8-0.6-5.9-0.6c-1,0-2.1,0.1-3.4,0.3
			c-1.3,0.2-2.3,0.4-3,0.6v41h-15.2v-50.8c2.7-1,5.9-1.9,9.6-2.7c3.7-0.8,7.8-1.3,12.4-1.3c0.8,0,1.8,0.1,3,0.2
			c1.2,0.1,2.3,0.2,3.5,0.4c1.2,0.2,2.3,0.4,3.5,0.6c1.2,0.2,2.1,0.5,3,0.9L453.4,135.7z"/>
		<path id="XMLID_121_" class="st0" d="M436.7,176.4h-16.2v-51.6l0.3-0.1c2.7-1,6-1.9,9.7-2.7c3.7-0.9,7.9-1.3,12.5-1.3
			c0.8,0,1.8,0.1,3,0.2c1.1,0.1,2.3,0.2,3.5,0.4c1.2,0.2,2.3,0.4,3.5,0.6c1.2,0.2,2.2,0.5,3,0.9l0.4,0.2l-2.7,13.5l-0.5-0.1
			c-1.4-0.3-3-0.7-4.8-1.1c-1.8-0.4-3.8-0.6-5.8-0.6c-0.9,0-2,0.1-3.4,0.3c-1.1,0.1-1.9,0.3-2.6,0.4V176.4z M421.6,175.4h14.2v-40.9
			l0.4-0.1c0.7-0.2,1.7-0.4,3.1-0.6c1.3-0.2,2.5-0.3,3.5-0.3c2.1,0,4.1,0.2,6,0.6c1.6,0.3,3.1,0.6,4.3,1l2.4-11.6
			c-0.7-0.3-1.5-0.5-2.5-0.7c-1.1-0.2-2.3-0.4-3.4-0.6c-1.2-0.2-2.3-0.3-3.4-0.4c-1.1-0.1-2.1-0.2-2.9-0.2c-4.5,0-8.6,0.4-12.3,1.3
			c-3.5,0.8-6.6,1.7-9.2,2.6V175.4z"/>
	</g>
	<g id="XMLID_48_">
		<path id="XMLID_52_" class="st0" d="M508.4,149c0,4.2-0.6,8.1-1.8,11.6c-1.2,3.5-3,6.5-5.3,9c-2.3,2.5-5.1,4.4-8.3,5.8
			c-3.2,1.4-6.8,2-10.9,2c-3.9,0-7.5-0.7-10.8-2c-3.2-1.4-6-3.3-8.3-5.8c-2.3-2.5-4.1-5.5-5.4-9c-1.3-3.5-1.9-7.4-1.9-11.6
			c0-4.2,0.7-8.1,2-11.5s3.2-6.4,5.5-8.9c2.3-2.4,5.1-4.3,8.4-5.7c3.2-1.4,6.7-2,10.6-2c3.9,0,7.4,0.7,10.7,2c3.2,1.4,6,3.3,8.3,5.7
			c2.3,2.4,4.1,5.4,5.4,8.9C507.8,140.9,508.4,144.8,508.4,149z M492.9,149c0-4.7-0.9-8.4-2.8-11.1c-1.9-2.7-4.5-4-8-4
			s-6.2,1.3-8.1,4c-1.9,2.7-2.9,6.4-2.9,11.1s1,8.4,2.9,11.2s4.6,4.1,8.1,4.1s6.1-1.4,8-4.1C492,157.4,492.9,153.7,492.9,149z"/>
		<path id="XMLID_116_" class="st0" d="M482.1,177.8c-4,0-7.7-0.7-11-2.1c-3.3-1.4-6.1-3.4-8.5-5.9c-2.3-2.5-4.2-5.6-5.5-9.1
			c-1.3-3.5-2-7.5-2-11.7c0-4.3,0.7-8.2,2-11.7c1.3-3.5,3.2-6.6,5.6-9c2.4-2.5,5.2-4.4,8.5-5.8c3.3-1.4,6.9-2.1,10.7-2.1
			c3.9,0,7.6,0.7,10.8,2.1c3.3,1.4,6.1,3.3,8.5,5.8c2.3,2.5,4.2,5.5,5.5,9c1.3,3.5,2,7.4,2,11.7s-0.6,8.2-1.9,11.7
			c-1.2,3.5-3.1,6.6-5.4,9.1c-2.3,2.5-5.2,4.5-8.5,5.9C489.9,177.1,486.2,177.8,482.1,177.8z M482.1,121.3c-3.7,0-7.2,0.7-10.4,2
			c-3.2,1.3-5.9,3.2-8.2,5.6c-2.3,2.4-4.1,5.3-5.4,8.7c-1.3,3.4-2,7.2-2,11.3c0,4.1,0.6,8,1.9,11.4c1.3,3.4,3,6.4,5.3,8.8
			c2.3,2.4,5,4.3,8.1,5.6c3.2,1.3,6.7,2,10.6,2c3.9,0,7.5-0.7,10.7-2c3.1-1.3,5.9-3.2,8.1-5.6c2.3-2.4,4-5.4,5.2-8.8
			c1.2-3.4,1.8-7.3,1.8-11.4c0-4.1-0.6-7.9-1.9-11.3c-1.3-3.4-3-6.3-5.3-8.7c-2.3-2.4-5-4.3-8.1-5.6
			C489.4,122,485.9,121.3,482.1,121.3z M482.1,164.8c-3.6,0-6.5-1.5-8.5-4.3c-2-2.8-2.9-6.7-2.9-11.4c0-4.8,1-8.6,2.9-11.4
			c2-2.8,4.8-4.2,8.5-4.2c3.6,0,6.5,1.4,8.4,4.2c1.9,2.8,2.9,6.6,2.9,11.3c0,4.8-1,8.6-2.9,11.4
			C488.6,163.3,485.8,164.8,482.1,164.8z M482.1,134.4c-3.3,0-5.8,1.2-7.6,3.8c-1.8,2.6-2.8,6.2-2.8,10.8c0,4.6,0.9,8.2,2.8,10.9
			c1.8,2.6,4.3,3.9,7.6,3.9c3.3,0,5.8-1.3,7.6-3.9c1.8-2.7,2.7-6.3,2.7-10.9c0-4.6-0.9-8.2-2.7-10.8
			C487.9,135.6,485.5,134.4,482.1,134.4z"/>
	</g>
	<g id="XMLID_51_">
		<path id="XMLID_54_" class="st0" d="M528.6,175.9c-3.5-6.8-7-14.8-10.6-23.9c-3.6-9.1-7-19-10.2-29.8h16.1
			c0.7,2.7,1.5,5.5,2.4,8.6c0.9,3.1,1.9,6.2,2.9,9.4c1,3.2,2,6.2,3,9.2c1,3,2,5.7,2.9,8.2c0.9-2.4,1.8-5.2,2.9-8.2c1-3,2-6.1,3-9.2
			c1-3.2,1.9-6.3,2.9-9.4c0.9-3.1,1.7-6,2.4-8.6H562c-3.2,10.7-6.6,20.7-10.2,29.8c-3.6,9.1-7.1,17.1-10.6,23.9H528.6z"/>
		<path id="XMLID_111_" class="st0" d="M541.5,176.4h-13.2l-0.1-0.3c-3.5-6.8-7-14.8-10.6-23.9c-3.6-9.1-7-19.1-10.2-29.8l-0.2-0.6
			h17.2l0.1,0.4c0.7,2.6,1.5,5.5,2.4,8.6c0.9,3,1.9,6.2,2.9,9.4c1,3.2,2,6.3,3,9.2c0.8,2.5,1.6,4.8,2.4,6.9c0.8-2.2,1.6-4.5,2.4-6.9
			c1-3,2-6.1,3-9.2c1-3.2,2-6.3,2.9-9.4c0.9-3.1,1.7-6,2.4-8.6l0.1-0.4h16.8l-0.2,0.6c-3.2,10.7-6.6,20.7-10.2,29.8
			c-3.6,9.1-7.1,17.1-10.6,23.9L541.5,176.4z M528.9,175.4h12c3.4-6.7,6.9-14.6,10.4-23.5c3.5-8.9,6.8-18.7,10-29.1h-14.7
			c-0.7,2.5-1.4,5.3-2.3,8.3c-0.9,3.1-1.9,6.2-2.9,9.4c-1,3.1-2,6.2-3,9.2c-1,2.9-2,5.6-2.9,8.2l-0.5,1.3l-0.5-1.2
			c-1-2.5-1.9-5.2-2.9-8.2c-1-2.9-2-6-3-9.2c-1-3.2-2-6.4-2.9-9.4c-0.9-2.9-1.7-5.7-2.3-8.3h-15.1c3.1,10.4,6.5,20.2,10,29.1
			C522,160.8,525.5,168.7,528.9,175.4z"/>
	</g>
	<g id="XMLID_53_">
		<path id="XMLID_57_" class="st0" d="M561.3,149.5c0-4.8,0.7-8.9,2.2-12.5c1.5-3.6,3.4-6.5,5.8-8.9c2.4-2.4,5.1-4.2,8.2-5.4
			c3.1-1.2,6.3-1.8,9.5-1.8c7.6,0,13.6,2.3,18,7c4.4,4.7,6.6,11.5,6.6,20.5c0,0.9,0,1.9-0.1,2.9c-0.1,1.1-0.1,2-0.2,2.8h-34.5
			c0.3,3.1,1.8,5.6,4.4,7.4c2.6,1.8,6,2.8,10.4,2.8c2.8,0,5.5-0.3,8.2-0.8c2.7-0.5,4.9-1.1,6.6-1.9l2,12.3c-0.8,0.4-1.9,0.8-3.3,1.2
			c-1.4,0.4-2.9,0.8-4.5,1.1c-1.7,0.3-3.5,0.6-5.4,0.8c-1.9,0.2-3.8,0.3-5.7,0.3c-4.8,0-9-0.7-12.6-2.1c-3.6-1.4-6.5-3.4-8.9-5.9
			c-2.3-2.5-4.1-5.4-5.2-8.8C561.8,157.1,561.3,153.4,561.3,149.5z M596.9,143.7c-0.1-1.3-0.3-2.5-0.7-3.8c-0.4-1.2-1-2.3-1.7-3.3
			c-0.8-1-1.8-1.7-3-2.3c-1.2-0.6-2.7-0.9-4.4-0.9c-1.7,0-3.2,0.3-4.4,0.9c-1.2,0.6-2.2,1.3-3.1,2.3c-0.8,1-1.4,2.1-1.9,3.3
			c-0.4,1.3-0.8,2.5-1,3.8H596.9z"/>
		<path id="XMLID_106_" class="st0" d="M589.6,177.8c-4.9,0-9.2-0.7-12.8-2.2c-3.6-1.4-6.7-3.5-9-6c-2.4-2.5-4.2-5.6-5.3-9
			c-1.1-3.4-1.7-7.2-1.7-11.2c0-4.8,0.8-9.1,2.2-12.7c1.5-3.6,3.5-6.7,5.9-9.1c2.4-2.4,5.2-4.3,8.4-5.5c3.1-1.2,6.4-1.9,9.7-1.9
			c7.7,0,13.9,2.4,18.4,7.1c4.5,4.7,6.8,11.8,6.8,20.9c0,0.9,0,1.9-0.1,2.9c-0.1,1.1-0.1,2-0.2,2.8l0,0.5h-34.4
			c0.4,2.7,1.8,4.9,4.1,6.5c2.5,1.8,5.9,2.7,10.1,2.7c2.7,0,5.5-0.3,8.1-0.8c2.6-0.5,4.8-1.1,6.5-1.9l0.6-0.3l2.2,13.3l-0.3,0.2
			c-0.8,0.4-2,0.8-3.3,1.3c-1.4,0.4-2.9,0.8-4.6,1.1c-1.7,0.3-3.5,0.6-5.4,0.8C593.4,177.7,591.5,177.8,589.6,177.8z M586.9,121.3
			c-3.2,0-6.3,0.6-9.4,1.8c-3,1.2-5.7,3-8,5.3c-2.3,2.3-4.2,5.3-5.7,8.8c-1.4,3.5-2.2,7.6-2.2,12.3c0,3.9,0.6,7.5,1.7,10.9
			c1.1,3.3,2.8,6.2,5.1,8.6c2.3,2.4,5.2,4.3,8.7,5.7c3.5,1.4,7.7,2.1,12.4,2.1c1.9,0,3.8-0.1,5.7-0.3c1.9-0.2,3.7-0.5,5.3-0.8
			c1.6-0.3,3.1-0.7,4.5-1.1c1.2-0.3,2.1-0.7,2.9-1l-1.9-11.3c-1.6,0.7-3.7,1.2-6.1,1.7c-2.7,0.5-5.5,0.8-8.3,0.8
			c-4.4,0-8-1-10.7-2.8c-2.7-1.9-4.2-4.5-4.6-7.8l-0.1-0.6h34.6c0.1-0.7,0.1-1.5,0.2-2.3c0.1-1.1,0.1-2,0.1-2.9
			c0-8.9-2.2-15.7-6.5-20.2C600.3,123.6,594.4,121.3,586.9,121.3z M597.5,144.2h-21.2l0.1-0.6c0.2-1.3,0.5-2.6,1-3.9
			c0.5-1.3,1.1-2.5,2-3.5c0.9-1,1.9-1.8,3.2-2.4c1.3-0.6,2.8-0.9,4.6-0.9c1.8,0,3.4,0.3,4.7,1c1.2,0.6,2.3,1.5,3.1,2.5
			c0.8,1,1.4,2.2,1.8,3.4c0.4,1.3,0.6,2.6,0.7,3.9L597.5,144.2z M577.4,143.2h19c-0.1-1.1-0.3-2.1-0.6-3.1c-0.4-1.2-0.9-2.2-1.6-3.1
			c-0.7-0.9-1.7-1.6-2.8-2.2c-1.1-0.6-2.5-0.9-4.2-0.9c-1.6,0-3,0.3-4.2,0.8c-1.2,0.5-2.1,1.3-2.9,2.2c-0.8,0.9-1.4,2-1.8,3.2
			C577.9,141,577.6,142.1,577.4,143.2z"/>
	</g>
	<g id="XMLID_56_">
		<path id="XMLID_3_" class="st0" d="M650.9,135.7c-1.4-0.3-3-0.7-4.8-1.1c-1.8-0.4-3.8-0.6-5.9-0.6c-1,0-2.1,0.1-3.4,0.3
			c-1.3,0.2-2.3,0.4-3,0.6v41h-15.2v-50.8c2.7-1,5.9-1.9,9.6-2.7c3.7-0.8,7.8-1.3,12.4-1.3c0.8,0,1.8,0.1,3,0.2
			c1.2,0.1,2.3,0.2,3.5,0.4c1.2,0.2,2.3,0.4,3.5,0.6c1.2,0.2,2.1,0.5,3,0.9L650.9,135.7z"/>
		<path id="XMLID_101_" class="st0" d="M634.2,176.4h-16.2v-51.6l0.3-0.1c2.7-1,6-1.9,9.7-2.7c3.7-0.9,7.9-1.3,12.5-1.3
			c0.8,0,1.8,0.1,3,0.2c1.1,0.1,2.3,0.2,3.5,0.4c1.2,0.2,2.3,0.4,3.5,0.6c1.2,0.2,2.2,0.5,3,0.9l0.4,0.2l-2.7,13.5l-0.5-0.1
			c-1.4-0.3-3-0.7-4.8-1.1c-1.8-0.4-3.8-0.6-5.8-0.6c-0.9,0-2,0.1-3.4,0.3c-1.1,0.1-1.9,0.3-2.6,0.4V176.4z M619.1,175.4h14.2v-40.9
			l0.4-0.1c0.7-0.2,1.7-0.4,3.1-0.6c1.3-0.2,2.5-0.3,3.5-0.3c2.1,0,4.1,0.2,6,0.6c1.6,0.3,3,0.6,4.3,1l2.4-11.6
			c-0.7-0.3-1.5-0.5-2.5-0.7c-1.1-0.2-2.3-0.4-3.4-0.6c-1.2-0.2-2.3-0.3-3.4-0.4c-1.1-0.1-2.1-0.2-2.9-0.2c-4.5,0-8.6,0.4-12.3,1.3
			c-3.5,0.8-6.6,1.7-9.2,2.6V175.4z"/>
	</g>
</g>
<g id="XMLID_29_">
	<g id="XMLID_2_">
		<path id="XMLID_5_" class="st0" d="M679.2,172.7c5.5,0,9.8-1,12.8-3c3.1-2,4.6-5.3,4.6-9.8c0-2.6-0.5-4.8-1.5-6.5
			c-1-1.7-2.3-3.2-3.9-4.4c-1.6-1.2-3.5-2.2-5.6-3.1c-2.1-0.8-4.3-1.7-6.6-2.7c-2.9-1.1-5.5-2.3-7.9-3.5c-2.3-1.2-4.3-2.6-5.9-4.1
			s-2.9-3.3-3.7-5.3c-0.9-2-1.3-4.3-1.3-6.9c0-6,2-10.6,6-13.8c4-3.1,9.6-4.7,16.7-4.7c1.9,0,3.8,0.1,5.6,0.4
			c1.8,0.3,3.6,0.6,5.1,1.1c1.6,0.4,3.1,0.9,4.4,1.5c1.3,0.5,2.4,1.1,3.3,1.7l-2.4,5.8c-2-1.4-4.4-2.4-7.2-3.3
			c-2.8-0.8-5.9-1.2-9.1-1.2c-2.2,0-4.3,0.2-6.2,0.7c-1.9,0.4-3.5,1.2-4.8,2.1c-1.4,1-2.4,2.2-3.2,3.7c-0.8,1.5-1.2,3.3-1.2,5.4
			c0,2.2,0.4,4,1.2,5.5c0.8,1.5,2,2.8,3.4,3.9c1.5,1.1,3.2,2.1,5.1,3c2,0.9,4.1,1.8,6.4,2.8c2.8,1.2,5.4,2.3,7.9,3.5
			c2.5,1.2,4.6,2.5,6.5,4.1c1.8,1.6,3.3,3.5,4.4,5.7c1.1,2.2,1.6,5,1.6,8.3c0,6.4-2.2,11.2-6.7,14.4c-4.5,3.2-10.5,4.8-18.1,4.8
			c-2.7,0-5.2-0.2-7.4-0.5c-2.2-0.3-4.2-0.8-6-1.3c-1.8-0.5-3.3-1-4.5-1.6c-1.2-0.5-2.2-1-2.9-1.4l2.2-6c0.7,0.4,1.6,0.9,2.8,1.4
			c1.2,0.5,2.5,1.1,4.1,1.6c1.6,0.5,3.3,0.9,5.3,1.3C674.6,172.5,676.8,172.7,679.2,172.7z"/>
		<path id="XMLID_97_" class="st0" d="M679.1,178.9c-2.7,0-5.2-0.2-7.5-0.5c-2.3-0.3-4.3-0.8-6-1.3c-1.8-0.5-3.3-1-4.5-1.6
			c-1.2-0.5-2.2-1-2.9-1.4L658,174l2.4-6.5l0.3,0.2c0.7,0.4,1.6,0.9,2.7,1.4c1.1,0.5,2.5,1.1,4,1.6c1.5,0.5,3.3,0.9,5.3,1.3
			c1.9,0.3,4.1,0.5,6.5,0.5c5.4,0,9.7-1,12.7-3c3-2,4.5-5.2,4.5-9.6c0-2.5-0.5-4.7-1.4-6.4c-1-1.7-2.3-3.2-3.9-4.3
			c-1.6-1.2-3.5-2.2-5.6-3c-2.1-0.8-4.3-1.7-6.6-2.7c-2.9-1.1-5.6-2.3-7.9-3.6c-2.3-1.2-4.3-2.6-6-4.2c-1.6-1.5-2.9-3.3-3.8-5.3
			c-0.9-2-1.3-4.4-1.3-7c0-6.1,2.1-10.8,6.1-14c4-3.1,9.7-4.7,16.9-4.7c1.9,0,3.8,0.1,5.6,0.4c1.8,0.3,3.6,0.6,5.2,1.1
			c1.6,0.4,3.1,0.9,4.4,1.5c1.3,0.5,2.5,1.1,3.4,1.8l0.2,0.1l-2.6,6.3l-0.3-0.2c-1.9-1.3-4.3-2.4-7.1-3.2c-2.8-0.8-5.8-1.2-9.1-1.2
			c-2.2,0-4.3,0.2-6.1,0.7c-1.8,0.4-3.4,1.1-4.8,2.1c-1.3,1-2.4,2.2-3.1,3.6c-0.8,1.5-1.1,3.2-1.1,5.3c0,2.1,0.4,3.9,1.2,5.4
			c0.8,1.5,1.9,2.7,3.3,3.8c1.4,1.1,3.2,2.1,5.1,2.9c2,0.9,4.1,1.8,6.4,2.8c2.8,1.2,5.4,2.3,7.9,3.5c2.5,1.2,4.7,2.5,6.5,4.1
			c1.9,1.6,3.3,3.5,4.4,5.8c1.1,2.3,1.7,5.1,1.7,8.4c0,6.4-2.3,11.4-6.8,14.6C692.9,177.3,686.7,178.9,679.1,178.9z M658.6,173.8
			c0.6,0.4,1.5,0.8,2.6,1.3c1.2,0.5,2.7,1.1,4.5,1.6c1.7,0.5,3.8,0.9,6,1.3c2.2,0.3,4.7,0.5,7.4,0.5c7.5,0,13.6-1.6,18-4.7
			c4.4-3.1,6.6-7.9,6.6-14.2c0-3.2-0.5-5.9-1.6-8.1c-1.1-2.2-2.5-4.1-4.3-5.6c-1.8-1.5-4-2.9-6.4-4c-2.5-1.1-5.1-2.3-7.9-3.5
			c-2.3-0.9-4.5-1.9-6.4-2.8c-2-0.9-3.7-1.9-5.2-3c-1.5-1.1-2.7-2.4-3.5-4c-0.8-1.5-1.3-3.4-1.3-5.6c0-2.1,0.4-4,1.2-5.5
			c0.8-1.5,1.9-2.8,3.3-3.8c1.4-1,3-1.7,4.9-2.2c1.9-0.4,4-0.7,6.2-0.7c3.3,0,6.4,0.4,9.2,1.2c2.7,0.8,5.1,1.8,7,3.1l2.3-5.3
			c-0.8-0.6-1.9-1.1-3.1-1.6c-1.3-0.5-2.8-1-4.4-1.5c-1.6-0.4-3.3-0.8-5.1-1.1c-1.8-0.3-3.7-0.4-5.6-0.4c-7,0-12.6,1.6-16.6,4.6
			c-3.9,3.1-5.9,7.6-5.9,13.6c0,2.6,0.4,4.9,1.3,6.8c0.8,1.9,2.1,3.7,3.7,5.2c1.6,1.5,3.6,2.9,5.9,4.1c2.3,1.2,4.9,2.4,7.8,3.5
			c2.3,0.9,4.5,1.8,6.6,2.7c2.1,0.8,4,1.9,5.7,3.1c1.7,1.2,3,2.7,4,4.5c1,1.8,1.5,4,1.5,6.6c0,4.6-1.6,7.9-4.7,10
			c-3.1,2-7.5,3.1-13,3.1c-2.4,0-4.6-0.2-6.6-0.5c-2-0.3-3.8-0.8-5.3-1.3c-1.6-0.5-3-1-4.1-1.6c-1-0.5-1.9-0.9-2.5-1.3L658.6,173.8z
			"/>
	</g>
	<g id="XMLID_4_">
		<path id="XMLID_7_" class="st0" d="M733.3,178.3c-4.1,0-7.7-0.6-10.8-1.9c-3.1-1.3-5.7-3.1-7.8-5.6c-2.1-2.4-3.7-5.3-4.7-8.7
			c-1.1-3.4-1.6-7.1-1.6-11.2c0-4.1,0.6-7.9,1.7-11.3c1.1-3.4,2.7-6.3,4.8-8.8c2.1-2.4,4.7-4.3,7.6-5.7c3-1.3,6.4-2,10.1-2
			c2.9,0,5.5,0.2,8,0.7c2.5,0.5,4.4,1.1,5.8,1.8l-1.7,5.7c-1.4-0.7-2.9-1.2-4.6-1.6c-1.7-0.4-4-0.6-6.8-0.6
			c-5.8,0-10.3,1.9-13.3,5.7c-3,3.8-4.5,9.1-4.5,16.1c0,3.1,0.3,6,1,8.6c0.7,2.6,1.8,4.9,3.3,6.7c1.5,1.9,3.5,3.3,5.9,4.4
			c2.4,1.1,5.4,1.6,8.8,1.6c2.9,0,5.3-0.3,7.2-1c1.9-0.6,3.3-1.2,4.2-1.7l1.4,5.7c-1.2,0.7-3.1,1.3-5.8,2
			C738.9,178,736.2,178.3,733.3,178.3z"/>
		<path id="XMLID_93_" class="st0" d="M733.3,178.5c-4.1,0-7.8-0.7-10.9-2c-3.1-1.3-5.8-3.2-7.9-5.6c-2.1-2.4-3.7-5.4-4.8-8.8
			c-1.1-3.4-1.6-7.2-1.6-11.2c0-4.2,0.6-8,1.7-11.4c1.1-3.4,2.8-6.4,4.9-8.9c2.1-2.5,4.7-4.4,7.7-5.7c3-1.3,6.4-2,10.2-2
			c2.8,0,5.6,0.2,8.1,0.7c2.5,0.5,4.5,1.1,5.8,1.9l0.2,0.1l-1.9,6.2l-0.3-0.1c-1.3-0.7-2.9-1.2-4.5-1.6c-1.7-0.4-4-0.6-6.8-0.6
			c-5.7,0-10.2,1.9-13.1,5.6c-3,3.7-4.5,9.1-4.5,15.9c0,3.1,0.3,6,1,8.6c0.7,2.6,1.8,4.8,3.3,6.6c1.5,1.8,3.5,3.3,5.8,4.3
			c2.4,1,5.3,1.6,8.7,1.6c2.8,0,5.2-0.3,7.1-1c1.9-0.6,3.3-1.2,4.2-1.7l0.3-0.2l1.6,6.2l-0.2,0.1c-1.2,0.7-3.2,1.4-5.8,2
			C739,178.2,736.2,178.5,733.3,178.5z M732.6,123.5c-3.7,0-7,0.7-10,2c-2.9,1.3-5.5,3.2-7.6,5.6c-2.1,2.4-3.7,5.3-4.8,8.7
			c-1.1,3.4-1.7,7.1-1.7,11.2c0,4,0.5,7.8,1.6,11.1c1.1,3.3,2.6,6.2,4.7,8.6c2,2.4,4.6,4.2,7.7,5.5c3.1,1.3,6.7,1.9,10.7,1.9
			c2.8,0,5.6-0.3,8.1-1c2.5-0.6,4.3-1.2,5.5-1.9l-1.3-5.2c-0.9,0.5-2.2,1-4,1.6c-1.9,0.7-4.4,1-7.3,1c-3.5,0-6.5-0.5-8.9-1.6
			c-2.4-1.1-4.5-2.6-6-4.5c-1.5-1.9-2.7-4.2-3.4-6.8c-0.7-2.6-1-5.5-1-8.7c0-7,1.5-12.4,4.6-16.2c3.1-3.8,7.6-5.8,13.5-5.8
			c2.9,0,5.2,0.2,6.9,0.6c1.6,0.4,3.1,0.9,4.4,1.5l1.6-5.2c-1.3-0.7-3.2-1.3-5.5-1.7C738.1,123.7,735.4,123.5,732.6,123.5z"/>
	</g>
	<g id="XMLID_6_">
		<path id="XMLID_10_" class="st0" d="M761.8,108.5c0,1.6-0.5,2.8-1.4,3.7c-1,0.9-2.1,1.4-3.5,1.4c-1.4,0-2.5-0.5-3.5-1.4
			c-1-0.9-1.4-2.2-1.4-3.7c0-1.6,0.5-2.8,1.4-3.7c1-0.9,2.1-1.4,3.5-1.4c1.4,0,2.5,0.5,3.5,1.4C761.3,105.7,761.8,107,761.8,108.5z
			 M760.2,177.2h-6.6v-52.7h6.6V177.2z"/>
		<path id="XMLID_88_" class="st0" d="M760.5,177.4h-7.1v-53.2h7.1V177.4z M753.9,176.9h6.1v-52.2h-6.1V176.9z M756.9,113.9
			c-1.4,0-2.6-0.5-3.6-1.4c-1-1-1.5-2.3-1.5-3.9c0-1.6,0.5-2.9,1.5-3.9c1-1,2.2-1.4,3.6-1.4c1.4,0,2.6,0.5,3.6,1.4
			c1,1,1.5,2.3,1.5,3.9c0,1.6-0.5,2.9-1.5,3.9C759.5,113.4,758.3,113.9,756.9,113.9z M756.9,103.7c-1.3,0-2.4,0.4-3.3,1.3
			c-0.9,0.9-1.4,2.1-1.4,3.5c0,1.5,0.5,2.7,1.4,3.5c0.9,0.9,2,1.3,3.3,1.3c1.3,0,2.4-0.4,3.3-1.3c0.9-0.9,1.4-2.1,1.4-3.5
			c0-1.5-0.5-2.7-1.4-3.5C759.3,104.1,758.2,103.7,756.9,103.7z"/>
	</g>
	<g id="XMLID_9_">
		<path id="XMLID_13_" class="st0" d="M769.8,150.8c0-4.6,0.7-8.6,2-12.1c1.3-3.4,3.1-6.3,5.2-8.6c2.1-2.3,4.6-4,7.3-5.1
			s5.6-1.7,8.5-1.7c6.5,0,11.6,2.1,15.4,6.3c3.8,4.2,5.8,10.7,5.8,19.5c0,0.5,0,1.1-0.1,1.6c0,0.5-0.1,1.1-0.2,1.5h-37
			c0.2,6.5,1.8,11.4,4.8,14.9c3,3.5,7.7,5.2,14.3,5.2c3.6,0,6.5-0.3,8.6-1c2.1-0.7,3.6-1.3,4.6-1.7l1.2,5.7c-1,0.5-2.7,1.2-5.4,1.9
			c-2.6,0.7-5.7,1.1-9.2,1.1c-4.6,0-8.6-0.7-11.8-2c-3.3-1.4-5.9-3.3-8.1-5.7c-2.1-2.4-3.6-5.4-4.6-8.7
			C770.3,158.5,769.8,154.8,769.8,150.8z M807.3,146.6c-0.1-5.5-1.4-9.8-3.9-12.8c-2.4-3.1-5.9-4.6-10.4-4.6c-2.4,0-4.5,0.5-6.4,1.4
			c-1.9,1-3.5,2.2-4.9,3.8c-1.4,1.6-2.5,3.5-3.3,5.6c-0.8,2.1-1.2,4.3-1.4,6.6H807.3z"/>
		<path id="XMLID_82_" class="st0" d="M795.7,178.5c-4.6,0-8.6-0.7-11.9-2.1c-3.3-1.4-6-3.3-8.1-5.8c-2.1-2.5-3.7-5.4-4.6-8.8
			c-1-3.4-1.4-7.1-1.4-11.1c0-4.6,0.7-8.7,2-12.2c1.3-3.4,3.1-6.4,5.3-8.7c2.2-2.3,4.7-4.1,7.4-5.2c2.8-1.1,5.7-1.7,8.6-1.7
			c6.5,0,11.8,2.2,15.6,6.4c3.9,4.2,5.8,10.9,5.8,19.6c0,0.5,0,1.1-0.1,1.6c0,0.6-0.1,1.1-0.2,1.5l0,0.2h-37
			c0.2,6.2,1.8,11.1,4.7,14.5c2.9,3.4,7.7,5.1,14.1,5.1c3.6,0,6.4-0.3,8.5-1c2.1-0.7,3.6-1.2,4.6-1.7l0.3-0.1l1.3,6.2l-0.2,0.1
			c-1,0.6-2.7,1.2-5.4,2C802.4,178.2,799.3,178.5,795.7,178.5z M792.9,123.5c-2.9,0-5.7,0.6-8.4,1.7c-2.7,1.1-5.1,2.8-7.3,5.1
			c-2.1,2.3-3.8,5.1-5.2,8.5c-1.3,3.4-2,7.4-2,12c0,4,0.5,7.7,1.4,11c0.9,3.3,2.5,6.2,4.5,8.6c2.1,2.4,4.8,4.3,8,5.6
			c3.2,1.3,7.2,2,11.7,2c3.5,0,6.6-0.4,9.2-1.1c2.4-0.7,4.2-1.3,5.1-1.8l-1.1-5.2c-1,0.5-2.4,1-4.3,1.6c-2.1,0.7-5,1-8.6,1
			c-6.6,0-11.4-1.8-14.5-5.3c-3-3.5-4.6-8.6-4.9-15l0-0.3h37.1c0.1-0.4,0.1-0.8,0.1-1.3c0-0.5,0-1.1,0-1.6c0-8.7-1.9-15.2-5.7-19.3
			C804.4,125.6,799.2,123.5,792.9,123.5z M807.5,146.8h-30.7l0-0.3c0.1-2.3,0.6-4.6,1.4-6.7c0.8-2.1,1.9-4,3.3-5.6
			c1.4-1.6,3.1-2.9,5-3.9c1.9-1,4.1-1.5,6.5-1.5c4.5,0,8.1,1.6,10.6,4.7c2.5,3.1,3.8,7.5,3.9,13L807.5,146.8z M777.3,146.3H807
			c-0.2-5.3-1.5-9.5-3.8-12.4c-2.4-3-5.8-4.5-10.2-4.5c-2.3,0-4.4,0.5-6.3,1.4c-1.8,0.9-3.5,2.2-4.8,3.8c-1.4,1.6-2.5,3.4-3.2,5.5
			C777.9,142,777.5,144.1,777.3,146.3z"/>
	</g>
	<g id="XMLID_12_">
		<path id="XMLID_31_" class="st0" d="M824.1,126.3c2-0.5,4.6-1.2,8-1.8c3.3-0.7,7.4-1,12.2-1c4,0,7.4,0.6,10,1.7
			c2.7,1.2,4.8,2.8,6.4,4.9c1.6,2.1,2.7,4.7,3.4,7.7c0.7,3,1,6.3,1,9.9v29.5h-6.6v-27.3c0-3.7-0.3-6.9-0.8-9.5
			c-0.5-2.6-1.4-4.7-2.5-6.3c-1.2-1.6-2.8-2.8-4.7-3.5c-1.9-0.7-4.4-1.1-7.3-1.1c-3.1,0-5.8,0.2-8.1,0.5c-2.3,0.3-3.8,0.6-4.4,0.9
			v46.3h-6.6V126.3z"/>
		<path id="XMLID_77_" class="st0" d="M865.4,177.4h-7.1v-27.6c0-3.7-0.3-6.9-0.8-9.4c-0.5-2.5-1.3-4.6-2.5-6.2
			c-1.2-1.6-2.7-2.7-4.6-3.4c-1.9-0.7-4.3-1.1-7.2-1.1c-3.1,0-5.8,0.2-8.1,0.5c-2.1,0.3-3.5,0.6-4.2,0.8v46.4h-7.1v-51.3l0.2-0.1
			c2-0.5,4.6-1.2,8-1.8c3.3-0.7,7.5-1,12.3-1c4,0,7.4,0.6,10.1,1.8c2.7,1.2,4.9,2.9,6.5,5c1.6,2.2,2.8,4.8,3.5,7.8
			c0.7,3,1,6.3,1,9.9V177.4z M858.8,176.9h6.1v-29.2c0-3.6-0.3-6.9-1-9.8c-0.7-2.9-1.8-5.5-3.4-7.6c-1.6-2.1-3.7-3.7-6.3-4.9
			c-2.6-1.1-6-1.7-9.9-1.7c-4.8,0-8.9,0.3-12.2,1c-3.2,0.7-5.8,1.3-7.8,1.8v50.4h6.1v-46.2l0.2-0.1c0.7-0.3,2.2-0.6,4.5-0.9
			c2.3-0.3,5-0.5,8.1-0.5c2.9,0,5.4,0.4,7.4,1.1c2,0.7,3.6,1.9,4.8,3.6c1.2,1.7,2.1,3.8,2.6,6.4c0.5,2.6,0.8,5.8,0.8,9.5V176.9z"/>
	</g>
	<g id="XMLID_30_">
		<path id="XMLID_33_" class="st0" d="M899.1,178.3c-4.1,0-7.7-0.6-10.8-1.9c-3.1-1.3-5.7-3.1-7.8-5.6c-2.1-2.4-3.7-5.3-4.7-8.7
			c-1.1-3.4-1.6-7.1-1.6-11.2c0-4.1,0.6-7.9,1.7-11.3c1.1-3.4,2.7-6.3,4.8-8.8c2.1-2.4,4.7-4.3,7.6-5.7c3-1.3,6.4-2,10.1-2
			c2.9,0,5.5,0.2,8,0.7c2.5,0.5,4.4,1.1,5.8,1.8l-1.7,5.7c-1.4-0.7-2.9-1.2-4.6-1.6c-1.7-0.4-4-0.6-6.8-0.6
			c-5.8,0-10.3,1.9-13.3,5.7c-3,3.8-4.5,9.1-4.5,16.1c0,3.1,0.3,6,1,8.6c0.7,2.6,1.8,4.9,3.3,6.7c1.5,1.9,3.5,3.3,5.9,4.4
			c2.4,1.1,5.4,1.6,8.8,1.6c2.9,0,5.3-0.3,7.2-1c1.9-0.6,3.3-1.2,4.2-1.7l1.4,5.7c-1.2,0.7-3.1,1.3-5.8,2
			C904.7,178,902,178.3,899.1,178.3z"/>
		<path id="XMLID_73_" class="st0" d="M899.1,178.5c-4.1,0-7.8-0.7-10.9-2c-3.1-1.3-5.8-3.2-7.9-5.6c-2.1-2.4-3.7-5.4-4.8-8.8
			c-1.1-3.4-1.6-7.2-1.6-11.2c0-4.2,0.6-8,1.7-11.4c1.1-3.4,2.8-6.4,4.9-8.9c2.1-2.5,4.7-4.4,7.7-5.7c3-1.3,6.4-2,10.2-2
			c2.9,0,5.6,0.2,8.1,0.7c2.5,0.5,4.5,1.1,5.8,1.9l0.2,0.1l-1.9,6.2l-0.3-0.1c-1.3-0.7-2.9-1.2-4.5-1.6c-1.7-0.4-3.9-0.6-6.8-0.6
			c-5.7,0-10.2,1.9-13.1,5.6c-3,3.7-4.5,9.1-4.5,15.9c0,3.1,0.3,6,1,8.6c0.7,2.6,1.8,4.8,3.3,6.6c1.5,1.8,3.5,3.3,5.8,4.3
			c2.4,1,5.3,1.6,8.7,1.6c2.8,0,5.2-0.3,7.1-1c1.9-0.6,3.3-1.2,4.2-1.7l0.3-0.2l1.6,6.2l-0.2,0.1c-1.2,0.7-3.2,1.4-5.8,2
			C904.8,178.2,902,178.5,899.1,178.5z M898.4,123.5c-3.7,0-7,0.7-10,2c-2.9,1.3-5.5,3.2-7.6,5.6c-2.1,2.4-3.7,5.3-4.8,8.7
			c-1.1,3.4-1.7,7.1-1.7,11.2c0,4,0.5,7.8,1.6,11.1c1.1,3.3,2.7,6.2,4.7,8.6c2,2.4,4.6,4.2,7.7,5.5c3.1,1.3,6.7,1.9,10.7,1.9
			c2.8,0,5.6-0.3,8.1-1c2.5-0.6,4.3-1.2,5.5-1.9l-1.3-5.2c-0.9,0.5-2.2,1-4,1.6c-1.9,0.7-4.4,1-7.3,1c-3.5,0-6.5-0.5-8.9-1.6
			c-2.4-1.1-4.5-2.6-6-4.5c-1.5-1.9-2.7-4.2-3.4-6.8c-0.7-2.6-1-5.5-1-8.7c0-7,1.5-12.4,4.6-16.2c3.1-3.8,7.6-5.8,13.5-5.8
			c2.9,0,5.2,0.2,6.9,0.6c1.6,0.4,3.1,0.9,4.4,1.5l1.6-5.2c-1.3-0.7-3.2-1.3-5.5-1.7C903.9,123.7,901.2,123.5,898.4,123.5z"/>
	</g>
	<g id="XMLID_32_">
		<path id="XMLID_36_" class="st0" d="M916.2,150.8c0-4.6,0.7-8.6,2-12.1c1.3-3.4,3.1-6.3,5.2-8.6c2.1-2.3,4.6-4,7.3-5.1
			c2.8-1.1,5.6-1.7,8.5-1.7c6.5,0,11.6,2.1,15.4,6.3c3.8,4.2,5.8,10.7,5.8,19.5c0,0.5,0,1.1-0.1,1.6c0,0.5-0.1,1.1-0.2,1.5h-37
			c0.2,6.5,1.8,11.4,4.8,14.9c3,3.5,7.7,5.2,14.3,5.2c3.6,0,6.5-0.3,8.6-1c2.1-0.7,3.6-1.3,4.6-1.7l1.2,5.7c-1,0.5-2.7,1.2-5.4,1.9
			c-2.6,0.7-5.7,1.1-9.2,1.1c-4.6,0-8.6-0.7-11.8-2c-3.3-1.4-5.9-3.3-8.1-5.7c-2.1-2.4-3.6-5.4-4.6-8.7
			C916.7,158.5,916.2,154.8,916.2,150.8z M953.7,146.6c-0.1-5.5-1.4-9.8-3.9-12.8c-2.4-3.1-5.9-4.6-10.4-4.6c-2.4,0-4.5,0.5-6.4,1.4
			c-1.9,1-3.5,2.2-4.9,3.8c-1.4,1.6-2.5,3.5-3.3,5.6c-0.8,2.1-1.2,4.3-1.4,6.6H953.7z"/>
		<path id="XMLID_68_" class="st0" d="M942.1,178.5c-4.6,0-8.6-0.7-11.9-2.1c-3.3-1.4-6-3.3-8.1-5.8c-2.1-2.5-3.7-5.4-4.6-8.8
			c-1-3.4-1.4-7.1-1.4-11.1c0-4.6,0.7-8.7,2-12.2c1.3-3.4,3.1-6.4,5.2-8.7c2.2-2.3,4.7-4.1,7.4-5.2c2.8-1.1,5.7-1.7,8.6-1.7
			c6.5,0,11.8,2.2,15.6,6.4c3.9,4.2,5.8,10.9,5.8,19.6c0,0.5,0,1.1-0.1,1.6c0,0.5-0.1,1.1-0.2,1.5l0,0.2h-37
			c0.2,6.2,1.8,11.1,4.7,14.5c2.9,3.4,7.7,5.1,14.1,5.1c3.6,0,6.4-0.3,8.5-1c2.1-0.7,3.6-1.2,4.6-1.7l0.3-0.1l1.3,6.2l-0.2,0.1
			c-1,0.6-2.7,1.2-5.4,2C948.8,178.2,945.7,178.5,942.1,178.5z M939.3,123.5c-2.9,0-5.7,0.6-8.4,1.7c-2.7,1.1-5.1,2.8-7.3,5.1
			c-2.1,2.3-3.8,5.1-5.1,8.5c-1.3,3.4-2,7.4-2,12c0,4,0.5,7.7,1.4,11c0.9,3.3,2.5,6.2,4.5,8.6c2.1,2.4,4.7,4.3,8,5.6
			c3.2,1.3,7.2,2,11.7,2c3.5,0,6.6-0.4,9.2-1.1c2.4-0.7,4.2-1.3,5.1-1.8l-1.1-5.2c-1,0.5-2.4,1-4.3,1.6c-2.1,0.7-5,1-8.6,1
			c-6.6,0-11.4-1.8-14.5-5.3c-3-3.5-4.6-8.6-4.9-15l0-0.3h37.1c0.1-0.4,0.1-0.8,0.1-1.3c0-0.5,0-1.1,0-1.6c0-8.7-1.9-15.2-5.7-19.3
			C950.8,125.6,945.6,123.5,939.3,123.5z M953.9,146.8h-30.7l0-0.3c0.1-2.3,0.6-4.6,1.4-6.7c0.8-2.1,1.9-4,3.3-5.6
			c1.4-1.6,3.1-2.9,5-3.9c1.9-1,4.1-1.5,6.5-1.5c4.5,0,8.1,1.6,10.6,4.7c2.5,3.1,3.8,7.5,3.9,13L953.9,146.8z M923.8,146.3h29.7
			c-0.2-5.3-1.5-9.5-3.8-12.4c-2.4-3-5.8-4.5-10.2-4.5c-2.3,0-4.4,0.5-6.3,1.4c-1.8,0.9-3.5,2.2-4.8,3.8c-1.4,1.6-2.5,3.4-3.2,5.5
			C924.4,142,923.9,144.1,923.8,146.3z"/>
	</g>
	<g id="XMLID_35_">
		<path id="XMLID_61_" class="st0" d="M981.3,172.5c3.8,0,6.9-0.6,9.4-1.9c2.5-1.3,3.7-3.4,3.7-6.4c0-1.4-0.2-2.7-0.7-3.7
			c-0.4-1-1.2-1.9-2.2-2.8s-2.4-1.6-4-2.3c-1.7-0.7-3.7-1.6-6.2-2.7c-2-0.8-3.8-1.6-5.6-2.5c-1.8-0.8-3.3-1.8-4.7-3
			c-1.4-1.1-2.4-2.5-3.3-4c-0.8-1.6-1.2-3.5-1.2-5.7c0-4.3,1.6-7.7,4.8-10.4c3.2-2.7,7.7-4,13.3-4c3.6,0,6.6,0.3,8.9,0.9
			c2.3,0.6,4,1.2,4.9,1.6l-1.5,5.9c-0.8-0.4-2.2-1-4.1-1.6c-1.9-0.7-4.8-1-8.5-1c-1.5,0-2.9,0.2-4.2,0.5c-1.3,0.3-2.5,0.8-3.5,1.4
			s-1.8,1.5-2.4,2.5c-0.6,1-0.9,2.2-0.9,3.6s0.3,2.7,0.8,3.7c0.5,1,1.3,1.9,2.4,2.7c1.1,0.8,2.3,1.5,3.9,2.2
			c1.5,0.7,3.3,1.4,5.3,2.2c2,0.8,4,1.6,5.9,2.5c1.9,0.8,3.5,1.9,4.9,3.1c1.4,1.2,2.6,2.6,3.5,4.3c0.9,1.7,1.3,3.8,1.3,6.3
			c0,4.8-1.8,8.4-5.4,10.8c-3.6,2.4-8.4,3.7-14.6,3.7c-4.6,0-8.2-0.4-10.6-1.2c-2.4-0.8-4.1-1.4-4.9-1.8l1.7-6
			c0.2,0.1,0.6,0.4,1.3,0.7c0.7,0.3,1.6,0.6,2.8,1c1.2,0.4,2.5,0.7,4.1,1C977.3,172.3,979.2,172.5,981.3,172.5z"/>
		<path id="XMLID_63_" class="st0" d="M981.3,178.6c-4.6,0-8.2-0.4-10.7-1.2c-2.4-0.8-4.1-1.4-4.9-1.8l-0.2-0.1l1.9-6.5l0.3,0.2
			c0.2,0.1,0.6,0.3,1.3,0.6c0.7,0.3,1.6,0.6,2.7,1c1.1,0.4,2.5,0.7,4.1,1c1.6,0.3,3.4,0.4,5.5,0.4c3.7,0,6.9-0.6,9.3-1.9
			c2.4-1.2,3.6-3.2,3.6-6.2c0-1.4-0.2-2.6-0.6-3.6c-0.4-1-1.1-1.9-2.1-2.7c-1-0.8-2.3-1.6-4-2.3c-1.7-0.8-3.8-1.7-6.2-2.6
			c-2-0.8-3.9-1.7-5.6-2.5c-1.8-0.9-3.4-1.9-4.7-3c-1.4-1.1-2.5-2.5-3.3-4.1c-0.8-1.6-1.3-3.6-1.3-5.8c0-4.3,1.7-7.9,4.9-10.6
			c3.3-2.7,7.8-4,13.5-4c3.6,0,6.6,0.3,9,0.9c2.3,0.6,4,1.2,5,1.6l0.2,0.1l-1.7,6.4l-0.3-0.1c-0.8-0.4-2.2-0.9-4.1-1.6
			c-1.9-0.7-4.7-1-8.4-1c-1.5,0-2.9,0.2-4.2,0.5c-1.3,0.3-2.4,0.8-3.4,1.4c-1,0.6-1.8,1.4-2.4,2.4c-0.6,0.9-0.9,2.1-0.9,3.5
			c0,1.4,0.3,2.6,0.8,3.6c0.5,1,1.3,1.9,2.3,2.6c1,0.8,2.3,1.5,3.8,2.2c1.5,0.7,3.3,1.4,5.2,2.2c2,0.8,4,1.7,5.9,2.5
			c1.9,0.9,3.6,1.9,5,3.1c1.4,1.2,2.6,2.7,3.5,4.4c0.9,1.7,1.4,3.8,1.4,6.4c0,4.8-1.8,8.5-5.5,11
			C992.5,177.4,987.5,178.6,981.3,178.6z M966.1,175.3c0.9,0.4,2.4,1,4.7,1.7c2.4,0.8,6,1.2,10.5,1.2c6.1,0,11-1.2,14.5-3.6
			c3.5-2.4,5.2-6,5.2-10.6c0-2.5-0.4-4.5-1.3-6.2c-0.9-1.6-2-3-3.4-4.2c-1.4-1.2-3-2.2-4.9-3c-1.8-0.8-3.8-1.7-5.9-2.5
			c-2-0.8-3.7-1.6-5.3-2.2c-1.5-0.7-2.9-1.4-3.9-2.2c-1.1-0.8-1.9-1.7-2.5-2.8c-0.6-1.1-0.8-2.3-0.8-3.8c0-1.5,0.3-2.7,1-3.8
			c0.6-1,1.5-1.9,2.5-2.5c1-0.7,2.3-1.2,3.6-1.5c1.3-0.3,2.8-0.5,4.3-0.5c3.7,0,6.6,0.3,8.6,1c1.8,0.6,3,1.1,3.9,1.5l1.4-5.4
			c-1-0.4-2.5-1-4.7-1.5c-2.3-0.6-5.3-0.9-8.9-0.9c-5.6,0-10,1.3-13.1,3.9c-3.2,2.6-4.8,6-4.8,10.2c0,2.2,0.4,4.1,1.2,5.6
			c0.8,1.5,1.9,2.9,3.2,3.9c1.3,1.1,2.9,2.1,4.6,2.9c1.8,0.8,3.6,1.7,5.6,2.5c2.4,1,4.5,1.9,6.2,2.7c1.7,0.8,3.1,1.6,4.1,2.4
			c1,0.8,1.8,1.8,2.3,2.8c0.5,1,0.7,2.3,0.7,3.8c0,3.1-1.3,5.3-3.9,6.6c-2.5,1.3-5.7,1.9-9.5,1.9c-2.1,0-4-0.1-5.6-0.4
			c-1.6-0.3-3-0.6-4.2-1c-1.2-0.4-2.1-0.7-2.8-1c-0.5-0.2-0.8-0.4-1.1-0.5L966.1,175.3z"/>
	</g>
</g>
</svg>
