<?xml version="1.0" encoding="UTF-8" standalone="no"?>
<svg
   xmlns:x="adobe:ns:meta/"
   xmlns:dc="http://purl.org/dc/elements/1.1/"
   xmlns:cc="http://creativecommons.org/ns#"
   xmlns:rdf="http://www.w3.org/1999/02/22-rdf-syntax-ns#"
   xmlns:svg="http://www.w3.org/2000/svg"
   xmlns="http://www.w3.org/2000/svg"
   xmlns:sodipodi="http://sodipodi.sourceforge.net/DTD/sodipodi-0.dtd"
   xmlns:inkscape="http://www.inkscape.org/namespaces/inkscape"
   version="1.1"
   x="0px"
   y="0px"
   viewBox="0 0 388.93098 431.52802"
   enable-background="new 0 0 512.853 517"
   xml:space="preserve"
   id="svg2"
   inkscape:version="0.91 r13725"
   sodipodi:docname="noun_48577_cc.svg"
   width="388.931"
   height="431.52802"><defs
     id="defs16" /><sodipodi:namedview
     pagecolor="#ffffff"
     bordercolor="#666666"
     borderopacity="1"
     objecttolerance="10"
     gridtolerance="10"
     guidetolerance="10"
     inkscape:pageopacity="0"
     inkscape:pageshadow="2"
     inkscape:window-width="1920"
     inkscape:window-height="1056"
     id="namedview14"
     showgrid="false"
     fit-margin-top="0"
     fit-margin-left="0"
     fit-margin-right="0"
     fit-margin-bottom="0"
     inkscape:zoom="0.36518375"
     inkscape:cx="198.98951"
     inkscape:cy="144.412"
     inkscape:window-x="0"
     inkscape:window-y="24"
     inkscape:window-maximized="1"
     inkscape:current-layer="svg2" /><metadata
     id="metadata4"><?xpacket begin="&#65279;" id="W5M0MpCehiHzreSzNTczkc9d"?><x:xmpmeta
       x:xmptk="Adobe XMP Core 5.3-c011 66.145661, 2012/02/06-14:56:27        " /><?xpacket end="w"?><rdf:RDF><cc:Work
         rdf:about=""><dc:format>image/svg+xml</dc:format><dc:type
           rdf:resource="http://purl.org/dc/dcmitype/StillImage" /><dc:title></dc:title></cc:Work></rdf:RDF></metadata><g
     id="g6"
     transform="translate(-57.437,-36.009)"
     style="fill:#ffffff"><path
       d="m 435.17,317.35 c -3.287,0 -6.238,1.426 -8.287,3.685 L 310.778,277.177 c 2.469,-6.173 3.838,-12.901 3.838,-19.954 0,-3.084 -0.272,-6.101 -0.77,-9.041 l 41.753,-12.034 c 4.901,10.298 15.399,17.415 27.563,17.415 16.857,0 30.516,-13.662 30.516,-30.517 0,-16.855 -13.658,-30.517 -30.516,-30.517 -16.854,0 -30.518,13.662 -30.518,30.517 0,1.443 0.111,2.86 0.303,4.251 l -41.574,11.938 C 304.883,220.945 290,207.208 269,204.098 l 0,-100.953 c 16,-3.401 26.674,-16.949 26.674,-33.152 0,-18.77 -15.138,-33.984 -33.907,-33.984 -18.769,0 -33.669,15.215 -33.669,33.984 0,16.226 11.902,29.788 26.902,33.165 l 0,100.657 c -15,1.71 -27.457,9.161 -36.068,20.02 L 176.785,190.57 c 0.812,-1.891 1.192,-3.973 1.192,-6.159 0,-8.647 -7.044,-15.657 -15.692,-15.657 -8.646,0 -15.673,7.01 -15.673,15.657 0,8.647 7.001,15.656 15.649,15.656 3.094,0 5.968,-0.91 8.399,-2.46 l 42.871,33.95 c -4.146,7.628 -6.508,16.371 -6.508,25.665 0,4.772 0.628,9.397 1.795,13.803 L 99.943,314.091 c -4.106,-6.382 -11.266,-10.611 -19.42,-10.611 -12.751,0 -23.086,10.336 -23.086,23.087 0,12.751 10.335,23.086 23.086,23.086 12.047,0 21.932,-9.224 22.988,-20.993 l 111.074,-43.937 c 4.993,8.376 12.191,15.282 20.801,19.909 l -15.088,41.525 c -0.52,-0.053 -1.049,-0.08 -1.581,-0.08 -8.647,0 -15.658,7.011 -15.658,15.656 0,8.646 7.011,15.657 15.658,15.657 8.649,0 15.655,-7.011 15.655,-15.657 0,-4.797 -2.163,-9.086 -5.561,-11.958 l 15.076,-41.493 c 5.325,1.767 11.013,2.736 16.931,2.736 4.366,0 8.604,-0.533 12.669,-1.514 l 35.744,95.202 c -9.619,6.003 -16.024,16.675 -16.024,28.847 0,18.771 15.215,33.984 33.983,33.984 18.771,0 33.984,-15.214 33.984,-33.984 0,-18.768 -15.214,-33.982 -33.984,-33.982 -1.328,0 -2.639,0.084 -3.928,0.232 l -35.955,-95.766 c 7.887,-4.472 14.533,-10.872 19.293,-18.567 l 117.451,44.365 c 0.639,5.577 5.368,9.911 11.117,9.911 6.187,0 11.2,-5.016 11.2,-11.199 0.002,-6.185 -5.012,-11.197 -11.198,-11.197 z"
       id="path8"
       inkscape:connector-curvature="0"
       style="fill:#ffffff" /></g></svg>