<?xml version="1.0" encoding="UTF-8" standalone="no"?>
<!-- Generator: Adobe Illustrator 16.0.0, SVG Export Plug-In . SVG Version: 6.00 Build 0)  -->

<svg
   xmlns:ns="&amp;#38;ns_sfw;"
   xmlns:dc="http://purl.org/dc/elements/1.1/"
   xmlns:cc="http://creativecommons.org/ns#"
   xmlns:rdf="http://www.w3.org/1999/02/22-rdf-syntax-ns#"
   xmlns:svg="http://www.w3.org/2000/svg"
   xmlns="http://www.w3.org/2000/svg"
   xmlns:sodipodi="http://sodipodi.sourceforge.net/DTD/sodipodi-0.dtd"
   xmlns:inkscape="http://www.inkscape.org/namespaces/inkscape"
   version="1.1"
   id="Your_Icon"
   sodipodi:docname="pillar.svg"
   inkscape:version="0.91 r13725"
   x="0px"
   y="0px"
   width="100.066px"
   height="91.838px"
   viewBox="0 0 100.066 91.838"
   enable-background="new 0 0 100.066 91.838"
   xml:space="preserve"
   inkscape:export-filename="/home/thibault/Apps/ControverSciences/app/assets/images/pillar-yellow.png"
   inkscape:export-xdpi="432.72687"
   inkscape:export-ydpi="432.72687"><defs
     id="defs16" /><sodipodi:namedview
     pagecolor="#ffffff"
     bordercolor="#666666"
     borderopacity="1"
     objecttolerance="10"
     gridtolerance="10"
     guidetolerance="10"
     inkscape:pageopacity="0"
     inkscape:pageshadow="2"
     inkscape:window-width="1920"
     inkscape:window-height="1056"
     id="namedview14"
     showgrid="false"
     inkscape:zoom="7.2683292"
     inkscape:cx="19.029869"
     inkscape:cy="33.1605"
     inkscape:window-x="0"
     inkscape:window-y="24"
     inkscape:window-maximized="1"
     inkscape:current-layer="Your_Icon" /><metadata
     id="metadata19"><rdf:RDF><cc:Work
         rdf:about=""><dc:format>image/svg+xml</dc:format><dc:type
           rdf:resource="http://purl.org/dc/dcmitype/StillImage" /></cc:Work></rdf:RDF><ns:sfw><ns:slices /><ns:sliceSourceBounds
         width="97.163"
         height="89.227"
         x="462.923"
         y="468.021"
         bottomLeftOrigin="true" /><ns:optimizationSettings><ns:targetSettings
           fileFormat="PNG24Format"
           targetSettingsID="0"><ns:PNG24Format
             transparency="true"
             filtered="false"
             matteColor="#FFFFFF"
             noMatteColor="false"
             interlaced="false" /></ns:targetSettings></ns:optimizationSettings></ns:sfw></metadata><g
     id="g4"
     transform="matrix(1.0333921,0,0,1.0004244,-2.1945451,-0.45646029)"
     style="fill:#e6e6e6"><path
       id="path3"
       inkscape:connector-curvature="0"
       d="m 74.885,28.537 0,61.861 -2.064,0 0,-54.644 c 0,0 0,-4.124 -1.029,-4.124 -1.031,0 -1.031,4.124 -1.031,4.124 l 0,54.644 -2.063,0 0,-54.644 c 0,0 0,-4.124 -2.063,-4.124 -2.061,0 -2.061,4.124 -2.061,4.124 l 0,54.644 -2.063,0 0,-54.644 c 0,0 0,-4.124 -3.094,-4.124 -3.092,0 -3.092,4.124 -3.092,4.124 l 0,54.644 -2.063,0 0,-54.644 c 0,-2.279 -1.846,-4.124 -4.125,-4.124 -2.278,0 -4.124,2.062 -4.124,4.124 l 0,54.644 -2.062,0 0,-54.644 c 0,0 0,-4.124 -3.093,-4.124 -3.094,0 -3.094,4.124 -3.094,4.124 l 0,54.644 -2.062,0 0,-54.644 c 0,0 0,-4.124 -2.062,-4.124 -2.062,0 -2.062,4.124 -2.062,4.124 l 0,54.644 -2.062,0 0,-54.644 c 0,0 0,-4.124 -1.031,-4.124 -1.031,0 -1.031,4.124 -1.031,4.124 l 0,54.644 -2.062,0 0,-61.861 49.493,0 z"
       style="fill:#e6e6e6" /><polygon
       id="polygon5"
       points="24.365,25.444 75.917,25.444 74.885,27.506 25.396,27.506 "
       style="fill:#e6e6e6" /><path
       id="path7"
       inkscape:connector-curvature="0"
       d="m 77.688,23.351 -1.422,1.062 -51.901,0 -1.422,-1.062 c 0.938,-0.897 1.742,-1.928 2.381,-3.062 l 49.984,0 c 0.638,1.134 1.443,2.164 2.38,3.062 z"
       style="fill:#e6e6e6" /><path
       id="path9"
       inkscape:connector-curvature="0"
       d="M 96.093,21.247 C 93.195,24.98 88.267,26.691 83.681,25.526 79.132,24.371 75.111,20.309 75.009,15.474 74.885,9.659 80.153,4.463 86.03,5.019 c 5.742,0.537 10.063,6.629 7.826,12.177 -1.918,4.774 -8.137,6.938 -12.281,3.567 -3.732,-3.021 -3.701,-9.196 0.711,-11.568 2.424,-1.299 5.486,-1.042 7.424,1 1.896,1.989 2.258,5 0.66,7.268 -1.434,2.042 -4.434,2.877 -6.631,1.599 -0.988,-0.567 -1.844,-1.485 -2.205,-2.588 -0.082,-0.257 -0.051,-0.856 -0.393,-0.794 -0.279,0.042 -0.568,0.093 -0.846,0.145 0.846,3.444 4.031,5.722 7.609,4.66 3.877,-1.155 5.629,-5.578 3.949,-9.166 -1.754,-3.721 -6.176,-5.083 -9.826,-3.35 -3.176,1.515 -4.721,4.711 -4.402,8.114 0.484,5.072 5.639,8.454 10.506,7.464 5.906,-1.196 9.145,-7.599 7.041,-13.146 -2.186,-5.732 -8.629,-8.196 -14.248,-6.134 -2.711,1 -4.949,3.011 -6.332,5.536 -1.463,2.65 -1.68,5.486 -1.123,8.424 l -46.311,0 C 27.715,15.289 27.499,12.453 26.034,9.803 24.642,7.278 22.405,5.267 19.693,4.267 14.085,2.205 7.631,4.669 5.456,10.401 c -2.104,5.547 1.124,11.95 7.031,13.146 4.877,0.989 10.021,-2.392 10.506,-7.464 0.33,-3.403 -1.216,-6.599 -4.402,-8.114 -3.639,-1.733 -8.072,-0.372 -9.815,3.35 -1.691,3.588 0.072,8.011 3.949,9.166 3.578,1.062 6.763,-1.216 7.609,-4.66 -0.289,-0.052 -0.567,-0.103 -0.856,-0.145 -0.33,-0.062 -0.299,0.537 -0.381,0.794 -0.361,1.104 -1.227,2.021 -2.206,2.588 -2.196,1.278 -5.207,0.443 -6.63,-1.599 -1.598,-2.268 -1.237,-5.279 0.649,-7.268 1.949,-2.042 5.011,-2.3 7.435,-1 4.402,2.372 4.443,8.547 0.71,11.568 C 14.9,24.135 8.682,21.97 6.765,17.196 4.538,11.649 8.847,5.556 14.6,5.019 20.477,4.463 25.735,9.659 25.612,15.474 25.509,20.309 21.488,24.371 16.941,25.526 12.363,26.692 7.424,24.98 4.527,21.247 1.652,17.546 1.197,12.35 3.373,8.194 5.425,4.266 9.569,1.73 14.003,1.73 l 72.625,0 c 4.434,0 8.578,2.536 10.631,6.464 2.173,4.156 1.71,9.352 -1.166,13.053 z"
       style="fill:#e6e6e6" /></g><path
     id="path3_1_"
     inkscape:connector-curvature="0"
     d="M74.333,27.977v61.861h-2.063V35.195  c0,0,0-4.124-1.03-4.124c-1.031,0-1.031,4.124-1.031,4.124v54.644h-2.062V35.195c0,0,0-4.124-2.063-4.124  c-2.062,0-2.062,4.124-2.062,4.124v54.644H61.96V35.195c0,0,0-4.124-3.094-4.124c-3.092,0-3.092,4.124-3.092,4.124v54.644h-2.062  V35.195c0-2.279-1.847-4.124-4.125-4.124s-4.123,2.062-4.123,4.124v54.644h-2.063V35.195c0,0,0-4.124-3.093-4.124  c-3.094,0-3.094,4.124-3.094,4.124v54.644h-2.062V35.195c0,0,0-4.124-2.062-4.124s-2.062,4.124-2.062,4.124v54.644h-2.062V35.195  c0,0,0-4.124-1.031-4.124c-1.031,0-1.031,4.124-1.031,4.124v54.644h-2.062V27.977H74.333z"
     fill="#08253B" /><polygon
     id="polygon5_1_"
     points="23.812,24.885 75.364,24.885 74.333,26.947 24.844,26.947 "
     fill="#1C75BC"
     style="fill:#5c798e;fill-opacity:1;opacity:1" /><path
     id="path7_1_"
     inkscape:connector-curvature="0"
     d="M77.136,22.791l-1.423,1.062H23.812l-1.422-1.062  c0.938-0.897,1.742-1.928,2.381-3.062h49.983C75.393,20.864,76.198,21.894,77.136,22.791z"
     fill="#5896C6"
     style="fill:#cfd9e2;fill-opacity:1" /><path
     id="path9_1_"
     inkscape:connector-curvature="0"
     d="M95.54,20.688c-2.897,3.733-7.825,5.444-12.412,4.279  c-4.549-1.155-8.569-5.217-8.672-10.052C74.333,9.099,79.6,3.904,85.477,4.46c5.743,0.537,10.063,6.629,7.826,12.177  c-1.918,4.774-8.137,6.938-12.28,3.567c-3.732-3.021-3.701-9.196,0.71-11.568c2.425-1.299,5.486-1.042,7.424,1  c1.897,1.989,2.259,5,0.66,7.268c-1.433,2.042-4.433,2.877-6.63,1.599c-0.989-0.567-1.845-1.485-2.206-2.588  c-0.082-0.257-0.051-0.856-0.392-0.794c-0.28,0.042-0.569,0.093-0.846,0.145c0.846,3.444,4.031,5.722,7.608,4.66  c3.878-1.155,5.63-5.578,3.949-9.166c-1.753-3.721-6.176-5.083-9.825-3.35c-3.176,1.515-4.722,4.711-4.402,8.114  c0.484,5.072,5.639,8.454,10.505,7.464c5.907-1.196,9.145-7.599,7.041-13.146c-2.186-5.732-8.628-8.196-14.247-6.134  c-2.712,1-4.95,3.011-6.332,5.536c-1.463,2.65-1.681,5.486-1.123,8.424H26.606c0.557-2.938,0.341-5.774-1.124-8.424  c-1.392-2.525-3.629-4.536-6.341-5.536C13.532,1.645,7.079,4.109,4.904,9.842c-2.104,5.547,1.124,11.95,7.031,13.146  c4.877,0.989,10.021-2.392,10.506-7.464c0.33-3.403-1.216-6.599-4.402-8.114c-3.639-1.733-8.072-0.372-9.815,3.35  c-1.691,3.588,0.072,8.011,3.949,9.166c3.578,1.062,6.763-1.216,7.609-4.66c-0.289-0.052-0.567-0.103-0.856-0.145  c-0.33-0.062-0.299,0.537-0.381,0.794c-0.361,1.104-1.227,2.021-2.206,2.588c-2.196,1.278-5.207,0.443-6.63-1.599  c-1.598-2.268-1.237-5.279,0.649-7.268c1.949-2.042,5.011-2.3,7.435-1c4.402,2.372,4.443,8.547,0.71,11.568  c-4.155,3.372-10.372,1.207-12.29-3.567C3.986,11.089,8.295,4.996,14.048,4.46c5.877-0.556,11.135,4.64,11.012,10.455  c-0.103,4.835-4.124,8.897-8.671,10.052c-4.578,1.166-9.517-0.546-12.414-4.279c-2.875-3.701-3.33-8.897-1.154-13.053  c2.052-3.928,6.196-6.464,10.63-6.464h72.624c4.435,0,8.578,2.536,10.632,6.464C98.881,11.79,98.417,16.987,95.54,20.688z"
     fill="#F05A28"
     style="fill:#fdd334;fill-opacity:1" /></svg>