<?xml version="1.0" encoding="UTF-8" standalone="no"?>
<svg
   xmlns:dc="http://purl.org/dc/elements/1.1/"
   xmlns:cc="http://creativecommons.org/ns#"
   xmlns:rdf="http://www.w3.org/1999/02/22-rdf-syntax-ns#"
   xmlns:svg="http://www.w3.org/2000/svg"
   xmlns="http://www.w3.org/2000/svg"
   xmlns:sodipodi="http://sodipodi.sourceforge.net/DTD/sodipodi-0.dtd"
   xmlns:inkscape="http://www.inkscape.org/namespaces/inkscape"
   version="1.1"
   id="Your_Icon"
   x="0px"
   y="0px"
   width="100.06567"
   height="91.838341"
   viewBox="5 -10 100.06567 123.98176"
   enable-background="new 0 0 100 100"
   xml:space="preserve"
   inkscape:version="0.48.4 r9939"
   sodipodi:docname="noun_22408_cc.svg"><metadata
     id="metadata19"><rdf:RDF><cc:Work
         rdf:about=""><dc:format>image/svg+xml</dc:format><dc:type
           rdf:resource="http://purl.org/dc/dcmitype/StillImage" /></cc:Work></rdf:RDF></metadata><defs
     id="defs17" /><sodipodi:namedview
     pagecolor="#1E75BB"
     bordercolor="#666666"
     borderopacity="1"
     objecttolerance="10"
     gridtolerance="10"
     guidetolerance="10"
     inkscape:pageopacity="0"
     inkscape:pageshadow="2"
     inkscape:window-width="1920"
     inkscape:window-height="1056"
     id="namedview15"
     showgrid="false"
     fit-margin-top="0"
     fit-margin-left="0"
     fit-margin-right="0"
     fit-margin-bottom="0"
     inkscape:zoom="2.36"
     inkscape:cx="50.572551"
     inkscape:cy="109.45073"
     inkscape:window-x="0"
     inkscape:window-y="24"
     inkscape:window-maximized="1"
     inkscape:current-layer="Your_Icon" /><path
     d="M 89.401413,27.482856 V 113.98176 H 86.518111 V 37.574393 c 0,0 0,-5.766593 -1.44164,-5.766593 -1.441651,0 -1.441651,5.766593 -1.441651,5.766593 V 113.98176 H 80.751519 V 37.574393 c 0,0 0,-5.766593 -2.883292,-5.766593 -2.8833,0 -2.8833,5.766593 -2.8833,5.766593 V 113.98176 H 72.101631 V 37.574393 c 0,0 0,-5.766593 -4.324945,-5.766593 -4.324944,0 -4.324944,5.766593 -4.324944,5.766593 V 113.98176 H 60.568446 V 37.574393 c 0,-3.186043 -2.580552,-5.766593 -5.766594,-5.766593 -3.186042,0 -5.766594,2.883296 -5.766594,5.766593 V 113.98176 H 46.151962 V 37.574393 c 0,0 0,-5.766593 -4.324945,-5.766593 -4.324945,0 -4.324945,5.766593 -4.324945,5.766593 V 113.98176 H 34.618776 V 37.574393 c 0,0 0,-5.766593 -2.883297,-5.766593 -2.883296,0 -2.883296,5.766593 -2.883296,5.766593 V 113.98176 H 25.968887 V 37.574393 c 0,0 0,-5.766593 -1.441649,-5.766593 -1.441648,0 -1.441648,5.766593 -1.441648,5.766593 V 113.98176 H 20.202293 V 27.482856 h 69.19912 z"
     id="path3"
     inkscape:connector-curvature="0"
     style="fill:#1E75BB" /><polygon
     points="25,33 75,33 74,35 26,35 "
     id="polygon5"
     transform="matrix(1.4416483,0,0,1.4416483,-17.280561,-24.416482)"
     style="fill:#1E75BB" /><path
     d="m 93.322692,20.231365 -1.989474,1.484898 H 18.760645 L 16.77117,20.231365 c 1.3119,-1.254235 2.436386,-2.695883 3.330208,-4.281696 h 69.891105 c 0.893827,1.585813 2.018308,3.027461 3.330209,4.281696 z"
     id="path7"
     inkscape:connector-curvature="0"
     style="fill:#1E75BB" /><path
     d="m 119.05612,17.290402 c -4.05248,5.218767 -10.94211,7.611903 -17.35745,5.98284 C 95.341006,21.658597 89.717134,15.978503 89.574409,9.217172 89.401413,1.0862754 96.768234,-6.1796315 104.98562,-5.4011413 c 8.02999,0.7496567 14.0705,9.269798 10.94212,17.0258653 -2.68147,6.674832 -11.37605,9.702293 -17.170036,4.988103 -5.218758,-4.224029 -5.175512,-12.8595024 0.9933,-16.1752929 3.389306,-1.816477 7.669576,-1.4560648 10.379856,1.3983985 2.65264,2.782381 3.15722,6.9919954 0.92267,10.1636214 -2.00389,2.854463 -6.19909,4.022198 -9.2698,2.234554 -1.38398,-0.792906 -2.580546,-2.075974 -3.085126,-3.618538 -0.11533,-0.360412 -0.0721,-1.196567 -0.54783,-1.110069 -0.39068,0.05767 -0.794341,0.129748 -1.182146,0.201832 1.182146,4.815104 5.636842,8.001148 10.639352,6.51625 5.4206,-1.614646 7.8714,-7.799317 5.52151,-12.8162538 -2.45079,-5.20435 -8.63547,-7.1073262 -13.738896,-4.6853566 -4.440274,2.1192223 -6.60275,6.5883318 -6.155841,11.3457724 0.677574,7.092909 7.885807,11.821515 14.688947,10.437533 8.26065,-1.672312 12.78743,-10.624948 9.84646,-18.381016 -3.05629,-8.0155643 -12.0666,-11.4611036 -19.922127,-8.5778074 -3.791544,1.3983991 -6.921359,4.2096132 -8.853165,7.7416519 -2.047143,3.705036 -2.34989,7.6695695 -1.5714,11.7782665 H 22.667512 C 23.446002,8.957676 23.143255,4.9931425 21.096115,1.2881065 19.149891,-2.2439322 16.021513,-5.0551463 12.229979,-6.4535454 4.387411,-9.3368416 -4.6373071,-5.8913023 -7.6791845,2.124262 -10.620146,9.88033 -6.107788,18.832966 2.1528569,20.505278 8.9718527,21.88926 16.165678,17.160654 16.843252,10.067745 17.304579,5.3103044 15.142108,0.8411949 10.687415,-1.2780274 5.5983962,-3.699997 -0.60069142,-1.7970208 -3.0370772,3.4073292 -5.40138,8.424266 -2.9361617,14.608937 2.4844357,16.223583 7.4869552,17.708481 11.941648,14.522437 13.1238,9.707333 12.720139,9.635253 12.330894,9.563167 11.927232,9.505501 11.465904,9.419001 11.509153,10.255158 11.393822,10.61557 10.889244,12.158134 9.6782607,13.441202 8.3086947,14.234108 5.2379841,16.021752 1.0283709,14.854017 -0.96110352,11.999554 -3.1956584,8.827928 -2.6910813,4.6183136 -0.05286552,1.8359326 2.6718495,-1.0185307 6.9535456,-1.3789429 10.341419,0.4375341 16.497257,3.7533246 16.554924,12.388798 11.336156,16.612827 5.5263132,21.327017 -3.166826,18.299556 -5.8482913,11.624724 -8.9622517,3.8686567 -2.9361617,-4.6514846 5.1082353,-5.4011413 13.325631,-6.1796315 20.678037,1.0862754 20.50504,9.217172 20.360875,15.978503 14.738446,21.658597 8.3807767,23.273242 1.9798585,24.902305 -4.9256362,22.509169 -8.9766685,17.290402 -12.998867,12.114885 -13.633191,4.8489768 -10.591314,-0.9608648 -7.7224338,-6.4535454 -1.9270083,-10 4.2720793,-10 H 105.82179 c 6.20052,0 11.99451,3.5464546 14.86482,9.0391352 3.04045,5.8098416 2.3917,13.0757498 -1.63049,18.2512668 z"
     id="path9"
     inkscape:connector-curvature="0"
     style="fill:#1E75BB" /></svg>
