<?xml version="1.0" encoding="utf-8"?>
<!-- Generator: Adobe Illustrator 19.0.0, SVG Export Plug-In . SVG Version: 6.00 Build 0)  -->
<svg version="1.1" id="Layer_1" xmlns="http://www.w3.org/2000/svg" xmlns:xlink="http://www.w3.org/1999/xlink" x="0px" y="0px"
	 viewBox="-30 114.5 549.8 564.5" style="enable-background:new -30 114.5 549.8 564.5;" xml:space="preserve">
<style type="text/css">
	.st0{fill:#020F1F;}
	.st1{fill:#184064;}
	.st2{fill:#09467D;}
	.st3{fill:#FFFFFF;}
	.st4{fill:#4B7EA9;}
	.st5{fill:#FFD452;}
	.st6{clip-path:url(#SVGID_3_);fill:url(#SVGID_4_);}
	.st7{fill:none;stroke:#FFD452;stroke-width:0.216;stroke-miterlimit:22.9256;}
	.st8{clip-path:url(#SVGID_6_);fill:url(#SVGID_7_);}
	.st9{clip-path:url(#SVGID_9_);fill:url(#SVGID_10_);}
	.st10{clip-path:url(#SVGID_12_);fill:url(#SVGID_13_);}
	.st11{clip-path:url(#SVGID_15_);fill:url(#SVGID_16_);}
	.st12{clip-path:url(#SVGID_18_);fill:url(#SVGID_19_);}
	.st13{clip-path:url(#SVGID_21_);fill:url(#SVGID_22_);}
	.st14{clip-path:url(#SVGID_24_);fill:url(#SVGID_25_);}
	.st15{fill:#EA9520;}
	.st16{fill:#7688A1;}
	.st17{clip-path:url(#SVGID_27_);fill:url(#SVGID_28_);}
	.st18{clip-path:url(#SVGID_30_);fill:url(#SVGID_31_);}
	.st19{clip-path:url(#SVGID_33_);fill:url(#SVGID_34_);}
	.st20{clip-path:url(#SVGID_36_);fill:url(#SVGID_37_);}
</style>
<g>
	<path class="st0" d="M227.4,486.2c-18.8,22.1-36.9,22.3-54.2,0.9C190.5,477.5,208.6,477.1,227.4,486.2"/>
	<path class="st0" d="M189.8,523.8c-4.1-12.9-6.5-26.6-5.7-40v-0.2v-0.2c3.9-18.1,3.9-37.8,2.4-56.1l-0.2-3l3-0.4
		c23.1-3.1,43.7-0.4,50.2,25.6l0.4,1.3l-0.7,1.1c-5.2,7.9-10,16.8-14.2,25.3c-3.1,6.1-6.1,12.4-8.5,18.8
		c-0.4,13.6-0.7,27.5-1.1,41.1v0.2v0.2c-3.1,26.9-6.1,53.9-9.4,80.8c0.6,3.7,2.4,7.7,4.8,10.7c3.3,4.2,7.7,6.8,13.1,7.6
		c4.8,0.2,9.2,1.7,13.5,4.2l0.4,0.2l0.4,0.4c3.9,4.2,5.3,9.4,4.6,15.1v0.4v0.4c-2.8,9-10.7,10.7-19.2,8.9
		c-7.4-1.7-13.1-7.6-17.2-13.5c-3.1-4.4-7.7-9.2-13.5-10.1c-1.3,0.2-3.5,2.8-4.1,3.7c-3,4.1-5.5,9.2-7.6,13.8
		c-0.6,5.3-2,10.7-4.6,15.5l-0.2,0.4l-0.2,0.2c-5,5.9-11.4,8.5-19.2,6.8c-9-1.7-13.3-7.7-12.9-16.8V666v-0.2
		c1.1-8.7,7.6-14.6,14.8-18.6c3.3-1.8,6.8-4.2,8.7-7.7c-9.2-1.1-24.9,6.8-31.4,10.3c-6.1,3.5-12.7,4.1-19.6,2.2h-0.4l-0.2-0.2
		c-7-3.5-8.7-10.9-8.3-18.1v-0.2v-0.2c2-10.3,11.6-12.4,20.8-11.6c6.1,0.6,12.4,1.1,18.6,1.7c7.6-0.2,31.2-1.7,33.9-9.8
		c1.1-7.2,2-14.6,2.8-21.8c1.1-10.7,2.2-21.6,3.3-32.3C188.1,547.4,189.2,535.6,189.8,523.8"/>
	<path class="st1" d="M236.5,450c-6.1-24.3-25.5-26-46.7-23.2c1.8,22.1,0.9,41.3-2.4,57c-0.7,12.2,1.1,25.5,5.7,39.5
		c-1.7,29-6.5,76.2-8.9,90.6c-3,9.4-23.2,11.8-37.3,12.2c-12.5-1.1-18.6-1.7-18.6-1.7c-10.3-0.7-16,2.2-17.5,9
		c-0.6,7.6,1.7,12.5,6.5,15.1c6.3,1.8,12,1.1,17.2-1.8c17.9-9.6,30.2-12.7,37.1-9.6c-1.1,4.8-5,9-11.4,12.5
		c-7.9,4.4-12.4,9.8-13.1,16.2c-0.2,7.7,3.1,12.2,10.3,13.5c6.3,1.3,11.6-0.6,16-5.9c2.4-4.4,3.9-9.4,4.2-14.8
		c5.9-13.3,10.9-19.9,14.9-19.9c5.7,0.9,11.1,4.6,15.9,11.4c5,7,10.1,11.1,15.3,12.2c8.3,1.8,13.5-0.4,15.3-6.6
		c0.6-5-0.7-9.2-3.9-12.5c-3.7-2.2-7.7-3.5-12-3.7c-14.2-1.7-19.9-14.8-20.8-21.4c4.4-36.9,9.4-81.3,9.4-81.3
		c0.4-17,0.7-31,1.1-41.7C218.8,480.6,230.2,459.6,236.5,450"/>
	<path class="st0" d="M352.3,455.2c3.5,29.1-10.5,39.1-41.7,29.5C324.6,465.5,338.5,455.6,352.3,455.2"/>
	<path class="st0" d="M366.5,493.4c5.5,7.9,10.5,16.2,14.9,24.9l0.2,0.4v0.4c2.4,10,10,39.7,20.1,45.2c1.7,0.4,3.5,1.1,5.2,1.7
		c3.1,1.1,6.5,2.6,9.6,3.9c17,6.3,36.5,6.5,54.4,4.4c8.1-2.2,17.2-2.4,23.2,4.6l0,0l0,0c3.5,4.6,3.7,10.1,2.2,15.5v0.2v0.2
		c-3,6.8-8.9,8.5-15.3,8.1c7.2,1.8,13.8,5.3,17.3,12.4l0.2,0.4v0.6c1.1,6.8-0.6,13.1-5.5,18.1l-0.4,0.4l-0.4,0.2
		c-10,5.2-19.6,2.6-27.7-4.6l-0.2-0.2l-0.2-0.2c-4.8-5.5-10-10.7-15.5-15.5c-7.6-5.2-15.1-10.5-22.5-16c-4.1,2.8-4.4,13.5-4.6,17.2
		l0,0l0,0c-0.6,8.1-6.3,12-14,12.5h-0.2h-0.2c-6.6,0-12-2.6-14.6-8.9v-0.5v-0.2c-2.2-8.9,1.3-15.9,8.7-20.7c0.2-3.1-5.3-7.2-7.2-8.5
		h-0.2l0,0c-15.5-12.4-26.6-32.3-34.3-50l-0.2-0.4v-0.4c-2-9.8-5.9-18.8-11.4-27.1c-7-8.9-15.1-17.2-23.4-24.9
		c-27.1-11.4-55.1-24.3-80-40l-3-1.8l2.2-2.8c11.6-14.4,26.4-23.1,44.8-24.7h0.7l0.7,0.2c18.1,6.5,32.6,18.6,44.6,33.2
		c8.1,6.3,15.5,13.5,21.8,21.6l0.2,0.4l0.2,0.4C359.9,480.1,363,486.7,366.5,493.4"/>
	<path class="st1" d="M289,420.5c-17.2,1.7-31.4,9.4-42.8,23.6c20.3,12.7,47,26.2,80.2,40c10,9.4,18.1,17.9,24.2,25.8
		c5.9,8.9,10,18.3,12,28.2c10,22.7,21.2,38.9,33.4,48.9c7,5,9.8,9.2,8.1,13.1c-7.4,4.4-10.1,10.5-8.3,17.9c1.8,4.6,5.7,6.8,11.4,6.8
		c7-0.6,10.7-3.7,11.1-9.6c0.2-12.5,3-19.4,8.1-20.8c9.4,7,17.3,12.7,24.2,17.2c5.9,5.3,11.3,10.7,15.9,15.9c8.1,7,16,8.5,24.2,4.2
		c4.1-4.1,5.7-9.2,4.6-15.3c-3.1-6.3-9.4-10.1-19-11.4c-17.9-5.3-28.8-10.9-32.6-16.4c8.3,1.7,18.4,5,30.6,9.6
		c10.1,2.8,16.4,1.1,19-5c1.5-5.2,0.9-9.4-1.7-12.7c-4.2-5-11.1-6.1-20.3-3.5c-22.3,2.6-41.1,0.9-56.3-4.6
		c-7.7-3.3-12.7-5.2-14.6-5.3c-7.9-3.9-15.3-19.7-22.1-47.6c-4.8-9-9.6-17.3-14.8-24.5c-3.9-7-7-14-9.8-20.7
		c-5.7-7.6-12.9-14.6-21.6-21.2C319.6,437.3,305.1,426.4,289,420.5"/>
	<path class="st0" d="M314.8,484c15.9-3,27.9-11.1,35.6-25.5l1.8-3.3l2.4,3c10,12.2,26.9,34.3,24,51.3l0,0l0,0
		c-3.1,12.5-11.4,17.2-23.8,13.5h-0.2h-0.2c-16.2-7.9-29.9-20.7-41.1-34.7l-2.8-3.3L314.8,484z"/>
	<path class="st2" d="M315.4,486.5c17-3.1,29.5-12,37.4-26.7c17.5,21.2,25.5,37.6,23.4,49.2c-2.8,11.1-9.6,14.9-20.5,11.6
		C341.6,513.7,328.1,502.4,315.4,486.5"/>
	<path class="st3" d="M368.2,503.9c-1.8-5.9-0.9-9.4,2.8-10.5c3.3,5.5,4.2,10.5,2.8,14.9C371.8,508.9,370,507.4,368.2,503.9"/>
	<path class="st3" d="M369.1,491.9c-1.1,2.8-2.4,2.8-4.2-0.2C366.3,488.4,367.8,488.6,369.1,491.9"/>
	<path class="st3" d="M354.5,475.8c-4.2-5.2-4.4-7.7-0.4-7.9C358.6,473.4,358.7,476.2,354.5,475.8"/>
	<path class="st0" d="M364.7,508.1c1.8-1.3,3-0.7,3,1.3c-1.1,4.2-3.7,6.3-7.4,6.1c-0.7-1.1-0.6-2.4,0.7-3.7
		C362.6,510.3,363.9,509,364.7,508.1"/>
	<path class="st0" d="M358.9,502.6c1.5-0.9,2.2-0.6,2.2,0.9c-0.9,3.3-2.8,4.8-5.7,4.6c-0.6-0.9-0.4-1.8,0.6-3
		C357.5,504.4,358.4,503.5,358.9,502.6"/>
	<path class="st4" d="M354.5,475.8c4.4,5.7,7.9,11.1,10.5,15.9c0.9,1.8,1.8,3.7,2.6,5.3c0.4-1.8,1.7-3.1,3.5-3.7
		c3.3,5.5,4.2,10.5,2.8,14.9c-1.3,0.4-2.4,0-3.7-1.5c0.2,3.3-0.2,6.1-1.5,8.5c-3.1,5-10.3,5.2-21.6,0.4c3,1.8,5.9,3.5,8.9,5
		c11.1,3.3,17.9-0.4,20.5-11.6c1.8-11.4-5.9-27.9-23.4-49.2c-1.5,2.8-3.1,5.3-5,7.7c1.7,2,3.3,4.1,5,5.9c-2.6-3.7-2-5.5,1.5-5.5
		C358.6,473.4,358.7,476.2,354.5,475.8 M364.8,491.7c1.5-3.3,2.8-3.1,4.2,0.2C368,494.7,366.7,494.7,364.8,491.7z"/>
	<path class="st0" d="M360.8,469.9c0.7,1.1,1.1,1.7,1.1,1.7c-8.1,17.5-19.6,26.9-34.7,28.2c-0.9-0.9-1.3-1.3-1.3-1.3
		C342.3,497.2,354,487.7,360.8,469.9"/>
	<path class="st0" d="M186.3,293.6c0.2-14.2,51.6-15.1,60.3-15.1c8.9,0,60.3,0.9,60.3,14.9l5,142.8l0,0c0,7.4-15.7,10.1-21,11.1
		c-14.6,2.6-30.2,3.3-45,3.3c-14.8,0-30.4-0.7-45-3.3c-5.3-0.9-21-3.5-21-11.1l0,0L186.3,293.6z"/>
	<path class="st2" d="M189.6,293.6l-6.4,142.8c0,6.1,28.2,11.3,62.9,11.3s62.9-5,62.9-11.3l-5-142.8c0-6.6-25.6-12-57.2-12
		C215.1,281.8,189.6,287.2,189.6,293.6"/>
	<path class="st4" d="M297,436.9l-3.9-142.8c0-6.1-16.4-11.1-38-11.8c2.2-0.2,4.6-0.2,7-0.2c24.2,1.5,41.7,6.1,41.7,11.4l5.2,142.8
		c0,4.2-13.6,8.1-33.9,10C288.3,444.3,297,440.8,297,436.9"/>
	<path class="st4" d="M215.2,293.2l-0.2,7.2c4.1,0.4,8.3,0.7,12.7,1.1c-8.3,1.7-13.1,9-12.9,16l-2,128.2c-17.7-2-29.7-5.5-29.7-9.4
		l6.5-142.8c0-5.9,21-10.9,48.5-11.8C224.1,284.6,215.1,288.6,215.2,293.2"/>
	<path class="st3" d="M205.7,439.9c0.7-77.1,2.6-115.6,2.6-115.6c-1.3-3-7.4-3-8.5,0.9C196.5,399.7,195,437,195,437
		C195.7,440.4,201.8,442.1,205.7,439.9"/>
	<path class="st3" d="M213.4,303c1.8,0.4,3,1.1,3,1.8c-2.8,3.3-4.6,5.5-7.7,8.5c-3,1.3-6.1,0-7-1.3
		C200.1,309.3,208.2,303.8,213.4,303"/>
	<path class="st3" d="M306.7,432.5c0,2.4-1.3,3.5-3.7,3c0,0-0.4-13.8-1.1-41.3c1.3-2.2,2.2-2,3,0.2
		C306.2,419.8,306.7,432.5,306.7,432.5"/>
	<path class="st1" d="M227.8,301.5c22.9,1.3,50,0.2,65.5-3.5c5-1.1,8.7-2.6,10.7-4.2c0-5.5-17.7-10.1-41.7-11.4
		c-5-0.4-10.1-0.4-15.5-0.4c-3,0-5.9,0-8.7,0.2c-27.5,0.9-48.5,5.9-48.5,11.8c3.9,3.1,13.5,5.3,25.5,6.8
		C219.1,300.8,223.4,301.2,227.8,301.5"/>
	<path class="st0" d="M193.1,298.6c2.8,3.1,1.5,12.2,0.6,15.7c-0.7,3.3-2,7-3.7,10.1c-0.9,1.7-3,4.4-5.2,4.1h-0.2l-31.2-7
		c-1.1-0.2-1.8-1.3-1.5-2.4l6.1-26.9c0.2-1.1,1.3-1.8,2.4-1.5l31.2,7C192.4,297.5,192.7,298,193.1,298.6"/>
	<path class="st1" d="M152.9,319.1l6.1-26.9c0.2-0.6,0.7-0.9,1.3-0.7l31.2,7c0.4,0,0.7,0.4,0.7,0.7c1.8,1.8,2,7.9,0.6,14.9
		c-1.8,7.9-5.2,13.8-7.7,13.3l0,0l-31.2-7C153.1,320.2,152.7,319.6,152.9,319.1"/>
	<path class="st5" d="M187.4,312.8c-1.8,7.9-5.2,13.8-7.7,13.3l2,0.4l0,0c2.6,0.4,5.9-5.5,7.7-13.3c1.5-7,1.3-13.1-0.6-14.9
		c-0.2-0.4-0.4-0.6-0.7-0.7l0,0l-2-0.4c0.4,0,0.6,0.4,0.7,0.7C188.7,299.7,188.9,305.8,187.4,312.8"/>
	<path class="st5" d="M177.4,325.5c2.6,0.4,5.9-5.5,7.7-13.3c1.5-7,1.3-13.1-0.6-14.9c-0.2-0.4-0.4-0.6-0.7-0.7l0,0l-2.2-0.4
		c0.4,0,0.6,0.4,0.7,0.7c1.8,1.8,2,7.9,0.6,14.9c-1.8,7.9-5.2,13.8-7.7,13.3L177.4,325.5L177.4,325.5z"/>
	<g>
		<g>
			<g>
				<defs>
					<path id="SVGID_2_" d="M172.8,324.4c2.6,0.4,5.9-5.5,7.7-13.3c1.5-7,1.3-13.1-0.6-14.9c0-0.2-0.2-0.4-0.2-0.4l-2.2-0.6
						c0.2,0.2,0.2,0.4,0.2,0.4c1.8,1.8,2,7.9,0.6,14.9c-1.8,7.9-5.2,13.8-7.7,13.3L172.8,324.4L172.8,324.4z"/>
				</defs>
				<clipPath id="SVGID_3_">
					<use xlink:href="#SVGID_2_"  style="overflow:visible;"/>
				</clipPath>
				
					<linearGradient id="SVGID_4_" gradientUnits="userSpaceOnUse" x1="-81.2913" y1="843.8438" x2="-79.5205" y2="843.8438" gradientTransform="matrix(3.7271 -16.5294 9.8044 2.2107 -7797.2246 -2884.3904)">
					<stop  offset="0" style="stop-color:#EA9520"/>
					<stop  offset="0.34" style="stop-color:#EAB821"/>
					<stop  offset="1" style="stop-color:#EA9520"/>
				</linearGradient>
				<polygon class="st6" points="181.7,327.4 188.5,296.7 171.4,292.9 164.3,323.5 				"/>
			</g>
		</g>
		<g>
			<path id="SVGID_1_" class="st7" d="M172.8,324.4c2.6,0.4,5.9-5.5,7.7-13.3c1.5-7,1.3-13.1-0.6-14.9c0-0.2-0.2-0.4-0.2-0.4
				l-2.2-0.6c0.2,0.2,0.2,0.4,0.2,0.4c1.8,1.8,2,7.9,0.6,14.9c-1.8,7.9-5.2,13.8-7.7,13.3L172.8,324.4L172.8,324.4z"/>
		</g>
	</g>
	<g>
		<g>
			<g>
				<defs>
					<path id="SVGID_5_" d="M169.3,323.7c2.4-0.9,5.2-6.3,6.8-13.3c1.5-7,1.3-13.1-0.6-14.9c-0.2-0.4-0.4-0.6-0.7-0.7l-1.5-0.4
						l0.2,0.2c1.8,1.8,2,7.9,0.6,14.9c-1.8,7.9-5.2,13.8-7.7,13.3L169.3,323.7z"/>
				</defs>
				<clipPath id="SVGID_6_">
					<use xlink:href="#SVGID_5_"  style="overflow:visible;"/>
				</clipPath>
				
					<linearGradient id="SVGID_7_" gradientUnits="userSpaceOnUse" x1="-81.2001" y1="843.5648" x2="-79.4663" y2="843.5648" gradientTransform="matrix(3.738 -16.5769 9.7687 2.2028 -7768.3564 -2880.656)">
					<stop  offset="0" style="stop-color:#EA9520"/>
					<stop  offset="0.34" style="stop-color:#EAB821"/>
					<stop  offset="1" style="stop-color:#EA9520"/>
				</linearGradient>
				<polygon class="st8" points="177.1,326.1 183.9,295.8 166.7,292 159.9,322.2 				"/>
			</g>
		</g>
	</g>
	<g>
		<g>
			<g>
				<defs>
					<path id="SVGID_8_" d="M164.7,322.6c2.4-0.6,5.5-6.1,7-13.3c1.5-7,1.3-13.1-0.6-14.9c0-0.2-0.2-0.4-0.4-0.4
						c-2.8-0.6-3-0.6-3-0.6c3,0.6,2.8,10.3,1.3,16.4c-1.7,6.5-4.1,11.3-6.5,12.5L164.7,322.6z"/>
				</defs>
				<clipPath id="SVGID_9_">
					<use xlink:href="#SVGID_8_"  style="overflow:visible;"/>
				</clipPath>
				
					<linearGradient id="SVGID_10_" gradientUnits="userSpaceOnUse" x1="-81.2015" y1="843.3984" x2="-79.4673" y2="843.3984" gradientTransform="matrix(3.7485 -16.619 10.0097 2.2577 -7972.814 -2930.8281)">
					<stop  offset="0" style="stop-color:#EA9520"/>
					<stop  offset="0.34" style="stop-color:#EAB821"/>
					<stop  offset="1" style="stop-color:#EA9520"/>
				</linearGradient>
				<polygon class="st9" points="173,324.8 179.7,294.7 163.6,291 156.8,321.3 				"/>
			</g>
		</g>
	</g>
	<path class="st0" d="M21.4,219.8c7.2,4.8,16.4,9.4,25.3,9.2c5-1.5,12.9-15.7,15.3-19.9c1.8-5.3,5.2-15.1,9.2-19l0,0l0,0
		c6.8-5.9,13.8-5.2,19.7,1.7l0,0c4.4,5.5,3,12.5,0,18.3l-0.2,0.4l-0.4,0.4c-5.2,5.5-10.3,10.9-15.7,16.2c-5.7,6.1-10,13.5-10.3,21.8
		c15.1,10.7,30.2,21.6,45.4,32.3c14.6,4.1,29.5,7.7,44.5,11.3l1.1,0.2l0.7,0.7c1.8,2.2,1.8,7,1.5,9.6c-0.9,5.2-4.1,8.9-9,10.3
		l-0.9,0.2l-0.9-0.2c-6.8-1.8-13.6-3.5-20.5-5.3c-5.7-1.3-11.4-2.8-17.2-4.4c-3.7-1.1-7.7-2.6-11.1-4.4h-0.2h-0.2
		c-12.5-8.3-24.7-17-36.3-26.4c-2.6,5.3-6.3,9.6-11.8,12.2c-4.1,2.2-8.5,2.2-12.5,0l-0.6-0.4l-0.4-0.6c-5-6.1-9.8-12.5-13.8-19.2
		l-0.2-0.4l-0.2-0.4c-1.8-6.1,0.2-12,3.3-17.2c-4.1-3.3-12.4-4.8-16.8-5.5c-2.8-0.2-5.7-0.6-8.5-0.9h-0.4l-0.4-0.2
		c-6.8-2.6-13.1-7.2-14.2-14.8l0,0l0,0c-0.9-7.4,1.3-14,8.5-17.3h0.2h0.2c7.6-2.6,14.6,0.6,20.3,5.5C16.6,215.8,19,217.8,21.4,219.8
		"/>
	<path class="st1" d="M39.8,265.6c0.2,2.2,2,5.2,5.7,9c-9.6-10.1-13.8-17.5-12.9-22.1c2,4.2,3.1,6.3,3.1,6.3c5-0.6,9.2-2,12.5-4.8
		c5.9-1.5,10,1.5,12.4,8.5c-3-6.1-7-8.5-12-7.4C42.8,257.5,39.8,261,39.8,265.6 M147.7,310.4c8.9-2.6,7.2-13.5,6.1-14.9
		c-28-6.6-45-11.4-45-11.4c-31.5-22.3-47.2-33.6-47.2-33.6c-0.2-8.9,3.5-17.3,11.3-25.6c6.1-6.3,11.3-11.6,15.7-16.2
		c3.1-6.3,3.3-11.3,0.4-14.9c-4.6-5.5-9.8-5.9-15.1-1.3c-2.4,2.4-5.3,8.5-8.5,18.1c-7.4,13.6-13.3,20.8-17.7,21.8
		c-8.1,0.2-17.3-3.1-27.7-10c-2.8-2.4-5.3-4.4-7.4-6.3c-6.1-5.2-11.8-6.8-17.2-4.8c-5.2,2.4-7.4,7.2-6.6,14c0.9,5.3,5,9.6,12.2,12.4
		c3.9,0.6,6.6,0.7,8.5,0.7c10.9,1.5,17.7,4.2,20.5,8.3c-4.4,6.1-5.7,11.6-4.2,16.6c3.5,5.7,7.9,12,13.6,18.8c3.1,1.7,6.3,1.7,9.6,0
		c5.7-2.8,9.6-7.6,12-14.6c12.2,9.8,25.3,19.6,39.5,28.8c4.8,2.8,14,5.5,27.5,8.5C140.9,308.6,147.7,310.4,147.7,310.4z"/>
	<path class="st0" d="M140.4,301.2c5.2-17,20.7-24.2,37.1-26.9h0.2h0.2c3.7-0.2,11.3-0.4,12.7,4.1c0.6,1.5,0.2,3-0.6,4.2v0.2
		l-0.2,0.2c-12.5,17-19.6,36.2-19,57.2v0.4v0.4c-0.7,3.7-3.9,5-7.4,4.1c-5.3-1.3-11.8-5-16.6-7.6l-0.4-0.2l-0.4-0.4
		C136.9,326.1,135,314.1,140.4,301.2"/>
	<path class="st2" d="M164.2,342.1c2.4,0.6,3.9-0.2,4.2-2.2c-0.6-20.8,5.9-40.4,19.4-58.8c1.7-3.3-1.7-4.8-10-4.6
		c-19.4,3.3-31.2,11.6-35.2,25.3c-5,12.2-3.3,23.1,5.3,32.8C155.3,338.8,160.7,341.2,164.2,342.1"/>
	<path class="st4" d="M157.5,334.7c0.7,0.2,1.5,0.4,2,0.6c3,0.9,5.9,1.3,8.9,1.5c0,0.9,0,2,0,3.1c-3.1-0.4-6.3-1.1-9.2-2
		c-0.7-0.2-1.5-0.6-2-0.7c-5-2-9.6-5.2-13.8-9.2C148.3,331.1,152.9,333.3,157.5,334.7"/>
	<path class="st3" d="M164.2,282.9c8.1,0.2,12.2,0.4,12.2,0.4c1.8-0.4,3.5-0.4,5,0c1.7,0.9,1.1,2.8-1.5,5.5
		c-2.8-0.6-6.6-1.1-11.8-1.8c-4.2-0.6-7.9-0.6-11.3-0.4C157,284.8,159.5,283.7,164.2,282.9"/>
	<path class="st0" d="M180.6,276.6c-12.2,17.3-19.4,38.5-21.6,63.6c-0.7-0.4-1.5-0.6-2.2-0.9c2.2-22.9,9.2-43.9,20.8-62.7
		C178.9,276.6,179.8,276.6,180.6,276.6"/>
	<path class="st0" d="M163.6,284.9c-2.2,0-3.9,0.4-3.9,0.7c0,0.4,1.8,0.6,4.1,0.6c2.2,0,3.9-0.4,3.9-0.7
		C167.7,285.1,165.8,284.9,163.6,284.9"/>
	<path class="st0" d="M160.8,290.7c-2.2,0-3.9,0.4-3.9,0.7c0,0.4,1.8,0.6,4.1,0.6c2.2,0,3.9-0.4,3.9-0.7S163.1,290.7,160.8,290.7"/>
	<path class="st0" d="M158.8,296.2c-2.2,0-3.9,0.4-3.9,0.7c0,0.4,1.8,0.6,4.1,0.6c2.2,0,3.9-0.4,3.9-0.7
		C162.9,296.4,161,296,158.8,296.2"/>
	<path class="st3" d="M165.8,289.6c1.8,0,2.2-0.6,1.1-1.7c-6.8-0.7-11.4-0.7-13.6-0.2c-0.4,0.7,0.4,1.3,2,1.5
		C159.4,289.2,162.7,289.4,165.8,289.6"/>
	<path class="st4" d="M181.3,283.1c-1.5-0.4-3.1-0.4-5,0c1.3-2.2,2.8-4.4,4.2-6.6c6.3,0.2,8.9,1.7,7.2,4.6
		c-6.5,8.9-11.4,18.1-14.6,27.5c3.1-10.3,3-16.4-0.9-18.1c0.6-0.9,0.9-2,1.5-3c2.4,0.4,4.4,0.7,6.1,0.9
		C182.4,285.9,183,284,181.3,283.1"/>
	<path class="st4" d="M165.8,289.6c1.8,0,2.2-0.6,1.1-1.7c-6.8-0.7-11.4-0.7-13.6-0.2c-0.4,0.7,0.4,1.3,2,1.5
		C159.4,289.2,162.7,289.4,165.8,289.6 M177.8,276.6c-1.3,2.2-2.6,4.2-3.9,6.5l-10-0.2c-4.8,0.7-7.2,1.8-7.4,3.7
		c1.7-0.2,3.3-0.2,5-0.2c0.4,0,0.9,0,1.5,0c1.5,0,3.1,0.2,4.8,0.4c1.3,0.2,2.6,0.4,3.9,0.6c-0.6,1.1-1.1,2-1.5,3.1
		c-2.4,0-4.4,0-6.6,0.6c-0.7-0.2-1.8-0.2-3-0.2c-2.2,0-3.9,0.4-3.9,0.7c0,0.4,1.1,0.6,2.6,0.6c-9.4,3.7-15.7,13.1-19.2,28.4
		c-1.3-5.7-0.6-12,2.2-18.4C146.8,288.3,158.4,279.8,177.8,276.6z"/>
	<path class="st0" d="M275.7,287.9c-4.6,6.5-21.8,7.6-28.8,7.6c-6.5,0-13.8-0.7-20.1-2.6c-3.5-1.1-9.4-3.5-9.6-7.7
		c0-0.2,0-0.2,0-0.4v-60.5c0-2.2,1.7-3.9,3.9-3.9h52.2c2.2,0,3.9,1.7,3.9,3.9V285C277.2,286.1,276.7,287.2,275.7,287.9"/>
	<path class="st1" d="M221.2,222.2h52.2c1.1,0,2,0.9,2,2v60.7c0,0.7-0.4,1.3-0.9,1.7c-2.6,4.1-13.8,7-27.3,7
		c-15.3,0-27.7-3.9-27.9-8.7v-0.1v-60.5C219.3,223.2,220,222.2,221.2,222.2"/>
	<path class="st5" d="M247.2,283.3c-15.1,0-27.7-3.9-27.9-8.7v3.7v0.2c0.2,4.8,12.5,8.7,27.9,8.7c13.5,0,24.7-3,27.3-7
		c0.6-0.4,0.9-0.9,0.9-1.7l0,0v-3.9c0,0.7-0.4,1.3-0.9,1.7C271.9,280.1,260.6,283.3,247.2,283.3"/>
	<path class="st5" d="M219.3,270.2c0.2,4.8,12.5,8.7,27.9,8.7c13.5,0,24.7-3,27.3-7c0.6-0.4,0.9-0.9,0.9-1.7l0,0V266
		c0,0.7-0.4,1.3-0.9,1.7c-2.6,4.1-13.8,7-27.3,7c-15.1,0-27.7-3.9-27.9-8.7V270.2L219.3,270.2z"/>
	<g>
		<g>
			<g>
				<defs>
					<path id="SVGID_11_" d="M219.5,261.3c0.2,4.8,12.5,8.7,27.9,8.7c13.5,0,24.7-3,27.3-7c0.4-0.2,0.6-0.4,0.7-0.7v-4.2
						c-0.2,0.4-0.4,0.6-0.7,0.7c-2.6,4.1-13.8,7-27.3,7c-15.1,0-27.7-3.9-27.9-8.7L219.5,261.3L219.5,261.3z"/>
				</defs>
				<clipPath id="SVGID_12_">
					<use xlink:href="#SVGID_11_"  style="overflow:visible;"/>
				</clipPath>
				
					<linearGradient id="SVGID_13_" gradientUnits="userSpaceOnUse" x1="-71.8366" y1="853.8751" x2="-69.9918" y2="853.8751" gradientTransform="matrix(30.3114 4.080000e-002 -1.470000e-002 10.961 2409.5354 -9092.7695)">
					<stop  offset="0" style="stop-color:#EA9520"/>
					<stop  offset="0.34" style="stop-color:#EAB821"/>
					<stop  offset="1" style="stop-color:#EA9520"/>
				</linearGradient>
				<polygon class="st10" points="219.5,270 275.4,270.2 275.4,257.3 219.5,257.1 				"/>
			</g>
		</g>
	</g>
	<g>
		<g>
			<g>
				<defs>
					<path id="SVGID_14_" d="M219.5,254.3c2.6,4.1,13.8,7,27.3,7s24.7-3,27.3-7c0.6-0.4,0.9-0.9,0.9-1.7v-2.8
						c-0.2,0.2-0.2,0.2-0.4,0.4c-2.6,4.1-13.8,7-27.3,7c-15.1,0-27.7-3.9-27.9-8.7L219.5,254.3z"/>
				</defs>
				<clipPath id="SVGID_15_">
					<use xlink:href="#SVGID_14_"  style="overflow:visible;"/>
				</clipPath>
				
					<linearGradient id="SVGID_16_" gradientUnits="userSpaceOnUse" x1="-71.8227" y1="853.5026" x2="-69.9785" y2="853.5026" gradientTransform="matrix(30.1583 4.080000e-002 -1.480000e-002 10.961 2398.198 -9097.4873)">
					<stop  offset="0" style="stop-color:#EA9520"/>
					<stop  offset="0.34" style="stop-color:#EAB821"/>
					<stop  offset="1" style="stop-color:#EA9520"/>
				</linearGradient>
				<polygon class="st11" points="219.5,261.3 275,261.3 275.2,248.4 219.5,248.4 				"/>
			</g>
		</g>
	</g>
	<g>
		<g>
			<g>
				<defs>
					<path id="SVGID_17_" d="M219.5,245.7c1.8,4.2,13.5,7.6,27.5,7.6c13.5,0,24.7-3,27.3-7c0.4-0.2,0.6-0.4,0.7-0.7
						c0-5.3,0-5.5,0-5.5c0.2,5.7-18.1,9.4-29.7,9.2c-12.7-0.4-22.5-3-26-6.6v3.1h0.2V245.7z"/>
				</defs>
				<clipPath id="SVGID_18_">
					<use xlink:href="#SVGID_17_"  style="overflow:visible;"/>
				</clipPath>
				
					<linearGradient id="SVGID_19_" gradientUnits="userSpaceOnUse" x1="-71.8523" y1="852.7417" x2="-70.0071" y2="852.7417" gradientTransform="matrix(30.1595 4.250000e-002 -1.600000e-002 11.3933 2400.1079 -9466.0156)">
					<stop  offset="0" style="stop-color:#EA9520"/>
					<stop  offset="0.34" style="stop-color:#EAB821"/>
					<stop  offset="1" style="stop-color:#EA9520"/>
				</linearGradient>
				<polygon class="st12" points="219.5,253.2 275.2,253.2 275.4,239.8 219.5,239.8 				"/>
			</g>
		</g>
	</g>
	<path class="st0" d="M332,232.7c1.1,6.5-0.9,12.2-5.3,17.2v0.2l0,0c-20.8,19.9-63.6,23.8-90.9,22.5c-9.8-0.6-19.6-1.7-29.3-3.5
		c-15.5-3-32.3-8.7-44.1-19.6c-13.6-12.9-1.3-43.2,4.8-57l0,0l0,0c12.7-24.9,35.6-38.2,62.3-44.3h0.2h0.2c31-5.2,57.4,5.9,79.5,27.7
		l0,0C323.9,191.2,330,212.3,332,232.7"/>
	<path class="st2" d="M170.1,193.8c-12.2,27.7-14.2,45.4-5.5,53.3c9.2,8.9,23.4,15.1,42.4,18.8c43.2,8.1,95.9,2.6,117.5-18.3
		c3.9-4.4,5.5-9.2,4.6-14.6c-2.6-24.2-9.8-42.4-21.9-55.1c-22.9-22.5-48.5-31.5-76.7-26.9C201.2,157.9,181.3,172.1,170.1,193.8"/>
	<path class="st0" d="M207.3,244.2c-23.4,3.7-36.9-1.3-40.4-14.9c5.7,10.1,16.6,14.6,32.6,13.3c5.5-0.7,10.9-2.2,16-4.1
		c20.1-7.6,42.8-7.7,67.9-0.7c16.6,5,29.9,1.3,39.5-10.7c-7.9,14.2-22.7,18.6-44.5,13.3C252.1,236.6,228.5,237.9,207.3,244.2"/>
	<path class="st1" d="M278.5,240.3c-26.4-3.7-50.2-2.4-71.2,3.9c-23.4,3.7-36.9-1.3-40.4-14.9c-1.3-2-3.5-5-6.3-8.9
		c-3,12.9-1.7,21.8,3.7,26.7c9.2,8.9,23.4,15.1,42.4,18.8c43.2,8.1,95.9,2.6,117.5-18.3c3.9-4.4,5.5-9.2,4.6-14.6
		c-0.6-4.6-1.1-9-2-13.1l-4.1,6.8C315,241.2,300.3,245.7,278.5,240.3"/>
	<path class="st0" d="M306.9,133.7c22.9,0,41.3,18.4,41.3,41.3s-18.4,41.3-41.3,41.3s-41.3-18.4-41.3-41.3
		C265.4,152.3,284,133.7,306.9,133.7"/>
	<path class="st0" d="M177.8,133.7c22.9,0,41.3,18.4,41.3,41.3s-18.4,41.3-41.3,41.3s-41.3-18.4-41.3-41.3
		C136.3,152.3,154.9,133.7,177.8,133.7"/>
	<path class="st3" d="M222.3,228.1c16.2-5.3,32.5-5.3,48.9,0c-0.9-0.9-1.8-1.7-3-2.4c-7.7-4.8-16.6-6.6-26.2-5.7
		C232.8,221.3,226.1,223.9,222.3,228.1"/>
	<path class="st4" d="M215.6,238.5c20.1-7.6,42.8-7.7,67.9-0.7c16.6,5,29.9,1.3,39.5-10.7c-14,14-25.8,11.6-51.8,4.1
		c-16.4-5.3-32.8-5.3-48.9,0c-27.9,9.6-38.4,15.3-55.1-1.8c5.7,10.1,16.6,14.6,32.6,13.3C205.1,241.8,210.5,240.5,215.6,238.5"/>
	<path class="st4" d="M207.3,244.2c-23.4,3.7-36.9-1.3-40.4-14.9c3.1,14.6,17.3,21.6,41.9,17.7c23.6-5.7,46.5-7.6,71-3
		c23.1,4.4,36.9-2.4,43-17c-7.9,14.2-22.7,18.6-44.5,13.3C252.1,236.6,228.5,237.9,207.3,244.2"/>
	<path class="st4" d="M219.1,175.2c0,20.1-14.2,36.9-33.2,40.6c7.7-0.9,15.5-3.7,23.1-8.1c25.1-11.6,47.8-11.6,68.4,0
		c8.5,5.2,16.8,8.1,25.1,8.7c-20.8-2.2-37.1-19.7-37.1-41.1c0-7.6,2-14.6,5.5-20.5c-12.9-4.6-26.4-5.7-40.6-3.3
		c-5.5,1.3-10.9,2.8-15.9,4.6C217.5,161.7,219.1,168.2,219.1,175.2"/>
	<path class="st3" d="M264.3,166.7c0.2-4.1,1.5-7.7,3.5-10.9c-15.3-4.8-33.6-4.2-50.4,1.1c2.2,3.9,3,7.6,3.1,10.3
		C233,172.6,255.3,172.2,264.3,166.7"/>
	<path class="st3" d="M261.2,194.2c-3-5-18.3,1.7-3,4.2C259.7,198.6,262.3,195.9,261.2,194.2"/>
	<path class="st3" d="M271.3,204.9c-3.1-0.7-2.6-1.5-6.5-2c-0.9-0.2-0.4-4.4,3.3-3C270.8,201,271.1,204.9,271.3,204.9"/>
	<path class="st0" d="M305.6,299c-3.7,1.8-5.5,10.9-6.1,14.4s-0.7,7.2-0.2,10.7c0.4,1.8,1.1,5.2,3.3,5.7h0.2l31.7,4.6
		c1.1,0.2,2.2-0.6,2.4-1.7l3.9-27.3c0.2-1.1-0.6-2.2-1.7-2.4l-31.7-4.6C306.7,298.4,306.2,298.6,305.6,299"/>
	<path class="st1" d="M335.9,332.5l3.9-27.3c0-0.6-0.4-1.1-0.9-1.1l-31.7-4.6c-0.4,0-0.7,0.2-0.9,0.4c-2.2,0.9-4.8,6.6-5.7,13.8
		c-1.1,7.9,0,14.8,2.4,15.1l0,0l31.7,4.6C335.3,333.5,335.7,333.1,335.9,332.5"/>
	<path class="st5" d="M306,314.5c-1.1,7.9,0,14.8,2.4,15.1l-2-0.4l0,0c-2.4-0.6-3.5-7.2-2.4-15.1c1.1-7,3.5-12.7,5.7-13.8
		c0.2-0.4,0.6-0.4,0.9-0.4l0,0l2,0.4c-0.4,0-0.7,0.2-0.9,0.4C309.3,301.7,306.9,307.3,306,314.5"/>
	<path class="st5" d="M310.8,329.9c-2.4-0.6-3.5-7.2-2.4-15.1c1.1-7,3.5-12.7,5.7-13.8c0.2-0.4,0.6-0.4,0.9-0.4l0,0l2.2,0.4
		c-0.4,0-0.7,0.2-0.9,0.4c-2.2,0.9-4.8,6.6-5.7,13.8c-1.1,7.9,0,14.8,2.4,15.1L310.8,329.9L310.8,329.9z"/>
	<path class="st5" d="M315.2,330.5c-2.4-0.6-3.5-7.2-2.4-15.1c1.1-7,3.5-12.7,5.7-13.8c0.2-0.2,0.2-0.2,0.4-0.4l2.2,0.4
		c-0.2,0-0.4,0.2-0.4,0.4c-2.2,0.9-4.8,6.6-5.7,13.8c-1.1,7.9,0,14.8,2.4,15.1L315.2,330.5L315.2,330.5z"/>
	<g>
		<g>
			<g>
				<defs>
					<path id="SVGID_20_" d="M318.9,331.1c-1.8-1.7-2.6-7.7-1.7-14.8s3.5-12.7,5.7-13.8c0.2-0.4,0.6-0.4,0.9-0.4l1.5,0.2l-0.2,0.2
						c-2.2,0.9-4.8,6.6-5.7,13.8c-1.1,7.9,0,14.8,2.4,15.1L318.9,331.1z"/>
				</defs>
				<clipPath id="SVGID_21_">
					<use xlink:href="#SVGID_20_"  style="overflow:visible;"/>
				</clipPath>
				
					<linearGradient id="SVGID_22_" gradientUnits="userSpaceOnUse" x1="-81.0363" y1="850.3642" x2="-79.2656" y2="850.3642" gradientTransform="matrix(2.3514 -16.5322 8.3474 1.1873 -6588.8472 -2018.2317)">
					<stop  offset="0" style="stop-color:#EA9520"/>
					<stop  offset="0.34" style="stop-color:#EAB821"/>
					<stop  offset="1" style="stop-color:#EA9520"/>
				</linearGradient>
				<polygon class="st13" points="325.4,332.7 329.6,302.7 316.5,300.8 312.3,330.9 				"/>
			</g>
		</g>
	</g>
	<g>
		<g>
			<g>
				<defs>
					<path id="SVGID_23_" d="M323.5,331.6c-2-1.3-3-7.6-1.8-14.9c1.1-7,3.5-12.7,5.7-13.8c0.2-0.2,0.2-0.2,0.4-0.4
						c2.8,0.4,3,0.4,3,0.4c-3-0.6-6.3,8.7-7,14.8c-0.7,6.6-0.2,12,1.5,14h-1.8V331.6z"/>
				</defs>
				<clipPath id="SVGID_24_">
					<use xlink:href="#SVGID_23_"  style="overflow:visible;"/>
				</clipPath>
				
					<linearGradient id="SVGID_25_" gradientUnits="userSpaceOnUse" x1="-81.0878" y1="850.5146" x2="-79.3169" y2="850.5146" gradientTransform="matrix(2.354 -16.5585 8.5453 1.2148 -6753.4302 -2044.0961)">
					<stop  offset="0" style="stop-color:#EA9520"/>
					<stop  offset="0.34" style="stop-color:#EAB821"/>
					<stop  offset="1" style="stop-color:#EA9520"/>
				</linearGradient>
				<polygon class="st14" points="330.5,333.3 334.8,303 320.8,301.2 316.5,331.2 				"/>
			</g>
		</g>
	</g>
	<path class="st0" d="M476.1,324c7.2-2.6,14.8-2.6,21.4,1.3c5.5,3,8.1,7.9,7.7,14v0.2v0.2c-1.7,7.7-8.1,12-15.1,14h-0.2
		c-6.1,1.7-11.6-0.4-16-4.8c-3.3-1.5-7.2-3-11.1-2.8c-0.6,5.7-2.4,11.3-6.5,15.7l-0.6,0.6l-0.7,0.2c-8.3,3-19.4,6.3-28,5.7h-1.5
		l-0.9-1.1c-5-6.5-6.6-13.6-5-21.2c-13.5,1.5-30.1,2.2-42.4-1.1l0,0l0,0c-7-2.2-14-5.2-20.8-8.1c-9.2-4.1-18.4-8.7-27.5-13.3
		l-0.6-0.4l-0.4-0.6c-6.6-8.5,1.7-15.9,8.9-20.1l1.8-1.1l1.7,1.1c5.7,4.1,12.5,7.4,18.8,10.5c9.6,4.6,19.4,8.7,29.1,12.5
		c15.1-0.4,30.2-0.7,45.4-1.3c3.7-11.4,1.7-28.8-0.2-40c-2.2-6.8-2.8-14.2,1.3-20.5l0.2-0.2l0.2-0.2c5.5-5.7,12.2-7.2,19.2-3.3l0,0
		l0,0c4.8,3,5.9,8.5,5.9,13.8v0.4l-0.2,0.4c-3.7,12.2-8.5,32.5-2.4,44.8C462,323.1,470.5,323.9,476.1,324"/>
	<path class="st1" d="M441,353.7c-5.2,2-9,2.6-11.6,1.7c11.1-0.7,15.7-4.4,13.8-11.1c-2.8-7.2-7.2-9.8-13.5-7.9
		c8.1-2.6,13.3,0.6,15.5,9c1.1,3.5,2.6,5.5,4.4,5.7C446.5,351.2,443.6,352.1,441,353.7 M338.1,305.6c-9,5.3-11.8,10.5-7.9,15.5
		c20.5,10.5,36.5,17.5,47.8,21.2c10.1,2.8,25.5,3,45.9,0.4c-3.3,8.3-2.2,16,3.1,22.9c6.3,0.4,15.3-1.5,26.7-5.5
		c3.7-4.1,5.5-9.6,5.7-16.4c4.4-0.9,9.8,0.2,15.9,3c4.1,4.2,8.7,5.5,13.5,4.2c7.6-2.2,11.8-6.3,12.9-11.6c0.4-5-1.7-8.7-6.1-11.1
		c-5.7-3.3-12.2-3.7-19.4-0.9c-10.3-0.2-17.7-1.8-21.8-5c-5.3-10-4.6-26,1.8-48c0.2-5.3-1.3-9-4.4-11.1c-5.5-3.1-10.7-2.2-15.3,2.6
		c-3,4.6-3.3,10.7-0.9,18.1c3.1,20.1,3,34.7-0.7,43.9c-18.6,0.7-34.7,1.3-48.1,1.5C363.9,320,347.5,312.1,338.1,305.6z"/>
	<path class="st0" d="M351.9,312.6c2.2,13.8-2.4,25.1-13.8,33l-0.4,0.2l-0.4,0.2c-5.3,1.5-12.4,3.5-17.9,3.7c-3.7,0-6.5-1.8-6.3-5.7
		v-0.4v-0.4c5.3-20.5,2.8-40.6-5.5-59.9v-0.2v-0.2c-0.4-1.5-0.4-3,0.6-4.2c2.4-3.9,9.8-2,13.5-1.1h0.2h0.2
		C337.2,284.2,350.8,294.7,351.9,312.6"/>
	<path class="st2" d="M319.5,347.1c-2.6,0-3.7-0.9-3.7-3c5.2-20.1,3.3-40.8-5.7-61.6c-0.9-3.7,2.6-4.2,10.7-2.2
		c18.1,7.6,27.7,18.4,28.6,32.6c2.2,12.9-2,23.2-12.7,30.8C328.9,345.8,323,347.1,319.5,347.1"/>
	<path class="st4" d="M327.6,341.4c-0.7,0-1.5,0.2-2.2,0.2c-3.1,0.2-6.1,0-9-0.6c-0.2,0.9-0.4,2-0.7,3c3.1,0.4,6.3,0.4,9.4,0.2
		c0.7,0,1.5-0.2,2.2-0.4c5.3-0.9,10.5-2.8,15.5-5.7C337.5,339.9,332.4,341,327.6,341.4"/>
	<path class="st3" d="M332.7,289.4c-7.9-1.7-12-2.4-12-2.4c-1.8-0.7-3.3-1.1-4.8-1.1c-1.8,0.6-1.7,2.4,0.2,5.7
		c2.8,0.2,6.6,0.4,11.8,0.9c4.2,0.4,7.9,1.1,11.1,2.2C339.4,292.9,337.2,291,332.7,289.4"/>
	<path class="st0" d="M318.2,279.6c8.1,19.6,10.1,41.9,6.6,67c0.7-0.2,1.5-0.4,2.2-0.4c3-22.9,0.9-44.8-6.3-65.8
		C319.8,280,319.1,279.8,318.2,279.6"/>
	<path class="st0" d="M332.7,291.6c2,0.6,3.7,1.3,3.5,1.7c-0.2,0.4-2,0.2-4.1-0.4s-3.7-1.3-3.5-1.7
		C328.9,290.8,330.7,291,332.7,291.6"/>
	<path class="st0" d="M334.2,297.9c2,0.6,3.7,1.3,3.5,1.7c-0.2,0.4-2,0.2-4.1-0.4s-3.7-1.3-3.5-1.7S332.2,297.3,334.2,297.9"/>
	<path class="st0" d="M335.1,303.6c2,0.6,3.7,1.3,3.5,1.7c-0.2,0.4-2,0.2-4.1-0.4c-2-0.6-3.7-1.3-3.5-1.7
		C331.1,302.8,332.9,303,335.1,303.6"/>
	<path class="st3" d="M329.8,295.5c-1.7-0.4-2-1.1-0.7-1.8c6.8,0.7,11.3,1.8,13.5,3c0.2,0.9-0.6,1.1-2.4,0.9
		C336.2,296.6,332.7,296,329.8,295.5"/>
	<path class="st4" d="M316,285.7c1.5,0,3.1,0.4,4.8,1.1c-0.7-2.6-1.7-5-2.8-7.4c-6.3-1.3-8.9-0.4-8.1,2.8c4.4,10.1,7,20.1,8.1,30.1
		c-0.7-10.9,0.9-16.6,5-17.5c-0.2-1.1-0.6-2.2-0.7-3.1c-2.4-0.2-4.4-0.4-6.1-0.4C314.3,288.3,314.3,286.2,316,285.7"/>
	<path class="st4" d="M329.8,295.5c-1.7-0.4-2-1.1-0.7-1.8c6.8,0.7,11.3,1.8,13.5,3c0.2,0.9-0.6,1.1-2.4,0.9
		C336.2,296.6,332.7,296,329.8,295.5 M320.9,280.1c0.7,2.4,1.5,4.8,2.2,7.2l9.8,2c4.4,1.8,6.5,3.5,6.3,5.2c-1.5-0.6-3.1-0.9-4.8-1.3
		c-0.4,0-0.9-0.2-1.5-0.4c-1.5-0.2-3.1-0.6-4.6-0.7c-1.3-0.2-2.6-0.2-3.9-0.4c0.2,1.1,0.6,2.2,0.7,3.3c2.2,0.4,4.4,1.1,6.3,2
		c0.7,0,1.8,0.2,3,0.6c2,0.6,3.7,1.3,3.5,1.7c-0.2,0.2-1.3,0.2-2.8,0c8.3,5.7,12.4,16.2,12.4,31.9c2.6-5.3,3.1-11.6,2-18.4
		C348.6,298.6,339,287.7,320.9,280.1z"/>
	<path class="st15" d="M32.5,252.5l3.1,6.3c5-0.6,9.2-2,12.5-4.8c5.9-1.5,10,1.5,12.4,8.5c-3-6.1-7-8.5-11.8-7.4
		c-5.7,2.4-8.7,5.7-8.7,10.5c0.2,2.2,2,5.2,5.7,9C36,264.5,31.7,257.1,32.5,252.5 M62.9,269.8c5.9-1.8,8.3-6.3,7.4-12.9l-8.9-6.3
		c-0.2-8.9,3.5-17.3,11.3-25.6c6.1-6.3,11.3-11.6,15.7-16.2c3.1-6.3,3.3-11.3,0.4-14.9c-4.6-5.5-9.8-5.9-15.1-1.3
		c-2.4,2.4-5.3,8.5-8.5,18.1c-7.4,13.6-13.3,20.8-17.7,21.8c-8.1,0.2-17.3-3.1-27.7-10l-7.4-6.3c-6.1-5.2-11.8-6.8-17.2-4.8
		c-5.2,2.4-7.4,7.2-6.6,14c0.9,5.3,5,9.6,12.2,12.4c3.9,0.6,6.6,0.7,8.5,0.7c10.9,1.5,17.7,4.2,20.5,8.3c-4.4,6.1-5.7,11.6-4.2,16.6
		c3.5,5.7,7.9,12,13.6,18.8c3.1,1.7,6.3,1.7,9.6,0c5.7-2.8,9.6-7.6,12-14.6C61.2,268.3,62,269.1,62.9,269.8z"/>
	<path class="st15" d="M445.4,345.4c1.1,3.5,2.6,5.5,4.4,5.7c-3.3,0-6.3,0.9-8.9,2.6c-5.2,2-9,2.6-11.6,1.7
		c11.1-0.7,15.7-4.4,13.8-11.1c-2.8-7.2-7.2-9.8-13.5-7.9C438.1,333.8,443.2,336.8,445.4,345.4 M424.8,328.3
		c-4.2,6.1-4.4,10.9-0.7,14.6c-3.3,8.3-2.2,16,3.1,22.9c6.3,0.4,15.3-1.5,26.7-5.5c3.7-4.1,5.5-9.6,5.7-16.4c4.4-0.9,9.8,0.2,15.9,3
		c4.1,4.2,8.7,5.5,13.5,4.2c7.6-2.2,11.8-6.3,12.9-11.6c0.4-5-1.7-8.7-6.1-11.1c-5.7-3.3-12.2-3.7-19.4-0.9
		c-10.3-0.2-17.7-1.8-21.8-5c-5.3-10-4.6-26,1.8-48c0.2-5.3-1.3-9-4.4-11.1c-5.5-3.1-10.7-2.2-15.3,2.6c-3,4.6-3.3,10.7-0.9,18.1
		c3.1,20.1,3,34.7-0.7,43.9C431.8,327.9,428.3,328.1,424.8,328.3z"/>
	<path class="st0" d="M227.2,490.6c-0.9,19.2-4.4,38.7-13.5,55.7l-0.2,0.2l-0.2,0.2c-8.1,11.1-18.3,12.4-28.8,3.5l0,0l0,0
		c-13.1-12.7-12.7-42.4-11.6-59l0.2-3.9l3.5,1.7c15.7,7.4,31.2,6.8,46.7-0.6l4.1-2L227.2,490.6z"/>
	<path class="st2" d="M224.5,490.6c-16.6,8.1-32.8,8.3-48.9,0.6c-1.7,29.3,2,48.3,10.9,57c9.2,7.7,17.5,6.8,24.9-3
		C219.1,530.3,223.5,512.2,224.5,490.6"/>
	<path class="st3" d="M190.2,538.7c-2-6.3-5.2-8.7-9-7.4c0.7,6.8,3,11.6,7.2,14.6C190.2,545.4,190.9,543,190.2,538.7"/>
	<path class="st3" d="M181.9,529c2.8,1.7,3.9,0.7,3.5-2.8C182,524.4,180.8,525.3,181.9,529"/>
	<path class="st3" d="M184.3,505.9c0.6-7-1.1-9.4-4.6-7C179.3,506.6,180.8,508.9,184.3,505.9"/>
	<path class="st0" d="M195.9,540c-2.4,0.2-3,1.1-1.7,3c3.7,3,7,3.1,10.1,0.6c0-1.5-1.1-2.4-3-2.8C199,540.8,197.2,540.6,195.9,540"
		/>
	<path class="st0" d="M197.4,531.9c-1.8,0.2-2.4,0.9-1.3,2.2c3,2.2,5.5,2.4,7.9,0.4c0-1.3-0.7-1.8-2.4-2.2
		C199.8,532.3,198.3,532.1,197.4,531.9"/>
	<path class="st4" d="M184.3,505.9c-0.2,7.7,0.2,14.6,1.1,20.3c0.4,2.2,0.7,4.2,1.3,6.1c-1.5-1.3-3.3-1.7-5.3-0.9
		c0.7,6.8,3,11.6,7.2,14.6c1.3-0.4,2-1.7,2.2-3.7c1.8,3,4.1,5.2,6.6,6.5c5.7,2.4,12-2,18.8-13.3c-1.3,3.3-2.8,6.6-4.4,9.8
		c-7.4,9.8-15.7,10.9-24.9,3c-8.9-8.7-12.5-27.7-10.9-57c3.1,1.5,6.1,2.6,9.2,3.5c-0.2,3-0.4,5.5-0.4,8.3c-0.2-4.6-1.7-6.1-4.8-3.9
		C179.3,506.6,180.8,508.9,184.3,505.9 M185.4,526.2c-3.3-1.8-4.4-0.9-3.5,2.8C184.4,530.8,185.7,529.9,185.4,526.2z"/>
	<path class="st0" d="M175.2,505c0,1.5,0,2.2,0,2.2c18.1,10,33.9,10.7,47.4,2.4c0.2-1.3,0.4-1.8,0.4-1.8
		C208.1,516.6,192.2,515.9,175.2,505"/>
	<path class="st15" d="M391.2,556.4c-9.4,0.9-12.9,5.5-10.3,14.2c5,6.6,10,12.2,15.3,16.4c7,5,9.8,9.2,8.1,13.1
		c-7.4,4.4-10.1,10.5-8.3,17.9c1.8,4.6,5.7,6.8,11.4,6.8c7-0.6,10.7-3.7,11.1-9.6c0.2-12.5,3-19.4,8.1-20.8
		c9.4,7,17.3,12.7,24.2,17.2c5.9,5.3,11.3,10.7,15.9,15.9c8.1,7,16,8.5,24.2,4.2c4.1-4.1,5.7-9.2,4.6-15.3
		c-3.1-6.3-9.4-10.1-19-11.4c-17.9-5.3-28.8-10.9-32.6-16.4c8.3,1.7,18.4,5,30.6,9.6c10.1,2.8,16.4,1.1,19-5
		c1.5-5.2,0.9-9.4-1.7-12.7c-4.2-5-11.1-6.1-20.3-3.5c-22.3,2.6-41.1,0.9-56.3-4.6c-7.7-3.3-12.7-5.2-14.6-5.3
		C397.5,565.5,394.3,562,391.2,556.4"/>
	<path class="st3" d="M354,318.3c-0.6-1.1-0.4-1.8,0.6-1.8c12.2,6.3,23.1,10.9,32.5,13.8c21-0.2,31.5-0.4,31.5-0.4
		c0.2,0.7-0.2,1.3-1.1,1.3c-20.5,0.4-30.8,0.4-30.8,0.4C371.3,326.8,360.6,322.4,354,318.3"/>
	<path class="st3" d="M72.9,262.3c-1.7-1.1-1.5-1.5,0.4-1.3c15.5,11.4,27.5,19.9,36.2,25.3c18.4,4.6,27.5,7,27.5,7
		c0.4,1.1,0,1.5-0.9,1.3c-18.4-4.6-27.5-7-27.5-7C84.7,270.7,72.9,262.3,72.9,262.3"/>
	<path class="st0" d="M67,254.5c0.9,5-1.5,9.4-6.8,13.1l2.8,2.2c5.9-1.8,8.3-6.3,7.4-12.9L67,254.5z"/>
	<path class="st0" d="M422.4,328.3c-3.9,2-4.6,7-2.6,14.9c1.3-0.2,2.8-0.4,4.1-0.6c-3.7-3.5-3.5-8.5,0.7-14.6
		C424,328.3,423.1,328.3,422.4,328.3"/>
	<path class="st15" d="M184.3,613.8c-3,9.4-23.2,11.8-37.3,12.2l-18.6-1.7c-10.3-0.7-16,2.2-17.5,9c-0.6,7.6,1.7,12.5,6.5,15.1
		c6.3,1.8,12,1.1,17.2-1.8c17.9-9.6,30.2-12.7,37.1-9.6c-1.1,4.8-5,9-11.4,12.5c-7.9,4.4-12.4,9.8-13.1,16.2
		c-0.2,7.7,3.1,12.2,10.3,13.5c6.3,1.3,11.6-0.6,16-5.9c2.4-4.4,3.9-9.4,4.2-14.8c5.9-13.3,10.9-19.9,14.9-19.9
		c5.7,0.9,11.1,4.6,15.9,11.4c5,7,10.1,11.1,15.3,12.2c8.3,1.8,13.5-0.4,15.3-6.6c0.6-5-0.7-9.2-3.9-12.5c-3.7-2.2-7.7-3.5-12-3.7
		c-14.2-1.7-19.9-14.8-20.8-21.4c0.7-6.3,1.5-12.7,2.2-19.2c-4.4-5.2-10.7-5.9-18.4-2.2C185.6,604.2,184.8,610.1,184.3,613.8"/>
	<path class="st0" d="M186.5,596.8c0.2-1.7,0.4-2.4,0.4-2.4c7.7-4.2,13.8-3.5,18.4,2.2c-0.2,1.7-0.4,2.4-0.4,2.4
		C200.7,593.9,194.6,593.2,186.5,596.8"/>
	<path class="st0" d="M379,567.9c1.3,1.8,1.8,2.8,1.8,2.8c-2.4-8.9,0.9-13.6,10.3-14.2c-0.7-1.3-0.9-1.8-0.9-1.8
		C381.1,555.5,377.4,560.1,379,567.9"/>
	<path class="st5" d="M80.2,190.3c3.7,0.4,5.9,1.8,7.7,5c2.6,4.2,2.8,8.7-1.7,11.6c-4.6,3.1-4.4,1.7-9.2,2.8
		c-1.5,0.4-1.5,0.2-2.8,0.2c-0.6,0-1.1,0.6-1.7,0.7c-2.2,1.1-2.6,1.3-4.2,3.1c-0.4,0.4-0.7,0.7-1.1,1.1c-3.9,4.4-8.3,8.3-12.7,12
		c4.8-4.4,10.5-11.6,12.7-17.7c0.7-2,0.6-3.9,1.7-6.1c0.6-1.5,1.7-3.1,2.4-4.6c0.7-1.3,1.5-2.4,2.2-3.5c0.2-0.4,0.4-0.6,0.6-0.9
		C75.6,191.4,77.1,190.5,80.2,190.3"/>
	<path class="st5" d="M0.9,212.5c4.2,0.2,4.4,0,7.9,2.6c1.3,1.1,2.4,1.8,3.7,3c1.8,1.7,3.1,2.4,4.8,4.4c1.8,2.2,1.3,1.1,3,2.4
		c0.6,0.4,0.9,0.9,1.5,1.3c2.2,2,3.3,2.6,6.1,3.7c2,0.9,4.2,1.3,6.5,2c5.7,2,6.6,1.3,12.2,1.3c0.9,0,1.1,0,1.7,0.7
		c0.4,0.7-0.7,0.4-1.3,0.4c-2-0.4-3.5,0.2-5.5,0.6c-1.7,0.4-3.5,0.7-5.3,0.2c-2.8-1.3-3.1-1.7-6.3-1.8c-3.1-0.4-3.9-0.6-6.6-2
		l-0.6-0.2c-1.8-0.9-3.3-3-5.5-2.2c-0.9,0.4-2.6,3-3.1,4.1l-0.4,0.6c-0.4,0.7-0.7,1.1-1.3,1.5c-2.8,2.2-6.6,0.9-9.8,0.7H2
		c-7.2,0-11.6-5.2-11.6-12.2v-0.4c0-3.9,0.4-5.9,3.7-8.3C-3.9,212.6-2.2,212.5,0.9,212.5"/>
	<path class="st5" d="M50.7,255.2c3.5,0.4,5.7,1.7,7.6,4.4c1.1,1.8,0.7,3.7,1.1,5.7c0.6,3,0.4,3.5-0.9,6.3
		c-2.4,4.8-5.5,7.9-10.1,10.3c-3.3,1.7-6.5,1.7-9.6,0c-5-6.1-9.6-12.2-13.6-18.8c-0.9-3.5-0.7-7,1.1-11.1c-2,5.3,1.3,12.9,10.1,22.5
		c3.3,3,7.6,5.7,11.4,1.7c-0.7-1.3-0.7-1.7-0.7-3.1c-3.3-0.9-5.2-3-6.3-6.1c-1.3-4.1,0.6-7,3.5-9.6c1.8-1.7,3.9-2,6.1-2.2
		L50.7,255.2L50.7,255.2z"/>
	<path class="st5" d="M486.6,326.8c3.1,0,6.1,0,8.9,1.8c0.2,0.2,0.4,0.4,0.7,0.6c1.7,1.3,3.9,3.9,4.4,5.9c0.6,2.4,0.4,6.3-1.1,8.3
		s-4.1,3.5-6.1,4.8c-1.7,0.9-4.2,2.4-6.1,2.6c-2.4,0.2-5.3-1.1-7.6-2c-1.8-0.7-2.8-2.4-3.5-4.1l-0.2-0.2c-0.2-0.6-0.4-0.9-0.6-1.5
		c-1.3-2.8-1.3-6.5-1.7-9.4v-0.4c-1.7,0-3.5-0.6-5.3-0.9c-1.5-0.2-3-0.6-4.4-0.7c-4.1-0.6-6.1-1.3-9.2-4.1c-1.3-1.3-1.8-2-0.2-3.3
		c0.4-0.2,0.2-0.2,0.9,0.2c1.5,0.6,2.4,1.1,3.9,1.7l0.6,0.2c2.4,0.9,4.8,0.9,7.2,1.5c0.4,0,0.7,0.2,1.1,0.2c1.5,0.4,3.1,0.6,4.8,0.7
		c3,0.6,4.2-0.7,7.2-1.3C482.3,327,484.5,326.8,486.6,326.8"/>
	<path class="st5" d="M433.8,335.7c4.1,0.2,6.3,2.6,7.9,6.1c2,4.1,1.8,9-2.6,11.3c-1.5,0.7-4.6,1.7-6.3,1.7c-0.6,0-2.2,0.7-2.8,0.9
		c-0.6,0.2-0.6,0.2,0.4,0.4c2.2,0.6,4.4,0.7,6.8,1.1c0.2,0,0.7,0.2,0.9,0.2c0,0,1.8-0.9,2.2-1.1c3.7-1.5,6.6-0.9,10.1,0.6
		c-7.6,3.9-14.6,5.9-22.9,7.2c-3.9-4.8-6.3-8.7-5-14.9c0.4-1.8,0.9-3.7,1.5-5.5c0.9-3.7,2-5.3,5.7-6.6c0.7-0.2,1.7-0.4,2.4-0.7
		C432.7,335.9,433.3,335.9,433.8,335.7"/>
	<path class="st1" d="M193.3,480.1l-0.6,3.9c-1.1,1.5-2.2,1.5-3.3,0.4c0.2-1.1,0.4-2.4,0.6-3.5c1.5-9.8,2.8-20.8,3.9-33
		c1.8-0.4,3.3,0,4.6,1.3L193.3,480.1z M218.6,482.7c5.7-12,12.9-24.9,17.5-31.9c-11.8-0.4-23.8-1.1-35-3.1
		c-2.2-0.4-6.3-1.1-10.1-2.4c0.2,13.5-0.7,25.5-2.8,36c-0.2,0.9-0.4,1.8-0.6,2.8c-0.2,2.8-0.2,5.7,0,8.7c9,2.2,18.3,1.8,27.3-0.9
		C215.8,488.8,217.1,485.8,218.6,482.7z"/>
	<path class="st1" d="M333.8,461.3c-2.6-2.2-4.4-4.1-5.7-5.7c-6.1-6.5-11.4-10.7-16.2-12.7c-0.2-1.8,0.4-3.1,2-4.2
		c5.9,4.2,11.4,9.6,16.4,16.2c2,2,3.9,3.7,5.5,5.2c2.8,2.4,5.2,4.2,7.2,5.3l-1.3,1.8C338.6,465.1,336.1,463.1,333.8,461.3
		 M256.9,450.6c16,9.2,35.4,18.8,57.9,28.6c2.4,1.1,4.8,2,7.2,3.1c10-3.1,18.1-8.7,24.3-17c-2.2-2.4-4.6-4.6-7.2-6.8
		c-2-1.8-4.2-3.5-6.5-5.3c-6.5-7.9-13.3-14.8-20.7-20.1l0.2,3.3l0,0c0,7.4-15.7,10.1-21,11.1C280,449.5,268.4,450.2,256.9,450.6z"/>
	<path class="st5" d="M190.7,455.4c0.7,0.4,1.5,0.6,2.2,0.9c1.3,0.6,2.8,0.9,4.1,1.5c10.5,3.3,21.4,4.4,32.8,3.3
		c0.9-1.7,1.8-3.3,2.8-4.8c-13.1,1.3-24.7,0.4-34.9-3c-1.5-0.6-3-0.9-4.2-1.7c-0.9-0.4-1.7-0.7-2.6-1.1
		C190.7,452.1,190.7,453.7,190.7,455.4"/>
	<path class="st5" d="M228,464.4c-11.8,0.9-22.3,0-31.5-3c-1.3-0.4-2.6-0.9-3.9-1.3c-0.7-0.2-1.3-0.6-1.8-0.7c0,1.7-0.2,3.1-0.4,4.8
		c0.6,0.2,1.1,0.4,1.7,0.6c1.3,0.4,2.4,0.7,3.7,1.1c9.6,2.8,19.4,3.9,29.9,3.1C226.3,467.5,227.1,465.9,228,464.4"/>
	<path class="st5" d="M191.5,469c-0.2,1.5-0.4,3-0.6,4.4L191.5,469z M223.4,473.1c-10.5,0.6-19.9-0.4-28.4-2.8
		c-1.1-0.4-2.4-0.7-3.5-1.1c-0.6-0.2-1.1-0.4-1.7-0.6c-0.2,1.5-0.4,3.1-0.6,4.6c0.6,0.2,1.1,0.4,1.5,0.6c1.1,0.4,2.2,0.7,3.3,1.1
		c8.7,2.4,17.5,3.5,26.7,3.1C221.7,476.2,222.6,474.6,223.4,473.1z"/>
	<path class="st5" d="M192.7,483.2c7.7,2,15.9,3.1,24.3,2.8h0.2l1.5-3.3l0.6-1.3h-0.2c-1.5,0-3.1,0.2-4.6,0.2
		c-6.1,0-12-0.6-17.3-1.7c-1.3-0.2-2.6-0.6-3.9-0.9c-1.1-0.4-2.2-0.6-3.3-0.9c-0.6-0.2-1.1-0.4-1.7-0.6c-0.2,1.3-0.4,2.6-0.7,3.9
		l0,0c0,0.2,0,0.4-0.2,0.6c0.6,0.2,1.1,0.4,1.7,0.6C190.5,482.7,191.6,482.9,192.7,483.2 M217.1,486c0.6-1.1,1.1-2.2,1.7-3.3
		C218,483.8,217.5,484.9,217.1,486z M189.8,480.5l0.4-2.4C190,479,190,479.7,189.8,480.5z"/>
	<path class="st5" d="M215.6,489.3c-10.5,1.7-19.6,0.9-28.4-1.1c0,1.5,0,2,0,3.7c6.8,1.3,13.8,1.8,20.8,1.3c2.2-0.4,4.4-0.9,6.5-1.7
		C215.1,490.4,215.1,490.6,215.6,489.3"/>
	<path class="st3" d="M192.6,484c-1.1,1.5-2.2,1.5-3.3,0.4c1.7-10.7,3.1-22.9,4.4-36.5c1.8-0.4,3.3,0,4.6,1.3
		C194.6,472.3,192.6,484,192.6,484"/>
	<path class="st5" d="M273.5,459.6c-4.2-2.2-6.3-3.3-6.3-3.3c30.8-1.5,47.6-7.7,50.2-19c1.7,1.5,2.4,2.2,2.4,2.2
		C316,450.9,300.5,457.8,273.5,459.6"/>
	<path class="st5" d="M286.8,466.4c17.7-3.7,29.5-9,35.8-16c-0.7-0.7-1.7-1.3-2.4-2c-6.3,6.6-19.2,11.6-38.9,15.3
		C283.3,464.6,285,465.5,286.8,466.4 M324.4,448c0.6-0.7,0.9-1.7,1.3-2.4c-0.7-0.7-1.5-1.5-2.2-2.2c-0.4,0.9-0.7,1.7-1.3,2.6
		C323.1,446.5,323.9,447.3,324.4,448z"/>
	<path class="st16" d="M324.4,448c-0.7-0.7-1.5-1.5-2.2-2.2c-0.6,0.9-1.3,1.8-2,2.6c0.7,0.6,1.5,1.3,2.4,2
		C323.3,449.5,323.9,448.7,324.4,448"/>
	<path class="st5" d="M330,454.5c0.6-0.9,1.1-1.7,1.5-2.6c-0.7-0.9-1.5-1.7-2.2-2.6c-0.4,0.9-0.7,1.7-1.3,2.6
		c-0.4,0.7-0.9,1.5-1.5,2c-5.2,6.1-15.7,11.6-31.2,16.4c1.7,0.7,3.3,1.5,5,2.2c13.6-4.6,23.2-10.1,28.4-16.4
		C329.1,455.7,329.6,455,330,454.5 M328.7,456.3c-0.2-0.2-0.4-0.4-0.6-0.6C328.3,455.9,328.5,456.1,328.7,456.3z"/>
	<path class="st5" d="M331.3,459.1c-5.2,5.3-13.3,10.9-24.5,16.6c1.5,0.6,3,1.3,4.2,1.8c4.1-2,7.6-4.2,10.7-6.3
		c5-3.3,8.9-6.5,11.8-9.8c0,0,0,0,0.2-0.2c0.6-0.6,1.1-1.1,1.5-1.8c0.7-0.9,1.3-1.8,1.8-2.6l0,0c-0.7-0.7-1.7-1.3-2.4-2l0,0
		c-0.6,0.7-1.1,1.7-1.8,2.4C332.4,458,332,458.5,331.3,459.1"/>
	<path class="st5" d="M337.5,464.2c-4.6,5-12,10.1-21.9,15.3c1.5,0.6,2.8,1.3,4.2,1.8l0,0c9-5,15.9-10.1,20.3-15.3
		c0.6-0.6,0.9-1.1,1.3-1.7c0.6-0.7,1.1-1.5,1.7-2.4c-0.7-0.7-1.5-1.5-2.4-2.2c-0.6,0.9-1.1,1.7-1.8,2.6
		C338.5,463.1,338.1,463.7,337.5,464.2 M319.8,481.4C319.8,481.4,320,481.4,319.8,481.4C320,481.4,319.8,481.4,319.8,481.4z"/>
	<path class="st3" d="M311.9,442.8c-0.2-1.8,0.4-3.1,2-4.2c5.9,4.2,11.4,9.6,16.4,16.2c5,5,9.2,8.7,12.7,10.7
		c-0.9,1.3-1.3,1.8-1.3,1.8c-6.8-4.8-11.4-8.7-13.8-11.6C322,449.3,316.7,445,311.9,442.8"/>
	<path class="st5" d="M454.8,280.7c0.6-6.6,3.5-12-3-17c-4.1-3-7.9-2-12,0.4c-4.4,3-4.8,5.7-4.8,10.7s1.8,6.1,6.5,6.8
		c0.6,0,2.6,0.4,3,0.9c0.6,0.7,0.9,1.3,1.7,2c1.7,1.8,2,3.5,2.6,5.9c0.6,2.6,0.7,5.3,0.7,7.9c-0.6,12.2,1.1,20.1,5.3,23.8
		C448.8,310.2,451.7,293.1,454.8,280.7"/>
	<path class="st3" d="M76.9,193.8c3-5,18.3,1.7,3,4.2C78.2,198.3,75.8,195.7,76.9,193.8"/>
	<path class="st3" d="M70.6,202.7c2.2-0.6,1.8-0.9,4.4-1.3c0.6,0,0.4-3-2.2-2C71,199.9,70.6,202.7,70.6,202.7"/>
	<path class="st3" d="M7.7,216.7c-4.4-7.7-28,2.6-4.4,6.5C5.5,223.3,9.2,219.3,7.7,216.7"/>
	<path class="st3" d="M49.6,274.1c-1.1-7.7-6.5,0.9-6.5-11.3c0-6.5,7.2-6.3,7.4-4.8c0.7,5.7-7.9,4.2-1.8,11.8c1.1,1.3,2,0.7,1.7,4.2
		C50,274.2,49.6,274.2,49.6,274.1"/>
	<path class="st3" d="M451.2,265.2c-2.8-3.1-14.6,0-10.9,3c2,1.5,7.2-0.7,8.7,1.1C450.4,271.1,453.7,268.2,451.2,265.2"/>
	<path class="st3" d="M437.9,269.1c-0.6,1.1-0.4,0-0.6,1.5c-0.2,1.3-1.7,4.8,1.5,3.7c0.6-0.2-0.2-2.4-0.2-3.7
		C438.6,268.9,437.5,269.6,437.9,269.1"/>
	<path class="st3" d="M494.1,330.1c-0.6-0.6-13.5-3.1-10.7,1.8c1.3,2.4,5.7-1.5,6.8,3.9c0.4,1.7,8.5,3,8.5,0
		C498.6,328.5,494.9,330.9,494.1,330.1"/>
	<path class="st3" d="M497.3,339.7c3-0.6,2.6,2.4-0.2,3.5c-2.2,0.9-2.6,0.7-2-2.6C495.1,340.6,497.1,339.9,497.3,339.7"/>
	<path class="st3" d="M436.4,337.9c-1.7-0.2-7.4-0.4-8.3,1.5c-0.4,0.7-7,3.9,3.3,4.4c1.8,0.2,6.3,0.2,7.6-1.5
		c0.4-0.4,0.9-2.8-0.9-3.3c-0.2-0.6-0.6,0.4-1.3-1.1C436.6,337.9,436.6,337.9,436.4,337.9"/>
	<path class="st5" d="M158.6,636.7h-8.3c-3.9,0.2-5.7,1.8-9,3c-2.8,1.1-5.5,1.5-7-1.7c-0.9-2,0.9-4.2,1.1-6.5c0-0.9,0-1.7-0.2-2.6
		c-0.2-0.6-0.6-0.9-0.9-1.3c-0.2-0.4-0.6-0.6-0.9-0.7c-1.7-1.3-5.3-2.2-7.4-2c-1.5,0-2.2,0.2-3.5-0.7c-0.4-0.4-0.7,0-1.3,0.2
		c-4.2,1.1-7.4,2-9.4,6.3c-0.4,0.9-0.6,1.7-0.9,2.6c-0.4,6.1,0.7,12,6.5,15.1c6.3,1.8,12,1.1,17.2-1.8c7.7-4.1,15.3-7.7,23.8-9.8
		L158.6,636.7z"/>
	<path class="st5" d="M160.3,649.6c-7.9,4.4-12.4,9.8-13.1,16.2c-0.2,7.7,3.1,12.2,10.3,13.5c6.3,1.3,11.6-0.6,16-5.9
		c2.4-4.4,3.9-9.4,4.2-14.8c1.5-3.3,2.8-6.1,4.2-8.5c-2.6-5-9-3.9-14.2-6.3C166,645.9,163.4,647.9,160.3,649.6"/>
	<path class="st5" d="M208.6,650.3c5,7,10.1,11.1,15.3,12.2c8.3,1.8,13.5-0.4,15.3-6.6c0.6-5-0.7-9.2-3.9-12.5
		c-3.7-2.2-7.7-3.5-12-3.7c-2.8-0.4-5.3-1.1-7.6-2.2c-0.4,0.6-0.6,1.3-1.8,2c-1.1,0.7-7.9-0.4-14.2,2
		C202.9,643.5,205.8,646.5,208.6,650.3"/>
	<path class="st5" d="M404.5,600.2c-7.4,4.4-10.1,10.5-8.3,17.9c1.8,4.6,5.7,6.8,11.4,6.8c7-0.6,10.7-3.7,11.1-9.6
		c0-3.1,0.2-5.9,0.6-8.3c0.4-0.2,0.4-0.4,0.2-0.9C418.3,603.5,409.3,596.5,404.5,600.2"/>
	<path class="st5" d="M451,611.8c5.9,5.3,11.3,10.7,15.9,15.9c8.1,7,16,8.5,24.2,4.2c4.1-4.1,5.7-9.2,4.6-15.3
		c-2.8-5.7-8.3-9.4-16.4-11.1c-5.3,0.7-10.3,2.8-13.1,8.1c-2,3.9-15.1-3.9-18.6-5.3c-6.6-2.6-14.4-14.4-20.8-13.8
		C436.2,601.5,444.1,607.4,451,611.8"/>
	<path class="st5" d="M474.4,598.3c10.1,2.8,16.4,1.1,19-5c1.5-5.2,0.9-9.4-1.7-12.7c-1.5-1.7-3.1-3-5.2-3.7
		c-13.8-4.4-19.2,8.7-24.7,10.1c-2.6,0.7-16.4,1.5-19.6,1.1l1.5,0.6C452.3,590.4,462.4,593.7,474.4,598.3"/>
	<path class="st3" d="M122.5,627.6c-2.6-1.5-9.2,2-9.2,4.8c0,5.3,1.8,4.1,8.9,4.1c3.5,0,5.5-0.2,7.4-3.7
		C131.1,629.5,122.8,627.8,122.5,627.6"/>
	<path class="st3" d="M114,639.6c-0.4,3.3,0.2,3.1,3.5,3C118.6,642.6,114,639.6,114,639.6"/>
	<path class="st3" d="M170.1,669c0-0.2,0.2-0.7,0-0.9c0,6.8,0.6,2-2.2,7.6c-0.9,1.8-5.5,1.5-7.9,0.9c-9.4-1.7-10.7-3.9-7.7-9.8
		C153.5,664.2,168.4,665.6,170.1,669"/>
	<path class="st3" d="M226.7,643.5c4.2,0,12,0.7,11.3,6.8c-0.2,1.1-7.9,3-11.3-2.8C224.7,643.9,226.1,643.5,226.7,643.5"/>
	<path class="st3" d="M235.7,654.2c0.9,1.7,3.7,4.4-1.8,4.8c-0.6,0-2.2-4.4,1.1-4.2C235.2,654.6,235.9,654.4,235.7,654.2"/>
	<path class="st3" d="M485.5,578.2c-10.9-0.7-12,3.5-8.3,3.5c7.9,0,12.2-1.7,12.9,7c0,0.7,4.1,4.2,3.5-2.2
		C493.4,583.6,488.6,578.4,485.5,578.2"/>
	<path class="st3" d="M488.2,590.4c-6.1,0-3.5,3.3-2,3.3C493.9,593.5,489.5,590.4,488.2,590.4"/>
	<path class="st3" d="M480.9,611.6c1.8-0.4,6.6,0,8.1,0.7c0.2,0.2,3.9,4.4,3.9,6.3c0.2,2.4,0.7,10.3-3.5,9.8
		c-2.2-0.2,0.4-5.5-4.1-7.9c-0.4-0.2-2.8-2.6-4.2-3.1c0,0-4.2-3.7-2.4-4.6C479.4,612.3,481.2,611.6,480.9,611.6"/>
	<path class="st3" d="M397.5,614.2c1.8,3.3,3.1,2.4,7.4,2.4s7.9-1.1,8.5,3.7c0,0.4-11.3,3.5-14.6-2.2
		C398.8,618.1,397.1,613.4,397.5,614.2"/>
	<g>
		<g>
			<g>
				<defs>
					<path id="SVGID_26_" d="M306.7,137c21,0,38.2,17.2,38.2,38.2s-17.2,38.2-38.2,38.2s-38.2-17.2-38.2-38.2
						C268.6,154.2,285.5,137,306.7,137"/>
				</defs>
				<clipPath id="SVGID_27_">
					<use xlink:href="#SVGID_26_"  style="overflow:visible;"/>
				</clipPath>
				
					<linearGradient id="SVGID_28_" gradientUnits="userSpaceOnUse" x1="-74.572" y1="842.9896" x2="-72.7278" y2="842.9896" gradientTransform="matrix(0 -41.4289 41.4289 0 -34617.3047 -2875.9424)">
					<stop  offset="0" style="stop-color:#4B7EA9"/>
					<stop  offset="1" style="stop-color:#FEFEFE"/>
				</linearGradient>
				<rect x="268.6" y="137" class="st17" width="76.4" height="76.4"/>
			</g>
		</g>
	</g>
	<g>
		<g>
			<g>
				<defs>
					<path id="SVGID_29_" d="M306.9,140c19.4,0,35.2,15.7,35.2,35.2c0,19.4-15.7,35.2-35.2,35.2c-19.4,0-35.2-15.7-35.2-35.2
						S287.4,140,306.9,140"/>
				</defs>
				<clipPath id="SVGID_30_">
					<use xlink:href="#SVGID_29_"  style="overflow:visible;"/>
				</clipPath>
				
					<linearGradient id="SVGID_31_" gradientUnits="userSpaceOnUse" x1="-70.0756" y1="840.7285" x2="-68.2308" y2="840.7285" gradientTransform="matrix(0 38.1078 -38.1078 0 32345.1875 2810.4385)">
					<stop  offset="0" style="stop-color:#020F1F"/>
					<stop  offset="1" style="stop-color:#184064"/>
				</linearGradient>
				<rect x="271.7" y="140" class="st18" width="70.3" height="70.3"/>
			</g>
		</g>
	</g>
	<path class="st5" d="M306.7,146.6c15.9,0,28.6,12.9,28.6,28.6c0,15.9-12.9,28.6-28.6,28.6c-15.9,0-28.6-12.9-28.6-28.6
		C278,159.5,290.9,146.6,306.7,146.6"/>
	<path class="st2" d="M306.7,161c7.9,0,14.4,6.5,14.4,14.4s-6.5,14.4-14.4,14.4s-14.4-6.5-14.4-14.4S298.8,161,306.7,161"/>
	<path class="st0" d="M306.7,166.7c4.8,0,8.5,3.9,8.5,8.5c0,4.8-3.9,8.5-8.5,8.5c-4.8,0-8.5-3.9-8.5-8.5
		C298.1,170.6,301.9,166.7,306.7,166.7"/>
	<path class="st3" d="M313.7,161.4c3.5,0,6.3,2.8,6.3,6.3s-2.8,6.3-6.3,6.3s-6.3-2.8-6.3-6.3C307.3,164.3,310.2,161.4,313.7,161.4"
		/>
	<path class="st3" d="M300.1,184.1c1.1,0,2.2,0.9,2.2,2.2c0,1.1-0.9,2.2-2.2,2.2c-1.3,0-2.2-1.1-2.2-2.2
		C297.9,185,298.8,184.1,300.1,184.1"/>
	<path class="st15" d="M311.7,198.1c-15.9,0-28.6-12.9-28.6-28.6c0-5.7,1.7-10.9,4.4-15.3c-5.7,5.2-9.4,12.7-9.4,21.2
		c0,15.9,12.9,28.6,28.6,28.6c10.1,0,19.2-5.3,24.2-13.3C325.7,195.3,319.1,198.1,311.7,198.1"/>
	<g>
		<g>
			<g>
				<defs>
					<path id="SVGID_32_" d="M177.6,137c21,0,38.2,17.2,38.2,38.2s-17.2,38.2-38.2,38.2s-38.2-17.2-38.2-38.2S156.4,137,177.6,137"
						/>
				</defs>
				<clipPath id="SVGID_33_">
					<use xlink:href="#SVGID_32_"  style="overflow:visible;"/>
				</clipPath>
				
					<linearGradient id="SVGID_34_" gradientUnits="userSpaceOnUse" x1="-74.5709" y1="841.5606" x2="-72.7268" y2="841.5606" gradientTransform="matrix(0 -41.4289 41.4289 0 -34687.3047 -2875.9004)">
					<stop  offset="0" style="stop-color:#4B7EA9"/>
					<stop  offset="1" style="stop-color:#FEFEFE"/>
				</linearGradient>
				<rect x="139.4" y="137" class="st19" width="76.4" height="76.4"/>
			</g>
		</g>
	</g>
	<g>
		<g>
			<g>
				<defs>
					<path id="SVGID_35_" d="M177.8,140c19.4,0,35.2,15.7,35.2,35.2c0,19.4-15.7,35.2-35.2,35.2c-19.4,0-35.2-15.7-35.2-35.2
						C142.6,155.6,158.3,140,177.8,140"/>
				</defs>
				<clipPath id="SVGID_36_">
					<use xlink:href="#SVGID_35_"  style="overflow:visible;"/>
				</clipPath>
				
					<linearGradient id="SVGID_37_" gradientUnits="userSpaceOnUse" x1="-70.0756" y1="842.2794" x2="-68.2308" y2="842.2794" gradientTransform="matrix(0 38.1078 -38.1078 0 32275.1875 2810.4385)">
					<stop  offset="0" style="stop-color:#020F1F"/>
					<stop  offset="1" style="stop-color:#184064"/>
				</linearGradient>
				<rect x="142.6" y="140" class="st20" width="70.3" height="70.3"/>
			</g>
		</g>
	</g>
	<path class="st5" d="M177.6,146.6c15.9,0,28.6,12.9,28.6,28.6c0,15.9-12.9,28.6-28.6,28.6c-15.9,0-28.6-12.9-28.6-28.6
		C149,159.5,161.8,146.6,177.6,146.6"/>
	<path class="st2" d="M177.6,161c7.9,0,14.4,6.5,14.4,14.4s-6.5,14.4-14.4,14.4s-14.4-6.5-14.4-14.4S169.7,161,177.6,161"/>
	<path class="st0" d="M177.6,166.7c4.8,0,8.5,3.9,8.5,8.5c0,4.8-3.9,8.5-8.5,8.5c-4.8,0-8.5-3.9-8.5-8.5
		C169.1,170.6,172.8,166.7,177.6,166.7"/>
	<path class="st3" d="M184.6,161.4c3.5,0,6.3,2.8,6.3,6.3s-2.8,6.3-6.3,6.3s-6.3-2.8-6.3-6.3C178.4,164.3,181.1,161.4,184.6,161.4"
		/>
	<path class="st3" d="M171,184.1c1.1,0,2.2,0.9,2.2,2.2c0,1.1-0.9,2.2-2.2,2.2c-1.1,0-2.2-0.9-2.2-2.2S169.7,184.1,171,184.1"/>
	<path class="st15" d="M182.6,198.1c-15.9,0-28.6-12.9-28.6-28.6c0-5.7,1.7-10.9,4.4-15.3c-5.7,5.2-9.4,12.7-9.4,21.2
		c0,15.9,12.9,28.6,28.6,28.6c10.1,0,19.2-5.3,24.2-13.3C196.8,195.3,190,198.1,182.6,198.1"/>
</g>
</svg>
