<svg xmlns:svg="http://www.w3.org/2000/svg" xmlns="http://www.w3.org/2000/svg" version="1.1" id="Layer_1" x="0" y="0" viewBox="880 -1200 2372 1223.2" xml:space="preserve" enable-background="new 880 -1200 2372 1223.2">
  <metadata id="metadata156"/>
  <defs id="defs154"/>
  <style type="text/css" id="style3">
    
	.st0{opacity:0.25;fill:url(#SVGID_1_);enable-background:new    ;}
	.st1{fill:url(#SVGID_2_);}
	.st2{fill:#414042;}
	.st5{fill:#E03728;}
	.st6{fill:#F4774B;}
	.st7{fill:#E2E2E2;}
	.st8{fill:#FFFFFF;}
	.st9{fill:#FBAD18;}
	.st10{fill:#C6E9F4;}
	.st11{fill:#1C75BC;}

  </style>
  <linearGradient id="SVGID_1_" gradientUnits="userSpaceOnUse" x1="2066" y1="16039" x2="2066" y2="14768.99" gradientTransform="matrix(1 0 0 1 0 -15974)">
    <stop offset="0" id="stop6" style="stop-color:#1c75bc;stop-opacity:1"/>
    <stop offset="0.01" id="stop8" stop-color="#0084C8"/>
    <stop offset="0.02" id="stop10" stop-color="#0091D4"/>
    <stop offset="0.03" id="stop12" stop-color="#009BDE"/>
    <stop offset="0.05" id="stop14" stop-color="#00A3E5"/>
    <stop offset="0.06" id="stop16" stop-color="#00A8EA"/>
    <stop offset="0.08" id="stop18" stop-color="#00ACEE"/>
    <stop offset="0.13" id="stop20" stop-color="#00AEEF"/>
    <stop offset="0.13" id="stop22" stop-color="#00ACEC"/>
    <stop offset="0.15" id="stop24" stop-color="#00ABE8"/>
    <stop offset="0.17" id="stop26" stop-color="#00ABE5"/>
    <stop offset="0.19" id="stop28" stop-color="#00AAE3"/>
    <stop offset="0.23" id="stop30" stop-color="#1EAAE2"/>
    <stop offset="0.29" id="stop32" stop-color="#27AAE1"/>
    <stop offset="0.42" id="stop34" stop-color="#77BDE9"/>
    <stop offset="0.55" id="stop36" style="stop-color:#a7d1f0;stop-opacity:1"/>
    <stop offset="0.68" id="stop38" style="stop-color:#cce3f6;stop-opacity:0.77"/>
    <stop offset="0.8" id="stop40" style="stop-color:#e6f0fa;stop-opacity:0.49"/>
    <stop offset="0.91" id="stop42" style="stop-color:#f7fafd;stop-opacity:0.16"/>
    <stop offset="1" id="stop44" style="stop-color:#ffffff;stop-opacity:0"/>
  </linearGradient>
  <rect x="880" y="-1200" class="st0" width="2372" height="1223.2" id="rect46"/>
  <linearGradient id="SVGID_2_" gradientUnits="userSpaceOnUse" x1="2066" y1="-1379.14" x2="2066" y2="518.4" gradientTransform="matrix(1 0 0 -1 0 -1200)">
    <stop offset="0" id="stop49" stop-color="#F9ED32"/>
    <stop offset="0.07" id="stop51" stop-color="#F6CE3F"/>
    <stop offset="0.17" id="stop53" stop-color="#F3AB47"/>
    <stop offset="0.49" id="stop55" stop-color="#A52973"/>
    <stop offset="0.55" id="stop57" stop-color="#902A7D"/>
    <stop offset="0.68" id="stop59" stop-color="#662D91"/>
    <stop offset="0.76" id="stop61" stop-color="#513290"/>
    <stop offset="0.84" id="stop63" stop-color="#3E3690"/>
    <stop offset="0.92" id="stop65" stop-color="#2F3890"/>
    <stop offset="1" id="stop67" stop-color="#2B3990"/>
  </linearGradient>
  <path class="st1" d="M3252-185.1c-21.5-17.7-47.3-30.2-75.7-35.8 -36.3-86.2-121.9-147.6-220.8-147.6 -97.1 0-180.6 57.7-218.2 140.8 -7-0.6-14.1-0.9-21.2-0.9 -93 0-174 51.8-215.5 128.2 -10.8-2.4-21.9-3.6-33.4-3.6 -60.3 0-112.5 34.3-138.3 84.4 -5.4-1.3-11-2-16.8-2 -18-0.1-34.5 6.3-47.2 17 -21.7-19.3-50.4-31-81.7-31 -23.2 0-44.9 6.4-63.4 17.6 -11.9-20.6-34.2-34.4-59.7-34.4 -17.8 0-33.9 6.7-46.2 17.7 -17.7-30.5-50.7-51.1-88.6-51.1 -18.4 0-35.7 4.9-50.7 13.4 -26.6-34.4-68.3-56.6-115.1-56.6 -7.5 0-15 0.6-22.2 1.7 -29.9-67.7-97.7-115-176.5-115 -10.8 0-21.4 0.9-31.6 2.6l-82.9-355.5h-106.6l-69.9 299.7c-1.8-0.1-3.7-0.1-5.5-0.1 -72.1 0-130.4 15.4-152.8 111.5 -5.8-1.3-11.8-2.1-18-2.1 -42.9 0-77.9 33.7-80.1 76.1 -6-1-12.1-1.5-18.3-1.5C931.5-111.5 880-60 880 3.5c0 6.7 0.6 13.3 1.7 19.7H3252V-185.1z" id="path69"/>
  <g id="XMLID_7_">
    <polygon id="XMLID_11_" class="st2" points="1396.8 -594.7 1396.9 -601.8 1436.5 -602.6 1529 -240.5 1445.6 -609.1 1444.7 -613.1 1440.5 -613.1 1381.2 -613.5 1381.3 -606.7 1346.9 -606.8 1342.7 -606.8 1341.8 -602.9 1268.8 -292 1350.7 -596.3 "/>
    <polygon id="XMLID_32_" class="st2" points="1428.6 -559 1425.1 -559 1381.3 -559 1381.3 -555.1 1360.5 -555.1 1357 -555.1 1356.2 -551.8 1304.8 -330.4 1363.6 -546.3 1397.3 -545.1 1397.4 -549.5 1421.9 -550.3 1490.6 -293.7 1429.3 -555.7 "/>
    <polygon id="XMLID_33_" class="st2" points="1412.9 -516 1410 -516 1391.8 -516.2 1391.8 -516.2 1376.2 -516 1373.3 -516 1372.7 -513.3 1346.6 -395.3 1378.8 -508.8 1391.6 -508.2 1391.6 -508.2 1407.4 -508.8 1444.8 -373.7 1413.5 -513.3 "/>
    <polygon id="XMLID_34_" class="st2" points="1408.9 -429.3 1397.2 -486.3 1396.8 -488.2 1394.7 -488.3 1384.9 -488.5 1384.9 -483.8 1384.8 -483.8 1384.4 -481.9 1374.9 -433.6 1388.8 -478.6 1394.3 -478.2 "/>
  </g>
  <g id="XMLID_21_">
    <path id="path3163" class="st3" fill="#FBAD18" d="M1390.7-455.6c-93.6-137.2-34.8-201.1-34.8-201.1h34.8 0.3 38.1c0 0 55.5 60.1-38.1 197.3v0.5c-0.1-0.1-0.1-0.2-0.2-0.2 -0.1 0.1-0.1 0.2-0.2 0.2L1390.7-455.6 1390.7-455.6z">
      <animate fill="freeze" from="#FBAD18" id="animb11" restart="always" attributeType="XML" dur="2.5" to="#FD6C0C" begin="0; animb12.end" attributeName="fill" accumulate="none" calcMode="linear" additive="replace"/>
      <animate fill="freeze" from="#FD6C0C" id="animb12" restart="always" attributeType="XML" dur="2.5" to="#FBAD18" begin="animb11.end" attributeName="fill" accumulate="none" calcMode="linear" additive="replace"/>
    </path>
    <path id="path3167" class="st4" fill="#FBEAA1" d="M1391.6-525.6C1318.9-630.7 1374-656 1374-656h19.6 0.2c0 0 15.8-4.1 19.6 0C1461-604.9 1391.6-525.6 1391.6-525.6">
      <animate fill="freeze" from="#FBEAA1" id="animb21" restart="always" attributeType="XML" dur="2" to="#FFB932" begin="0; animb22.end" attributeName="fill" accumulate="none" calcMode="linear" additive="replace"/>
      <animate fill="freeze" from="#FFB932" id="animb22" restart="always" attributeType="XML" dur="2" to="#FBEAA1" begin="animb21.end" attributeName="fill" accumulate="none" calcMode="linear" additive="replace"/>
    </path>
    <path id="path3171" class="st5" d="M1435.6-654.9l-85.5-1.1 0.4-26.9 85.5 1.1L1435.6-654.9z"/>
    <path id="path3175" class="st6" d="M1397.3-796.9c82.4 1.1 148.3 65.6 147.2 144.2 -0.3 18.3-4.2 35.6-11 51.6 -21-53.3-74.4-91.5-137.7-92.3 -63.3-0.8-117.8 36-140.3 88.7 -6.3-16.1-9.7-33.6-9.5-51.8C1247.1-735.2 1314.9-798 1397.3-796.9"/>
    <path id="path3179" class="st5" d="M1357.6-689.2c-46.4 11-84.3 42.7-102.1 84.4 -6.3-16.1-9.7-33.6-9.5-51.8 1-66 48.9-120.9 113.1-136.1L1357.6-689.2z"/>
    <path id="path3183" class="st7" d="M1490.1-842c-1 67-16.7 128.2-42.1 175.5 -16.5-5.2-34.2-8.2-52.5-8.4 -18.4-0.2-36.1 2.3-52.8 7.1 -24-47.9-38-109.4-37-176.5 1.5-106.5 40.3-198.2 95.7-242.7C1455.5-1041.2 1491.7-948.5 1490.1-842"/>
    <path id="path3187" class="st8" d="M1401.5-1085.3c52.9 46.6 90.1 138.2 88.6 243.3 -1 67-16.7 128.2-42.1 175.5 -14.1-4.5-37.3-7.3-52.8-8.2L1401.5-1085.3z"/>
    <path id="path3191" class="st9" d="M1468-983.3l4.1 12.4c0 0-78.8-9.5-146.5-0.5l6.3-13.6C1331.9-985 1422.9-994.6 1468-983.3"/>
    <path id="path3195" class="st6" d="M1413.4-703.8c-0.6 44.3-9.2 82.5-21.2 101.2 -11.5-19-19-57.4-18.3-101.7 0.6-44.3 9.2-82.5 21.2-101.2C1406.5-786.6 1414-748.1 1413.4-703.8"/>
    <path id="path3199" class="st5" d="M1392.7-603.5c-0.2 0.3-0.4 0.6-0.5 0.9 -11.5-19-19-57.4-18.3-101.7 0.6-44.3 9.2-82.5 21.2-101.2 0.2 0.3 0.3 0.6 0.5 0.9L1392.7-603.5z"/>
    <path id="path3203" class="st6" d="M1468-983.3c-22.1-1.7-44.8-2.8-68-3.1 -23.2-0.3-45.9 0.2-68.1 1.3 16.9-43.6 41-79.2 69.5-102.1C1429.3-1063.5 1452.4-1027.3 1468-983.3"/>
    <path id="path3207" class="st5" d="M1397.7-986.3c-22.4-0.2-44.4 0.2-65.8 1.3 16.9-43.6 41-79.2 69.5-102.1 0.5 0.4 1 0.9 1.5 1.3L1397.7-986.3z"/>
    <path id="XMLID_164_" class="st10" d="M1399.1-922.1c-17.1-0.2-31.1 12.8-31.4 29.1 -0.2 16.3 13.5 29.7 30.5 29.9 17.1 0.2 31.1-12.8 31.4-29.1C1429.8-908.5 1416.1-921.9 1399.1-922.1z"/>
    <g id="XMLID_10_">
      <path id="XMLID_197_" class="st11" d="M1364.8-878.4c2.9 11 13.6 16.8 24.4 19.7 6.3-0.7 12.7-1.1 18.9-2.6 6.5-1.5 12.1-5.3 16.1-10.6 2.4-3.2 4.5-6.8 7.5-9.5 -1.1-2-2.2-3.1-2.2-3.1l-9.3 7.5 -0.7-2.7c-1.1 1.1-2.2 1-2.2 1 -19.1 17.8-36.9 0.1-36.9 0.1 -1.3 0-2.7-1.3-2.7-1.3l-1.3 2.7 -9.5-7.5c-1.2 1.6-2.1 3.2-2.7 4.7C1364.4-879.5 1364.6-879 1364.8-878.4z"/>
      <path id="XMLID_341_" class="st11" d="M1390-899.9c1.2 0 2.2-1 2.2-2.2 0-1.2-1-2.2-2.2-2.2s-2.2 1-2.2 2.2C1387.8-900.9 1388.8-899.9 1390-899.9zM1390.4-903.6c0.6 0 1.1 0.5 1.1 1.1s-0.5 1.1-1.1 1.1 -1.1-0.5-1.1-1.1S1389.8-903.6 1390.4-903.6z"/>
      <path id="XMLID_162_" class="st11" d="M1381.1-880.4c0 0 16.8 16.8 35.2-0.1 0 0 6-1.4 6.5-10.1 0 0-0.1-6.5-6.2-8 0 0 3-7.5-5.2-11.2 0 0-8.3-2.9-11.5 5.6l-2 0.1c0 0-3-9.6-12.8-5.2 0 0-6.2 3.2-3.9 10.1 0 0-7.8 1.3-7.5 10.2C1373.8-889 1374-882.5 1381.1-880.4L1381.1-880.4zM1408.4-906.5c2.3 0 4.2 1.9 4.2 4.2s-1.9 4.2-4.2 4.2 -4.2-1.9-4.2-4.2C1404.1-904.6 1406-906.5 1408.4-906.5zM1389.7-906.5c2.3 0 4.2 1.9 4.2 4.2s-1.9 4.2-4.2 4.2c-2.3 0-4.2-1.9-4.2-4.2S1387.4-906.5 1389.7-906.5z"/>
      <path id="XMLID_154_" class="st11" d="M1408.7-899.9c1.2 0 2.2-1 2.2-2.2 0-1.2-1-2.2-2.2-2.2 -1.2 0-2.2 1-2.2 2.2C1406.4-900.9 1407.4-899.9 1408.7-899.9zM1409.1-903.6c0.6 0 1.1 0.5 1.1 1.1s-0.5 1.1-1.1 1.1 -1.1-0.5-1.1-1.1C1408-903.2 1408.5-903.6 1409.1-903.6z"/>
    </g>
    <path id="XMLID_161_" class="st9" d="M1398.2-863.1c-17.1-0.2-30.8-13.6-30.5-29.9 0.2-16.3 14.3-29.3 31.4-29.1 17.1 0.2 30.8 13.6 30.5 29.9C1429.4-875.9 1415.3-862.9 1398.2-863.1zM1427.9-919.8c-7.6-7.5-17.8-11.7-28.7-11.8h-0.6c-22.2 0-40.6 17.2-40.9 38.4 -0.3 21.5 17.8 39.2 40.3 39.5h0.6c22.2 0 40.6-17.2 40.9-38.4C1439.7-902.5 1435.6-912.3 1427.9-919.8z"/>
  </g>
  <g id="g96">
    <path class="st2" d="M1412.7-129.1c-33.1 0.2-59.8 27.2-59.6 60.4 0.1 11.6 3.4 22.4 9.2 31.5 -4.3-7.8-6.8-16.8-6.9-26.3 -0.2-31.1 25.5-56.5 57.3-56.7 31.9-0.2 57.9 24.8 58.1 55.9 0.1 9.5-2.3 18.5-6.5 26.4 5.6-9.2 8.8-20 8.8-31.6C1472.9-102.6 1445.9-129.3 1412.7-129.1z" id="path98"/>
    <path class="st2" d="M1304.9-203.1c-37.6-30.1-92.6-24.1-122.7 13.6 -10.5 13.2-16.6 28.4-18.5 44 2.3-12.8 7.7-25.2 16.3-36 28.3-35.3 80.5-40.5 116.8-11.5 36.2 29 42.6 81.1 14.4 116.4 -8.6 10.8-19.5 18.8-31.5 23.8 14.8-5.2 28.4-14.5 38.9-27.7C1348.7-118 1342.6-172.9 1304.9-203.1z" id="path100"/>
    <path class="st2" d="M1172.7-269.5c53.9-32 122.6-17.3 159.1 31.9 -1.6-3.7-3.5-7.4-5.7-11.1 -33-55.8-105-74.2-160.8-41.1 -37.8 22.4-58.5 62.8-57.5 103.9 2.3 0.6 4.7 1.3 7 2.2C1120.1-218.3 1140.3-250.3 1172.7-269.5z" id="path102"/>
    <path class="st2" d="M1673.3-95.1c-12.5 41.1-56.8 64.1-99 51.3 -42.2-12.8-66.2-56.6-53.7-97.7 3.8-12.6 10.6-23.5 19.4-32.1 -11.2 9.8-19.9 22.8-24.6 38.2 -13.3 43.8 11.4 90.2 55.2 103.5 43.8 13.3 90.2-11.4 103.5-55.2 4.7-15.3 4.7-31 0.8-45.4C1677.5-120.5 1677.1-107.6 1673.3-95.1z" id="path104"/>
    <path class="st2" d="M1268.7-146.1c8.5 17.6 2.5 39.2-14.5 49.7 -18.2 11.3-42.1 5.7-53.4-12.5 -1.4-2.3-2.6-4.6-3.4-7.1 0.8 5.3 2.6 10.6 5.6 15.5 11.7 18.8 36.3 24.6 55.1 12.9s24.6-36.3 12.9-55.1C1270.4-143.8 1269.6-145 1268.7-146.1z" id="path106"/>
    <path class="st2" d="M1575.8-136.6c13.1-15.2 36.1-16.9 51.3-3.7 14.2 12.3 16.6 33.2 6 48.3 1-0.9 1.9-1.8 2.8-2.8 14.7-17 12.9-42.7-4.2-57.5 -17.1-14.8-42.7-12.9-57.5 4.2 -10.6 12.3-12.6 29.1-6.5 43C1565.4-115.9 1568-127.6 1575.8-136.6z" id="path108"/>
    <path class="st2" d="M1429.5-80.7c-4.7-3.5-10.1-5.4-15.5-5.9 4.5 0.6 8.8 2.4 12.7 5.2 12.6 9.4 15 27.4 5.4 40.3 -9.6 12.9-27.6 15.8-40.1 6.4 -3.8-2.9-6.7-6.5-8.6-10.6 2 5.1 5.4 9.7 10.1 13.1 13.4 10 32.4 7.2 42.3-6.2C1445.7-51.8 1442.9-70.7 1429.5-80.7z" id="path110"/>
    <path class="st2" d="M1351.1-215.7c6-24.7 31.4-39.7 56.7-33.5 25.3 6.2 40.9 31.2 34.9 55.9 -1.8 7.5-5.5 14.2-10.4 19.6 6.3-6.2 11-14.1 13.3-23.3 6.4-26.3-9.7-52.8-36-59.3 -26.3-6.4-52.8 9.7-59.3 36 -2.2 9.2-1.7 18.4 1 26.8C1349.5-200.6 1349.3-208.1 1351.1-215.7z" id="path112"/>
    <path class="st2" d="M1373.8-221.5c-9.9 11.4-8.6 28.7 2.8 38.6 11.4 9.9 28.7 8.6 38.6-2.8 7.1-8.3 8.5-19.6 4.4-28.9 1.6 7.2-0.2 15.1-5.4 21.2 -8.8 10.2-24.3 11.3-34.5 2.5 -9.6-8.3-11.1-22.3-4-32.5C1375-222.8 1374.4-222.2 1373.8-221.5z" id="path114"/>
    <path class="st2" d="M2959.6-383.5c-98.4 0.6-182.6 60.5-219 145.5 -15.1-3.5-30.8-5.4-47-5.4 -91.1 0-168.4 58.8-196.2 140.5 -12.3-3.4-25.2-5.2-38.5-5.2 -59.3 0-110.3 36-132.2 87.3 -13.1-4.8-27.7-5-41.4 0.4 -8.3 3.3-15.4 8.3-21 14.5 -21.6-18.8-49.9-30.3-80.8-30.3 -23 0-44.6 6.3-63 17.3 -5.6-11.4-14.5-21.5-26.2-28.5 -25.6-15.2-57.2-11.6-78.6 6.6 -3-6.4-6.9-12.6-11.5-18.3 -31.5-39.3-88.2-46.2-128.2-16.3 -4.5-9.1-10.3-17.7-17.3-25.5 -29.3-32.6-73.5-44.4-115-35 -11.5-58.7-57.5-107.3-119.9-119.2 -71.6-13.6-141.1 25.8-167.7 90.7 34-49.3 95-76.7 157.6-64.7C1692.9-214 1746.6-141.5 1740-63c1.5-5.1 2.8-10.3 3.8-15.6 2.9-15.4 3.4-30.8 1.7-45.6 41.9-5 84.7 9 114.1 41.7 3.5 3.9 6.8 8.1 9.8 12.3 1.3-1.1 2.6-2.1 4-3.1 -2.5 2-4.9 4.1-7.1 6.3 44.4-29 104.4-20.1 138.3 22.1 10 12.5 16.7 26.6 20.1 41.2 -0.2-5.9-0.9-11.7-2.2-17.5 14.9-6.9 33.1-5.3 46.8 5.8 5.3 4.3 9.4 9.6 12.2 15.4 -2-8.1-6.6-15.6-13.6-21.2 -13.5-10.9-32.1-11.5-46.1-2.8 -1-4-2.4-8-4-12 23.5-15.3 54.6-17 80.4-1.7 8.7 5.2 15.9 11.8 21.7 19.4 -0.8 0.5-1.6 1-2.5 1.5 0.9-0.4 1.9-0.7 2.8-1.1 0.8 1 1.5 2.1 2.3 3.2 -0.5-1.2-1-2.3-1.5-3.4 17.7-6.4 36.8-9.9 56.7-9.9 31.3 0 60.5 8.6 85.6 23.6 -1.3 1.6-2.6 3.2-3.8 4.9 7-6.7 15.4-12.2 24.9-16 13.8-5.5 28.4-6.7 42.2-4.3 -3.1 7.5-5.7 15.3-7.5 23.4 2.8-7.9 6.4-15.6 10.6-22.8 0.7 0.2 1.5 0.3 2.2 0.5 -0.7-0.3-1.3-0.6-2-0.9 27.5-47.1 83-79.3 147-79.3 6.5 0 12.9 0.3 19.2 1 -3.7 12-6.4 24.4-7.9 37.2 -6.6-2-13.6-3.1-20.8-3.1 -34 0-62.4 23.7-69.6 55.5 10.5-29.5 41.6-51 78.4-51 4 0 7.9 0.3 11.8 0.8 -0.8 7.3-1.2 14.8-1.2 22.3 0 7.2 0.4 14.4 1.1 21.4 11.4-117.5 110.4-209.4 230.9-209.4 5.5 0 11 0.2 16.5 0.6 -5 14.1-8.7 28.9-11 44.1 -8.6-1.3-17.5-1.5-26.6-0.7 -60.6 5.8-105.1 59.7-99.3 120.3 0.4 3.8 0.9 7.6 1.7 11.3 0.1-62.9 47.9-116.6 111.8-122.7 3.8-0.4 7.6-0.5 11.4-0.5 -1.1 9.8-1.7 19.7-1.6 29.8 0 6.3 0.3 12.5 0.8 18.7 -2.9 0-5.8 0.3-8.8 0.9 -24.2 4.9-39.9 28.5-35 52.7 0.3 1.5 0.7 3 1.1 4.5 -2.6-25.4 14.4-49.1 40-54.2 1-0.2 2-0.4 3-0.5 3.7 38 16.3 73.3 35.6 104 -17.3-31.3-27.2-67-27.4-105 -0.8-124.3 101.8-225.7 229.2-226.6 127.4-0.8 231.4 99.3 232.2 223.6 0.2 38-9.2 73.9-26 105.4 22-37.1 34.9-80.4 34.6-126.7 -0.2-23.3-3.6-45.8-10-67.1 -3.1-1.2-6.2-2.2-9.3-3.2 -0.4-3-1-5.9-1.8-8.8 2.6 0.5 5.2 1 7.8 1.6C3154.8-316.9 3064.9-384.2 2959.6-383.5z" id="path116"/>
    <path class="st2" d="M2961.1-257.9c-62.8 0.4-113.4 51.7-113 114.5 0.1 22 6.5 42.4 17.4 59.8 -8.2-14.8-12.9-31.8-13-49.8 -0.4-58.9 48.3-107.1 108.7-107.4 60.4-0.4 109.7 47.1 110.1 106 0.1 18-4.4 35-12.4 50 10.7-17.5 16.8-38 16.6-60C3075.2-207.7 3024-258.3 2961.1-257.9z" id="path118"/>
    <path class="st2" d="M2993.1-182.7c8.7 4.3 16.5 10.8 22.4 19.3 19.5 27.7 12.2 66.4-16.3 86.4 -28.4 19.9-67.3 13.6-86.7-14.1 -6-8.5-9.4-18-10.5-27.7 0.7 11.7 4.5 23.5 11.8 33.8 20.7 29.6 61.5 36.7 91.1 16s36.7-61.5 16-91.1C3013.6-170.5 3003.9-178.1 2993.1-182.7z" id="path120"/>
    <path class="st2" d="M2167.4-7.4c6-2.3 12.5-3.6 19.3-3.6 10.1 0 19.6 2.8 27.7 7.7 0.1-0.2 0.2-0.3 0.4-0.4 -7-6.2-16.1-9.9-26.1-9.9C2180.8-13.5 2173.5-11.3 2167.4-7.4z" id="path122"/>
    <path class="st2" d="M1903.2-46.4c-1.2 1-2.4 2-3.4 3.1 21.2-13.9 49.8-9.6 66 10.6 4.8 6 8 12.7 9.6 19.7 -0.3-9.3-3.5-18.6-9.7-26.4C1950.3-58.6 1922.4-61.7 1903.2-46.4z" id="path124"/>
    <path class="st2" d="M1805.4-78.2c-19.9-4.9-40 7.3-44.9 27.3 -1.7 7-1.3 14 0.8 20.3 -1.4-5.3-1.5-11.1-0.2-16.8 4.6-18.7 23.8-30 43-25.4 19.2 4.7 31 23.6 26.4 42.3 -1.4 5.7-4.2 10.7-7.9 14.8 4.8-4.7 8.3-10.7 10-17.7C1837.5-53.2 1825.3-73.3 1805.4-78.2z" id="path126"/>
    <path class="st2" d="M1808.9-30.6c-6.7 7.7-18.4 8.6-26.1 1.9 -7.2-6.3-8.4-16.9-3.1-24.6 -0.5 0.5-1 0.9-1.4 1.5 -7.5 8.7-6.6 21.8 2.1 29.3 8.7 7.5 21.8 6.6 29.3-2.1 5.4-6.3 6.4-14.8 3.3-21.9C1814.2-41.1 1812.9-35.2 1808.9-30.6z" id="path128"/>
    <path class="st2" d="M1014.1-106c-0.2-2.4-0.3-4.7-0.3-7.1 -56-5-108.7 25-133.7 73.7v62.6h5.1c0.2-7.5 1-15 2.5-22.6C900-62.1 953.9-105.8 1014.1-106z" id="path130"/>
    <path class="st2" d="M3187.7-222.7c1.2 3.4 2.3 6.9 3.4 10.4 23.5 8.9 44.2 23 61 40.8v-21.7C3233.2-207 3211.5-217.2 3187.7-222.7z" id="path132"/>
    <path class="st2" d="M3181.7-215.5c3.2 1 6.3 2.1 9.3 3.2 -1-3.5-2.2-7-3.4-10.4 -2.6-0.6-5.1-1.1-7.8-1.6C3180.7-221.4 3181.3-218.5 3181.7-215.5z" id="path134"/>
    <path class="st2" d="M987-44.7c2.9-1.1 5.9-1.9 8.9-2.3 -6.3-0.4-12.8 0.5-19.2 2.9C952.3-35 940-7.9 949.1 16.5c0.9 2.3 1.9 4.6 3.1 6.7H965c-1.9-2.8-3.5-5.9-4.8-9.3C951.5-9.7 963.5-35.9 987-44.7z" id="path136"/>
    <path class="st2" d="M1016.9-107c0 0.4 0.1 0.7 0.1 1 -1 0-2 0-2.9 0 1.8 18.4 10.3 36.2 25.3 49.3 10.9 9.6 23.8 15.4 37.2 17.6 -10.9-2.5-21.4-7.6-30.3-15.4 -29.3-25.6-31.8-70.8-5.5-100.8s71.3-33.6 100.6-8c9 7.8 15.4 17.5 19.3 28 -4-12.9-11.4-24.9-22.4-34.5 -7.1-6.3-15.2-10.9-23.6-14 -0.2 1.2-0.4 2.4-0.5 3.7 -1.9-0.3-3.8-0.4-5.8-0.4 -0.1 0-0.3 0-0.4 0 -0.1-1.8-0.2-3.6-0.2-5.4 -26.6-6.9-56.1 1.1-75.5 23.2 -12.5 14.3-18.6 32-18.6 49.6 1.2 0.1 2.3 0.2 3.5 0.3C1016.9-110.9 1016.8-108.9 1016.9-107z" id="path138"/>
    <path class="st2" d="M1108.4-180.5c2 0 3.9 0.1 5.8 0.4 0.2-1.2 0.3-2.5 0.5-3.7 -2.3-0.8-4.6-1.6-7-2.2 0 1.8 0.1 3.6 0.2 5.4C1108.1-180.5 1108.3-180.5 1108.4-180.5z" id="path140"/>
    <path class="st2" d="M1014.1-106c1 0 1.9 0 2.9 0 0-0.3-0.1-0.6-0.1-1 -0.1-1.9 0-3.9 0.3-5.8 -1.2-0.1-2.3-0.2-3.5-0.3C1013.7-110.8 1013.8-108.4 1014.1-106z" id="path142"/>
    <path class="st2" d="M1119.1-138.4c-6.2-5-13.5-7.8-20.8-8.7 6.1 1.1 11.9 3.6 17 7.7 16.7 13.3 19.2 38 5.5 55.2 -13.7 17.1-38.3 20.2-55 6.9 -5.1-4.1-8.9-9.2-11.3-14.9 2.5 7 6.9 13.4 13.1 18.4 17.9 14.2 43.9 11.2 58.1-6.6C1139.9-98.2 1137-124.2 1119.1-138.4z" id="path144"/>
    <path class="st2" d="M1161.5-62.7c-13.1 7.1-18.1 23.5-11 36.6 2.5 4.6 6.1 8.2 10.3 10.6 -3.4-2.1-6.3-5.1-8.3-8.9 -6.6-12.3-1.8-27.9 10.9-34.7 12.6-6.8 28.3-2.3 34.9 10 2 3.8 3 7.8 3 11.9 0.3-4.9-0.7-9.9-3.2-14.5C1191-64.8 1174.6-69.8 1161.5-62.7z" id="path146"/>
    <path class="st2" d="M1178.9-50.3c3.7 1.7 6.6 5 7.6 9.3 1.6 7.3-2.9 14.5-10.2 16.1 -6.8 1.5-13.6-2.4-15.7-8.9 0.1 0.5 0.2 1 0.3 1.5 1.8 8.1 9.9 13.3 18 11.4 8.1-1.8 13.3-9.9 11.4-18C1189-44.8 1184.4-49.1 1178.9-50.3z" id="path148"/>
    <path class="st2" d="M2961-154.9c9.4-2.1 18.6 3.3 21.6 12.2 -0.1-0.7-0.2-1.3-0.3-2 -2.5-11.2-13.6-18.2-24.7-15.8 -11.2 2.5-18.2 13.6-15.8 24.7 1.8 8.1 8.1 14 15.6 15.7 -5.2-2.2-9.2-6.8-10.5-12.7C2944.7-142.8 2951-152.7 2961-154.9z" id="path150"/>
  </g>
</svg>