<?xml version="1.0" encoding="utf-8"?>
<!-- Generator: Adobe Illustrator 16.0.0, SVG Export Plug-In . SVG Version: 6.00 Build 0)  -->
<!DOCTYPE svg PUBLIC "-//W3C//DTD SVG 1.1//EN" "http://www.w3.org/Graphics/SVG/1.1/DTD/svg11.dtd">
<svg version="1.1" id="artwork" xmlns="http://www.w3.org/2000/svg" xmlns:xlink="http://www.w3.org/1999/xlink" x="0px" y="0px"
	 width="271px" height="200.664px" viewBox="0 0 271 200.664" enable-background="new 0 0 271 200.664" xml:space="preserve">
<g>
	<polygon fill="#565045" points="271,127.053 0,168.427 0,61.717 271,20.344 	"/>
	<polygon points="85.853,0 0,61.717 85.853,49.305 	"/>
	<polygon points="271,127.053 185.582,200.664 185.582,139.465 	"/>
	<g>
		<path fill="#FFFFFF" d="M31.428,79.459c-0.218-1.344-1.236-3.126-1.966-4.629c0.936-0.233,1.871-0.465,2.819-0.619
			c6.955-1.126,13.881,1.077,15.289,9.771c1.101,6.797-3.289,19.755-2.744,35.645l0.316-0.051
			c2.134-0.345,25.988-46.87,25.41-49.939c4.776,0.442,9.028,3.161,9.745,7.587c2.01,12.407-27.073,53.696-27.773,62.894
			c-7.335,0.782-21.964-0.905-23.372-9.598C26.631,114.948,32.951,88.863,31.428,79.459z"/>
		<path fill="#FFFFFF" d="M84.383,115.004c-0.043,0.737-0.006,1.461,0.096,2.094c0.448,2.766,2.203,4.59,5.917,3.989
			c5.453-0.883,13.074-6.416,14.696-9.923C105,122.615,94.496,131.373,85.249,132.87c-6.48,1.049-12.313-1.413-13.568-9.158
			c-2.086-12.883,10.101-35.294,22.825-37.355c7.034-1.139,10.493,2.194,11.261,6.936c1.42,8.772-5.586,21.101-14.754,22.585
			C88.879,116.224,86.656,116.015,84.383,115.004z M85.637,108.719c0.986,0.083,1.948,0.008,2.817-0.132
			c5.216-0.845,7.118-5.126,6.696-7.735c-0.218-1.344-1.016-2.269-2.359-2.051C90.419,99.185,87.357,103.816,85.637,108.719z"/>
		<path fill="#FFFFFF" d="M114.324,80.553c5.453-0.883,9.448,3.255,10.582,8.749c2.367-2.412,6.189-9.356,13.065-10.47
			c2.845-0.461,4.744,1.746,5.281,5.066c0.909,5.61-2.054,14.363-10.55,18.496c1.343-2.731,1.781-6.534,1.436-8.667
			c-0.23-1.423-1.044-1.94-2.229-1.749c-2.688,0.435-6.997,4.378-9.415,9.474c-2.154,4.728-5.141,18.837-5.869,25.363
			c-3.636,0.588-10.282,0.609-11.14-4.686C104.563,116.44,114.564,88.544,114.324,80.553z"/>
		<path fill="#FFFFFF" d="M142.342,103.835c3.529,5.268,9.881,6.43,14.702,5.648c3.794-0.614,6.658-2.457,6.326-4.512
			c-0.538-3.319-18.432,0.876-19.84-7.817c-1.612-9.959,10.271-20.723,20.623-22.399c5.612-0.909,8.15,2.249,8.842,6.517
			c0.576,3.557-0.102,7.884-1.408,11.34c-1.994-4.3-5.082-5.341-7.849-4.894c-3.478,0.563-6.491,3.484-6.197,5.302
			c0.845,5.216,14.65-0.183,16.327,10.171c1.459,9.01-8.973,16.214-18.852,17.814c-7.587,1.229-14.896-0.831-16.062-8.023
			C138.405,109.583,140.329,106.432,142.342,103.835z"/>
		<path fill="#FFFFFF" d="M196.315,104.098c-3.104,7.883-7.41,11.338-11.361,11.978c-4.9,0.793-9.202-2.727-9.944-7.311
			c-1.484-9.167,7.097-28.806,6.068-37.155c4.505-0.729,10.896,0.668,11.484,4.305c0.87,5.373-6.498,18.976-5.769,23.479
			c0.115,0.712,0.362,1.24,1.139,1.52c4.505-0.729,7.81-6.861,9.868-10.682c2.615-4.885,6.771-18.291,6.763-22.344
			c2.884-0.224,10.064,1.046,10.653,4.681c0.729,4.506-7.245,18.368-5.939,26.43c0.332,2.055,1.172,2.729,2.357,2.538
			c3.003-0.486,7.69-6.598,8.766-8.476c-1.654,7.812-7.129,19.08-14.559,20.283C201.178,114.097,197.724,109.79,196.315,104.098z"/>
		<path fill="#FFFFFF" d="M219.786,91.294c3.529,5.268,9.881,6.429,14.702,5.648c3.794-0.614,6.658-2.457,6.326-4.512
			c-0.538-3.319-18.432,0.876-19.84-7.817c-1.612-9.959,10.271-20.723,20.623-22.4c5.612-0.909,8.15,2.249,8.842,6.517
			c0.576,3.557-0.102,7.885-1.408,11.34c-1.994-4.3-5.082-5.341-7.849-4.893c-3.478,0.563-6.491,3.484-6.197,5.302
			c0.845,5.216,14.65-0.183,16.327,10.171c1.459,9.01-8.973,16.214-18.852,17.813c-7.587,1.229-14.896-0.831-16.062-8.023
			C215.85,97.042,217.773,93.891,219.786,91.294z"/>
	</g>
</g>
</svg>
