<?xml version="1.0" encoding="UTF-8" standalone="no"?>
<!DOCTYPE svg PUBLIC "-//W3C//DTD SVG 1.1//EN"
 "http://www.w3.org/Graphics/SVG/1.1/DTD/svg11.dtd">
<!-- Generated by graphviz version 2.38.0 (20140413.2041)
 -->
<!-- Title: models_diagram Pages: 1 -->
<svg width="2677pt" height="552pt"
 viewBox="0.00 0.00 2676.69 552.00" xmlns="http://www.w3.org/2000/svg" xmlns:xlink="http://www.w3.org/1999/xlink">
<g id="graph0" class="graph" transform="scale(1 1) rotate(0) translate(4 548)">
<title>models_diagram</title>
<polygon fill="none" stroke="none" points="-4,4 -4,-548 2672.69,-548 2672.69,4 -4,4"/>
<!-- _diagram_info -->
<g id="node1" class="node"><title>_diagram_info</title>
<text text-anchor="start" x="1375.24" y="-529.6" font-family="Times,serif" font-size="13.00">Models diagram</text>
<text text-anchor="start" x="1375.24" y="-515.6" font-family="Times,serif" font-size="13.00">Date: Aug 15 2015 &#45; 14:47</text>
<text text-anchor="start" x="1375.24" y="-501.6" font-family="Times,serif" font-size="13.00">Migration version: 20150812120123</text>
<text text-anchor="start" x="1375.24" y="-487.6" font-family="Times,serif" font-size="13.00">Generated by RailRoady 1.3.1</text>
<text text-anchor="start" x="1375.24" y="-473.6" font-family="Times,serif" font-size="13.00">http://railroady.prestonlee.com</text>
</g>
<!-- Vote -->
<g id="node2" class="node"><title>Vote</title>
<ellipse fill="none" stroke="black" cx="620.243" cy="-91" rx="27.8951" ry="18"/>
<text text-anchor="middle" x="620.243" y="-87.3" font-family="Times,serif" font-size="14.00">Vote</text>
</g>
<!-- NotificationSelection -->
<g id="node3" class="node"><title>NotificationSelection</title>
<ellipse fill="none" stroke="black" cx="1655.24" cy="-91" rx="85.5853" ry="18"/>
<text text-anchor="middle" x="1655.24" y="-87.3" font-family="Times,serif" font-size="14.00">NotificationSelection</text>
</g>
<!-- Notification -->
<g id="node4" class="node"><title>Notification</title>
<ellipse fill="none" stroke="black" cx="1812.24" cy="-91" rx="53.0913" ry="18"/>
<text text-anchor="middle" x="1812.24" y="-87.3" font-family="Times,serif" font-size="14.00">Notification</text>
</g>
<!-- Reference -->
<g id="node5" class="node"><title>Reference</title>
<ellipse fill="none" stroke="black" cx="869.243" cy="-411" rx="46.2923" ry="18"/>
<text text-anchor="middle" x="869.243" y="-407.3" font-family="Times,serif" font-size="14.00">Reference</text>
</g>
<!-- Reference&#45;&gt;Vote -->
<g id="edge3" class="edge"><title>Reference&#45;&gt;Vote</title>
<path fill="none" stroke="#fdc420" d="M837.935,-390.971C822.916,-381.261 805.022,-368.812 790.243,-356 773.842,-341.783 773.908,-333.906 757.243,-320 724.579,-292.744 705.041,-300.312 676.243,-269 637.42,-226.789 625.511,-157.746 621.859,-119.563"/>
<ellipse fill="none" stroke="#fdc420" cx="841.677" cy="-393.357" rx="4.00002" ry="4.00002"/>
<polygon fill="#fdc420" stroke="#fdc420" points="621.827,-119.179 625.485,-108.842 621.414,-114.197 621,-109.214 621,-109.214 621,-109.214 621.414,-114.197 616.516,-109.586 621.827,-119.179 621.827,-119.179"/>
</g>
<!-- Reference&#45;&gt;Notification -->
<g id="edge10" class="edge"><title>Reference&#45;&gt;Notification</title>
<path fill="none" stroke="#48057e" d="M921.794,-405.096C976.608,-399.541 1064.89,-389.357 1140.24,-375 1174.02,-368.564 1184.22,-370.827 1215.24,-356 1239.3,-344.502 1239.75,-332.614 1263.24,-320 1385.86,-254.169 1434.3,-278.29 1558.24,-215 1581.3,-203.227 1586.12,-198.285 1606.24,-182 1624.33,-167.365 1624.23,-157.855 1644.24,-146 1649.64,-142.805 1716.84,-121.61 1764.6,-106.746"/>
<ellipse fill="none" stroke="#48057e" cx="917.603" cy="-405.516" rx="4" ry="4"/>
<polygon fill="#48057e" stroke="#48057e" points="1764.61,-106.741 1775.5,-108.069 1769.39,-105.256 1774.16,-103.772 1774.16,-103.772 1774.16,-103.772 1769.39,-105.256 1772.82,-99.4745 1764.61,-106.741 1764.61,-106.741"/>
</g>
<!-- ReferenceEdge -->
<g id="node9" class="node"><title>ReferenceEdge</title>
<ellipse fill="none" stroke="black" cx="312.243" cy="-164" rx="64.189" ry="18"/>
<text text-anchor="middle" x="312.243" y="-160.3" font-family="Times,serif" font-size="14.00">ReferenceEdge</text>
</g>
<!-- Reference&#45;&gt;ReferenceEdge -->
<g id="edge8" class="edge"><title>Reference&#45;&gt;ReferenceEdge</title>
<path fill="none" stroke="#01623f" d="M815.562,-407.266C727.413,-401.921 556.73,-387.717 506.243,-356 467.463,-331.638 376.227,-234.71 334.174,-189.04"/>
<ellipse fill="none" stroke="#01623f" cx="819.577" cy="-407.504" rx="4" ry="4"/>
<polygon fill="#01623f" stroke="#01623f" points="334.153,-189.018 330.703,-178.609 330.771,-185.335 327.389,-181.653 327.389,-181.653 327.389,-181.653 330.771,-185.335 324.075,-184.696 334.153,-189.018 334.153,-189.018"/>
</g>
<!-- Reference&#45;&gt;ReferenceEdge -->
<g id="edge9" class="edge"><title>Reference&#45;&gt;ReferenceEdge</title>
<path fill="none" stroke="#f60730" d="M814.72,-408.673C684.732,-404.179 363.039,-384.745 304.243,-302 281.282,-269.686 291.546,-221.505 301.547,-191.732"/>
<ellipse fill="none" stroke="#f60730" cx="819.002" cy="-408.816" rx="4" ry="4"/>
<polygon fill="#f60730" stroke="#f60730" points="301.651,-191.441 309.255,-183.54 303.334,-186.733 305.018,-182.025 305.018,-182.025 305.018,-182.025 303.334,-186.733 300.781,-180.51 301.651,-191.441 301.651,-191.441"/>
<text text-anchor="middle" x="365.243" y="-290.8" font-family="Times,serif" font-size="14.00">reference_edges_from</text>
</g>
<!-- Tag -->
<g id="node10" class="node"><title>Tag</title>
<ellipse fill="none" stroke="black" cx="869.243" cy="-338" rx="27" ry="18"/>
<text text-anchor="middle" x="869.243" y="-334.3" font-family="Times,serif" font-size="14.00">Tag</text>
</g>
<!-- Reference&#45;&gt;Tag -->
<g id="edge14" class="edge"><title>Reference&#45;&gt;Tag</title>
<path fill="none" stroke="#28d34e" d="M869.243,-382.753C869.243,-377.276 869.243,-371.521 869.243,-366.051"/>
<polygon fill="#28d34e" stroke="#28d34e" points="869.243,-382.813 864.743,-392.813 869.243,-387.813 869.243,-392.813 869.243,-392.813 869.243,-392.813 869.243,-387.813 873.743,-392.813 869.243,-382.813 869.243,-382.813"/>
<polygon fill="#28d34e" stroke="#28d34e" points="869.243,-366.029 873.743,-356.029 869.243,-361.029 869.243,-356.029 869.243,-356.029 869.243,-356.029 869.243,-361.029 864.743,-356.029 869.243,-366.029 869.243,-366.029"/>
</g>
<!-- Rating -->
<g id="node11" class="node"><title>Rating</title>
<ellipse fill="none" stroke="black" cx="992.243" cy="-164" rx="34.394" ry="18"/>
<text text-anchor="middle" x="992.243" y="-160.3" font-family="Times,serif" font-size="14.00">Rating</text>
</g>
<!-- Reference&#45;&gt;Rating -->
<g id="edge5" class="edge"><title>Reference&#45;&gt;Rating</title>
<path fill="none" stroke="#27a7c4" d="M886.005,-386.642C892.376,-377.319 899.481,-366.357 905.243,-356 936.819,-299.245 966.6,-228.93 981.779,-191.451"/>
<ellipse fill="none" stroke="#27a7c4" cx="883.589" cy="-390.126" rx="4.00002" ry="4.00002"/>
<polygon fill="#27a7c4" stroke="#27a7c4" points="981.933,-191.068 989.837,-183.468 983.797,-186.429 985.662,-181.789 985.662,-181.789 985.662,-181.789 983.797,-186.429 981.487,-180.111 981.933,-191.068 981.933,-191.068"/>
</g>
<!-- Comment -->
<g id="node12" class="node"><title>Comment</title>
<ellipse fill="none" stroke="black" cx="1242.24" cy="-164" rx="46.2923" ry="18"/>
<text text-anchor="middle" x="1242.24" y="-160.3" font-family="Times,serif" font-size="14.00">Comment</text>
</g>
<!-- Reference&#45;&gt;Comment -->
<g id="edge4" class="edge"><title>Reference&#45;&gt;Comment</title>
<path fill="none" stroke="#8b085f" d="M893.461,-388.881C915.64,-369.948 949.715,-341.867 981.243,-320 1058.9,-266.136 1155.84,-211.673 1206.94,-183.884"/>
<ellipse fill="none" stroke="#8b085f" cx="890.291" cy="-391.602" rx="4.00002" ry="4.00002"/>
<polygon fill="#8b085f" stroke="#8b085f" points="1207.14,-183.776 1218.07,-182.968 1211.53,-181.393 1215.93,-179.011 1215.93,-179.011 1215.93,-179.011 1211.53,-181.393 1213.79,-175.055 1207.14,-183.776 1207.14,-183.776"/>
</g>
<!-- SummaryLink -->
<g id="node13" class="node"><title>SummaryLink</title>
<ellipse fill="none" stroke="black" cx="913.243" cy="-91" rx="62.2891" ry="18"/>
<text text-anchor="middle" x="913.243" y="-87.3" font-family="Times,serif" font-size="14.00">SummaryLink</text>
</g>
<!-- Reference&#45;&gt;SummaryLink -->
<g id="edge2" class="edge"><title>Reference&#45;&gt;SummaryLink</title>
<path fill="none" stroke="#649e65" d="M849.545,-387.313C833.636,-369.049 810.622,-342.763 790.243,-320 726.557,-248.863 604.308,-220.326 664.243,-146 686.415,-118.504 777.832,-104.298 843.467,-97.502"/>
<ellipse fill="none" stroke="#649e65" cx="852.44" cy="-390.64" rx="4.00002" ry="4.00002"/>
<polygon fill="#649e65" stroke="#649e65" points="843.814,-97.4674 854.212,-100.952 848.79,-96.9707 853.765,-96.474 853.765,-96.474 853.765,-96.474 848.79,-96.9707 853.318,-91.9963 843.814,-97.4674 843.814,-97.4674"/>
</g>
<!-- BestComment -->
<g id="node22" class="node"><title>BestComment</title>
<ellipse fill="none" stroke="black" cx="686.243" cy="-338" rx="61.99" ry="18"/>
<text text-anchor="middle" x="686.243" y="-334.3" font-family="Times,serif" font-size="14.00">BestComment</text>
</g>
<!-- Reference&#45;&gt;BestComment -->
<g id="edge11" class="edge"><title>Reference&#45;&gt;BestComment</title>
<path fill="none" stroke="#076d4a" d="M825.326,-397.01C805.806,-390.886 782.668,-383.141 762.243,-375 749.214,-369.808 735.262,-363.443 722.914,-357.517"/>
<ellipse fill="none" stroke="#076d4a" cx="829.353" cy="-398.26" rx="4.00001" ry="4.00001"/>
<ellipse fill="#076d4a" stroke="#076d4a" cx="719.054" cy="-355.644" rx="4.00002" ry="4.00002"/>
</g>
<!-- ReferenceUserTag -->
<g id="node25" class="node"><title>ReferenceUserTag</title>
<ellipse fill="none" stroke="black" cx="508.243" cy="-251" rx="76.8869" ry="18"/>
<text text-anchor="middle" x="508.243" y="-247.3" font-family="Times,serif" font-size="14.00">ReferenceUserTag</text>
</g>
<!-- Reference&#45;&gt;ReferenceUserTag -->
<g id="edge12" class="edge"><title>Reference&#45;&gt;ReferenceUserTag</title>
<path fill="none" stroke="#e074c8" d="M815.212,-408.701C729.825,-405.489 569.254,-394.375 529.243,-356 508.838,-336.429 505.352,-302.94 505.832,-279.257"/>
<ellipse fill="none" stroke="#e074c8" cx="819.237" cy="-408.845" rx="4" ry="4"/>
<polygon fill="#e074c8" stroke="#e074c8" points="505.838,-279.142 510.781,-269.353 506.062,-274.147 506.286,-269.152 506.286,-269.152 506.286,-269.152 506.062,-274.147 501.79,-268.95 505.838,-279.142 505.838,-279.142"/>
</g>
<!-- ReferenceContributor -->
<g id="node27" class="node"><title>ReferenceContributor</title>
<ellipse fill="none" stroke="black" cx="1359.24" cy="-338" rx="87.1846" ry="18"/>
<text text-anchor="middle" x="1359.24" y="-334.3" font-family="Times,serif" font-size="14.00">ReferenceContributor</text>
</g>
<!-- Reference&#45;&gt;ReferenceContributor -->
<g id="edge7" class="edge"><title>Reference&#45;&gt;ReferenceContributor</title>
<path fill="none" stroke="#3ef153" d="M923.34,-409.425C999.085,-407.653 1140.66,-400.808 1258.24,-375 1276.63,-370.963 1296.26,-364.496 1313.27,-358.15"/>
<ellipse fill="none" stroke="#3ef153" cx="919.326" cy="-409.512" rx="4" ry="4"/>
<polygon fill="#3ef153" stroke="#3ef153" points="1313.62,-358.018 1324.57,-358.65 1318.29,-356.232 1322.96,-354.446 1322.96,-354.446 1322.96,-354.446 1318.29,-356.232 1321.35,-350.243 1313.62,-358.018 1313.62,-358.018"/>
</g>
<!-- ReferenceTagging -->
<g id="node30" class="node"><title>ReferenceTagging</title>
<ellipse fill="none" stroke="black" cx="1065.24" cy="-338" rx="75.2868" ry="18"/>
<text text-anchor="middle" x="1065.24" y="-334.3" font-family="Times,serif" font-size="14.00">ReferenceTagging</text>
</g>
<!-- Reference&#45;&gt;ReferenceTagging -->
<g id="edge13" class="edge"><title>Reference&#45;&gt;ReferenceTagging</title>
<path fill="none" stroke="#de306b" d="M912.489,-396.595C932.063,-390.338 955.428,-382.604 976.243,-375 990.744,-369.703 1006.4,-363.526 1020.48,-357.799"/>
<ellipse fill="none" stroke="#de306b" cx="908.443" cy="-397.881" rx="4.00001" ry="4.00001"/>
<polygon fill="#de306b" stroke="#de306b" points="1020.69,-357.714 1031.65,-358.087 1025.32,-355.819 1029.94,-353.923 1029.94,-353.923 1029.94,-353.923 1025.32,-355.819 1028.24,-349.759 1020.69,-357.714 1020.69,-357.714"/>
</g>
<!-- Figure -->
<g id="node38" class="node"><title>Figure</title>
<ellipse fill="none" stroke="black" cx="1340.24" cy="-164" rx="33.5952" ry="18"/>
<text text-anchor="middle" x="1340.24" y="-160.3" font-family="Times,serif" font-size="14.00">Figure</text>
</g>
<!-- Reference&#45;&gt;Figure -->
<g id="edge15" class="edge"><title>Reference&#45;&gt;Figure</title>
<path fill="none" stroke="#8576d2" d="M922.854,-406.34C975.143,-401.915 1056.6,-392.738 1125.24,-375 1147.86,-369.156 1154.5,-368.484 1174.24,-356 1251.3,-307.272 1274.02,-291.741 1323.24,-215 1327.72,-208.024 1331.15,-199.741 1333.72,-191.943"/>
<ellipse fill="none" stroke="#8576d2" cx="918.705" cy="-406.681" rx="4" ry="4"/>
<polygon fill="#8576d2" stroke="#8576d2" points="1333.79,-191.715 1340.94,-183.396 1335.2,-186.919 1336.62,-182.123 1336.62,-182.123 1336.62,-182.123 1335.2,-186.919 1332.3,-180.85 1333.79,-191.715 1333.79,-191.715"/>
</g>
<!-- Binary -->
<g id="node39" class="node"><title>Binary</title>
<ellipse fill="none" stroke="black" cx="572.243" cy="-338" rx="34.394" ry="18"/>
<text text-anchor="middle" x="572.243" y="-334.3" font-family="Times,serif" font-size="14.00">Binary</text>
</g>
<!-- Reference&#45;&gt;Binary -->
<g id="edge6" class="edge"><title>Reference&#45;&gt;Binary</title>
<path fill="none" stroke="#b9d412" d="M819.33,-401.932C767.657,-392.989 684.891,-377.011 615.243,-356 612.822,-355.27 610.346,-354.462 607.864,-353.606"/>
<ellipse fill="none" stroke="#b9d412" cx="823.407" cy="-402.63" rx="4.00001" ry="4.00001"/>
<polygon fill="#b9d412" stroke="#b9d412" points="607.767,-353.571 599.922,-345.909 603.072,-351.853 598.376,-350.135 598.376,-350.135 598.376,-350.135 603.072,-351.853 596.83,-354.361 607.767,-353.571 607.767,-353.571"/>
</g>
<!-- Link -->
<g id="node44" class="node"><title>Link</title>
<ellipse fill="none" stroke="black" cx="305.243" cy="-91" rx="27.0966" ry="18"/>
<text text-anchor="middle" x="305.243" y="-87.3" font-family="Times,serif" font-size="14.00">Link</text>
</g>
<!-- Reference&#45;&gt;Link -->
<g id="edge1" class="edge"><title>Reference&#45;&gt;Link</title>
<path fill="none" stroke="#5ed914" d="M814.646,-409.924C693.019,-408.919 403.85,-401.647 319.243,-356 225.965,-305.675 152.14,-237.139 206.243,-146 219.998,-122.829 247.578,-108.965 270.142,-101.097"/>
<ellipse fill="none" stroke="#5ed914" cx="818.76" cy="-409.955" rx="4" ry="4"/>
<polygon fill="#5ed914" stroke="#5ed914" points="270.253,-101.061 281.152,-102.27 275.011,-99.5244 279.769,-97.9875 279.769,-97.9875 279.769,-97.9875 275.011,-99.5244 278.385,-93.7053 270.253,-101.061 270.253,-101.061"/>
</g>
<!-- VisiteReference -->
<g id="node6" class="node"><title>VisiteReference</title>
<ellipse fill="none" stroke="black" cx="300.243" cy="-411" rx="67.6881" ry="18"/>
<text text-anchor="middle" x="300.243" y="-407.3" font-family="Times,serif" font-size="14.00">VisiteReference</text>
</g>
<!-- Edge -->
<g id="node7" class="node"><title>Edge</title>
<ellipse fill="none" stroke="black" cx="1420.24" cy="-164" rx="28.6953" ry="18"/>
<text text-anchor="middle" x="1420.24" y="-160.3" font-family="Times,serif" font-size="14.00">Edge</text>
</g>
<!-- EdgeVote -->
<g id="node31" class="node"><title>EdgeVote</title>
<ellipse fill="none" stroke="black" cx="1505.24" cy="-91" rx="46.2923" ry="18"/>
<text text-anchor="middle" x="1505.24" y="-87.3" font-family="Times,serif" font-size="14.00">EdgeVote</text>
</g>
<!-- Edge&#45;&gt;EdgeVote -->
<g id="edge16" class="edge"><title>Edge&#45;&gt;EdgeVote</title>
<path fill="none" stroke="#51483d" d="M1443.22,-143.747C1449.69,-138.327 1456.74,-132.43 1463.24,-127 1468.21,-122.847 1473.52,-118.421 1478.63,-114.162"/>
<ellipse fill="none" stroke="#51483d" cx="1440.05" cy="-146.404" rx="4.00002" ry="4.00002"/>
<polygon fill="#51483d" stroke="#51483d" points="1478.74,-114.073 1489.3,-111.129 1482.58,-110.872 1486.42,-107.671 1486.42,-107.671 1486.42,-107.671 1482.58,-110.872 1483.54,-104.214 1478.74,-114.073 1478.74,-114.073"/>
</g>
<!-- Tagging -->
<g id="node8" class="node"><title>Tagging</title>
<ellipse fill="none" stroke="black" cx="899.243" cy="-164" rx="40.0939" ry="18"/>
<text text-anchor="middle" x="899.243" y="-160.3" font-family="Times,serif" font-size="14.00">Tagging</text>
</g>
<!-- ReferenceEdgeVote -->
<g id="node35" class="node"><title>ReferenceEdgeVote</title>
<ellipse fill="none" stroke="black" cx="81.2428" cy="-91" rx="81.4863" ry="18"/>
<text text-anchor="middle" x="81.2428" y="-87.3" font-family="Times,serif" font-size="14.00">ReferenceEdgeVote</text>
</g>
<!-- ReferenceEdge&#45;&gt;ReferenceEdgeVote -->
<g id="edge17" class="edge"><title>ReferenceEdge&#45;&gt;ReferenceEdgeVote</title>
<path fill="none" stroke="#b45b78" d="M241.374,-159.103C186.879,-154.753 117.294,-145.829 95.2428,-128 92.1954,-125.536 89.8098,-122.321 87.9426,-118.827"/>
<ellipse fill="none" stroke="#b45b78" cx="245.65" cy="-159.431" rx="4" ry="4"/>
<polygon fill="#b45b78" stroke="#b45b78" points="87.8248,-118.532 88.2908,-107.576 85.9686,-113.889 84.1124,-109.246 84.1124,-109.246 84.1124,-109.246 85.9686,-113.889 79.9339,-110.917 87.8248,-118.532 87.8248,-118.532"/>
</g>
<!-- Tag&#45;&gt;Tagging -->
<g id="edge18" class="edge"><title>Tag&#45;&gt;Tagging</title>
<path fill="none" stroke="#ad3c8a" d="M873.616,-311.926C879.176,-280.049 888.74,-225.214 894.48,-192.306"/>
<ellipse fill="none" stroke="#ad3c8a" cx="872.916" cy="-315.939" rx="4.00001" ry="4.00001"/>
<polygon fill="#ad3c8a" stroke="#ad3c8a" points="894.55,-191.903 900.702,-182.825 895.41,-186.977 896.269,-182.052 896.269,-182.052 896.269,-182.052 895.41,-186.977 891.836,-181.278 894.55,-191.903 894.55,-191.903"/>
</g>
<!-- Timeline -->
<g id="node20" class="node"><title>Timeline</title>
<ellipse fill="none" stroke="black" cx="1183.24" cy="-251" rx="42.7926" ry="18"/>
<text text-anchor="middle" x="1183.24" y="-247.3" font-family="Times,serif" font-size="14.00">Timeline</text>
</g>
<!-- Tag&#45;&gt;Timeline -->
<g id="edge19" class="edge"><title>Tag&#45;&gt;Timeline</title>
<path fill="none" stroke="#38b583" d="M903.665,-327.682C960.795,-312.217 1075.16,-281.258 1138.48,-264.117"/>
<polygon fill="#38b583" stroke="#38b583" points="903.534,-327.717 892.706,-325.987 898.708,-329.024 893.882,-330.33 893.882,-330.33 893.882,-330.33 898.708,-329.024 895.058,-334.674 903.534,-327.717 903.534,-327.717"/>
<polygon fill="#38b583" stroke="#38b583" points="1138.54,-264.102 1149.36,-265.833 1143.36,-262.796 1148.19,-261.489 1148.19,-261.489 1148.19,-261.489 1143.36,-262.796 1147.01,-257.145 1138.54,-264.102 1138.54,-264.102"/>
</g>
<!-- Tag&#45;&gt;ReferenceUserTag -->
<g id="edge20" class="edge"><title>Tag&#45;&gt;ReferenceUserTag</title>
<path fill="none" stroke="#1f032e" d="M834.175,-328.743C773.102,-314.363 646.471,-284.547 570.277,-266.606"/>
<polygon fill="#1f032e" stroke="#1f032e" points="834.411,-328.798 843.113,-335.471 839.278,-329.944 844.145,-331.09 844.145,-331.09 844.145,-331.09 839.278,-329.944 845.176,-326.71 834.411,-328.798 834.411,-328.798"/>
<polygon fill="#1f032e" stroke="#1f032e" points="570.064,-266.556 561.362,-259.884 565.197,-265.41 560.33,-264.264 560.33,-264.264 560.33,-264.264 565.197,-265.41 559.299,-268.645 570.064,-266.556 570.064,-266.556"/>
</g>
<!-- Comment&#45;&gt;Vote -->
<g id="edge21" class="edge"><title>Comment&#45;&gt;Vote</title>
<path fill="none" stroke="#f92434" d="M1193.33,-153.832C1177.68,-151.082 1160.27,-148.213 1144.24,-146 962.699,-120.93 744.295,-102.02 657.977,-94.9882"/>
<ellipse fill="none" stroke="#f92434" cx="1197.4" cy="-154.554" rx="4.00001" ry="4.00001"/>
<polygon fill="#f92434" stroke="#f92434" points="657.845,-94.9776 648.241,-89.6854 652.862,-94.5742 647.878,-94.1707 647.878,-94.1707 647.878,-94.1707 652.862,-94.5742 647.515,-98.656 657.845,-94.9776 657.845,-94.9776"/>
</g>
<!-- Comment&#45;&gt;NotificationSelection -->
<g id="edge24" class="edge"><title>Comment&#45;&gt;NotificationSelection</title>
<path fill="none" stroke="#c03b72" d="M1284.01,-149.438C1288.45,-148.19 1292.93,-147.016 1297.24,-146 1412.15,-118.967 1443.52,-126.576 1560.24,-109 1567.82,-107.86 1575.71,-106.585 1583.57,-105.26"/>
<ellipse fill="none" stroke="#c03b72" cx="1279.92" cy="-150.627" rx="4.00001" ry="4.00001"/>
<polygon fill="#c03b72" stroke="#c03b72" points="1583.63,-105.25 1594.25,-107.996 1588.56,-104.405 1593.49,-103.561 1593.49,-103.561 1593.49,-103.561 1588.56,-104.405 1592.73,-99.1252 1583.63,-105.25 1583.63,-105.25"/>
</g>
<!-- Comment&#45;&gt;Notification -->
<g id="edge23" class="edge"><title>Comment&#45;&gt;Notification</title>
<path fill="none" stroke="#9393fd" d="M1283.98,-149.299C1288.43,-148.079 1292.91,-146.948 1297.24,-146 1360.3,-132.197 1376.98,-133.103 1441.24,-127 1578.19,-113.994 1614.5,-131.311 1750.24,-109 1754.76,-108.257 1759.43,-107.315 1764.08,-106.257"/>
<ellipse fill="none" stroke="#9393fd" cx="1279.88" cy="-150.473" rx="4.00001" ry="4.00001"/>
<polygon fill="#9393fd" stroke="#9393fd" points="1764.44,-106.168 1775.23,-108.16 1769.3,-104.978 1774.16,-103.789 1774.16,-103.789 1774.16,-103.789 1769.3,-104.978 1773.08,-99.4181 1764.44,-106.168 1764.44,-106.168"/>
</g>
<!-- CommentJoin -->
<g id="node17" class="node"><title>CommentJoin</title>
<ellipse fill="none" stroke="black" cx="1238.24" cy="-91" rx="61.1893" ry="18"/>
<text text-anchor="middle" x="1238.24" y="-87.3" font-family="Times,serif" font-size="14.00">CommentJoin</text>
</g>
<!-- Comment&#45;&gt;CommentJoin -->
<g id="edge25" class="edge"><title>Comment&#45;&gt;CommentJoin</title>
<path fill="none" stroke="#ce4078" d="M1240.82,-137.791C1240.49,-131.832 1240.13,-125.45 1239.79,-119.399"/>
<ellipse fill="none" stroke="#ce4078" cx="1241.05" cy="-141.819" rx="4" ry="4"/>
<polygon fill="#ce4078" stroke="#ce4078" points="1239.76,-119.013 1243.7,-108.776 1239.48,-114.021 1239.2,-109.029 1239.2,-109.029 1239.2,-109.029 1239.48,-114.021 1234.71,-109.282 1239.76,-119.013 1239.76,-119.013"/>
</g>
<!-- Typo -->
<g id="node21" class="node"><title>Typo</title>
<ellipse fill="none" stroke="black" cx="1913.24" cy="-91" rx="29.4969" ry="18"/>
<text text-anchor="middle" x="1913.24" y="-87.3" font-family="Times,serif" font-size="14.00">Typo</text>
</g>
<!-- Comment&#45;&gt;Typo -->
<g id="edge26" class="edge"><title>Comment&#45;&gt;Typo</title>
<path fill="none" stroke="#659535" d="M1283.19,-149.189C1287.89,-147.949 1292.65,-146.846 1297.24,-146 1423.61,-122.756 1749.37,-139.236 1874.24,-109 1876.76,-108.392 1879.31,-107.632 1881.85,-106.773"/>
<ellipse fill="none" stroke="#659535" cx="1279.23" cy="-150.302" rx="4.00001" ry="4.00001"/>
<polygon fill="#659535" stroke="#659535" points="1882.1,-106.677 1893.05,-107.285 1886.77,-104.881 1891.43,-103.085 1891.43,-103.085 1891.43,-103.085 1886.77,-104.881 1889.82,-98.8857 1882.1,-106.677 1882.1,-106.677"/>
</g>
<!-- Comment&#45;&gt;Link -->
<g id="edge22" class="edge"><title>Comment&#45;&gt;Link</title>
<path fill="none" stroke="#69c219" d="M1191.37,-155.942C1165.86,-152.58 1134.45,-148.712 1106.24,-146 954.801,-131.442 479.135,-102.443 342.365,-94.2199"/>
<ellipse fill="none" stroke="#69c219" cx="1195.47" cy="-156.487" rx="4.00001" ry="4.00001"/>
<polygon fill="#69c219" stroke="#69c219" points="342.359,-94.2196 332.647,-89.1282 337.368,-93.9199 332.377,-93.6201 332.377,-93.6201 332.377,-93.6201 337.368,-93.9199 332.107,-98.112 342.359,-94.2196 342.359,-94.2196"/>
</g>
<!-- User -->
<g id="node14" class="node"><title>User</title>
<ellipse fill="none" stroke="black" cx="1626.24" cy="-505" rx="27.0966" ry="18"/>
<text text-anchor="middle" x="1626.24" y="-501.3" font-family="Times,serif" font-size="14.00">User</text>
</g>
<!-- User&#45;&gt;Vote -->
<g id="edge33" class="edge"><title>User&#45;&gt;Vote</title>
<path fill="none" stroke="#dbbc3e" d="M1610.69,-481.91C1605.03,-475.615 1598.08,-469.517 1590.24,-466 1530.46,-439.165 471.008,-455.881 411.243,-429 391.172,-419.973 395.843,-404.763 377.243,-393 332.221,-364.529 302.88,-391.587 263.243,-356 192.606,-292.581 161.158,-216.935 224.243,-146 247.886,-119.415 487.818,-100.768 582.301,-94.4028"/>
<ellipse fill="none" stroke="#dbbc3e" cx="1613.35" cy="-485.105" rx="4.00002" ry="4.00002"/>
<polygon fill="#dbbc3e" stroke="#dbbc3e" points="582.579,-94.3845 592.855,-98.212 587.568,-94.0532 592.557,-93.7219 592.557,-93.7219 592.557,-93.7219 587.568,-94.0532 592.259,-89.2318 582.579,-94.3845 582.579,-94.3845"/>
</g>
<!-- User&#45;&gt;NotificationSelection -->
<g id="edge39" class="edge"><title>User&#45;&gt;NotificationSelection</title>
<path fill="none" stroke="#7edeaa" d="M1638.92,-480.516C1666.11,-428.578 1729.19,-299.262 1749.24,-182 1751.94,-166.229 1757.26,-159.848 1749.24,-146 1740.34,-130.613 1725.21,-119.229 1709.65,-110.989"/>
<ellipse fill="none" stroke="#7edeaa" cx="1636.89" cy="-484.354" rx="4.00002" ry="4.00002"/>
<polygon fill="#7edeaa" stroke="#7edeaa" points="1709.47,-110.9 1702.48,-102.455 1704.98,-108.697 1700.49,-106.494 1700.49,-106.494 1700.49,-106.494 1704.98,-108.697 1698.51,-110.534 1709.47,-110.9 1709.47,-110.9"/>
</g>
<!-- User&#45;&gt;Notification -->
<g id="edge38" class="edge"><title>User&#45;&gt;Notification</title>
<path fill="none" stroke="#6c69a4" d="M1644.81,-482.845C1650.21,-477.137 1656.27,-471.127 1662.24,-466 1672.91,-456.85 1677.23,-456.733 1688.24,-448 1758.49,-392.293 1833.74,-337.936 1867.24,-269 1891.24,-219.637 1901.75,-195.598 1878.24,-146 1871.81,-132.435 1860.13,-121.145 1848.35,-112.455"/>
<ellipse fill="none" stroke="#6c69a4" cx="1641.97" cy="-485.926" rx="4.00002" ry="4.00002"/>
<polygon fill="#6c69a4" stroke="#6c69a4" points="1848.07,-112.263 1842.39,-102.885 1843.95,-109.427 1839.84,-106.592 1839.84,-106.592 1839.84,-106.592 1843.95,-109.427 1837.28,-110.298 1848.07,-112.263 1848.07,-112.263"/>
</g>
<!-- User&#45;&gt;Reference -->
<g id="edge28" class="edge"><title>User&#45;&gt;Reference</title>
<path fill="none" stroke="#dd4203" d="M1610.6,-482.112C1604.94,-475.828 1598,-469.686 1590.24,-466 1575.22,-458.86 1090.35,-426.495 924.346,-415.595"/>
<ellipse fill="none" stroke="#dd4203" cx="1613.26" cy="-485.288" rx="4.00002" ry="4.00002"/>
<polygon fill="#dd4203" stroke="#dd4203" points="924.324,-415.594 914.64,-410.449 919.335,-415.267 914.346,-414.939 914.346,-414.939 914.346,-414.939 919.335,-415.267 914.051,-419.43 924.324,-415.594 924.324,-415.594"/>
</g>
<!-- User&#45;&gt;VisiteReference -->
<g id="edge41" class="edge"><title>User&#45;&gt;VisiteReference</title>
<path fill="none" stroke="#efddc8" d="M1610.73,-481.833C1605.07,-475.534 1598.11,-469.452 1590.24,-466 1528.79,-439.021 447.826,-462.273 382.243,-448 366.937,-444.669 350.978,-438.384 337.25,-431.986"/>
<ellipse fill="none" stroke="#efddc8" cx="1613.38" cy="-485.035" rx="4.00002" ry="4.00002"/>
<polygon fill="#efddc8" stroke="#efddc8" points="337.139,-431.932 330.1,-423.523 332.639,-429.753 328.139,-427.573 328.139,-427.573 328.139,-427.573 332.639,-429.753 326.177,-431.623 337.139,-431.932 337.139,-431.932"/>
</g>
<!-- User&#45;&gt;Edge -->
<g id="edge51" class="edge"><title>User&#45;&gt;Edge</title>
<path fill="none" stroke="#0fc7eb" d="M1622.18,-478.562C1611.21,-412.924 1579.12,-240.175 1539.24,-200 1533.23,-193.941 1488.99,-181.956 1456.2,-173.714"/>
<ellipse fill="none" stroke="#0fc7eb" cx="1622.88" cy="-482.787" rx="4.00001" ry="4.00001"/>
<polygon fill="#0fc7eb" stroke="#0fc7eb" points="1456.15,-173.701 1447.54,-166.92 1451.3,-172.494 1446.45,-171.286 1446.45,-171.286 1446.45,-171.286 1451.3,-172.494 1445.36,-175.653 1456.15,-173.701 1456.15,-173.701"/>
</g>
<!-- User&#45;&gt;ReferenceEdge -->
<g id="edge53" class="edge"><title>User&#45;&gt;ReferenceEdge</title>
<path fill="none" stroke="#565b82" d="M1610.73,-481.826C1605.07,-475.526 1598.11,-469.446 1590.24,-466 1521.59,-435.926 315.176,-460.308 241.243,-448 214.485,-443.546 199.16,-450.964 183.243,-429 153.061,-387.354 250.466,-247.516 293.186,-190.015"/>
<ellipse fill="none" stroke="#565b82" cx="1613.38" cy="-485.029" rx="4.00002" ry="4.00002"/>
<polygon fill="#565b82" stroke="#565b82" points="293.316,-189.841 302.911,-184.532 296.312,-185.838 299.308,-181.835 299.308,-181.835 299.308,-181.835 296.312,-185.838 295.706,-179.139 293.316,-189.841 293.316,-189.841"/>
</g>
<!-- User&#45;&gt;Comment -->
<g id="edge29" class="edge"><title>User&#45;&gt;Comment</title>
<path fill="none" stroke="#37d24d" d="M1611.06,-481.372C1601.12,-466.512 1587.86,-446.633 1576.24,-429 1542.85,-378.297 1478.49,-232.546 1427.24,-200 1378,-168.732 1354.18,-194.654 1297.24,-182 1293.56,-181.182 1289.77,-180.236 1285.99,-179.218"/>
<ellipse fill="none" stroke="#37d24d" cx="1613.43" cy="-484.908" rx="4.00002" ry="4.00002"/>
<polygon fill="#37d24d" stroke="#37d24d" points="1285.66,-179.126 1277.28,-172.062 1280.85,-177.758 1276.05,-176.391 1276.05,-176.391 1276.05,-176.391 1280.85,-177.758 1274.81,-180.719 1285.66,-179.126 1285.66,-179.126"/>
</g>
<!-- User&#45;&gt;SummaryLink -->
<g id="edge32" class="edge"><title>User&#45;&gt;SummaryLink</title>
<path fill="none" stroke="#413008" d="M1610.68,-481.932C1605.02,-475.638 1598.07,-469.535 1590.24,-466 1564.2,-454.239 590.434,-433.663 562.243,-429 506.614,-419.8 367.388,-385.346 319.243,-356 273.348,-328.026 255.375,-318.836 235.243,-269 225.343,-244.495 221.362,-164.499 239.243,-146 244.458,-140.604 671.734,-109.349 843.198,-97.0091"/>
<ellipse fill="none" stroke="#413008" cx="1613.34" cy="-485.125" rx="4.00002" ry="4.00002"/>
<polygon fill="#413008" stroke="#413008" points="843.406,-96.9943 853.703,-100.765 848.393,-96.6356 853.381,-96.2769 853.381,-96.2769 853.381,-96.2769 848.393,-96.6356 853.058,-91.7885 843.406,-96.9943 843.406,-96.9943"/>
</g>
<!-- VisiteTimeline -->
<g id="node15" class="node"><title>VisiteTimeline</title>
<ellipse fill="none" stroke="black" cx="1229.24" cy="-411" rx="63.8893" ry="18"/>
<text text-anchor="middle" x="1229.24" y="-407.3" font-family="Times,serif" font-size="14.00">VisiteTimeline</text>
</g>
<!-- User&#45;&gt;VisiteTimeline -->
<g id="edge42" class="edge"><title>User&#45;&gt;VisiteTimeline</title>
<path fill="none" stroke="#919c8f" d="M1610.26,-481.944C1604.65,-475.771 1597.82,-469.735 1590.24,-466 1555.37,-448.821 1454.77,-453.171 1416.24,-448 1364.9,-441.109 1352.04,-439.18 1301.24,-429 1296.18,-427.985 1290.93,-426.869 1285.67,-425.709"/>
<ellipse fill="none" stroke="#919c8f" cx="1612.88" cy="-485.029" rx="4.00002" ry="4.00002"/>
<polygon fill="#919c8f" stroke="#919c8f" points="1285.37,-425.641 1276.61,-419.05 1280.5,-424.541 1275.62,-423.44 1275.62,-423.44 1275.62,-423.44 1280.5,-424.541 1274.63,-427.83 1285.37,-425.641 1285.37,-425.641"/>
</g>
<!-- UserDetail -->
<g id="node16" class="node"><title>UserDetail</title>
<ellipse fill="none" stroke="black" cx="1359.24" cy="-411" rx="48.9926" ry="18"/>
<text text-anchor="middle" x="1359.24" y="-407.3" font-family="Times,serif" font-size="14.00">UserDetail</text>
</g>
<!-- User&#45;&gt;UserDetail -->
<g id="edge56" class="edge"><title>User&#45;&gt;UserDetail</title>
<path fill="none" stroke="#6b7814" d="M1610.26,-481.961C1604.64,-475.789 1597.82,-469.749 1590.24,-466 1522.94,-432.691 1493.69,-471.118 1422.24,-448 1410.26,-444.124 1398.04,-437.788 1387.58,-431.503"/>
<ellipse fill="none" stroke="#6b7814" cx="1612.87" cy="-485.045" rx="4.00002" ry="4.00002"/>
<ellipse fill="#6b7814" stroke="#6b7814" cx="1384.05" cy="-429.305" rx="4.00002" ry="4.00002"/>
</g>
<!-- SuggestionVote -->
<g id="node19" class="node"><title>SuggestionVote</title>
<ellipse fill="none" stroke="black" cx="2280.24" cy="-91" rx="66.8882" ry="18"/>
<text text-anchor="middle" x="2280.24" y="-87.3" font-family="Times,serif" font-size="14.00">SuggestionVote</text>
</g>
<!-- User&#45;&gt;SuggestionVote -->
<g id="edge45" class="edge"><title>User&#45;&gt;SuggestionVote</title>
<path fill="none" stroke="#290f56" d="M1641.79,-481.91C1647.45,-475.616 1654.41,-469.517 1662.24,-466 1720.25,-439.959 2172.05,-461.248 2234.24,-448 2275.57,-439.196 2322.24,-454.257 2322.24,-412 2322.24,-412 2322.24,-412 2322.24,-163 2322.24,-145.848 2313.05,-129.205 2303.27,-116.348"/>
<ellipse fill="none" stroke="#290f56" cx="1639.14" cy="-485.106" rx="4.00002" ry="4.00002"/>
<polygon fill="#290f56" stroke="#290f56" points="2303.17,-116.226 2300.33,-105.634 2300,-112.353 2296.84,-108.479 2296.84,-108.479 2296.84,-108.479 2300,-112.353 2293.36,-111.325 2303.17,-116.226 2303.17,-116.226"/>
</g>
<!-- User&#45;&gt;Timeline -->
<g id="edge27" class="edge"><title>User&#45;&gt;Timeline</title>
<path fill="none" stroke="#35f67c" d="M1610.05,-482.355C1604.42,-476.201 1597.65,-470.073 1590.24,-466 1553.74,-445.922 1529.57,-475.471 1498.24,-448 1453.12,-408.43 1499.32,-360.724 1455.24,-320 1423.28,-290.467 1303.25,-269.014 1233.79,-258.762"/>
<ellipse fill="none" stroke="#35f67c" cx="1612.67" cy="-485.406" rx="4.00002" ry="4.00002"/>
<polygon fill="#35f67c" stroke="#35f67c" points="1233.4,-258.707 1224.15,-252.819 1228.46,-257.99 1223.51,-257.273 1223.51,-257.273 1223.51,-257.273 1228.46,-257.99 1222.86,-261.726 1233.4,-258.707 1233.4,-258.707"/>
</g>
<!-- User&#45;&gt;Typo -->
<g id="edge47" class="edge"><title>User&#45;&gt;Typo</title>
<path fill="none" stroke="#669640" d="M1641.87,-482.085C1647.54,-475.8 1654.48,-469.663 1662.24,-466 1722.4,-437.632 1917.96,-481.145 1959.24,-429 2042.66,-323.639 2048,-239.34 1974.24,-127 1970.44,-121.21 1958.03,-113.677 1945.38,-107.084"/>
<ellipse fill="none" stroke="#669640" cx="1639.22" cy="-485.264" rx="4.00002" ry="4.00002"/>
<polygon fill="#669640" stroke="#669640" points="1945.18,-106.984 1938.28,-98.4677 1940.72,-104.736 1936.25,-102.487 1936.25,-102.487 1936.25,-102.487 1940.72,-104.736 1934.23,-106.506 1945.18,-106.984 1945.18,-106.984"/>
</g>
<!-- User&#45;&gt;Typo -->
<g id="edge48" class="edge"><title>User&#45;&gt;Typo</title>
<path fill="none" stroke="#d9dcd4" d="M1643.91,-482.322C1649.36,-476.514 1655.68,-470.584 1662.24,-466 1679.3,-454.093 1730.69,-440.172 1748.24,-429 1828.2,-378.104 1850.18,-355.359 1889.24,-269 1911.54,-219.71 1914.59,-155.402 1914.28,-119.434"/>
<ellipse fill="none" stroke="#d9dcd4" cx="1641.03" cy="-485.53" rx="4.00002" ry="4.00002"/>
<polygon fill="#d9dcd4" stroke="#d9dcd4" points="1914.27,-119.227 1918.59,-109.146 1914.18,-114.228 1914.09,-109.229 1914.09,-109.229 1914.09,-109.229 1914.18,-114.228 1909.59,-109.312 1914.27,-119.227 1914.27,-119.227"/>
<text text-anchor="middle" x="1921.24" y="-290.8" font-family="Times,serif" font-size="14.00">received_typos</text>
</g>
<!-- SuggestionChild -->
<g id="node24" class="node"><title>SuggestionChild</title>
<ellipse fill="none" stroke="black" cx="2434.24" cy="-91" rx="69.5877" ry="18"/>
<text text-anchor="middle" x="2434.24" y="-87.3" font-family="Times,serif" font-size="14.00">SuggestionChild</text>
</g>
<!-- User&#45;&gt;SuggestionChild -->
<g id="edge44" class="edge"><title>User&#45;&gt;SuggestionChild</title>
<path fill="none" stroke="#80a3b5" d="M1641.79,-481.906C1647.45,-475.611 1654.41,-469.514 1662.24,-466 1721.89,-439.257 2185.4,-456.248 2250.24,-448 2320.4,-439.076 2405.24,-482.723 2405.24,-412 2405.24,-412 2405.24,-412 2405.24,-163 2405.24,-147.25 2411.43,-130.896 2418.1,-117.859"/>
<ellipse fill="none" stroke="#80a3b5" cx="1639.14" cy="-485.102" rx="4.00002" ry="4.00002"/>
<polygon fill="#80a3b5" stroke="#80a3b5" points="2418.14,-117.777 2426.89,-111.172 2420.54,-113.393 2422.95,-109.009 2422.95,-109.009 2422.95,-109.009 2420.54,-113.393 2419,-106.845 2418.14,-117.777 2418.14,-117.777"/>
</g>
<!-- User&#45;&gt;ReferenceUserTag -->
<g id="edge55" class="edge"><title>User&#45;&gt;ReferenceUserTag</title>
<path fill="none" stroke="#855781" d="M1610.73,-481.832C1605.07,-475.533 1598.11,-469.452 1590.24,-466 1528.48,-438.889 443.533,-452.663 376.243,-448 307.884,-443.263 268.612,-480.351 223.243,-429 131.537,-325.201 144.877,-454.986 430.243,-302 445.826,-293.646 462.407,-283.248 476.257,-274.101"/>
<ellipse fill="none" stroke="#855781" cx="1613.38" cy="-485.035" rx="4.00002" ry="4.00002"/>
<polygon fill="#855781" stroke="#855781" points="476.613,-273.863 487.427,-272.046 480.769,-271.084 484.926,-268.305 484.926,-268.305 484.926,-268.305 480.769,-271.084 482.425,-264.564 476.613,-273.863 476.613,-273.863"/>
</g>
<!-- Frame -->
<g id="node26" class="node"><title>Frame</title>
<ellipse fill="none" stroke="black" cx="1835.24" cy="-164" rx="33.5952" ry="18"/>
<text text-anchor="middle" x="1835.24" y="-160.3" font-family="Times,serif" font-size="14.00">Frame</text>
</g>
<!-- User&#45;&gt;Frame -->
<g id="edge49" class="edge"><title>User&#45;&gt;Frame</title>
<path fill="none" stroke="#2492f0" d="M1642.21,-481.923C1647.83,-475.75 1654.65,-469.718 1662.24,-466 1718.8,-438.293 1903.12,-477.552 1943.24,-429 1953.43,-416.666 1947.6,-408.395 1943.24,-393 1925.64,-330.805 1893.7,-327.977 1867.24,-269 1855.88,-243.671 1847.02,-213.152 1841.53,-191.747"/>
<ellipse fill="none" stroke="#2492f0" cx="1639.6" cy="-485.01" rx="4.00002" ry="4.00002"/>
<polygon fill="#2492f0" stroke="#2492f0" points="1841.53,-191.738 1843.48,-180.947 1840.32,-186.886 1839.11,-182.035 1839.11,-182.035 1839.11,-182.035 1840.32,-186.886 1834.74,-183.122 1841.53,-191.738 1841.53,-191.738"/>
</g>
<!-- User&#45;&gt;ReferenceContributor -->
<g id="edge36" class="edge"><title>User&#45;&gt;ReferenceContributor</title>
<path fill="none" stroke="#61ed5b" d="M1610.19,-482.102C1604.56,-475.937 1597.76,-469.865 1590.24,-466 1538.37,-439.324 1510.79,-477.105 1460.24,-448 1433.35,-432.518 1438.22,-415.865 1417.24,-393 1407.7,-382.6 1396.5,-371.865 1386.49,-362.732"/>
<ellipse fill="none" stroke="#61ed5b" cx="1612.8" cy="-485.174" rx="4.00002" ry="4.00002"/>
<polygon fill="#61ed5b" stroke="#61ed5b" points="1386.21,-362.48 1381.79,-352.444 1382.49,-359.134 1378.78,-355.789 1378.78,-355.789 1378.78,-355.789 1382.49,-359.134 1375.77,-359.133 1386.21,-362.48 1386.21,-362.48"/>
</g>
<!-- SuggestionChildVote -->
<g id="node28" class="node"><title>SuggestionChildVote</title>
<ellipse fill="none" stroke="black" cx="2582.24" cy="-18" rx="86.3847" ry="18"/>
<text text-anchor="middle" x="2582.24" y="-14.3" font-family="Times,serif" font-size="14.00">SuggestionChildVote</text>
</g>
<!-- User&#45;&gt;SuggestionChildVote -->
<g id="edge46" class="edge"><title>User&#45;&gt;SuggestionChildVote</title>
<path fill="none" stroke="#d8a4cd" d="M1641.78,-481.879C1647.44,-475.583 1654.4,-469.491 1662.24,-466 1699.1,-449.6 2348.01,-450.974 2388.24,-448 2475.7,-441.536 2582.24,-499.694 2582.24,-412 2582.24,-412 2582.24,-412 2582.24,-90 2582.24,-75.6513 2582.24,-59.6715 2582.24,-46.5107"/>
<ellipse fill="none" stroke="#d8a4cd" cx="1639.13" cy="-485.077" rx="4.00002" ry="4.00002"/>
<polygon fill="#d8a4cd" stroke="#d8a4cd" points="2582.24,-46.2164 2586.74,-36.2163 2582.24,-41.2164 2582.24,-36.2164 2582.24,-36.2164 2582.24,-36.2164 2582.24,-41.2164 2577.74,-36.2164 2582.24,-46.2164 2582.24,-46.2164"/>
</g>
<!-- User&#45;&gt;EdgeVote -->
<g id="edge52" class="edge"><title>User&#45;&gt;EdgeVote</title>
<path fill="none" stroke="#43a3df" d="M1646.47,-483.307C1659.43,-469.055 1675.73,-449.122 1686.24,-429 1744.81,-316.892 1794.68,-245.221 1716.24,-146 1672.05,-90.1014 1628.99,-127.754 1560.24,-109 1556.71,-108.036 1553.06,-106.999 1549.4,-105.931"/>
<ellipse fill="none" stroke="#43a3df" cx="1643.5" cy="-486.504" rx="4.00002" ry="4.00002"/>
<polygon fill="#43a3df" stroke="#43a3df" points="1549.34,-105.914 1541.05,-98.7432 1544.55,-104.485 1539.76,-103.055 1539.76,-103.055 1539.76,-103.055 1544.55,-104.485 1538.47,-107.368 1549.34,-105.914 1549.34,-105.914"/>
</g>
<!-- NotificationSuggestion -->
<g id="node32" class="node"><title>NotificationSuggestion</title>
<ellipse fill="none" stroke="black" cx="2385.24" cy="-18" rx="92.0841" ry="18"/>
<text text-anchor="middle" x="2385.24" y="-14.3" font-family="Times,serif" font-size="14.00">NotificationSuggestion</text>
</g>
<!-- User&#45;&gt;NotificationSuggestion -->
<g id="edge40" class="edge"><title>User&#45;&gt;NotificationSuggestion</title>
<path fill="none" stroke="#6230b8" d="M1641.79,-481.898C1647.45,-475.602 1654.4,-469.507 1662.24,-466 1725.66,-437.633 2218.03,-453.996 2287.24,-448 2342.07,-443.251 2532.24,-467.029 2532.24,-412 2532.24,-412 2532.24,-412 2532.24,-90 2532.24,-58.151 2503.92,-40.5822 2472.13,-30.8935"/>
<ellipse fill="none" stroke="#6230b8" cx="1639.13" cy="-485.094" rx="4.00002" ry="4.00002"/>
<polygon fill="#6230b8" stroke="#6230b8" points="2471.82,-30.8072 2463.39,-23.7965 2467,-29.4699 2462.19,-28.1326 2462.19,-28.1326 2462.19,-28.1326 2467,-29.4699 2460.98,-32.4687 2471.82,-30.8072 2471.82,-30.8072"/>
</g>
<!-- Invitation -->
<g id="node33" class="node"><title>Invitation</title>
<ellipse fill="none" stroke="black" cx="1889.24" cy="-411" rx="44.6926" ry="18"/>
<text text-anchor="middle" x="1889.24" y="-407.3" font-family="Times,serif" font-size="14.00">Invitation</text>
</g>
<!-- User&#45;&gt;Invitation -->
<g id="edge58" class="edge"><title>User&#45;&gt;Invitation</title>
<path fill="none" stroke="#fd58b8" d="M1642.23,-481.961C1647.85,-475.789 1654.67,-469.749 1662.24,-466 1729.55,-432.691 1759.14,-472.142 1830.24,-448 1840.83,-444.404 1851.53,-438.654 1860.86,-432.796"/>
<ellipse fill="none" stroke="#fd58b8" cx="1639.62" cy="-485.045" rx="4.00002" ry="4.00002"/>
<polygon fill="#fd58b8" stroke="#fd58b8" points="1860.98,-432.715 1871.81,-430.969 1865.16,-429.964 1869.33,-427.212 1869.33,-427.212 1869.33,-427.212 1865.16,-429.964 1866.86,-423.455 1860.98,-432.715 1860.98,-432.715"/>
</g>
<!-- Credit -->
<g id="node34" class="node"><title>Credit</title>
<ellipse fill="none" stroke="black" cx="1994.24" cy="-91" rx="32.4942" ry="18"/>
<text text-anchor="middle" x="1994.24" y="-87.3" font-family="Times,serif" font-size="14.00">Credit</text>
</g>
<!-- User&#45;&gt;Credit -->
<g id="edge34" class="edge"><title>User&#45;&gt;Credit</title>
<path fill="none" stroke="#376cb6" d="M1641.83,-481.992C1647.49,-475.702 1654.44,-469.586 1662.24,-466 1760.86,-420.685 2078.75,-511.528 2149.24,-429 2235.68,-327.802 2081.55,-170.374 2018.93,-113.451"/>
<ellipse fill="none" stroke="#376cb6" cx="1639.18" cy="-485.18" rx="4.00002" ry="4.00002"/>
<polygon fill="#376cb6" stroke="#376cb6" points="2018.86,-113.392 2014.43,-103.363 2015.14,-110.052 2011.42,-106.711 2011.42,-106.711 2011.42,-106.711 2015.14,-110.052 2008.41,-110.06 2018.86,-113.392 2018.86,-113.392"/>
</g>
<!-- User&#45;&gt;ReferenceEdgeVote -->
<g id="edge54" class="edge"><title>User&#45;&gt;ReferenceEdgeVote</title>
<path fill="none" stroke="#d890c8" d="M1610.73,-481.821C1605.08,-475.521 1598.11,-469.442 1590.24,-466 1515.93,-433.489 209.176,-466.695 130.243,-448 94.653,-439.571 56.2428,-448.574 56.2428,-412 56.2428,-412 56.2428,-412 56.2428,-163 56.2428,-147.588 61.5488,-131.307 67.2718,-118.229"/>
<ellipse fill="none" stroke="#d890c8" cx="1613.39" cy="-485.024" rx="4.00002" ry="4.00002"/>
<polygon fill="#d890c8" stroke="#d890c8" points="67.3937,-117.97 75.721,-110.835 69.5211,-113.445 71.6486,-108.921 71.6486,-108.921 71.6486,-108.921 69.5211,-113.445 67.5763,-107.006 67.3937,-117.97 67.3937,-117.97"/>
</g>
<!-- PendingUser -->
<g id="node36" class="node"><title>PendingUser</title>
<ellipse fill="none" stroke="black" cx="2084.24" cy="-411" rx="55.7903" ry="18"/>
<text text-anchor="middle" x="2084.24" y="-407.3" font-family="Times,serif" font-size="14.00">PendingUser</text>
</g>
<!-- User&#45;&gt;PendingUser -->
<g id="edge57" class="edge"><title>User&#45;&gt;PendingUser</title>
<path fill="none" stroke="#cc75d1" d="M1641.84,-482.002C1647.5,-475.712 1654.44,-469.594 1662.24,-466 1733.38,-433.224 1938.61,-468.367 2014.24,-448 2027.79,-444.351 2041.74,-437.837 2053.58,-431.344"/>
<ellipse fill="none" stroke="#cc75d1" cx="1639.18" cy="-485.189" rx="4.00002" ry="4.00002"/>
<ellipse fill="#cc75d1" stroke="#cc75d1" cx="2057.17" cy="-429.302" rx="4.00002" ry="4.00002"/>
</g>
<!-- TimelineContributor -->
<g id="node37" class="node"><title>TimelineContributor</title>
<ellipse fill="none" stroke="black" cx="757.243" cy="-164" rx="83.6854" ry="18"/>
<text text-anchor="middle" x="757.243" y="-160.3" font-family="Times,serif" font-size="14.00">TimelineContributor</text>
</g>
<!-- User&#45;&gt;TimelineContributor -->
<g id="edge35" class="edge"><title>User&#45;&gt;TimelineContributor</title>
<path fill="none" stroke="#0ece73" d="M1610.66,-481.986C1605,-475.695 1598.05,-469.58 1590.24,-466 1551.01,-448.007 856.923,-435.415 814.243,-429 684.94,-409.564 609.414,-459.294 529.243,-356 519.433,-343.36 521.757,-334.141 529.243,-320 534.632,-309.819 660.876,-227.281 723.142,-186.981"/>
<ellipse fill="none" stroke="#0ece73" cx="1613.31" cy="-485.174" rx="4.00002" ry="4.00002"/>
<polygon fill="#0ece73" stroke="#0ece73" points="723.446,-186.785 734.287,-185.134 727.644,-184.07 731.843,-181.355 731.843,-181.355 731.843,-181.355 727.644,-184.07 729.4,-177.576 723.446,-186.785 723.446,-186.785"/>
</g>
<!-- User&#45;&gt;Figure -->
<g id="edge59" class="edge"><title>User&#45;&gt;Figure</title>
<path fill="none" stroke="#75cbf5" d="M1616.86,-479.576C1590.9,-413.432 1516.66,-233.541 1464.24,-200 1432.82,-179.888 1417.88,-193.039 1382.24,-182 1379.96,-181.293 1377.63,-180.515 1375.29,-179.691"/>
<ellipse fill="none" stroke="#75cbf5" cx="1618.46" cy="-483.692" rx="4.00001" ry="4.00001"/>
<polygon fill="#75cbf5" stroke="#75cbf5" points="1375.13,-179.63 1367.34,-171.911 1370.44,-177.878 1365.76,-176.125 1365.76,-176.125 1365.76,-176.125 1370.44,-177.878 1364.18,-180.34 1375.13,-179.63 1375.13,-179.63"/>
</g>
<!-- FrameCredit -->
<g id="node40" class="node"><title>FrameCredit</title>
<ellipse fill="none" stroke="black" cx="2101.24" cy="-91" rx="55.7903" ry="18"/>
<text text-anchor="middle" x="2101.24" y="-87.3" font-family="Times,serif" font-size="14.00">FrameCredit</text>
</g>
<!-- User&#45;&gt;FrameCredit -->
<g id="edge50" class="edge"><title>User&#45;&gt;FrameCredit</title>
<path fill="none" stroke="#e2c997" d="M1641.81,-481.94C1647.47,-475.647 1654.42,-469.542 1662.24,-466 1758.67,-422.344 2036.16,-475.986 2138.24,-448 2155.31,-443.32 2162.34,-442.944 2173.24,-429 2247.9,-333.511 2159.29,-178.092 2119.08,-117.408"/>
<ellipse fill="none" stroke="#e2c997" cx="1639.15" cy="-485.132" rx="4.00002" ry="4.00002"/>
<polygon fill="#e2c997" stroke="#e2c997" points="2118.89,-117.124 2117.03,-106.317 2116.09,-112.978 2113.3,-108.833 2113.3,-108.833 2113.3,-108.833 2116.09,-112.978 2109.57,-111.348 2118.89,-117.124 2118.89,-117.124"/>
</g>
<!-- Like -->
<g id="node43" class="node"><title>Like</title>
<ellipse fill="none" stroke="black" cx="1680.24" cy="-164" rx="27" ry="18"/>
<text text-anchor="middle" x="1680.24" y="-160.3" font-family="Times,serif" font-size="14.00">Like</text>
</g>
<!-- User&#45;&gt;Like -->
<g id="edge37" class="edge"><title>User&#45;&gt;Like</title>
<path fill="none" stroke="#d735bf" d="M1632.81,-478.874C1635.25,-469.243 1637.98,-458.136 1640.24,-448 1663.27,-344.989 1675.97,-320.053 1686.24,-215 1686.97,-207.548 1686.54,-199.486 1685.65,-192.057"/>
<ellipse fill="none" stroke="#d735bf" cx="1631.75" cy="-483.021" rx="4.00001" ry="4.00001"/>
<polygon fill="#d735bf" stroke="#d735bf" points="1685.64,-191.992 1688.59,-181.432 1684.89,-187.048 1684.14,-182.104 1684.14,-182.104 1684.14,-182.104 1684.89,-187.048 1679.69,-182.776 1685.64,-191.992 1685.64,-191.992"/>
</g>
<!-- User&#45;&gt;Link -->
<g id="edge31" class="edge"><title>User&#45;&gt;Link</title>
<path fill="none" stroke="#72a860" d="M1610.73,-481.825C1605.07,-475.525 1598.11,-469.445 1590.24,-466 1521.03,-435.684 304.98,-459.135 230.243,-448 173.483,-439.544 106.243,-469.387 106.243,-412 106.243,-412 106.243,-412 106.243,-206.5 106.243,-132.578 210.681,-105.669 268.239,-96.4521"/>
<ellipse fill="none" stroke="#72a860" cx="1613.38" cy="-485.028" rx="4.00002" ry="4.00002"/>
<polygon fill="#72a860" stroke="#72a860" points="268.515,-96.4108 279.071,-99.3799 273.46,-95.6702 278.405,-94.9296 278.405,-94.9296 278.405,-94.9296 273.46,-95.6702 277.738,-90.4792 268.515,-96.4108 268.515,-96.4108"/>
</g>
<!-- Suggestion -->
<g id="node45" class="node"><title>Suggestion</title>
<ellipse fill="none" stroke="black" cx="2244.24" cy="-164" rx="50.0912" ry="18"/>
<text text-anchor="middle" x="2244.24" y="-160.3" font-family="Times,serif" font-size="14.00">Suggestion</text>
</g>
<!-- User&#45;&gt;Suggestion -->
<g id="edge43" class="edge"><title>User&#45;&gt;Suggestion</title>
<path fill="none" stroke="#7460ae" d="M1641.8,-481.914C1647.45,-475.619 1654.41,-469.52 1662.24,-466 1718.82,-440.574 2166.03,-478.148 2220.24,-448 2237.05,-438.654 2244.24,-431.23 2244.24,-412 2244.24,-412 2244.24,-412 2244.24,-250 2244.24,-230.753 2244.24,-209.054 2244.24,-192.397"/>
<ellipse fill="none" stroke="#7460ae" cx="1639.14" cy="-485.109" rx="4.00002" ry="4.00002"/>
<polygon fill="#7460ae" stroke="#7460ae" points="2244.24,-192.256 2248.74,-182.256 2244.24,-187.256 2244.24,-182.256 2244.24,-182.256 2244.24,-182.256 2244.24,-187.256 2239.74,-182.256 2244.24,-192.256 2244.24,-192.256"/>
</g>
<!-- Summary -->
<g id="node46" class="node"><title>Summary</title>
<ellipse fill="none" stroke="black" cx="1551.24" cy="-164" rx="46.2923" ry="18"/>
<text text-anchor="middle" x="1551.24" y="-160.3" font-family="Times,serif" font-size="14.00">Summary</text>
</g>
<!-- User&#45;&gt;Summary -->
<g id="edge30" class="edge"><title>User&#45;&gt;Summary</title>
<path fill="none" stroke="#0e6759" d="M1627.85,-478.911C1629.91,-438.231 1631.86,-355.524 1619.24,-287 1611.83,-246.776 1611.63,-234.229 1589.24,-200 1586.37,-195.609 1582.83,-191.397 1579.07,-187.512"/>
<ellipse fill="none" stroke="#0e6759" cx="1627.63" cy="-482.94" rx="4" ry="4"/>
<polygon fill="#0e6759" stroke="#0e6759" points="1578.93,-187.383 1574.8,-177.225 1575.31,-183.932 1571.7,-180.482 1571.7,-180.482 1571.7,-180.482 1575.31,-183.932 1568.59,-183.738 1578.93,-187.383 1578.93,-187.383"/>
</g>
<!-- Newsletter -->
<g id="node18" class="node"><title>Newsletter</title>
<ellipse fill="none" stroke="black" cx="1720.24" cy="-505" rx="48.9926" ry="18"/>
<text text-anchor="middle" x="1720.24" y="-501.3" font-family="Times,serif" font-size="14.00">Newsletter</text>
</g>
<!-- Timeline&#45;&gt;Vote -->
<g id="edge69" class="edge"><title>Timeline&#45;&gt;Vote</title>
<path fill="none" stroke="#648479" d="M1168.84,-226.26C1151.57,-198.634 1122.87,-155.564 1106.24,-146 1086.82,-134.824 768.697,-105.338 657.92,-95.3574"/>
<ellipse fill="none" stroke="#648479" cx="1171.07" cy="-229.862" rx="4.00002" ry="4.00002"/>
<polygon fill="#648479" stroke="#648479" points="657.823,-95.3488 648.266,-89.9717 652.843,-94.9013 647.863,-94.4537 647.863,-94.4537 647.863,-94.4537 652.843,-94.9013 647.461,-98.9356 657.823,-95.3488 657.823,-95.3488"/>
</g>
<!-- Timeline&#45;&gt;Notification -->
<g id="edge66" class="edge"><title>Timeline&#45;&gt;Notification</title>
<path fill="none" stroke="#d94204" d="M1234.01,-248.703C1302.46,-246.08 1419.87,-238.239 1455.24,-215 1485.06,-195.412 1466.59,-165.836 1496.24,-146 1591.06,-82.5632 1638.58,-132.35 1750.24,-109 1754.6,-108.089 1759.11,-107.049 1763.61,-105.942"/>
<ellipse fill="none" stroke="#d94204" cx="1229.91" cy="-248.852" rx="4" ry="4"/>
<polygon fill="#d94204" stroke="#d94204" points="1763.71,-105.917 1774.51,-107.797 1768.55,-104.677 1773.39,-103.438 1773.39,-103.438 1773.39,-103.438 1768.55,-104.677 1772.28,-99.078 1763.71,-105.917 1763.71,-105.917"/>
</g>
<!-- Timeline&#45;&gt;Reference -->
<g id="edge61" class="edge"><title>Timeline&#45;&gt;Reference</title>
<path fill="none" stroke="#f922c7" d="M1181.99,-277.489C1179.39,-301.345 1171.7,-336.194 1149.24,-356 1116.55,-384.829 996.354,-399.547 924.501,-405.927"/>
<ellipse fill="none" stroke="#f922c7" cx="1182.37" cy="-273.23" rx="4" ry="4"/>
<polygon fill="#f922c7" stroke="#f922c7" points="924.23,-405.95 913.881,-402.325 919.248,-406.379 914.267,-406.808 914.267,-406.808 914.267,-406.808 919.248,-406.379 914.653,-411.292 924.23,-405.95 924.23,-405.95"/>
</g>
<!-- Timeline&#45;&gt;Edge -->
<g id="edge70" class="edge"><title>Timeline&#45;&gt;Edge</title>
<path fill="none" stroke="#e96380" d="M1234.5,-250.6C1301.45,-250.16 1413.22,-244.82 1439.24,-215 1445.75,-207.548 1443.55,-197.643 1438.77,-188.616"/>
<ellipse fill="none" stroke="#e96380" cx="1230.16" cy="-250.616" rx="4" ry="4"/>
<polygon fill="#e96380" stroke="#e96380" points="1438.67,-188.468 1437.16,-177.608 1436.01,-184.236 1433.35,-180.004 1433.35,-180.004 1433.35,-180.004 1436.01,-184.236 1429.54,-182.4 1438.67,-188.468 1438.67,-188.468"/>
</g>
<!-- Timeline&#45;&gt;Edge -->
<g id="edge71" class="edge"><title>Timeline&#45;&gt;Edge</title>
<path fill="none" stroke="#d92ac2" d="M1230.46,-241.687C1259.02,-235.887 1295.86,-227.022 1327.24,-215 1349.84,-206.344 1373.86,-193.322 1391.82,-182.737"/>
<ellipse fill="none" stroke="#d92ac2" cx="1226.18" cy="-242.537" rx="4.00001" ry="4.00001"/>
<polygon fill="#d92ac2" stroke="#d92ac2" points="1392.05,-182.601 1402.94,-181.32 1396.34,-180.031 1400.63,-177.46 1400.63,-177.46 1400.63,-177.46 1396.34,-180.031 1398.31,-173.6 1392.05,-182.601 1392.05,-182.601"/>
<text text-anchor="middle" x="1390.74" y="-203.8" font-family="Times,serif" font-size="14.00">edges_from</text>
</g>
<!-- Timeline&#45;&gt;Tagging -->
<g id="edge75" class="edge"><title>Timeline&#45;&gt;Tagging</title>
<path fill="none" stroke="#093aa9" d="M1135.24,-242.53C1101.51,-236.656 1055.57,-227.392 1016.24,-215 988.037,-206.113 957.335,-192.847 934.461,-182.213"/>
<ellipse fill="none" stroke="#093aa9" cx="1139.6" cy="-243.275" rx="4.00001" ry="4.00001"/>
<polygon fill="#093aa9" stroke="#093aa9" points="934.215,-182.097 927.084,-173.765 929.691,-179.967 925.167,-177.837 925.167,-177.837 925.167,-177.837 929.691,-179.967 923.25,-181.908 934.215,-182.097 934.215,-182.097"/>
</g>
<!-- Timeline&#45;&gt;ReferenceEdge -->
<g id="edge72" class="edge"><title>Timeline&#45;&gt;ReferenceEdge</title>
<path fill="none" stroke="#bb49f5" d="M1132.63,-248.154C1006.12,-243.004 666.151,-225.869 386.243,-182 380.403,-181.085 374.338,-179.968 368.307,-178.75"/>
<ellipse fill="none" stroke="#bb49f5" cx="1136.66" cy="-248.315" rx="4" ry="4"/>
<polygon fill="#bb49f5" stroke="#bb49f5" points="368.017,-178.688 359.164,-172.217 363.125,-177.654 358.233,-176.619 358.233,-176.619 358.233,-176.619 363.125,-177.654 357.302,-181.022 368.017,-178.688 368.017,-178.688"/>
</g>
<!-- Timeline&#45;&gt;Rating -->
<g id="edge63" class="edge"><title>Timeline&#45;&gt;Rating</title>
<path fill="none" stroke="#b4f8e1" d="M1133.9,-244.899C1105.09,-240.271 1068.88,-231.51 1040.24,-215 1028.95,-208.493 1018.63,-198.545 1010.47,-189.231"/>
<ellipse fill="none" stroke="#b4f8e1" cx="1137.86" cy="-245.499" rx="4.00001" ry="4.00001"/>
<polygon fill="#b4f8e1" stroke="#b4f8e1" points="1010.28,-189.003 1007.35,-178.436 1007.08,-185.158 1003.89,-181.312 1003.89,-181.312 1003.89,-181.312 1007.08,-185.158 1000.43,-184.189 1010.28,-189.003 1010.28,-189.003"/>
</g>
<!-- Timeline&#45;&gt;Comment -->
<g id="edge64" class="edge"><title>Timeline&#45;&gt;Comment</title>
<path fill="none" stroke="#53e44a" d="M1187.06,-224.624C1189.14,-216.288 1192.34,-207.296 1197.24,-200 1200.64,-194.947 1205,-190.302 1209.66,-186.16"/>
<ellipse fill="none" stroke="#53e44a" cx="1186.17" cy="-228.746" rx="4.00001" ry="4.00001"/>
<polygon fill="#53e44a" stroke="#53e44a" points="1209.91,-185.963 1220.51,-183.184 1213.8,-182.823 1217.69,-179.682 1217.69,-179.682 1217.69,-179.682 1213.8,-182.823 1214.86,-176.18 1209.91,-185.963 1209.91,-185.963"/>
</g>
<!-- Timeline&#45;&gt;SummaryLink -->
<g id="edge68" class="edge"><title>Timeline&#45;&gt;SummaryLink</title>
<path fill="none" stroke="#7ea5be" d="M1180.51,-224.625C1176.58,-200.853 1167.08,-166.063 1144.24,-146 1119.97,-124.672 1038.66,-109.201 979.354,-100.421"/>
<ellipse fill="none" stroke="#7ea5be" cx="1181.14" cy="-228.879" rx="4.00001" ry="4.00001"/>
<polygon fill="#7ea5be" stroke="#7ea5be" points="979.195,-100.398 969.943,-94.5106 974.246,-99.681 969.298,-98.9642 969.298,-98.9642 969.298,-98.9642 974.246,-99.681 968.653,-103.418 979.195,-100.398 979.195,-100.398"/>
</g>
<!-- Timeline&#45;&gt;Frame -->
<g id="edge74" class="edge"><title>Timeline&#45;&gt;Frame</title>
<path fill="none" stroke="#d45ea7" d="M1233.93,-247.142C1308.97,-242.537 1453.94,-232.205 1576.24,-215 1654.09,-204.048 1744,-185.3 1794.79,-174.137"/>
<ellipse fill="none" stroke="#d45ea7" cx="1229.56" cy="-247.407" rx="4" ry="4"/>
<polygon fill="#d45ea7" stroke="#d45ea7" points="1794.95,-174.102 1805.68,-176.336 1799.83,-173.022 1804.71,-171.942 1804.71,-171.942 1804.71,-171.942 1799.83,-173.022 1803.74,-167.549 1794.95,-174.102 1794.95,-174.102"/>
</g>
<!-- Timeline&#45;&gt;ReferenceEdgeVote -->
<g id="edge73" class="edge"><title>Timeline&#45;&gt;ReferenceEdgeVote</title>
<path fill="none" stroke="#6522d9" d="M1151.75,-232.152C1142.24,-226.701 1131.79,-220.652 1122.24,-215 1098.04,-200.666 1089.96,-199.875 1068.24,-182 1051.48,-168.206 1054.89,-155.217 1035.24,-146 996.67,-127.908 311.746,-111.947 269.243,-109 234.577,-106.597 196.377,-103.268 163.516,-100.192"/>
<ellipse fill="none" stroke="#6522d9" cx="1155.34" cy="-234.203" rx="4.00002" ry="4.00002"/>
<polygon fill="#6522d9" stroke="#6522d9" points="163.455,-100.187 153.921,-94.7672 158.477,-99.717 153.499,-99.2474 153.499,-99.2474 153.499,-99.2474 158.477,-99.717 153.076,-103.727 163.455,-100.187 163.455,-100.187"/>
</g>
<!-- Timeline&#45;&gt;TimelineContributor -->
<g id="edge60" class="edge"><title>Timeline&#45;&gt;TimelineContributor</title>
<path fill="none" stroke="#a5c0fc" d="M1135.43,-242.964C1092.56,-236.442 1028.01,-226.098 972.243,-215 920.462,-204.695 862.147,-191.001 819.326,-180.55"/>
<ellipse fill="none" stroke="#a5c0fc" cx="1139.48" cy="-243.577" rx="4.00001" ry="4.00001"/>
<polygon fill="#a5c0fc" stroke="#a5c0fc" points="819.325,-180.55 810.683,-173.799 814.469,-179.36 809.612,-178.17 809.612,-178.17 809.612,-178.17 814.469,-179.36 808.541,-182.54 819.325,-180.55 819.325,-180.55"/>
</g>
<!-- Timeline&#45;&gt;Figure -->
<g id="edge77" class="edge"><title>Timeline&#45;&gt;Figure</title>
<path fill="none" stroke="#d22a0e" d="M1196.71,-226.427C1203.26,-216.902 1211.96,-206.617 1222.24,-200 1251.07,-181.445 1264.56,-192.327 1297.24,-182 1299.81,-181.189 1302.44,-180.299 1305.08,-179.364"/>
<ellipse fill="none" stroke="#d22a0e" cx="1194.5" cy="-229.813" rx="4.00002" ry="4.00002"/>
<polygon fill="#d22a0e" stroke="#d22a0e" points="1305.16,-179.333 1316.1,-180.064 1309.85,-177.59 1314.53,-175.846 1314.53,-175.846 1314.53,-175.846 1309.85,-177.59 1312.96,-171.629 1305.16,-179.333 1305.16,-179.333"/>
</g>
<!-- Timeline&#45;&gt;Figure -->
<g id="edge78" class="edge"><title>Timeline&#45;&gt;Figure</title>
<path fill="none" stroke="#d2487a" d="M1204.4,-228.572C1215.02,-218.772 1228.53,-207.666 1242.24,-200 1264.69,-187.452 1273.05,-190.732 1297.24,-182 1299.62,-181.142 1302.07,-180.237 1304.52,-179.311"/>
<ellipse fill="none" stroke="#d2487a" cx="1201.41" cy="-231.405" rx="4.00002" ry="4.00002"/>
<polygon fill="#d2487a" stroke="#d2487a" points="1304.63,-179.271 1315.57,-179.881 1309.29,-177.476 1313.96,-175.681 1313.96,-175.681 1313.96,-175.681 1309.29,-177.476 1312.34,-171.481 1304.63,-179.271 1304.63,-179.271"/>
<text text-anchor="middle" x="1282.74" y="-203.8" font-family="Times,serif" font-size="14.00">header_figures</text>
</g>
<!-- Timeline&#45;&gt;Like -->
<g id="edge65" class="edge"><title>Timeline&#45;&gt;Like</title>
<path fill="none" stroke="#bc603c" d="M1234.28,-248.697C1303.45,-246.083 1430.47,-238.265 1536.24,-215 1576.01,-206.253 1619.99,-189.959 1648.76,-178.35"/>
<ellipse fill="none" stroke="#bc603c" cx="1230.13" cy="-248.847" rx="4" ry="4"/>
<polygon fill="#bc603c" stroke="#bc603c" points="1649.01,-178.246 1659.97,-178.623 1653.64,-176.352 1658.26,-174.459 1658.26,-174.459 1658.26,-174.459 1653.64,-176.352 1656.56,-170.294 1649.01,-178.246 1649.01,-178.246"/>
</g>
<!-- Timeline&#45;&gt;Link -->
<g id="edge67" class="edge"><title>Timeline&#45;&gt;Link</title>
<path fill="none" stroke="#5b27e3" d="M1159.12,-229.079C1143.84,-215.739 1123.75,-198.01 1106.24,-182 1089.08,-166.298 1089.54,-155.37 1068.24,-146 1051.44,-138.606 494.059,-103.676 342.794,-94.3135"/>
<ellipse fill="none" stroke="#5b27e3" cx="1162.33" cy="-231.881" rx="4.00002" ry="4.00002"/>
<polygon fill="#5b27e3" stroke="#5b27e3" points="342.599,-94.3015 332.896,-89.1929 337.608,-93.9929 332.618,-93.6843 332.618,-93.6843 332.618,-93.6843 337.608,-93.9929 332.34,-98.1757 342.599,-94.3015 342.599,-94.3015"/>
</g>
<!-- Timeline&#45;&gt;Suggestion -->
<g id="edge76" class="edge"><title>Timeline&#45;&gt;Suggestion</title>
<path fill="none" stroke="#8354c1" d="M1233.26,-246.162C1316.18,-239.786 1487.38,-226.564 1632.24,-215 1836.79,-198.672 2079.73,-178.631 2187.69,-169.691"/>
<ellipse fill="none" stroke="#8354c1" cx="1229.02" cy="-246.488" rx="4" ry="4"/>
<ellipse fill="#8354c1" stroke="#8354c1" cx="2191.87" cy="-169.345" rx="4" ry="4"/>
</g>
<!-- Timeline&#45;&gt;Summary -->
<g id="edge62" class="edge"><title>Timeline&#45;&gt;Summary</title>
<path fill="none" stroke="#d96384" d="M1234.29,-249.55C1315.02,-248.025 1467.75,-241.593 1514.24,-215 1524.19,-209.312 1532.24,-199.751 1538.27,-190.504"/>
<ellipse fill="none" stroke="#d96384" cx="1230.24" cy="-249.621" rx="4" ry="4"/>
<polygon fill="#d96384" stroke="#d96384" points="1538.3,-190.459 1547.28,-184.177 1540.86,-186.165 1543.42,-181.871 1543.42,-181.871 1543.42,-181.871 1540.86,-186.165 1539.56,-179.566 1538.3,-190.459 1538.3,-190.459"/>
</g>
<!-- ReferenceUserTagging -->
<g id="node23" class="node"><title>ReferenceUserTagging</title>
<ellipse fill="none" stroke="black" cx="487.243" cy="-164" rx="92.0841" ry="18"/>
<text text-anchor="middle" x="487.243" y="-160.3" font-family="Times,serif" font-size="14.00">ReferenceUserTagging</text>
</g>
<!-- SuggestionChild&#45;&gt;SuggestionChildVote -->
<g id="edge79" class="edge"><title>SuggestionChild&#45;&gt;SuggestionChildVote</title>
<path fill="none" stroke="#cc4e6a" d="M2473.46,-71.1862C2494.12,-61.2732 2519.47,-49.113 2540.5,-39.0255"/>
<ellipse fill="none" stroke="#cc4e6a" cx="2469.6" cy="-73.0386" rx="4.00002" ry="4.00002"/>
<polygon fill="#cc4e6a" stroke="#cc4e6a" points="2540.51,-39.0227 2551.47,-38.7546 2545.01,-36.86 2549.52,-34.6973 2549.52,-34.6973 2549.52,-34.6973 2545.01,-36.86 2547.58,-30.64 2540.51,-39.0227 2540.51,-39.0227"/>
</g>
<!-- SuggestionChild&#45;&gt;NotificationSuggestion -->
<g id="edge80" class="edge"><title>SuggestionChild&#45;&gt;NotificationSuggestion</title>
<path fill="none" stroke="#4ff86d" d="M2418.08,-66.5821C2412.84,-58.9902 2407.02,-50.5613 2401.76,-42.9325"/>
<ellipse fill="none" stroke="#4ff86d" cx="2420.36" cy="-69.8819" rx="4.00002" ry="4.00002"/>
<ellipse fill="#4ff86d" stroke="#4ff86d" cx="2399.38" cy="-39.4906" rx="4.00002" ry="4.00002"/>
</g>
<!-- ReferenceUserTag&#45;&gt;ReferenceUserTagging -->
<g id="edge81" class="edge"><title>ReferenceUserTag&#45;&gt;ReferenceUserTagging</title>
<path fill="none" stroke="#b77768" d="M501.991,-224.694C499.449,-214.405 496.507,-202.499 493.923,-192.039"/>
<ellipse fill="none" stroke="#b77768" cx="503.034" cy="-228.916" rx="4.00001" ry="4.00001"/>
<polygon fill="#b77768" stroke="#b77768" points="493.885,-191.884 495.855,-181.096 492.685,-187.029 491.486,-182.175 491.486,-182.175 491.486,-182.175 492.685,-187.029 487.117,-183.255 493.885,-191.884 493.885,-191.884"/>
</g>
<!-- Frame&#45;&gt;NotificationSelection -->
<g id="edge85" class="edge"><title>Frame&#45;&gt;NotificationSelection</title>
<path fill="none" stroke="#76731c" d="M1801.21,-149.577C1773.41,-138.612 1733.81,-122.989 1702.86,-110.782"/>
<ellipse fill="none" stroke="#76731c" cx="1804.96" cy="-151.056" rx="4.00001" ry="4.00001"/>
<polygon fill="#76731c" stroke="#76731c" points="1702.86,-110.782 1695.21,-102.927 1698.21,-108.948 1693.56,-107.113 1693.56,-107.113 1693.56,-107.113 1698.21,-108.948 1691.91,-111.299 1702.86,-110.782 1702.86,-110.782"/>
</g>
<!-- Frame&#45;&gt;Notification -->
<g id="edge83" class="edge"><title>Frame&#45;&gt;Notification</title>
<path fill="none" stroke="#3a31e8" d="M1827.28,-138.432C1825.24,-132.109 1823.02,-125.273 1820.94,-118.841"/>
<ellipse fill="none" stroke="#3a31e8" cx="1828.56" cy="-142.369" rx="4.00001" ry="4.00001"/>
<polygon fill="#3a31e8" stroke="#3a31e8" points="1820.9,-118.712 1822.1,-107.812 1819.36,-113.955 1817.81,-109.198 1817.81,-109.198 1817.81,-109.198 1819.36,-113.955 1813.53,-110.585 1820.9,-118.712 1820.9,-118.712"/>
</g>
<!-- Frame&#45;&gt;Typo -->
<g id="edge84" class="edge"><title>Frame&#45;&gt;Typo</title>
<path fill="none" stroke="#1f6958" d="M1857.77,-142.49C1867.92,-133.253 1879.89,-122.358 1890.11,-113.057"/>
<ellipse fill="none" stroke="#1f6958" cx="1854.74" cy="-145.25" rx="4.00002" ry="4.00002"/>
<polygon fill="#1f6958" stroke="#1f6958" points="1890.13,-113.041 1900.55,-109.637 1893.83,-109.675 1897.52,-106.309 1897.52,-106.309 1897.52,-106.309 1893.83,-109.675 1894.49,-102.981 1890.13,-113.041 1890.13,-113.041"/>
</g>
<!-- Frame&#45;&gt;FrameCredit -->
<g id="edge82" class="edge"><title>Frame&#45;&gt;FrameCredit</title>
<path fill="none" stroke="#215789" d="M1872.59,-153.033C1918.81,-140.696 1997.76,-119.623 2049.72,-105.753"/>
<ellipse fill="none" stroke="#215789" cx="1868.59" cy="-154.099" rx="4.00001" ry="4.00001"/>
<polygon fill="#215789" stroke="#215789" points="2049.75,-105.745 2060.57,-107.514 2054.58,-104.455 2059.41,-103.166 2059.41,-103.166 2059.41,-103.166 2054.58,-104.455 2058.25,-98.818 2049.75,-105.745 2049.75,-105.745"/>
</g>
<!-- Domain -->
<g id="node29" class="node"><title>Domain</title>
<ellipse fill="none" stroke="black" cx="1826.24" cy="-505" rx="39.7935" ry="18"/>
<text text-anchor="middle" x="1826.24" y="-501.3" font-family="Times,serif" font-size="14.00">Domain</text>
</g>
<!-- Issue -->
<g id="node41" class="node"><title>Issue</title>
<ellipse fill="none" stroke="black" cx="1912.24" cy="-505" rx="28.6953" ry="18"/>
<text text-anchor="middle" x="1912.24" y="-501.3" font-family="Times,serif" font-size="14.00">Issue</text>
</g>
<!-- SummaryBest -->
<g id="node42" class="node"><title>SummaryBest</title>
<ellipse fill="none" stroke="black" cx="1379.24" cy="-91" rx="61.99" ry="18"/>
<text text-anchor="middle" x="1379.24" y="-87.3" font-family="Times,serif" font-size="14.00">SummaryBest</text>
</g>
<!-- Like&#45;&gt;Notification -->
<g id="edge86" class="edge"><title>Like&#45;&gt;Notification</title>
<path fill="none" stroke="#8ffda8" d="M1708.95,-148.837C1721.41,-142.589 1736.12,-135.071 1749.24,-128 1758.56,-122.98 1768.54,-117.378 1777.76,-112.117"/>
<ellipse fill="none" stroke="#8ffda8" cx="1705.1" cy="-150.76" rx="4.00002" ry="4.00002"/>
<polygon fill="#8ffda8" stroke="#8ffda8" points="1777.99,-111.985 1788.9,-110.906 1782.32,-109.495 1786.66,-107.004 1786.66,-107.004 1786.66,-107.004 1782.32,-109.495 1784.42,-103.102 1777.99,-111.985 1777.99,-111.985"/>
</g>
<!-- Suggestion&#45;&gt;Notification -->
<g id="edge90" class="edge"><title>Suggestion&#45;&gt;Notification</title>
<path fill="none" stroke="#45c66c" d="M2188.92,-156.974C2116.44,-148.607 1985.58,-131.877 1875.24,-109 1870.63,-108.044 1865.86,-106.95 1861.1,-105.789"/>
<ellipse fill="none" stroke="#45c66c" cx="2193.07" cy="-157.449" rx="4.00001" ry="4.00001"/>
<polygon fill="#45c66c" stroke="#45c66c" points="1861.08,-105.786 1852.49,-98.9699 1856.24,-104.559 1851.39,-103.332 1851.39,-103.332 1851.39,-103.332 1856.24,-104.559 1850.29,-107.695 1861.08,-105.786 1861.08,-105.786"/>
</g>
<!-- Suggestion&#45;&gt;SuggestionVote -->
<g id="edge88" class="edge"><title>Suggestion&#45;&gt;SuggestionVote</title>
<path fill="none" stroke="#1513ba" d="M2256.41,-139.008C2259.74,-132.439 2263.37,-125.28 2266.77,-118.575"/>
<ellipse fill="none" stroke="#1513ba" cx="2254.58" cy="-142.606" rx="4.00002" ry="4.00002"/>
<polygon fill="#1513ba" stroke="#1513ba" points="2267,-118.117 2275.54,-111.234 2269.26,-113.658 2271.52,-109.198 2271.52,-109.198 2271.52,-109.198 2269.26,-113.658 2267.51,-107.163 2267,-118.117 2267,-118.117"/>
</g>
<!-- Suggestion&#45;&gt;SuggestionChild -->
<g id="edge87" class="edge"><title>Suggestion&#45;&gt;SuggestionChild</title>
<path fill="none" stroke="#389ef8" d="M2285.43,-147.611C2315.12,-136.515 2355.27,-121.509 2386.39,-109.882"/>
<ellipse fill="none" stroke="#389ef8" cx="2281.52" cy="-149.07" rx="4.00001" ry="4.00001"/>
<polygon fill="#389ef8" stroke="#389ef8" points="2386.78,-109.735 2397.73,-110.45 2391.47,-107.984 2396.15,-106.234 2396.15,-106.234 2396.15,-106.234 2391.47,-107.984 2394.58,-102.019 2386.78,-109.735 2386.78,-109.735"/>
</g>
<!-- Suggestion&#45;&gt;NotificationSuggestion -->
<g id="edge89" class="edge"><title>Suggestion&#45;&gt;NotificationSuggestion</title>
<path fill="none" stroke="#f41a15" d="M2222.06,-140.764C2205.69,-121.601 2188.73,-93.8173 2204.24,-73 2217.15,-55.6803 2264.7,-41.8861 2307.83,-32.5754"/>
<ellipse fill="none" stroke="#f41a15" cx="2224.88" cy="-143.925" rx="4.00002" ry="4.00002"/>
<polygon fill="#f41a15" stroke="#f41a15" points="2308.02,-32.5353 2318.73,-34.8858 2312.91,-31.5085 2317.81,-30.4817 2317.81,-30.4817 2317.81,-30.4817 2312.91,-31.5085 2316.88,-26.0776 2308.02,-32.5353 2308.02,-32.5353"/>
</g>
<!-- Summary&#45;&gt;NotificationSelection -->
<g id="edge95" class="edge"><title>Summary&#45;&gt;NotificationSelection</title>
<path fill="none" stroke="#777839" d="M1579.72,-143.56C1593.12,-134.413 1609.16,-123.464 1623,-114.012"/>
<ellipse fill="none" stroke="#777839" cx="1576.35" cy="-145.861" rx="4.00002" ry="4.00002"/>
<polygon fill="#777839" stroke="#777839" points="1623.03,-113.989 1633.83,-112.067 1627.16,-111.17 1631.29,-108.351 1631.29,-108.351 1631.29,-108.351 1627.16,-111.17 1628.76,-104.634 1623.03,-113.989 1623.03,-113.989"/>
</g>
<!-- Summary&#45;&gt;Notification -->
<g id="edge94" class="edge"><title>Summary&#45;&gt;Notification</title>
<path fill="none" stroke="#9fdd6f" d="M1595.22,-150.452C1600.61,-148.939 1606.05,-147.426 1611.24,-146 1672.89,-129.064 1688.53,-125.675 1750.24,-109 1754.24,-107.919 1758.39,-106.794 1762.55,-105.661"/>
<ellipse fill="none" stroke="#9fdd6f" cx="1591.24" cy="-151.574" rx="4.00001" ry="4.00001"/>
<polygon fill="#9fdd6f" stroke="#9fdd6f" points="1762.59,-105.651 1773.42,-107.359 1767.41,-104.334 1772.23,-103.018 1772.23,-103.018 1772.23,-103.018 1767.41,-104.334 1771.05,-98.6765 1762.59,-105.651 1762.59,-105.651"/>
</g>
<!-- Summary&#45;&gt;SummaryLink -->
<g id="edge92" class="edge"><title>Summary&#45;&gt;SummaryLink</title>
<path fill="none" stroke="#03a686" d="M1502.83,-153.373C1488.51,-150.737 1472.78,-148.045 1458.24,-146 1288.3,-122.09 1087.08,-105.053 983.165,-97.0822"/>
<ellipse fill="none" stroke="#03a686" cx="1507.14" cy="-154.179" rx="4.00001" ry="4.00001"/>
<polygon fill="#03a686" stroke="#03a686" points="983.083,-97.0761 973.454,-91.8292 978.097,-96.6961 973.112,-96.3162 973.112,-96.3162 973.112,-96.3162 978.097,-96.6961 972.77,-100.803 983.083,-97.0761 983.083,-97.0761"/>
</g>
<!-- Summary&#45;&gt;Typo -->
<g id="edge96" class="edge"><title>Summary&#45;&gt;Typo</title>
<path fill="none" stroke="#472bda" d="M1599.62,-153.473C1639.02,-145.858 1696.12,-135.147 1746.24,-127 1802.95,-117.783 1818.96,-124.621 1874.24,-109 1876.67,-108.315 1879.14,-107.51 1881.6,-106.63"/>
<ellipse fill="none" stroke="#472bda" cx="1595.42" cy="-154.288" rx="4.00001" ry="4.00001"/>
<polygon fill="#472bda" stroke="#472bda" points="1881.63,-106.618 1892.59,-107.142 1886.29,-104.786 1890.94,-102.955 1890.94,-102.955 1890.94,-102.955 1886.29,-104.786 1889.29,-98.7677 1881.63,-106.618 1881.63,-106.618"/>
</g>
<!-- Summary&#45;&gt;Credit -->
<g id="edge91" class="edge"><title>Summary&#45;&gt;Credit</title>
<path fill="none" stroke="#15f45c" d="M1599.68,-153.569C1614,-150.937 1629.73,-148.199 1644.24,-146 1780.12,-125.412 1818.02,-142.764 1951.24,-109 1954.09,-108.279 1957,-107.417 1959.89,-106.469"/>
<ellipse fill="none" stroke="#15f45c" cx="1595.37" cy="-154.37" rx="4.00001" ry="4.00001"/>
<polygon fill="#15f45c" stroke="#15f45c" points="1960.18,-106.369 1971.11,-107.232 1964.88,-104.683 1969.59,-102.996 1969.59,-102.996 1969.59,-102.996 1964.88,-104.683 1968.07,-98.7597 1960.18,-106.369 1960.18,-106.369"/>
</g>
<!-- Summary&#45;&gt;SummaryBest -->
<g id="edge93" class="edge"><title>Summary&#45;&gt;SummaryBest</title>
<path fill="none" stroke="#f04dfa" d="M1531.81,-141.051C1526.26,-135.822 1519.89,-130.694 1513.24,-127 1509.49,-124.918 1468.28,-114.281 1432.54,-105.274"/>
<ellipse fill="none" stroke="#f04dfa" cx="1534.66" cy="-143.881" rx="4.00002" ry="4.00002"/>
<ellipse fill="#f04dfa" stroke="#f04dfa" cx="1428.43" cy="-104.238" rx="4.00001" ry="4.00001"/>
</g>
</g>
</svg>
