<?xml version="1.0" encoding="UTF-8" standalone="no"?>
<!DOCTYPE svg PUBLIC "-//W3C//DTD SVG 1.1//EN"
 "http://www.w3.org/Graphics/SVG/1.1/DTD/svg11.dtd">
<!-- Generated by graphviz version 2.38.0 (20140413.2041)
 -->
<!-- Title: models_diagram Pages: 1 -->
<svg width="2666pt" height="552pt"
 viewBox="0.00 0.00 2666.45 552.00" xmlns="http://www.w3.org/2000/svg" xmlns:xlink="http://www.w3.org/1999/xlink">
<g id="graph0" class="graph" transform="scale(1 1) rotate(0) translate(4 548)">
<title>models_diagram</title>
<polygon fill="none" stroke="none" points="-4,4 -4,-548 2662.45,-548 2662.45,4 -4,4"/>
<!-- _diagram_info -->
<g id="node1" class="node"><title>_diagram_info</title>
<text text-anchor="start" x="1445" y="-529.6" font-family="Times,serif" font-size="13.00">Models diagram</text>
<text text-anchor="start" x="1445" y="-515.6" font-family="Times,serif" font-size="13.00">Date: Aug 15 2015 &#45; 14:55</text>
<text text-anchor="start" x="1445" y="-501.6" font-family="Times,serif" font-size="13.00">Migration version: 20150812120123</text>
<text text-anchor="start" x="1445" y="-487.6" font-family="Times,serif" font-size="13.00">Generated by RailRoady 1.3.1</text>
<text text-anchor="start" x="1445" y="-473.6" font-family="Times,serif" font-size="13.00">http://railroady.prestonlee.com</text>
</g>
<!-- Vote -->
<g id="node2" class="node"><title>Vote</title>
<ellipse fill="none" stroke="black" cx="72" cy="-91" rx="27.8951" ry="18"/>
<text text-anchor="middle" x="72" y="-87.3" font-family="Times,serif" font-size="14.00">Vote</text>
</g>
<!-- NotificationSelection -->
<g id="node3" class="node"><title>NotificationSelection</title>
<ellipse fill="none" stroke="black" cx="501" cy="-91" rx="85.5853" ry="18"/>
<text text-anchor="middle" x="501" y="-87.3" font-family="Times,serif" font-size="14.00">NotificationSelection</text>
</g>
<!-- Notification -->
<g id="node4" class="node"><title>Notification</title>
<ellipse fill="none" stroke="black" cx="719" cy="-91" rx="53.0913" ry="18"/>
<text text-anchor="middle" x="719" y="-87.3" font-family="Times,serif" font-size="14.00">Notification</text>
</g>
<!-- Reference -->
<g id="node5" class="node"><title>Reference</title>
<ellipse fill="none" stroke="black" cx="1222" cy="-411" rx="46.2923" ry="18"/>
<text text-anchor="middle" x="1222" y="-407.3" font-family="Times,serif" font-size="14.00">Reference</text>
</g>
<!-- Reference&#45;&gt;Vote -->
<g id="edge3" class="edge"><title>Reference&#45;&gt;Vote</title>
<path fill="none" stroke="#f84781" d="M1167.76,-408.281C1033.68,-403.578 689.602,-388.613 580,-356 382.667,-297.283 172.081,-160.743 98.886,-110.762"/>
<ellipse fill="none" stroke="#f84781" cx="1171.9" cy="-408.425" rx="4" ry="4"/>
<polygon fill="#f84781" stroke="#f84781" points="98.5028,-110.499 92.8079,-101.128 94.3815,-107.668 90.2601,-104.837 90.2601,-104.837 90.2601,-104.837 94.3815,-107.668 87.7122,-108.547 98.5028,-110.499 98.5028,-110.499"/>
</g>
<!-- Reference&#45;&gt;Notification -->
<g id="edge10" class="edge"><title>Reference&#45;&gt;Notification</title>
<path fill="none" stroke="#165249" d="M1169.28,-405.01C1095.09,-397.227 964.427,-380.503 924,-356 898.525,-340.559 782.023,-180.034 736.912,-117.108"/>
<ellipse fill="none" stroke="#165249" cx="1173.62" cy="-405.458" rx="4" ry="4"/>
<polygon fill="#165249" stroke="#165249" points="736.859,-117.033 734.697,-106.282 733.948,-112.967 731.038,-108.902 731.038,-108.902 731.038,-108.902 733.948,-112.967 727.379,-111.521 736.859,-117.033 736.859,-117.033"/>
</g>
<!-- ReferenceEdge -->
<g id="node9" class="node"><title>ReferenceEdge</title>
<ellipse fill="none" stroke="black" cx="1737" cy="-164" rx="64.189" ry="18"/>
<text text-anchor="middle" x="1737" y="-160.3" font-family="Times,serif" font-size="14.00">ReferenceEdge</text>
</g>
<!-- Reference&#45;&gt;ReferenceEdge -->
<g id="edge8" class="edge"><title>Reference&#45;&gt;ReferenceEdge</title>
<path fill="none" stroke="#b876c3" d="M1275.43,-406.17C1333.9,-401.239 1423.28,-391.305 1453,-375 1481.44,-359.394 1476.55,-341.325 1501,-320 1565.38,-263.853 1651.47,-212.321 1699.88,-185.14"/>
<ellipse fill="none" stroke="#b876c3" cx="1271.38" cy="-406.504" rx="4" ry="4"/>
<polygon fill="#b876c3" stroke="#b876c3" points="1700.02,-185.062 1710.95,-184.124 1704.39,-182.628 1708.76,-180.193 1708.76,-180.193 1708.76,-180.193 1704.39,-182.628 1706.56,-176.263 1700.02,-185.062 1700.02,-185.062"/>
</g>
<!-- Reference&#45;&gt;ReferenceEdge -->
<g id="edge9" class="edge"><title>Reference&#45;&gt;ReferenceEdge</title>
<path fill="none" stroke="#3b65d4" d="M1276.05,-407.959C1326.58,-404.736 1403.57,-396.426 1467,-375 1483.4,-369.46 1487.42,-366.739 1501,-356 1518.02,-342.535 1517.72,-334.354 1534,-320 1563.42,-294.067 1574.55,-292.424 1606,-269 1637.23,-245.739 1644.51,-239.223 1675,-215 1686.22,-206.089 1698.51,-196.203 1709.17,-187.589"/>
<ellipse fill="none" stroke="#3b65d4" cx="1271.85" cy="-408.211" rx="4" ry="4"/>
<polygon fill="#3b65d4" stroke="#3b65d4" points="1709.18,-187.577 1719.79,-184.786 1713.07,-184.432 1716.96,-181.288 1716.96,-181.288 1716.96,-181.288 1713.07,-184.432 1714.13,-177.789 1709.18,-187.577 1709.18,-187.577"/>
<text text-anchor="middle" x="1640" y="-290.8" font-family="Times,serif" font-size="14.00">reference_edges_from</text>
</g>
<!-- Tag -->
<g id="node10" class="node"><title>Tag</title>
<ellipse fill="none" stroke="black" cx="960" cy="-338" rx="27" ry="18"/>
<text text-anchor="middle" x="960" y="-334.3" font-family="Times,serif" font-size="14.00">Tag</text>
</g>
<!-- Reference&#45;&gt;Tag -->
<g id="edge14" class="edge"><title>Reference&#45;&gt;Tag</title>
<path fill="none" stroke="#dfa1d4" d="M1170.75,-400.897C1124.37,-391.924 1054.56,-376.574 996,-356 994.093,-355.33 992.151,-354.591 990.208,-353.808"/>
<polygon fill="#dfa1d4" stroke="#dfa1d4" points="1171.03,-400.951 1180.01,-407.243 1175.94,-401.887 1180.85,-402.823 1180.85,-402.823 1180.85,-402.823 1175.94,-401.887 1181.7,-398.402 1171.03,-400.951 1171.03,-400.951"/>
<polygon fill="#dfa1d4" stroke="#dfa1d4" points="989.801,-353.63 982.431,-345.51 985.217,-351.633 980.633,-349.635 980.633,-349.635 980.633,-349.635 985.217,-351.633 978.836,-353.761 989.801,-353.63 989.801,-353.63"/>
</g>
<!-- Rating -->
<g id="node11" class="node"><title>Rating</title>
<ellipse fill="none" stroke="black" cx="947" cy="-164" rx="34.394" ry="18"/>
<text text-anchor="middle" x="947" y="-160.3" font-family="Times,serif" font-size="14.00">Rating</text>
</g>
<!-- Reference&#45;&gt;Rating -->
<g id="edge5" class="edge"><title>Reference&#45;&gt;Rating</title>
<path fill="none" stroke="#df52e2" d="M1170.05,-404.21C1088.89,-394.636 939.619,-374.704 924,-356 884.643,-308.87 913.674,-230.93 933.167,-190.737"/>
<ellipse fill="none" stroke="#df52e2" cx="1174.19" cy="-404.694" rx="4.00001" ry="4.00001"/>
<polygon fill="#df52e2" stroke="#df52e2" points="933.266,-190.541 941.773,-183.621 935.508,-186.072 937.751,-181.603 937.751,-181.603 937.751,-181.603 935.508,-186.072 933.729,-179.585 933.266,-190.541 933.266,-190.541"/>
</g>
<!-- Comment -->
<g id="node12" class="node"><title>Comment</title>
<ellipse fill="none" stroke="black" cx="302" cy="-164" rx="46.2923" ry="18"/>
<text text-anchor="middle" x="302" y="-160.3" font-family="Times,serif" font-size="14.00">Comment</text>
</g>
<!-- Reference&#45;&gt;Comment -->
<g id="edge4" class="edge"><title>Reference&#45;&gt;Comment</title>
<path fill="none" stroke="#9e5892" d="M1169.2,-405.511C1069.77,-396.993 863.289,-378.98 848,-375 827.78,-369.736 821.975,-368.182 805,-356 787.366,-343.345 790.859,-330.745 772,-320 676.117,-265.373 633.812,-303.529 529,-269 458.422,-245.749 380.581,-207.004 336.849,-183.941"/>
<ellipse fill="none" stroke="#9e5892" cx="1173.34" cy="-405.865" rx="4" ry="4"/>
<polygon fill="#9e5892" stroke="#9e5892" points="336.622,-183.82 329.901,-175.155 332.206,-181.475 327.79,-179.13 327.79,-179.13 327.79,-179.13 332.206,-181.475 325.68,-183.104 336.622,-183.82 336.622,-183.82"/>
</g>
<!-- SummaryLink -->
<g id="node13" class="node"><title>SummaryLink</title>
<ellipse fill="none" stroke="black" cx="1246" cy="-91" rx="62.2891" ry="18"/>
<text text-anchor="middle" x="1246" y="-87.3" font-family="Times,serif" font-size="14.00">SummaryLink</text>
</g>
<!-- Reference&#45;&gt;SummaryLink -->
<g id="edge2" class="edge"><title>Reference&#45;&gt;SummaryLink</title>
<path fill="none" stroke="#aa90a2" d="M1271.28,-400.766C1298.89,-393.167 1331.92,-379.646 1353,-356 1397.25,-306.374 1396.33,-281.155 1403,-215 1403.67,-208.367 1406.56,-205.633 1403,-200 1393.01,-184.209 1380.42,-192.558 1365,-182 1345.8,-168.857 1345.19,-160.505 1327,-146 1312.34,-134.307 1295.17,-122.604 1280.42,-113.098"/>
<ellipse fill="none" stroke="#aa90a2" cx="1267.14" cy="-401.84" rx="4.00001" ry="4.00001"/>
<polygon fill="#aa90a2" stroke="#aa90a2" points="1280.03,-112.85 1274.01,-103.686 1275.81,-110.166 1271.59,-107.482 1271.59,-107.482 1271.59,-107.482 1275.81,-110.166 1269.17,-111.279 1280.03,-112.85 1280.03,-112.85"/>
</g>
<!-- BestComment -->
<g id="node22" class="node"><title>BestComment</title>
<ellipse fill="none" stroke="black" cx="1067" cy="-338" rx="61.99" ry="18"/>
<text text-anchor="middle" x="1067" y="-334.3" font-family="Times,serif" font-size="14.00">BestComment</text>
</g>
<!-- Reference&#45;&gt;BestComment -->
<g id="edge11" class="edge"><title>Reference&#45;&gt;BestComment</title>
<path fill="none" stroke="#c32b8d" d="M1185.69,-393.368C1161.83,-382.436 1130.62,-368.14 1106.19,-356.951"/>
<ellipse fill="none" stroke="#c32b8d" cx="1189.57" cy="-395.146" rx="4.00002" ry="4.00002"/>
<ellipse fill="#c32b8d" stroke="#c32b8d" cx="1102.48" cy="-355.251" rx="4.00002" ry="4.00002"/>
</g>
<!-- ReferenceUserTag -->
<g id="node25" class="node"><title>ReferenceUserTag</title>
<ellipse fill="none" stroke="black" cx="615" cy="-251" rx="76.8869" ry="18"/>
<text text-anchor="middle" x="615" y="-247.3" font-family="Times,serif" font-size="14.00">ReferenceUserTag</text>
</g>
<!-- Reference&#45;&gt;ReferenceUserTag -->
<g id="edge12" class="edge"><title>Reference&#45;&gt;ReferenceUserTag</title>
<path fill="none" stroke="#2e3811" d="M1167.58,-409.725C1078.6,-408.472 906.512,-402.446 853,-375 824.131,-360.193 831.806,-338.279 805,-320 767.136,-294.18 718.358,-276.993 679.707,-266.357"/>
<ellipse fill="none" stroke="#2e3811" cx="1171.66" cy="-409.778" rx="4" ry="4"/>
<polygon fill="#2e3811" stroke="#2e3811" points="679.265,-266.239 670.763,-259.313 674.434,-264.95 669.603,-263.661 669.603,-263.661 669.603,-263.661 674.434,-264.95 668.442,-268.009 679.265,-266.239 679.265,-266.239"/>
</g>
<!-- ReferenceContributor -->
<g id="node27" class="node"><title>ReferenceContributor</title>
<ellipse fill="none" stroke="black" cx="676" cy="-338" rx="87.1846" ry="18"/>
<text text-anchor="middle" x="676" y="-334.3" font-family="Times,serif" font-size="14.00">ReferenceContributor</text>
</g>
<!-- Reference&#45;&gt;ReferenceContributor -->
<g id="edge7" class="edge"><title>Reference&#45;&gt;ReferenceContributor</title>
<path fill="none" stroke="#baa38a" d="M1167.45,-410.309C1082.88,-409.762 915.436,-404.571 777,-375 758.586,-371.067 738.956,-364.622 721.945,-358.263"/>
<ellipse fill="none" stroke="#baa38a" cx="1171.62" cy="-410.329" rx="4" ry="4"/>
<polygon fill="#baa38a" stroke="#baa38a" points="721.598,-358.13 713.873,-350.348 716.93,-356.34 712.261,-354.55 712.261,-354.55 712.261,-354.55 716.93,-356.34 710.65,-358.751 721.598,-358.13 721.598,-358.13"/>
</g>
<!-- ReferenceTagging -->
<g id="node30" class="node"><title>ReferenceTagging</title>
<ellipse fill="none" stroke="black" cx="1222" cy="-338" rx="75.2868" ry="18"/>
<text text-anchor="middle" x="1222" y="-334.3" font-family="Times,serif" font-size="14.00">ReferenceTagging</text>
</g>
<!-- Reference&#45;&gt;ReferenceTagging -->
<g id="edge13" class="edge"><title>Reference&#45;&gt;ReferenceTagging</title>
<path fill="none" stroke="#d347f6" d="M1222,-384.791C1222,-378.832 1222,-372.45 1222,-366.399"/>
<ellipse fill="none" stroke="#d347f6" cx="1222" cy="-388.813" rx="4" ry="4"/>
<polygon fill="#d347f6" stroke="#d347f6" points="1222,-366.029 1226.5,-356.029 1222,-361.029 1222,-356.029 1222,-356.029 1222,-356.029 1222,-361.029 1217.5,-356.029 1222,-366.029 1222,-366.029"/>
</g>
<!-- Figure -->
<g id="node38" class="node"><title>Figure</title>
<ellipse fill="none" stroke="black" cx="1284" cy="-164" rx="33.5952" ry="18"/>
<text text-anchor="middle" x="1284" y="-160.3" font-family="Times,serif" font-size="14.00">Figure</text>
</g>
<!-- Reference&#45;&gt;Figure -->
<g id="edge15" class="edge"><title>Reference&#45;&gt;Figure</title>
<path fill="none" stroke="#3310e4" d="M1264.71,-396.195C1278.52,-390.711 1293.49,-383.626 1306,-375 1361.47,-336.756 1382.9,-234.214 1387,-215 1388.39,-208.48 1390.91,-205.398 1387,-200 1371.9,-179.176 1356.35,-190.294 1332,-182 1328.44,-180.788 1324.74,-179.511 1321.05,-178.222"/>
<ellipse fill="none" stroke="#3310e4" cx="1260.91" cy="-397.647" rx="4.00001" ry="4.00001"/>
<polygon fill="#3310e4" stroke="#3310e4" points="1320.81,-178.138 1312.87,-170.578 1316.09,-176.48 1311.37,-174.823 1311.37,-174.823 1311.37,-174.823 1316.09,-176.48 1309.88,-179.069 1320.81,-178.138 1320.81,-178.138"/>
</g>
<!-- Binary -->
<g id="node39" class="node"><title>Binary</title>
<ellipse fill="none" stroke="black" cx="1577" cy="-338" rx="34.394" ry="18"/>
<text text-anchor="middle" x="1577" y="-334.3" font-family="Times,serif" font-size="14.00">Binary</text>
</g>
<!-- Reference&#45;&gt;Binary -->
<g id="edge6" class="edge"><title>Reference&#45;&gt;Binary</title>
<path fill="none" stroke="#9c2f9d" d="M1275.62,-407.273C1351.03,-402.863 1484.21,-392.811 1529,-375 1537.49,-371.625 1545.79,-366.338 1553.04,-360.845"/>
<ellipse fill="none" stroke="#9c2f9d" cx="1271.61" cy="-407.503" rx="4" ry="4"/>
<polygon fill="#9c2f9d" stroke="#9c2f9d" points="1553.24,-360.687 1563.85,-357.906 1557.13,-357.546 1561.02,-354.405 1561.02,-354.405 1561.02,-354.405 1557.13,-357.546 1558.19,-350.903 1553.24,-360.687 1553.24,-360.687"/>
</g>
<!-- Link -->
<g id="node44" class="node"><title>Link</title>
<ellipse fill="none" stroke="black" cx="1564" cy="-91" rx="27.0966" ry="18"/>
<text text-anchor="middle" x="1564" y="-87.3" font-family="Times,serif" font-size="14.00">Link</text>
</g>
<!-- Reference&#45;&gt;Link -->
<g id="edge1" class="edge"><title>Reference&#45;&gt;Link</title>
<path fill="none" stroke="#bc7970" d="M1268.79,-399.414C1292.36,-393.426 1321.15,-385.106 1346,-375 1362.4,-368.333 1365.98,-365.364 1381,-356 1395.17,-347.168 1618.34,-196.834 1626,-182 1633.34,-167.783 1632.63,-160.563 1626,-146 1619.08,-130.8 1605.54,-118.214 1592.87,-109.028"/>
<ellipse fill="none" stroke="#bc7970" cx="1264.89" cy="-400.387" rx="4.00001" ry="4.00001"/>
<polygon fill="#bc7970" stroke="#bc7970" points="1592.6,-108.845 1586.86,-99.5002 1588.46,-106.033 1584.33,-103.221 1584.33,-103.221 1584.33,-103.221 1588.46,-106.033 1581.8,-106.942 1592.6,-108.845 1592.6,-108.845"/>
</g>
<!-- VisiteReference -->
<g id="node6" class="node"><title>VisiteReference</title>
<ellipse fill="none" stroke="black" cx="581" cy="-411" rx="67.6881" ry="18"/>
<text text-anchor="middle" x="581" y="-407.3" font-family="Times,serif" font-size="14.00">VisiteReference</text>
</g>
<!-- Edge -->
<g id="node7" class="node"><title>Edge</title>
<ellipse fill="none" stroke="black" cx="1403" cy="-164" rx="28.6953" ry="18"/>
<text text-anchor="middle" x="1403" y="-160.3" font-family="Times,serif" font-size="14.00">Edge</text>
</g>
<!-- EdgeVote -->
<g id="node31" class="node"><title>EdgeVote</title>
<ellipse fill="none" stroke="black" cx="2013" cy="-91" rx="46.2923" ry="18"/>
<text text-anchor="middle" x="2013" y="-87.3" font-family="Times,serif" font-size="14.00">EdgeVote</text>
</g>
<!-- Edge&#45;&gt;EdgeVote -->
<g id="edge16" class="edge"><title>Edge&#45;&gt;EdgeVote</title>
<path fill="none" stroke="#0874f7" d="M1431.66,-148.577C1434.43,-147.566 1437.24,-146.68 1440,-146 1514.11,-127.741 1706.92,-134.122 1783,-128 1860.98,-121.725 1881.39,-124.847 1958,-109 1961.85,-108.203 1965.82,-107.249 1969.78,-106.205"/>
<ellipse fill="none" stroke="#0874f7" cx="1427.73" cy="-150.178" rx="4.00001" ry="4.00001"/>
<polygon fill="#0874f7" stroke="#0874f7" points="1969.9,-106.172 1980.74,-107.795 1974.71,-104.818 1979.53,-103.463 1979.53,-103.463 1979.53,-103.463 1974.71,-104.818 1978.31,-99.1315 1969.9,-106.172 1969.9,-106.172"/>
</g>
<!-- Tagging -->
<g id="node8" class="node"><title>Tagging</title>
<ellipse fill="none" stroke="black" cx="1040" cy="-164" rx="40.0939" ry="18"/>
<text text-anchor="middle" x="1040" y="-160.3" font-family="Times,serif" font-size="14.00">Tagging</text>
</g>
<!-- ReferenceEdgeVote -->
<g id="node35" class="node"><title>ReferenceEdgeVote</title>
<ellipse fill="none" stroke="black" cx="1868" cy="-91" rx="81.4863" ry="18"/>
<text text-anchor="middle" x="1868" y="-87.3" font-family="Times,serif" font-size="14.00">ReferenceEdgeVote</text>
</g>
<!-- ReferenceEdge&#45;&gt;ReferenceEdgeVote -->
<g id="edge17" class="edge"><title>ReferenceEdge&#45;&gt;ReferenceEdgeVote</title>
<path fill="none" stroke="#c5a558" d="M1772.21,-143.918C1789.88,-134.338 1811.33,-122.714 1829.45,-112.895"/>
<ellipse fill="none" stroke="#c5a558" cx="1768.62" cy="-145.863" rx="4.00002" ry="4.00002"/>
<polygon fill="#c5a558" stroke="#c5a558" points="1829.79,-112.71 1840.72,-111.901 1834.18,-110.327 1838.58,-107.945 1838.58,-107.945 1838.58,-107.945 1834.18,-110.327 1836.44,-103.989 1829.79,-112.71 1829.79,-112.71"/>
</g>
<!-- Tag&#45;&gt;Tagging -->
<g id="edge18" class="edge"><title>Tag&#45;&gt;Tagging</title>
<path fill="none" stroke="#89eb60" d="M971.153,-313.021C986.067,-280.957 1012.41,-224.317 1027.83,-191.173"/>
<ellipse fill="none" stroke="#89eb60" cx="969.358" cy="-316.881" rx="4.00002" ry="4.00002"/>
<polygon fill="#89eb60" stroke="#89eb60" points="1028.02,-190.762 1036.32,-183.593 1030.13,-186.228 1032.23,-181.695 1032.23,-181.695 1032.23,-181.695 1030.13,-186.228 1028.15,-179.797 1028.02,-190.762 1028.02,-190.762"/>
</g>
<!-- Timeline -->
<g id="node20" class="node"><title>Timeline</title>
<ellipse fill="none" stroke="black" cx="1134" cy="-251" rx="42.7926" ry="18"/>
<text text-anchor="middle" x="1134" y="-247.3" font-family="Times,serif" font-size="14.00">Timeline</text>
</g>
<!-- Tag&#45;&gt;Timeline -->
<g id="edge19" class="edge"><title>Tag&#45;&gt;Timeline</title>
<path fill="none" stroke="#822f94" d="M990.506,-322.098C1020.39,-307.498 1065.95,-285.242 1097.69,-269.738"/>
<polygon fill="#822f94" stroke="#822f94" points="990.321,-322.188 979.361,-322.534 985.828,-324.383 981.336,-326.577 981.336,-326.577 981.336,-326.577 985.828,-324.383 983.311,-330.621 990.321,-322.188 990.321,-322.188"/>
<polygon fill="#822f94" stroke="#822f94" points="1098.08,-269.548 1109.04,-269.202 1102.57,-267.354 1107.06,-265.159 1107.06,-265.159 1107.06,-265.159 1102.57,-267.354 1105.09,-261.116 1098.08,-269.548 1098.08,-269.548"/>
</g>
<!-- Tag&#45;&gt;ReferenceUserTag -->
<g id="edge20" class="edge"><title>Tag&#45;&gt;ReferenceUserTag</title>
<path fill="none" stroke="#7b868b" d="M929.884,-322.344C905.607,-311.1 870.309,-296.022 838,-287 791.35,-273.973 737.767,-265.366 694.819,-259.949"/>
<polygon fill="#7b868b" stroke="#7b868b" points="929.885,-322.344 937.023,-330.668 934.41,-324.47 938.936,-326.595 938.936,-326.595 938.936,-326.595 934.41,-324.47 940.849,-322.522 929.885,-322.344 929.885,-322.344"/>
<polygon fill="#7b868b" stroke="#7b868b" points="694.629,-259.925 685.252,-254.24 689.666,-259.316 684.704,-258.707 684.704,-258.707 684.704,-258.707 689.666,-259.316 684.155,-263.173 694.629,-259.925 694.629,-259.925"/>
</g>
<!-- Comment&#45;&gt;Vote -->
<g id="edge21" class="edge"><title>Comment&#45;&gt;Vote</title>
<path fill="none" stroke="#9091be" d="M255.209,-152.111C215.713,-142.398 157.943,-126.963 109,-109 107.109,-108.306 105.18,-107.556 103.245,-106.77"/>
<ellipse fill="none" stroke="#9091be" cx="259.464" cy="-153.148" rx="4.00001" ry="4.00001"/>
<polygon fill="#9091be" stroke="#9091be" points="102.858,-106.603 95.4522,-98.516 98.2653,-104.626 93.6728,-102.649 93.6728,-102.649 93.6728,-102.649 98.2653,-104.626 91.8934,-106.783 102.858,-106.603 102.858,-106.603"/>
</g>
<!-- Comment&#45;&gt;NotificationSelection -->
<g id="edge24" class="edge"><title>Comment&#45;&gt;NotificationSelection</title>
<path fill="none" stroke="#85c392" d="M342.761,-148.457C373.756,-137.398 416.598,-122.113 449.887,-110.236"/>
<ellipse fill="none" stroke="#85c392" cx="338.628" cy="-149.932" rx="4.00001" ry="4.00001"/>
<polygon fill="#85c392" stroke="#85c392" points="450.027,-110.186 460.958,-111.064 454.737,-108.506 459.446,-106.826 459.446,-106.826 459.446,-106.826 454.737,-108.506 457.934,-102.588 450.027,-110.186 450.027,-110.186"/>
</g>
<!-- Comment&#45;&gt;Notification -->
<g id="edge23" class="edge"><title>Comment&#45;&gt;Notification</title>
<path fill="none" stroke="#cb7b2c" d="M343.198,-149.402C347.823,-148.134 352.492,-146.965 357,-146 421.364,-132.227 438.859,-137.437 504,-128 558.093,-120.163 619.58,-109.711 662.902,-102.089"/>
<ellipse fill="none" stroke="#cb7b2c" cx="339.335" cy="-150.509" rx="4.00001" ry="4.00001"/>
<polygon fill="#cb7b2c" stroke="#cb7b2c" points="663.11,-102.052 673.74,-104.744 668.034,-101.183 672.958,-100.313 672.958,-100.313 672.958,-100.313 668.034,-101.183 672.175,-95.8816 663.11,-102.052 663.11,-102.052"/>
</g>
<!-- CommentJoin -->
<g id="node17" class="node"><title>CommentJoin</title>
<ellipse fill="none" stroke="black" cx="179" cy="-91" rx="61.1893" ry="18"/>
<text text-anchor="middle" x="179" y="-87.3" font-family="Times,serif" font-size="14.00">CommentJoin</text>
</g>
<!-- Comment&#45;&gt;CommentJoin -->
<g id="edge25" class="edge"><title>Comment&#45;&gt;CommentJoin</title>
<path fill="none" stroke="#903279" d="M269.999,-144.528C252.941,-134.681 231.915,-122.544 214.373,-112.419"/>
<ellipse fill="none" stroke="#903279" cx="273.645" cy="-146.632" rx="4.00002" ry="4.00002"/>
<polygon fill="#903279" stroke="#903279" points="214.217,-112.329 207.806,-103.432 209.887,-109.829 205.557,-107.329 205.557,-107.329 205.557,-107.329 209.887,-109.829 203.307,-111.227 214.217,-112.329 214.217,-112.329"/>
</g>
<!-- Typo -->
<g id="node21" class="node"><title>Typo</title>
<ellipse fill="none" stroke="black" cx="302" cy="-91" rx="29.4969" ry="18"/>
<text text-anchor="middle" x="302" y="-87.3" font-family="Times,serif" font-size="14.00">Typo</text>
</g>
<!-- Comment&#45;&gt;Typo -->
<g id="edge26" class="edge"><title>Comment&#45;&gt;Typo</title>
<path fill="none" stroke="#41b697" d="M302,-137.791C302,-131.832 302,-125.45 302,-119.399"/>
<ellipse fill="none" stroke="#41b697" cx="302" cy="-141.813" rx="4" ry="4"/>
<polygon fill="#41b697" stroke="#41b697" points="302,-119.029 306.5,-109.029 302,-114.029 302,-109.029 302,-109.029 302,-109.029 302,-114.029 297.5,-109.029 302,-119.029 302,-119.029"/>
</g>
<!-- Comment&#45;&gt;Link -->
<g id="edge22" class="edge"><title>Comment&#45;&gt;Link</title>
<path fill="none" stroke="#02680c" d="M342.733,-149.095C347.499,-147.861 352.327,-146.784 357,-146 605.001,-104.388 1238.54,-140.697 1488,-109 1501.65,-107.265 1516.46,-104.222 1529.35,-101.186"/>
<ellipse fill="none" stroke="#02680c" cx="338.664" cy="-150.225" rx="4.00001" ry="4.00001"/>
<polygon fill="#02680c" stroke="#02680c" points="1529.51,-101.149 1540.29,-103.149 1534.36,-99.9631 1539.22,-98.7772 1539.22,-98.7772 1539.22,-98.7772 1534.36,-99.9631 1538.15,-94.4056 1529.51,-101.149 1529.51,-101.149"/>
</g>
<!-- User -->
<g id="node14" class="node"><title>User</title>
<ellipse fill="none" stroke="black" cx="1696" cy="-505" rx="27.0966" ry="18"/>
<text text-anchor="middle" x="1696" y="-501.3" font-family="Times,serif" font-size="14.00">User</text>
</g>
<!-- User&#45;&gt;Vote -->
<g id="edge33" class="edge"><title>User&#45;&gt;Vote</title>
<path fill="none" stroke="#7c829e" d="M1680.49,-481.817C1674.83,-475.517 1667.87,-469.439 1660,-466 1580.32,-431.185 178.384,-472.648 95,-448 66.2661,-439.506 38,-441.963 38,-412 38,-412 38,-412 38,-163 38,-146.121 45.9128,-129.004 54.1039,-115.807"/>
<ellipse fill="none" stroke="#7c829e" cx="1683.14" cy="-485.021" rx="4.00002" ry="4.00002"/>
<polygon fill="#7c829e" stroke="#7c829e" points="54.1906,-115.676 63.4732,-109.838 56.9579,-111.512 59.7252,-107.347 59.7252,-107.347 59.7252,-107.347 56.9579,-111.512 55.9773,-104.857 54.1906,-115.676 54.1906,-115.676"/>
</g>
<!-- User&#45;&gt;NotificationSelection -->
<g id="edge39" class="edge"><title>User&#45;&gt;NotificationSelection</title>
<path fill="none" stroke="#8bf121" d="M1680.49,-481.826C1674.83,-475.527 1667.87,-469.446 1660,-466 1592.11,-436.255 398.602,-462.913 326,-448 304.333,-443.549 295.535,-444.747 280,-429 235.149,-383.537 189.039,-194.996 230,-146 242.331,-131.25 345.48,-113.799 420.874,-102.813"/>
<ellipse fill="none" stroke="#8bf121" cx="1683.14" cy="-485.029" rx="4.00002" ry="4.00002"/>
<polygon fill="#8bf121" stroke="#8bf121" points="420.953,-102.801 431.493,-105.827 425.902,-102.087 430.85,-101.373 430.85,-101.373 430.85,-101.373 425.902,-102.087 430.208,-96.919 420.953,-102.801 420.953,-102.801"/>
</g>
<!-- User&#45;&gt;Notification -->
<g id="edge38" class="edge"><title>User&#45;&gt;Notification</title>
<path fill="none" stroke="#924f9f" d="M1680.49,-481.827C1674.83,-475.527 1667.87,-469.447 1660,-466 1592.47,-436.409 403.67,-469.017 333,-448 317.872,-443.501 312.101,-441.894 303,-429 266.034,-376.623 204.125,-193.661 247,-146 299.159,-88.0184 518.585,-118.451 596,-109 617.234,-106.408 640.489,-103.271 661.006,-100.401"/>
<ellipse fill="none" stroke="#924f9f" cx="1683.14" cy="-485.03" rx="4.00002" ry="4.00002"/>
<polygon fill="#924f9f" stroke="#924f9f" points="661.245,-100.367 671.775,-103.429 666.196,-99.67 671.148,-98.9729 671.148,-98.9729 671.148,-98.9729 666.196,-99.67 670.52,-94.5169 661.245,-100.367 661.245,-100.367"/>
</g>
<!-- User&#45;&gt;Reference -->
<g id="edge28" class="edge"><title>User&#45;&gt;Reference</title>
<path fill="none" stroke="#0c4151" d="M1679.98,-482.034C1674.36,-475.866 1667.54,-469.809 1660,-466 1626.46,-449.065 1387.12,-426.375 1277.09,-416.695"/>
<ellipse fill="none" stroke="#0c4151" cx="1682.59" cy="-485.112" rx="4.00002" ry="4.00002"/>
<polygon fill="#0c4151" stroke="#0c4151" points="1276.82,-416.671 1267.25,-411.316 1271.84,-416.235 1266.86,-415.799 1266.86,-415.799 1266.86,-415.799 1271.84,-416.235 1266.46,-420.282 1276.82,-416.671 1276.82,-416.671"/>
</g>
<!-- User&#45;&gt;VisiteReference -->
<g id="edge41" class="edge"><title>User&#45;&gt;VisiteReference</title>
<path fill="none" stroke="#0a207d" d="M1680.48,-481.848C1674.82,-475.549 1667.86,-469.464 1660,-466 1609.31,-443.652 717.112,-459.866 663,-448 647.699,-444.645 631.741,-438.355 618.013,-431.959"/>
<ellipse fill="none" stroke="#0a207d" cx="1683.13" cy="-485.049" rx="4.00002" ry="4.00002"/>
<polygon fill="#0a207d" stroke="#0a207d" points="617.902,-431.906 610.861,-423.499 613.402,-429.728 608.901,-427.55 608.901,-427.55 608.901,-427.55 613.402,-429.728 606.941,-431.6 617.902,-431.906 617.902,-431.906"/>
</g>
<!-- User&#45;&gt;Edge -->
<g id="edge51" class="edge"><title>User&#45;&gt;Edge</title>
<path fill="none" stroke="#f19d28" d="M1704.05,-479.579C1715.19,-440.684 1729.82,-364.521 1691,-320 1658.73,-282.994 1620.43,-332.565 1582,-302 1543.63,-271.482 1578.15,-230.794 1540,-200 1504.86,-171.635 1483.08,-195.535 1440,-182 1438.08,-181.396 1436.13,-180.716 1434.17,-179.984"/>
<ellipse fill="none" stroke="#f19d28" cx="1702.89" cy="-483.456" rx="4.00001" ry="4.00001"/>
<polygon fill="#f19d28" stroke="#f19d28" points="1433.79,-179.827 1426.27,-171.848 1429.17,-177.917 1424.55,-176.007 1424.55,-176.007 1424.55,-176.007 1429.17,-177.917 1422.83,-180.165 1433.79,-179.827 1433.79,-179.827"/>
</g>
<!-- User&#45;&gt;ReferenceEdge -->
<g id="edge53" class="edge"><title>User&#45;&gt;ReferenceEdge</title>
<path fill="none" stroke="#c16ade" d="M1713.88,-482.609C1719.33,-476.807 1725.59,-470.806 1732,-466 1745.99,-455.502 1757.53,-462.709 1767,-448 1819.36,-366.646 1774.07,-244.174 1749.88,-191.083"/>
<ellipse fill="none" stroke="#c16ade" cx="1710.99" cy="-485.798" rx="4.00002" ry="4.00002"/>
<polygon fill="#c16ade" stroke="#c16ade" points="1749.87,-191.062 1749.71,-180.097 1747.75,-186.532 1745.63,-182.002 1745.63,-182.002 1745.63,-182.002 1747.75,-186.532 1741.56,-183.907 1749.87,-191.062 1749.87,-191.062"/>
</g>
<!-- User&#45;&gt;Comment -->
<g id="edge29" class="edge"><title>User&#45;&gt;Comment</title>
<path fill="none" stroke="#9f86e2" d="M1680.48,-481.832C1674.83,-475.532 1667.86,-469.451 1660,-466 1597.37,-438.516 496.62,-458.274 429,-448 373.108,-439.508 307,-468.534 307,-412 307,-412 307,-412 307,-250 307,-230.719 305.702,-209.021 304.429,-192.373"/>
<ellipse fill="none" stroke="#9f86e2" cx="1683.14" cy="-485.034" rx="4.00002" ry="4.00002"/>
<polygon fill="#9f86e2" stroke="#9f86e2" points="304.415,-192.206 308.095,-181.876 304.012,-187.223 303.61,-182.239 303.61,-182.239 303.61,-182.239 304.012,-187.223 299.124,-182.602 304.415,-192.206 304.415,-192.206"/>
</g>
<!-- User&#45;&gt;SummaryLink -->
<g id="edge32" class="edge"><title>User&#45;&gt;SummaryLink</title>
<path fill="none" stroke="#8b89f1" d="M1713.24,-482.38C1718.75,-476.475 1725.2,-470.477 1732,-466 1773.21,-438.868 1829,-461.341 1829,-412 1829,-412 1829,-412 1829,-206.5 1829,-178.316 1832.02,-163.592 1810,-146 1770.63,-114.547 1408.05,-114.84 1358,-109 1342.06,-107.14 1324.89,-104.737 1308.91,-102.328"/>
<ellipse fill="none" stroke="#8b89f1" cx="1710.31" cy="-485.684" rx="4.00002" ry="4.00002"/>
<polygon fill="#8b89f1" stroke="#8b89f1" points="1308.49,-102.263 1299.28,-96.3011 1303.54,-101.506 1298.6,-100.749 1298.6,-100.749 1298.6,-100.749 1303.54,-101.506 1297.92,-105.197 1308.49,-102.263 1308.49,-102.263"/>
</g>
<!-- VisiteTimeline -->
<g id="node15" class="node"><title>VisiteTimeline</title>
<ellipse fill="none" stroke="black" cx="2187" cy="-411" rx="63.8893" ry="18"/>
<text text-anchor="middle" x="2187" y="-407.3" font-family="Times,serif" font-size="14.00">VisiteTimeline</text>
</g>
<!-- User&#45;&gt;VisiteTimeline -->
<g id="edge42" class="edge"><title>User&#45;&gt;VisiteTimeline</title>
<path fill="none" stroke="#14f603" d="M1711.59,-481.986C1717.25,-475.696 1724.19,-469.581 1732,-466 1808.24,-431.031 2027.53,-467.942 2109,-448 2123.34,-444.49 2138.25,-438.313 2151.15,-432.056"/>
<ellipse fill="none" stroke="#14f603" cx="1708.93" cy="-485.174" rx="4.00002" ry="4.00002"/>
<polygon fill="#14f603" stroke="#14f603" points="2151.21,-432.022 2162.17,-431.541 2155.68,-429.772 2160.14,-427.522 2160.14,-427.522 2160.14,-427.522 2155.68,-429.772 2158.12,-423.504 2151.21,-432.022 2151.21,-432.022"/>
</g>
<!-- UserDetail -->
<g id="node16" class="node"><title>UserDetail</title>
<ellipse fill="none" stroke="black" cx="2317" cy="-411" rx="48.9926" ry="18"/>
<text text-anchor="middle" x="2317" y="-407.3" font-family="Times,serif" font-size="14.00">UserDetail</text>
</g>
<!-- User&#45;&gt;UserDetail -->
<g id="edge56" class="edge"><title>User&#45;&gt;UserDetail</title>
<path fill="none" stroke="#26b7d9" d="M1711.58,-481.978C1717.24,-475.687 1724.19,-469.573 1732,-466 1771.65,-447.857 2080.58,-452.021 2124,-448 2184.77,-442.372 2200.36,-441.981 2260,-429 2264.52,-428.015 2269.21,-426.854 2273.87,-425.608"/>
<ellipse fill="none" stroke="#26b7d9" cx="1708.93" cy="-485.167" rx="4.00002" ry="4.00002"/>
<ellipse fill="#26b7d9" stroke="#26b7d9" cx="2277.79" cy="-424.519" rx="4.00001" ry="4.00001"/>
</g>
<!-- SuggestionVote -->
<g id="node19" class="node"><title>SuggestionVote</title>
<ellipse fill="none" stroke="black" cx="2182" cy="-91" rx="66.8882" ry="18"/>
<text text-anchor="middle" x="2182" y="-87.3" font-family="Times,serif" font-size="14.00">SuggestionVote</text>
</g>
<!-- User&#45;&gt;SuggestionVote -->
<g id="edge45" class="edge"><title>User&#45;&gt;SuggestionVote</title>
<path fill="none" stroke="#20c975" d="M1711.64,-482.095C1717.3,-475.81 1724.24,-469.671 1732,-466 1782.95,-441.904 1930.19,-461.139 1985,-448 2006.11,-442.939 2014.1,-443.787 2030,-429 2124.84,-340.769 2164.62,-182.199 2177.2,-119.035"/>
<ellipse fill="none" stroke="#20c975" cx="1708.98" cy="-485.273" rx="4.00002" ry="4.00002"/>
<polygon fill="#20c975" stroke="#20c975" points="2177.23,-118.883 2183.54,-109.913 2178.17,-113.973 2179.12,-109.063 2179.12,-109.063 2179.12,-109.063 2178.17,-113.973 2174.7,-108.214 2177.23,-118.883 2177.23,-118.883"/>
</g>
<!-- User&#45;&gt;Timeline -->
<g id="edge27" class="edge"><title>User&#45;&gt;Timeline</title>
<path fill="none" stroke="#8b40b4" d="M1681.25,-481.434C1675.1,-471.446 1668.2,-459.399 1663,-448 1638.08,-393.408 1666.18,-358.333 1620,-320 1611.64,-313.06 1307.83,-273.98 1184.88,-258.406"/>
<ellipse fill="none" stroke="#8b40b4" cx="1683.43" cy="-484.915" rx="4.00002" ry="4.00002"/>
<polygon fill="#8b40b4" stroke="#8b40b4" points="1184.52,-258.361 1175.17,-252.641 1179.56,-257.733 1174.6,-257.106 1174.6,-257.106 1174.6,-257.106 1179.56,-257.733 1174.04,-261.57 1184.52,-258.361 1184.52,-258.361"/>
</g>
<!-- User&#45;&gt;Typo -->
<g id="edge47" class="edge"><title>User&#45;&gt;Typo</title>
<path fill="none" stroke="#b9733c" d="M1680.49,-481.817C1674.83,-475.517 1667.87,-469.439 1660,-466 1580.58,-431.294 176.18,-489.337 100,-448 83.0984,-438.829 76,-431.23 76,-412 76,-412 76,-412 76,-163 76,-82.4525 171.502,-130.955 249,-109 254.896,-107.33 261.124,-105.443 267.157,-103.551"/>
<ellipse fill="none" stroke="#b9733c" cx="1683.14" cy="-485.021" rx="4.00002" ry="4.00002"/>
<polygon fill="#b9733c" stroke="#b9733c" points="267.508,-103.439 278.403,-104.684 272.271,-101.918 277.034,-100.397 277.034,-100.397 277.034,-100.397 272.271,-101.918 275.665,-96.1102 267.508,-103.439 267.508,-103.439"/>
</g>
<!-- User&#45;&gt;Typo -->
<g id="edge48" class="edge"><title>User&#45;&gt;Typo</title>
<path fill="none" stroke="#6aca50" d="M1680.49,-481.826C1674.83,-475.526 1667.87,-469.446 1660,-466 1591.65,-436.058 391.285,-455.038 317,-448 225.779,-439.358 114,-503.63 114,-412 114,-412 114,-412 114,-206.5 114,-170.883 213.67,-126.43 267.866,-104.891"/>
<ellipse fill="none" stroke="#6aca50" cx="1683.14" cy="-485.029" rx="4.00002" ry="4.00002"/>
<polygon fill="#6aca50" stroke="#6aca50" points="268.113,-104.794 279.065,-105.332 272.767,-102.968 277.422,-101.143 277.422,-101.143 277.422,-101.143 272.767,-102.968 275.779,-96.9535 268.113,-104.794 268.113,-104.794"/>
<text text-anchor="middle" x="155" y="-290.8" font-family="Times,serif" font-size="14.00">received_typos</text>
</g>
<!-- SuggestionChild -->
<g id="node24" class="node"><title>SuggestionChild</title>
<ellipse fill="none" stroke="black" cx="2336" cy="-91" rx="69.5877" ry="18"/>
<text text-anchor="middle" x="2336" y="-87.3" font-family="Times,serif" font-size="14.00">SuggestionChild</text>
</g>
<!-- User&#45;&gt;SuggestionChild -->
<g id="edge44" class="edge"><title>User&#45;&gt;SuggestionChild</title>
<path fill="none" stroke="#c0163a" d="M1711.54,-481.882C1717.2,-475.586 1724.15,-469.494 1732,-466 1767.84,-450.039 2398.83,-450.244 2438,-448 2532.89,-442.564 2586.85,-499.127 2651,-429 2661.8,-417.194 2659.71,-406.419 2651,-393 2592.97,-303.646 2432,-402.044 2432,-295.5 2432,-295.5 2432,-295.5 2432,-163 2432,-137.948 2410.61,-120.727 2388.02,-109.525"/>
<ellipse fill="none" stroke="#c0163a" cx="1708.88" cy="-485.08" rx="4.00002" ry="4.00002"/>
<polygon fill="#c0163a" stroke="#c0163a" points="2387.75,-109.404 2380.54,-101.143 2383.21,-107.319 2378.67,-105.233 2378.67,-105.233 2378.67,-105.233 2383.21,-107.319 2376.79,-109.323 2387.75,-109.404 2387.75,-109.404"/>
</g>
<!-- User&#45;&gt;ReferenceUserTag -->
<g id="edge55" class="edge"><title>User&#45;&gt;ReferenceUserTag</title>
<path fill="none" stroke="#372574" d="M1680.48,-481.847C1674.82,-475.549 1667.86,-469.464 1660,-466 1609,-443.52 712.592,-451.94 657,-448 588.649,-443.156 549.369,-480.351 504,-429 459.822,-378.996 536.449,-309.462 583.078,-274.284"/>
<ellipse fill="none" stroke="#372574" cx="1683.13" cy="-485.048" rx="4.00002" ry="4.00002"/>
<polygon fill="#372574" stroke="#372574" points="583.082,-274.281 593.797,-271.948 587.101,-271.306 591.12,-268.331 591.12,-268.331 591.12,-268.331 587.101,-271.306 588.442,-264.714 583.082,-274.281 583.082,-274.281"/>
</g>
<!-- Frame -->
<g id="node26" class="node"><title>Frame</title>
<ellipse fill="none" stroke="black" cx="640" cy="-164" rx="33.5952" ry="18"/>
<text text-anchor="middle" x="640" y="-160.3" font-family="Times,serif" font-size="14.00">Frame</text>
</g>
<!-- User&#45;&gt;Frame -->
<g id="edge49" class="edge"><title>User&#45;&gt;Frame</title>
<path fill="none" stroke="#a3bf3f" d="M1680.48,-481.837C1674.83,-475.538 1667.86,-469.455 1660,-466 1601.76,-440.404 577.847,-457.879 515,-448 460.834,-439.486 397,-466.831 397,-412 397,-412 397,-412 397,-250 397,-228.797 530.515,-192.325 599.61,-174.869"/>
<ellipse fill="none" stroke="#a3bf3f" cx="1683.14" cy="-485.039" rx="4.00002" ry="4.00002"/>
<polygon fill="#a3bf3f" stroke="#a3bf3f" points="600.015,-174.768 610.809,-176.701 604.865,-173.552 609.715,-172.336 609.715,-172.336 609.715,-172.336 604.865,-173.552 608.621,-167.971 600.015,-174.768 600.015,-174.768"/>
</g>
<!-- User&#45;&gt;ReferenceContributor -->
<g id="edge36" class="edge"><title>User&#45;&gt;ReferenceContributor</title>
<path fill="none" stroke="#c7d11a" d="M1680.36,-482.113C1674.69,-475.829 1667.76,-469.686 1660,-466 1610.39,-442.42 1221.63,-434.769 1167,-429 990.354,-410.345 943.156,-418.753 771,-375 754.296,-370.755 736.502,-364.505 720.884,-358.4"/>
<ellipse fill="none" stroke="#c7d11a" cx="1683.01" cy="-485.289" rx="4.00002" ry="4.00002"/>
<polygon fill="#c7d11a" stroke="#c7d11a" points="720.756,-358.348 713.141,-350.458 716.113,-356.492 711.471,-354.636 711.471,-354.636 711.471,-354.636 716.113,-356.492 709.8,-358.815 720.756,-358.348 720.756,-358.348"/>
</g>
<!-- SuggestionChildVote -->
<g id="node28" class="node"><title>SuggestionChildVote</title>
<ellipse fill="none" stroke="black" cx="522" cy="-18" rx="86.3847" ry="18"/>
<text text-anchor="middle" x="522" y="-14.3" font-family="Times,serif" font-size="14.00">SuggestionChildVote</text>
</g>
<!-- User&#45;&gt;SuggestionChildVote -->
<g id="edge46" class="edge"><title>User&#45;&gt;SuggestionChildVote</title>
<path fill="none" stroke="#4640f5" d="M1680.49,-481.817C1674.83,-475.516 1667.87,-469.438 1660,-466 1579.97,-431.031 174.007,-463.197 88,-448 46.3873,-440.647 0,-454.257 0,-412 0,-412 0,-412 0,-90 0,-47.3649 276.941,-29.1707 427.386,-22.4325"/>
<ellipse fill="none" stroke="#4640f5" cx="1683.14" cy="-485.021" rx="4.00002" ry="4.00002"/>
<polygon fill="#4640f5" stroke="#4640f5" points="427.561,-22.4249 437.749,-26.4816 432.556,-22.2054 437.552,-21.986 437.552,-21.986 437.552,-21.986 432.556,-22.2054 437.354,-17.4903 427.561,-22.4249 427.561,-22.4249"/>
</g>
<!-- User&#45;&gt;EdgeVote -->
<g id="edge52" class="edge"><title>User&#45;&gt;EdgeVote</title>
<path fill="none" stroke="#313028" d="M1711.64,-482.114C1717.31,-475.83 1724.24,-469.687 1732,-466 1828.2,-420.262 1871.28,-485.459 1971,-448 1995.96,-438.623 2019,-438.667 2019,-412 2019,-412 2019,-412 2019,-163 2019,-148.6 2017.76,-132.616 2016.41,-119.465"/>
<ellipse fill="none" stroke="#313028" cx="1708.99" cy="-485.29" rx="4.00002" ry="4.00002"/>
<polygon fill="#313028" stroke="#313028" points="2016.37,-119.121 2019.74,-108.687 2015.82,-114.152 2015.27,-109.182 2015.27,-109.182 2015.27,-109.182 2015.82,-114.152 2010.8,-109.677 2016.37,-119.121 2016.37,-119.121"/>
</g>
<!-- NotificationSuggestion -->
<g id="node32" class="node"><title>NotificationSuggestion</title>
<ellipse fill="none" stroke="black" cx="2336" cy="-18" rx="92.0841" ry="18"/>
<text text-anchor="middle" x="2336" y="-14.3" font-family="Times,serif" font-size="14.00">NotificationSuggestion</text>
</g>
<!-- User&#45;&gt;NotificationSuggestion -->
<g id="edge40" class="edge"><title>User&#45;&gt;NotificationSuggestion</title>
<path fill="none" stroke="#d0a46e" d="M1711.63,-482.075C1717.29,-475.79 1724.23,-469.655 1732,-466 1786.21,-440.502 1942.16,-459.267 2001,-448 2028.06,-442.819 2035.19,-440.977 2060,-429 2085.98,-416.46 2087.75,-404.963 2114,-393 2263.27,-324.962 2470,-459.549 2470,-295.5 2470,-295.5 2470,-295.5 2470,-90 2470,-60.4327 2444.21,-43.1433 2415.26,-33.0496"/>
<ellipse fill="none" stroke="#d0a46e" cx="1708.97" cy="-485.255" rx="4.00002" ry="4.00002"/>
<polygon fill="#d0a46e" stroke="#d0a46e" points="2414.88,-32.9293 2406.72,-25.6072 2410.12,-31.4122 2405.36,-29.8951 2405.36,-29.8951 2405.36,-29.8951 2410.12,-31.4122 2403.99,-34.1829 2414.88,-32.9293 2414.88,-32.9293"/>
</g>
<!-- Invitation -->
<g id="node33" class="node"><title>Invitation</title>
<ellipse fill="none" stroke="black" cx="2467" cy="-411" rx="44.6926" ry="18"/>
<text text-anchor="middle" x="2467" y="-407.3" font-family="Times,serif" font-size="14.00">Invitation</text>
</g>
<!-- User&#45;&gt;Invitation -->
<g id="edge58" class="edge"><title>User&#45;&gt;Invitation</title>
<path fill="none" stroke="#792292" d="M1711.54,-481.888C1717.2,-475.592 1724.16,-469.498 1732,-466 1800.62,-435.395 2335.94,-469.287 2408,-448 2418.9,-444.78 2429.81,-439.014 2439.23,-433.027"/>
<ellipse fill="none" stroke="#792292" cx="1708.89" cy="-485.085" rx="4.00002" ry="4.00002"/>
<polygon fill="#792292" stroke="#792292" points="2439.46,-432.873 2450.27,-431.029 2443.61,-430.084 2447.76,-427.295 2447.76,-427.295 2447.76,-427.295 2443.61,-430.084 2445.25,-423.56 2439.46,-432.873 2439.46,-432.873"/>
</g>
<!-- Credit -->
<g id="node34" class="node"><title>Credit</title>
<ellipse fill="none" stroke="black" cx="1689" cy="-91" rx="32.4942" ry="18"/>
<text text-anchor="middle" x="1689" y="-87.3" font-family="Times,serif" font-size="14.00">Credit</text>
</g>
<!-- User&#45;&gt;Credit -->
<g id="edge34" class="edge"><title>User&#45;&gt;Credit</title>
<path fill="none" stroke="#42cb0a" d="M1711.93,-481.836C1717.54,-475.659 1724.38,-469.647 1732,-466 1777.25,-444.357 1922.98,-484.855 1957,-448 1981.94,-420.99 2005.11,-265.468 1919,-146 1893.5,-110.619 1787.48,-110.726 1778,-109 1762.03,-106.093 1744.47,-102.768 1729.21,-99.8332"/>
<ellipse fill="none" stroke="#42cb0a" cx="1709.31" cy="-484.931" rx="4.00002" ry="4.00002"/>
<polygon fill="#42cb0a" stroke="#42cb0a" points="1728.87,-99.768 1719.9,-93.4556 1723.96,-98.8211 1719.05,-97.8742 1719.05,-97.8742 1719.05,-97.8742 1723.96,-98.8211 1718.2,-102.293 1728.87,-99.768 1728.87,-99.768"/>
</g>
<!-- User&#45;&gt;ReferenceEdgeVote -->
<g id="edge54" class="edge"><title>User&#45;&gt;ReferenceEdgeVote</title>
<path fill="none" stroke="#67cfb3" d="M1711.98,-481.949C1717.6,-475.777 1724.42,-469.74 1732,-466 1807.59,-428.706 1883.03,-505.689 1918,-429 1961.15,-334.384 1986.79,-301.889 1966,-200 1960.78,-174.441 1959.3,-166.37 1943,-146 1932.81,-133.256 1918.87,-122.113 1905.78,-113.312"/>
<ellipse fill="none" stroke="#67cfb3" cx="1709.37" cy="-485.034" rx="4.00002" ry="4.00002"/>
<polygon fill="#67cfb3" stroke="#67cfb3" points="1905.75,-113.293 1899.78,-104.092 1901.55,-110.583 1897.34,-107.874 1897.34,-107.874 1897.34,-107.874 1901.55,-110.583 1894.91,-111.655 1905.75,-113.293 1905.75,-113.293"/>
</g>
<!-- PendingUser -->
<g id="node36" class="node"><title>PendingUser</title>
<ellipse fill="none" stroke="black" cx="2586" cy="-411" rx="55.7903" ry="18"/>
<text text-anchor="middle" x="2586" y="-407.3" font-family="Times,serif" font-size="14.00">PendingUser</text>
</g>
<!-- User&#45;&gt;PendingUser -->
<g id="edge57" class="edge"><title>User&#45;&gt;PendingUser</title>
<path fill="none" stroke="#b0dfb2" d="M1711.54,-481.885C1717.2,-475.589 1724.16,-469.496 1732,-466 1802.05,-434.78 2345.75,-456.255 2422,-448 2461.27,-443.748 2504.92,-433.91 2537.31,-425.591"/>
<ellipse fill="none" stroke="#b0dfb2" cx="1708.89" cy="-485.083" rx="4.00002" ry="4.00002"/>
<ellipse fill="#b0dfb2" stroke="#b0dfb2" cx="2541.42" cy="-424.521" rx="4.00001" ry="4.00001"/>
</g>
<!-- TimelineContributor -->
<g id="node37" class="node"><title>TimelineContributor</title>
<ellipse fill="none" stroke="black" cx="1533" cy="-164" rx="83.6854" ry="18"/>
<text text-anchor="middle" x="1533" y="-160.3" font-family="Times,serif" font-size="14.00">TimelineContributor</text>
</g>
<!-- User&#45;&gt;TimelineContributor -->
<g id="edge35" class="edge"><title>User&#45;&gt;TimelineContributor</title>
<path fill="none" stroke="#d3ca67" d="M1712.87,-481.667C1719.25,-471.876 1725.75,-459.915 1729,-448 1743.97,-393.116 1746.59,-374.1 1729,-320 1706.9,-252.033 1632.07,-207.352 1581.53,-184.135"/>
<ellipse fill="none" stroke="#d3ca67" cx="1710.55" cy="-485.076" rx="4.00002" ry="4.00002"/>
<polygon fill="#d3ca67" stroke="#d3ca67" points="1581.53,-184.132 1574.24,-175.941 1576.96,-182.091 1572.4,-180.049 1572.4,-180.049 1572.4,-180.049 1576.96,-182.091 1570.56,-184.157 1581.53,-184.132 1581.53,-184.132"/>
</g>
<!-- User&#45;&gt;Figure -->
<g id="edge59" class="edge"><title>User&#45;&gt;Figure</title>
<path fill="none" stroke="#346aed" d="M1697.02,-478.582C1697.14,-438.57 1691.05,-361.217 1646,-320 1618.47,-294.815 1598.5,-316.199 1564,-302 1485.67,-269.764 1480.16,-234.956 1403,-200 1377.97,-188.659 1348.32,-179.928 1324.88,-174.022"/>
<ellipse fill="none" stroke="#346aed" cx="1696.97" cy="-482.758" rx="4" ry="4"/>
<polygon fill="#346aed" stroke="#346aed" points="1324.63,-173.961 1315.99,-167.215 1319.77,-172.774 1314.92,-171.587 1314.92,-171.587 1314.92,-171.587 1319.77,-172.774 1313.85,-175.958 1324.63,-173.961 1324.63,-173.961"/>
</g>
<!-- User&#45;&gt;Binary -->
<g id="edge60" class="edge"><title>User&#45;&gt;Binary</title>
<path fill="none" stroke="#83c77d" d="M1678.12,-482.609C1672.67,-476.807 1666.41,-470.806 1660,-466 1646.01,-455.502 1636.99,-460.735 1625,-448 1603.15,-424.789 1590.2,-389.998 1583.37,-365.996"/>
<ellipse fill="none" stroke="#83c77d" cx="1681.01" cy="-485.798" rx="4.00002" ry="4.00002"/>
<polygon fill="#83c77d" stroke="#83c77d" points="1583.31,-365.781 1585.07,-354.958 1582.02,-360.951 1580.72,-356.121 1580.72,-356.121 1580.72,-356.121 1582.02,-360.951 1576.38,-357.285 1583.31,-365.781 1583.31,-365.781"/>
</g>
<!-- FrameCredit -->
<g id="node40" class="node"><title>FrameCredit</title>
<ellipse fill="none" stroke="black" cx="1423" cy="-91" rx="55.7903" ry="18"/>
<text text-anchor="middle" x="1423" y="-87.3" font-family="Times,serif" font-size="14.00">FrameCredit</text>
</g>
<!-- User&#45;&gt;FrameCredit -->
<g id="edge50" class="edge"><title>User&#45;&gt;FrameCredit</title>
<path fill="none" stroke="#ef5053" d="M1712.11,-482.208C1717.74,-476.048 1724.53,-469.952 1732,-466 1789.12,-435.782 1867,-476.622 1867,-412 1867,-412 1867,-412 1867,-206.5 1867,-177.573 1865.94,-163.622 1843,-146 1787.11,-103.064 1597.8,-118.746 1528,-109 1512.84,-106.884 1496.5,-104.356 1481.32,-101.905"/>
<ellipse fill="none" stroke="#ef5053" cx="1709.5" cy="-485.271" rx="4.00002" ry="4.00002"/>
<polygon fill="#ef5053" stroke="#ef5053" points="1480.89,-101.836 1471.75,-95.7854 1475.96,-101.032 1471.02,-100.227 1471.02,-100.227 1471.02,-100.227 1475.96,-101.032 1470.3,-104.668 1480.89,-101.836 1480.89,-101.836"/>
</g>
<!-- Like -->
<g id="node43" class="node"><title>Like</title>
<ellipse fill="none" stroke="black" cx="719" cy="-164" rx="27" ry="18"/>
<text text-anchor="middle" x="719" y="-160.3" font-family="Times,serif" font-size="14.00">Like</text>
</g>
<!-- User&#45;&gt;Like -->
<g id="edge37" class="edge"><title>User&#45;&gt;Like</title>
<path fill="none" stroke="#f0f248" d="M1680.48,-481.837C1674.83,-475.538 1667.86,-469.456 1660,-466 1602.11,-440.557 583.16,-464.046 522,-448 504.88,-443.508 496.05,-444.211 487,-429 441.447,-352.438 465.943,-295.934 529,-233 580.032,-182.067 616.056,-208.776 683,-182 684.829,-181.268 686.697,-180.489 688.572,-179.682"/>
<ellipse fill="none" stroke="#f0f248" cx="1683.14" cy="-485.039" rx="4.00002" ry="4.00002"/>
<polygon fill="#f0f248" stroke="#f0f248" points="688.748,-179.603 699.714,-179.605 693.308,-177.552 697.868,-175.501 697.868,-175.501 697.868,-175.501 693.308,-177.552 696.023,-171.397 688.748,-179.603 688.748,-179.603"/>
</g>
<!-- User&#45;&gt;Link -->
<g id="edge31" class="edge"><title>User&#45;&gt;Link</title>
<path fill="none" stroke="#beb811" d="M1712.02,-482.023C1717.64,-475.854 1724.45,-469.8 1732,-466 1803.95,-429.786 1905,-492.548 1905,-412 1905,-412 1905,-412 1905,-206.5 1905,-84.3342 1768.22,-130.701 1648,-109 1632.06,-106.122 1614.48,-102.618 1599.55,-99.5395"/>
<ellipse fill="none" stroke="#beb811" cx="1709.4" cy="-485.101" rx="4.00002" ry="4.00002"/>
<polygon fill="#beb811" stroke="#beb811" points="1599.47,-99.524 1590.6,-93.0838 1594.58,-98.5069 1589.68,-97.4897 1589.68,-97.4897 1589.68,-97.4897 1594.58,-98.5069 1588.77,-101.896 1599.47,-99.524 1599.47,-99.524"/>
</g>
<!-- Suggestion -->
<g id="node45" class="node"><title>Suggestion</title>
<ellipse fill="none" stroke="black" cx="2097" cy="-164" rx="50.0912" ry="18"/>
<text text-anchor="middle" x="2097" y="-160.3" font-family="Times,serif" font-size="14.00">Suggestion</text>
</g>
<!-- User&#45;&gt;Suggestion -->
<g id="edge43" class="edge"><title>User&#45;&gt;Suggestion</title>
<path fill="none" stroke="#609ce0" d="M1711.58,-481.968C1717.24,-475.676 1724.19,-469.565 1732,-466 1773.59,-447.024 2097.38,-450.866 2143,-448 2199.24,-444.467 2394,-468.349 2394,-412 2394,-412 2394,-412 2394,-250 2394,-200.91 2242.14,-178.563 2155.59,-169.814"/>
<ellipse fill="none" stroke="#609ce0" cx="1708.92" cy="-485.158" rx="4.00002" ry="4.00002"/>
<polygon fill="#609ce0" stroke="#609ce0" points="2155.33,-169.788 2145.82,-164.335 2150.36,-169.301 2145.38,-168.813 2145.38,-168.813 2145.38,-168.813 2150.36,-169.301 2144.94,-173.292 2155.33,-169.788 2155.33,-169.788"/>
</g>
<!-- Summary -->
<g id="node46" class="node"><title>Summary</title>
<ellipse fill="none" stroke="black" cx="848" cy="-164" rx="46.2923" ry="18"/>
<text text-anchor="middle" x="848" y="-160.3" font-family="Times,serif" font-size="14.00">Summary</text>
</g>
<!-- User&#45;&gt;Summary -->
<g id="edge30" class="edge"><title>User&#45;&gt;Summary</title>
<path fill="none" stroke="#9f2ede" d="M1680.42,-481.976C1674.76,-475.685 1667.81,-469.572 1660,-466 1618.98,-447.239 893.56,-435.976 849,-429 818.403,-424.21 598.814,-380.6 580,-356 570.28,-343.291 571.152,-333.331 580,-320 612.272,-271.376 649.991,-297.353 701,-269 745.268,-244.394 792.379,-209.281 821.005,-186.813"/>
<ellipse fill="none" stroke="#9f2ede" cx="1683.07" cy="-485.165" rx="4.00002" ry="4.00002"/>
<polygon fill="#9f2ede" stroke="#9f2ede" points="821.079,-186.755 831.713,-184.081 825,-183.654 828.922,-180.552 828.922,-180.552 828.922,-180.552 825,-183.654 826.13,-177.022 821.079,-186.755 821.079,-186.755"/>
</g>
<!-- Newsletter -->
<g id="node18" class="node"><title>Newsletter</title>
<ellipse fill="none" stroke="black" cx="1790" cy="-505" rx="48.9926" ry="18"/>
<text text-anchor="middle" x="1790" y="-501.3" font-family="Times,serif" font-size="14.00">Newsletter</text>
</g>
<!-- Timeline&#45;&gt;Vote -->
<g id="edge70" class="edge"><title>Timeline&#45;&gt;Vote</title>
<path fill="none" stroke="#381300" d="M1083.55,-246.846C1012.16,-242.015 877.659,-231.563 764,-215 689.133,-204.09 664.221,-216.718 597,-182 576.33,-171.324 580.241,-155.491 559,-146 467.391,-105.067 206.058,-134.442 109,-109 106.833,-108.432 104.636,-107.744 102.449,-106.975"/>
<ellipse fill="none" stroke="#381300" cx="1087.95" cy="-247.14" rx="4" ry="4"/>
<polygon fill="#381300" stroke="#381300" points="102.331,-106.928 94.7303,-99.0238 97.692,-105.064 93.0525,-103.199 93.0525,-103.199 93.0525,-103.199 97.692,-105.064 91.3747,-107.375 102.331,-106.928 102.331,-106.928"/>
</g>
<!-- Timeline&#45;&gt;Notification -->
<g id="edge67" class="edge"><title>Timeline&#45;&gt;Notification</title>
<path fill="none" stroke="#b1945c" d="M1122.67,-225.471C1121.08,-221.964 1119.49,-218.396 1118,-215 1104.64,-184.536 1115.56,-166.032 1089,-146 1033.96,-104.487 848.649,-122.262 781,-109 776.568,-108.131 771.987,-107.112 767.416,-106.012"/>
<ellipse fill="none" stroke="#b1945c" cx="1124.42" cy="-229.318" rx="4.00002" ry="4.00002"/>
<polygon fill="#b1945c" stroke="#b1945c" points="767.181,-105.953 758.589,-99.1389 762.334,-104.727 757.486,-103.502 757.486,-103.502 757.486,-103.502 762.334,-104.727 756.383,-107.864 767.181,-105.953 767.181,-105.953"/>
</g>
<!-- Timeline&#45;&gt;Reference -->
<g id="edge62" class="edge"><title>Timeline&#45;&gt;Reference</title>
<path fill="none" stroke="#eabd7b" d="M1183.99,-256.813C1224.41,-263.636 1278.89,-280.129 1306,-320 1315,-333.231 1313.67,-341.957 1306,-356 1296.9,-372.663 1280.22,-384.952 1264.1,-393.559"/>
<ellipse fill="none" stroke="#eabd7b" cx="1179.8" cy="-256.156" rx="4.00001" ry="4.00001"/>
<polygon fill="#eabd7b" stroke="#eabd7b" points="1263.7,-393.76 1252.74,-394.176 1259.22,-395.983 1254.74,-398.207 1254.74,-398.207 1254.74,-398.207 1259.22,-395.983 1256.74,-402.237 1263.7,-393.76 1263.7,-393.76"/>
</g>
<!-- Timeline&#45;&gt;Edge -->
<g id="edge71" class="edge"><title>Timeline&#45;&gt;Edge</title>
<path fill="none" stroke="#43b59f" d="M1185.02,-249.207C1249.96,-247.16 1357.3,-239.976 1387,-215 1393.74,-209.328 1397.68,-200.808 1399.96,-192.401"/>
<ellipse fill="none" stroke="#43b59f" cx="1180.93" cy="-249.326" rx="4" ry="4"/>
<polygon fill="#43b59f" stroke="#43b59f" points="1400,-192.198 1406.41,-183.301 1401,-187.299 1402,-182.4 1402,-182.4 1402,-182.4 1401,-187.299 1397.59,-181.499 1400,-192.198 1400,-192.198"/>
</g>
<!-- Timeline&#45;&gt;Edge -->
<g id="edge72" class="edge"><title>Timeline&#45;&gt;Edge</title>
<path fill="none" stroke="#be5e9a" d="M1182.55,-243.19C1214.39,-237.773 1256.54,-228.779 1292,-215 1304.43,-210.168 1306.03,-205.886 1318,-200 1334.6,-191.837 1353.6,-183.889 1369.42,-177.636"/>
<ellipse fill="none" stroke="#be5e9a" cx="1178.22" cy="-243.905" rx="4.00001" ry="4.00001"/>
<polygon fill="#be5e9a" stroke="#be5e9a" points="1369.49,-177.608 1380.44,-178.167 1374.15,-175.791 1378.81,-173.974 1378.81,-173.974 1378.81,-173.974 1374.15,-175.791 1377.17,-169.782 1369.49,-177.608 1369.49,-177.608"/>
<text text-anchor="middle" x="1350.5" y="-203.8" font-family="Times,serif" font-size="14.00">edges_from</text>
</g>
<!-- Timeline&#45;&gt;Tagging -->
<g id="edge76" class="edge"><title>Timeline&#45;&gt;Tagging</title>
<path fill="none" stroke="#dfd82b" d="M1097.23,-234.19C1087.67,-228.981 1077.86,-222.551 1070,-215 1062.89,-208.172 1056.85,-199.305 1052.1,-190.939"/>
<ellipse fill="none" stroke="#dfd82b" cx="1100.9" cy="-236.093" rx="4.00002" ry="4.00002"/>
<polygon fill="#dfd82b" stroke="#dfd82b" points="1051.96,-190.679 1051.26,-179.736 1049.62,-186.26 1047.28,-181.84 1047.28,-181.84 1047.28,-181.84 1049.62,-186.26 1043.3,-183.945 1051.96,-190.679 1051.96,-190.679"/>
</g>
<!-- Timeline&#45;&gt;ReferenceEdge -->
<g id="edge73" class="edge"><title>Timeline&#45;&gt;ReferenceEdge</title>
<path fill="none" stroke="#4cb575" d="M1183.69,-245.265C1245,-239.22 1352.39,-227.977 1444,-215 1524.18,-203.642 1616.15,-187.422 1675.34,-176.567"/>
<ellipse fill="none" stroke="#4cb575" cx="1179.69" cy="-245.657" rx="4" ry="4"/>
<polygon fill="#4cb575" stroke="#4cb575" points="1675.44,-176.549 1686.08,-179.165 1680.35,-175.644 1685.27,-174.739 1685.27,-174.739 1685.27,-174.739 1680.35,-175.644 1684.46,-170.314 1675.44,-176.549 1675.44,-176.549"/>
</g>
<!-- Timeline&#45;&gt;Rating -->
<g id="edge64" class="edge"><title>Timeline&#45;&gt;Rating</title>
<path fill="none" stroke="#faecb7" d="M1097.65,-234.323C1083.94,-228.349 1068.22,-221.431 1054,-215 1029.37,-203.862 1001.74,-190.938 980.725,-181.02"/>
<ellipse fill="none" stroke="#faecb7" cx="1101.37" cy="-235.941" rx="4.00002" ry="4.00002"/>
<polygon fill="#faecb7" stroke="#faecb7" points="980.61,-180.966 973.493,-172.623 976.09,-178.829 971.57,-176.692 971.57,-176.692 971.57,-176.692 976.09,-178.829 969.646,-180.76 980.61,-180.966 980.61,-180.966"/>
</g>
<!-- Timeline&#45;&gt;Comment -->
<g id="edge65" class="edge"><title>Timeline&#45;&gt;Comment</title>
<path fill="none" stroke="#912f88" d="M1083.23,-248.531C983.477,-245.281 754.989,-236.038 564,-215 517.699,-209.9 402.366,-192.571 357,-182 353.329,-181.145 349.545,-180.172 345.762,-179.136"/>
<ellipse fill="none" stroke="#912f88" cx="1087.34" cy="-248.663" rx="4" ry="4"/>
<polygon fill="#912f88" stroke="#912f88" points="345.438,-179.043 337.071,-171.955 340.633,-177.661 335.828,-176.28 335.828,-176.28 335.828,-176.28 340.633,-177.661 334.584,-180.604 345.438,-179.043 345.438,-179.043"/>
</g>
<!-- Timeline&#45;&gt;SummaryLink -->
<g id="edge69" class="edge"><title>Timeline&#45;&gt;SummaryLink</title>
<path fill="none" stroke="#3a4267" d="M1122.98,-225.185C1120.81,-217.02 1120.01,-207.991 1123,-200 1137.87,-160.273 1177.21,-130.156 1207.44,-111.949"/>
<ellipse fill="none" stroke="#3a4267" cx="1124.27" cy="-229.187" rx="4.00001" ry="4.00001"/>
<polygon fill="#3a4267" stroke="#3a4267" points="1207.45,-111.943 1218.36,-110.796 1211.77,-109.425 1216.09,-106.908 1216.09,-106.908 1216.09,-106.908 1211.77,-109.425 1213.82,-103.02 1207.45,-111.943 1207.45,-111.943"/>
</g>
<!-- Timeline&#45;&gt;Frame -->
<g id="edge75" class="edge"><title>Timeline&#45;&gt;Frame</title>
<path fill="none" stroke="#9621ea" d="M1083.85,-246.4C999.712,-239.486 825.356,-221.4 683,-182 680.406,-181.282 677.753,-180.46 675.103,-179.575"/>
<ellipse fill="none" stroke="#9621ea" cx="1087.96" cy="-246.732" rx="4" ry="4"/>
<polygon fill="#9621ea" stroke="#9621ea" points="675.025,-179.547 667.143,-171.924 670.321,-177.852 665.617,-176.157 665.617,-176.157 665.617,-176.157 670.321,-177.852 664.092,-180.391 675.025,-179.547 675.025,-179.547"/>
</g>
<!-- Timeline&#45;&gt;ReferenceEdgeVote -->
<g id="edge74" class="edge"><title>Timeline&#45;&gt;ReferenceEdgeVote</title>
<path fill="none" stroke="#6ecc5e" d="M1149.82,-226.59C1156.42,-217.724 1164.51,-207.878 1173,-200 1183.57,-190.188 1188.56,-190.777 1200,-182 1219.24,-167.242 1218.65,-155.399 1241,-146 1341.46,-103.759 1621.56,-119.776 1730,-109 1749.53,-107.059 1770.58,-104.635 1790.22,-102.232"/>
<ellipse fill="none" stroke="#6ecc5e" cx="1147.43" cy="-229.889" rx="4.00002" ry="4.00002"/>
<polygon fill="#6ecc5e" stroke="#6ecc5e" points="1790.41,-102.208 1800.89,-105.446 1795.37,-101.594 1800.34,-100.98 1800.34,-100.98 1800.34,-100.98 1795.37,-101.594 1799.78,-96.5137 1790.41,-102.208 1790.41,-102.208"/>
</g>
<!-- Timeline&#45;&gt;TimelineContributor -->
<g id="edge61" class="edge"><title>Timeline&#45;&gt;TimelineContributor</title>
<path fill="none" stroke="#9eae44" d="M1184.47,-247.316C1239.81,-243.503 1330.87,-234.654 1407,-215 1435.87,-207.548 1467.02,-195.227 1491.13,-184.681"/>
<ellipse fill="none" stroke="#9eae44" cx="1180.23" cy="-247.599" rx="4" ry="4"/>
<polygon fill="#9eae44" stroke="#9eae44" points="1491.19,-184.651 1502.16,-184.703 1495.76,-182.621 1500.33,-180.59 1500.33,-180.59 1500.33,-180.59 1495.76,-182.621 1498.51,-176.478 1491.19,-184.651 1491.19,-184.651"/>
</g>
<!-- Timeline&#45;&gt;Figure -->
<g id="edge78" class="edge"><title>Timeline&#45;&gt;Figure</title>
<path fill="none" stroke="#aac668" d="M1182.81,-243.421C1218.01,-237.674 1261.44,-228.177 1274,-215 1279.76,-208.964 1282.63,-200.598 1283.96,-192.435"/>
<ellipse fill="none" stroke="#aac668" cx="1178.48" cy="-244.107" rx="4.00001" ry="4.00001"/>
<polygon fill="#aac668" stroke="#aac668" points="1283.97,-192.348 1289.41,-182.825 1284.45,-187.371 1284.93,-182.394 1284.93,-182.394 1284.93,-182.394 1284.45,-187.371 1280.45,-181.963 1283.97,-192.348 1283.97,-192.348"/>
</g>
<!-- Timeline&#45;&gt;Figure -->
<g id="edge79" class="edge"><title>Timeline&#45;&gt;Figure</title>
<path fill="none" stroke="#eb4eb1" d="M1156.04,-228.37C1168.06,-216.899 1181.91,-204.304 1189,-200 1191.71,-198.353 1221.65,-187.409 1247.2,-178.191"/>
<ellipse fill="none" stroke="#eb4eb1" cx="1152.85" cy="-231.443" rx="4.00002" ry="4.00002"/>
<polygon fill="#eb4eb1" stroke="#eb4eb1" points="1247.3,-178.154 1258.23,-178.999 1252,-176.46 1256.71,-174.766 1256.71,-174.766 1256.71,-174.766 1252,-176.46 1255.18,-170.532 1247.3,-178.154 1247.3,-178.154"/>
<text text-anchor="middle" x="1229.5" y="-203.8" font-family="Times,serif" font-size="14.00">header_figures</text>
</g>
<!-- Timeline&#45;&gt;Like -->
<g id="edge66" class="edge"><title>Timeline&#45;&gt;Like</title>
<path fill="none" stroke="#8ce1a4" d="M1087.73,-241.213C1022.07,-228.645 898.14,-204.555 793,-182 780.212,-179.257 766.221,-176.086 753.88,-173.232"/>
<ellipse fill="none" stroke="#8ce1a4" cx="1091.9" cy="-242.011" rx="4.00001" ry="4.00001"/>
<polygon fill="#8ce1a4" stroke="#8ce1a4" points="753.704,-173.191 744.984,-166.542 748.835,-172.058 743.965,-170.925 743.965,-170.925 743.965,-170.925 748.835,-172.058 742.945,-175.308 753.704,-173.191 753.704,-173.191"/>
</g>
<!-- Timeline&#45;&gt;Link -->
<g id="edge68" class="edge"><title>Timeline&#45;&gt;Link</title>
<path fill="none" stroke="#c0c23b" d="M1138.12,-224.821C1140.23,-216.5 1143.36,-207.468 1148,-200 1157.46,-184.759 1191.71,-153.512 1208,-146 1321.99,-93.4325 1364.41,-130.944 1488,-109 1501.45,-106.613 1516.11,-103.463 1528.94,-100.524"/>
<ellipse fill="none" stroke="#c0c23b" cx="1137.21" cy="-228.917" rx="4.00001" ry="4.00001"/>
<polygon fill="#c0c23b" stroke="#c0c23b" points="1529.04,-100.501 1539.8,-102.613 1533.91,-99.366 1538.78,-98.2309 1538.78,-98.2309 1538.78,-98.2309 1533.91,-99.366 1537.76,-93.8484 1529.04,-100.501 1529.04,-100.501"/>
</g>
<!-- Timeline&#45;&gt;Suggestion -->
<g id="edge77" class="edge"><title>Timeline&#45;&gt;Suggestion</title>
<path fill="none" stroke="#e5dc1b" d="M1183.79,-245.605C1347.4,-231.164 1867.85,-185.226 2040.64,-169.975"/>
<ellipse fill="none" stroke="#e5dc1b" cx="1179.67" cy="-245.969" rx="4" ry="4"/>
<ellipse fill="#e5dc1b" stroke="#e5dc1b" cx="2044.86" cy="-169.602" rx="4" ry="4"/>
</g>
<!-- Timeline&#45;&gt;Summary -->
<g id="edge63" class="edge"><title>Timeline&#45;&gt;Summary</title>
<path fill="none" stroke="#99933b" d="M1091.99,-237.679C1045.86,-224.126 969.609,-201.657 904,-182 900.432,-180.931 896.738,-179.82 893.027,-178.7"/>
<ellipse fill="none" stroke="#99933b" cx="1095.85" cy="-238.812" rx="4.00001" ry="4.00001"/>
<polygon fill="#99933b" stroke="#99933b" points="892.81,-178.635 884.541,-171.433 888.024,-177.187 883.238,-175.74 883.238,-175.74 883.238,-175.74 888.024,-177.187 881.936,-180.047 892.81,-178.635 892.81,-178.635"/>
</g>
<!-- ReferenceUserTagging -->
<g id="node23" class="node"><title>ReferenceUserTagging</title>
<ellipse fill="none" stroke="black" cx="458" cy="-164" rx="92.0841" ry="18"/>
<text text-anchor="middle" x="458" y="-160.3" font-family="Times,serif" font-size="14.00">ReferenceUserTagging</text>
</g>
<!-- SuggestionChild&#45;&gt;SuggestionChildVote -->
<g id="edge80" class="edge"><title>SuggestionChild&#45;&gt;SuggestionChildVote</title>
<path fill="none" stroke="#a14ac9" d="M2279.26,-76.3666C2272.13,-75.0297 2264.92,-73.8545 2258,-73 1936.88,-33.3527 934.161,-22.2296 618.295,-19.6692"/>
<ellipse fill="none" stroke="#a14ac9" cx="2283.63" cy="-77.2278" rx="4.00001" ry="4.00001"/>
<polygon fill="#a14ac9" stroke="#a14ac9" points="618.249,-19.6689 608.286,-15.0889 613.25,-19.6288 608.25,-19.5888 608.25,-19.5888 608.25,-19.5888 613.25,-19.6288 608.214,-24.0886 618.249,-19.6689 618.249,-19.6689"/>
</g>
<!-- SuggestionChild&#45;&gt;NotificationSuggestion -->
<g id="edge81" class="edge"><title>SuggestionChild&#45;&gt;NotificationSuggestion</title>
<path fill="none" stroke="#bae71e" d="M2336,-64.791C2336,-58.0872 2336,-50.8474 2336,-44.1468"/>
<ellipse fill="none" stroke="#bae71e" cx="2336" cy="-68.8129" rx="4" ry="4"/>
<ellipse fill="#bae71e" stroke="#bae71e" cx="2336" cy="-40.0288" rx="4" ry="4"/>
</g>
<!-- ReferenceUserTag&#45;&gt;ReferenceUserTagging -->
<g id="edge82" class="edge"><title>ReferenceUserTag&#45;&gt;ReferenceUserTagging</title>
<path fill="none" stroke="#f5e641" d="M578.696,-230.345C554.131,-217.045 521.723,-199.5 496.674,-185.938"/>
<ellipse fill="none" stroke="#f5e641" cx="582.32" cy="-232.307" rx="4.00002" ry="4.00002"/>
<polygon fill="#f5e641" stroke="#f5e641" points="496.601,-185.899 489.949,-177.18 492.204,-183.518 487.807,-181.137 487.807,-181.137 487.807,-181.137 492.204,-183.518 485.664,-185.095 496.601,-185.899 496.601,-185.899"/>
</g>
<!-- Frame&#45;&gt;NotificationSelection -->
<g id="edge86" class="edge"><title>Frame&#45;&gt;NotificationSelection</title>
<path fill="none" stroke="#c0aa97" d="M609.279,-147.308C589.191,-137.047 562.744,-123.538 541.017,-112.44"/>
<ellipse fill="none" stroke="#c0aa97" cx="612.858" cy="-149.136" rx="4.00002" ry="4.00002"/>
<polygon fill="#c0aa97" stroke="#c0aa97" points="540.932,-112.397 534.074,-103.841 536.479,-110.123 532.027,-107.848 532.027,-107.848 532.027,-107.848 536.479,-110.123 529.98,-111.856 540.932,-112.397 540.932,-112.397"/>
</g>
<!-- Frame&#45;&gt;Notification -->
<g id="edge84" class="edge"><title>Frame&#45;&gt;Notification</title>
<path fill="none" stroke="#90f7d9" d="M662.863,-142.453C672.484,-133.805 683.717,-123.71 693.596,-114.831"/>
<ellipse fill="none" stroke="#90f7d9" cx="659.729" cy="-145.269" rx="4.00002" ry="4.00002"/>
<polygon fill="#90f7d9" stroke="#90f7d9" points="693.735,-114.707 704.18,-111.369 697.454,-111.365 701.172,-108.022 701.172,-108.022 701.172,-108.022 697.454,-111.365 698.164,-104.675 693.735,-114.707 693.735,-114.707"/>
</g>
<!-- Frame&#45;&gt;Typo -->
<g id="edge85" class="edge"><title>Frame&#45;&gt;Typo</title>
<path fill="none" stroke="#fd6034" d="M605.734,-150.135C601.151,-148.63 596.485,-147.204 592,-146 544.933,-133.366 407.568,-109.672 340.179,-98.345"/>
<ellipse fill="none" stroke="#fd6034" cx="609.536" cy="-151.43" rx="4.00001" ry="4.00001"/>
<polygon fill="#fd6034" stroke="#fd6034" points="339.852,-98.2902 330.733,-92.1989 334.92,-97.4636 329.989,-96.6369 329.989,-96.6369 329.989,-96.6369 334.92,-97.4636 329.245,-101.075 339.852,-98.2902 339.852,-98.2902"/>
</g>
<!-- Frame&#45;&gt;FrameCredit -->
<g id="edge83" class="edge"><title>Frame&#45;&gt;FrameCredit</title>
<path fill="none" stroke="#39cc15" d="M672.827,-148.805C676.218,-147.707 679.649,-146.74 683,-146 958.614,-85.1217 1036.41,-139.609 1317,-109 1332.81,-107.276 1349.85,-104.813 1365.55,-102.295"/>
<ellipse fill="none" stroke="#39cc15" cx="668.816" cy="-150.223" rx="4.00001" ry="4.00001"/>
<polygon fill="#39cc15" stroke="#39cc15" points="1365.78,-102.257 1376.38,-105.08 1370.71,-101.448 1375.65,-100.639 1375.65,-100.639 1375.65,-100.639 1370.71,-101.448 1374.92,-96.1987 1365.78,-102.257 1365.78,-102.257"/>
</g>
<!-- Domain -->
<g id="node29" class="node"><title>Domain</title>
<ellipse fill="none" stroke="black" cx="1896" cy="-505" rx="39.7935" ry="18"/>
<text text-anchor="middle" x="1896" y="-501.3" font-family="Times,serif" font-size="14.00">Domain</text>
</g>
<!-- Issue -->
<g id="node41" class="node"><title>Issue</title>
<ellipse fill="none" stroke="black" cx="1982" cy="-505" rx="28.6953" ry="18"/>
<text text-anchor="middle" x="1982" y="-501.3" font-family="Times,serif" font-size="14.00">Issue</text>
</g>
<!-- SummaryBest -->
<g id="node42" class="node"><title>SummaryBest</title>
<ellipse fill="none" stroke="black" cx="852" cy="-91" rx="61.99" ry="18"/>
<text text-anchor="middle" x="852" y="-87.3" font-family="Times,serif" font-size="14.00">SummaryBest</text>
</g>
<!-- Like&#45;&gt;Notification -->
<g id="edge87" class="edge"><title>Like&#45;&gt;Notification</title>
<path fill="none" stroke="#1c2034" d="M719,-137.791C719,-131.832 719,-125.45 719,-119.399"/>
<ellipse fill="none" stroke="#1c2034" cx="719" cy="-141.813" rx="4" ry="4"/>
<polygon fill="#1c2034" stroke="#1c2034" points="719,-119.029 723.5,-109.029 719,-114.029 719,-109.029 719,-109.029 719,-109.029 719,-114.029 714.5,-109.029 719,-119.029 719,-119.029"/>
</g>
<!-- Suggestion&#45;&gt;Notification -->
<g id="edge91" class="edge"><title>Suggestion&#45;&gt;Notification</title>
<path fill="none" stroke="#99a454" d="M2039.98,-159.231C1982.08,-155.497 1889.83,-149.799 1810,-146 1695.72,-140.562 894.092,-126.298 781,-109 776.283,-108.279 771.413,-107.324 766.572,-106.234"/>
<ellipse fill="none" stroke="#99a454" cx="2044.28" cy="-159.509" rx="4" ry="4"/>
<polygon fill="#99a454" stroke="#99a454" points="766.451,-106.205 757.799,-99.4669 761.593,-105.022 756.735,-103.839 756.735,-103.839 756.735,-103.839 761.593,-105.022 755.67,-108.211 766.451,-106.205 766.451,-106.205"/>
</g>
<!-- Suggestion&#45;&gt;SuggestionVote -->
<g id="edge89" class="edge"><title>Suggestion&#45;&gt;SuggestionVote</title>
<path fill="none" stroke="#4cd709" d="M2118.72,-140.871C2123.63,-136.159 2128.89,-131.308 2134,-127 2139.07,-122.723 2144.62,-118.385 2150.09,-114.289"/>
<ellipse fill="none" stroke="#4cd709" cx="2115.6" cy="-143.919" rx="4.00002" ry="4.00002"/>
<polygon fill="#4cd709" stroke="#4cd709" points="2150.48,-114.004 2161.21,-111.72 2154.51,-111.048 2158.54,-108.091 2158.54,-108.091 2158.54,-108.091 2154.51,-111.048 2155.88,-104.462 2150.48,-114.004 2150.48,-114.004"/>
</g>
<!-- Suggestion&#45;&gt;SuggestionChild -->
<g id="edge88" class="edge"><title>Suggestion&#45;&gt;SuggestionChild</title>
<path fill="none" stroke="#47b3db" d="M2142.11,-149.598C2181.91,-137.775 2239.99,-120.523 2282.2,-107.983"/>
<ellipse fill="none" stroke="#47b3db" cx="2138.18" cy="-150.767" rx="4.00001" ry="4.00001"/>
<polygon fill="#47b3db" stroke="#47b3db" points="2282.44,-107.912 2293.31,-109.378 2287.23,-106.488 2292.02,-105.064 2292.02,-105.064 2292.02,-105.064 2287.23,-106.488 2290.74,-100.75 2282.44,-107.912 2282.44,-107.912"/>
</g>
<!-- Suggestion&#45;&gt;NotificationSuggestion -->
<g id="edge90" class="edge"><title>Suggestion&#45;&gt;NotificationSuggestion</title>
<path fill="none" stroke="#a5ce78" d="M2092.27,-137.74C2090.06,-117.777 2090.69,-90.4585 2106,-73 2124.81,-51.545 2191.13,-37.4598 2247.74,-29.0714"/>
<ellipse fill="none" stroke="#a5ce78" cx="2092.82" cy="-141.831" rx="4.00001" ry="4.00001"/>
<polygon fill="#a5ce78" stroke="#a5ce78" points="2247.93,-29.0452 2258.46,-32.0759 2252.87,-28.3335 2257.82,-27.6217 2257.82,-27.6217 2257.82,-27.6217 2252.87,-28.3335 2257.18,-23.1675 2247.93,-29.0452 2247.93,-29.0452"/>
</g>
<!-- Summary&#45;&gt;NotificationSelection -->
<g id="edge96" class="edge"><title>Summary&#45;&gt;NotificationSelection</title>
<path fill="none" stroke="#8e1a83" d="M800.058,-153.191C740.541,-141.013 638.581,-120.151 570.493,-106.219"/>
<ellipse fill="none" stroke="#8e1a83" cx="804.276" cy="-154.054" rx="4.00001" ry="4.00001"/>
<polygon fill="#8e1a83" stroke="#8e1a83" points="570.082,-106.135 561.187,-99.7217 565.183,-105.133 560.285,-104.13 560.285,-104.13 560.285,-104.13 565.183,-105.133 559.383,-108.539 570.082,-106.135 570.082,-106.135"/>
</g>
<!-- Summary&#45;&gt;Notification -->
<g id="edge95" class="edge"><title>Summary&#45;&gt;Notification</title>
<path fill="none" stroke="#38032b" d="M817.61,-144.196C808.199,-138.528 797.743,-132.385 788,-127 778.099,-121.528 767.245,-115.868 757.136,-110.736"/>
<ellipse fill="none" stroke="#38032b" cx="821.152" cy="-146.344" rx="4.00002" ry="4.00002"/>
<polygon fill="#38032b" stroke="#38032b" points="757.043,-110.69 750.135,-102.173 752.577,-108.441 748.111,-106.193 748.111,-106.193 748.111,-106.193 752.577,-108.441 746.088,-110.212 757.043,-110.69 757.043,-110.69"/>
</g>
<!-- Summary&#45;&gt;SummaryLink -->
<g id="edge93" class="edge"><title>Summary&#45;&gt;SummaryLink</title>
<path fill="none" stroke="#8c3e0b" d="M889.991,-149.571C894.693,-148.271 899.432,-147.049 904,-146 998.455,-124.315 1109.58,-108.526 1178.92,-99.8074"/>
<ellipse fill="none" stroke="#8c3e0b" cx="885.998" cy="-150.714" rx="4.00001" ry="4.00001"/>
<polygon fill="#8c3e0b" stroke="#8c3e0b" points="1179.34,-99.7557 1189.82,-102.986 1184.3,-99.1382 1189.26,-98.5207 1189.26,-98.5207 1189.26,-98.5207 1184.3,-99.1382 1188.71,-94.0552 1179.34,-99.7557 1179.34,-99.7557"/>
</g>
<!-- Summary&#45;&gt;Typo -->
<g id="edge97" class="edge"><title>Summary&#45;&gt;Typo</title>
<path fill="none" stroke="#8f6469" d="M799.578,-153.436C785.261,-150.802 769.531,-148.095 755,-146 600.616,-123.738 560.586,-129.812 406,-109 384.022,-106.041 359.54,-102.073 339.853,-98.7145"/>
<ellipse fill="none" stroke="#8f6469" cx="803.893" cy="-154.241" rx="4.00001" ry="4.00001"/>
<polygon fill="#8f6469" stroke="#8f6469" points="339.6,-98.671 330.51,-92.5377 334.673,-97.8217 329.746,-96.9723 329.746,-96.9723 329.746,-96.9723 334.673,-97.8217 328.981,-101.407 339.6,-98.671 339.6,-98.671"/>
</g>
<!-- Summary&#45;&gt;Credit -->
<g id="edge92" class="edge"><title>Summary&#45;&gt;Credit</title>
<path fill="none" stroke="#86d673" d="M889.501,-149.193C894.349,-147.941 899.256,-146.833 904,-146 1209.1,-92.3958 1292.49,-146.368 1600,-109 1616.24,-107.026 1633.97,-103.851 1649.31,-100.775"/>
<ellipse fill="none" stroke="#86d673" cx="885.296" cy="-150.351" rx="4.00001" ry="4.00001"/>
<polygon fill="#86d673" stroke="#86d673" points="1649.7,-100.695 1660.4,-103.086 1654.59,-99.6868 1659.49,-98.6783 1659.49,-98.6783 1659.49,-98.6783 1654.59,-99.6868 1658.58,-94.2708 1649.7,-100.695 1649.7,-100.695"/>
</g>
<!-- Summary&#45;&gt;SummaryBest -->
<g id="edge94" class="edge"><title>Summary&#45;&gt;SummaryBest</title>
<path fill="none" stroke="#331ece" d="M849.42,-137.791C849.798,-131.087 850.206,-123.847 850.583,-117.147"/>
<ellipse fill="none" stroke="#331ece" cx="849.193" cy="-141.819" rx="4" ry="4"/>
<ellipse fill="#331ece" stroke="#331ece" cx="850.816" cy="-113.023" rx="4" ry="4"/>
</g>
</g>
</svg>
