<?xml version="1.0" encoding="UTF-8" standalone="no"?>
<!DOCTYPE svg PUBLIC "-//W3C//DTD SVG 1.1//EN"
 "http://www.w3.org/Graphics/SVG/1.1/DTD/svg11.dtd">
<!-- Generated by graphviz version 2.40.1 (20161225.0304)
 -->
<!-- Title: models_diagram Pages: 1 -->
<svg width="2900pt" height="552pt"
 viewBox="0.00 0.00 2900.25 552.00" xmlns="http://www.w3.org/2000/svg" xmlns:xlink="http://www.w3.org/1999/xlink">
<g id="graph0" class="graph" transform="scale(1 1) rotate(0) translate(4 548)">
<title>models_diagram</title>
<polygon fill="transparent" stroke="transparent" points="-4,4 -4,-548 2896.2463,-548 2896.2463,4 -4,4"/>
<!-- _diagram_info -->
<g id="node1" class="node">
<title>_diagram_info</title>
<text text-anchor="start" x="1345" y="-529.6" font-family="Times,serif" font-size="13.00" fill="#000000">Models diagram</text>
<text text-anchor="start" x="1345" y="-515.6" font-family="Times,serif" font-size="13.00" fill="#000000">Date: Jan 09 2019 &#45; 14:28</text>
<text text-anchor="start" x="1345" y="-501.6" font-family="Times,serif" font-size="13.00" fill="#000000">Migration version: 20190109124408</text>
<text text-anchor="start" x="1345" y="-487.6" font-family="Times,serif" font-size="13.00" fill="#000000">Generated by RailRoady 1.5.3</text>
<text text-anchor="start" x="1345" y="-473.6" font-family="Times,serif" font-size="13.00" fill="#000000">http://railroady.prestonlee.com</text>
</g>
<!-- GoPatch -->
<g id="node2" class="node">
<title>GoPatch</title>
<ellipse fill="none" stroke="#000000" cx="2206" cy="-91" rx="40.8928" ry="18"/>
<text text-anchor="middle" x="2206" y="-87.3" font-family="Times,serif" font-size="14.00" fill="#000000">GoPatch</text>
</g>
<!-- UserPatch -->
<g id="node11" class="node">
<title>UserPatch</title>
<ellipse fill="none" stroke="#000000" cx="242" cy="-18" rx="46.5926" ry="18"/>
<text text-anchor="middle" x="242" y="-14.3" font-family="Times,serif" font-size="14.00" fill="#000000">UserPatch</text>
</g>
<!-- GoPatch&#45;&gt;UserPatch -->
<g id="edge2" class="edge">
<title>GoPatch&#45;&gt;UserPatch</title>
<path fill="none" stroke="#19d2fb" d="M2168.431,-76.0548C2164.2867,-74.8339 2160.0877,-73.774 2156,-73 1969.8874,-37.7582 597.9993,-21.6725 299.3055,-18.5679"/>
<ellipse fill="none" stroke="#19d2fb" cx="2172.4797" cy="-77.3499" rx="4" ry="4"/>
<polygon fill="#19d2fb" stroke="#19d2fb" points="299.1359,-18.5663 289.1829,-13.9632 294.1362,-18.5146 289.1364,-18.4629 289.1364,-18.4629 289.1364,-18.4629 294.1362,-18.5146 289.0899,-22.9627 299.1359,-18.5663 299.1359,-18.5663"/>
</g>
<!-- PatchMessage -->
<g id="node26" class="node">
<title>PatchMessage</title>
<ellipse fill="none" stroke="#000000" cx="2206" cy="-18" rx="61.99" ry="18"/>
<text text-anchor="middle" x="2206" y="-14.3" font-family="Times,serif" font-size="14.00" fill="#000000">PatchMessage</text>
</g>
<!-- GoPatch&#45;&gt;PatchMessage -->
<g id="edge1" class="edge">
<title>GoPatch&#45;&gt;PatchMessage</title>
<path fill="none" stroke="#d07d29" d="M2206,-64.9079C2206,-58.9427 2206,-52.5729 2206,-46.512"/>
<ellipse fill="none" stroke="#d07d29" cx="2206" cy="-68.9551" rx="4" ry="4"/>
<polygon fill="#d07d29" stroke="#d07d29" points="2206.0001,-46.0904 2210.5,-36.0903 2206,-41.0904 2206,-36.0904 2206,-36.0904 2206,-36.0904 2206,-41.0904 2201.5,-36.0904 2206.0001,-46.0904 2206.0001,-46.0904"/>
</g>
<!-- Notification -->
<g id="node3" class="node">
<title>Notification</title>
<ellipse fill="none" stroke="#000000" cx="1114" cy="-91" rx="53.0913" ry="18"/>
<text text-anchor="middle" x="1114" y="-87.3" font-family="Times,serif" font-size="14.00" fill="#000000">Notification</text>
</g>
<!-- Invitation -->
<g id="node4" class="node">
<title>Invitation</title>
<ellipse fill="none" stroke="#000000" cx="149" cy="-411" rx="44.6926" ry="18"/>
<text text-anchor="middle" x="149" y="-407.3" font-family="Times,serif" font-size="14.00" fill="#000000">Invitation</text>
</g>
<!-- PendingUser -->
<g id="node5" class="node">
<title>PendingUser</title>
<ellipse fill="none" stroke="#000000" cx="268" cy="-411" rx="55.7903" ry="18"/>
<text text-anchor="middle" x="268" y="-407.3" font-family="Times,serif" font-size="14.00" fill="#000000">PendingUser</text>
</g>
<!-- Domain -->
<g id="node6" class="node">
<title>Domain</title>
<ellipse fill="none" stroke="#000000" cx="1681" cy="-505" rx="39.7935" ry="18"/>
<text text-anchor="middle" x="1681" y="-501.3" font-family="Times,serif" font-size="14.00" fill="#000000">Domain</text>
</g>
<!-- Edge -->
<g id="node7" class="node">
<title>Edge</title>
<ellipse fill="none" stroke="#000000" cx="1717" cy="-164" rx="28.6953" ry="18"/>
<text text-anchor="middle" x="1717" y="-160.3" font-family="Times,serif" font-size="14.00" fill="#000000">Edge</text>
</g>
<!-- EdgeVote -->
<g id="node46" class="node">
<title>EdgeVote</title>
<ellipse fill="none" stroke="#000000" cx="1539" cy="-91" rx="46.2923" ry="18"/>
<text text-anchor="middle" x="1539" y="-87.3" font-family="Times,serif" font-size="14.00" fill="#000000">EdgeVote</text>
</g>
<!-- Edge&#45;&gt;EdgeVote -->
<g id="edge3" class="edge">
<title>Edge&#45;&gt;EdgeVote</title>
<path fill="none" stroke="#f18455" d="M1686.5943,-149.3741C1684.035,-148.2111 1681.4789,-147.0726 1679,-146 1646.8415,-132.0858 1609.933,-117.6479 1582.0885,-107.0577"/>
<ellipse fill="none" stroke="#f18455" cx="1690.5768" cy="-151.216" rx="4" ry="4"/>
<polygon fill="#f18455" stroke="#f18455" points="1581.992,-107.0213 1574.2339,-99.2712 1577.3161,-105.2504 1572.6402,-103.4795 1572.6402,-103.4795 1572.6402,-103.4795 1577.3161,-105.2504 1571.0464,-107.6878 1581.992,-107.0213 1581.992,-107.0213"/>
</g>
<!-- Contribution -->
<g id="node8" class="node">
<title>Contribution</title>
<polygon fill="none" stroke="#000000" stroke-dasharray="1,5" points="1825,-523 1739,-523 1739,-487 1825,-487 1825,-523"/>
<text text-anchor="middle" x="1782" y="-501.3" font-family="Times,serif" font-size="14.00" fill="#000000">Contribution</text>
</g>
<!-- CommentJoin -->
<g id="node9" class="node">
<title>CommentJoin</title>
<ellipse fill="none" stroke="#000000" cx="695" cy="-91" rx="61.1893" ry="18"/>
<text text-anchor="middle" x="695" y="-87.3" font-family="Times,serif" font-size="14.00" fill="#000000">CommentJoin</text>
</g>
<!-- Vote -->
<g id="node10" class="node">
<title>Vote</title>
<ellipse fill="none" stroke="#000000" cx="138" cy="-91" rx="27.8951" ry="18"/>
<text text-anchor="middle" x="138" y="-87.3" font-family="Times,serif" font-size="14.00" fill="#000000">Vote</text>
</g>
<!-- Rating -->
<g id="node12" class="node">
<title>Rating</title>
<ellipse fill="none" stroke="#000000" cx="546" cy="-164" rx="34.394" ry="18"/>
<text text-anchor="middle" x="546" y="-160.3" font-family="Times,serif" font-size="14.00" fill="#000000">Rating</text>
</g>
<!-- Reference -->
<g id="node13" class="node">
<title>Reference</title>
<ellipse fill="none" stroke="#000000" cx="815" cy="-411" rx="46.2923" ry="18"/>
<text text-anchor="middle" x="815" y="-407.3" font-family="Times,serif" font-size="14.00" fill="#000000">Reference</text>
</g>
<!-- Reference&#45;&gt;Notification -->
<g id="edge13" class="edge">
<title>Reference&#45;&gt;Notification</title>
<path fill="none" stroke="#ceab00" d="M827.0591,-385.4667C857.0098,-322.4422 933.8234,-163.3216 954,-146 962.7282,-138.5068 1020.6864,-119.5894 1064.3564,-106.0351"/>
<ellipse fill="none" stroke="#ceab00" cx="825.196" cy="-389.3935" rx="4" ry="4"/>
<polygon fill="#ceab00" stroke="#ceab00" points="1064.4374,-106.0101 1075.3201,-107.3586 1069.2147,-104.5346 1073.9921,-103.059 1073.9921,-103.059 1073.9921,-103.059 1069.2147,-104.5346 1072.6641,-98.7594 1064.4374,-106.0101 1064.4374,-106.0101"/>
</g>
<!-- Reference&#45;&gt;Vote -->
<g id="edge6" class="edge">
<title>Reference&#45;&gt;Vote</title>
<path fill="none" stroke="#6639a4" d="M760.3505,-408.5756C621.9283,-402.0672 265.1892,-382.8673 219,-356 120.1946,-298.5268 123.5076,-239.8618 100,-128 98.4377,-120.5658 101.8289,-114.0806 107.1431,-108.7047"/>
<ellipse fill="none" stroke="#6639a4" cx="764.7574" cy="-408.7812" rx="4" ry="4"/>
<polygon fill="#6639a4" stroke="#6639a4" points="107.5373,-108.3843 118.1355,-105.5686 111.4172,-105.2305 115.2971,-102.0767 115.2971,-102.0767 115.2971,-102.0767 111.4172,-105.2305 112.4586,-98.5848 107.5373,-108.3843 107.5373,-108.3843"/>
</g>
<!-- Reference&#45;&gt;Rating -->
<g id="edge8" class="edge">
<title>Reference&#45;&gt;Rating</title>
<path fill="none" stroke="#c35a4a" d="M761.2287,-407.4076C658.1996,-399.975 441.1611,-381.4517 419,-356 369.0098,-298.5869 463.7227,-220.3146 515.478,-184.01"/>
<ellipse fill="none" stroke="#c35a4a" cx="765.3523" cy="-407.702" rx="4" ry="4"/>
<polygon fill="#c35a4a" stroke="#c35a4a" points="515.7583,-183.8168 526.5461,-181.8482 519.8755,-180.9798 523.9927,-178.1427 523.9927,-178.1427 523.9927,-178.1427 519.8755,-180.9798 521.4393,-174.4372 515.7583,-183.8168 515.7583,-183.8168"/>
</g>
<!-- SummaryLink -->
<g id="node15" class="node">
<title>SummaryLink</title>
<ellipse fill="none" stroke="#000000" cx="527" cy="-91" rx="62.2891" ry="18"/>
<text text-anchor="middle" x="527" y="-87.3" font-family="Times,serif" font-size="14.00" fill="#000000">SummaryLink</text>
</g>
<!-- Reference&#45;&gt;SummaryLink -->
<g id="edge5" class="edge">
<title>Reference&#45;&gt;SummaryLink</title>
<path fill="none" stroke="#99d4be" d="M761.552,-406.4468C714.6239,-400.4905 645.9385,-386.8785 594,-356 575.3431,-344.9081 578.3786,-333.0037 561,-320 519.781,-289.1574 484.2339,-312.6874 457,-269 425.5619,-218.5686 472.2894,-151.6572 503.2586,-115.9542"/>
<ellipse fill="none" stroke="#99d4be" cx="765.7902" cy="-406.959" rx="4" ry="4"/>
<polygon fill="#99d4be" stroke="#99d4be" points="503.3253,-115.8792 513.3354,-111.4016 506.6497,-112.1444 509.9741,-108.4097 509.9741,-108.4097 509.9741,-108.4097 506.6497,-112.1444 506.6128,-105.4177 503.3253,-115.8792 503.3253,-115.8792"/>
</g>
<!-- DeadLink -->
<g id="node20" class="node">
<title>DeadLink</title>
<ellipse fill="none" stroke="#000000" cx="1078" cy="-338" rx="46.2923" ry="18"/>
<text text-anchor="middle" x="1078" y="-334.3" font-family="Times,serif" font-size="14.00" fill="#000000">DeadLink</text>
</g>
<!-- Reference&#45;&gt;DeadLink -->
<g id="edge19" class="edge">
<title>Reference&#45;&gt;DeadLink</title>
<path fill="none" stroke="#c7cd2c" d="M863.4155,-400.4262C892.9269,-393.7223 931.3188,-384.539 965,-375 987.976,-368.4928 1013.2609,-360.3115 1034.0767,-353.2977"/>
<ellipse fill="none" stroke="#c7cd2c" cx="859.2404" cy="-401.3687" rx="4" ry="4"/>
<polygon fill="#c7cd2c" stroke="#c7cd2c" points="1034.1338,-353.2784 1045.0496,-354.3257 1038.8686,-351.6714 1043.6033,-350.0645 1043.6033,-350.0645 1043.6033,-350.0645 1038.8686,-351.6714 1042.1571,-345.8032 1034.1338,-353.2784 1034.1338,-353.2784"/>
</g>
<!-- Tag -->
<g id="node23" class="node">
<title>Tag</title>
<ellipse fill="none" stroke="#000000" cx="673" cy="-338" rx="27" ry="18"/>
<text text-anchor="middle" x="673" y="-334.3" font-family="Times,serif" font-size="14.00" fill="#000000">Tag</text>
</g>
<!-- Reference&#45;&gt;Tag -->
<g id="edge17" class="edge">
<title>Reference&#45;&gt;Tag</title>
<path fill="none" stroke="#1c30b7" d="M777.9388,-391.9474C754.824,-380.0645 725.4338,-364.9554 703.6401,-353.7516"/>
<polygon fill="#1c30b7" stroke="#1c30b7" points="778.0518,-392.0054 784.8879,-400.5797 782.4986,-394.2915 786.9454,-396.5775 786.9454,-396.5775 786.9454,-396.5775 782.4986,-394.2915 789.0028,-392.5754 778.0518,-392.0054 778.0518,-392.0054"/>
<polygon fill="#1c30b7" stroke="#1c30b7" points="703.4025,-353.6295 696.5663,-345.0553 698.9557,-351.3434 694.5089,-349.0574 694.5089,-349.0574 694.5089,-349.0574 698.9557,-351.3434 692.4514,-353.0595 703.4025,-353.6295 703.4025,-353.6295"/>
</g>
<!-- Comment -->
<g id="node29" class="node">
<title>Comment</title>
<ellipse fill="none" stroke="#000000" cx="861" cy="-164" rx="46.2923" ry="18"/>
<text text-anchor="middle" x="861" y="-160.3" font-family="Times,serif" font-size="14.00" fill="#000000">Comment</text>
</g>
<!-- Reference&#45;&gt;Comment -->
<g id="edge7" class="edge">
<title>Reference&#45;&gt;Comment</title>
<path fill="none" stroke="#c778c9" d="M816.2372,-384.6634C817.2091,-362.5917 818.4819,-330.2474 819,-302 819.7095,-263.3169 816.8055,-253.6813 816,-215 815.8612,-208.3348 813.1121,-206.0087 816,-200 818.6099,-194.5698 822.4819,-189.7023 826.8779,-185.4333"/>
<ellipse fill="none" stroke="#c778c9" cx="816.048" cy="-388.8804" rx="4" ry="4"/>
<polygon fill="#c778c9" stroke="#c778c9" points="827.0282,-185.3052 837.5586,-182.2455 830.8342,-182.0626 834.6403,-178.8201 834.6403,-178.8201 834.6403,-178.8201 830.8342,-182.0626 831.722,-175.3946 827.0282,-185.3052 827.0282,-185.3052"/>
</g>
<!-- ReferenceEdge -->
<g id="node33" class="node">
<title>ReferenceEdge</title>
<ellipse fill="none" stroke="#000000" cx="1606" cy="-164" rx="64.189" ry="18"/>
<text text-anchor="middle" x="1606" y="-160.3" font-family="Times,serif" font-size="14.00" fill="#000000">ReferenceEdge</text>
</g>
<!-- Reference&#45;&gt;ReferenceEdge -->
<g id="edge11" class="edge">
<title>Reference&#45;&gt;ReferenceEdge</title>
<path fill="none" stroke="#09d53a" d="M868.621,-406.7077C971.2102,-398.3988 1186.5295,-380.4549 1202,-375 1243.7346,-360.2845 1245.0469,-339.0281 1285,-320 1425.8705,-252.9091 1527.6305,-340.752 1620,-215 1625.0788,-208.0857 1624.5851,-199.4246 1621.9102,-191.2129"/>
<ellipse fill="none" stroke="#09d53a" cx="864.5275" cy="-407.0386" rx="4" ry="4"/>
<polygon fill="#09d53a" stroke="#09d53a" points="1621.8707,-191.1196 1622.115,-180.1564 1619.921,-186.5154 1617.9713,-181.9112 1617.9713,-181.9112 1617.9713,-181.9112 1619.921,-186.5154 1613.8275,-183.6659 1621.8707,-191.1196 1621.8707,-191.1196"/>
</g>
<!-- Reference&#45;&gt;ReferenceEdge -->
<g id="edge12" class="edge">
<title>Reference&#45;&gt;ReferenceEdge</title>
<path fill="none" stroke="#73198f" d="M868.0122,-405.4217C945.9405,-396.6196 1087.1436,-378.2055 1133,-356 1174.3583,-335.9727 1169.4618,-308.6392 1210,-287 1324.1138,-226.0863 1369.8505,-257.5668 1492,-215 1516.9691,-206.2987 1544.0195,-194.3139 1565.5019,-184.1485"/>
<ellipse fill="none" stroke="#73198f" cx="863.7287" cy="-405.9007" rx="4" ry="4"/>
<polygon fill="#73198f" stroke="#73198f" points="1565.6279,-184.0883 1576.5907,-183.8309 1570.1381,-181.93 1574.6483,-179.7717 1574.6483,-179.7717 1574.6483,-179.7717 1570.1381,-181.93 1572.7058,-175.7126 1565.6279,-184.0883 1565.6279,-184.0883"/>
<text text-anchor="middle" x="1271" y="-290.8" font-family="Times,serif" font-size="14.00" fill="#000000">reference_edges_from</text>
</g>
<!-- ReferenceContributor -->
<g id="node38" class="node">
<title>ReferenceContributor</title>
<ellipse fill="none" stroke="#000000" cx="1381" cy="-338" rx="87.1846" ry="18"/>
<text text-anchor="middle" x="1381" y="-334.3" font-family="Times,serif" font-size="14.00" fill="#000000">ReferenceContributor</text>
</g>
<!-- Reference&#45;&gt;ReferenceContributor -->
<g id="edge10" class="edge">
<title>Reference&#45;&gt;ReferenceContributor</title>
<path fill="none" stroke="#da3eb0" d="M867.1662,-404.2718C965.2965,-391.6155 1178.1372,-364.1643 1296.7897,-348.861"/>
<ellipse fill="none" stroke="#da3eb0" cx="862.9092" cy="-404.8209" rx="4" ry="4"/>
<polygon fill="#da3eb0" stroke="#da3eb0" points="1297.0013,-348.8338 1307.4948,-352.0176 1301.9602,-348.1942 1306.9191,-347.5546 1306.9191,-347.5546 1306.9191,-347.5546 1301.9602,-348.1942 1306.3434,-343.0916 1297.0013,-348.8338 1297.0013,-348.8338"/>
</g>
<!-- Figure -->
<g id="node40" class="node">
<title>Figure</title>
<ellipse fill="none" stroke="#000000" cx="997" cy="-164" rx="33.5952" ry="18"/>
<text text-anchor="middle" x="997" y="-160.3" font-family="Times,serif" font-size="14.00" fill="#000000">Figure</text>
</g>
<!-- Reference&#45;&gt;Figure -->
<g id="edge18" class="edge">
<title>Reference&#45;&gt;Figure</title>
<path fill="none" stroke="#62366e" d="M847.0714,-391.3295C853.7386,-386.4538 860.4246,-380.9148 866,-375 920.4649,-317.22 964.3595,-233.3819 984.7073,-190.8754"/>
<ellipse fill="none" stroke="#62366e" cx="843.7267" cy="-393.6761" rx="4" ry="4"/>
<polygon fill="#62366e" stroke="#62366e" points="984.7575,-190.7691 993.0966,-183.648 986.8925,-186.2478 989.0275,-181.7265 989.0275,-181.7265 989.0275,-181.7265 986.8925,-186.2478 984.9583,-179.805 984.7575,-190.7691 984.7575,-190.7691"/>
</g>
<!-- ReferenceUserTag -->
<g id="node42" class="node">
<title>ReferenceUserTag</title>
<ellipse fill="none" stroke="#000000" cx="257" cy="-251" rx="76.8869" ry="18"/>
<text text-anchor="middle" x="257" y="-247.3" font-family="Times,serif" font-size="14.00" fill="#000000">ReferenceUserTag</text>
</g>
<!-- Reference&#45;&gt;ReferenceUserTag -->
<g id="edge15" class="edge">
<title>Reference&#45;&gt;ReferenceUserTag</title>
<path fill="none" stroke="#9fa487" d="M761.0535,-408.4652C653.9891,-403.1408 422.0937,-390.0364 389,-375 337.7772,-351.7264 339.373,-325.1275 298,-287 293.8206,-283.1484 289.348,-279.1247 284.9494,-275.2212"/>
<ellipse fill="none" stroke="#9fa487" cx="765.1662" cy="-408.6681" rx="4" ry="4"/>
<polygon fill="#9fa487" stroke="#9fa487" points="284.6951,-274.9972 280.1652,-265.0107 280.943,-271.6924 277.1909,-268.3876 277.1909,-268.3876 277.1909,-268.3876 280.943,-271.6924 274.2166,-271.7646 284.6951,-274.9972 284.6951,-274.9972"/>
</g>
<!-- Link -->
<g id="node44" class="node">
<title>Link</title>
<ellipse fill="none" stroke="#000000" cx="271" cy="-91" rx="27.0966" ry="18"/>
<text text-anchor="middle" x="271" y="-87.3" font-family="Times,serif" font-size="14.00" fill="#000000">Link</text>
</g>
<!-- Reference&#45;&gt;Link -->
<g id="edge4" class="edge">
<title>Reference&#45;&gt;Link</title>
<path fill="none" stroke="#1839d7" d="M761.0699,-408.0029C662.011,-402.2476 454.7539,-388.975 384,-375 356.5584,-369.5799 349.6328,-367.1974 324,-356 252.3164,-324.6859 210.3346,-336.6158 171,-269 151.0074,-234.6329 195.1086,-154.2795 201,-146 211.7596,-130.8789 227.8264,-117.8424 241.8544,-108.2617"/>
<ellipse fill="none" stroke="#1839d7" cx="765.169" cy="-408.2396" rx="4" ry="4"/>
<polygon fill="#1839d7" stroke="#1839d7" points="241.8949,-108.2352 252.7257,-106.5194 246.0773,-105.4952 250.2597,-102.7552 250.2597,-102.7552 250.2597,-102.7552 246.0773,-105.4952 247.7937,-98.991 241.8949,-108.2352 241.8949,-108.2352"/>
</g>
<!-- ReferenceTagging -->
<g id="node48" class="node">
<title>ReferenceTagging</title>
<ellipse fill="none" stroke="#000000" cx="541" cy="-251" rx="75.2868" ry="18"/>
<text text-anchor="middle" x="541" y="-247.3" font-family="Times,serif" font-size="14.00" fill="#000000">ReferenceTagging</text>
</g>
<!-- Reference&#45;&gt;ReferenceTagging -->
<g id="edge16" class="edge">
<title>Reference&#45;&gt;ReferenceTagging</title>
<path fill="none" stroke="#386728" d="M765.093,-401.1815C728.1986,-392.6187 677.5436,-378.0624 637,-356 615.107,-344.0866 615.7258,-332.2157 594,-320 572.3157,-307.8077 555.4888,-322.2223 541,-302 536.3387,-295.4942 534.9691,-287.2244 535.1478,-279.2473"/>
<ellipse fill="none" stroke="#386728" cx="769.3164" cy="-402.1383" rx="4" ry="4"/>
<polygon fill="#386728" stroke="#386728" points="535.1662,-279.0561 540.6071,-269.5352 535.6471,-274.0793 536.128,-269.1024 536.128,-269.1024 536.128,-269.1024 535.6471,-274.0793 531.6489,-268.6696 535.1662,-279.0561 535.1662,-279.0561"/>
</g>
<!-- BestComment -->
<g id="node50" class="node">
<title>BestComment</title>
<ellipse fill="none" stroke="#000000" cx="490" cy="-338" rx="61.99" ry="18"/>
<text text-anchor="middle" x="490" y="-334.3" font-family="Times,serif" font-size="14.00" fill="#000000">BestComment</text>
</g>
<!-- Reference&#45;&gt;BestComment -->
<g id="edge14" class="edge">
<title>Reference&#45;&gt;BestComment</title>
<path fill="none" stroke="#ccf361" d="M760.8074,-408.0025C709.6449,-404.0489 631.2538,-395.0656 566,-375 552.1639,-370.7454 537.7067,-364.2762 525.1614,-357.9307"/>
<ellipse fill="none" stroke="#ccf361" cx="765.1029" cy="-408.3211" rx="4" ry="4"/>
<ellipse fill="#ccf361" stroke="#ccf361" cx="521.5662" cy="-356.0673" rx="4" ry="4"/>
</g>
<!-- Binary -->
<g id="node53" class="node">
<title>Binary</title>
<ellipse fill="none" stroke="#000000" cx="2588" cy="-91" rx="34.394" ry="18"/>
<text text-anchor="middle" x="2588" y="-87.3" font-family="Times,serif" font-size="14.00" fill="#000000">Binary</text>
</g>
<!-- Reference&#45;&gt;Binary -->
<g id="edge9" class="edge">
<title>Reference&#45;&gt;Binary</title>
<path fill="none" stroke="#20c734" d="M869.0049,-407.3909C982.0029,-399.6461 1251.5813,-380.1587 1477,-356 1871.2458,-313.7477 1974.1796,-302.2778 2352,-182 2424.0746,-159.0553 2506.001,-125.7896 2551.8921,-106.4792"/>
<ellipse fill="none" stroke="#20c734" cx="864.8096" cy="-407.6775" rx="4" ry="4"/>
<polygon fill="#20c734" stroke="#20c734" points="2551.91,-106.4717 2562.873,-106.7242 2556.5157,-104.5254 2561.1214,-102.5791 2561.1214,-102.5791 2561.1214,-102.5791 2556.5157,-104.5254 2559.3697,-98.434 2551.91,-106.4717 2551.91,-106.4717"/>
</g>
<!-- User -->
<g id="node14" class="node">
<title>User</title>
<ellipse fill="none" stroke="#000000" cx="1596" cy="-505" rx="27.0966" ry="18"/>
<text text-anchor="middle" x="1596" y="-501.3" font-family="Times,serif" font-size="14.00" fill="#000000">User</text>
</g>
<!-- User&#45;&gt;GoPatch -->
<g id="edge35" class="edge">
<title>User&#45;&gt;GoPatch</title>
<path fill="none" stroke="#814b72" d="M1611.7215,-482.0382C1617.3259,-475.6879 1624.2077,-469.5659 1632,-466 1687.195,-440.7421 2126.2083,-479.6553 2178,-448 2241.3162,-409.3008 2240.4069,-373.8392 2259,-302 2276.172,-235.6515 2242.3738,-157.3526 2221.2336,-117.3776"/>
<ellipse fill="none" stroke="#814b72" cx="1609.0829" cy="-485.2772" rx="4" ry="4"/>
<polygon fill="#814b72" stroke="#814b72" points="2221.1998,-117.3153 2220.3803,-106.38 2218.813,-112.9217 2216.4262,-108.5282 2216.4262,-108.5282 2216.4262,-108.5282 2218.813,-112.9217 2212.472,-110.6764 2221.1998,-117.3153 2221.1998,-117.3153"/>
</g>
<!-- User&#45;&gt;GoPatch -->
<g id="edge36" class="edge">
<title>User&#45;&gt;GoPatch</title>
<path fill="none" stroke="#88e688" d="M1612.0075,-481.7611C1617.5625,-475.5222 1624.3445,-469.5326 1632,-466 1724.4848,-423.3236 1992.1341,-476.231 2090,-448 2106.2609,-443.3093 2112.6517,-442.3915 2123,-429 2143.5695,-402.3814 2134.6641,-388.5909 2143,-356 2165.0064,-269.9621 2188.6287,-167.5483 2199.6536,-119.0852"/>
<ellipse fill="none" stroke="#88e688" cx="1609.4157" cy="-484.9122" rx="4" ry="4"/>
<polygon fill="#88e688" stroke="#88e688" points="2199.7189,-118.7975 2206.3211,-110.0419 2200.8258,-113.9216 2201.9328,-109.0456 2201.9328,-109.0456 2201.9328,-109.0456 2200.8258,-113.9216 2197.5444,-108.0494 2199.7189,-118.7975 2199.7189,-118.7975"/>
<text text-anchor="middle" x="2207" y="-290.8" font-family="Times,serif" font-size="14.00" fill="#000000">received_patches</text>
</g>
<!-- User&#45;&gt;Notification -->
<g id="edge31" class="edge">
<title>User&#45;&gt;Notification</title>
<path fill="none" stroke="#96a760" d="M1579.7918,-482.1723C1574.2293,-475.9487 1567.4935,-469.8645 1560,-466 1502.2593,-436.2224 1312.9332,-477.7589 1270,-429 1259.4264,-416.9917 1259.7298,-405.2688 1270,-393 1329.9898,-321.3366 1413.2986,-424.3853 1477,-356 1540.8496,-287.4556 1556.3244,-216.8127 1495,-146 1484.6132,-134.0061 1279.9318,-109.5361 1174.9659,-97.7035"/>
<ellipse fill="none" stroke="#96a760" cx="1582.3884" cy="-485.2911" rx="4" ry="4"/>
<polygon fill="#96a760" stroke="#96a760" points="1174.76,-97.6805 1165.3247,-92.0925 1169.7912,-97.1224 1164.8224,-96.5644 1164.8224,-96.5644 1164.8224,-96.5644 1169.7912,-97.1224 1164.3202,-101.0363 1174.76,-97.6805 1174.76,-97.6805"/>
</g>
<!-- User&#45;&gt;Invitation -->
<g id="edge46" class="edge">
<title>User&#45;&gt;Invitation</title>
<path fill="none" stroke="#47b769" d="M1580.3178,-481.9513C1574.7152,-475.5969 1567.8246,-469.4944 1560,-466 1497.7008,-438.1776 400.0089,-453.4829 332,-448 274.2355,-443.343 259.3726,-442.4369 203,-429 199.4252,-428.1479 195.7496,-427.1636 192.0777,-426.1033"/>
<ellipse fill="none" stroke="#47b769" cx="1582.9555" cy="-485.1979" rx="4" ry="4"/>
<polygon fill="#47b769" stroke="#47b769" points="192.0026,-426.0805 183.754,-418.8548 187.2208,-424.6195 182.439,-423.1584 182.439,-423.1584 182.439,-423.1584 187.2208,-424.6195 181.1241,-427.4621 192.0026,-426.0805 192.0026,-426.0805"/>
</g>
<!-- User&#45;&gt;PendingUser -->
<g id="edge44" class="edge">
<title>User&#45;&gt;PendingUser</title>
<path fill="none" stroke="#374764" d="M1580.3176,-481.9517C1574.7151,-475.5972 1567.8245,-469.4947 1560,-466 1498.0061,-438.3113 403.7774,-464.8298 338,-448 324.5456,-444.5576 310.8083,-438.0695 299.1069,-431.4759"/>
<ellipse fill="none" stroke="#374764" cx="1582.9554" cy="-485.1983" rx="4" ry="4"/>
<ellipse fill="#374764" stroke="#374764" cx="295.5583" cy="-429.4016" rx="4" ry="4"/>
</g>
<!-- User&#45;&gt;Edge -->
<g id="edge39" class="edge">
<title>User&#45;&gt;Edge</title>
<path fill="none" stroke="#c35124" d="M1613.1554,-482.0712C1618.601,-476.0996 1625.0363,-470.1769 1632,-466 1659.1788,-449.6979 1675.0769,-466.2328 1701,-448 1709.3691,-442.1137 1710.706,-438.6871 1714,-429 1742.0134,-346.6173 1730.2737,-241.3282 1722.2281,-191.9393"/>
<ellipse fill="none" stroke="#c35124" cx="1610.2591" cy="-485.4521" rx="4" ry="4"/>
<polygon fill="#c35124" stroke="#c35124" points="1722.2146,-191.8594 1724.9699,-181.2453 1721.3742,-186.9305 1720.5339,-182.0016 1720.5339,-182.0016 1720.5339,-182.0016 1721.3742,-186.9305 1716.0979,-182.7579 1722.2146,-191.8594 1722.2146,-191.8594"/>
</g>
<!-- User&#45;&gt;Vote -->
<g id="edge26" class="edge">
<title>User&#45;&gt;Vote</title>
<path fill="none" stroke="#c470f2" d="M1580.3218,-481.9422C1574.7195,-475.5874 1567.828,-469.4869 1560,-466 1488.3375,-434.0781 225.8004,-458.0814 148,-448 96.8472,-441.3716 38,-462.5805 38,-411 38,-411 38,-411 38,-164 38,-131.2166 73.4944,-111.5851 102.1901,-101.0708"/>
<ellipse fill="none" stroke="#c470f2" cx="1582.9595" cy="-485.1897" rx="4" ry="4"/>
<polygon fill="#c470f2" stroke="#c470f2" points="102.5237,-100.9569 113.4414,-101.9839 107.2555,-99.3411 111.9872,-97.7253 111.9872,-97.7253 111.9872,-97.7253 107.2555,-99.3411 110.533,-93.4668 102.5237,-100.9569 102.5237,-100.9569"/>
</g>
<!-- User&#45;&gt;UserPatch -->
<g id="edge54" class="edge">
<title>User&#45;&gt;UserPatch</title>
<path fill="none" stroke="#3c4592" d="M1580.3221,-481.9417C1574.7197,-475.5868 1567.8282,-469.4865 1560,-466 1523.838,-449.8942 174.3915,-451.924 135,-448 73.0937,-441.8332 0,-473.2127 0,-411 0,-411 0,-411 0,-91 0,-52.3103 114.8097,-32.2854 186.2715,-23.5686"/>
<ellipse fill="none" stroke="#3c4592" cx="1582.9597" cy="-485.1892" rx="4" ry="4"/>
<polygon fill="#3c4592" stroke="#3c4592" points="186.5506,-23.5357 197.0091,-26.8327 191.5161,-22.9497 196.4817,-22.3637 196.4817,-22.3637 196.4817,-22.3637 191.5161,-22.9497 195.9542,-17.8947 186.5506,-23.5357 186.5506,-23.5357"/>
</g>
<!-- User&#45;&gt;Reference -->
<g id="edge21" class="edge">
<title>User&#45;&gt;Reference</title>
<path fill="none" stroke="#6d35f0" d="M1580.2928,-482.0067C1574.6891,-475.6549 1567.8041,-469.54 1560,-466 1490.7635,-434.5944 948.9431,-469.4314 876,-448 864.8998,-444.7386 853.7789,-438.9314 844.1303,-432.8704"/>
<ellipse fill="none" stroke="#6d35f0" cx="1582.9311" cy="-485.2485" rx="4" ry="4"/>
<polygon fill="#6d35f0" stroke="#6d35f0" points="844.0606,-432.8243 838.2125,-423.5479 839.8933,-430.0614 835.7259,-427.2985 835.7259,-427.2985 835.7259,-427.2985 839.8933,-430.0614 833.2394,-431.0491 844.0606,-432.8243 844.0606,-432.8243"/>
</g>
<!-- User&#45;&gt;SummaryLink -->
<g id="edge25" class="edge">
<title>User&#45;&gt;SummaryLink</title>
<path fill="none" stroke="#95f89d" d="M1580.2932,-482.0058C1574.6895,-475.6539 1567.8045,-469.5392 1560,-466 1525.1274,-450.1858 909.1078,-451.7398 871,-448 821.1885,-443.1117 809.2759,-437.7732 760,-429 599.7001,-400.4597 499.1781,-485.891 401,-356 342.8235,-279.0316 397.8341,-222.9764 456,-146 465.547,-133.3656 478.6938,-122.0994 491.0815,-113.1044"/>
<ellipse fill="none" stroke="#95f89d" cx="1582.9315" cy="-485.2476" rx="4" ry="4"/>
<polygon fill="#95f89d" stroke="#95f89d" points="491.2778,-112.9676 502.0552,-110.9432 495.3802,-110.1093 499.4827,-107.251 499.4827,-107.251 499.4827,-107.251 495.3802,-110.1093 496.9102,-103.5588 491.2778,-112.9676 491.2778,-112.9676"/>
</g>
<!-- Credit -->
<g id="node17" class="node">
<title>Credit</title>
<ellipse fill="none" stroke="#000000" cx="2503" cy="-91" rx="32.4942" ry="18"/>
<text text-anchor="middle" x="2503" y="-87.3" font-family="Times,serif" font-size="14.00" fill="#000000">Credit</text>
</g>
<!-- User&#45;&gt;Credit -->
<g id="edge27" class="edge">
<title>User&#45;&gt;Credit</title>
<path fill="none" stroke="#3a6de2" d="M1611.7084,-482.0093C1617.3121,-475.6576 1624.1968,-469.5421 1632,-466 1699.8119,-435.2181 2228.098,-457.1906 2302,-448 2376.58,-438.7251 2467,-486.1545 2467,-411 2467,-411 2467,-411 2467,-164 2467,-146.8928 2475.0509,-129.6402 2483.5381,-116.2056"/>
<ellipse fill="none" stroke="#3a6de2" cx="1609.07" cy="-485.2509" rx="4" ry="4"/>
<polygon fill="#3a6de2" stroke="#3a6de2" points="2483.7831,-115.8437 2493.1161,-110.0864 2486.5865,-111.7035 2489.3899,-107.5633 2489.3899,-107.5633 2489.3899,-107.5633 2486.5865,-111.7035 2485.6638,-105.0403 2483.7831,-115.8437 2483.7831,-115.8437"/>
</g>
<!-- PrivateTimeline -->
<g id="node18" class="node">
<title>PrivateTimeline</title>
<ellipse fill="none" stroke="#000000" cx="1265" cy="-164" rx="67.6881" ry="18"/>
<text text-anchor="middle" x="1265" y="-160.3" font-family="Times,serif" font-size="14.00" fill="#000000">PrivateTimeline</text>
</g>
<!-- User&#45;&gt;PrivateTimeline -->
<g id="edge50" class="edge">
<title>User&#45;&gt;PrivateTimeline</title>
<path fill="none" stroke="#86f82e" d="M1603.6643,-479.4575C1606.2204,-469.7093 1608.7376,-458.4323 1610,-448 1613.0302,-422.9587 1610.1717,-413.8665 1596,-393 1523.8606,-286.7811 1384.7499,-215.0639 1311.9745,-183.0434"/>
<ellipse fill="none" stroke="#86f82e" cx="1602.5912" cy="-483.3764" rx="4" ry="4"/>
<polygon fill="#86f82e" stroke="#86f82e" points="1311.7595,-182.9502 1304.376,-174.8426 1307.1724,-180.9606 1302.5853,-178.971 1302.5853,-178.971 1302.5853,-178.971 1307.1724,-180.9606 1300.7947,-183.0994 1311.7595,-182.9502 1311.7595,-182.9502"/>
</g>
<!-- VisiteTimeline -->
<g id="node19" class="node">
<title>VisiteTimeline</title>
<ellipse fill="none" stroke="#000000" cx="1159" cy="-411" rx="63.8893" ry="18"/>
<text text-anchor="middle" x="1159" y="-407.3" font-family="Times,serif" font-size="14.00" fill="#000000">VisiteTimeline</text>
</g>
<!-- User&#45;&gt;VisiteTimeline -->
<g id="edge34" class="edge">
<title>User&#45;&gt;VisiteTimeline</title>
<path fill="none" stroke="#cb8f82" d="M1579.9563,-481.8387C1574.4,-475.6027 1567.6263,-469.5952 1560,-466 1494.9742,-435.3455 1306.6668,-465.7367 1237,-448 1222.8578,-444.3995 1208.1899,-438.1854 1195.442,-431.8667"/>
<ellipse fill="none" stroke="#cb8f82" cx="1582.5489" cy="-484.9836" rx="4" ry="4"/>
<polygon fill="#cb8f82" stroke="#cb8f82" points="1195.4258,-431.8585 1188.5927,-423.2818 1190.9798,-429.5708 1186.5338,-427.2832 1186.5338,-427.2832 1186.5338,-427.2832 1190.9798,-429.5708 1184.4749,-431.2845 1195.4258,-431.8585 1195.4258,-431.8585"/>
</g>
<!-- User&#45;&gt;DeadLink -->
<g id="edge49" class="edge">
<title>User&#45;&gt;DeadLink</title>
<path fill="none" stroke="#3761c9" d="M1590.247,-478.7364C1583.02,-452.4731 1567.8967,-413.1701 1539,-393 1522.523,-381.499 1251.928,-354.537 1133.1574,-343.1841"/>
<ellipse fill="none" stroke="#3761c9" cx="1591.3218" cy="-482.8919" rx="4" ry="4"/>
<polygon fill="#3761c9" stroke="#3761c9" points="1133.1243,-343.1811 1123.5965,-337.7523 1128.1468,-342.7065 1123.1694,-342.232 1123.1694,-342.232 1123.1694,-342.232 1128.1468,-342.7065 1122.7423,-346.7117 1133.1243,-343.1811 1133.1243,-343.1811"/>
</g>
<!-- UserDetail -->
<g id="node22" class="node">
<title>UserDetail</title>
<ellipse fill="none" stroke="#000000" cx="1328" cy="-411" rx="48.9926" ry="18"/>
<text text-anchor="middle" x="1328" y="-407.3" font-family="Times,serif" font-size="14.00" fill="#000000">UserDetail</text>
</g>
<!-- User&#45;&gt;UserDetail -->
<g id="edge45" class="edge">
<title>User&#45;&gt;UserDetail</title>
<path fill="none" stroke="#e662b2" d="M1578.9682,-481.8594C1573.5247,-475.8843 1567.0595,-470.0127 1560,-466 1490.8875,-426.7157 1461.8838,-449.2158 1385,-429 1380.7973,-427.8949 1376.4443,-426.6698 1372.1028,-425.3934"/>
<ellipse fill="none" stroke="#e662b2" cx="1581.8603" cy="-485.2553" rx="4" ry="4"/>
<ellipse fill="#e662b2" stroke="#e662b2" cx="1368.1654" cy="-424.2083" rx="4" ry="4"/>
</g>
<!-- VisiteReference -->
<g id="node24" class="node">
<title>VisiteReference</title>
<ellipse fill="none" stroke="#000000" cx="1462" cy="-411" rx="67.6881" ry="18"/>
<text text-anchor="middle" x="1462" y="-407.3" font-family="Times,serif" font-size="14.00" fill="#000000">VisiteReference</text>
</g>
<!-- User&#45;&gt;VisiteReference -->
<g id="edge33" class="edge">
<title>User&#45;&gt;VisiteReference</title>
<path fill="none" stroke="#207826" d="M1577.534,-482.5788C1572.2073,-476.8102 1566.1605,-470.8646 1560,-466 1543.1796,-452.7178 1522.7497,-440.7072 1504.9052,-431.3227"/>
<ellipse fill="none" stroke="#207826" cx="1580.3399" cy="-485.7242" rx="4" ry="4"/>
<polygon fill="#207826" stroke="#207826" points="1504.735,-431.2352 1497.9002,-422.6599 1500.2885,-428.9485 1495.8421,-426.6617 1495.8421,-426.6617 1495.8421,-426.6617 1500.2885,-428.9485 1493.784,-430.6635 1504.735,-431.2352 1504.735,-431.2352"/>
</g>
<!-- User&#45;&gt;PatchMessage -->
<g id="edge53" class="edge">
<title>User&#45;&gt;PatchMessage</title>
<path fill="none" stroke="#30ac77" d="M1611.6947,-481.9791C1617.2978,-475.626 1624.1856,-469.5173 1632,-466 1676.4892,-445.9754 2461.3539,-451.7187 2510,-448 2570.3846,-443.3839 2780,-471.5608 2780,-411 2780,-411 2780,-411 2780,-91 2780,-40.9491 2432.121,-24.5849 2278.0101,-19.7912"/>
<ellipse fill="none" stroke="#30ac77" cx="1609.0567" cy="-485.2233" rx="4" ry="4"/>
<polygon fill="#30ac77" stroke="#30ac77" points="2277.6959,-19.7818 2267.8368,-14.9809 2272.6982,-19.6303 2267.7005,-19.4788 2267.7005,-19.4788 2267.7005,-19.4788 2272.6982,-19.6303 2267.5642,-23.9767 2277.6959,-19.7818 2277.6959,-19.7818"/>
</g>
<!-- User&#45;&gt;Comment -->
<g id="edge22" class="edge">
<title>User&#45;&gt;Comment</title>
<path fill="none" stroke="#5f5df5" d="M1580.2742,-482.0476C1574.6696,-475.6977 1567.7888,-469.5736 1560,-466 1507.9589,-442.123 1101.739,-455.6853 1045,-448 974.8165,-438.4936 890,-481.8244 890,-411 890,-411 890,-411 890,-294.5 890,-258.2342 879.1956,-217.6205 870.7764,-191.4781"/>
<ellipse fill="none" stroke="#5f5df5" cx="1582.9129" cy="-485.2858" rx="4" ry="4"/>
<polygon fill="#5f5df5" stroke="#5f5df5" points="870.7387,-191.3646 871.8503,-180.4552 869.1596,-186.6205 867.5805,-181.8764 867.5805,-181.8764 867.5805,-181.8764 869.1596,-186.6205 863.3108,-183.2975 870.7387,-191.3646 870.7387,-191.3646"/>
</g>
<!-- NotificationSelection -->
<g id="node31" class="node">
<title>NotificationSelection</title>
<ellipse fill="none" stroke="#000000" cx="2061" cy="-91" rx="85.5853" ry="18"/>
<text text-anchor="middle" x="2061" y="-87.3" font-family="Times,serif" font-size="14.00" fill="#000000">NotificationSelection</text>
</g>
<!-- User&#45;&gt;NotificationSelection -->
<g id="edge32" class="edge">
<title>User&#45;&gt;NotificationSelection</title>
<path fill="none" stroke="#8f55c5" d="M1612.0106,-481.7679C1617.5657,-475.5292 1624.347,-469.538 1632,-466 1721.2297,-424.7487 1980.904,-479.5712 2074,-448 2087.8961,-443.2875 2093.5665,-441.6512 2101,-429 2132.9935,-374.5499 2153.787,-203.1914 2127,-146 2121.1016,-133.4066 2110.7453,-122.691 2099.9607,-114.1558"/>
<ellipse fill="none" stroke="#8f55c5" cx="1609.4187" cy="-484.9184" rx="4" ry="4"/>
<polygon fill="#8f55c5" stroke="#8f55c5" points="2099.7438,-113.9958 2094.3684,-104.4378 2095.7203,-111.0274 2091.6968,-108.0589 2091.6968,-108.0589 2091.6968,-108.0589 2095.7203,-111.0274 2089.0252,-111.68 2099.7438,-113.9958 2099.7438,-113.9958"/>
</g>
<!-- Timeline -->
<g id="node32" class="node">
<title>Timeline</title>
<ellipse fill="none" stroke="#000000" cx="1167" cy="-251" rx="42.7926" ry="18"/>
<text text-anchor="middle" x="1167" y="-247.3" font-family="Times,serif" font-size="14.00" fill="#000000">Timeline</text>
</g>
<!-- User&#45;&gt;Timeline -->
<g id="edge20" class="edge">
<title>User&#45;&gt;Timeline</title>
<path fill="none" stroke="#b27f5c" d="M1580.273,-482.0502C1574.6683,-475.7004 1567.7878,-469.5757 1560,-466 1508.7728,-442.4793 1092.1453,-488.5597 1053,-448 1036.0246,-430.4112 1039.8337,-413.5956 1053,-393 1074.1,-359.9938 1107.0112,-385.3121 1133,-356 1151.9847,-334.5876 1160.3901,-302.4227 1164.0986,-279.3387"/>
<ellipse fill="none" stroke="#b27f5c" cx="1582.9117" cy="-485.2882" rx="4" ry="4"/>
<polygon fill="#b27f5c" stroke="#b27f5c" points="1164.141,-279.0362 1169.9869,-269.7585 1164.8358,-274.0847 1165.5305,-269.1332 1165.5305,-269.1332 1165.5305,-269.1332 1164.8358,-274.0847 1161.0742,-268.5079 1164.141,-279.0362 1164.141,-279.0362"/>
</g>
<!-- User&#45;&gt;ReferenceEdge -->
<g id="edge41" class="edge">
<title>User&#45;&gt;ReferenceEdge</title>
<path fill="none" stroke="#329b14" d="M1613.3397,-482.3671C1618.7884,-476.4005 1625.1792,-470.4063 1632,-466 1653.2498,-452.2725 1671.2079,-468.523 1686,-448 1723.0367,-396.6143 1697.4587,-319.7663 1636,-200 1634.1718,-196.4374 1631.9377,-192.914 1629.5213,-189.5464"/>
<ellipse fill="none" stroke="#329b14" cx="1610.4365" cy="-485.7276" rx="4" ry="4"/>
<polygon fill="#329b14" stroke="#329b14" points="1629.4338,-189.4346 1626.809,-178.7875 1626.3502,-185.4987 1623.2666,-181.5627 1623.2666,-181.5627 1623.2666,-181.5627 1626.3502,-185.4987 1619.7243,-184.3379 1629.4338,-189.4346 1629.4338,-189.4346"/>
</g>
<!-- User&#45;&gt;ReferenceContributor -->
<g id="edge29" class="edge">
<title>User&#45;&gt;ReferenceContributor</title>
<path fill="none" stroke="#f1c3b5" d="M1597.5645,-478.9145C1597.6053,-453.7355 1593.5731,-416.122 1572,-393 1556.045,-375.8995 1503.4344,-361.4879 1457.4605,-351.7122"/>
<ellipse fill="none" stroke="#f1c3b5" cx="1597.4891" cy="-482.9386" rx="4" ry="4"/>
<polygon fill="#f1c3b5" stroke="#f1c3b5" points="1457.2558,-351.6697 1448.38,-345.23 1452.3603,-350.6529 1447.4648,-349.636 1447.4648,-349.636 1447.4648,-349.636 1452.3603,-350.6529 1446.5496,-354.0419 1457.2558,-351.6697 1457.2558,-351.6697"/>
</g>
<!-- Summary -->
<g id="node39" class="node">
<title>Summary</title>
<ellipse fill="none" stroke="#000000" cx="1886" cy="-164" rx="46.2923" ry="18"/>
<text text-anchor="middle" x="1886" y="-160.3" font-family="Times,serif" font-size="14.00" fill="#000000">Summary</text>
</g>
<!-- User&#45;&gt;Summary -->
<g id="edge23" class="edge">
<title>User&#45;&gt;Summary</title>
<path fill="none" stroke="#8cb4c5" d="M1612.115,-481.9869C1617.6739,-475.7564 1624.4312,-469.7148 1632,-466 1731.0152,-417.4025 1874,-521.2984 1874,-411 1874,-411 1874,-411 1874,-251 1874,-231.1763 1877.0952,-209.0481 1880.1417,-192.0694"/>
<ellipse fill="none" stroke="#8cb4c5" cx="1609.5207" cy="-485.1201" rx="4" ry="4"/>
<polygon fill="#8cb4c5" stroke="#8cb4c5" points="1880.1443,-192.0554 1886.4257,-183.0668 1881.0742,-187.1426 1882.0042,-182.2298 1882.0042,-182.2298 1882.0042,-182.2298 1881.0742,-187.1426 1877.5827,-181.3929 1880.1443,-192.0554 1880.1443,-192.0554"/>
</g>
<!-- User&#45;&gt;Figure -->
<g id="edge47" class="edge">
<title>User&#45;&gt;Figure</title>
<path fill="none" stroke="#0a4962" d="M1580.2736,-482.0489C1574.669,-475.699 1567.7883,-469.5746 1560,-466 1508.3659,-442.3012 1097.7113,-477.2391 1049,-448 1005.4394,-421.8526 998.2604,-259.0374 997.159,-192.3918"/>
<ellipse fill="none" stroke="#0a4962" cx="1582.9123" cy="-485.287" rx="4" ry="4"/>
<polygon fill="#0a4962" stroke="#0a4962" points="997.1566,-192.1948 1001.526,-182.1371 997.0915,-187.1952 997.0264,-182.1956 997.0264,-182.1956 997.0264,-182.1956 997.0915,-187.1952 992.5268,-182.2542 997.1566,-192.1948 997.1566,-192.1948"/>
</g>
<!-- Frame -->
<g id="node41" class="node">
<title>Frame</title>
<ellipse fill="none" stroke="#000000" cx="2309" cy="-164" rx="33.5952" ry="18"/>
<text text-anchor="middle" x="2309" y="-160.3" font-family="Times,serif" font-size="14.00" fill="#000000">Frame</text>
</g>
<!-- User&#45;&gt;Frame -->
<g id="edge37" class="edge">
<title>User&#45;&gt;Frame</title>
<path fill="none" stroke="#508751" d="M1611.7097,-482.0122C1617.3135,-475.6607 1624.1979,-469.5445 1632,-466 1698.2855,-435.8864 2223.5102,-483.6322 2287,-448 2304.093,-438.4069 2311,-430.601 2311,-411 2311,-411 2311,-411 2311,-251 2311,-231.5423 2310.4938,-209.6433 2309.9908,-192.6839"/>
<ellipse fill="none" stroke="#508751" cx="1609.0713" cy="-485.2535" rx="4" ry="4"/>
<polygon fill="#508751" stroke="#508751" points="2309.9795,-192.3228 2314.1638,-182.1867 2309.8227,-187.3253 2309.666,-182.3277 2309.666,-182.3277 2309.666,-182.3277 2309.8227,-187.3253 2305.1682,-182.4688 2309.9795,-192.3228 2309.9795,-192.3228"/>
</g>
<!-- User&#45;&gt;ReferenceUserTag -->
<g id="edge43" class="edge">
<title>User&#45;&gt;ReferenceUserTag</title>
<path fill="none" stroke="#09e497" d="M1580.3166,-481.9539C1574.714,-475.5996 1567.8237,-469.4966 1560,-466 1499.9399,-439.158 434.9114,-477.2773 376,-448 348.2137,-434.191 354.6958,-415.1823 333,-393 324.1664,-383.9683 318.6244,-385.0734 311,-375 288.7321,-345.5795 273.4551,-305.5557 264.9768,-279.0311"/>
<ellipse fill="none" stroke="#09e497" cx="1582.9544" cy="-485.2003" rx="4" ry="4"/>
<polygon fill="#09e497" stroke="#09e497" points="264.9041,-278.7949 266.2599,-267.9132 263.4318,-274.0166 261.9594,-269.2383 261.9594,-269.2383 261.9594,-269.2383 263.4318,-274.0166 257.6589,-270.5633 264.9041,-278.7949 264.9041,-278.7949"/>
</g>
<!-- Like -->
<g id="node43" class="node">
<title>Like</title>
<ellipse fill="none" stroke="#000000" cx="1114" cy="-164" rx="27" ry="18"/>
<text text-anchor="middle" x="1114" y="-160.3" font-family="Times,serif" font-size="14.00" fill="#000000">Like</text>
</g>
<!-- User&#45;&gt;Like -->
<g id="edge30" class="edge">
<title>User&#45;&gt;Like</title>
<path fill="none" stroke="#aec4ea" d="M1579.9586,-481.8339C1574.4024,-475.5977 1567.6281,-469.5913 1560,-466 1464.4103,-420.9963 1155.6865,-508.4135 1086,-429 1075.4468,-416.9738 1077.0656,-406.2731 1086,-393 1101.0011,-370.7141 1294.9989,-324.2859 1310,-302 1355.3126,-234.6827 1217.8869,-189.8522 1149.8109,-172.3077"/>
<ellipse fill="none" stroke="#aec4ea" cx="1582.5511" cy="-484.9792" rx="4" ry="4"/>
<polygon fill="#aec4ea" stroke="#aec4ea" points="1149.6084,-172.2569 1141.0049,-165.4575 1144.7588,-171.0395 1139.9093,-169.8221 1139.9093,-169.8221 1139.9093,-169.8221 1144.7588,-171.0395 1138.8136,-174.1867 1149.6084,-172.2569 1149.6084,-172.2569"/>
</g>
<!-- User&#45;&gt;Link -->
<g id="edge24" class="edge">
<title>User&#45;&gt;Link</title>
<path fill="none" stroke="#382e78" d="M1580.3181,-481.9506C1574.7156,-475.5961 1567.8249,-469.4938 1560,-466 1528.5196,-451.944 353.4335,-449.708 319,-448 264.4447,-445.294 76,-465.6224 76,-411 76,-411 76,-411 76,-294.5 76,-201.2948 183.9582,-134.1269 239.2189,-105.8508"/>
<ellipse fill="none" stroke="#382e78" cx="1582.9558" cy="-485.1973" rx="4" ry="4"/>
<polygon fill="#382e78" stroke="#382e78" points="239.3048,-105.8079 250.2616,-105.3614 243.7771,-103.5721 248.2494,-101.3363 248.2494,-101.3363 248.2494,-101.3363 243.7771,-103.5721 246.2372,-97.3112 239.3048,-105.8079 239.3048,-105.8079"/>
</g>
<!-- User&#45;&gt;EdgeVote -->
<g id="edge40" class="edge">
<title>User&#45;&gt;EdgeVote</title>
<path fill="none" stroke="#fb30fc" d="M1613.0388,-481.8718C1618.4825,-475.8969 1624.946,-470.0224 1632,-466 1709.1101,-422.0302 1824,-499.7655 1824,-411 1824,-411 1824,-411 1824,-251 1824,-201.6667 1824.8067,-178.8488 1788,-146 1730.9575,-95.0914 1694.6511,-125.5151 1620,-109 1610.0839,-106.8063 1599.4863,-104.4557 1589.3347,-102.201"/>
<ellipse fill="none" stroke="#fb30fc" cx="1610.1465" cy="-485.2669" rx="4" ry="4"/>
<polygon fill="#fb30fc" stroke="#fb30fc" points="1589.1354,-102.1568 1580.3496,-95.5948 1584.2544,-101.0722 1579.3735,-99.9876 1579.3735,-99.9876 1579.3735,-99.9876 1584.2544,-101.0722 1578.3973,-104.3805 1589.1354,-102.1568 1589.1354,-102.1568"/>
</g>
<!-- FrameCredit -->
<g id="node47" class="node">
<title>FrameCredit</title>
<ellipse fill="none" stroke="#000000" cx="2696" cy="-91" rx="55.7903" ry="18"/>
<text text-anchor="middle" x="2696" y="-87.3" font-family="Times,serif" font-size="14.00" fill="#000000">FrameCredit</text>
</g>
<!-- User&#45;&gt;FrameCredit -->
<g id="edge38" class="edge">
<title>User&#45;&gt;FrameCredit</title>
<path fill="none" stroke="#4c3615" d="M1611.6966,-481.9834C1617.2998,-475.6305 1624.1872,-469.5208 1632,-466 1674.6065,-446.7997 2426.5999,-453.5675 2473,-448 2548.4807,-438.9431 2640,-487.0221 2640,-411 2640,-411 2640,-411 2640,-164 2640,-144.7723 2652.3817,-127.4865 2665.501,-114.5676"/>
<ellipse fill="none" stroke="#4c3615" cx="1609.0586" cy="-485.2272" rx="4" ry="4"/>
<polygon fill="#4c3615" stroke="#4c3615" points="2665.8536,-114.2441 2676.2647,-110.8002 2669.5381,-110.8641 2673.2227,-107.4841 2673.2227,-107.4841 2673.2227,-107.4841 2669.5381,-110.8641 2670.1806,-104.168 2665.8536,-114.2441 2665.8536,-114.2441"/>
</g>
<!-- ReferenceEdgeVote -->
<g id="node49" class="node">
<title>ReferenceEdgeVote</title>
<ellipse fill="none" stroke="#000000" cx="1394" cy="-91" rx="81.4863" ry="18"/>
<text text-anchor="middle" x="1394" y="-87.3" font-family="Times,serif" font-size="14.00" fill="#000000">ReferenceEdgeVote</text>
</g>
<!-- User&#45;&gt;ReferenceEdgeVote -->
<g id="edge42" class="edge">
<title>User&#45;&gt;ReferenceEdgeVote</title>
<path fill="none" stroke="#5345b0" d="M1613.1554,-482.0712C1618.601,-476.0996 1625.0363,-470.1769 1632,-466 1659.1788,-449.6979 1675.0769,-466.2328 1701,-448 1709.3691,-442.1137 1709.7957,-438.3282 1714,-429 1766.2216,-313.1337 1838.5676,-241.7525 1755,-146 1715.034,-100.2066 1543.9399,-119.076 1484,-109 1477.3486,-107.8819 1470.4362,-106.6414 1463.5311,-105.3496"/>
<ellipse fill="none" stroke="#5345b0" cx="1610.2591" cy="-485.4521" rx="4" ry="4"/>
<polygon fill="#5345b0" stroke="#5345b0" points="1463.2738,-105.3007 1454.293,-99.0081 1458.3622,-104.3646 1453.4506,-103.4286 1453.4506,-103.4286 1453.4506,-103.4286 1458.3622,-104.3646 1452.6081,-107.849 1463.2738,-105.3007 1463.2738,-105.3007"/>
</g>
<!-- TimelineContributor -->
<g id="node51" class="node">
<title>TimelineContributor</title>
<ellipse fill="none" stroke="#000000" cx="2034" cy="-164" rx="83.6854" ry="18"/>
<text text-anchor="middle" x="2034" y="-160.3" font-family="Times,serif" font-size="14.00" fill="#000000">TimelineContributor</text>
</g>
<!-- User&#45;&gt;TimelineContributor -->
<g id="edge28" class="edge">
<title>User&#45;&gt;TimelineContributor</title>
<path fill="none" stroke="#49556f" d="M1612.082,-481.9192C1617.6398,-475.6862 1624.4047,-469.6602 1632,-466 1723.9482,-421.6903 2088,-513.0678 2088,-411 2088,-411 2088,-411 2088,-251 2088,-227.6258 2073.755,-205.3119 2059.8978,-189.135"/>
<ellipse fill="none" stroke="#49556f" cx="1609.4886" cy="-485.0578" rx="4" ry="4"/>
<polygon fill="#49556f" stroke="#49556f" points="2059.8933,-189.13 2056.5299,-178.6927 2056.5419,-185.4195 2053.1904,-181.7089 2053.1904,-181.7089 2053.1904,-181.7089 2056.5419,-185.4195 2049.8509,-184.7252 2059.8933,-189.13 2059.8933,-189.13"/>
</g>
<!-- TimelineChoice -->
<g id="node52" class="node">
<title>TimelineChoice</title>
<ellipse fill="none" stroke="#000000" cx="1418" cy="-164" rx="67.6881" ry="18"/>
<text text-anchor="middle" x="1418" y="-160.3" font-family="Times,serif" font-size="14.00" fill="#000000">TimelineChoice</text>
</g>
<!-- User&#45;&gt;TimelineChoice -->
<g id="edge51" class="edge">
<title>User&#45;&gt;TimelineChoice</title>
<path fill="none" stroke="#d3ecfa" d="M1616.0051,-483.2499C1630.5646,-467.3926 1647.777,-448.5754 1648,-448 1659.9254,-417.2335 1658.07,-402.8192 1642,-374 1592.2746,-284.8245 1572.9062,-262.2822 1492,-200 1483.9338,-193.7906 1474.6254,-188.249 1465.3911,-183.4844"/>
<ellipse fill="none" stroke="#d3ecfa" cx="1613.0994" cy="-486.4129" rx="4" ry="4"/>
<polygon fill="#d3ecfa" stroke="#d3ecfa" points="1465.2052,-183.3931 1458.2148,-174.9441 1460.7177,-181.188 1456.2302,-178.9829 1456.2302,-178.9829 1456.2302,-178.9829 1460.7177,-181.188 1454.2456,-183.0216 1465.2052,-183.3931 1465.2052,-183.3931"/>
</g>
<!-- User&#45;&gt;Binary -->
<g id="edge48" class="edge">
<title>User&#45;&gt;Binary</title>
<path fill="none" stroke="#444bcd" d="M1611.7017,-481.9945C1617.3051,-475.6421 1624.1913,-469.5299 1632,-466 1670.3833,-448.6487 2348.1596,-452.8711 2390,-448 2460.7787,-439.7599 2546,-482.2568 2546,-411 2546,-411 2546,-411 2546,-164 2546,-146.1286 2555.5742,-128.6817 2565.5802,-115.3279"/>
<ellipse fill="none" stroke="#444bcd" cx="1609.0635" cy="-485.2373" rx="4" ry="4"/>
<polygon fill="#444bcd" stroke="#444bcd" points="2565.861,-114.978 2575.6306,-109.9975 2568.9913,-111.0791 2572.1216,-107.1802 2572.1216,-107.1802 2572.1216,-107.1802 2568.9913,-111.0791 2568.6126,-104.363 2565.861,-114.978 2565.861,-114.978"/>
</g>
<!-- Location -->
<g id="node54" class="node">
<title>Location</title>
<ellipse fill="none" stroke="#000000" cx="2850" cy="-411" rx="42.4939" ry="18"/>
<text text-anchor="middle" x="2850" y="-407.3" font-family="Times,serif" font-size="14.00" fill="#000000">Location</text>
</g>
<!-- User&#45;&gt;Location -->
<g id="edge52" class="edge">
<title>User&#45;&gt;Location</title>
<path fill="none" stroke="#484cae" d="M1611.684,-481.9553C1617.2866,-475.601 1624.1768,-469.4977 1632,-466 1690.9406,-439.6481 2732.3142,-467.06 2794,-448 2804.187,-444.8524 2814.2459,-439.228 2822.9669,-433.2996"/>
<ellipse fill="none" stroke="#484cae" cx="1609.0462" cy="-485.2016" rx="4" ry="4"/>
<polygon fill="#484cae" stroke="#484cae" points="2823.0928,-433.2086 2833.8334,-430.9971 2827.1449,-430.2794 2831.1971,-427.3502 2831.1971,-427.3502 2831.1971,-427.3502 2827.1449,-430.2794 2828.5608,-423.7033 2823.0928,-433.2086 2823.0928,-433.2086"/>
</g>
<!-- SummaryBest -->
<g id="node16" class="node">
<title>SummaryBest</title>
<ellipse fill="none" stroke="#000000" cx="1703" cy="-91" rx="61.99" ry="18"/>
<text text-anchor="middle" x="1703" y="-87.3" font-family="Times,serif" font-size="14.00" fill="#000000">SummaryBest</text>
</g>
<!-- ReferenceUserTagging -->
<g id="node21" class="node">
<title>ReferenceUserTagging</title>
<ellipse fill="none" stroke="#000000" cx="302" cy="-164" rx="92.0841" ry="18"/>
<text text-anchor="middle" x="302" y="-160.3" font-family="Times,serif" font-size="14.00" fill="#000000">ReferenceUserTagging</text>
</g>
<!-- Tag&#45;&gt;ReferenceUserTagging -->
<g id="edge57" class="edge">
<title>Tag&#45;&gt;ReferenceUserTagging</title>
<path fill="none" stroke="#fc11e3" d="M642.1382,-325.1575C626.6514,-318.0186 610.2802,-309.1587 606,-302 602.5789,-296.2781 603.3658,-293.1242 606,-287 610.5962,-276.3143 620.4038,-279.6857 625,-269 631.3221,-254.302 635.0628,-245.4395 625,-233 596.8863,-198.2463 483.2098,-180.2313 398.6194,-171.4571"/>
<ellipse fill="none" stroke="#fc11e3" cx="645.963" cy="-326.8724" rx="4" ry="4"/>
<polygon fill="#fc11e3" stroke="#fc11e3" points="398.405,-171.4356 388.9068,-165.9551 393.4302,-170.934 388.4554,-170.4324 388.4554,-170.4324 388.4554,-170.4324 393.4302,-170.934 388.004,-174.9097 398.405,-171.4356 398.405,-171.4356"/>
</g>
<!-- TagPair -->
<g id="node25" class="node">
<title>TagPair</title>
<ellipse fill="none" stroke="#000000" cx="748" cy="-251" rx="38.1938" ry="18"/>
<text text-anchor="middle" x="748" y="-247.3" font-family="Times,serif" font-size="14.00" fill="#000000">TagPair</text>
</g>
<!-- Tag&#45;&gt;TagPair -->
<g id="edge60" class="edge">
<title>Tag&#45;&gt;TagPair</title>
<path fill="none" stroke="#b447ac" d="M695.5756,-317.9213C700.8264,-312.9004 706.2622,-307.4016 711,-302 717.8525,-294.1874 724.7144,-285.15 730.6351,-276.8727"/>
<ellipse fill="none" stroke="#b447ac" cx="692.4699" cy="-320.8279" rx="4" ry="4"/>
<polygon fill="#b447ac" stroke="#b447ac" points="730.6885,-276.7965 740.1107,-271.1865 733.5565,-272.7009 736.4246,-268.6052 736.4246,-268.6052 736.4246,-268.6052 733.5565,-272.7009 732.7385,-266.024 730.6885,-276.7965 730.6885,-276.7965"/>
<text text-anchor="middle" x="769" y="-290.8" font-family="Times,serif" font-size="14.00" fill="#000000">tag_pair_sources</text>
</g>
<!-- Tag&#45;&gt;TagPair -->
<g id="edge61" class="edge">
<title>Tag&#45;&gt;TagPair</title>
<path fill="none" stroke="#8d6365" d="M642.2046,-324.4214C624.5571,-314.7226 607.9212,-300.9673 619,-287 640.8403,-259.4653 662.2379,-278.7612 696,-269 699.8646,-267.8827 703.8647,-266.6459 707.8513,-265.3592"/>
<ellipse fill="none" stroke="#8d6365" cx="646.1978" cy="-326.4832" rx="4" ry="4"/>
<polygon fill="#8d6365" stroke="#8d6365" points="708.16,-265.2565 719.0695,-266.3672 712.904,-263.6771 717.648,-262.0976 717.648,-262.0976 717.648,-262.0976 712.904,-263.6771 716.2265,-257.828 708.16,-265.2565 708.16,-265.2565"/>
<text text-anchor="middle" x="663" y="-290.8" font-family="Times,serif" font-size="14.00" fill="#000000">tag_pair_targets</text>
</g>
<!-- Tag&#45;&gt;Timeline -->
<g id="edge56" class="edge">
<title>Tag&#45;&gt;Timeline</title>
<path fill="none" stroke="#6c1a56" d="M709.2332,-331.6188C796.3748,-316.2721 1017.8037,-277.2755 1117.2789,-259.7566"/>
<polygon fill="#6c1a56" stroke="#6c1a56" points="709.0592,-331.6494 698.4303,-328.9521 704.135,-332.5167 699.2108,-333.3839 699.2108,-333.3839 699.2108,-333.3839 704.135,-332.5167 699.9913,-337.8157 709.0592,-331.6494 709.0592,-331.6494"/>
<polygon fill="#6c1a56" stroke="#6c1a56" points="1117.522,-259.7138 1128.1509,-262.4111 1122.4462,-258.8466 1127.3704,-257.9793 1127.3704,-257.9793 1127.3704,-257.9793 1122.4462,-258.8466 1126.5899,-253.5475 1117.522,-259.7138 1117.522,-259.7138"/>
</g>
<!-- Tagging -->
<g id="node34" class="node">
<title>Tagging</title>
<ellipse fill="none" stroke="#000000" cx="643" cy="-164" rx="40.0939" ry="18"/>
<text text-anchor="middle" x="643" y="-160.3" font-family="Times,serif" font-size="14.00" fill="#000000">Tagging</text>
</g>
<!-- Tag&#45;&gt;Tagging -->
<g id="edge55" class="edge">
<title>Tag&#45;&gt;Tagging</title>
<path fill="none" stroke="#9eb4b3" d="M643.2463,-324.0023C629.6329,-316.9259 615.7043,-308.4874 612,-302 608.6943,-296.2106 608.2417,-292.5064 612,-287 624.3763,-268.8671 645.6237,-287.1329 658,-269 673.6438,-246.0797 665.6716,-213.7586 656.4663,-191.0472"/>
<ellipse fill="none" stroke="#9eb4b3" cx="647.1396" cy="-325.9689" rx="4" ry="4"/>
<polygon fill="#9eb4b3" stroke="#9eb4b3" points="656.3689,-190.8236 656.496,-179.8585 654.3701,-186.2405 652.3712,-181.6575 652.3712,-181.6575 652.3712,-181.6575 654.3701,-186.2405 648.2464,-183.4564 656.3689,-190.8236 656.3689,-190.8236"/>
</g>
<!-- Tag&#45;&gt;ReferenceUserTag -->
<g id="edge58" class="edge">
<title>Tag&#45;&gt;ReferenceUserTag</title>
<path fill="none" stroke="#eb9817" d="M636.9977,-330.4707C567.433,-315.9223 413.5676,-283.7437 324.4321,-265.1024"/>
<polygon fill="#eb9817" stroke="#eb9817" points="637.1891,-330.5106 646.0561,-336.9625 642.0832,-331.5342 646.9773,-332.5578 646.9773,-332.5578 646.9773,-332.5578 642.0832,-331.5342 647.8985,-328.1531 637.1891,-330.5106 637.1891,-330.5106"/>
<polygon fill="#eb9817" stroke="#eb9817" points="324.2115,-265.0563 315.3445,-258.6045 319.3174,-264.0328 314.4233,-263.0092 314.4233,-263.0092 314.4233,-263.0092 319.3174,-264.0328 313.5021,-267.4139 324.2115,-265.0563 324.2115,-265.0563"/>
</g>
<!-- Tag&#45;&gt;ReferenceTagging -->
<g id="edge59" class="edge">
<title>Tag&#45;&gt;ReferenceTagging</title>
<path fill="none" stroke="#683a90" d="M643.223,-324.1473C639.4851,-322.6405 635.6818,-321.2154 632,-320 597.8042,-308.7113 578.5534,-327.3735 553,-302 547.0094,-296.0516 543.7853,-287.7128 542.1091,-279.4988"/>
<ellipse fill="none" stroke="#683a90" cx="647.0571" cy="-325.7619" rx="4" ry="4"/>
<polygon fill="#683a90" stroke="#683a90" points="542.0763,-279.2584 545.1806,-268.7411 541.3992,-274.3044 540.722,-269.3505 540.722,-269.3505 540.722,-269.3505 541.3992,-274.3044 536.2635,-269.9599 542.0763,-279.2584 542.0763,-279.2584"/>
</g>
<!-- ContributorSummary -->
<g id="node27" class="node">
<title>ContributorSummary</title>
<ellipse fill="none" stroke="#000000" cx="1870" cy="-91" rx="87.1846" ry="18"/>
<text text-anchor="middle" x="1870" y="-87.3" font-family="Times,serif" font-size="14.00" fill="#000000">ContributorSummary</text>
</g>
<!-- Question -->
<g id="node28" class="node">
<title>Question</title>
<ellipse fill="none" stroke="#000000" cx="1885" cy="-505" rx="42.4939" ry="18"/>
<text text-anchor="middle" x="1885" y="-501.3" font-family="Times,serif" font-size="14.00" fill="#000000">Question</text>
</g>
<!-- Comment&#45;&gt;GoPatch -->
<g id="edge67" class="edge">
<title>Comment&#45;&gt;GoPatch</title>
<path fill="none" stroke="#e86d0b" d="M909.3096,-153.1254C923.6242,-150.3172 939.3808,-147.6291 954,-146 1219.5936,-116.4032 1893.4793,-158.9883 2156,-109 2159.4581,-108.3415 2162.9962,-107.4794 2166.5135,-106.4891"/>
<ellipse fill="none" stroke="#e86d0b" cx="904.9888" cy="-153.9957" rx="4" ry="4"/>
<polygon fill="#e86d0b" stroke="#e86d0b" points="2166.7466,-106.416 2177.6353,-107.7145 2171.5171,-104.9185 2176.2876,-103.421 2176.2876,-103.421 2176.2876,-103.421 2171.5171,-104.9185 2174.9398,-99.1276 2166.7466,-106.416 2166.7466,-106.416"/>
</g>
<!-- Comment&#45;&gt;Notification -->
<g id="edge64" class="edge">
<title>Comment&#45;&gt;Notification</title>
<path fill="none" stroke="#5eabe9" d="M905.7844,-150.4906C910.9127,-148.9656 916.068,-147.4425 921,-146 969.0407,-131.9495 1023.9426,-116.3479 1062.8758,-105.361"/>
<ellipse fill="none" stroke="#5eabe9" cx="901.6171" cy="-151.7337" rx="4" ry="4"/>
<polygon fill="#5eabe9" stroke="#5eabe9" points="1063.2897,-105.2444 1074.1356,-106.8616 1068.102,-103.8874 1072.9144,-102.5305 1072.9144,-102.5305 1072.9144,-102.5305 1068.102,-103.8874 1071.6932,-98.1994 1063.2897,-105.2444 1063.2897,-105.2444"/>
</g>
<!-- Comment&#45;&gt;CommentJoin -->
<g id="edge66" class="edge">
<title>Comment&#45;&gt;CommentJoin</title>
<path fill="none" stroke="#1a7925" d="M840.4069,-140.9708C834.8518,-135.7913 828.5516,-130.7308 822,-127 815.441,-123.265 781.9991,-113.8402 751.0802,-105.571"/>
<ellipse fill="none" stroke="#1a7925" cx="843.2651" cy="-143.7778" rx="4" ry="4"/>
<polygon fill="#1a7925" stroke="#1a7925" points="750.8318,-105.505 742.3239,-98.5865 745.9997,-104.2202 741.1676,-102.9354 741.1676,-102.9354 741.1676,-102.9354 745.9997,-104.2202 740.0113,-107.2844 750.8318,-105.505 750.8318,-105.505"/>
</g>
<!-- Comment&#45;&gt;Vote -->
<g id="edge62" class="edge">
<title>Comment&#45;&gt;Vote</title>
<path fill="none" stroke="#1d658a" d="M809.5501,-156.4967C784.1417,-152.9683 753.0028,-148.9081 725,-146 507.7705,-123.441 451.5712,-137.187 235,-109 214.8873,-106.3823 192.6264,-102.3349 174.5083,-98.7405"/>
<ellipse fill="none" stroke="#1d658a" cx="813.6256" cy="-157.067" rx="4" ry="4"/>
<polygon fill="#1d658a" stroke="#1d658a" points="174.4407,-98.7269 165.5298,-92.3358 169.5397,-97.7368 164.6387,-96.7467 164.6387,-96.7467 164.6387,-96.7467 169.5397,-97.7368 163.7476,-101.1576 174.4407,-98.7269 174.4407,-98.7269"/>
</g>
<!-- Comment&#45;&gt;PatchMessage -->
<g id="edge68" class="edge">
<title>Comment&#45;&gt;PatchMessage</title>
<path fill="none" stroke="#14cee2" d="M892.0985,-144.3901C928.7393,-122.45 992.2184,-88.0181 1052,-73 1156.4659,-46.7564 1898.1157,-25.8304 2134.0908,-19.7754"/>
<ellipse fill="none" stroke="#14cee2" cx="888.5596" cy="-146.5314" rx="4" ry="4"/>
<polygon fill="#14cee2" stroke="#14cee2" points="2134.2792,-19.7707 2144.3909,-24.0138 2139.2776,-19.643 2144.2759,-19.5153 2144.2759,-19.5153 2144.2759,-19.5153 2139.2776,-19.643 2144.161,-15.0167 2134.2792,-19.7707 2134.2792,-19.7707"/>
</g>
<!-- Comment&#45;&gt;NotificationSelection -->
<g id="edge65" class="edge">
<title>Comment&#45;&gt;NotificationSelection</title>
<path fill="none" stroke="#831071" d="M909.3157,-153.179C923.6304,-150.3721 939.3855,-147.6713 954,-146 1401.1638,-94.8626 1518.7366,-159.2585 1966,-109 1974.0052,-108.1005 1982.3473,-106.9057 1990.6189,-105.5579"/>
<ellipse fill="none" stroke="#831071" cx="904.9948" cy="-154.0481" rx="4" ry="4"/>
<polygon fill="#831071" stroke="#831071" points="1990.7883,-105.5291 2001.4026,-108.2836 1995.7171,-104.6884 2000.6459,-103.8477 2000.6459,-103.8477 2000.6459,-103.8477 1995.7171,-104.6884 1999.8893,-99.4117 1990.7883,-105.5291 1990.7883,-105.5291"/>
</g>
<!-- ContributorComment -->
<g id="node36" class="node">
<title>ContributorComment</title>
<ellipse fill="none" stroke="#000000" cx="861" cy="-91" rx="87.1846" ry="18"/>
<text text-anchor="middle" x="861" y="-87.3" font-family="Times,serif" font-size="14.00" fill="#000000">ContributorComment</text>
</g>
<!-- Comment&#45;&gt;ContributorComment -->
<g id="edge69" class="edge">
<title>Comment&#45;&gt;ContributorComment</title>
<path fill="none" stroke="#83e69a" d="M861,-137.9079C861,-131.9427 861,-125.5729 861,-119.512"/>
<ellipse fill="none" stroke="#83e69a" cx="861" cy="-141.9551" rx="4" ry="4"/>
<polygon fill="#83e69a" stroke="#83e69a" points="861.0001,-119.0904 865.5,-109.0903 861,-114.0904 861,-109.0904 861,-109.0904 861,-109.0904 861,-114.0904 856.5,-109.0904 861.0001,-119.0904 861.0001,-119.0904"/>
</g>
<!-- Comment&#45;&gt;Link -->
<g id="edge63" class="edge">
<title>Comment&#45;&gt;Link</title>
<path fill="none" stroke="#856b03" d="M811.6697,-154.2398C796.1337,-151.3542 778.8846,-148.3437 763,-146 674.9107,-133.0029 407.1122,-105.015 308.2154,-94.8169"/>
<ellipse fill="none" stroke="#856b03" cx="815.6903" cy="-154.9949" rx="4" ry="4"/>
<polygon fill="#856b03" stroke="#856b03" points="308.0418,-94.7991 298.5555,-89.2983 303.0682,-94.2868 298.0945,-93.7746 298.0945,-93.7746 298.0945,-93.7746 303.0682,-94.2868 297.6334,-98.2509 308.0418,-94.7991 308.0418,-94.7991"/>
</g>
<!-- ApplicationRecord -->
<g id="node30" class="node">
<title>ApplicationRecord</title>
<ellipse fill="none" stroke="#000000" cx="2023" cy="-505" rx="77.1866" ry="18"/>
<text text-anchor="middle" x="2023" y="-501.3" font-family="Times,serif" font-size="14.00" fill="#000000">ApplicationRecord</text>
</g>
<!-- Timeline&#45;&gt;Notification -->
<g id="edge86" class="edge">
<title>Timeline&#45;&gt;Notification</title>
<path fill="none" stroke="#a2398c" d="M1173.2447,-224.9092C1173.8331,-216.1403 1172.6078,-206.8555 1167,-200 1141.4482,-168.7631 1103.5518,-213.2369 1078,-182 1062.281,-162.7836 1076.2361,-135.8556 1091.1108,-116.2806"/>
<ellipse fill="none" stroke="#a2398c" cx="1172.7129" cy="-229.0942" rx="4" ry="4"/>
<polygon fill="#a2398c" stroke="#a2398c" points="1091.1924,-116.1791 1100.9653,-111.205 1094.3253,-112.2822 1097.4581,-108.3854 1097.4581,-108.3854 1097.4581,-108.3854 1094.3253,-112.2822 1093.951,-105.5658 1091.1924,-116.1791 1091.1924,-116.1791"/>
</g>
<!-- Timeline&#45;&gt;Edge -->
<g id="edge79" class="edge">
<title>Timeline&#45;&gt;Edge</title>
<path fill="none" stroke="#96c002" d="M1217.5488,-246.7752C1281.6183,-241.1053 1395.3622,-229.9869 1492,-215 1525.5919,-209.7905 1533.5459,-206.0314 1567,-200 1616.6166,-191.0546 1630.8481,-196.9407 1679,-182 1681.1526,-181.3321 1683.3387,-180.5635 1685.519,-179.7281"/>
<ellipse fill="none" stroke="#96c002" cx="1213.2102" cy="-247.156" rx="4" ry="4"/>
<polygon fill="#96c002" stroke="#96c002" points="1685.7106,-179.6469 1696.6739,-179.8874 1690.3142,-177.6956 1694.9177,-175.7442 1694.9177,-175.7442 1694.9177,-175.7442 1690.3142,-177.6956 1693.1614,-171.601 1685.7106,-179.6469 1685.7106,-179.6469"/>
</g>
<!-- Timeline&#45;&gt;Edge -->
<g id="edge80" class="edge">
<title>Timeline&#45;&gt;Edge</title>
<path fill="none" stroke="#1550c4" d="M1216.5414,-244.8777C1259.8069,-238.9888 1324.0968,-228.9244 1379,-215 1399.0267,-209.9209 1402.7486,-204.092 1423,-200 1534.7992,-177.4099 1568.6667,-210.9126 1679,-182 1681.3237,-181.3911 1683.6778,-180.6413 1686.0163,-179.7969"/>
<ellipse fill="none" stroke="#1550c4" cx="1212.4107" cy="-245.432" rx="4" ry="4"/>
<polygon fill="#1550c4" stroke="#1550c4" points="1686.1795,-179.7296 1697.1401,-180.071 1690.8008,-177.8207 1695.4221,-175.9118 1695.4221,-175.9118 1695.4221,-175.9118 1690.8008,-177.8207 1693.7041,-171.7526 1686.1795,-179.7296 1686.1795,-179.7296"/>
<text text-anchor="middle" x="1455.5" y="-203.8" font-family="Times,serif" font-size="14.00" fill="#000000">edges_from</text>
</g>
<!-- Timeline&#45;&gt;Vote -->
<g id="edge78" class="edge">
<title>Timeline&#45;&gt;Vote</title>
<path fill="none" stroke="#0840f3" d="M1117.8953,-244.4942C1067.2379,-237.6568 985.9789,-226.338 916,-215 878.9961,-209.0046 869.9335,-206.4149 833,-200 785.0557,-191.6727 767.7748,-205.2016 725,-182 705.9208,-171.6512 711.56,-155.4084 692,-146 638.8088,-120.4149 485.8203,-132.9069 427,-128 341.5467,-120.8714 319.8984,-121.0557 235,-109 214.9191,-106.1485 192.6606,-102.0835 174.5359,-98.5379"/>
<ellipse fill="none" stroke="#0840f3" cx="1122.0996" cy="-245.0601" rx="4" ry="4"/>
<polygon fill="#0840f3" stroke="#0840f3" points="174.4703,-98.525 165.5377,-92.1642 169.566,-97.5515 164.6616,-96.5781 164.6616,-96.5781 164.6616,-96.5781 169.566,-97.5515 163.7856,-100.992 174.4703,-98.525 174.4703,-98.525"/>
</g>
<!-- Timeline&#45;&gt;Rating -->
<g id="edge73" class="edge">
<title>Timeline&#45;&gt;Rating</title>
<path fill="none" stroke="#7cfb0c" d="M1115.9027,-249.8343C1014.5892,-246.4396 781.8122,-233.2244 594,-182 590.3508,-181.0047 586.5903,-179.8438 582.856,-178.5996"/>
<ellipse fill="none" stroke="#7cfb0c" cx="1120.1336" cy="-249.9698" rx="4" ry="4"/>
<polygon fill="#7cfb0c" stroke="#7cfb0c" points="582.5578,-178.4945 574.6237,-170.9248 577.8424,-176.8316 573.127,-175.1686 573.127,-175.1686 573.127,-175.1686 577.8424,-176.8316 571.6304,-179.4125 582.5578,-178.4945 582.5578,-178.4945"/>
</g>
<!-- Timeline&#45;&gt;Reference -->
<g id="edge71" class="edge">
<title>Timeline&#45;&gt;Reference</title>
<path fill="none" stroke="#25591e" d="M1129.2818,-267.345C1099.8021,-280.5297 1058.0826,-300.0976 1023,-320 984.5095,-341.8358 980.1723,-356.4391 940,-375 916.5163,-385.8502 889.0213,-394.1982 865.8067,-400.1109"/>
<ellipse fill="none" stroke="#25591e" cx="1133.2231" cy="-265.5927" rx="4" ry="4"/>
<polygon fill="#25591e" stroke="#25591e" points="865.5179,-400.1821 854.7313,-398.2069 860.6633,-401.3791 855.8087,-402.5761 855.8087,-402.5761 855.8087,-402.5761 860.6633,-401.3791 856.886,-406.9452 865.5179,-400.1821 865.5179,-400.1821"/>
</g>
<!-- Timeline&#45;&gt;SummaryLink -->
<g id="edge77" class="edge">
<title>Timeline&#45;&gt;SummaryLink</title>
<path fill="none" stroke="#3fa366" d="M1117.183,-244.7485C1081.3523,-239.3117 1032.275,-229.9164 991,-215 977.7228,-210.2017 976.4746,-204.2122 963,-200 895.9642,-179.0443 870.5368,-209.7117 806,-182 783.0975,-172.1658 785.3005,-157.132 763,-146 733.1107,-131.0798 649.4815,-113.5048 590.2917,-102.3108"/>
<ellipse fill="none" stroke="#3fa366" cx="1121.5771" cy="-245.3968" rx="4" ry="4"/>
<polygon fill="#3fa366" stroke="#3fa366" points="590.1083,-102.2766 581.1087,-96.011 585.1939,-101.3552 580.2795,-100.4339 580.2795,-100.4339 580.2795,-100.4339 585.1939,-101.3552 579.4504,-104.8569 590.1083,-102.2766 590.1083,-102.2766"/>
</g>
<!-- Timeline&#45;&gt;PrivateTimeline -->
<g id="edge89" class="edge">
<title>Timeline&#45;&gt;PrivateTimeline</title>
<path fill="none" stroke="#1cd34e" d="M1210.461,-237.8835C1222.8867,-232.4273 1235.5944,-224.9744 1245,-215 1251.0304,-208.6049 1255.3133,-200.1802 1258.3246,-192.0248"/>
<ellipse fill="none" stroke="#1cd34e" cx="1206.4937" cy="-239.51" rx="4" ry="4"/>
<polygon fill="#1cd34e" stroke="#1cd34e" points="1258.3661,-191.8942 1265.6869,-183.7299 1259.8825,-187.1296 1261.3989,-182.3651 1261.3989,-182.3651 1261.3989,-182.3651 1259.8825,-187.1296 1257.1108,-181.0004 1258.3661,-191.8942 1258.3661,-191.8942"/>
</g>
<!-- Timeline&#45;&gt;Comment -->
<g id="edge74" class="edge">
<title>Timeline&#45;&gt;Comment</title>
<path fill="none" stroke="#f55a79" d="M1123.4182,-238.7005C1099.1352,-231.8092 1068.3643,-223.0134 1041,-215 1018.7344,-208.4797 1013.292,-206.4296 991,-200 963.9058,-192.1853 933.5392,-183.7576 908.9726,-177.0224"/>
<ellipse fill="none" stroke="#f55a79" cx="1127.542" cy="-239.8696" rx="4" ry="4"/>
<polygon fill="#f55a79" stroke="#f55a79" points="908.8179,-176.9802 900.3601,-170.0005 903.9952,-175.6606 899.1724,-174.341 899.1724,-174.341 899.1724,-174.341 903.9952,-175.6606 897.9848,-178.6814 908.8179,-176.9802 908.8179,-176.9802"/>
</g>
<!-- Timeline&#45;&gt;ReferenceEdge -->
<g id="edge82" class="edge">
<title>Timeline&#45;&gt;ReferenceEdge</title>
<path fill="none" stroke="#b72b82" d="M1211.4142,-239.5448C1220.5201,-237.2953 1230.0551,-235.0114 1239,-233 1343.8127,-209.4312 1466.704,-187.4642 1540.355,-174.9003"/>
<ellipse fill="none" stroke="#b72b82" cx="1207.4293" cy="-240.5378" rx="4" ry="4"/>
<polygon fill="#b72b82" stroke="#b72b82" points="1540.555,-174.8664 1551.1677,-177.6271 1545.4844,-174.0285 1550.4137,-173.1907 1550.4137,-173.1907 1550.4137,-173.1907 1545.4844,-174.0285 1549.6596,-168.7543 1540.555,-174.8664 1540.555,-174.8664"/>
</g>
<!-- Timeline&#45;&gt;Tagging -->
<g id="edge85" class="edge">
<title>Timeline&#45;&gt;Tagging</title>
<path fill="none" stroke="#0eb20e" d="M1116.5483,-246.9076C1029.7877,-239.1374 847.1687,-219.5648 697,-182 692.8478,-180.9613 688.5548,-179.7588 684.2876,-178.4777"/>
<ellipse fill="none" stroke="#0eb20e" cx="1120.6564" cy="-247.2707" rx="4" ry="4"/>
<polygon fill="#0eb20e" stroke="#0eb20e" points="683.9952,-178.3859 675.8058,-171.0931 679.2255,-176.8859 674.4558,-175.3859 674.4558,-175.3859 674.4558,-175.3859 679.2255,-176.8859 673.1058,-179.6786 683.9952,-178.3859 683.9952,-178.3859"/>
</g>
<!-- Timeline&#45;&gt;Summary -->
<g id="edge72" class="edge">
<title>Timeline&#45;&gt;Summary</title>
<path fill="none" stroke="#a206f2" d="M1217.6816,-247.897C1290.2588,-243.0601 1427.8614,-232.4256 1544,-215 1576.7556,-210.0853 1584.334,-205.479 1617,-200 1678.0008,-189.7685 1693.6944,-190.2099 1755,-182 1780.3703,-178.6025 1808.4915,-174.7499 1832.1546,-171.4832"/>
<ellipse fill="none" stroke="#a206f2" cx="1213.5764" cy="-248.1675" rx="4" ry="4"/>
<polygon fill="#a206f2" stroke="#a206f2" points="1832.4377,-171.4441 1842.9597,-174.5324 1837.3906,-170.7594 1842.3435,-170.0748 1842.3435,-170.0748 1842.3435,-170.0748 1837.3906,-170.7594 1841.7273,-165.6171 1832.4377,-171.4441 1832.4377,-171.4441"/>
</g>
<!-- Timeline&#45;&gt;Figure -->
<g id="edge87" class="edge">
<title>Timeline&#45;&gt;Figure</title>
<path fill="none" stroke="#0f08b5" d="M1122.7519,-238.3588C1104.6455,-232.3942 1083.8095,-224.4869 1066,-215 1050.8314,-206.9199 1035.3203,-195.764 1022.8564,-185.946"/>
<ellipse fill="none" stroke="#0f08b5" cx="1127.0497" cy="-239.7385" rx="4" ry="4"/>
<polygon fill="#0f08b5" stroke="#0f08b5" points="1022.5418,-185.6924 1017.58,-175.9133 1018.6489,-182.5547 1014.756,-179.4169 1014.756,-179.4169 1014.756,-179.4169 1018.6489,-182.5547 1011.932,-182.9205 1022.5418,-185.6924 1022.5418,-185.6924"/>
</g>
<!-- Timeline&#45;&gt;Figure -->
<g id="edge88" class="edge">
<title>Timeline&#45;&gt;Figure</title>
<path fill="none" stroke="#53ce9f" d="M1128.3043,-235.2999C1114.7022,-229.3908 1099.4601,-222.3195 1086,-215 1075.2786,-209.1698 1073.4761,-206.2601 1063,-200 1052.5146,-193.7343 1040.8751,-187.2386 1030.3267,-181.5185"/>
<ellipse fill="none" stroke="#53ce9f" cx="1131.9941" cy="-236.8815" rx="4" ry="4"/>
<polygon fill="#53ce9f" stroke="#53ce9f" points="1030.2021,-181.4515 1023.5249,-172.753 1025.7981,-179.084 1021.3941,-176.7166 1021.3941,-176.7166 1021.3941,-176.7166 1025.7981,-179.084 1019.2634,-180.6801 1030.2021,-181.4515 1030.2021,-181.4515"/>
<text text-anchor="middle" x="1126.5" y="-203.8" font-family="Times,serif" font-size="14.00" fill="#000000">header_figures</text>
</g>
<!-- Timeline&#45;&gt;Frame -->
<g id="edge84" class="edge">
<title>Timeline&#45;&gt;Frame</title>
<path fill="none" stroke="#debfef" d="M1217.9864,-247.964C1315.641,-242.0876 1535.8258,-228.5411 1721,-215 1901.5574,-201.7965 1946.6906,-198.243 2127,-182 2174.3467,-177.7348 2228.5645,-172.3018 2265.4217,-168.5258"/>
<ellipse fill="none" stroke="#debfef" cx="1213.7567" cy="-248.2181" rx="4" ry="4"/>
<polygon fill="#debfef" stroke="#debfef" points="2265.8581,-168.481 2276.2657,-171.9352 2270.8319,-167.9699 2275.8057,-167.4587 2275.8057,-167.4587 2275.8057,-167.4587 2270.8319,-167.9699 2275.3456,-162.9823 2265.8581,-168.481 2265.8581,-168.481"/>
</g>
<!-- Timeline&#45;&gt;Like -->
<g id="edge75" class="edge">
<title>Timeline&#45;&gt;Like</title>
<path fill="none" stroke="#1805a1" d="M1188.6265,-227.8517C1194.3657,-218.9044 1197.5902,-208.7369 1192,-200 1191.2823,-198.8783 1167.0754,-187.7976 1145.8188,-178.2224"/>
<ellipse fill="none" stroke="#1805a1" cx="1186.2057" cy="-231.1779" rx="4" ry="4"/>
<polygon fill="#1805a1" stroke="#1805a1" points="1145.7829,-178.2063 1138.5059,-170.0029 1141.2222,-176.1569 1136.6615,-174.1076 1136.6615,-174.1076 1136.6615,-174.1076 1141.2222,-176.1569 1134.817,-178.2122 1145.7829,-178.2063 1145.7829,-178.2063"/>
</g>
<!-- Timeline&#45;&gt;Link -->
<g id="edge76" class="edge">
<title>Timeline&#45;&gt;Link</title>
<path fill="none" stroke="#eba1ef" d="M1118.3744,-243.8862C1077.4655,-237.5211 1017.5616,-227.3092 966,-215 943.4335,-209.6128 938.7183,-204.7066 916,-200 848.9547,-186.11 825.0131,-211.0238 763,-182 741.9291,-172.1383 746.0538,-155.898 725,-146 706.1574,-137.1415 413.2923,-105.8644 308.1885,-94.8626"/>
<ellipse fill="none" stroke="#eba1ef" cx="1122.3415" cy="-244.4978" rx="4" ry="4"/>
<polygon fill="#eba1ef" stroke="#eba1ef" points="307.9886,-94.8418 298.5104,-89.3269 303.0157,-94.3222 298.0427,-93.8025 298.0427,-93.8025 298.0427,-93.8025 303.0157,-94.3222 297.5751,-98.2782 307.9886,-94.8418 307.9886,-94.8418"/>
</g>
<!-- Timeline&#45;&gt;ReferenceEdgeVote -->
<g id="edge83" class="edge">
<title>Timeline&#45;&gt;ReferenceEdgeVote</title>
<path fill="none" stroke="#e788e8" d="M1197.2479,-230.0738C1201.6124,-225.632 1205.4752,-220.5767 1208,-215 1210.7495,-208.9267 1210.7123,-206.09 1208,-200 1203.1347,-189.0757 1192.8653,-192.9243 1188,-182 1181.4906,-167.384 1178.2541,-158.6893 1188,-146 1203.6951,-125.5646 1263.2427,-111.0898 1314.305,-102.1362"/>
<ellipse fill="none" stroke="#e788e8" cx="1194.0128" cy="-233.039" rx="4" ry="4"/>
<polygon fill="#e788e8" stroke="#e788e8" points="1314.5308,-102.0979 1325.1444,-104.8551 1319.4598,-101.2584 1324.3889,-100.419 1324.3889,-100.419 1324.3889,-100.419 1319.4598,-101.2584 1323.6334,-95.9828 1314.5308,-102.0979 1314.5308,-102.0979"/>
</g>
<!-- Timeline&#45;&gt;TimelineContributor -->
<g id="edge70" class="edge">
<title>Timeline&#45;&gt;TimelineContributor</title>
<path fill="none" stroke="#4dc055" d="M1217.7773,-247.1979C1366.6339,-235.937 1800.2843,-202.2802 1941,-182 1948.3566,-180.9398 1956.0142,-179.6929 1963.6374,-178.3582"/>
<ellipse fill="none" stroke="#4dc055" cx="1213.6326" cy="-247.511" rx="4" ry="4"/>
<polygon fill="#4dc055" stroke="#4dc055" points="1963.7691,-178.3346 1974.4086,-180.9903 1968.6899,-177.4481 1973.6107,-176.5615 1973.6107,-176.5615 1973.6107,-176.5615 1968.6899,-177.4481 1972.8129,-172.1328 1963.7691,-178.3346 1963.7691,-178.3346"/>
</g>
<!-- Timeline&#45;&gt;TimelineChoice -->
<g id="edge81" class="edge">
<title>Timeline&#45;&gt;TimelineChoice</title>
<path fill="none" stroke="#0c02e9" d="M1208.103,-236.7531C1251.5285,-221.7013 1320.0779,-197.9411 1366.9412,-181.6977"/>
<ellipse fill="none" stroke="#0c02e9" cx="1204.1103" cy="-238.137" rx="4" ry="4"/>
<polygon fill="#0c02e9" stroke="#0c02e9" points="1367.1468,-181.6265 1378.0691,-182.6033 1371.8711,-179.9889 1376.5953,-178.3514 1376.5953,-178.3514 1376.5953,-178.3514 1371.8711,-179.9889 1375.1215,-174.0996 1367.1468,-181.6265 1367.1468,-181.6265"/>
</g>
<!-- ReferenceEdge&#45;&gt;ReferenceEdgeVote -->
<g id="edge90" class="edge">
<title>ReferenceEdge&#45;&gt;ReferenceEdgeVote</title>
<path fill="none" stroke="#b200e4" d="M1557.1965,-147.195C1524.4873,-135.9319 1481.4059,-121.0973 1447.7209,-109.4982"/>
<ellipse fill="none" stroke="#b200e4" cx="1561.3422" cy="-148.6225" rx="4" ry="4"/>
<polygon fill="#b200e4" stroke="#b200e4" points="1447.4943,-109.4203 1439.5043,-101.9096 1442.7667,-107.7924 1438.0392,-106.1644 1438.0392,-106.1644 1438.0392,-106.1644 1442.7667,-107.7924 1436.574,-110.4192 1447.4943,-109.4203 1447.4943,-109.4203"/>
</g>
<!-- ContributorFrame -->
<g id="node35" class="node">
<title>ContributorFrame</title>
<ellipse fill="none" stroke="#000000" cx="2378" cy="-91" rx="74.9875" ry="18"/>
<text text-anchor="middle" x="2378" y="-87.3" font-family="Times,serif" font-size="14.00" fill="#000000">ContributorFrame</text>
</g>
<!-- Newsletter -->
<g id="node37" class="node">
<title>Newsletter</title>
<ellipse fill="none" stroke="#000000" cx="2167" cy="-505" rx="48.9926" ry="18"/>
<text text-anchor="middle" x="2167" y="-501.3" font-family="Times,serif" font-size="14.00" fill="#000000">Newsletter</text>
</g>
<!-- Summary&#45;&gt;GoPatch -->
<g id="edge96" class="edge">
<title>Summary&#45;&gt;GoPatch</title>
<path fill="none" stroke="#65bb75" d="M1928.1205,-149.526C1932.4458,-148.2471 1936.7949,-147.044 1941,-146 2035.1033,-122.6365 2062.2487,-133.7382 2156,-109 2159.1668,-108.1644 2162.4168,-107.2144 2165.6661,-106.1978"/>
<ellipse fill="none" stroke="#65bb75" cx="1924.2216" cy="-150.7204" rx="4" ry="4"/>
<polygon fill="#65bb75" stroke="#65bb75" points="2165.8351,-106.1418 2176.7431,-107.2675 2170.5813,-104.5689 2175.3275,-102.996 2175.3275,-102.996 2175.3275,-102.996 2170.5813,-104.5689 2173.9119,-98.7244 2165.8351,-106.1418 2165.8351,-106.1418"/>
</g>
<!-- Summary&#45;&gt;Notification -->
<g id="edge94" class="edge">
<title>Summary&#45;&gt;Notification</title>
<path fill="none" stroke="#65a473" d="M1834.7212,-156.2926C1810.5712,-152.8325 1781.3455,-148.8885 1755,-146 1555.0801,-124.0809 1504.3369,-126.7067 1304,-109 1261.0095,-105.2003 1212.579,-100.6073 1175.3737,-97.012"/>
<ellipse fill="none" stroke="#65a473" cx="1838.7461" cy="-156.8736" rx="4" ry="4"/>
<polygon fill="#65a473" stroke="#65a473" points="1175.1448,-96.9899 1165.6252,-91.5468 1170.1681,-96.5079 1165.1914,-96.0259 1165.1914,-96.0259 1165.1914,-96.0259 1170.1681,-96.5079 1164.7576,-100.5049 1175.1448,-96.9899 1175.1448,-96.9899"/>
</g>
<!-- Summary&#45;&gt;SummaryLink -->
<g id="edge92" class="edge">
<title>Summary&#45;&gt;SummaryLink</title>
<path fill="none" stroke="#34c12e" d="M1835.3407,-155.7903C1811.0955,-152.1816 1781.614,-148.258 1755,-146 1254.3075,-103.5196 1124.6074,-162.7591 625,-109 612.8396,-107.6915 599.921,-105.7328 587.5906,-103.5828"/>
<ellipse fill="none" stroke="#34c12e" cx="1839.3954" cy="-156.4022" rx="4" ry="4"/>
<polygon fill="#34c12e" stroke="#34c12e" points="587.2417,-103.5199 578.201,-97.3136 582.3213,-102.6309 577.401,-101.7419 577.401,-101.7419 577.401,-101.7419 582.3213,-102.6309 576.6009,-106.1702 587.2417,-103.5199 587.2417,-103.5199"/>
</g>
<!-- Summary&#45;&gt;SummaryBest -->
<g id="edge93" class="edge">
<title>Summary&#45;&gt;SummaryBest</title>
<path fill="none" stroke="#9cf3db" d="M1857.8204,-143.3457C1848.9162,-137.4768 1838.829,-131.4725 1829,-127 1815.9871,-121.0787 1785.3814,-112.2944 1757.5939,-104.8854"/>
<ellipse fill="none" stroke="#9cf3db" cx="1861.3683" cy="-145.7485" rx="4" ry="4"/>
<ellipse fill="#9cf3db" stroke="#9cf3db" cx="1753.715" cy="-103.859" rx="4" ry="4"/>
</g>
<!-- Summary&#45;&gt;Credit -->
<g id="edge91" class="edge">
<title>Summary&#45;&gt;Credit</title>
<path fill="none" stroke="#14b655" d="M1927.6459,-149.1934C1932.1141,-147.9589 1936.6249,-146.8577 1941,-146 2054.9011,-123.67 2349.321,-136.8485 2462,-109 2464.4433,-108.3962 2466.9243,-107.6572 2469.3944,-106.8268"/>
<ellipse fill="none" stroke="#14b655" cx="1923.5251" cy="-150.4063" rx="4" ry="4"/>
<polygon fill="#14b655" stroke="#14b655" points="2469.4175,-106.8181 2480.364,-107.4709 2474.0912,-105.0414 2478.7649,-103.2646 2478.7649,-103.2646 2478.7649,-103.2646 2474.0912,-105.0414 2477.1658,-99.0583 2469.4175,-106.8181 2469.4175,-106.8181"/>
</g>
<!-- Summary&#45;&gt;PatchMessage -->
<g id="edge97" class="edge">
<title>Summary&#45;&gt;PatchMessage</title>
<path fill="none" stroke="#2052f3" d="M1846.5676,-147.6342C1827.3851,-140.2794 1803.8088,-132.1206 1782,-127 1749.3163,-119.3261 1654.2803,-134.1138 1632,-109 1621.3816,-97.0313 1621.2394,-84.841 1632,-73 1665.1623,-36.5082 1987.2647,-23.6088 2133.9196,-19.602"/>
<ellipse fill="none" stroke="#2052f3" cx="1850.5027" cy="-149.1667" rx="4" ry="4"/>
<polygon fill="#2052f3" stroke="#2052f3" points="2134.1727,-19.5953 2144.2891,-23.8271 2139.1709,-19.462 2144.1691,-19.3287 2144.1691,-19.3287 2144.1691,-19.3287 2139.1709,-19.462 2144.0491,-14.8303 2134.1727,-19.5953 2134.1727,-19.5953"/>
</g>
<!-- Summary&#45;&gt;ContributorSummary -->
<g id="edge98" class="edge">
<title>Summary&#45;&gt;ContributorSummary</title>
<path fill="none" stroke="#8b8e08" d="M1880.2812,-137.9079C1878.9411,-131.7936 1877.5078,-125.2541 1876.1497,-119.058"/>
<ellipse fill="none" stroke="#8b8e08" cx="1881.1885" cy="-142.0478" rx="4" ry="4"/>
<polygon fill="#8b8e08" stroke="#8b8e08" points="1876.106,-118.8585 1878.3607,-108.1269 1875.0355,-113.9744 1873.965,-109.0904 1873.965,-109.0904 1873.965,-109.0904 1875.0355,-113.9744 1869.5694,-110.0538 1876.106,-118.8585 1876.106,-118.8585"/>
</g>
<!-- Summary&#45;&gt;NotificationSelection -->
<g id="edge95" class="edge">
<title>Summary&#45;&gt;NotificationSelection</title>
<path fill="none" stroke="#18f228" d="M1925.1901,-147.6521C1951.0823,-136.8514 1985.1948,-122.6216 2012.7538,-111.1255"/>
<ellipse fill="none" stroke="#18f228" cx="1921.3829" cy="-149.2403" rx="4" ry="4"/>
<polygon fill="#18f228" stroke="#18f228" points="2012.975,-111.0333 2023.9367,-111.3365 2017.5896,-109.1083 2022.2042,-107.1834 2022.2042,-107.1834 2022.2042,-107.1834 2017.5896,-109.1083 2020.4718,-103.0302 2012.975,-111.0333 2012.975,-111.0333"/>
</g>
<!-- Frame&#45;&gt;GoPatch -->
<g id="edge102" class="edge">
<title>Frame&#45;&gt;GoPatch</title>
<path fill="none" stroke="#99e467" d="M2281.7205,-144.666C2267.7407,-134.758 2250.6776,-122.6647 2236.2904,-112.4679"/>
<ellipse fill="none" stroke="#99e467" cx="2285.387" cy="-147.2646" rx="4" ry="4"/>
<polygon fill="#99e467" stroke="#99e467" points="2235.8883,-112.183 2230.3317,-102.7292 2231.8089,-109.2918 2227.7296,-106.4006 2227.7296,-106.4006 2227.7296,-106.4006 2231.8089,-109.2918 2225.1275,-110.072 2235.8883,-112.183 2235.8883,-112.183"/>
</g>
<!-- Frame&#45;&gt;Notification -->
<g id="edge100" class="edge">
<title>Frame&#45;&gt;Notification</title>
<path fill="none" stroke="#67e97e" d="M2267.8047,-159.2893C2230.9517,-155.227 2175.4336,-149.4813 2127,-146 1761.7949,-119.7501 1669.2584,-134.4965 1304,-109 1260.9467,-105.9947 1212.5172,-101.3877 1175.3282,-97.587"/>
<ellipse fill="none" stroke="#67e97e" cx="2271.8593" cy="-159.7392" rx="4" ry="4"/>
<polygon fill="#67e97e" stroke="#67e97e" points="1175.0982,-97.5634 1165.6121,-92.0621 1170.1245,-97.0509 1165.1509,-96.5384 1165.1509,-96.5384 1165.1509,-96.5384 1170.1245,-97.0509 1164.6896,-101.0147 1175.0982,-97.5634 1175.0982,-97.5634"/>
</g>
<!-- Frame&#45;&gt;PatchMessage -->
<g id="edge104" class="edge">
<title>Frame&#45;&gt;PatchMessage</title>
<path fill="none" stroke="#225b1c" d="M2296.2768,-138.9829C2286.2867,-120.1901 2271.5118,-94.159 2256,-73 2248.3702,-62.5926 2239.0718,-51.9236 2230.5726,-42.7855"/>
<ellipse fill="none" stroke="#225b1c" cx="2298.3944" cy="-143.0167" rx="4" ry="4"/>
<polygon fill="#225b1c" stroke="#225b1c" points="2230.5548,-42.7667 2226.9414,-32.4132 2227.1151,-39.1378 2223.6754,-35.5089 2223.6754,-35.5089 2223.6754,-35.5089 2227.1151,-39.1378 2220.4094,-38.6046 2230.5548,-42.7667 2230.5548,-42.7667"/>
</g>
<!-- Frame&#45;&gt;NotificationSelection -->
<g id="edge101" class="edge">
<title>Frame&#45;&gt;NotificationSelection</title>
<path fill="none" stroke="#d7abf2" d="M2271.1632,-152.8625C2231.2171,-141.1042 2167.6785,-122.4013 2120.912,-108.6354"/>
<ellipse fill="none" stroke="#d7abf2" cx="2275.2482" cy="-154.065" rx="4" ry="4"/>
<polygon fill="#d7abf2" stroke="#d7abf2" points="2120.7947,-108.6009 2112.4724,-101.4602 2115.9982,-107.189 2111.2017,-105.7771 2111.2017,-105.7771 2111.2017,-105.7771 2115.9982,-107.189 2109.9309,-110.094 2120.7947,-108.6009 2120.7947,-108.6009"/>
</g>
<!-- Frame&#45;&gt;ContributorFrame -->
<g id="edge105" class="edge">
<title>Frame&#45;&gt;ContributorFrame</title>
<path fill="none" stroke="#5b982a" d="M2329.9804,-141.8033C2337.6637,-133.6746 2346.4098,-124.4215 2354.3135,-116.0597"/>
<ellipse fill="none" stroke="#5b982a" cx="2327.061" cy="-144.892" rx="4" ry="4"/>
<polygon fill="#5b982a" stroke="#5b982a" points="2354.4113,-115.9561 2364.5508,-111.7799 2357.8459,-112.3224 2361.2805,-108.6887 2361.2805,-108.6887 2361.2805,-108.6887 2357.8459,-112.3224 2358.0102,-105.5976 2354.4113,-115.9561 2354.4113,-115.9561"/>
</g>
<!-- Frame&#45;&gt;FrameCredit -->
<g id="edge99" class="edge">
<title>Frame&#45;&gt;FrameCredit</title>
<path fill="none" stroke="#1d53ed" d="M2350.4226,-158.292C2411.9806,-149.5013 2531.0885,-131.3069 2631,-109 2635.4266,-108.0117 2640.0017,-106.9104 2644.5791,-105.7529"/>
<ellipse fill="none" stroke="#1d53ed" cx="2346.0867" cy="-158.9073" rx="4" ry="4"/>
<polygon fill="#1d53ed" stroke="#1d53ed" points="2644.8708,-105.6768 2655.6831,-107.5053 2649.7087,-104.414 2654.5466,-103.1512 2654.5466,-103.1512 2654.5466,-103.1512 2649.7087,-104.414 2653.4101,-98.7971 2644.8708,-105.6768 2644.8708,-105.6768"/>
</g>
<!-- Frame&#45;&gt;Binary -->
<g id="edge103" class="edge">
<title>Frame&#45;&gt;Binary</title>
<path fill="none" stroke="#a3e301" d="M2336.1566,-144.9188C2347.1158,-138.1426 2360.1851,-131.1691 2373,-127 2445.6709,-103.3581 2469.8919,-127.6546 2544,-109 2546.7763,-108.3012 2549.608,-107.4612 2552.4292,-106.5312"/>
<ellipse fill="none" stroke="#a3e301" cx="2332.6539" cy="-147.1575" rx="4" ry="4"/>
<polygon fill="#a3e301" stroke="#a3e301" points="2552.4855,-106.5109 2563.421,-107.3265 2557.1851,-104.8038 2561.8847,-103.0968 2561.8847,-103.0968 2561.8847,-103.0968 2557.1851,-104.8038 2560.3484,-98.8672 2552.4855,-106.5109 2552.4855,-106.5109"/>
</g>
<!-- ReferenceUserTag&#45;&gt;ReferenceUserTagging -->
<g id="edge106" class="edge">
<title>ReferenceUserTag&#45;&gt;ReferenceUserTagging</title>
<path fill="none" stroke="#0a07e4" d="M270.154,-225.5688C275.7443,-214.7611 282.2705,-202.1436 287.9545,-191.1547"/>
<ellipse fill="none" stroke="#0a07e4" cx="268.1617" cy="-229.4207" rx="4" ry="4"/>
<polygon fill="#0a07e4" stroke="#0a07e4" points="288.0936,-190.8856 296.6849,-184.0708 290.3908,-186.4445 292.6879,-182.0034 292.6879,-182.0034 292.6879,-182.0034 290.3908,-186.4445 288.6909,-179.9359 288.0936,-190.8856 288.0936,-190.8856"/>
</g>
<!-- Like&#45;&gt;Notification -->
<g id="edge107" class="edge">
<title>Like&#45;&gt;Notification</title>
<path fill="none" stroke="#34a3b5" d="M1114,-137.9079C1114,-131.9427 1114,-125.5729 1114,-119.512"/>
<ellipse fill="none" stroke="#34a3b5" cx="1114" cy="-141.9551" rx="4" ry="4"/>
<polygon fill="#34a3b5" stroke="#34a3b5" points="1114.0001,-119.0904 1118.5,-109.0903 1114,-114.0904 1114,-109.0904 1114,-109.0904 1114,-109.0904 1114,-114.0904 1109.5,-109.0904 1114.0001,-119.0904 1114.0001,-119.0904"/>
</g>
<!-- Issue -->
<g id="node45" class="node">
<title>Issue</title>
<ellipse fill="none" stroke="#000000" cx="2262" cy="-505" rx="28.6953" ry="18"/>
<text text-anchor="middle" x="2262" y="-501.3" font-family="Times,serif" font-size="14.00" fill="#000000">Issue</text>
</g>
</g>
</svg>
