<?xml version="1.0" encoding="UTF-8" standalone="no"?>
<!-- Generator: Adobe Illustrator 16.0.0, SVG Export Plug-In . SVG Version: 6.00 Build 0)  -->

<svg
   xmlns:dc="http://purl.org/dc/elements/1.1/"
   xmlns:cc="http://creativecommons.org/ns#"
   xmlns:rdf="http://www.w3.org/1999/02/22-rdf-syntax-ns#"
   xmlns:svg="http://www.w3.org/2000/svg"
   xmlns="http://www.w3.org/2000/svg"
   xmlns:sodipodi="http://sodipodi.sourceforge.net/DTD/sodipodi-0.dtd"
   xmlns:inkscape="http://www.inkscape.org/namespaces/inkscape"
   version="1.1"
   id="Layer_1"
   x="0px"
   y="0px"
   width="1920"
   height="1920"
   viewBox="0 0 1920 1920"
   enable-background="new 0 0 1920 2346.98"
   xml:space="preserve"
   inkscape:version="0.91 r13725"
   sodipodi:docname="favicon.svg"><metadata
     id="metadata11"><rdf:RDF><cc:Work
         rdf:about=""><dc:format>image/svg+xml</dc:format><dc:type
           rdf:resource="http://purl.org/dc/dcmitype/StillImage" /><dc:title></dc:title></cc:Work></rdf:RDF></metadata><defs
     id="defs598" /><sodipodi:namedview
     pagecolor="#ffffff"
     bordercolor="#666666"
     borderopacity="1"
     objecttolerance="10"
     gridtolerance="10"
     guidetolerance="10"
     inkscape:pageopacity="0"
     inkscape:pageshadow="2"
     inkscape:window-width="776"
     inkscape:window-height="373"
     id="namedview596"
     showgrid="false"
     inkscape:zoom="0.40221902"
     inkscape:cx="982.84777"
     inkscape:cy="869.51488"
     inkscape:window-x="932"
     inkscape:window-y="314"
     inkscape:window-maximized="0"
     inkscape:current-layer="Layer_2" /><g
     id="Layer_2"
     transform="translate(0,-426.97998)"><g
       id="g517"
       transform="matrix(1.2082627,0,0,1.2082627,-199.93226,-627.81184)"
       style="fill:#ffffff"><path
         d="m 385.414,1648.624 173.477,136.668 23.67,-49.932 c 0,0 26.274,23.669 49.943,23.669 0,0 325.944,323.312 675.555,-2.633 0,0 18.404,2.633 39.414,-18.403 l 13.163,49.944 170.87,-136.688 c 0,0 226.055,223.44 -115.659,517.842 0,0 155.101,21.037 160.339,160.34 l -523.102,0 c 0,0 -2.646,-13.139 13.126,-23.644 0,0 -160.34,23.644 -194.515,-2.633 0,0 5.252,18.403 0,26.274 l -523.087,0 c 0,0 -13.164,-118.293 162.97,-155.073 0,-0.024 -339.105,-249.722 -126.164,-525.731 z"
         id="path519"
         inkscape:connector-curvature="0"
         style="fill:#ffffff" /><path
         d="m 809.93,1288.492 c -22.506,0 -40.729,18.248 -40.729,40.742 0,22.507 18.248,40.756 40.729,40.756 22.495,0 40.757,-18.249 40.757,-40.756 0,-22.494 -18.262,-40.742 -40.757,-40.742 z m 7.874,52.584 c -10.881,0 -19.708,-8.827 -19.708,-19.72 0,-10.886 8.827,-19.713 19.708,-19.713 10.893,0 19.72,8.828 19.72,19.713 -10e-4,10.893 -8.802,19.72 -19.72,19.72 z"
         id="path521"
         inkscape:connector-curvature="0"
         style="fill:#ffffff" /><path
         d="m 1297.541,1393.647 c 0,0 55.197,-136.688 -94.636,-205.037 0,0 -152.454,-52.571 -210.284,102.521 l -36.806,2.62 c 0,0 -55.197,-176.11 -233.953,-94.638 0,0 -113.027,57.83 -70.98,184.015 0,0 -141.937,23.655 -136.671,186.641 0,0 2.609,118.286 134.052,157.719 0,0 307.554,307.539 644.025,-2.626 0,0 110.395,-26.289 118.267,-184.001 0.013,-0.026 -2.607,-118.299 -113.014,-147.214 z m -492.864,10.52 c -42.818,0 -77.549,-34.718 -77.549,-77.552 0,-42.827 34.729,-77.543 77.549,-77.543 42.834,0 77.549,34.716 77.549,77.543 -0.024,42.821 -34.74,77.552 -77.549,77.552 z m 341.727,0 c -42.821,0 -77.538,-34.718 -77.538,-77.552 0,-42.827 34.717,-77.543 77.538,-77.543 42.818,0 77.536,34.716 77.536,77.543 0,42.821 -34.716,77.552 -77.536,77.552 z"
         id="path523"
         inkscape:connector-curvature="0"
         style="fill:#ffffff" /><path
         d="m 1151.646,1288.492 c -22.496,0 -40.744,18.248 -40.744,40.742 0,22.507 18.248,40.756 40.744,40.756 22.506,0 40.756,-18.249 40.756,-40.756 0,-22.494 -18.252,-40.742 -40.756,-40.742 z m 7.896,52.584 c -10.892,0 -19.719,-8.827 -19.719,-19.72 0,-10.886 8.827,-19.713 19.719,-19.713 10.892,0 19.719,8.828 19.719,19.713 0,10.893 -8.827,19.72 -19.719,19.72 z"
         id="path525"
         inkscape:connector-curvature="0"
         style="fill:#ffffff" /></g></g></svg>