<?xml version="1.0" encoding="UTF-8" standalone="no"?>
<!-- Generated by IcoMoon.io -->

<svg
   xmlns:dc="http://purl.org/dc/elements/1.1/"
   xmlns:cc="http://creativecommons.org/ns#"
   xmlns:rdf="http://www.w3.org/1999/02/22-rdf-syntax-ns#"
   xmlns:svg="http://www.w3.org/2000/svg"
   xmlns="http://www.w3.org/2000/svg"
   xmlns:sodipodi="http://sodipodi.sourceforge.net/DTD/sodipodi-0.dtd"
   xmlns:inkscape="http://www.inkscape.org/namespaces/inkscape"
   version="1.1"
   width="34"
   height="32"
   viewBox="0 0 34 32"
   id="svg2"
   inkscape:version="0.91 r13725"
   sodipodi:docname="myicon-users.svg">
  <metadata
     id="metadata14">
    <rdf:RDF>
      <cc:Work
         rdf:about="">
        <dc:format>image/svg+xml</dc:format>
        <dc:type
           rdf:resource="http://purl.org/dc/dcmitype/StillImage" />
        <dc:title></dc:title>
      </cc:Work>
    </rdf:RDF>
  </metadata>
  <defs
     id="defs12" />
  <sodipodi:namedview
     pagecolor="#ffffff"
     bordercolor="#666666"
     borderopacity="1"
     objecttolerance="10"
     gridtolerance="10"
     guidetolerance="10"
     inkscape:pageopacity="0"
     inkscape:pageshadow="2"
     inkscape:window-width="776"
     inkscape:window-height="480"
     id="namedview10"
     showgrid="false"
     inkscape:zoom="7.375"
     inkscape:cx="0.86440678"
     inkscape:cy="16"
     inkscape:window-x="10"
     inkscape:window-y="34"
     inkscape:window-maximized="0"
     inkscape:current-layer="svg2" />
  <path
     fill="#444444"
     d="M10.276 13.010c0-2.077-1.502-3.204-3.43-3.204-2.849 0-4.832 2.463-2.134 7.069 0.886 1.513-0.943 1.873-2.91 2.283-1.965 0.411-1.814 1.349-1.814 3.051h6.663c0-6.566 3.625-3.446 3.625-9.199z"
     id="path4"
     style="fill:#ffffff" />
  <path
     fill="#444444"
     d="M23.501 18.37c-2.473-0.516-4.775-0.969-3.661-2.871 3.394-5.793 0.899-8.891-2.684-8.891-3.655 0-6.087 3.217-2.684 8.891 1.149 1.915-1.241 2.367-3.661 2.871-2.472 0.517-2.282 1.697-2.282 3.838h17.253c-0.001-2.142 0.19-3.321-2.282-3.838z"
     id="path6"
     style="fill:#ffffff" />
  <path
     fill="#444444"
     d="M32.51 19.157c-1.966-0.411-3.796-0.77-2.91-2.283 2.698-4.606 0.715-7.069-2.134-7.069-1.929 0-3.43 1.127-3.43 3.204 0 5.753 3.624 2.633 3.625 9.198h6.663c-0.001-1.702 0.15-2.64-1.815-3.051z"
     id="path8"
     style="fill:#ffffff" />
</svg>
