<?xml version="1.0" encoding="UTF-8" standalone="no"?>
<!-- Generator: Adobe Illustrator 16.0.0, SVG Export Plug-In . SVG Version: 6.00 Build 0)  -->

<svg
   xmlns:dc="http://purl.org/dc/elements/1.1/"
   xmlns:cc="http://creativecommons.org/ns#"
   xmlns:rdf="http://www.w3.org/1999/02/22-rdf-syntax-ns#"
   xmlns:svg="http://www.w3.org/2000/svg"
   xmlns="http://www.w3.org/2000/svg"
   xmlns:sodipodi="http://sodipodi.sourceforge.net/DTD/sodipodi-0.dtd"
   xmlns:inkscape="http://www.inkscape.org/namespaces/inkscape"
   version="1.1"
   id="Layer_1"
   x="0px"
   y="0px"
   width="1920px"
   height="2346.98px"
   viewBox="0 0 1920 2346.98"
   enable-background="new 0 0 1920 2346.98"
   xml:space="preserve"
   inkscape:version="0.91 r13725"
   sodipodi:docname="controversciences.svg"><metadata
     id="metadata46"><rdf:RDF><cc:Work
         rdf:about=""><dc:format>image/svg+xml</dc:format><dc:type
           rdf:resource="http://purl.org/dc/dcmitype/StillImage" /><dc:title></dc:title></cc:Work></rdf:RDF></metadata><defs
     id="defs598" /><sodipodi:namedview
     pagecolor="#ffffff"
     bordercolor="#666666"
     borderopacity="1"
     objecttolerance="10"
     gridtolerance="10"
     guidetolerance="10"
     inkscape:pageopacity="0"
     inkscape:pageshadow="2"
     inkscape:window-width="1920"
     inkscape:window-height="1056"
     id="namedview596"
     showgrid="false"
     inkscape:zoom="0.20110951"
     inkscape:cx="1223.5174"
     inkscape:cy="268.03738"
     inkscape:window-x="0"
     inkscape:window-y="24"
     inkscape:window-maximized="1"
     inkscape:current-layer="Layer_2" /><g
     id="Layer_2"
     transform="translate(-29.834491,-198.89661)"
     style="fill:#cccccc"><g
       id="g4174"
       style="fill:#ffffff"><g
         style="fill:#ffffff"
         id="g517"><path
           style="fill:#ffffff"
           inkscape:connector-curvature="0"
           id="path519"
           d="m 385.414,1648.624 173.477,136.668 23.67,-49.932 c 0,0 26.274,23.669 49.943,23.669 0,0 325.944,323.312 675.555,-2.633 0,0 18.404,2.633 39.414,-18.403 l 13.163,49.944 170.87,-136.688 c 0,0 226.055,223.44 -115.659,517.842 0,0 155.101,21.037 160.339,160.34 l -523.102,0 c 0,0 -2.646,-13.139 13.126,-23.644 0,0 -160.34,23.644 -194.515,-2.633 0,0 5.252,18.403 0,26.274 l -523.087,0 c 0,0 -13.164,-118.293 162.97,-155.073 0,-0.024 -339.105,-249.722 -126.164,-525.731 z" /><path
           style="fill:#ffffff"
           inkscape:connector-curvature="0"
           id="path521"
           d="m 809.93,1288.492 c -22.506,0 -40.729,18.248 -40.729,40.742 0,22.507 18.248,40.756 40.729,40.756 22.495,0 40.757,-18.249 40.757,-40.756 0,-22.494 -18.262,-40.742 -40.757,-40.742 z m 7.874,52.584 c -10.881,0 -19.708,-8.827 -19.708,-19.72 0,-10.886 8.827,-19.713 19.708,-19.713 10.893,0 19.72,8.828 19.72,19.713 -10e-4,10.893 -8.802,19.72 -19.72,19.72 z" /><path
           style="fill:#ffffff"
           inkscape:connector-curvature="0"
           id="path523"
           d="m 1297.541,1393.647 c 0,0 55.197,-136.688 -94.636,-205.037 0,0 -152.454,-52.571 -210.284,102.521 l -36.806,2.62 c 0,0 -55.197,-176.11 -233.953,-94.638 0,0 -113.027,57.83 -70.98,184.015 0,0 -141.937,23.655 -136.671,186.641 0,0 2.609,118.286 134.052,157.719 0,0 307.554,307.539 644.025,-2.626 0,0 110.395,-26.289 118.267,-184.001 0.013,-0.026 -2.607,-118.299 -113.014,-147.214 z m -492.864,10.52 c -42.818,0 -77.549,-34.718 -77.549,-77.552 0,-42.827 34.729,-77.543 77.549,-77.543 42.834,0 77.549,34.716 77.549,77.543 -0.024,42.821 -34.74,77.552 -77.549,77.552 z m 341.727,0 c -42.821,0 -77.538,-34.718 -77.538,-77.552 0,-42.827 34.717,-77.543 77.538,-77.543 42.818,0 77.536,34.716 77.536,77.543 0,42.821 -34.716,77.552 -77.536,77.552 z" /><path
           style="fill:#ffffff"
           inkscape:connector-curvature="0"
           id="path525"
           d="m 1151.646,1288.492 c -22.496,0 -40.744,18.248 -40.744,40.742 0,22.507 18.248,40.756 40.744,40.756 22.506,0 40.756,-18.249 40.756,-40.756 -0,-22.494 -18.252,-40.742 -40.756,-40.742 z m 7.896,52.584 c -10.892,0 -19.719,-8.827 -19.719,-19.72 0,-10.886 8.827,-19.713 19.719,-19.713 10.892,0 19.719,8.828 19.719,19.713 0,10.893 -8.827,19.72 -19.719,19.72 z" /></g><g
         style="fill:#ffffff"
         id="g527"><path
           style="fill:#ffffff"
           inkscape:connector-curvature="0"
           id="path529"
           d="m 94.033,2193.555 6.926,-3.384 c 0,0 -13.181,-29.645 7.713,-52.949 20.874,-23.28 138.695,-134.65 138.695,-134.65 l -23.998,-25.02 c 0,0 -125.202,114.442 -141.288,146.092 -16.154,31.773 11.952,69.911 11.952,69.911 z" /><path
           style="fill:#ffffff"
           inkscape:connector-curvature="0"
           id="path531"
           d="m 121.348,2117.738 c 0,0 74.641,61.045 71.487,147.901 0,0 6.468,27.972 37.491,16.117 0,0 26.377,-12.272 10.331,-44.909 0,0 -18.674,-40.674 -56.813,-82.225 l -46.072,-55.101 -16.424,18.217 z" /><path
           style="fill:#ffffff"
           inkscape:connector-curvature="0"
           id="path533"
           d="m 179.133,2063.115 94.033,115.698 c 0,0 47.845,42.833 78.49,-21.547 0,0 9.776,-31.355 -19.37,-65.256 l -7.938,7.61 c 0,0 13.302,47.455 -16.816,47.865 0,0 -12.898,4.245 -52.126,-41.958 l -53.713,-64.854 -22.909,21.175" /></g><g
         style="fill:#ffffff"
         id="g535"><path
           style="fill:#ffffff"
           inkscape:connector-curvature="0"
           id="path537"
           d="m 1632.546,2202.214 c 0,0 1.09,-0.445 2.924,-1.318 -21.844,11.126 -47.632,19.453 -78.036,23.097 l 20.796,26.459 c 0,0 63.468,-20.439 113.846,-74.602 -1.212,1.348 -2.26,2.491 -2.91,3.153 0,0 39.65,-17.123 73.509,-13.576 0,0 -34.388,-10.823 -59.989,-1.67 0,0 -0.445,0.52 -1.16,1.351 14.491,-17.521 27.364,-38.134 36.573,-62.228 -1.089,2.836 -2.541,6.514 -3.556,8.79 0,0 21.872,-0.727 60.816,-26.768 0,0 -36.156,18.017 -55.75,14.013 0,0 -0.281,0.741 -0.696,1.834 5.78,-15.602 10.036,-32.636 12.187,-51.209 0,0 -18.293,94.143 -103.898,144.91 2.126,-1.447 -18.563,-32.179 -7.443,-86.561 -0,0 -16.738,54.293 -7.213,94.325 z" /><path
           style="fill:#ffffff"
           inkscape:connector-curvature="0"
           id="path539"
           d="m 1640.49,2069.899 c -30.179,23.719 -31.804,75.84 -31.804,75.84 -76.609,-78.409 33.393,-191.095 33.393,-191.095 112.945,140.311 23.707,192.251 23.707,192.251 3.015,-60.156 -25.301,-77.004 -25.296,-76.996 z" /><path
           style="fill:#ffffff"
           inkscape:connector-curvature="0"
           id="path541"
           d="m 1804.692,2167.878 c -17.555,-25.615 -59.529,-29.685 -59.529,-29.685 67.345,-57.682 152.47,37.072 152.47,37.072 -119.218,83.731 -156.423,8.955 -156.423,8.955 48.386,5.619 63.478,-16.346 63.482,-16.342 z" /><path
           style="fill:#ffffff"
           inkscape:connector-curvature="0"
           id="path543"
           d="m 1756.15,2017.754 c -19.956,13.222 -23.616,45.543 -23.616,45.543 -43.648,-52.638 30.454,-117.121 30.454,-117.121 63.106,92.958 5.004,120.727 5.004,120.727 4.919,-37.24 -11.835,-49.147 -11.842,-49.149 z" /><path
           style="fill:#ffffff"
           inkscape:connector-curvature="0"
           id="path545"
           d="m 1820.821,2075.497 c -15.887,-7.199 -37.231,3.053 -37.231,3.053 15.581,-47.298 84.035,-26.529 84.035,-26.529 -32.927,74.902 -72.546,49.795 -72.546,49.795 24.876,-11.373 25.742,-26.319 25.742,-26.319 z" /></g><g
         style="fill:#ffffff"
         id="g547"><path
           style="fill:#ffffff"
           inkscape:connector-curvature="0"
           id="path549"
           d="m 1141.901,1020.799 c -5.512,-23.476 -93.052,-210.594 -93.052,-210.594 l 23.04,-112.396 c 9.228,-41.207 31.156,-47.248 31.156,-47.248 l -66.841,-12.952 -14.93,-2.893 -66.849,-12.954 c 0,0 18.067,13.791 11.253,55.465 l -20.616,112.867 c 0,0 -151.105,140.875 -164.973,160.595 0,0 -55.852,61.213 13.098,94.57 l 149.213,28.915 2.815,0.545 149.208,28.914 c 76.431,-5.181 47.478,-82.834 47.478,-82.834 z m -74.282,57.755 -118.978,-23.056 -2.244,-0.435 -118.978,-23.055 c -54.981,-26.584 -10.452,-75.413 -10.452,-75.413 11.073,-15.726 68.462,-65.968 68.462,-65.968 l 183.417,35.542 c 0,0 3.029,6.362 7.361,15.702 l -41.407,-8.023 c -3.754,-0.728 -7.348,1.625 -8.045,5.228 -0.699,3.604 1.758,7.115 5.513,7.842 l 50.751,9.835 c 2.976,6.583 6.122,13.641 9.077,20.518 l -37.274,-7.223 c -3.728,-0.723 -7.35,1.61 -8.05,5.215 -0.695,3.597 1.793,7.114 5.521,7.837 l 45.98,8.911 c 3.386,8.388 6.02,15.607 7.118,20.143 l -33.147,-6.424 c -3.735,-0.725 -7.353,1.612 -8.05,5.215 -0.699,3.614 1.784,7.121 5.518,7.844 l 39.165,7.59 c 2.872,18.531 1.085,49.32 -41.258,52.175 z" /><path
           style="fill:#ffffff"
           inkscape:connector-curvature="0"
           id="path551"
           d="m 998.585,538.296 c 22.163,4.295 36.77,25.085 32.632,46.434 -4.138,21.354 -25.45,35.18 -47.614,30.885 -22.155,-4.293 -36.77,-25.082 -32.632,-46.434 4.135,-21.351 25.458,-35.178 47.614,-30.885 z" /><path
           style="fill:#ffffff"
           inkscape:connector-curvature="0"
           id="path553"
           d="m 878.307,647.135 c 22.156,4.293 36.771,25.082 32.632,46.434 -4.137,21.35 -25.457,35.177 -47.613,30.884 -22.163,-4.294 -36.77,-25.084 -32.631,-46.433 4.136,-21.353 25.451,-35.179 47.612,-30.885 z" /><path
           style="fill:#ffffff"
           inkscape:connector-curvature="0"
           id="path555"
           d="m 909.702,555.906 c 18.012,3.49 29.895,20.39 26.53,37.747 -3.363,17.356 -20.696,28.594 -38.708,25.104 -18.015,-3.491 -29.894,-20.391 -26.53,-37.745 3.362,-17.359 20.694,-28.597 38.708,-25.106 z" /></g><g
         style="fill:#ffffff"
         id="g557"><path
           style="fill:#ffffff"
           inkscape:connector-curvature="0"
           id="path585"
           d="m 624.851,729.636 c 56.812,-95.196 83.659,-181.71 46.596,-213.264 -15.789,-13.447 -40.201,-14.425 -72.546,-2.907 -37.257,13.265 -82.785,42.523 -130.662,82.758 -54.014,-96.681 -115.464,-163.068 -161.278,-146.757 -45.814,16.312 -51.482,106.599 -32.243,215.66 -62.53,-0.924 -116.319,5.178 -153.568,18.439 -32.34,11.515 -50.64,27.699 -54.386,48.102 -8.784,47.877 66.699,97.956 170.894,135.828 -56.82,95.207 -83.659,181.729 -46.596,213.278 15.794,13.438 40.187,14.411 72.527,2.896 37.257,-13.265 82.793,-42.522 130.666,-82.763 54.02,96.693 115.474,163.088 161.301,146.771 30.936,-11.015 45.941,-58.458 42.249,-133.589 -1.259,-25.352 -4.561,-52.962 -9.699,-82.071 62.396,0.894 116.063,-5.2 153.259,-18.442 32.34,-11.515 50.626,-27.698 54.368,-48.084 8.788,-47.883 -66.691,-97.975 -170.882,-135.855 z m -366.3,339.884 c -18.498,6.586 -43.54,11.907 -57.75,-0.19 -26.093,-22.209 -8.599,-98.183 50.837,-196.879 29.551,10.191 61.091,19.391 93.491,27.292 12.96,30.657 27.06,60.287 41.816,87.792 -47.231,40.019 -92.018,69.033 -128.394,81.985 z m 79.574,-186.776 c -28.237,-7.063 -54.493,-14.816 -78.676,-23.009 13.561,-21.643 29.008,-44.245 46.432,-67.551 4.735,15.282 9.78,30.534 15.155,45.63 5.373,15.091 11.101,30.098 17.089,44.93 z M 300.578,774.571 c -20.127,26.612 -38.751,53.667 -55.211,80.241 C 136.925,815.891 75.354,768.072 81.538,734.386 c 3.365,-18.366 26.139,-30.077 44.644,-36.666 36.376,-12.952 89.421,-18.771 151.309,-17.6 5.954,30.625 13.739,62.498 23.087,94.451 z m 198.878,-81.393 c -15.597,-3.539 -31.335,-6.786 -47.086,-9.683 -15.915,-2.92 -31.694,-5.465 -47.301,-7.697 19.797,-20.417 39.639,-39.306 59.173,-56.447 11.948,22.511 23.763,47.145 35.214,73.827 z M 311.999,463.616 c 32.25,-11.481 89.236,41.562 144.934,142.239 -23.201,20.196 -46.835,42.874 -70.268,67.494 -33.72,-4.271 -66.359,-6.913 -97.109,-7.892 -20.448,-113.228 -9.81,-190.356 22.443,-201.841 z m -19.58,216.917 c 25.966,0.942 53.284,3.032 81.53,6.344 -10.698,11.599 -21.313,23.541 -31.804,35.869 -10.381,12.193 -20.518,24.653 -30.36,37.25 -7.988,-27.913 -14.388,-54.475 -19.366,-79.463 z m 70.623,223.427 c 15.595,3.535 31.333,6.783 47.082,9.673 15.906,2.917 31.697,5.47 47.301,7.696 -19.787,20.422 -39.639,39.306 -59.173,56.447 -11.947,-22.503 -23.763,-47.146 -35.21,-73.816 z m 219.756,110.861 c 3.305,66.962 -8.466,110.222 -32.284,118.701 -32.258,11.485 -89.246,-41.563 -144.955,-142.25 23.204,-20.193 46.836,-42.874 70.269,-67.497 33.665,4.271 66.259,6.91 96.974,7.898 5.327,29.556 8.735,57.553 9.996,83.148 z m -12.863,-98.232 c -25.926,-0.941 -53.2,-3.031 -81.391,-6.34 10.686,-11.595 21.304,-23.541 31.793,-35.857 10.352,-12.167 20.468,-24.597 30.294,-37.177 7.765,27.198 14.228,53.815 19.304,79.374 z m -24.466,-96.981 c -11.435,14.796 -23.625,29.839 -36.571,45.051 -12.757,14.99 -25.706,29.39 -38.72,43.25 -17.374,-2.318 -35.007,-5.061 -52.816,-8.261 -6.312,-0.074 -12.492,-1.229 -18.29,-3.422 -14.779,-2.882 -29.197,-5.938 -43.129,-9.184 -7.104,-17.315 -14.05,-35.426 -20.758,-54.265 -6.709,-18.846 -12.767,-37.261 -18.214,-55.191 11.45,-14.817 23.659,-29.878 36.622,-45.107 12.756,-14.991 25.715,-29.388 38.725,-43.258 18.848,2.526 37.981,5.499 57.339,9.048 19.68,3.615 38.659,7.57 56.898,11.825 7.107,17.326 14.053,35.432 20.764,54.277 6.595,18.532 12.636,36.987 18.15,55.237 z m 58.469,-291.992 c 18.506,-6.588 43.557,-11.903 57.77,0.202 26.083,22.206 8.585,98.168 -50.855,196.871 -29.541,-10.187 -61.082,-19.39 -93.485,-27.297 -12.961,-30.665 -27.06,-60.292 -41.813,-87.791 47.227,-40.022 92.007,-69.032 128.383,-81.985 z m -79.563,186.783 c 28.232,7.051 54.49,14.815 78.657,23.005 -13.54,21.616 -28.981,44.208 -46.376,67.488 -4.718,-15.107 -9.759,-30.3 -15.194,-45.565 -5.37,-15.084 -11.101,-30.099 -17.087,-44.928 z m 256.583,148.369 c -3.368,18.354 -26.138,30.058 -44.63,36.643 -36.314,12.93 -89.25,18.755 -151.015,17.604 -5.905,-30.312 -13.727,-62.076 -23.316,-94.555 20.087,-26.574 38.696,-53.605 55.138,-80.127 108.438,38.918 170.008,86.734 163.823,120.435 z" /><path
           style="fill:#ffffff"
           inkscape:connector-curvature="0"
           id="path587"
           d="m 406.391,728.753 c 38.564,-13.731 80.951,6.399 94.681,44.962 13.73,38.563 -6.396,80.949 -44.961,94.68 -38.565,13.729 -80.949,-6.396 -94.681,-44.962 -13.731,-38.562 6.396,-80.95 44.961,-94.68 z" /></g><g
         style="fill:#ffffff"
         id="Your_Icon_5_"><path
           style="fill:#ffffff"
           inkscape:connector-curvature="0"
           id="path590"
           d="m 1843.967,1315.89 c -11.134,0.745 -20.643,6.775 -26.304,15.454 l -50.722,3.394 c -4.692,-20.6 -14.241,-39.214 -27.313,-54.681 l 32.932,-37.654 c 10.694,1.145 21.761,-2.744 29.375,-11.457 12.42,-14.202 10.977,-35.78 -3.225,-48.2 -14.203,-12.421 -35.782,-10.978 -48.2,3.226 -7.354,8.405 -9.812,19.387 -7.674,29.528 l -33.484,38.285 c -17.145,-10.77 -36.896,-17.63 -57.966,-19.398 l -3.337,-49.885 c 8.362,-6.754 13.438,-17.321 12.665,-28.865 -1.251,-18.829 -17.529,-33.069 -36.354,-31.811 -18.828,1.26 -33.069,17.542 -31.812,36.364 0.746,11.142 6.776,20.646 15.458,26.31 l 3.395,50.716 c -20.604,4.702 -39.218,14.25 -54.677,27.315 l -37.66,-32.936 c 1.144,-10.696 -2.75,-21.751 -11.45,-29.368 -14.208,-12.421 -35.784,-10.982 -48.211,3.22 -12.417,14.206 -10.974,35.785 3.226,48.206 8.408,7.353 19.391,9.811 29.537,7.674 l 38.286,33.482 c -10.771,17.139 -17.631,36.892 -19.394,57.96 l -49.893,3.342 c -6.757,-8.369 -17.323,-13.443 -28.87,-12.67 -18.828,1.259 -33.073,17.535 -31.814,36.364 1.265,18.828 17.548,33.063 36.368,31.805 11.138,-0.743 20.643,-6.774 26.313,-15.456 l 50.713,-3.394 c 4.697,20.604 14.245,39.211 27.313,54.686 l -32.931,37.651 c -10.694,-1.145 -21.761,2.752 -29.377,11.461 -12.418,14.198 -10.979,35.777 3.225,48.199 14.204,12.418 35.784,10.974 48.211,-3.226 7.35,-8.407 9.807,-19.391 7.674,-29.534 l 33.479,-38.29 c 17.139,10.771 36.894,17.643 57.968,19.404 l 3.336,49.886 c -8.369,6.756 -13.442,17.324 -12.669,28.864 1.26,18.83 17.538,33.07 36.367,31.813 18.827,-1.266 33.063,-17.544 31.804,-36.372 -0.744,-11.14 -6.774,-20.645 -15.457,-26.305 l -3.392,-50.723 c 20.603,-4.697 39.216,-14.244 54.675,-27.312 l 37.662,32.938 c -1.146,10.687 2.749,21.751 11.458,29.367 14.204,12.419 35.777,10.979 48.201,-3.225 12.423,-14.204 10.975,-35.781 -3.227,-48.209 -8.402,-7.352 -19.389,-9.804 -29.53,-7.664 l -38.282,-33.486 c 10.768,-17.139 17.63,-36.896 19.394,-57.965 l 49.895,-3.339 c 6.748,8.366 17.32,13.438 28.865,12.665 18.821,-1.26 33.063,-17.538 31.804,-36.361 -1.267,-18.813 -17.544,-33.052 -36.374,-31.793 z m -161.668,42.336 c -10.285,11.76 -24.428,18.75 -39.948,19.789 -0.216,0.017 -0.439,0.031 -0.665,0.046 -0.159,0.01 -0.327,0.021 -0.497,0.022 l -0.319,0.014 c -0.179,0 -0.349,0.01 -0.517,0.01 -8.217,0.254 -16.002,3.915 -21.414,10.104 -5.213,5.959 -7.795,13.589 -7.268,21.476 0.528,7.896 4.104,15.104 10.063,20.314 5.965,5.221 6.57,14.284 1.354,20.255 -2.608,2.983 -6.181,4.625 -9.845,4.871 -3.661,0.243 -7.423,-0.907 -10.403,-3.518 -11.729,-10.257 -18.761,-24.463 -19.801,-40.009 -1.04,-15.533 4.037,-30.56 14.295,-42.277 10.792,-12.348 26.358,-19.583 42.754,-19.918 8.024,-0.378 15.313,-4.013 20.612,-10.07 5.207,-5.954 7.78,-13.577 7.251,-21.471 -0.528,-7.895 -4.093,-15.105 -10.047,-20.314 -5.97,-5.221 -6.576,-14.283 -1.36,-20.253 5.221,-5.969 14.289,-6.574 20.258,-1.354 11.729,10.258 18.752,24.459 19.793,40.006 1.039,15.546 -4.039,30.557 -14.296,42.282 z" /></g><path
         style="fill:#ffffff"
         inkscape:connector-curvature="0"
         id="path592"
         d="m 1837.444,681.261 c -10.905,-0.765 -20.492,6.388 -23.229,16.542 l -31.168,-3.241 c -1.603,-13.74 -12.769,-24.841 -27.06,-25.842 -1.82,-0.128 -3.616,-0.038 -5.379,0.162 l -9.504,-36.976 c 4.222,-2.748 7.158,-7.321 7.536,-12.726 0.643,-9.152 -6.205,-17.129 -15.386,-17.772 -9.153,-0.641 -17.138,6.297 -17.778,15.449 -0.641,9.133 6.301,17.095 15.453,17.736 0.869,0.061 1.724,-0.008 2.563,-0.074 l 9.377,36.42 c -9.989,4.109 -17.375,13.479 -18.182,24.975 -0.685,9.764 3.555,18.701 10.536,24.53 l -38.502,46.876 c -3.614,-2.003 -7.678,-3.33 -12.081,-3.639 -14.958,-1.048 -27.969,9.442 -30.694,23.869 l -66.298,-11.371 c 1.104,-18.174 -12.645,-33.919 -30.86,-35.196 -2.232,-0.156 -4.412,-0.072 -6.547,0.204 l -14.179,-67.074 c 11.978,-5.475 20.733,-16.999 21.721,-31.075 0.338,-4.823 -0.339,-9.478 -1.723,-13.831 l 19.917,-8.262 c 5.279,6.298 12.968,10.55 21.798,11.168 17.258,1.209 32.256,-11.75 33.466,-29.021 0.141,-2.012 0.036,-3.977 -0.189,-5.903 l 43.136,-14.518 c 2.75,4.275 7.355,7.28 12.816,7.664 9.166,0.642 17.059,-6.29 17.701,-15.454 0.641,-9.148 -6.211,-17.083 -15.377,-17.727 -9.168,-0.642 -17.148,6.246 -17.79,15.402 -0.061,0.85 0.021,1.68 0.082,2.512 l -42.599,14.35 c -4.312,-10.848 -14.451,-18.88 -26.87,-19.751 -4.628,-0.324 -9.063,0.444 -13.146,1.977 l -9.888,-20.669 c 4.228,-2.748 7.184,-7.328 7.563,-12.759 0.642,-9.148 -6.224,-17.091 -15.377,-17.733 -9.176,-0.643 -17.147,6.262 -17.79,15.409 -0.644,9.179 6.29,17.113 15.466,17.756 0.84,0.06 1.649,-0.016 2.459,-0.076 l 10.5,21.908 c -7.39,5.241 -12.543,13.505 -13.226,23.238 -0.384,5.475 0.788,10.652 2.961,15.298 l -18.819,7.804 c -5.979,-10.282 -16.776,-17.527 -29.555,-18.423 -20.433,-1.432 -38.224,14.009 -39.655,34.453 -1.437,20.496 14.028,38.25 34.461,39.684 3.551,0.248 6.96,-0.172 10.273,-0.875 l 14.083,66.61 c -11.594,4.539 -20.215,15.35 -21.143,28.595 -0.651,9.297 2.615,17.946 8.365,24.409 l -32.485,36.098 c -5.93,-4.954 -13.349,-8.218 -21.633,-8.798 -18.417,-1.291 -34.703,10.718 -39.446,27.825 l -51.068,-12.457 c 0.088,-0.709 0.313,-1.366 0.362,-2.085 1.436,-20.478 -14.04,-38.264 -34.466,-39.694 -6.538,-0.458 -12.719,0.948 -18.26,3.545 l -35.959,-69.643 c 8.633,-5.044 14.717,-14.125 15.47,-24.868 0.09,-1.28 -0.063,-2.526 -0.117,-3.774 l 18.303,-3.09 c 2.702,6.74 9.007,11.739 16.736,12.281 10.739,0.753 20.116,-7.378 20.871,-18.147 0.755,-10.768 -7.396,-20.125 -18.137,-20.878 -10.771,-0.754 -20.14,7.376 -20.895,18.143 -0.017,0.232 0.037,0.45 0.021,0.675 l -18.25,3.067 c -1.828,-5.7 -5.258,-10.676 -9.797,-14.451 l 18.357,-36.403 c 2.61,1.609 5.576,2.693 8.835,2.923 10.799,0.756 20.16,-7.35 20.915,-18.135 0.755,-10.751 -7.384,-20.101 -18.183,-20.856 -10.747,-0.753 -20.108,7.363 -20.862,18.122 -0.313,4.472 0.968,8.648 3.263,12.105 l -19.143,37.943 c -3.367,-1.56 -7.021,-2.618 -10.938,-2.893 -16.568,-1.161 -30.886,10.801 -33.068,27.025 l -40.615,-10.918 c 0.596,-10.662 -7.462,-19.844 -18.149,-20.593 -10.776,-0.755 -20.122,7.363 -20.878,18.144 -0.758,10.793 7.366,20.124 18.144,20.878 8.083,0.566 15.367,-3.853 18.818,-10.648 l 42.536,11.434 c 1.906,14.45 13.74,26.034 28.826,27.091 3.641,0.256 7.121,-0.245 10.443,-1.16 l 36.549,70.794 c -8.146,6.255 -13.761,15.729 -14.535,26.779 -0.718,10.239 2.79,19.792 9.045,26.975 l -13.681,17.691 c -6.722,-5.363 -15.081,-8.809 -24.312,-9.456 -24.222,-1.696 -45.261,16.577 -46.961,40.868 -1.697,24.213 16.59,45.207 40.811,46.904 6.607,0.463 12.958,-0.589 18.768,-2.811 l 18.357,40.154 c -14.523,8.526 -24.746,23.826 -26.015,41.93 -1.024,14.62 4.046,28.298 13.046,38.532 l -37.398,33.727 c -4.697,-4.854 -11.055,-8.113 -18.313,-8.622 -15.622,-1.094 -29.174,10.661 -30.269,26.27 -1.095,15.624 10.683,29.199 26.305,30.293 15.626,1.096 29.18,-10.705 30.273,-26.329 0.38,-5.422 -0.871,-10.553 -3.228,-15.054 l 38.408,-34.687 c 8.244,6.916 18.639,11.431 30.188,12.239 24.32,1.704 45.928,-13.438 53.535,-35.432 l 44.455,9.219 c -0.494,23.81 17.758,44.103 41.756,45.783 10.344,0.725 20.063,-2.131 28.055,-7.458 l 17.41,35.12 c -6.476,4.746 -10.979,12.085 -11.586,20.736 -1.095,15.622 10.719,29.209 26.327,30.303 15.632,1.096 29.188,-10.713 30.282,-26.335 1.096,-15.641 -10.688,-29.134 -26.318,-30.229 -4.104,-0.287 -8.032,0.356 -11.663,1.667 l -18.062,-36.43 c 7.679,-7.441 12.776,-17.59 13.583,-29.08 0.935,-13.346 -4.076,-25.703 -12.735,-34.566 l 15.584,-21.465 c 5.017,2.437 10.545,3.998 16.439,4.411 20.289,1.421 38.387,-10.857 45.252,-28.924 l 60.541,-4.367 c 4.477,7.117 12.118,12.123 21.175,12.757 5.955,0.417 11.543,-1.146 16.263,-4.068 l 23.983,23.191 c -1.662,2.64 -2.784,5.66 -3.018,8.979 -0.758,10.801 7.355,20.167 18.141,20.923 10.726,0.752 20.118,-7.389 20.876,-18.189 0.754,-10.763 -7.412,-20.133 -18.139,-20.885 -4.538,-0.318 -8.771,1.003 -12.264,3.371 l -23.432,-22.649 c 3.813,-4.354 6.365,-9.864 6.803,-16.089 0.746,-10.65 -4.77,-20.234 -13.357,-25.367 l 5.999,-16.552 c 0.804,0.146 1.585,0.36 2.423,0.418 12.93,0.906 24.141,-8.822 25.046,-21.759 0.815,-11.631 -7,-21.813 -18.001,-24.421 l -6.066,-63.772 c 8.992,-4.479 15.506,-13.355 16.258,-24.086 0.623,-8.891 -2.87,-17.042 -8.738,-22.856 l 39.012,-47.478 c 3.02,1.339 6.273,2.281 9.756,2.524 5.677,0.398 11.047,-0.919 15.736,-3.405 l 11.172,12.426 c -2.055,2.556 -3.397,5.731 -3.646,9.259 -0.644,9.187 6.223,17.124 15.391,17.766 9.158,0.642 17.146,-6.247 17.789,-15.44 0.644,-9.166 -6.307,-17.091 -15.465,-17.731 -2.696,-0.189 -5.247,0.332 -7.573,1.313 l -11.115,-12.354 c 4.469,-4.282 7.535,-9.956 8.583,-16.415 l 30.816,3.197 c 1.009,10.751 9.577,19.506 20.724,20.287 12.371,0.866 23.179,-8.464 24.047,-20.851 0.91,-12.373 -8.474,-23.146 -20.862,-24.014 z m -332.212,347.083 c -6.531,-4.643 -14.329,-7.643 -22.913,-8.243 -22.77,-1.595 -42.764,14.12 -47.168,35.954 l -43.253,-8.961 c 0.345,-1.903 0.609,-3.841 0.748,-5.804 2.043,-29.157 -19.905,-54.397 -48.976,-56.435 -8.156,-0.572 -15.988,0.792 -23.11,3.619 l -18.396,-40.188 c 11.731,-7.155 19.943,-19.654 20.979,-34.401 0.851,-12.148 -3.299,-23.487 -10.681,-31.999 l 13.807,-17.851 c 5.493,4.072 12.141,6.752 19.479,7.268 16.937,1.187 31.909,-9.295 37.412,-24.536 l 51.668,12.607 c -1.218,20.809 14.534,38.771 35.4,40.234 5.661,0.396 11.079,-0.557 16.066,-2.441 l 30.437,40.743 c -8.538,7.547 -14.251,18.301 -15.11,30.562 -1.123,16.028 6.34,30.67 18.426,39.503 l -14.815,20.369 z m 188.315,-145.961 c -10.989,1.276 -19.895,10.211 -20.697,21.655 -0.648,9.272 4.233,17.586 11.796,21.916 l -5.866,16.162 c -1.495,-0.36 -3.007,-0.691 -4.604,-0.804 -15.104,-1.058 -28.16,10.363 -29.216,25.424 -0.211,3.013 0.189,5.9 0.898,8.659 l -54.969,3.976 c 0.273,-1.517 0.457,-3.054 0.566,-4.619 1.736,-24.783 -17.005,-46.283 -41.805,-48.021 -9.623,-0.674 -18.734,1.758 -26.399,6.407 l -29.672,-39.711 c 9.669,-6.301 16.463,-16.776 17.331,-29.172 0.688,-9.815 -2.513,-18.933 -8.135,-26.107 l 33.033,-36.639 c 4.712,3.234 10.231,5.409 16.346,5.838 15.684,1.099 29.525,-8.92 34.014,-23.305 l 67.35,11.55 c 1.258,14.076 12.494,25.593 27.038,26.611 2.473,0.174 4.882,-0.061 7.223,-0.479 l 5.768,60.659 z" /><path
         style="fill:#ffffff"
         inkscape:connector-curvature="0"
         id="path594"
         d="m 310.534,1247.445 c 5.437,-7.512 10.239,-15.367 14.289,-23.438 16.151,-32.208 19.49,-65.565 9.623,-96.453 l -5.805,-18.169 c -3.876,-12.136 -16.694,-18.88 -28.642,-15.063 -11.933,3.812 -18.481,16.743 -14.607,28.876 l 1.405,4.396 -151.363,48.353 -1.404,-4.395 c -3.876,-12.135 -16.702,-18.876 -28.638,-15.063 -11.948,3.816 -18.486,16.745 -14.611,28.879 l 5.805,18.171 c 9.867,30.887 31.917,56.135 63.759,73.011 26.811,14.209 59.032,21.507 90.729,20.555 23.652,-0.709 48.504,4.858 68.173,15.286 11.698,6.202 26.241,16.604 35.505,32.876 l -148.491,47.437 c -0.922,-9.12 0.002,-17.822 1.872,-25.72 l 117.125,-37.416 c -3.828,-2.793 -7.671,-5.114 -11.207,-6.987 -8.659,-4.589 -18.434,-8.146 -28.679,-10.533 l -61.119,19.522 c 5.522,-8.131 12.125,-15.882 19.478,-22.888 -18.259,-0.183 -36.558,-2.905 -53.877,-7.96 -5.437,7.51 -10.236,15.359 -14.291,23.434 -16.172,32.215 -19.499,65.573 -9.632,96.457 9.869,30.895 31.917,56.14 63.762,73.021 26.81,14.208 59.031,21.503 90.727,20.554 23.65,-0.719 48.506,4.854 68.173,15.281 11.691,6.194 26.214,16.589 35.486,32.832 l -148.477,47.431 c -0.913,-9.12 0.013,-17.824 1.893,-25.722 l 117.065,-37.397 c -3.813,-2.79 -7.642,-5.081 -11.17,-6.95 -8.681,-4.605 -18.488,-8.168 -28.766,-10.555 l -60.991,19.482 c 5.509,-8.104 12.1,-15.823 19.435,-22.821 -18.261,-0.184 -36.559,-2.909 -53.878,-7.961 -5.435,7.515 -10.24,15.365 -14.287,23.44 -16.164,32.208 -19.494,65.559 -9.625,96.446 l 5.804,18.172 c 3.876,12.131 16.699,18.87 28.645,15.053 11.937,-3.813 18.478,-16.737 14.603,-28.868 l -1.406,-4.403 151.373,-48.354 1.407,4.4 c 3.874,12.128 16.697,18.869 28.639,15.054 11.947,-3.816 18.484,-16.735 14.609,-28.87 l -5.805,-18.171 c -9.869,-30.891 -31.915,-56.13 -63.756,-73.016 -26.811,-14.206 -59.037,-21.501 -90.722,-20.554 -23.659,0.715 -48.508,-4.862 -68.174,-15.282 -11.702,-6.198 -26.241,-16.604 -35.505,-32.875 l 148.479,-47.434 c 0.925,9.115 -10e-4,17.82 -1.88,25.72 l -117.115,37.409 c 3.823,2.796 7.661,5.119 11.203,6.995 8.66,4.589 18.439,8.145 28.678,10.528 l 61.113,-19.521 c -5.523,8.124 -12.126,15.877 -19.479,22.882 18.271,0.188 36.561,2.914 53.879,7.964 5.435,-7.513 10.229,-15.362 14.291,-23.43 16.151,-32.209 19.488,-65.574 9.62,-96.466 -9.866,-30.887 -31.926,-56.135 -63.76,-73.018 -26.812,-14.204 -59.035,-21.506 -90.724,-20.551 -23.655,0.716 -48.504,-4.857 -68.178,-15.28 -11.69,-6.198 -26.215,-16.592 -35.481,-32.835 l 148.471,-47.429 c 0.918,9.118 -0.002,17.819 -1.893,25.72 l -117.076,37.4 c 3.822,2.783 7.64,5.081 11.175,6.952 8.684,4.599 18.495,8.167 28.765,10.551 l 60.994,-19.486 c -5.518,8.108 -12.106,15.835 -19.442,22.829 18.285,0.182 36.573,2.911 53.904,7.965 z" /></g></g></svg>