<?xml version="1.0" encoding="utf-8"?>
<!-- Generator: Adobe Illustrator 19.0.0, SVG Export Plug-In . SVG Version: 6.00 Build 0)  -->
<svg version="1.1" id="Layer_1" xmlns="http://www.w3.org/2000/svg" xmlns:xlink="http://www.w3.org/1999/xlink" x="0px" y="0px"
	 viewBox="-412 -12.4 1093.6 1105.4" style="enable-background:new -412 -12.4 1093.6 1105.4;" xml:space="preserve">
<style type="text/css">
	.st0{opacity:0.1;}
	.st1{fill:#414042;stroke:#F1F2F2;stroke-width:5;stroke-miterlimit:10;}
	.st2{fill:none;stroke:#FFFFFF;stroke-width:16;stroke-miterlimit:10;}
	.st3{clip-path:url(#SVGID_2_);fill:#FFFFFF;}
	.st4{fill:#FFFFFF;}
	.st5{font-family:'Ubuntu-Bold';}
	.st6{font-size:67.0813px;}
	.st7{font-size:68.8276px;}
	.st8{font-size:53.6463px;}
	.st9{clip-path:url(#SVGID_4_);fill:#FFFFFF;}
	.st10{clip-path:url(#SVGID_6_);fill:#FFFFFF;}
	.st11{font-family:'Ubuntu';}
	.st12{font-size:38.9531px;}
</style>
<g id="intersted" class="st0">
	<path id="XMLID_81_" class="st1" d="M147.3,236.5c-21.8,5.2-43.1,12.9-63.6,22.8l-3.1,1.5l49.1,87.9l2.7-1.2
		c9.7-4.4,19.7-8.1,29.8-11"/>
	<path id="XMLID_18_" class="st1" d="M427.9,490.5c2.5,10,4.2,20.4,5.3,31l0.3,3l100.7-1.5l-0.2-3.4c-1.8-24.6-6.4-48.6-13.7-71.8"
		/>
	<g id="XMLID_71_">
		<g id="XMLID_41_">
			<circle id="circle" class="st2" cx="384.2" cy="253.9" r="236.9"/>
			<g id="XMLID_24_">
				<g>
					<defs>
						<circle id="SVGID_1_" cx="384.2" cy="253.9" r="236.9"/>
					</defs>
					<clipPath id="SVGID_2_">
						<use xlink:href="#SVGID_1_"  style="overflow:visible;"/>
					</clipPath>
					<path id="XMLID_21_" class="st3" d="M443.9,421.3c-10.8,0-6.5,3.7-27.9,17c-8.9,5.6-19.4,6.3-24.6,6.3l-0.1-0.1
						c0,0-0.5,0.1-1.6,0.1c-1,0-1.6-0.1-1.6-0.1l-0.1,0.1c-5.2,0-15.7-0.8-24.6-6.3c-21.4-13.4-17-17-27.9-17
						c-6.2,0-32.5,6.2-43.3,21.7c-16.4,23.6-18.5,103.6-18.5,103.6h232.2c0,0-2.1-80-18.6-103.6
						C476.4,427.5,450.1,421.3,443.9,421.3z M391.3,421.1c32-2.7,55.4-33.6,52.4-68.9s-31.3-61.8-63.3-59.1
						c-31.9,2.7-55.4,33.6-52.3,68.9C331.1,397.4,359.4,423.8,391.3,421.1z"/>
				</g>
			</g>
		</g>
		<g id="interessted">
			<text id="XMLID_39_" transform="matrix(1 0 0 1 488.1273 218.1694)" class="st4 st5 st6">?</text>
			<path id="XMLID_25_" class="st4" d="M410,283.2c-0.9,0-1.8-0.3-2.6-0.9c-1.4-1.1-1.9-2.9-1.4-4.6l11-33
				c-27.9-10.8-44.4-28.8-44.4-48.6c0-32.8,43.9-58.5,100-58.5s100,25.7,100,58.5s-43.9,58.5-100,58.5c-4.7,0-9.6-0.2-15-0.7
				l-45.4,28.7C411.5,282.9,410.7,283.2,410,283.2z M472.5,145.9c-50.5,0-91.7,22.5-91.7,50.1c0,16.8,16.4,33,42.7,42.2
				c2.1,0.8,3.3,3.1,2.6,5.2l-8.5,25.7l36.7-23.2c0.8-0.5,1.7-0.7,2.6-0.6c5.6,0.5,10.7,0.8,15.6,0.8c50.5,0,91.7-22.5,91.7-50.1
				C564.2,168.4,523.1,145.9,472.5,145.9z"/>
			<g id="XMLID_12_">
				<path id="XMLID_8_" class="st4" d="M303.2,165.5c-2,0-3.8-1.3-4.4-3.2c-0.8-2.4,0.6-5.1,3-5.9c12.9-4.1,22.1-9.8,24.8-24
					c0.5-2.5,2.9-4.2,5.5-3.7c2.5,0.5,4.2,2.9,3.7,5.5c-3.8,19.8-17.9,26.8-31.2,31.1C304.2,165.4,303.7,165.5,303.2,165.5z"/>
				<path id="XMLID_7_" class="st4" d="M321.8,174.8c-2,0-3.8-1.3-4.5-3.3c-0.8-2.5,0.6-5.1,3.1-5.8c8.4-2.6,24.2-12.7,24.2-32.4
					c0-2.6,2.1-4.7,4.7-4.7s4.7,2.1,4.7,4.7c0,25-19.3,37.7-30.8,41.3C322.8,174.7,322.3,174.8,321.8,174.8z"/>
				<path id="XMLID_6_" class="st4" d="M354.4,146.9c-2.1,0-4.3-0.1-6.3-0.2c-2.5-0.2-4.5-2.4-4.3-5c0.2-2.5,2.4-4.5,5-4.3
					c1.9,0.1,3.8,0.2,5.7,0.2c30.8,0,55.8-16.7,55.8-37.2s-25-37.2-55.8-37.2s-55.8,16.7-55.8,37.2c0,14.4,12.8,27.7,32.6,33.8
					c2.5,0.8,3.8,3.3,3.1,5.8c-0.8,2.5-3.4,3.8-5.8,3.1c-23.8-7.4-39.1-24.1-39.1-42.7c0-25.6,29.2-46.5,65.1-46.5
					s65.1,20.9,65.1,46.5C419.5,126.1,390.3,146.9,354.4,146.9z"/>
				<path id="XMLID_5_" class="st4" d="M359,277.1c-0.8,0-1.6-0.2-2.3-0.6l-56.3-31.9c-9.4,3.1-19.4,4.6-29.8,4.6
					c-41,0-74.4-25-74.4-55.8s33.4-55.8,74.4-55.8c17.9,0,35.1,4.8,48.6,13.5c2.1,1.4,2.8,4.3,1.4,6.4c-1.4,2.1-4.3,2.8-6.4,1.4
					c-12-7.7-27.4-12-43.5-12c-35.9,0-65.1,20.9-65.1,46.5c0,25.7,29.2,46.5,65.1,46.5c10.1,0,19.7-1.6,28.7-4.8
					c1.3-0.4,2.7-0.3,3.8,0.3l45.3,25.7l-20.1-42.3c-0.8-1.7-0.5-3.7,0.7-5.1c4.4-6.4,6.7-13.3,6.7-20.4c0-8.4-3.3-16.7-9.4-24
					c-1.7-2-1.4-4.9,0.5-6.5c2-1.7,4.9-1.4,6.5,0.5c7.6,8.9,11.6,19.3,11.6,30c0,8.3-2.5,16.5-7.1,23.9l25.3,53.2
					c0.9,1.8,0.5,4-1,5.4C361.3,276.7,360.2,277.1,359,277.1L359,277.1z"/>
			</g>
			<text id="XMLID_3_" transform="matrix(1 0 0 1 253.3119 218.1694)" class="st4 st5 st7">?</text>
			<text id="XMLID_28_" transform="matrix(1 0 0 1 457.6057 218.1694)" class="st4 st5 st6">?</text>
			<text id="XMLID_38_" transform="matrix(1 0 0 1 344.2206 117.1787)" class="st4 st5 st8">?</text>
			<text id="XMLID_40_" transform="matrix(1 0 0 1 427.0847 218.1685)" class="st4 st5 st6">?</text>
		</g>
	</g>
</g>
<g id="expert_1_">
	<path id="XMLID_77_" class="st1" d="M162.1,747.8c-10-2.9-19.9-6.5-29.5-10.8l-2.7-1.2l-49.1,87.9l3.1,1.5
		c20.5,9.9,41.6,17.5,63.4,22.7"/>
	<path id="XMLID_78_" class="st1" d="M520.2,636.6c7.2-22.9,11.8-46.8,13.6-71.2l0.2-3.4l-100.7-1.5l-0.3,3
		c-1.2,11.7-3.2,23.1-6.1,34.1"/>
	<g id="XMLID_65_">
		<g id="XMLID_20_">
			<circle id="circle_2_" class="st2" cx="384.2" cy="830.5" r="236.9"/>
			<g id="XMLID_33_">
				<g>
					<defs>
						<path id="SVGID_3_" d="M520.2,636.6c61,42.9,100.8,113.7,100.8,193.9c0,130.8-106.1,236.9-236.9,236.9
							S147.3,961.3,147.3,830.5s106-236.9,236.9-236.9C434.8,593.6,481.7,609.5,520.2,636.6"/>
					</defs>
					<clipPath id="SVGID_4_">
						<use xlink:href="#SVGID_3_"  style="overflow:visible;"/>
					</clipPath>
					<path id="XMLID_35_" class="st9" d="M443.9,997.9c-10.8,0-6.5,3.7-27.9,17c-8.9,5.6-19.4,6.3-24.6,6.3l-0.1-0.1
						c0,0-0.5,0.1-1.6,0.1c-1,0-1.6-0.1-1.6-0.1l-0.1,0.1c-5.2,0-15.7-0.8-24.6-6.3c-21.4-13.4-17-17-27.9-17
						c-6.2,0-32.5,6.2-43.3,21.7c-16.5,23.6-18.6,103.6-18.6,103.6h232.2c0,0-2.1-80-18.6-103.6
						C476.4,1004.1,450.1,997.9,443.9,997.9z M391.3,997.7c32-2.7,55.4-33.6,52.4-68.9c-3-35.3-31.3-61.8-63.3-59.1
						c-31.9,2.7-55.4,33.6-52.3,68.9C331.1,974,359.4,1000.4,391.3,997.7z"/>
				</g>
			</g>
		</g>
		<g id="expert">
			<path id="XMLID_13_" class="st4" d="M505.2,877.8l-90.5-59.9c-1.2-0.8-2.6-1.1-4-0.8l-100.3,21.2c-2,0.4-3.6,2-4.1,4l-0.6,2.7
				c-0.5,2.1,0.4,4.3,2.2,5.6l42,27.8l-1.7,7.7c-15.2,11.4-25,29.4-25,49.8c0,34.4,27.9,62.3,62.3,62.3c34.4,0,62.3-27.9,62.3-62.3
				c0-7.4-1.4-14.5-3.7-21c0.9-1.2,1.6-2.5,1.9-3.8l2.1-9.5l27.1-5.7c3.4,4.8,5.6,10.5,6.1,17.9c-2.8,1.4-4.7,4.3-4.7,7.6
				c0,2.8,1.3,5.2,3.4,6.8c-2.3,11.9-5.4,33.7,0.8,43.4c1.8,2.8,4.4,4.7,7.5,5.2c0.2,0,0.5,0.1,0.7,0.1c1.8,0,3.4-1.3,3.8-3.1
				c0.4-2.1-1-4.1-3.1-4.5c-0.7-0.1-1.6-0.5-2.4-1.9c-2.2-3.4-2.7-10.2-2.3-17.8c1.9,5.9,4.8,11.2,9.3,14.2c1.8,1.2,4.1,0.7,5.3-1.1
				s0.7-4.1-1.1-5.3c-6-4-8.6-17.6-9.1-28.6c2.6-1.5,4.4-4.2,4.4-7.4c0-3.4-2-6.3-4.8-7.6c-0.5-7.9-2.5-14.2-5.7-19.5l19.5-4.1
				c2-0.4,3.6-2,4.1-4l0.6-2.7C507.9,881.3,507,879,505.2,877.8z M401.4,857.1c0.1-0.7,0.8-1.3,2.1-1.5c2.6-0.5,6.6,0.3,9,1.8
				c1.2,0.8,1.7,1.6,1.6,2.3l-0.4,1.9c-0.1,0.7-0.8,1.3-2.1,1.5c-2.6,0.6-6.6-0.3-9-1.8c-1.2-0.8-1.7-1.6-1.6-2.3L401.4,857.1z"/>
			<path id="XMLID_49_" class="st4" d="M270,868.9c-6.1,0-11.1-5-11.1-11.1s5-11.1,11.1-11.1s11.1,5,11.1,11.1
				S276.1,868.9,270,868.9z M270,854.1c-2,0-3.7,1.7-3.7,3.7s1.7,3.7,3.7,3.7s3.7-1.7,3.7-3.7S272,854.1,270,854.1z"/>
			<path id="XMLID_46_" class="st4" d="M238.5,830c-12.2,0-22.2-10-22.2-22.2s10-22.2,22.2-22.2s22.2,10,22.2,22.2
				S250.8,830,238.5,830z M238.5,794.4c-7.3,0-13.3,6-13.3,13.3c0,7.4,6,13.3,13.3,13.3s13.3-6,13.3-13.3S245.9,794.4,238.5,794.4z"
				/>
			<path id="XMLID_43_" class="st4" d="M356.5,802.6c-59.7,0-108.3-39.3-108.3-87.7s48.6-87.7,108.3-87.7s108.3,39.3,108.3,87.7
				S416.2,802.6,356.5,802.6z M356.5,637.6c-54,0-98,34.7-98,77.3c0,42.7,44,77.4,98,77.4s98-34.7,98-77.4
				C454.5,672.3,410.5,637.6,356.5,637.6z"/>
			<g id="XMLID_4_">
				<path id="XMLID_57_" class="st4" d="M376.3,661.1c2.7-3,7.4-3.2,10.5-0.5c3,2.7,3.2,7.4,0.5,10.4c-2.8,3-7.4,3.3-10.4,0.5
					S373.5,664.1,376.3,661.1z"/>
				<path id="XMLID_56_" class="st4" d="M364.1,662.8c-1.8-1.9-1.7-4.9,0.1-6.7c1.9-1.8,4.9-1.7,6.7,0.1c1.8,1.9,1.7,4.9-0.2,6.7
					C368.9,664.7,365.9,664.6,364.1,662.8z"/>
				<path id="XMLID_55_" class="st4" d="M350.3,660.5c1.3-1.5,3.6-1.6,5.1-0.2s1.6,3.6,0.3,5.1s-3.6,1.6-5.1,0.2
					C349,664.2,348.9,662,350.3,660.5z"/>
				<path id="XMLID_52_" class="st4" d="M344.2,769.4l11.4-52.5l28.1-30.8l-15.1-13.7l-28.1,30.8l-51,16.4
					c-10.6,3.4-12.5,12.2-4.3,19.7l39.9,36.3C333.2,783,341.9,780.2,344.2,769.4z M327.6,765.5L295,735.8c-2.7-2.5-2.1-5.4,1.4-6.6
					l19-6.1c3,0,7.5,1.2,6.9,8.7c-0.4,5.6,1.1,8.3,2.7,9.7c1.2,1,2.8,1.3,4.3,1.1c2.1-0.3,7.2-0.4,7.9,6.3l-3.2,14.5
					C333.2,767.1,330.3,768,327.6,765.5z"/>
			</g>
		</g>
	</g>
</g>
<g id="not-interested" class="st0">
	<path id="XMLID_74_" class="st1" d="M71,389.6c7.7-7.6,16.1-14.6,25-21.1l2.4-1.7l-51.6-86.4l-2.8,1.9
		c-19.6,13.3-37.4,28.6-53.2,45.6"/>
	<path id="XMLID_75_" class="st1" d="M-9.1,756.5c15.9,17,33.7,32.4,53.4,45.7l2.8,1.9l51.6-86.4l-2.4-1.7
		c-9-6.5-17.4-13.6-25.2-21.2"/>
	<g id="XMLID_64_">
		<g id="XMLID_58_">
			<circle id="circle_3_" class="st2" cx="-110.2" cy="542.2" r="236.9"/>
			<g id="XMLID_59_">
				<g>
					<defs>
						<circle id="SVGID_5_" cx="-110.2" cy="542.2" r="236.9"/>
					</defs>
					<clipPath id="SVGID_6_">
						<use xlink:href="#SVGID_5_"  style="overflow:visible;"/>
					</clipPath>
					<path id="XMLID_61_" class="st10" d="M-50.4,709.6c-10.8,0-6.5,3.7-27.9,17c-8.9,5.6-19.4,6.3-24.6,6.3l-0.1-0.1
						c0,0-0.5,0.1-1.6,0.1c-1,0-1.6-0.1-1.6-0.1l-0.1,0.1c-5.2,0-15.7-0.8-24.6-6.3c-21.4-13.4-17-17-27.9-17
						c-6.2,0-32.5,6.2-43.3,21.7c-16.5,23.6-18.6,103.6-18.6,103.6H11.5c0,0-2.1-80-18.6-103.6C-17.9,715.8-44.2,709.6-50.4,709.6z
						 M-103,709.4c32-2.7,55.4-33.6,52.4-68.9c-3-35.3-31.3-61.8-63.3-59.1c-31.9,2.7-55.4,33.6-52.3,68.9
						C-163.3,685.7-134.9,712.1-103,709.4z"/>
				</g>
			</g>
		</g>
		<g id="dontcare">
			<text transform="matrix(1 0 0 1 -187.0275 431.564)" class="st4 st11 st12">Trust me,</text>
			<text transform="matrix(1 0 0 1 -212.1275 478.264)" class="st4 st11 st12">I don’t care !</text>
			<path id="XMLID_67_" class="st4" d="M-200.9,599.1c-3.3,0-5.9,2.7-5.9,5.9s2.7,5.9,5.9,5.9c3.3,0,5.9-2.7,5.9-5.9
				S-197.7,599.1-200.9,599.1z M-200.9,608.9c-2.1,0-3.8-1.7-3.8-3.8s1.7-3.8,3.8-3.8s3.8,1.7,3.8,3.8S-198.8,608.9-200.9,608.9z"/>
			<g id="XMLID_32_">
				<path id="XMLID_70_" class="st4" d="M-258.6,521.8c-11.2,0-20.4,9.1-20.4,20.4s9.1,20.4,20.4,20.4s20.4-9.1,20.4-20.4
					S-247.4,521.8-258.6,521.8z M-258.6,556.1c-7.7,0-13.9-6.2-13.9-13.9s6.2-13.9,13.9-13.9c7.7,0,13.9,6.2,13.9,13.9
					C-244.7,549.9-251,556.1-258.6,556.1z"/>
			</g>
			<path id="XMLID_29_" class="st4" d="M-103.9,556.6c-82.2,0-149-47.9-149-106.8s66.8-106.8,149-106.8c82.1,0,149,47.9,149,106.8
				S-21.7,556.6-103.9,556.6z M-103.9,355.6c-74.3,0-134.8,42.3-134.8,94.2c0,52,60.5,94.3,134.8,94.3s134.8-42.3,134.8-94.3
				S-29.6,355.6-103.9,355.6z"/>
			<path id="XMLID_9_" class="st4" d="M-235.5,596.9c-5.7,0-10.3-4.6-10.3-10.3s4.6-10.3,10.3-10.3s10.3,4.6,10.3,10.3
				S-229.8,596.9-235.5,596.9z M-235.5,580.4c-3.4,0-6.2,2.8-6.2,6.2s2.8,6.2,6.2,6.2s6.2-2.8,6.2-6.2S-232.1,580.4-235.5,580.4z"/>
		</g>
	</g>
</g>
</svg>
