<?xml version="1.0" encoding="utf-8"?>
<!-- Generator: Adobe Illustrator 19.0.0, SVG Export Plug-In . SVG Version: 6.00 Build 0)  -->
<svg version="1.1" id="Layer_1" xmlns="http://www.w3.org/2000/svg" xmlns:xlink="http://www.w3.org/1999/xlink" x="0px" y="0px"
	 viewBox="0 0 1093.6 1105.4" style="enable-background:new 0 0 1093.6 1105.4;" xml:space="preserve">
<style type="text/css">
	.st0{fill:#414042;stroke:#F1F2F2;stroke-width:5;stroke-miterlimit:10;}
	.st1{fill:none;stroke:#FFFFFF;stroke-width:16;stroke-miterlimit:10;}
	.st2{clip-path:url(#XMLID_17_);fill:#FFFFFF;}
	.st3{fill:#FFFFFF;}
	.st4{font-family:'Ubuntu-Bold';}
	.st5{font-size:67.0813px;}
	.st6{font-size:68.8276px;}
	.st7{font-size:53.6463px;}
	.st8{opacity:0.1;}
	.st9{clip-path:url(#XMLID_115_);fill:#FFFFFF;}
	.st10{clip-path:url(#XMLID_116_);fill:#FFFFFF;}
	.st11{font-family:'Ubuntu';}
	.st12{font-size:38.9531px;}
</style>
<g id="intersted">
	<path id="XMLID_81_" class="st0" d="M559.3,248.9c-21.8,5.2-43.1,12.9-63.6,22.8l-3.1,1.5l49.1,87.9l2.7-1.2
		c9.7-4.4,19.7-8.1,29.8-11"/>
	<path id="XMLID_18_" class="st0" d="M839.9,502.9c2.5,10,4.2,20.4,5.3,31l0.3,3l100.7-1.5l-0.2-3.4c-1.8-24.6-6.4-48.6-13.7-71.8"
		/>
	<g id="XMLID_71_">
		<g id="XMLID_41_">
			<circle id="circle" class="st1" cx="796.2" cy="266.3" r="236.9"/>
			<g id="XMLID_24_">
				<defs>
					<circle id="XMLID_16_" cx="796.2" cy="266.3" r="236.9"/>
				</defs>
				<clipPath id="XMLID_17_">
					<use xlink:href="#XMLID_16_"  style="overflow:visible;"/>
				</clipPath>
				<path id="XMLID_21_" class="st2" d="M855.9,433.7c-10.8,0-6.5,3.7-27.9,17c-8.9,5.6-19.4,6.3-24.6,6.3l-0.1-0.1
					c0,0-0.5,0.1-1.6,0.1c-1,0-1.6-0.1-1.6-0.1l-0.1,0.1c-5.2,0-15.7-0.8-24.6-6.3c-21.4-13.4-17-17-27.9-17
					c-6.2,0-32.5,6.2-43.3,21.7C687.8,479,685.7,559,685.7,559h232.2c0,0-2.1-80-18.6-103.6C888.4,439.9,862.1,433.7,855.9,433.7z
					 M803.3,433.5c32-2.7,55.4-33.6,52.4-68.9c-3-35.3-31.3-61.8-63.3-59.1c-31.9,2.7-55.4,33.6-52.3,68.9
					C743.1,409.8,771.4,436.2,803.3,433.5z"/>
			</g>
		</g>
		<g id="interessted">
			<text id="XMLID_39_" transform="matrix(1 0 0 1 900.1273 230.5694)" class="st3 st4 st5">?</text>
			<path id="XMLID_25_" class="st3" d="M822,295.6c-0.9,0-1.8-0.3-2.6-0.9c-1.4-1.1-1.9-2.9-1.4-4.6l11-33
				c-27.9-10.8-44.4-28.8-44.4-48.6c0-32.8,43.9-58.5,100-58.5s100,25.7,100,58.5c0,32.8-43.9,58.5-100,58.5c-4.7,0-9.6-0.2-15-0.7
				l-45.4,28.7C823.5,295.3,822.7,295.6,822,295.6z M884.5,158.3c-50.5,0-91.7,22.5-91.7,50.1c0,16.8,16.4,33,42.7,42.2
				c2.1,0.8,3.3,3.1,2.6,5.2l-8.5,25.7l36.7-23.2c0.8-0.5,1.7-0.7,2.6-0.6c5.6,0.5,10.7,0.8,15.6,0.8c50.5,0,91.7-22.5,91.7-50.1
				C976.2,180.8,935.1,158.3,884.5,158.3z"/>
			<g id="XMLID_12_">
				<path id="XMLID_8_" class="st3" d="M715.2,177.9c-2,0-3.8-1.3-4.4-3.2c-0.8-2.4,0.6-5.1,3-5.9c12.9-4.1,22.1-9.8,24.8-24
					c0.5-2.5,2.9-4.2,5.5-3.7c2.5,0.5,4.2,2.9,3.7,5.5c-3.8,19.8-17.9,26.8-31.2,31.1C716.2,177.8,715.7,177.9,715.2,177.9z"/>
				<path id="XMLID_7_" class="st3" d="M733.8,187.2c-2,0-3.8-1.3-4.5-3.3c-0.8-2.5,0.6-5.1,3.1-5.8c8.4-2.6,24.2-12.7,24.2-32.4
					c0-2.6,2.1-4.7,4.7-4.7s4.7,2.1,4.7,4.7c0,25-19.3,37.7-30.8,41.3C734.8,187.1,734.3,187.2,733.8,187.2z"/>
				<path id="XMLID_6_" class="st3" d="M766.4,159.3c-2.1,0-4.3-0.1-6.3-0.2c-2.5-0.2-4.5-2.4-4.3-5c0.2-2.5,2.4-4.5,5-4.3
					c1.9,0.1,3.8,0.2,5.7,0.2c30.8,0,55.8-16.7,55.8-37.2c0-20.5-25-37.2-55.8-37.2s-55.8,16.7-55.8,37.2
					c0,14.4,12.8,27.7,32.6,33.8c2.5,0.8,3.8,3.3,3.1,5.8c-0.8,2.5-3.4,3.8-5.8,3.1c-23.8-7.4-39.1-24.1-39.1-42.7
					c0-25.6,29.2-46.5,65.1-46.5s65.1,20.9,65.1,46.5C831.5,138.5,802.3,159.3,766.4,159.3z"/>
				<path id="XMLID_5_" class="st3" d="M771,289.5c-0.8,0-1.6-0.2-2.3-0.6L712.4,257c-9.4,3.1-19.4,4.6-29.8,4.6
					c-41,0-74.4-25-74.4-55.8s33.4-55.8,74.4-55.8c17.9,0,35.1,4.8,48.6,13.5c2.1,1.4,2.8,4.3,1.4,6.4c-1.4,2.1-4.3,2.8-6.4,1.4
					c-12-7.7-27.4-12-43.5-12c-35.9,0-65.1,20.9-65.1,46.5c0,25.7,29.2,46.5,65.1,46.5c10.1,0,19.7-1.6,28.7-4.8
					c1.3-0.4,2.7-0.3,3.8,0.3l45.3,25.7l-20.1-42.3c-0.8-1.7-0.5-3.7,0.7-5.1c4.4-6.4,6.7-13.3,6.7-20.4c0-8.4-3.3-16.7-9.4-24
					c-1.7-2-1.4-4.9,0.5-6.5c2-1.7,4.9-1.4,6.5,0.5c7.6,8.9,11.6,19.3,11.6,30c0,8.3-2.5,16.5-7.1,23.9l25.3,53.2
					c0.9,1.8,0.5,4-1,5.4C773.3,289.1,772.2,289.5,771,289.5L771,289.5z"/>
			</g>
			<text id="XMLID_3_" transform="matrix(1 0 0 1 665.3119 230.5694)" class="st3 st4 st6">?</text>
			<text id="XMLID_28_" transform="matrix(1 0 0 1 869.6058 230.5694)" class="st3 st4 st5">?</text>
			<text id="XMLID_38_" transform="matrix(1 0 0 1 756.2206 129.5787)" class="st3 st4 st7">?</text>
			<text id="XMLID_40_" transform="matrix(1 0 0 1 839.0848 230.5685)" class="st3 st4 st5">?</text>
		</g>
	</g>
</g>
<g id="expert_1_" class="st8">
	<path id="XMLID_77_" class="st0" d="M574.1,760.2c-10-2.9-19.9-6.5-29.5-10.8l-2.7-1.2l-49.1,87.9l3.1,1.5
		c20.5,9.9,41.6,17.5,63.4,22.7"/>
	<path id="XMLID_78_" class="st0" d="M932.2,649c7.2-22.9,11.8-46.8,13.6-71.2l0.2-3.4l-100.7-1.5l-0.3,3
		c-1.2,11.7-3.2,23.1-6.1,34.1"/>
	<g id="XMLID_65_">
		<g id="XMLID_20_">
			<circle id="circle_2_" class="st1" cx="796.2" cy="842.9" r="236.9"/>
			<g id="XMLID_33_">
				<defs>
					<path id="XMLID_34_" d="M932.2,649c61,42.9,100.8,113.7,100.8,193.9c0,130.8-106.1,236.9-236.9,236.9S559.3,973.7,559.3,842.9
						S665.3,606,796.2,606C846.8,606,893.7,621.9,932.2,649"/>
				</defs>
				<clipPath id="XMLID_115_">
					<use xlink:href="#XMLID_34_"  style="overflow:visible;"/>
				</clipPath>
				<path id="XMLID_35_" class="st9" d="M855.9,1010.3c-10.8,0-6.5,3.7-27.9,17c-8.9,5.6-19.4,6.3-24.6,6.3l-0.1-0.1
					c0,0-0.5,0.1-1.6,0.1c-1,0-1.6-0.1-1.6-0.1l-0.1,0.1c-5.2,0-15.7-0.8-24.6-6.3c-21.4-13.4-17-17-27.9-17
					c-6.2,0-32.5,6.2-43.3,21.7c-16.5,23.6-18.6,103.6-18.6,103.6h232.2c0,0-2.1-80-18.6-103.6
					C888.4,1016.5,862.1,1010.3,855.9,1010.3z M803.3,1010.1c32-2.7,55.4-33.6,52.4-68.9c-3-35.3-31.3-61.8-63.3-59.1
					c-31.9,2.7-55.4,33.6-52.3,68.9C743.1,986.4,771.4,1012.8,803.3,1010.1z"/>
			</g>
		</g>
		<g id="expert">
			<path id="XMLID_13_" class="st3" d="M917.2,890.2l-90.5-59.9c-1.2-0.8-2.6-1.1-4-0.8l-100.3,21.2c-2,0.4-3.6,2-4.1,4l-0.6,2.7
				c-0.5,2.1,0.4,4.3,2.2,5.6l42,27.8l-1.7,7.7c-15.2,11.4-25,29.4-25,49.8c0,34.4,27.9,62.3,62.3,62.3c34.4,0,62.3-27.9,62.3-62.3
				c0-7.4-1.4-14.5-3.7-21c0.9-1.2,1.6-2.5,1.9-3.8l2.1-9.5l27.1-5.7c3.4,4.8,5.6,10.5,6.1,17.9c-2.8,1.4-4.7,4.3-4.7,7.6
				c0,2.8,1.3,5.2,3.4,6.8c-2.3,11.9-5.4,33.7,0.8,43.4c1.8,2.8,4.4,4.7,7.5,5.2c0.2,0,0.5,0.1,0.7,0.1c1.8,0,3.4-1.3,3.8-3.1
				c0.4-2.1-1-4.1-3.1-4.5c-0.7-0.1-1.6-0.5-2.4-1.9c-2.2-3.4-2.7-10.2-2.3-17.8c1.9,5.9,4.8,11.2,9.3,14.2c1.8,1.2,4.1,0.7,5.3-1.1
				c1.2-1.8,0.7-4.1-1.1-5.3c-6-4-8.6-17.6-9.1-28.6c2.6-1.5,4.4-4.2,4.4-7.4c0-3.4-2-6.3-4.8-7.6c-0.5-7.9-2.5-14.2-5.7-19.5
				l19.5-4.1c2-0.4,3.6-2,4.1-4l0.6-2.7C919.9,893.7,919,891.4,917.2,890.2z M813.4,869.5c0.1-0.7,0.8-1.3,2.1-1.5
				c2.6-0.5,6.6,0.3,9,1.8c1.2,0.8,1.7,1.6,1.6,2.3l-0.4,1.9c-0.1,0.7-0.8,1.3-2.1,1.5c-2.6,0.6-6.6-0.3-9-1.8
				c-1.2-0.8-1.7-1.6-1.6-2.3L813.4,869.5z"/>
			<path id="XMLID_49_" class="st3" d="M682,881.3c-6.1,0-11.1-5-11.1-11.1c0-6.1,5-11.1,11.1-11.1s11.1,5,11.1,11.1
				C693.1,876.3,688.1,881.3,682,881.3z M682,866.5c-2,0-3.7,1.7-3.7,3.7c0,2,1.7,3.7,3.7,3.7s3.7-1.7,3.7-3.7
				C685.7,868.2,684,866.5,682,866.5z"/>
			<path id="XMLID_46_" class="st3" d="M650.5,842.4c-12.2,0-22.2-10-22.2-22.2s10-22.2,22.2-22.2c12.2,0,22.2,10,22.2,22.2
				S662.8,842.4,650.5,842.4z M650.5,806.8c-7.3,0-13.3,6-13.3,13.3c0,7.4,6,13.3,13.3,13.3c7.3,0,13.3-6,13.3-13.3
				C663.8,812.8,657.9,806.8,650.5,806.8z"/>
			<path id="XMLID_43_" class="st3" d="M768.5,815c-59.7,0-108.3-39.3-108.3-87.7c0-48.4,48.6-87.7,108.3-87.7
				c59.7,0,108.3,39.3,108.3,87.7C876.8,775.7,828.2,815,768.5,815z M768.5,650c-54,0-98,34.7-98,77.3c0,42.7,44,77.4,98,77.4
				c54,0,98-34.7,98-77.4C866.5,684.7,822.5,650,768.5,650z"/>
			<g id="XMLID_4_">
				<path id="XMLID_57_" class="st3" d="M788.3,673.5c2.7-3,7.4-3.2,10.5-0.5c3,2.7,3.2,7.4,0.5,10.4c-2.8,3-7.4,3.3-10.4,0.5
					S785.5,676.5,788.3,673.5z"/>
				<path id="XMLID_56_" class="st3" d="M776.1,675.2c-1.8-1.9-1.7-4.9,0.1-6.7c1.9-1.8,4.9-1.7,6.7,0.1c1.8,1.9,1.7,4.9-0.2,6.7
					C780.9,677.1,777.9,677,776.1,675.2z"/>
				<path id="XMLID_55_" class="st3" d="M762.3,672.9c1.3-1.5,3.6-1.6,5.1-0.2s1.6,3.6,0.3,5.1c-1.3,1.5-3.6,1.6-5.1,0.2
					C761,676.6,760.9,674.4,762.3,672.9z"/>
				<path id="XMLID_52_" class="st3" d="M756.2,781.8l11.4-52.5l28.1-30.8l-15.1-13.7l-28.1,30.8L701.5,732
					c-10.6,3.4-12.5,12.2-4.3,19.7l39.9,36.3C745.2,795.4,753.9,792.6,756.2,781.8z M739.6,777.9l-32.6-29.7
					c-2.7-2.5-2.1-5.4,1.4-6.6l19-6.1c3,0,7.5,1.2,6.9,8.7c-0.4,5.6,1.1,8.3,2.7,9.7c1.2,1,2.8,1.3,4.3,1.1c2.1-0.3,7.2-0.4,7.9,6.3
					l-3.2,14.5C745.2,779.5,742.3,780.4,739.6,777.9z"/>
			</g>
		</g>
	</g>
</g>
<g id="not-interested" class="st8">
	<path id="XMLID_74_" class="st0" d="M483,402c7.7-7.6,16.1-14.6,25-21.1l2.4-1.7l-51.6-86.4l-2.8,1.9
		c-19.6,13.3-37.4,28.6-53.2,45.6"/>
	<path id="XMLID_75_" class="st0" d="M402.9,768.9c15.9,17,33.7,32.4,53.4,45.7l2.8,1.9l51.6-86.4l-2.4-1.7
		c-9-6.5-17.4-13.6-25.2-21.2"/>
	<g id="XMLID_64_">
		<g id="XMLID_58_">
			<circle id="circle_3_" class="st1" cx="301.8" cy="554.6" r="236.9"/>
			<g id="XMLID_59_">
				<defs>
					<circle id="XMLID_60_" cx="301.8" cy="554.6" r="236.9"/>
				</defs>
				<clipPath id="XMLID_116_">
					<use xlink:href="#XMLID_60_"  style="overflow:visible;"/>
				</clipPath>
				<path id="XMLID_61_" class="st10" d="M361.6,722c-10.8,0-6.5,3.7-27.9,17c-8.9,5.6-19.4,6.3-24.6,6.3l-0.1-0.1
					c0,0-0.5,0.1-1.6,0.1c-1,0-1.6-0.1-1.6-0.1l-0.1,0.1c-5.2,0-15.7-0.8-24.6-6.3c-21.4-13.4-17-17-27.9-17
					c-6.2,0-32.5,6.2-43.3,21.7c-16.5,23.6-18.6,103.6-18.6,103.6h232.2c0,0-2.1-80-18.6-103.6C394.1,728.2,367.8,722,361.6,722z
					 M309,721.8c32-2.7,55.4-33.6,52.4-68.9c-3-35.3-31.3-61.8-63.3-59.1c-31.9,2.7-55.4,33.6-52.3,68.9
					C248.7,698.1,277.1,724.5,309,721.8z"/>
			</g>
		</g>
		<g id="dontcare">
			<text id="XMLID_2_" transform="matrix(1 0 0 1 224.9725 443.964)"><tspan x="0" y="0" class="st3 st11 st12">Trust me,</tspan><tspan x="-25.1" y="46.7" class="st3 st11 st12">I don’t care !</tspan></text>
			<path id="XMLID_67_" class="st3" d="M211.1,611.5c-3.3,0-5.9,2.7-5.9,5.9s2.7,5.9,5.9,5.9c3.3,0,5.9-2.7,5.9-5.9
				S214.3,611.5,211.1,611.5z M211.1,621.3c-2.1,0-3.8-1.7-3.8-3.8s1.7-3.8,3.8-3.8c2.1,0,3.8,1.7,3.8,3.8S213.2,621.3,211.1,621.3z
				"/>
			<g id="XMLID_32_">
				<path id="XMLID_70_" class="st3" d="M153.4,534.2c-11.2,0-20.4,9.1-20.4,20.4s9.1,20.4,20.4,20.4s20.4-9.1,20.4-20.4
					S164.6,534.2,153.4,534.2z M153.4,568.5c-7.7,0-13.9-6.2-13.9-13.9c0-7.7,6.2-13.9,13.9-13.9c7.7,0,13.9,6.2,13.9,13.9
					C167.3,562.3,161,568.5,153.4,568.5z"/>
			</g>
			<path id="XMLID_29_" class="st3" d="M308.1,569c-82.2,0-149-47.9-149-106.8c0-58.9,66.8-106.8,149-106.8
				c82.1,0,149,47.9,149,106.8C457.1,521.1,390.3,569,308.1,569z M308.1,368c-74.3,0-134.8,42.3-134.8,94.2
				c0,52,60.5,94.3,134.8,94.3c74.3,0,134.8-42.3,134.8-94.3S382.4,368,308.1,368z"/>
			<path id="XMLID_9_" class="st3" d="M176.5,609.3c-5.7,0-10.3-4.6-10.3-10.3c0-5.7,4.6-10.3,10.3-10.3c5.7,0,10.3,4.6,10.3,10.3
				C186.8,604.7,182.2,609.3,176.5,609.3z M176.5,592.8c-3.4,0-6.2,2.8-6.2,6.2c0,3.4,2.8,6.2,6.2,6.2c3.4,0,6.2-2.8,6.2-6.2
				C182.7,595.6,179.9,592.8,176.5,592.8z"/>
		</g>
	</g>
</g>
</svg>
