<svg xmlns="http://www.w3.org/2000/svg" xmlns:xlink="http://www.w3.org/1999/xlink" version="1.1" id="Layer_1" x="0px" y="0px" viewBox="0 0 100 100" enable-background="new 0 0 100 100" xml:space="preserve" height="100px" width="100px">
<path id="network" d="M85,71.3V70c0-10.5-9.9-15.5-17.8-19.5C59.8,46.7,55,43.9,55,40V28.7c3-1.7,5-5,5-8.7  c0-5.5-4.5-10-10-10s-10,4.5-10,10c0,3.7,2,6.9,5,8.7V40c0,3.9-4.8,6.7-12.2,10.5C24.9,54.5,15,59.5,15,70v1.3c-3,1.7-5,5-5,8.7  c0,5.5,4.5,10,10,10s10-4.5,10-10c0-3.7-2-6.9-5-8.7V70c0-4,4.9-6.8,12.3-10.6c2.5-1.3,5.2-2.6,7.7-4.2v16.2c-3,1.7-5,5-5,8.7  c0,5.5,4.5,10,10,10s10-4.5,10-10c0-3.7-2-6.9-5-8.7V55.1c2.5,1.6,5.2,3,7.7,4.2C70.1,63.2,75,66,75,70v1.3c-3,1.7-5,5-5,8.7  c0,5.5,4.5,10,10,10s10-4.5,10-10C90,76.3,88,73.1,85,71.3z M20,86c-3.3,0-6-2.7-6-6s2.7-6,6-6s6,2.7,6,6S23.3,86,20,86z M50,14  c3.3,0,6,2.7,6,6s-2.7,6-6,6s-6-2.7-6-6S46.7,14,50,14z M50,86c-3.3,0-6-2.7-6-6s2.7-6,6-6s6,2.7,6,6S53.3,86,50,86z M80,86  c-3.3,0-6-2.7-6-6s2.7-6,6-6s6,2.7,6,6S83.3,86,80,86z"/>
</svg>