<svg xmlns="http://www.w3.org/2000/svg" xmlns:xlink="http://www.w3.org/1999/xlink" version="1.1" id="&#1064;&#1072;&#1088;_1" x="0px" y="0px" width="100px" height="100px" viewBox="0 0 100 100" style="enable-background:new 0 0 100 100;" xml:space="preserve">
<g>
	<path d="M60.99,83.858h-5.699H43.73h-5.602c-1.597,0-3.067,1.731-3.067,5.687v0.094h11.561h17.34v-0.094   C63.962,85.59,62.588,83.858,60.99,83.858z"/>
	<path d="M55.291,14.492V5.823c0-1.596-5.779-2.89-5.779-2.89s-5.781,1.294-5.781,2.89v8.669c0,0,2.693-1.37,5.781-1.37   C52.599,13.122,55.291,14.492,55.291,14.492z"/>
	<path d="M60.909,78.076h-5.618V43.394c0,0-2.971,1.56-5.779,1.56c-2.808,0-5.781-1.56-5.781-1.56v34.683h-5.602   c-4.404,0-8.849,3.546-8.849,11.469c0,0,0,1.295,0,2.892s1.294,2.912,2.891,2.937l2.891,0.045h28.9c0,0,1.294,0,2.89,0   s2.89-1.294,2.89-2.89v-2.89C69.741,81.622,65.304,78.076,60.909,78.076z"/>
	<path d="M92.797,49.225l-10.083-21.33c0.44-0.641,0.637-1.444,0.452-2.264c-0.354-1.558-1.918-2.529-3.461-2.18l-18.757,4.263   c-0.621-5.798-5.473-10.331-11.437-10.331c-6.386,0-11.561,5.178-11.561,11.562c0,1.351,0.275,2.631,0.703,3.838l-21.573,4.902   c-1.558,0.355-2.533,1.902-2.18,3.461c0.108,0.479,0.361,0.878,0.662,1.225L7.022,63.712c-1.38,0.22-2.453,1.36-2.453,2.803   c0,4.883,7.103,11.075,15.088,11.075c7.98,0,15.082-6.192,15.082-11.075c0-1.567-1.25-2.827-2.807-2.874L20.616,42.81l21.655-4.918   c1.986,1.607,4.484,2.613,7.24,2.613c4.611,0,8.563-2.722,10.417-6.628l17.057-3.878l-9.092,19.226   c-1.47,0.14-2.633,1.333-2.633,2.839c0,4.884,7.104,11.075,15.089,11.075c7.981,0,15.081-6.191,15.081-11.075   C95.431,50.558,94.27,49.364,92.797,49.225z M28.636,63.626H10.17l7.832-19.576L28.636,63.626z M55.287,29.001   c-0.024,2.111-1.18,3.928-2.886,4.922c-0.853,0.497-1.83,0.803-2.89,0.803c-1.059,0-2.038-0.306-2.89-0.803   c-0.98-0.57-1.773-1.414-2.275-2.437c-0.38-0.771-0.616-1.625-0.616-2.542c0-3.192,2.588-5.781,5.781-5.781   c3.191,0,5.779,2.589,5.779,5.781C55.291,28.964,55.287,28.981,55.287,29.001z M71.117,49.175l9.229-19.522l9.23,19.522H71.117z"/>
</g>
</svg>