<svg xmlns="http://www.w3.org/2000/svg" xmlns:xlink="http://www.w3.org/1999/xlink" version="1.1" x="0px" y="0px" width="100px" height="100px" viewBox="0 0 100 100" enable-background="new 0 0 100 100" xml:space="preserve">
<g id="Captions">
</g>
<g id="Your_Icon">
	<path d="M96.389,93.092h-8.918c0.008-0.067,0.021-0.135,0.021-0.203v-7.515c0-0.945-0.775-1.72-1.72-1.72h-1.651V51.913   l5.057,2.432c0.704,0.338,1.449,0.5,2.186,0.5c1.882,0,3.688-1.058,4.559-2.866c1.21-2.516,0.151-5.536-2.365-6.748L33.146,16.185   c0.341-0.595,0.64-1.194,0.84-1.795c0.261-0.763,0.412-1.52,0.479-2.234c0.065-0.715,0.075-1.369-0.002-1.961   c-0.035-0.568-0.149-1.067-0.222-1.403c-0.085-0.347-0.153-0.546-0.153-0.546c-1.803-5.236-7.018-8.754-12.769-8.185   c0,0-0.209,0.021-0.559,0.087c-0.337,0.074-0.838,0.181-1.368,0.385c-0.571,0.175-1.162,0.458-1.783,0.815   c-0.621,0.36-1.246,0.813-1.831,1.369c-0.592,0.555-1.122,1.22-1.616,1.974c-0.517,0.734-1.021,1.536-1.522,2.378   c-0.996,1.692-1.901,3.595-2.674,5.584c-0.793,1.978-1.512,4.001-2.259,5.85c-0.741,1.854-1.451,3.572-1.979,5.097   c-0.522,1.527-0.915,2.827-1.147,3.764c-0.237,0.936-0.337,1.493-0.337,1.493c-0.305,1.737,0.046,3.609,1.13,5.172   c1.051,1.515,2.599,2.479,4.273,2.835v56.227H3.613c-0.945,0-1.72,0.773-1.72,1.72v3.468c0,0.947,0.774,1.721,1.72,1.721h92.775   c0.943,0,1.718-0.773,1.718-1.721v-3.468C98.106,93.865,97.332,93.092,96.389,93.092z M74.045,83.654   c-0.944,0-1.72,0.774-1.72,1.72v0.247L57.573,39.149l17.954,8.632v35.874H74.045z M65.072,76.138l-10.873-5.951l7.654-4.191   L65.072,76.138z M60.519,61.786l-6.638-4.685l4.198-2.997L60.519,61.786z M55.102,44.726l0.891,2.808l-2.198-1.752L55.102,44.726z    M52.174,44.493l-1.626-1.297h3.233L52.174,44.493z M57.048,50.959h-9.675l4.808-3.877L57.048,50.959z M56.173,52.98l-4.043,2.884   l-4.088-2.884H56.173z M52.137,58.344l7.231,5.107H44.976L52.137,58.344z M58.601,65.472l-6.505,3.562l-6.506-3.562H58.601z    M64.132,77.926H40.059l12.037-6.588L64.132,77.926z M63.202,79.948L51.923,84.83l-11.032-4.882H63.202z M66.526,80.713   l3.905,12.305l-15.99-7.074L66.526,80.713z M52.567,36.739l1.405,4.435h-3.565l1.507-4.747L52.567,36.739z M49.268,44.76   l1.293,1.033l-2.179,1.754L49.268,44.76z M46.271,54.204l4.114,2.903l-6.512,4.644L46.271,54.204z M42.498,66.085l7.491,4.102   l-10.642,5.826L42.498,66.085z M37.826,80.804l11.571,5.119l-15.297,6.621L37.826,80.804z M51.914,87.037l13.684,6.055H37.926   L51.914,87.037z M81.088,83.654h-2.526V49.239l2.526,1.215V83.654z M11.667,36.994c1.176-0.097,2.341-0.49,3.381-1.208   c0,0,0.467-0.323,1.215-0.93c0.756-0.602,1.773-1.503,2.941-2.614c1.167-1.117,2.431-2.481,3.807-3.928   c1.204-1.275,2.536-2.592,3.837-3.939L48.23,34.658L29.683,93.092H11.667V36.994z"/>
</g>
</svg>