<?xml version="1.0" encoding="UTF-8" standalone="no"?>
<!-- Generator: Adobe Illustrator 16.0.0, SVG Export Plug-In . SVG Version: 6.00 Build 0)  -->

<svg
   xmlns:ns="&amp;ns_sfw;"
   xmlns:dc="http://purl.org/dc/elements/1.1/"
   xmlns:cc="http://creativecommons.org/ns#"
   xmlns:rdf="http://www.w3.org/1999/02/22-rdf-syntax-ns#"
   xmlns:svg="http://www.w3.org/2000/svg"
   xmlns="http://www.w3.org/2000/svg"
   xmlns:sodipodi="http://sodipodi.sourceforge.net/DTD/sodipodi-0.dtd"
   xmlns:inkscape="http://www.inkscape.org/namespaces/inkscape"
   version="1.1"
   id="Layer_1"
   x="0px"
   y="0px"
   width="50px"
   height="50px"
   viewBox="0 0 50 50"
   enable-background="new 0 0 50 50"
   xml:space="preserve"
   inkscape:version="0.48.4 r9939"
   sodipodi:docname="myicon-r4.svg"><defs
     id="defs3012" /><sodipodi:namedview
     pagecolor="#ffffff"
     bordercolor="#666666"
     borderopacity="1"
     objecttolerance="10"
     gridtolerance="10"
     guidetolerance="10"
     inkscape:pageopacity="0"
     inkscape:pageshadow="2"
     inkscape:window-width="640"
     inkscape:window-height="480"
     id="namedview3010"
     showgrid="false"
     inkscape:zoom="4.72"
     inkscape:cx="25"
     inkscape:cy="25"
     inkscape:window-x="0"
     inkscape:window-y="24"
     inkscape:window-maximized="0"
     inkscape:current-layer="Layer_1" /><metadata
     id="metadata3002"><ns:sfw><ns:slices /><ns:sliceSourceBounds
         width="53.523"
         height="20.646"
         x="394.562"
         y="410.178"
         bottomLeftOrigin="true" /></ns:sfw><rdf:RDF><cc:Work
         rdf:about=""><dc:format>image/svg+xml</dc:format><dc:type
           rdf:resource="http://purl.org/dc/dcmitype/StillImage" /></cc:Work></rdf:RDF></metadata><g
     id="g3004"
     transform="matrix(0.91687245,0,0,1,1.6170247,0)"><path
       d="m 51.335,24.999 c 0,-3.116 -0.983,-6.128 -2.788,-8.991 -14.046,1.616 -30.301,2.779 -47.91,3.358 0.437,1.812 0.675,3.695 0.675,5.634 0,1.939 -0.238,3.822 -0.675,5.634 17.609,0.578 33.863,1.742 47.909,3.356 1.804,-2.861 2.789,-5.875 2.789,-8.991 z"
       id="path3006"
       inkscape:connector-curvature="0"
       style="fill:#2dabe3" /><path
       d="m 49.185,35.322 -0.781,-0.09 C 34.022,33.579 17.937,32.452 0.597,31.882 l -1.534,-0.05 0.36,-1.492 c 0.425,-1.761 0.64,-3.558 0.64,-5.341 0,-1.783 -0.215,-3.58 -0.64,-5.341 l -0.36,-1.492 1.534,-0.051 c 17.361,-0.571 33.447,-1.698 47.808,-3.351 l 0.781,-0.09 0.419,0.665 c 1.978,3.138 2.98,6.387 2.98,9.658 0,3.27 -1.003,6.52 -2.981,9.658 l -0.419,0.667 z M 2.166,29.435 c 16.522,0.575 31.895,1.659 45.725,3.223 1.457,-2.521 2.194,-5.094 2.194,-7.658 0,-2.565 -0.737,-5.138 -2.193,-7.658 -13.813,1.564 -29.184,2.647 -45.726,3.224 0.263,1.47 0.396,2.955 0.396,4.434 0,1.479 -0.133,2.965 -0.396,4.435 z"
       id="path3008"
       inkscape:connector-curvature="0"
       style="fill:#ffffff" /></g></svg>