<svg xmlns="http://www.w3.org/2000/svg" xmlns:xlink="http://www.w3.org/1999/xlink" version="1.1" x="0px" y="0px" viewBox="0 0 100 100" enable-background="new 0 0 100 100" xml:space="preserve" height="100px" width="100px">
<g id="Helper">
</g>
<g id="Layer_2">
	<g>
		<path fill-rule="evenodd" clip-rule="evenodd" d="M18.289,81.712c17.517,17.518,45.903,17.512,63.421,0    c17.517-17.517,17.517-45.906,0-63.423c-17.518-17.512-45.908-17.519-63.423,0C0.772,35.806,0.775,64.195,18.289,81.712z     M47.417,16.472c18.527-1.435,34.687,12.43,36.116,30.943c1.428,18.53-12.444,34.69-30.957,36.113    c-18.513,1.434-34.685-12.437-36.11-30.95C15.039,34.058,28.901,17.894,47.417,16.472z"/>
	</g>
	<g>
		<path d="M64.604,40.391c-3.099,0-5.606,2.507-5.606,5.606c0,3.099,2.507,5.606,5.606,5.606c3.092,0,5.606-2.507,5.606-5.606    C70.21,42.899,67.697,40.391,64.604,40.391z"/>
	</g>
	<g>
		<path d="M29.55,45.998c0,3.099,2.507,5.606,5.606,5.606c3.097,0,5.606-2.507,5.606-5.606c0-3.097-2.509-5.606-5.606-5.606    C32.057,40.391,29.55,42.9,29.55,45.998z"/>
	</g>
	<g>
		<path d="M63.695,75.756c-0.565,0-1.135-0.173-1.627-0.529c-2.04-1.48-6.357-1.477-8.394,0c-1.238,0.9-2.972,0.626-3.87-0.616    c-0.9-1.24-0.623-2.972,0.616-3.87c3.975-2.884,10.938-2.877,14.907,0c1.238,0.9,1.512,2.632,0.614,3.872    C65.397,75.359,64.551,75.756,63.695,75.756z"/>
	</g>
</g>
</svg>