<?xml version="1.0" encoding="UTF-8" standalone="no"?>
<!-- Generator: Adobe Illustrator 16.0.0, SVG Export Plug-In . SVG Version: 6.00 Build 0)  -->

<svg
   xmlns:dc="http://purl.org/dc/elements/1.1/"
   xmlns:cc="http://creativecommons.org/ns#"
   xmlns:rdf="http://www.w3.org/1999/02/22-rdf-syntax-ns#"
   xmlns:svg="http://www.w3.org/2000/svg"
   xmlns="http://www.w3.org/2000/svg"
   xmlns:sodipodi="http://sodipodi.sourceforge.net/DTD/sodipodi-0.dtd"
   xmlns:inkscape="http://www.inkscape.org/namespaces/inkscape"
   version="1.1"
   id="Layer_1"
   x="0px"
   y="0px"
   width="60"
   height="56"
   viewBox="0 0 60 56"
   enable-background="new 0 0 512 512"
   xml:space="preserve"
   inkscape:version="0.48.4 r9939"
   sodipodi:docname="myicon.svg"><metadata
     id="metadata8"><rdf:RDF><cc:Work
         rdf:about=""><dc:format>image/svg+xml</dc:format><dc:type
           rdf:resource="http://purl.org/dc/dcmitype/StillImage" /></cc:Work></rdf:RDF></metadata><defs
     id="defs6" /><sodipodi:namedview
     pagecolor="#ffffff"
     bordercolor="#666666"
     borderopacity="1"
     objecttolerance="10"
     gridtolerance="10"
     guidetolerance="10"
     inkscape:pageopacity="0"
     inkscape:pageshadow="2"
     inkscape:window-width="1855"
     inkscape:window-height="1056"
     id="namedview4"
     showgrid="false"
     inkscape:zoom="10.429825"
     inkscape:cx="39.837885"
     inkscape:cy="20.131142"
     inkscape:window-x="65"
     inkscape:window-y="24"
     inkscape:window-maximized="1"
     inkscape:current-layer="Layer_1" /><path
     id="user-14-icon"
     d="M 60.068009,38.864444 H 48.407544 C 48.40696,27.374879 42.063852,32.835981 42.063852,22.76759 c 0,-3.634484 2.62812,-5.606905 6.002358,-5.606905 4.985945,0 8.455873,4.310007 3.734389,12.369396 -1.551169,2.647811 1.651674,3.276977 5.092574,3.995554 3.439295,0.718181 3.174836,2.360037 3.174836,5.338809 z M 3.1540624,33.5259 C 6.5949632,32.807324 9.7978056,32.178155 8.2466363,29.530212 3.5251528,21.470955 6.9950811,17.160818 11.981026,17.160818 c 3.37453,0 6.002502,1.972552 6.002502,5.606904 0,10.068259 -6.343253,4.607421 -6.343836,16.096986 H -0.0207734 c 0,-2.979036 -0.26446022,-4.620892 3.1748358,-5.338808 z M 41.126499,32.1491 C 36.79857,31.244969 32.769963,30.453624 34.721104,27.123292 40.66001,16.985564 36.295176,11.564214 30.023837,11.564214 c -6.395183,0 -10.652365,5.629354 -4.697125,15.559078 2.009491,3.350671 -2.170964,4.141093 -6.405829,5.025808 -4.326179,0.903472 -3.993453,2.968604 -3.993453,6.715741 h 30.192521 c -1.45e-4,-3.747534 0.332872,-5.812269 -3.993452,-6.715741 z"
     inkscape:connector-curvature="0" /></svg>