<?xml version="1.0" encoding="UTF-8" standalone="no"?>
<svg
   xmlns:dc="http://purl.org/dc/elements/1.1/"
   xmlns:cc="http://creativecommons.org/ns#"
   xmlns:rdf="http://www.w3.org/1999/02/22-rdf-syntax-ns#"
   xmlns:svg="http://www.w3.org/2000/svg"
   xmlns="http://www.w3.org/2000/svg"
   xmlns:sodipodi="http://sodipodi.sourceforge.net/DTD/sodipodi-0.dtd"
   xmlns:inkscape="http://www.inkscape.org/namespaces/inkscape"
   version="1.1"
   id="Layer_1"
   x="0px"
   y="0px"
   width="100px"
   height="100px"
   viewBox="0 0 100 100"
   enable-background="new 0 0 100 100"
   xml:space="preserve"
   inkscape:version="0.48.4 r9939"
   sodipodi:docname="myicon-f2.svg"><metadata
     id="metadata15"><rdf:RDF><cc:Work
         rdf:about=""><dc:format>image/svg+xml</dc:format><dc:type
           rdf:resource="http://purl.org/dc/dcmitype/StillImage" /><dc:title></dc:title></cc:Work></rdf:RDF></metadata><defs
     id="defs13" /><sodipodi:namedview
     pagecolor="#ffffff"
     bordercolor="#666666"
     borderopacity="1"
     objecttolerance="10"
     gridtolerance="10"
     guidetolerance="10"
     inkscape:pageopacity="0"
     inkscape:pageshadow="2"
     inkscape:window-width="1920"
     inkscape:window-height="1056"
     id="namedview11"
     showgrid="false"
     inkscape:zoom="2.36"
     inkscape:cx="49.576271"
     inkscape:cy="50"
     inkscape:window-x="0"
     inkscape:window-y="24"
     inkscape:window-maximized="1"
     inkscape:current-layer="Layer_1" /><path
     d="m 33.384221,26.305225 c -2.460966,0 -4.455173,1.995653 -4.455173,4.455174 0,2.460962 1.99565,4.456614 4.455173,4.456614 2.459519,0 4.45517,-1.995652 4.45517,-4.456614 0,-2.459521 -1.995651,-4.455174 -4.45517,-4.455174 z m 0.861265,5.749964 c -1.190742,0 -2.156056,-0.965314 -2.156056,-2.156052 0,-1.190749 0.965314,-2.156061 2.156056,-2.156061 1.190747,0 2.156054,0.965312 2.156054,2.156061 0,1.190738 -0.963865,2.156052 -2.156054,2.156052 z"
     id="path5"
     inkscape:connector-curvature="0" /><path
     d="m 86.703207,37.803703 c 0,0 6.036084,-14.94643 -10.348192,-22.420362 0,0 -16.670403,-5.7485167 -22.994057,11.210899 l -4.024537,0.286128 c 0,0 -6.036086,-19.2570887 -25.58219,-10.34819 0,0 -12.359738,6.323654 -7.761504,20.12124 0,0 -15.5215673,2.586688 -14.9464268,20.408818 0,0 0.2861247,12.93488 14.6588538,17.24699 0,0 33.631267,33.628364 70.422915,-0.287571 0,0 12.072167,-2.874257 12.933435,-20.119805 0.001,-0.002 -0.284682,-12.936324 -12.358297,-16.098147 z m -53.894126,1.150281 c -4.682049,0 -8.479706,-3.796219 -8.479706,-8.47971 0,-4.683491 3.797657,-8.479712 8.479706,-8.479712 4.683494,0 8.479709,3.796221 8.479709,8.479712 -10e-4,4.682044 -3.797665,8.47971 -8.479709,8.47971 z m 37.366789,0 c -4.682049,0 -8.478264,-3.796219 -8.478264,-8.47971 0,-4.683491 3.796215,-8.479712 8.478264,-8.479712 4.683493,0 8.479712,3.796221 8.479712,8.479712 0,4.682044 -3.796219,8.47971 -8.479712,8.47971 z"
     id="path7"
     inkscape:connector-curvature="0" /><path
     d="m 70.749566,26.305225 c -2.45952,0 -4.455171,1.995653 -4.455171,4.455174 0,2.460962 1.995651,4.456614 4.455171,4.456614 2.460968,0 4.456612,-1.995652 4.456612,-4.456614 0,-2.459521 -1.995644,-4.455174 -4.456612,-4.455174 z m 0.864152,5.749964 c -1.190743,0 -2.156052,-0.965314 -2.156052,-2.156052 0,-1.190749 0.965309,-2.156061 2.156052,-2.156061 1.190741,0 2.156057,0.965312 2.156057,2.156061 0,1.190738 -0.965316,2.156052 -2.156057,2.156052 z"
     id="path9"
     inkscape:connector-curvature="0" /><g
     id="g6"
     transform="matrix(1.4257609,0,0,1.4257609,-21.090633,-26.744786)"
     style="fill:#ffffff"><path
       clip-rule="evenodd"
       d="M 65.747,67.496 C 56.991,58.742 42.793,58.742 34.046,67.491 l -0.005,0.005 c -1.094,1.095 -1.101,2.863 0,3.964 1.089,1.089 2.867,1.094 3.964,0 l 0.005,-0.006 c 6.564,-6.563 17.202,-6.569 23.774,0.006 1.094,1.094 2.871,1.1 3.967,0.005 1.095,-1.101 1.09,-2.873 -0.004,-3.969 z"
       id="path8"
       inkscape:connector-curvature="0"
       style="fill:#ffffff;fill-rule:evenodd" /></g><path
     d="m 85.995593,54.173347 c -5.42e-4,-0.03474 -0.002,-0.06831 -0.0034,-0.102328 -2.39e-4,-0.01055 -5.42e-4,-0.01989 -0.0012,-0.02924 -0.0094,-0.255232 -0.03139,-0.507111 -0.06569,-0.755153 -0.774326,-5.921864 -7.536175,-14.382384 -7.536175,-14.382384 0,0 -6.762092,8.46052 -7.536415,14.382384 -0.0343,0.248043 -0.05634,0.49992 -0.06591,0.755153 -3.25e-4,0.0093 -9.02e-4,0.0187 -0.0013,0.02924 -9.02e-4,0.03403 -0.0024,0.06758 -0.0029,0.102329 -0.0013,0.05369 -0.0024,0.107848 -0.0024,0.161527 0,0.05224 5.42e-4,0.10401 0.0024,0.154339 0.0822,4.130924 3.455816,7.453973 7.606393,7.453973 4.202099,0 7.608308,-3.40621 7.608308,-7.608072 0,-0.05392 -5.42e-4,-0.108084 -0.002,-0.161767 z m -9.627158,4.179576 c -0.634365,0.417 -1.707061,0.03403 -2.250118,-0.611118 -0.448873,-0.533233 -0.881688,-1.371305 -1.146746,-2.616546 -0.585713,-2.752434 2.050004,-7.26225 2.050004,-7.26225 -0.561988,2.010699 -0.571813,3.920746 -0.110242,5.505102 0.452469,1.55392 1.367951,2.798204 1.691484,3.221436 0.536824,0.702666 0.399983,1.346856 -0.234382,1.763376 z"
     id="path3"
     inkscape:connector-curvature="0"
     style="fill:#ffffff" /><path
     style="fill:#000000"
     d="m 75.190558,58.341771 c -1.31097,-0.389988 -2.41807,-2.804118 -2.182231,-4.758555 0.119243,-0.988221 0.613576,-2.583464 1.200523,-3.874138 l 0.451265,-0.992321 -0.05663,1.701071 c -0.08006,2.404747 0.302907,3.735954 1.697998,5.902321 0.277315,0.430631 0.504206,0.945575 0.504206,1.144325 0,0.694495 -0.788994,1.123056 -1.615128,0.877297 l 0,0 z"
     id="path3156"
     inkscape:connector-curvature="0" /></svg>