<?xml version="1.0" encoding="utf-8"?>
<!-- Generator: Adobe Illustrator 16.0.0, SVG Export Plug-In . SVG Version: 6.00 Build 0)  -->
<!DOCTYPE svg PUBLIC "-//W3C//DTD SVG 1.1//EN" "http://www.w3.org/Graphics/SVG/1.1/DTD/svg11.dtd" [
	<!ENTITY ns_extend "http://ns.adobe.com/Extensibility/1.0/">
	<!ENTITY ns_ai "http://ns.adobe.com/AdobeIllustrator/10.0/">
	<!ENTITY ns_graphs "http://ns.adobe.com/Graphs/1.0/">
	<!ENTITY ns_vars "http://ns.adobe.com/Variables/1.0/">
	<!ENTITY ns_imrep "http://ns.adobe.com/ImageReplacement/1.0/">
	<!ENTITY ns_sfw "http://ns.adobe.com/SaveForWeb/1.0/">
	<!ENTITY ns_custom "http://ns.adobe.com/GenericCustomNamespace/1.0/">
	<!ENTITY ns_adobe_xpath "http://ns.adobe.com/XPath/1.0/">
]>
<svg version="1.1" id="Layer_1" xmlns:x="&ns_extend;" xmlns:i="&ns_ai;" xmlns:graph="&ns_graphs;"
	 xmlns="http://www.w3.org/2000/svg" xmlns:xlink="http://www.w3.org/1999/xlink" x="0px" y="0px" width="100px" height="100px"
	 viewBox="0 0 100 100" enable-background="new 0 0 100 100" xml:space="preserve">
<metadata>
	<sfw  xmlns="&ns_sfw;">
		<slices></slices>
		<sliceSourceBounds  height="50.985" width="100.074" y="390.814" x="370.5" bottomLeftOrigin="true"></sliceSourceBounds>
	</sfw>
</metadata>
<g id="Captions">
</g>
<g id="Your_Icon">
	<path d="M100.002,29.616l-17.22,5.461l0.147,0.957l-7.448,2.158l0.815,4.366l-9.469-0.512l-11.492-6.144
		c0,0-3.85-1.531-12.689-1.376l-1.538,1.892l-17.523,1.954l0.317-2.504l-7.562-1.72l0.094-0.965L0,28.702V65.4L13.168,66.6
		l0.136-1.395l6.911-0.2l0.354-2.803l1.543,0.058c0.57,3.429,4.469,3.073,4.469,3.073s0.592-0.331,1.252-0.776L28.5,65.07
		l-1.583,1.179c-0.066,1.237,0.116,3.261,1.462,4.275c1.577,1.188,4.04,1.015,4.64,0.38c0.204-0.219,0.754-0.704,1.344-1.32
		l0.727,0.559l-2.124,2.511c1.864,3.956,6.771,2.99,6.771,2.99l0.924-1.213l0.714,0.549l-0.703,0.945
		c0.931,2.471,3.742,2.518,5.044,2.396l0.985,0.76l0.168,0.063c1.096,0.423,2.181,0.569,3.172,0.539
		c2.353-0.086,4.188-1.05,5.055-1.594c0.75,0.19,1.462,0.271,2.124,0.248c2.157-0.058,3.714-1.149,4.634-2.157
		c0.472-0.507,0.81-0.997,1.028-1.373c2.92-0.393,4.7-1.559,5.647-2.854c0.531-0.723,0.793-1.432,0.92-1.998
		c2.152-0.408,3.624-1.685,4.477-2.869c0.996-1.379,1.303-2.652,1.327-2.746l0.148-0.615l-1.453-1.694l5.683-1.609l1.24,6.643
		l6.91-0.202l0.218,1.386l12.075-1.907L100.002,29.616z M18.306,62.901l-4.503,0.132l3.607-26.429l4.107,0.935L18.306,62.901z
		 M71.646,65.987c-0.664,0.747-1.548,1.394-2.949,1.577l-9.322-11.449l-1.915,1.561l9.577,11.756
		c-0.07,0.294-0.207,0.674-0.492,1.056c-0.527,0.696-1.576,1.554-4.077,1.882l-6.544-8.514l-1.959,1.503l6.569,8.542
		c-0.188,0.268-0.434,0.571-0.738,0.854c-0.641,0.59-1.466,1.079-2.645,1.114c-0.446,0.018-0.96-0.044-1.541-0.203l-3.383-4.31
		l-1.941,1.524l2.765,3.52c-0.774,0.379-1.883,0.787-3.082,0.814c-0.658,0.02-1.345-0.063-2.051-0.313l-0.563-0.435l2.066-3.78
		c-0.428-4.102-4.298-2.754-4.298-2.754l-2.274,3.063l-0.695-0.532l2.537-3.34c0.853-5.991-4.864-4.588-4.864-4.588l-3.143,3.718
		l-0.826-0.635c0.393-0.745,0.556-1.501,0.189-2.153c-1.265-2.237-3.849-2.019-5.216-1.717l-1.221-0.94
		c0.207-0.974-0.989-3.2-3.41-3.53c-1.039-0.142-1.937,0.165-2.632,0.567l-2.688-0.099l2.389-18.857l15.618-1.739l-0.011,0.011
		c0,0,3.252,7.066,9.189,1.844l8.177,4.165l16.418,19.144C72.478,64.764,72.149,65.408,71.646,65.987z M82.653,64.852l-4.689-25.131
		l4.048-1.173l5.143,26.172L82.653,64.852z"/>
</g>
</svg>
