<?xml version="1.0" encoding="utf-8"?>
<!-- Generator: Adobe Illustrator 16.0.0, SVG Export Plug-In . SVG Version: 6.00 Build 0)  -->
<!DOCTYPE svg PUBLIC "-//W3C//DTD SVG 1.1//EN" "http://www.w3.org/Graphics/SVG/1.1/DTD/svg11.dtd" [
	<!ENTITY ns_extend "http://ns.adobe.com/Extensibility/1.0/">
	<!ENTITY ns_ai "http://ns.adobe.com/AdobeIllustrator/10.0/">
	<!ENTITY ns_graphs "http://ns.adobe.com/Graphs/1.0/">
	<!ENTITY ns_vars "http://ns.adobe.com/Variables/1.0/">
	<!ENTITY ns_imrep "http://ns.adobe.com/ImageReplacement/1.0/">
	<!ENTITY ns_sfw "http://ns.adobe.com/SaveForWeb/1.0/">
	<!ENTITY ns_custom "http://ns.adobe.com/GenericCustomNamespace/1.0/">
	<!ENTITY ns_adobe_xpath "http://ns.adobe.com/XPath/1.0/">
]>
<svg version="1.1" id="Layer_1" xmlns:x="&ns_extend;" xmlns:i="&ns_ai;" xmlns:graph="&ns_graphs;"
	 xmlns="http://www.w3.org/2000/svg" xmlns:xlink="http://www.w3.org/1999/xlink" x="0px" y="0px" width="50px" height="50px"
	 viewBox="0 0 50 50" enable-background="new 0 0 50 50" xml:space="preserve">
<metadata>
	<sfw  xmlns="&ns_sfw;">
		<slices></slices>
		<sliceSourceBounds  width="55.061" height="50" x="394.25" y="395.5" bottomLeftOrigin="true"></sliceSourceBounds>
	</sfw>
</metadata>
<path fill="#702BD9" d="M51.694,16.021C20.375,12.427,0,6.59,0,0v50c0-6.591,20.375-12.428,51.695-16.021
	c-1.799-2.858-2.781-5.867-2.781-8.979C48.916,21.888,49.896,18.88,51.694,16.021z"/>
<path fill="#FFFFFF" d="M1.25,50h-2.5V0h2.5c0,4.14,13.249,10.495,50.586,14.779l1.973,0.226l-1.057,1.681
	c-1.716,2.729-2.587,5.526-2.589,8.314c0,2.785,0.871,5.582,2.589,8.312l1.059,1.682l-1.974,0.227
	C14.499,39.505,1.25,45.859,1.25,50z M1.25,4.471v41.059c7.767-6.674,31.944-10.604,48.424-12.572
	c-1.335-2.606-2.011-5.275-2.011-7.957c0.002-2.684,0.677-5.353,2.01-7.957C33.194,15.074,9.017,11.144,1.25,4.471z"/>
</svg>
