<svg xmlns="http://www.w3.org/2000/svg" xmlns:xlink="http://www.w3.org/1999/xlink" version="1.1" x="0px" y="0px" viewBox="0 0 100 100" enable-background="new 0 0 100 100" xml:space="preserve" height="100px" width="100px">
<g id="Helper">
</g>
<g id="Layer_2">
	<g>
		<path fill-rule="evenodd" clip-rule="evenodd" d="M18.137,81.712c17.518,17.518,45.903,17.512,63.421,0    c17.517-17.517,17.517-45.906,0-63.423c-17.518-17.512-45.907-17.518-63.424,0C0.62,35.806,0.623,64.194,18.137,81.712z     M47.265,16.471c18.527-1.435,34.687,12.432,36.116,30.945c1.429,18.53-12.443,34.69-30.956,36.113    C33.911,84.964,17.74,71.092,16.314,52.578C14.888,34.059,28.749,17.894,47.265,16.471z"/>
	</g>
	<g>
		<path fill-rule="evenodd" clip-rule="evenodd" d="M33.993,60.177c8.756,8.753,22.954,8.753,31.701,0.005l0.005-0.005    c1.095-1.095,1.1-2.863,0-3.964c-1.089-1.089-2.868-1.095-3.963,0l-0.006,0.006c-6.563,6.564-17.202,6.569-23.774-0.006    c-1.094-1.095-2.871-1.1-3.966-0.005C32.893,57.309,32.898,59.081,33.993,60.177z"/>
	</g>
	<g>
		<path d="M70.176,47.098c-1.531,0-2.771-1.24-2.771-2.771c0-0.359-0.105-0.447-0.154-0.487c-0.127-0.105-0.396-0.218-0.771-0.218    c-0.247,0-1.051,0.051-1.051,0.705c0,1.531-1.24,2.771-2.771,2.771s-2.771-1.24-2.771-2.771c0-3.563,2.833-6.249,6.592-6.249    c1.622,0,3.157,0.535,4.319,1.502c1.385,1.155,2.148,2.84,2.148,4.747C72.947,45.858,71.707,47.098,70.176,47.098z"/>
	</g>
	<g>
		<path d="M37.034,47.098c-1.531,0-2.771-1.24-2.771-2.771c0-0.359-0.105-0.447-0.154-0.487c-0.127-0.105-0.396-0.218-0.771-0.218    c-0.247,0-1.051,0.051-1.051,0.705c0,1.531-1.24,2.771-2.771,2.771s-2.771-1.24-2.771-2.771c0-3.563,2.833-6.249,6.592-6.249    c1.622,0,3.157,0.535,4.319,1.502c1.385,1.155,2.148,2.84,2.148,4.747C39.804,45.858,38.565,47.098,37.034,47.098z"/>
	</g>
</g>
</svg>