<svg xmlns="http://www.w3.org/2000/svg" xmlns:xlink="http://www.w3.org/1999/xlink" version="1.1" id="Layer_1" x="0px" y="0px" width="100px" height="100px" viewBox="0 0 100 100" enable-background="new 0 0 100 100" xml:space="preserve">
<path d="M6.392,43.997L19.52,54.339l1.79-3.778c0,0,1.989,1.79,3.78,1.79c0,0,24.664,24.466,51.119-0.198  c0,0,1.392,0.198,2.983-1.393l0.996,3.779l12.929-10.343c0,0,17.106,16.908-8.752,39.185c0,0,11.736,1.591,12.133,12.133H56.915  c0,0-0.2-0.995,0.993-1.79c0,0-12.133,1.79-14.718-0.199c0,0,0.397,1.393,0,1.989H3.607c0,0-0.995-8.951,12.333-11.735  C15.939,83.778-9.72,64.883,6.392,43.997z"/>
<path d="M38.516,16.746c-1.703,0-3.083,1.381-3.083,3.083c0,1.703,1.381,3.084,3.083,3.084s3.083-1.381,3.083-3.084  C41.599,18.127,40.218,16.746,38.516,16.746z M39.112,20.725c-0.824,0-1.492-0.668-1.492-1.492s0.668-1.492,1.492-1.492  c0.824,0,1.492,0.668,1.492,1.492S39.937,20.725,39.112,20.725z"/>
<path d="M75.413,24.703c0,0,4.177-10.343-7.161-15.515c0,0-11.536-3.978-15.912,7.758l-2.785,0.198c0,0-4.177-13.326-17.703-7.161  c0,0-8.553,4.376-5.371,13.924c0,0-10.741,1.79-10.343,14.123c0,0,0.198,8.951,10.144,11.935c0,0,23.273,23.271,48.733-0.199  c0,0,8.354-1.989,8.95-13.923C83.966,35.841,83.768,26.891,75.413,24.703z M38.118,25.499c-3.24,0-5.868-2.627-5.868-5.868  c0-3.241,2.628-5.868,5.868-5.868c3.241,0,5.868,2.627,5.868,5.868C43.985,22.871,41.358,25.499,38.118,25.499z M63.976,25.499  c-3.24,0-5.867-2.627-5.867-5.868c0-3.241,2.627-5.868,5.867-5.868c3.241,0,5.868,2.627,5.868,5.868  C69.844,22.871,67.217,25.499,63.976,25.499z"/>
<path d="M64.373,16.746c-1.702,0-3.083,1.381-3.083,3.083c0,1.703,1.381,3.084,3.083,3.084c1.703,0,3.084-1.381,3.084-3.084  C67.457,18.127,66.076,16.746,64.373,16.746z M64.971,20.725c-0.824,0-1.492-0.668-1.492-1.492s0.668-1.492,1.492-1.492  s1.492,0.668,1.492,1.492S65.795,20.725,64.971,20.725z"/>
</svg>