<svg xmlns="http://www.w3.org/2000/svg" xmlns:xlink="http://www.w3.org/1999/xlink" version="1.1" id="Layer_1" x="0px" y="0px" width="100px" height="100px" viewBox="0 0 100 100" enable-background="new 0 0 100 100" xml:space="preserve">
<path d="M62.044,51.959c-0.098-2.723-3.284-5.341-7.535-6.742c4.251-1.401,7.437-4.019,7.535-6.738  c0.007-0.173,0.001-30.547-0.006-30.654c-0.225-4.108-2.54-6.66-6.042-6.66c-3.522,0-5.839,2.566-6.046,6.7  c-0.002,0.052-0.003,0.066,0.015,12.423l0.027,20.34c0.001,1.111-1.132,2.461-1.97,3.278c-0.838-0.814-1.973-2.163-1.972-3.282  l0.027-20.345c0.018-12.357,0.017-12.38,0.014-12.435c-0.207-4.13-2.523-6.713-6.045-6.713c-3.501,0-5.817,2.518-6.042,6.62  c-0.007,0.113-0.013,30.42-0.006,30.59c0.102,2.803,3.479,5.429,7.92,6.756c-4.441,1.367-7.819,4.058-7.919,6.859  c-0.009,0.229-0.003,40.511,0.005,40.654c0.226,4.108,2.542,6.66,6.042,6.66c3.523,0,5.839-2.565,6.045-6.699  c0.002-0.054,0.004-0.099-0.037-38.466l-0.004-4.298c-0.001-1.111,1.133-2.462,1.971-3.279c0.838,0.817,1.972,2.168,1.971,3.279  l-0.004,4.298c-0.042,38.367-0.04,38.412-0.037,38.469c0.206,4.131,2.521,6.696,6.045,6.696c3.501,0,5.816-2.552,6.042-6.653  C62.048,92.466,62.054,52.185,62.044,51.959z M60,17h-8c0-0.34,0-0.673,0-1h8c0.016,0,0-0.008,0-0.009C60,16.321,60,16.659,60,17z   M51.965,20.284c-0.001-0.434-0.001-0.862-0.002-1.284h8.083c0.001,2.94,0.001,6.098,0.002,9h-8.072L51.965,20.284z M50.548,44.1  c0.758-0.968,1.445-2.198,1.444-3.475L51.98,32h8.067c0,3.6-0.001,6.202-0.003,6.402C59.973,40.41,56.021,43.365,50.548,44.1z   M55.996,3.164c3.415,0,3.967,3.335,4.044,4.734c0.002,0.12,0.003,2.608,0.005,6.11C60.029,14.008,60.016,14,60,14h-8.044  c-0.006-3.542-0.009-5.938-0.009-6.04C52.02,6.518,52.559,3.164,55.996,3.164z M44.078,20.284L44.068,28H36c0-2.904,0-6.062,0-9  h8.08C44.08,19.422,44.079,19.85,44.078,20.284z M44.083,17H36c0-0.338,0-0.672,0-1h8c0.03,0,0.055-0.015,0.084-0.017  C44.084,16.316,44.083,16.654,44.083,17z M40.047,3.164c3.437,0,3.976,3.354,4.047,4.76c0.001,0.126-0.001,2.538-0.007,6.094  C44.057,14.015,44.031,14,44,14h-8.002c0.001-3.486,0.002-5.956,0.003-6.066C36.08,6.5,36.632,3.164,40.047,3.164z M35.998,38.428  c-0.001-0.208-0.002-2.82-0.002-6.428h8.067l-0.012,8.625c-0.001,1.276,0.687,2.507,1.444,3.476  C40.022,43.365,36.07,40.413,35.998,38.428z M36,76c0-0.991,0-1.994,0-3h8.076c0.001,1.012,0.002,2.014,0.003,3H36z M44.081,78  c0.002,2.544,0.005,4.927,0.007,7h-8.089c0-2.089-0.001-4.479-0.001-7H44.081z M36,71c0-1.35,0-2.69,0-4h8.069  c0.001,1.325,0.003,2.664,0.004,4H36z M36,63c0-1.048,0-2.052,0-3h8.062c0.001,0.972,0.002,1.975,0.003,3H36z M44.095,92.474  c-0.072,1.442-0.61,4.796-4.048,4.796c-3.415,0-3.966-3.336-4.044-4.732C36.001,92.396,36,90.242,35.999,87h8.091  C44.093,90.262,44.095,92.376,44.095,92.474z M44.051,49.809l0.004,4.298c0,0.599,0.001,1.236,0.002,1.894H36  c0-2.411,0-3.924,0-3.969c0-2.008,4.022-4.963,9.496-5.697C44.738,47.302,44.049,48.532,44.051,49.809z M60,52.005  c0,0.05,0,1.572,0,3.995h-8v4h8c0,0.948,0,1.952,0,3h-8.021c0.004-3.3,0.007-6.376,0.01-8.894l0.004-4.298  c0.002-1.276-0.708-2.507-1.466-3.476C55.999,47.068,60,50.02,60,52.005z M51.963,78H60c0,2.521,0,4.912,0,7h-8.045  C51.958,82.925,51.96,80.543,51.963,78z M51.965,76c0.001-0.986,0.002-1.988,0.003-3H60c0,1.006,0,2.009,0,3H51.965z M51.97,71  c0.002-1.336,0.003-2.675,0.005-4H60c0,1.311,0,2.65,0,4H51.97z M55.996,97.27c-3.438,0-3.976-3.354-4.047-4.759  c-0.001-0.107,0.001-2.236,0.004-5.511h8.092c-0.001,3.228-0.002,5.367-0.004,5.5C59.963,93.934,59.41,97.27,55.996,97.27z"/>
</svg>