<svg xmlns="http://www.w3.org/2000/svg" xmlns:xlink="http://www.w3.org/1999/xlink" version="1.1" id="Layer_1" x="0px" y="0px" width="100px" height="100px" viewBox="0 0 100 100" enable-background="new 0 0 100 100" xml:space="preserve">
<g>
	<path d="M54.758,5c0.383,0,0.766,0,1.149,0c0.012,0.009,0.023,0.024,0.036,0.026c1.089,0.149,1.98,0.693,2.8,1.386   c0.856,0.724,1.612,1.55,2.359,2.38c1.351,1.502,2.968,2.527,4.953,2.98c1.05,0.24,2.092,0.523,3.121,0.854   c2.133,0.687,3.429,2.09,3.841,4.313c0.207,1.115,0.345,2.238,0.492,3.361c0.224,1.706,0.776,3.269,1.867,4.622   c0.716,0.887,1.437,1.772,2.132,2.677c0.672,0.875,1.231,1.811,1.411,2.928c0.026,0.164-0.012,0.337,0.066,0.493   c0,0.077,0,0.154,0,0.23c-0.013,0.034-0.036,0.069-0.036,0.104c-0.022,0.723-0.23,1.401-0.497,2.065   c-0.44,1.098-1.023,2.126-1.622,3.14c-1.083,1.834-1.419,3.799-1.23,5.897c0.106,1.173,0.175,2.351,0.084,3.533   c-0.129,1.677-0.86,2.987-2.266,3.925c-0.987,0.657-2.065,1.134-3.127,1.644c-0.94,0.452-1.873,0.915-2.685,1.583   c-0.866,0.71-1.474,1.632-2.076,2.558c-0.067,0.104-0.017,0.189,0.013,0.282c0.644,1.963,1.288,3.927,1.932,5.89   c1.742,5.307,3.483,10.615,5.225,15.922c0.945,2.879,1.892,5.758,2.837,8.637c0.091,0.277,0.152,0.56,0.138,0.856   c-0.024,0.479-0.339,0.726-0.803,0.618c-0.082-0.019-0.163-0.044-0.242-0.073c-2.854-1.04-5.715-2.063-8.558-3.132   c-0.986-0.371-2.004,0.15-2.414,0.946c-1.567,3.05-3.146,6.095-4.717,9.143c-0.137,0.266-0.31,0.487-0.599,0.596   c-0.03,0-0.061,0-0.092,0c-0.314-0.103-0.498-0.34-0.628-0.626c-0.044-0.097-0.081-0.198-0.115-0.3   c-1.592-4.849-3.185-9.698-4.776-14.547c-0.974-2.967-1.948-5.933-2.922-8.899c-0.142-0.433-0.287-0.864-0.445-1.341   c-0.035,0.103-0.055,0.153-0.068,0.205c-0.387,1.457-0.773,2.915-1.16,4.371c-1.749,6.582-3.5,13.163-5.25,19.744   c-0.071,0.268-0.167,0.526-0.352,0.741c-0.23,0.268-0.523,0.287-0.783,0.052c-0.121-0.11-0.212-0.24-0.294-0.38   c-1.12-1.899-2.242-3.799-3.363-5.697c-0.615-1.042-1.238-2.079-1.845-3.126c-0.459-0.794-1.491-1.284-2.491-0.825   c-1.579,0.726-3.187,1.386-4.783,2.072c-1.216,0.523-2.431,1.049-3.649,1.567c-0.602,0.256-0.994-0.011-1.006-0.667   c-0.005-0.256,0.039-0.503,0.104-0.748c1.643-6.175,3.287-12.349,4.93-18.523c1.179-4.429,2.355-8.858,3.54-13.287   c0.051-0.19,0.008-0.25-0.177-0.294c-0.64-0.153-1.274-0.328-1.897-0.543c-0.515-0.178-1.012-0.395-1.486-0.665   c-1.289-0.731-1.958-1.892-2.299-3.287c-0.308-1.261-0.416-2.553-0.595-3.833c-0.227-1.614-0.743-3.104-1.759-4.402   c-0.467-0.598-0.945-1.186-1.424-1.774c-0.678-0.832-1.347-1.669-1.808-2.649c-0.207-0.438-0.316-0.904-0.436-1.368   c0-0.368,0-0.735,0-1.104c0.014-0.034,0.037-0.066,0.042-0.101c0.064-0.465,0.192-0.913,0.354-1.352   c0.415-1.127,1.036-2.15,1.603-3.2c0.47-0.869,0.928-1.745,1.172-2.711c0.295-1.168,0.233-2.354,0.167-3.54   c-0.061-1.085-0.151-2.167-0.082-3.258c0.111-1.748,0.852-3.115,2.328-4.081c1.062-0.696,2.21-1.224,3.362-1.74   c1.846-0.828,3.314-2.056,4.351-3.808c0.537-0.909,1.101-1.805,1.744-2.646c0.621-0.812,1.322-1.533,2.265-1.971   c1.052-0.488,2.161-0.516,3.287-0.393c1.173,0.129,2.321,0.407,3.483,0.599c0.848,0.141,1.7,0.23,2.56,0.13   c1.013-0.119,1.962-0.467,2.906-0.828c1.129-0.431,2.237-0.923,3.422-1.19C54.237,5.103,54.498,5.054,54.758,5z M68.937,33.499   c-0.007-10.38-8.28-18.891-18.761-18.966c-10.631-0.077-19.144,8.378-19.139,18.933c0.005,10.419,8.307,18.895,18.84,18.959   C60.427,52.489,68.937,43.985,68.937,33.499z"/>
</g>
</svg>