<?xml version="1.0" encoding="utf-8"?>
<!-- Generator: Adobe Illustrator 16.0.0, SVG Export Plug-In . SVG Version: 6.00 Build 0)  -->
<!DOCTYPE svg PUBLIC "-//W3C//DTD SVG 1.1//EN" "http://www.w3.org/Graphics/SVG/1.1/DTD/svg11.dtd" [
	<!ENTITY ns_extend "http://ns.adobe.com/Extensibility/1.0/">
	<!ENTITY ns_ai "http://ns.adobe.com/AdobeIllustrator/10.0/">
	<!ENTITY ns_graphs "http://ns.adobe.com/Graphs/1.0/">
	<!ENTITY ns_vars "http://ns.adobe.com/Variables/1.0/">
	<!ENTITY ns_imrep "http://ns.adobe.com/ImageReplacement/1.0/">
	<!ENTITY ns_sfw "http://ns.adobe.com/SaveForWeb/1.0/">
	<!ENTITY ns_custom "http://ns.adobe.com/GenericCustomNamespace/1.0/">
	<!ENTITY ns_adobe_xpath "http://ns.adobe.com/XPath/1.0/">
]>
<svg version="1.1" id="Livello_1" xmlns:x="&ns_extend;" xmlns:i="&ns_ai;" xmlns:graph="&ns_graphs;"
	 xmlns="http://www.w3.org/2000/svg" xmlns:xlink="http://www.w3.org/1999/xlink" x="0px" y="0px" width="100px" height="100px"
	 viewBox="0 0 100 100" enable-background="new 0 0 100 100" xml:space="preserve">
<metadata>
	<sfw  xmlns="&ns_sfw;">
		<slices></slices>
		<sliceSourceBounds  width="99.903" height="50.235" y="395.909" x="370.5" bottomLeftOrigin="true"></sliceSourceBounds>
	</sfw>
</metadata>
<path d="M79.271,54.939c-0.259-4.241-1.155-15.726-3.6-23.758c-0.507-1.665-10.072-5.489-19.559-3.424
	c-0.169,0.037-0.333,0.046-0.498,0.066c-4.447,1.059-8.457,2.683-12.131,4.189l-1.489,0.607c-1.467,0.599-3.609,1.473-5.657,1.473
	c-0.948,0-1.875-0.188-2.707-0.676c-0.276-0.162-0.367-0.518-0.206-0.793c0.162-0.275,0.516-0.366,0.793-0.206
	c2.133,1.254,5.39-0.076,7.339-0.869l1.485-0.608c2.933-1.201,6.078-2.479,9.49-3.496c-3.52-1.155-7.56-4.112-16.1-2.728
	c-3.332,0.541-10.033,5.958-10.419,8.586c-1.745,11.89-6.284,19.01-6.432,22.515c-0.003,0.086-0.003,0.169-0.002,0.249
	c0.022,0.998,0.449,1.676,1.485,2.061c4.331,1.606,12.367,2.479,21.582,2.545c1.959,0.047,3.93,0.022,5.917-0.064
	c10.597-0.302,21.991-1.604,30.797-4.008c0,0-0.009-0.168-0.021-0.469c0.006,0,0.013-0.003,0.021-0.004
	c1.68-0.329,1.928,6.332,0.305,6.886c-19.212,6.561-48.956,5.356-60.494,0c-1.639-0.76-0.48-5.814,0.411-7.195
	C8.013,57.782,0,60.989,0,64.558c0,6.181,22.322,10.033,49.855,10.033c27.541,0,47.737-5.209,49.859-10.033
	C101.276,61.011,93.013,57.104,79.271,54.939z"/>
</svg>
