<?xml version="1.0" encoding="UTF-8" standalone="no"?>
<!-- Generator: Adobe Illustrator 16.0.0, SVG Export Plug-In . SVG Version: 6.00 Build 0)  -->

<svg
   xmlns:ns="&amp;ns_sfw;"
   xmlns:dc="http://purl.org/dc/elements/1.1/"
   xmlns:cc="http://creativecommons.org/ns#"
   xmlns:rdf="http://www.w3.org/1999/02/22-rdf-syntax-ns#"
   xmlns:svg="http://www.w3.org/2000/svg"
   xmlns="http://www.w3.org/2000/svg"
   xmlns:sodipodi="http://sodipodi.sourceforge.net/DTD/sodipodi-0.dtd"
   xmlns:inkscape="http://www.inkscape.org/namespaces/inkscape"
   version="1.1"
   id="Layer_1"
   x="0px"
   y="0px"
   width="50px"
   height="50px"
   viewBox="0 0 50 50"
   enable-background="new 0 0 50 50"
   xml:space="preserve"
   inkscape:version="0.48.4 r9939"
   sodipodi:docname="myicon-r2.svg"><defs
     id="defs13" /><sodipodi:namedview
     pagecolor="#ffffff"
     bordercolor="#666666"
     borderopacity="1"
     objecttolerance="10"
     gridtolerance="10"
     guidetolerance="10"
     inkscape:pageopacity="0"
     inkscape:pageshadow="2"
     inkscape:window-width="640"
     inkscape:window-height="480"
     id="namedview11"
     showgrid="false"
     inkscape:zoom="4.72"
     inkscape:cx="25"
     inkscape:cy="25"
     inkscape:window-x="10"
     inkscape:window-y="34"
     inkscape:window-maximized="0"
     inkscape:current-layer="Layer_1" /><metadata
     id="metadata3"><ns:sfw><ns:slices /><ns:sliceSourceBounds
         width="53.52"
         height="20.619"
         x="393.164"
         y="410.19"
         bottomLeftOrigin="true" /></ns:sfw><rdf:RDF><cc:Work
         rdf:about=""><dc:format>image/svg+xml</dc:format><dc:type
           rdf:resource="http://purl.org/dc/dcmitype/StillImage" /></cc:Work></rdf:RDF></metadata><g
     id="g5"
     transform="matrix(0.91686935,0,0,1,2.5600441,0)"><path
       d="M 49.609,19.371 C 32.002,18.795 15.746,17.635 1.693,16.022 c -1.798,2.858 -2.78,5.867 -2.78,8.978 0,3.111 0.982,6.12 2.781,8.979 14.051,-1.612 30.307,-2.772 47.915,-3.349 -0.436,-1.812 -0.672,-3.692 -0.672,-5.63 0.001,-1.937 0.237,-3.819 0.672,-5.629 z"
       id="path7"
       inkscape:connector-curvature="0"
       style="fill:#322de3" /><path
       d="M 1.056,35.31 0.637,34.645 C -1.336,31.51 -2.336,28.265 -2.336,25 c 0,-3.265 1,-6.509 2.972,-9.644 l 0.419,-0.666 0.782,0.09 c 14.365,1.649 30.453,2.773 47.814,3.341 l 1.533,0.05 -0.359,1.492 c -0.422,1.757 -0.637,3.553 -0.637,5.336 0,1.783 0.215,3.579 0.638,5.338 l 0.358,1.491 -1.533,0.05 C 32.297,32.446 16.21,33.57 1.838,35.22 L 1.056,35.31 z M 2.35,17.355 C 0.899,19.872 0.164,22.44 0.164,25 c 0,2.56 0.735,5.129 2.187,7.646 C 16.174,31.085 31.546,30.004 48.082,29.431 47.82,27.962 47.687,26.478 47.687,25 c 0,-1.478 0.133,-2.962 0.395,-4.43 C 31.54,19.997 16.166,18.916 2.35,17.355 z"
       id="path9"
       inkscape:connector-curvature="0"
       style="fill:#ffffff" /></g></svg>