<svg xmlns="http://www.w3.org/2000/svg" xmlns:xlink="http://www.w3.org/1999/xlink" version="1.1" x="0px" y="0px" viewBox="0 0 100 100" enable-background="new 0 0 100 100" xml:space="preserve" height="100px" width="100px">
<g id="Helper">
</g>
<g id="Layer_2">
	<g>
		<path d="M66.092,67.521H33.659c-1.531,0-2.772-1.241-2.772-2.772c0-1.531,1.241-2.772,2.772-2.772h32.433    c1.531,0,2.772,1.241,2.772,2.772C68.864,66.28,67.623,67.521,66.092,67.521z"/>
	</g>
	<g>
		<path fill-rule="evenodd" clip-rule="evenodd" d="M18.111,81.711c17.518,17.518,45.903,17.512,63.421,0    c17.517-17.515,17.517-45.904,0-63.423c-17.518-17.512-45.907-17.517-63.424,0C0.594,35.807,0.596,64.196,18.111,81.711z     M47.239,16.472c18.527-1.435,34.687,12.432,36.116,30.945c1.429,18.53-12.443,34.69-30.956,36.113    c-18.514,1.434-34.685-12.437-36.111-30.952C14.862,34.059,28.722,17.896,47.239,16.472z"/>
	</g>
	<g>
		<path d="M64.425,40.393c-3.098,0-5.605,2.507-5.605,5.606c0,3.097,2.507,5.604,5.605,5.604c3.093,0,5.606-2.507,5.606-5.604    C70.031,42.9,67.518,40.393,64.425,40.393z"/>
	</g>
	<g>
		<path d="M29.372,45.997c0,3.099,2.507,5.606,5.605,5.606c3.098,0,5.606-2.507,5.606-5.606c0-3.096-2.508-5.606-5.606-5.606    C31.879,40.391,29.372,42.902,29.372,45.997z"/>
	</g>
</g>
</svg>