<svg xmlns="http://www.w3.org/2000/svg" xmlns:xlink="http://www.w3.org/1999/xlink" version="1.1" id="Layer_1" width="100" height="89.772" viewBox="0 0 100 89.772" overflow="visible" enable-background="new 0 0 100 89.772" xml:space="preserve">
<g>
	<g>
		<path fill-rule="evenodd" clip-rule="evenodd" d="M48.864,1.364c4.889-1.395,6.599,5.999,2.273,7.045    c-2.209,0.534-5.271-0.927-4.773-4.318C46.512,3.081,47.202,1.837,48.864,1.364z"/>
		<path fill-rule="evenodd" clip-rule="evenodd" d="M48.182,14.091c0.622,0.969,1.214,1.968,1.591,3.182    c-2.211-0.138-4.981,0.284-6.818-0.228c0.062-0.468,0.847-0.214,0.909-0.682c-2.659,0.986-3.973-0.915-5.682-1.591    c0.303-0.455,1.009-0.506,1.591-0.682c-2.579,0.025-4.829-0.037-6.364-1.591c0.538-0.75,1.812-0.763,2.727-1.136    c-3.331,0.175-10.443,1.579-12.045-1.818C25.793,7.932,28.447,6.473,31.364,5c1.819-0.918,8.883-4.439,10.909-1.364    c0.874,1.327,0.152,3.249,0.227,5C42.646,12.036,43.883,14.173,48.182,14.091z"/>
		<path fill-rule="evenodd" clip-rule="evenodd" d="M55.682,17.273c-1.818,0-3.636,0-5.455,0c0.159-1.356,0.955-2.076,1.364-3.182    c6.029,0.35,5.402-3.628,5.455-7.955c0.03-2.57,1.478-3.944,4.772-3.636C66.77,2.963,71.95,7.287,75.909,9.318    c-1.536,3.5-8.358,2.559-12.272,1.818c0.762,0.45,1.677,0.748,2.727,0.909c-0.877,2.081-3.506,2.282-6.363,1.818    c0.436,0.398,1.185,0.481,1.818,0.682c-1.503,1.207-3.534,2.378-5.909,2.045l-0.341,0.265L55.682,17.273z"/>
		<path fill-rule="evenodd" clip-rule="evenodd" d="M47.273,8.409c1.847,0.26,3.607,0.26,5.455,0    c-0.309,1.131-0.949,1.93-2.273,2.045c0.063,0.694,1.016,0.499,1.136,1.136c0.086,2.207-0.734,3.509-1.818,4.545    c-0.328-1.642-1.727-2.212-1.364-4.545c0.403-0.203,0.29-0.922,1.136-0.682C48.733,10.13,47.454,9.819,47.273,8.409z"/>
		<path fill-rule="evenodd" clip-rule="evenodd" d="M28.182,13.182c-5.393,1.968-13.695,5.534-21.136,5    c-2.924-0.209-5.458-1.138-6.818-3.409c7.987-1.256,15.888-2.598,22.728-5c0.821,1.831,2.812,2.49,5.227,2.727l-0.113,0.341    L28.182,13.182z"/>
		<path fill-rule="evenodd" clip-rule="evenodd" d="M71.818,12.5c1.995-0.504,4.573-0.426,4.772-2.727    c7.177,2.066,14.494,3.991,22.955,4.772c-5.354,7.595-20.611,1.111-27.728-1.364l0.113-0.341L71.818,12.5z"/>
		<path fill-rule="evenodd" clip-rule="evenodd" d="M35.227,14.318c-4.656,3.291-11.44,7.274-20.454,6.591    c-2.136-0.162-4.603-0.551-5.682-2.045c7.242-1.076,16.136-3.073,21.591-6.364C32.512,11.396,33.896,14.548,35.227,14.318z"/>
		<path fill-rule="evenodd" clip-rule="evenodd" d="M89.546,19.545c-8.966,3.709-19.083-1.122-24.773-5    c1.285-0.931,2.322-2.177,4.091-2.045c1.279,0.095,3.117,1.418,4.773,2.045c4.575,1.733,10.643,3.37,15.909,4.318l-0.114,0.341    L89.546,19.545z"/>
		<path fill-rule="evenodd" clip-rule="evenodd" d="M40.455,17.273c-5.304,2.578-13.544,8.693-20.682,4.318    c5.668-0.803,11.679-4.405,16.136-6.591C37.043,14.444,39.708,15.977,40.455,17.273z"/>
		<path fill-rule="evenodd" clip-rule="evenodd" d="M80.228,21.364c-6.306,4.795-15.608-1.315-20.682-4.091    c0.929-1.48,2.776-2.443,4.317-2.273c1.009,0.111,2.305,1.36,3.637,2.045C71.001,18.846,75.794,20.734,80.228,21.364z"/>
		<path fill-rule="evenodd" clip-rule="evenodd" d="M35.682,21.136c-0.593,0.846-1.49,1.389-1.818,2.5    c-0.91-0.15-1.978-0.143-2.728-0.455l0.114-0.341L31.136,22.5c1.219-0.675,2.487-1.301,3.864-1.818l0.295,0.295L35.682,21.136z"/>
		<path fill-rule="evenodd" clip-rule="evenodd" d="M64.546,20.455c1.881,0.619,3.252,1.748,5.227,2.272    c-0.554,0.885-2.417,0.461-3.409,0.909c-0.987-0.528-1.343-1.687-2.045-2.5l0.309-0.276L64.546,20.455z"/>
		<path fill-rule="evenodd" clip-rule="evenodd" d="M49.773,17.727c0.064,1.201-0.013,2.26-0.455,2.955    c-0.911-0.68-1.581-1.601-2.728-2.045C47.083,17.765,48.322,17.641,49.773,17.727z"/>
		<path fill-rule="evenodd" clip-rule="evenodd" d="M53.409,18.636c-0.726,0.865-1.969,1.213-2.5,2.273    c-0.786-0.502-0.719-1.857-0.909-2.955C51.163,17.332,52.887,17.884,53.409,18.636z"/>
		<path fill-rule="evenodd" clip-rule="evenodd" d="M55.228,45.227c2.146-0.54,5.115-2.761,2.727-5.682    c-1.044-1.277-3.536-2.056-6.136-2.272c-5.412-0.451-11.271-0.284-15-3.409c-2.191-1.835-4.316-6.736-2.045-10.682    c1.813-3.15,8.001-5.537,11.136-4.318c0.915,0.356,2.876,1.288,2.955,2.727c-0.877,1.366-2.326,1.83-3.864,1.818    c-1.229-0.009-2.206-0.848-3.409-0.682c-2.027,0.281-3.966,3.285-2.955,6.137c0.782,2.204,4.722,3.579,8.637,3.863    c5.462,0.398,11.477,0.565,14.318,4.318c2.53,3.343,1.516,9.367-2.5,10.909c-1.237-0.657-2.294-1.494-3.637-2.045l-0.113-0.341    L55.228,45.227z M44.773,20.227c0.663,0.334,0.663-1.016,0-0.682C44.773,19.773,44.773,20,44.773,20.227z"/>
		<path fill-rule="evenodd" clip-rule="evenodd" d="M56.137,32.273c2.155-1.028,4.888-1.499,5.454-3.637    c0.672-2.538-0.688-5.454-2.728-5.909c-1.235-0.275-2.232,0.646-3.636,0.682c-1.898,0.049-3.104-0.676-4.091-1.818    c1.423-4.33,8.898-3.467,12.5-0.455c4.616,3.863,2.825,11.969-2.5,14.091c-1.789-0.635-3.238-1.61-5-2.272l0.113-0.341    L56.137,32.273z M55.454,20.227c0.013-0.391-0.175-0.583-0.454-0.682C54.675,19.877,54.666,20.426,55.454,20.227z"/>
		<path fill-rule="evenodd" clip-rule="evenodd" d="M49.773,20.682c2.338,1.98,1.417,7.22,1.59,11.364c-0.909,0-1.818,0-2.727,0    C48.74,27.479,48.053,23.434,49.773,20.682z"/>
		<path fill-rule="evenodd" clip-rule="evenodd" d="M44.091,38.182c-1.441,0.929-3.128,1.81-2.955,3.864    c0.31,3.665,6.224,3.36,11.136,3.864c6.216,0.637,11.242,7.357,5.228,12.728c-1.421-0.474-2.222-1.566-3.863-1.818    c1.165-1.072,2.868-0.974,3.182-2.5c0.441-2.152-1.855-4.191-3.864-4.545c-1.234-0.218-2.584,0.063-3.863,0    c-7.938-0.396-16.134-5.16-9.772-13.409c1.536,0.433,3.003,0.936,4.545,1.363l-0.114,0.341L44.091,38.182z"/>
		<path fill-rule="evenodd" clip-rule="evenodd" d="M48.636,37.955c0.909,0,1.818,0,2.727,0c0.177,2.676-0.335,4.665-0.227,7.272    c-0.833,0-1.667,0-2.5,0C48.636,42.803,48.636,40.379,48.636,37.955z"/>
		<path fill-rule="evenodd" clip-rule="evenodd" d="M45.682,50c-1.296,1.216-2.66,2.424-2.272,4.318    c0.525,2.57,4.042,2.103,7.728,2.5c5.771,0.622,9.604,7.859,3.863,11.591c-1.158-0.433-1.985-1.197-3.637-1.137    c1.704-1.144,4.106-1.328,3.637-4.318C54.527,59.943,51.583,60.3,47.727,60c-3.653-0.284-6.491-1.577-7.727-4.546    c-0.287-3.014,0.382-5.072,1.591-6.59C43.022,49.175,43.968,49.971,45.682,50z"/>
		<path fill-rule="evenodd" clip-rule="evenodd" d="M48.864,50.227c0.757,0,1.515,0,2.273,0c0,2.122,0,4.243,0,6.364    c-0.758,0-1.516,0-2.273,0C48.864,54.47,48.864,52.349,48.864,50.227z"/>
		<path fill-rule="evenodd" clip-rule="evenodd" d="M46.591,60.682C45.556,61.45,44.959,62.63,45,63.637    c0.195,4.811,9.89,2.263,10.682,7.727c0.255,1.76-0.397,4.334-2.954,5.228c-0.512-0.397-1.278-0.54-1.818-0.909    c2.118-0.733,3.479-2.965,2.272-4.772c-1.052-1.576-3.706-0.849-6.136-1.591c-3.464-1.058-6.617-5.596-3.636-9.546    C44.711,59.834,45.453,60.457,46.591,60.682z"/>
		<path fill-rule="evenodd" clip-rule="evenodd" d="M48.864,60.228c0.682,0,1.363,0,2.045,0c0,2.121,0,4.242,0,6.363    c-0.606,0-1.212,0-1.818,0C48.784,64.701,48.863,62.425,48.864,60.228z"/>
		<path fill-rule="evenodd" clip-rule="evenodd" d="M52.272,82.728c2.197-5.623-4.357-4.725-6.591-7.046    c-1.477-1.535-1.635-3.999-0.455-6.363c1.191-0.055,1.72,0.553,2.728,0.682c-2.43,1.662-1.586,4.042,0.455,5.228    c1.561,0.906,4.243,1.266,5,3.182c0.33,0.836,0.618,3.757-0.682,4.772l-0.114-0.341L52.272,82.728z"/>
		<path fill-rule="evenodd" clip-rule="evenodd" d="M50.568,84.091l0.113,0.228c-0.076,0-0.151,0-0.227,0    c0.02,0.322,0.038,0.644-0.228,0.682L50,84.603l-0.455-0.057c0-0.076,0-0.152,0-0.228l-0.114-0.228l-0.113-0.228    c0.076,0,0.151,0,0.227,0c0.029-0.517-0.177-1.105-0.227-1.817c-0.1-1.415-0.29-3.496,0.455-4.092    c1.178-0.011,0.647,1.679,0.682,2.728c0.037,1.114-0.028,2.295,0,3.182L50.568,84.091z"/>
		<path fill-rule="evenodd" clip-rule="evenodd" d="M47.311,82.387l-0.265,0.341c-1.407-1.343-0.543-6.626,1.591-5    c0.686,0.34-0.975,1.287-1.136,2.5c-0.11,0.827,0.216,1.354,0.227,2.272L47.311,82.387z"/>
		<path fill-rule="evenodd" clip-rule="evenodd" d="M49.091,70c0.53,0,1.061,0,1.591,0c0,1.818,0,3.637,0,5.454    c-0.455,0-0.909,0-1.363,0C48.816,74.062,49.222,71.764,49.091,70z"/>
		<g>
			<path fill-rule="evenodd" clip-rule="evenodd" fill="none" stroke="#000000" stroke-width="0.7066" stroke-linecap="round" d="     M55.568,16.856c0.151,0.042,0.303,0.059,0.454,0.076"/>
			<path fill-rule="evenodd" clip-rule="evenodd" fill="none" stroke="#000000" stroke-width="0.5567" stroke-linecap="round" d="     M29.091,12.727c-0.255-0.026-0.656,0.071-1.022,0.114"/>
			<path fill-rule="evenodd" clip-rule="evenodd" fill="none" stroke="#000000" stroke-width="0.5618" stroke-linecap="round" d="     M70.909,12.727c0.255-0.026,0.656,0.071,1.022,0.114"/>
			<path fill-rule="evenodd" clip-rule="evenodd" fill="none" stroke="#000000" stroke-width="0.6013" stroke-linecap="round" d="     M89.432,19.205c0.228-0.041,0.455-0.089,0.682-0.114"/>
			<path fill-rule="evenodd" clip-rule="evenodd" fill="none" stroke="#000000" stroke-width="0.6182" stroke-linecap="round" d="     M30.682,22.955c0.148-0.041,0.368-0.089,0.568-0.114"/>
			<path fill-rule="evenodd" clip-rule="evenodd" fill="none" stroke="#000000" stroke-width="0.711" stroke-linecap="round" d="     M35.295,20.977c3.079-2.198,6.657-3.762,10.5-2.909"/>
			<path fill-rule="evenodd" clip-rule="evenodd" fill="none" stroke="#000000" stroke-width="0.6636" stroke-linecap="round" d="     M54.204,18.068c3.813-0.872,7.328,0.761,10.423,2.792"/>
			<path fill-rule="evenodd" clip-rule="evenodd" fill="none" stroke="#000000" stroke-width="0.6361" stroke-linecap="round" d="     M54.772,45.455c0.147,0.041,0.368,0.089,0.568,0.114"/>
			<path fill-rule="evenodd" clip-rule="evenodd" fill="none" stroke="#000000" stroke-width="0.6528" stroke-linecap="round" d="     M55.796,32.5c0.151,0.062,0.303,0.089,0.454,0.114"/>
			<path fill-rule="evenodd" clip-rule="evenodd" fill="none" stroke="#000000" stroke-width="0.4821" stroke-linecap="round" d="     M43.75,38.068c0.234-0.08,0.403-0.087,0.568-0.114"/>
			<path fill-rule="evenodd" clip-rule="evenodd" fill="none" stroke="#000000" stroke-width="0.6575" stroke-linecap="round" d="     M50,87.841c-0.038-1.068-0.278-2.184,0-3.238"/>
			<path fill-rule="evenodd" clip-rule="evenodd" fill="none" stroke="#000000" stroke-width="0.6201" stroke-linecap="round" d="     M49.432,84.091c-0.85-0.258-1.87-0.719-2.121-1.704"/>
			<path fill-rule="evenodd" clip-rule="evenodd" fill="none" stroke="#000000" stroke-width="0.5745" stroke-linecap="round" d="     M50.568,84.091c0.835,0.004,1.471-0.688,2.045-1.25"/>
		</g>
	</g>
</g>
</svg>