<svg xmlns="http://www.w3.org/2000/svg" xmlns:xlink="http://www.w3.org/1999/xlink" version="1.1" x="0px" y="0px" width="100px" height="100px" viewBox="0 0 100 100" enable-background="new 0 0 100 100" xml:space="preserve">
<g id="Captions">
</g>
<g id="Your_Icon">
	<path d="M92.897,42.896c-2.321,0-4.377,1.119-5.673,2.841H76.655c-0.688-4.339-2.411-8.333-4.908-11.724l7.355-7.355   c2.203,0.386,4.552-0.267,6.253-1.969c2.774-2.774,2.774-7.271,0.001-10.045c-2.775-2.774-7.272-2.774-10.046,0   c-1.642,1.642-2.304,3.886-2.002,6.02l-7.478,7.478c-3.407-2.472-7.41-4.17-11.757-4.829V12.917   c1.83-1.285,3.029-3.407,3.029-5.813C57.104,3.18,53.924,0,50.001,0c-3.924,0-7.104,3.18-7.104,7.103   c0,2.322,1.119,4.377,2.842,5.673v10.569c-4.34,0.689-8.334,2.412-11.724,4.908l-7.356-7.356c0.386-2.203-0.268-4.551-1.968-6.252   c-2.775-2.774-7.271-2.775-10.046-0.001c-2.774,2.775-2.774,7.272,0,10.046c1.642,1.642,3.886,2.304,6.021,2.002l7.478,7.478   c-2.472,3.406-4.17,7.409-4.828,11.756l-10.397,0.001c-1.285-1.831-3.408-3.03-5.813-3.03C3.181,42.897,0,46.076,0,50   c0.001,3.924,3.182,7.104,7.104,7.104c2.321,0,4.376-1.119,5.673-2.842h10.569c0.688,4.339,2.411,8.333,4.907,11.724l-7.355,7.355   c-2.203-0.386-4.552,0.268-6.253,1.969c-2.774,2.774-2.775,7.271,0,10.046c2.774,2.773,7.271,2.773,10.046,0   c1.642-1.643,2.304-3.887,2.002-6.021l7.478-7.479c3.406,2.472,7.409,4.171,11.756,4.829v10.397   c-1.83,1.285-3.028,3.407-3.028,5.813c0,3.924,3.179,7.104,7.103,7.104c3.924-0.001,7.104-3.181,7.104-7.104   c0-2.322-1.119-4.377-2.842-5.673v-10.57c4.339-0.688,8.333-2.411,11.723-4.907l7.356,7.356c-0.386,2.202,0.268,4.551,1.969,6.252   c2.775,2.774,7.271,2.775,10.046,0.001c2.774-2.775,2.773-7.272,0-10.047c-1.642-1.642-3.887-2.303-6.021-2.001l-7.478-7.478   c2.472-3.406,4.171-7.41,4.829-11.757h10.397c1.284,1.83,3.407,3.029,5.813,3.029c3.923,0,7.103-3.18,7.103-7.103   C100,46.076,96.82,42.896,92.897,42.896z M58.767,49.435c-2.297,2.297-5.328,3.552-8.562,3.552c-0.045,0-0.091,0-0.138,0   c-0.034,0-0.069-0.001-0.104-0.002l-0.066-0.002c-0.037-0.002-0.073-0.004-0.108-0.006c-1.708-0.062-3.374,0.589-4.583,1.799   c-1.164,1.163-1.805,2.71-1.805,4.354c0,1.646,0.641,3.191,1.805,4.354c1.165,1.166,1.165,3.055,0,4.221   c-0.583,0.583-1.347,0.874-2.11,0.874s-1.527-0.291-2.11-0.874c-2.291-2.291-3.552-5.336-3.552-8.575   c0-3.238,1.261-6.284,3.552-8.574c2.411-2.411,5.741-3.696,9.147-3.538c1.67,0.033,3.232-0.62,4.416-1.803   c1.163-1.163,1.803-2.709,1.803-4.354s-0.64-3.191-1.803-4.354c-1.166-1.166-1.166-3.055-0.001-4.221   c1.166-1.166,3.055-1.166,4.221,0c2.291,2.291,3.552,5.335,3.552,8.575S61.058,47.145,58.767,49.435z"/>
</g>
</svg>