<svg xmlns="http://www.w3.org/2000/svg" xmlns:xlink="http://www.w3.org/1999/xlink" version="1.1" x="0px" y="0px" viewBox="0 0 100 100" enable-background="new 0 0 100 100" xml:space="preserve" height="100px" width="100px">
<g id="Helper">
</g>
<g id="Layer_2">
	<g>
		<path fill-rule="evenodd" clip-rule="evenodd" d="M18.289,81.712c17.517,17.518,45.903,17.512,63.421,0    c17.517-17.517,17.517-45.906,0-63.423c-17.518-17.512-45.908-17.518-63.423,0C0.772,35.806,0.775,64.194,18.289,81.712z     M47.417,16.471c18.527-1.435,34.687,12.432,36.116,30.945c1.428,18.53-12.444,34.69-30.957,36.113    c-18.513,1.434-34.685-12.437-36.11-30.951C15.039,34.059,28.901,17.894,47.417,16.471z"/>
	</g>
	<g>
		<path fill-rule="evenodd" clip-rule="evenodd" d="M65.853,67.633c-8.756-8.753-22.954-8.753-31.701-0.005l-0.005,0.005    c-1.094,1.095-1.101,2.863,0,3.964c1.089,1.089,2.867,1.094,3.964,0l0.005-0.006c6.564-6.564,17.202-6.569,23.774,0.006    c1.094,1.094,2.871,1.1,3.967,0.005C66.952,70.501,66.947,68.728,65.853,67.633z"/>
	</g>
	<g>
		<path d="M64.604,40.392c-3.099,0-5.606,2.507-5.606,5.606c0,3.098,2.507,5.605,5.606,5.605c3.092,0,5.606-2.507,5.606-5.605    C70.21,42.899,67.697,40.392,64.604,40.392z"/>
	</g>
	<g>
		<path d="M29.55,45.998c0,3.099,2.507,5.606,5.606,5.606c3.097,0,5.606-2.507,5.606-5.606c0-3.097-2.509-5.606-5.606-5.606    C32.057,40.391,29.55,42.9,29.55,45.998z"/>
	</g>
</g>
</svg>