<?xml version="1.0" encoding="utf-8"?>
<!-- Generator: Adobe Illustrator 16.0.0, SVG Export Plug-In . SVG Version: 6.00 Build 0)  -->
<!DOCTYPE svg PUBLIC "-//W3C//DTD SVG 1.1//EN" "http://www.w3.org/Graphics/SVG/1.1/DTD/svg11.dtd" [
	<!ENTITY ns_extend "http://ns.adobe.com/Extensibility/1.0/">
	<!ENTITY ns_ai "http://ns.adobe.com/AdobeIllustrator/10.0/">
	<!ENTITY ns_graphs "http://ns.adobe.com/Graphs/1.0/">
	<!ENTITY ns_vars "http://ns.adobe.com/Variables/1.0/">
	<!ENTITY ns_imrep "http://ns.adobe.com/ImageReplacement/1.0/">
	<!ENTITY ns_sfw "http://ns.adobe.com/SaveForWeb/1.0/">
	<!ENTITY ns_custom "http://ns.adobe.com/GenericCustomNamespace/1.0/">
	<!ENTITY ns_adobe_xpath "http://ns.adobe.com/XPath/1.0/">
]>
<svg version="1.1" id="Ebene_1" xmlns:x="&ns_extend;" xmlns:i="&ns_ai;" xmlns:graph="&ns_graphs;"
	 xmlns="http://www.w3.org/2000/svg" xmlns:xlink="http://www.w3.org/1999/xlink" x="0px" y="0px" width="100px" height="100px"
	 viewBox="0 0 100 100" enable-background="new 0 0 100 100" xml:space="preserve">
<metadata>
	<sfw  xmlns="&ns_sfw;">
		<slices></slices>
		<sliceSourceBounds  width="83.168" height="100.372" y="369.127" x="377.056" bottomLeftOrigin="true"></sliceSourceBounds>
	</sfw>
</metadata>
<path d="M84.767,16.946C78.369,6.331,69.428,2.826,57.649,1.323C40.924-0.81,17.651,8.126,12.756,13.348
	c0,0-1.631,5.114,2.938,7.725c-3.593,8.52-3.699,10.226-4.368,16.042c0.126,1.964,0.41,3.84,0.778,5.605
	c-0.197,6.77-3.242,10.955-5.547,17.296c0,1.695,3.508,2.611,5.058,2.693c0.898,1.305,1.388,1.986,0.083,3.834
	c-0.327,1.389,0.983,2.666,2.039,3.1c-0.967,0.539-1.259,1.268-1.192,2.387c0.015,0.268,0.377,1.449,0.377,1.449
	c1.204,1.145,2.248,2.541,2.349,4.24c0.128,2.137-1.152,3.895,0.313,5.848c3.339,4.445,12.079,1.301,15.835-0.021
	c8.221,9.865,4.704,17.828,4.704,17.828h38.825c0,0-6.055-17.811-3.443-33.801c5.873-5.223,15.013-7.207,18.121-28.958
	C90.195,31.756,88.314,22.831,84.767,16.946z"/>
<g>
	<path id="gear-1" fill="#FFFFFF" stroke="#000000" stroke-width="0.1162" stroke-miterlimit="10" d="M44.563,40.539l0.015-2.528
		l-3.932-0.893c-0.155-0.536-0.368-1.063-0.64-1.558l2.231-3.345l-1.787-1.797l-3.407,2.153c-0.506-0.284-1.029-0.498-1.567-0.661
		l-0.782-3.944l-2.529-0.006l-0.893,3.938c-0.537,0.146-1.065,0.362-1.565,0.632l-3.344-2.228l-1.792,1.786l2.145,3.413
		c-0.276,0.499-0.49,1.014-0.646,1.55l-3.946,0.792l-0.014,2.526l3.938,0.892c0.149,0.537,0.364,1.064,0.635,1.559l-2.226,3.344
		l1.778,1.792l3.41-2.147c0.498,0.285,1.021,0.5,1.558,0.653l0.791,3.946l2.527,0.008l0.893-3.932
		c0.537-0.148,1.061-0.361,1.565-0.633l3.345,2.222l1.792-1.777l-2.154-3.408c0.284-0.499,0.499-1.021,0.654-1.56L44.563,40.539z
		 M35.465,41.329c-1.183,1.169-3.086,1.165-4.256-0.018c-1.172-1.179-1.164-3.087,0.02-4.257c1.175-1.168,3.085-1.158,4.254,0.019
		C36.656,38.257,36.643,40.157,35.465,41.329z"/>
	<path id="gear-2" fill="#FFFFFF" stroke="#000000" stroke-width="0.1162" stroke-miterlimit="10" d="M61.181,54.833
		c0.005-0.446-0.017-0.901-0.063-1.358c-0.05-0.468-0.135-0.913-0.244-1.344l2.735-3.126c-0.355-0.809-0.781-1.578-1.268-2.295
		l-4.093,0.626c-0.635-0.652-1.347-1.228-2.13-1.699l-0.279-4.114c-0.815-0.317-1.66-0.563-2.533-0.73l-2.439,3.317
		c-0.446-0.006-0.904,0.007-1.366,0.057c-0.451,0.053-0.899,0.138-1.335,0.249l-3.08-2.683c-0.822,0.357-1.604,0.789-2.334,1.287
		l0.622,4.029c-0.654,0.632-1.229,1.344-1.702,2.128l-4.048,0.271c-0.331,0.827-0.582,1.687-0.743,2.572l3.259,2.401
		c-0.007,0.445,0.014,0.901,0.066,1.361c0.044,0.456,0.127,0.904,0.238,1.338l-2.662,3.053c0.354,0.836,0.788,1.615,1.285,2.357
		l4.009-0.615c0.634,0.653,1.347,1.227,2.128,1.701l0.278,4.067c0.815,0.329,1.668,0.581,2.553,0.757l2.419-3.291
		c0.44,0.006,0.899-0.014,1.36-0.063c0.457-0.047,0.905-0.131,1.344-0.24l3.099,2.708c0.815-0.354,1.591-0.777,2.314-1.27
		l-0.628-4.073c0.66-0.634,1.228-1.345,1.709-2.127l4.125-0.277c0.322-0.805,0.578-1.65,0.744-2.518L61.181,54.833z M51.337,60.31
		c-3.143,0.343-5.97-1.921-6.32-5.064c-0.349-3.14,1.92-5.967,5.063-6.317c3.137-0.35,5.963,1.922,6.312,5.062
		C56.741,57.136,54.479,59.961,51.337,60.31z"/>
	<path id="gear-3" fill="#FFFFFF" stroke="#000000" stroke-width="0.1162" stroke-miterlimit="10" d="M80.135,30.508l0.169-3.146
		l4.171-3.382l-1.388-4.004l-0.623,0.01l-4.702,0.063l-2.083-2.375l0.548-5.392l-3.761-1.876l-0.432,0.453l-3.25,3.416l-3.112-0.208
		l-3.381-4.249l-3.939,1.364l0.012,0.628l0.105,4.767l-2.314,2.076l-5.343-0.605l-1.805,3.794l0.446,0.441l3.404,3.324l-0.169,3.144
		l-4.165,3.39l1.383,4l0.621-0.007l4.704-0.065l2.082,2.368l-0.55,5.402l3.762,1.861l0.426-0.446l3.254-3.409l3.111,0.201
		l3.38,4.248l3.939-1.358l-0.013-0.634l-0.101-4.76l2.313-2.082l5.341,0.609l1.806-3.796l-0.447-0.434L80.135,30.508z
		 M68.436,33.659c-3.038,1.053-6.384-0.602-7.452-3.694c-1.073-3.097,0.526-6.46,3.569-7.514c3.047-1.056,6.386,0.594,7.46,3.692
		C73.086,29.24,71.481,32.604,68.436,33.659z"/>
</g>
</svg>
