<?xml version="1.0" encoding="UTF-8" standalone="no"?>
<!-- Generator: Adobe Illustrator 16.0.0, SVG Export Plug-In . SVG Version: 6.00 Build 0)  -->

<svg
   xmlns:ns="&amp;ns_sfw;"
   xmlns:dc="http://purl.org/dc/elements/1.1/"
   xmlns:cc="http://creativecommons.org/ns#"
   xmlns:rdf="http://www.w3.org/1999/02/22-rdf-syntax-ns#"
   xmlns:svg="http://www.w3.org/2000/svg"
   xmlns="http://www.w3.org/2000/svg"
   xmlns:sodipodi="http://sodipodi.sourceforge.net/DTD/sodipodi-0.dtd"
   xmlns:inkscape="http://www.inkscape.org/namespaces/inkscape"
   version="1.1"
   id="Layer_1"
   x="0px"
   y="0px"
   width="1920px"
   height="525.053px"
   viewBox="0 0 1920 525.053"
   enable-background="new 0 0 1920 525.053"
   xml:space="preserve"
   inkscape:version="0.48.4 r9939"
   sodipodi:docname="myicon-fork.svg"><defs
     id="defs23" /><sodipodi:namedview
     pagecolor="#ffffff"
     bordercolor="#666666"
     borderopacity="1"
     objecttolerance="10"
     gridtolerance="10"
     guidetolerance="10"
     inkscape:pageopacity="0"
     inkscape:pageshadow="2"
     inkscape:window-width="640"
     inkscape:window-height="480"
     id="namedview21"
     showgrid="false"
     inkscape:zoom="0.15208333"
     inkscape:cx="960"
     inkscape:cy="262.52649"
     inkscape:window-x="10"
     inkscape:window-y="34"
     inkscape:window-maximized="0"
     inkscape:current-layer="Layer_1" /><metadata
     id="metadata3"><ns:sfw><ns:slices /><ns:sliceSourceBounds
         height="491.711"
         width="1903.673"
         x="8.001"
         y="-795.06"
         bottomLeftOrigin="true" /><ns:optimizationSettings><ns:targetSettings
           fileFormat="PNG24Format"
           targetSettingsID="0"><ns:PNG24Format
             transparency="true"
             interlaced="false"
             noMatteColor="false"
             matteColor="#FFFFFF"
             filtered="false" /></ns:targetSettings></ns:optimizationSettings></ns:sfw><rdf:RDF><cc:Work
         rdf:about=""><dc:format>image/svg+xml</dc:format><dc:type
           rdf:resource="http://purl.org/dc/dcmitype/StillImage" /></cc:Work></rdf:RDF></metadata><g
     id="g5"
     style="fill:#000000"><path
       fill-rule="evenodd"
       clip-rule="evenodd"
       fill="#1C75BC"
       d="M406.292,253.711c-38.549-1.281-74.586,2.433-110.596,6.698   c-27.473,3.255-55.133,5.379-82.367,10.005c-50.355,8.553-98.705,23.536-142.582,50.646c-18.723,11.57-35.46,25.45-48.717,43.232   c-1.861,2.495-3.748,5.101-6.12,7.049c-1.585,1.305-4.053,1.538-6.13,2.249c-0.62-2.144-2.042-4.412-1.737-6.411   c1.791-11.604,7.992-21.229,15.448-29.789c17.625-20.223,38.591-36.463,62.16-49.229c63.068-34.161,130.604-55.856,200.536-70.246   c28.601-5.887,57.639-9.806,86.598-13.778c14.25-1.952,28.763-1.98,43.156-2.907c10.116-0.649,20.227-1.455,30.352-1.977   c4.725-0.242,6.807-2.239,7.371-7.088c0.845-7.343,2.524-14.584,3.824-21.869c5.079-28.5,21.711-49.629,43.065-67.812   c6.835-5.82,13.228-12.179,20.25-17.745c2.014-1.591,5.538-1.275,8.368-1.833c-0.362,2.815,0.087,6.113-1.25,8.343   c-2.793,4.654-6.56,8.716-9.854,13.081c-0.659,0.878-0.993,2.004-1.475,3.021c1.389-0.17,3.051,0.092,4.129-0.581   c9.281-5.777,18.384-11.849,27.707-17.563c3.629-2.22,7.524-4.502,11.586-5.336c2.836-0.583,6.163,1.255,9.275,2.009   c-1.264,2.888-1.737,6.765-3.914,8.503c-16.168,12.888-32.696,25.319-49.038,37.995c-1.335,1.036-2.118,2.792-3.159,4.214   c1.795-0.477,3.594-0.949,5.389-1.436c7.528-2.035,14.982-4.484,22.615-6.016c13.342-2.678,20.297,2.592,23.969,15.558   c2.711,9.582,0.778,18.619-0.95,27.765c-0.793,4.187-1.586,6.365,4.363,5.887c9.72-0.788,19.535-0.397,29.303-0.598   c9.494-0.19,9.151-0.305,10.836-9.438c1.837-9.933,3.503-20.044,6.836-29.526c6.693-19.047,19.659-32.256,39.012-39.36   c10.975-4.025,21.382-9.59,32.061-14.416c3.542-1.604,7.653-4.083,10.393,0.472c3.099,5.152,0.233,8.846-4.54,11.338   c-1.39,0.721-2.797,1.414-4.134,2.22c-3.271,1.976-2.143,3.684,0.525,4.926c3.528,1.638,7.333,2.75,10.679,4.679   c1.375,0.787,2.975,3.585,2.524,4.617c-0.763,1.742-2.954,3.727-4.764,3.961c-4.219,0.544-8.578,0.297-12.86,0.038   c-8.15-0.501-15.062,2.45-19.157,9.162c-5.653,9.271-10.995,18.923-14.88,29.025c-3.537,9.203-0.25,13.031,9.991,12.809   c14.813-0.326,29.607-2.005,44.412-2.044c13.224-0.038,26.844-0.358,39.595,2.516c24.534,5.522,45.833,18.375,62.466,37.193   c17.41,19.702,19.783,36.416-0.186,62.099c-21.23,27.302-49.781,43.867-83.877,49.357c-14.852,2.386-30.238,2.248-45.356,1.946   c-15.124-0.301-17.43,1.232-22.689,15.806c-8.755,24.24-0.068,51.243,23.291,64.85c11.466,6.677,23.072,13.123,34.5,19.862   c1.756,1.035,2.897,3.124,4.325,4.727c-1.971,0.908-4.043,2.75-5.896,2.556c-6.54-0.688-13.123-1.629-19.477-3.297   c-12.444-3.272-24.676-7.38-37.127-10.63c-13.046-3.403-26.255-3.237-39.488-0.563c-3.404,0.689-7.055,0.878-10.489,0.436   c-2.348-0.302-4.501-2.092-6.745-3.213c1.424-2.178,2.42-4.918,4.373-6.391c3.079-2.331,6.765-3.873,10.254-5.625   c13.796-6.918,14.254-7.032,9.816-22.257c-4.588-15.716-5.471-31.467-3.012-47.51c0.644-4.205,1.656-8.392,2.868-12.477   c2.95-9.95,2.373-10.876-8.345-12.484c-10.397-1.563-20.966-2.444-31.124-4.98c-19.612-4.892-40.153-6.663-58.375-16.53   c-3.752-2.03-5.409-1.563-5.409,3.497c0.005,16.009-0.292,32.023-0.979,48.013c-0.45,10.499-1.084,21.075-2.903,31.392   c-1.623,9.172-4.047,19.239-14.55,22.328c-9.958,2.931-16.666-3.865-23.407-10.217c-14.201-13.371-23.673-29.946-32.925-46.739   c-3.204-5.816-6.388-11.64-9.819-17.321c-0.912-1.513-3.347-3.79-3.958-3.485c-1.867,0.947-4.363,2.87-4.522,4.597   c-0.657,7.291-1.862,14.899-0.491,21.933c3.872,19.898,8.754,39.609,13.539,59.321c3.704,15.266,1.102,30.279-1.361,45.28   c-0.349,2.122-3.194,3.832-4.883,5.736c-1.448-2.081-4.011-4.093-4.145-6.253c-0.597-9.353-0.4-18.751-0.716-28.126   c-0.042-1.176-1.394-2.313-2.139-3.468c-0.469,1.031-0.831,2.119-1.414,3.078c-1.456,2.393-3.493,6.899-4.434,6.688   c-3.137-0.702-7.571-2.477-8.502-4.964c-2.956-7.928-6.188-16.327-6.388-24.614c-0.821-33.556-1.613-67.15,4.483-100.473   c3.661-20.007,23.607-22.244,36.486-15.343c6.926,3.711,6.049,1.997,5.824-3.784c-0.578-14.862-0.305-14.894-15.724-14.962   C425.211,253.673,414.651,253.711,406.292,253.711z"
       id="path7"
       style="fill:#000000" /></g><polygon
     fill="#1C75BC"
     points="1295.878,264.41 1090.465,177.757 1112.573,229.794 846.909,264.41 1112.572,299.026   1090.465,351.063 "
     id="polygon9"
     style="fill:#000000" /><g
     id="g11"
     style="fill:#000000"><path
       fill="#1C75BC"
       d="M1391.113,219.634l74.055,58.344l10.105-21.316c0,0,11.217,10.104,21.32,10.104   c0,0,139.145,138.021,288.391-1.124c0,0,7.856,1.124,16.824-7.857l5.62,21.321l72.941-58.351c0,0,96.504,95.386-49.373,221.063   c0,0,66.211,8.981,68.446,68.448h-223.307c0,0-1.129-5.608,5.604-10.092c0,0-68.448,10.092-83.037-1.125c0,0,2.244,7.855,0,11.217   h-223.302c0,0-5.621-50.498,69.57-66.201C1444.972,444.056,1300.21,337.461,1391.113,219.634z"
       id="path13"
       style="fill:#000000" /><path
       fill="#1C75BC"
       d="M1572.336,65.897c-9.607,0-17.387,7.79-17.387,17.393c0,9.607,7.789,17.397,17.387,17.397   c9.603,0,17.399-7.791,17.399-17.397C1589.735,73.687,1581.938,65.897,1572.336,65.897z M1575.697,88.344   c-4.645,0-8.415-3.768-8.415-8.418c0-4.646,3.771-8.415,8.415-8.415c4.65,0,8.419,3.768,8.419,8.415   C1584.116,84.576,1580.357,88.344,1575.697,88.344z"
       id="path15"
       style="fill:#000000" /><path
       fill="#1C75BC"
       d="M1780.495,110.786c0,0,23.561-58.351-40.401-87.528c0,0-65.081-22.443-89.77,43.766l-15.711,1.118   c0,0-23.563-75.181-99.872-40.399c0,0-48.251,24.687-30.302,78.554c0,0-60.592,10.099-58.344,79.675   c0,0,1.115,50.498,57.225,67.331c0,0,131.293,131.287,274.932-1.122c0,0,47.126-11.222,50.487-78.548   C1828.744,173.62,1827.625,123.129,1780.495,110.786z M1570.094,115.276c-18.278,0-33.104-14.82-33.104-33.106   c0-18.282,14.825-33.102,33.104-33.102c18.286,0,33.105,14.82,33.105,33.102C1603.188,100.451,1588.37,115.276,1570.094,115.276z    M1715.977,115.276c-18.283,0-33.102-14.82-33.102-33.106c0-18.282,14.818-33.102,33.102-33.102   c18.277,0,33.098,14.82,33.098,33.102C1749.074,100.451,1734.254,115.276,1715.977,115.276z"
       id="path17"
       style="fill:#000000" /><path
       fill="#1C75BC"
       d="M1718.211,65.897c-9.603,0-17.394,7.79-17.394,17.393c0,9.607,7.791,17.397,17.394,17.397   c9.607,0,17.399-7.791,17.399-17.397C1735.61,73.687,1727.818,65.897,1718.211,65.897z M1721.585,88.344   c-4.651,0-8.42-3.768-8.42-8.418c0-4.646,3.769-8.415,8.42-8.415c4.647,0,8.416,3.768,8.416,8.415   C1730.001,84.576,1726.232,88.344,1721.585,88.344z"
       id="path19"
       style="fill:#000000" /></g></svg>