<?xml version="1.0" encoding="UTF-8" standalone="no"?>
<svg
   xmlns:dc="http://purl.org/dc/elements/1.1/"
   xmlns:cc="http://creativecommons.org/ns#"
   xmlns:rdf="http://www.w3.org/1999/02/22-rdf-syntax-ns#"
   xmlns:svg="http://www.w3.org/2000/svg"
   xmlns="http://www.w3.org/2000/svg"
   xmlns:sodipodi="http://sodipodi.sourceforge.net/DTD/sodipodi-0.dtd"
   xmlns:inkscape="http://www.inkscape.org/namespaces/inkscape"
   version="1.1"
   x="0px"
   y="0px"
   width="100px"
   height="100px"
   viewBox="0 0 100 100"
   enable-background="new 0 0 100 100"
   xml:space="preserve"
   id="svg2"
   inkscape:version="0.48.4 r9939"
   sodipodi:docname="myicon-animal.svg"><metadata
     id="metadata18"><rdf:RDF><cc:Work
         rdf:about=""><dc:format>image/svg+xml</dc:format><dc:type
           rdf:resource="http://purl.org/dc/dcmitype/StillImage" /></cc:Work></rdf:RDF></metadata><defs
     id="defs16" /><sodipodi:namedview
     pagecolor="#ffffff"
     bordercolor="#666666"
     borderopacity="1"
     objecttolerance="10"
     gridtolerance="10"
     guidetolerance="10"
     inkscape:pageopacity="0"
     inkscape:pageshadow="2"
     inkscape:window-width="640"
     inkscape:window-height="480"
     id="namedview14"
     showgrid="false"
     inkscape:zoom="2.36"
     inkscape:cx="50"
     inkscape:cy="50"
     inkscape:window-x="10"
     inkscape:window-y="34"
     inkscape:window-maximized="0"
     inkscape:current-layer="svg2" /><g
     id="Captions" /><g
     id="Your_Icon"
     transform="matrix(1.1554335,0,0,1.0931445,-7.8675449,-4.6518487)"><g
       id="g6"><g
         id="g8"><path
           d="M 94.154,14.782 C 93.554,12.906 86.357,13.25 80.328,15.118 79.514,11.519 77.728,9.017 75.631,9 c -1.984,-0.019 -3.73,2.189 -4.652,5.46 -4.049,-2.008 -7.908,-2.18 -9.266,-0.185 -1.498,2.2 0.574,6.266 4.666,9.473 -2.775,2.748 -5.029,5.772 -6.719,8.702 -6.312,10.937 -14.091,17.248 -16.829,23.556 -1.73,3.995 -3.794,11.698 -1.342,17.346 -2.274,-0.185 -4.945,-0.287 -8.007,-0.306 -7.836,-0.051 -10.475,-2.127 -10.475,-3.067 0,-0.756 1.986,-2.254 6.586,-2.296 6.355,-0.058 8.611,-2.309 8.602,-4.393 -0.014,-3.154 -5.123,-6.335 -16.501,-6.335 -7.108,0 -12.553,1.783 -14.212,4.651 -0.626,1.089 -0.645,2.257 -0.048,3.289 1.233,2.138 4.916,3.313 10.369,3.313 0.697,0 1.263,-0.565 1.263,-1.264 0,-0.697 -0.565,-1.263 -1.263,-1.263 -5.524,0 -7.743,-1.289 -8.185,-2.05 -0.1,-0.177 -0.166,-0.391 0.051,-0.764 0.787,-1.362 4.639,-3.392 12.024,-3.392 10.522,0 13.973,2.843 13.976,3.822 0.005,0.629 -1.783,1.817 -6.101,1.857 -6.281,0.059 -9.09,2.465 -9.087,4.824 0.005,2.662 3.418,5.528 12.983,5.587 3.944,0.026 6.888,0.193 9.085,0.417 1.13,2.333 4.83,3.299 7.451,6.018 5.207,5.392 9.154,10.229 10.9,8.544 1.094,-1.057 1.049,-5.39 -0.9,-8.544 1.031,0.183 2.885,0.179 4,0.313 7.441,0.911 12.207,2.179 12.41,0.543 0.162,-1.308 -3.57,-2.89 -8.881,-3.936 8.92,-3.937 9.361,-14.593 10.641,-27.12 1.129,-11.063 3.744,-18.012 7.994,-24.398 3.666,-5.513 8.774,-10.184 7.99,-12.62 z m -17.896,9.573 c -1.692,0 -3.064,-1.372 -3.064,-3.064 0,-1.692 1.372,-3.064 3.064,-3.064 1.692,0 3.064,1.372 3.064,3.064 0,1.692 -1.372,3.064 -3.064,3.064 z"
           id="path10"
           inkscape:connector-curvature="0" /></g><path
         d="M 83.681,54.506 C 82.228,55.77 78.603,53.985 75.588,50.518 72.574,47.05 71.309,43.213 72.766,41.948 74.221,40.682 74.985,44.533 78,48 c 3.015,3.468 7.138,5.238 5.681,6.506 z"
         id="path12"
         inkscape:connector-curvature="0" /></g></g></svg>