<?xml version="1.0" encoding="UTF-8" standalone="no"?>
<!-- Generator: Adobe Illustrator 16.0.0, SVG Export Plug-In . SVG Version: 6.00 Build 0)  -->

<svg
   xmlns:ns="&amp;ns_sfw;"
   xmlns:dc="http://purl.org/dc/elements/1.1/"
   xmlns:cc="http://creativecommons.org/ns#"
   xmlns:rdf="http://www.w3.org/1999/02/22-rdf-syntax-ns#"
   xmlns:svg="http://www.w3.org/2000/svg"
   xmlns="http://www.w3.org/2000/svg"
   xmlns:sodipodi="http://sodipodi.sourceforge.net/DTD/sodipodi-0.dtd"
   xmlns:inkscape="http://www.inkscape.org/namespaces/inkscape"
   version="1.1"
   id="Layer_1"
   x="0px"
   y="0px"
   width="50px"
   height="50px"
   viewBox="0 0 50 50"
   enable-background="new 0 0 50 50"
   xml:space="preserve"
   inkscape:version="0.48.4 r9939"
   sodipodi:docname="myicon-r3.svg"><defs
     id="defs2999" /><sodipodi:namedview
     pagecolor="#ffffff"
     bordercolor="#666666"
     borderopacity="1"
     objecttolerance="10"
     gridtolerance="10"
     guidetolerance="10"
     inkscape:pageopacity="0"
     inkscape:pageshadow="2"
     inkscape:window-width="640"
     inkscape:window-height="480"
     id="namedview2997"
     showgrid="false"
     inkscape:zoom="4.72"
     inkscape:cx="25"
     inkscape:cy="25"
     inkscape:window-x="0"
     inkscape:window-y="24"
     inkscape:window-maximized="0"
     inkscape:current-layer="Layer_1" /><metadata
     id="metadata2991"><ns:sfw><ns:slices /><ns:sliceSourceBounds
         width="54.75"
         height="13.832"
         x="393.313"
         y="413.585"
         bottomLeftOrigin="true" /></ns:sfw><rdf:RDF><cc:Work
         rdf:about=""><dc:format>image/svg+xml</dc:format><dc:type
           rdf:resource="http://purl.org/dc/dcmitype/StillImage" /></cc:Work></rdf:RDF></metadata><path
     d="m 48.062445,19.366 c -7.47112,0.271 -15.211656,0.414 -23.142691,0.414 -7.892934,0 -15.5944651,-0.142 -23.032021,-0.41 -0.3955085,1.81 -0.6104982,3.693 -0.6104982,5.629 0,1.937 0.2158968,3.819 0.6104982,5.63 7.4375559,-0.27 15.139087,-0.41 23.032021,-0.41 7.931942,0 15.670665,0.145 23.142691,0.414 0.396416,-1.813 0.612312,-3.695 0.612312,-5.634 0,-1.939 -0.216803,-3.821 -0.612312,-5.633 z"
     id="path2993"
     inkscape:connector-curvature="0"
     style="fill:#3366cc" /><path
     d="M 48.947804,31.915 48.024346,31.882 C 32.781847,31.332 16.886214,31.336 1.9240182,31.878 L 0.99965313,31.912 0.78375624,30.921 C 0.35740536,28.968 0.14150847,26.975 0.14150847,24.999 c 0,-1.98 0.21589689,-3.973 0.64224777,-5.922 L 1.0005603,18.087 1.9240182,18.12 C 17.032262,18.665 32.965994,18.662 48.024346,18.116 l 0.923458,-0.033 0.215897,0.99 c 0.428165,1.955 0.644062,3.948 0.644062,5.926 0,1.978 -0.215897,3.972 -0.644062,5.927 l -0.215897,0.989 z M 24.918847,28.969 c 7.432113,0 14.907768,0.128 22.236469,0.382 0.254903,-1.443 0.384623,-2.903 0.384623,-4.352 0,-1.449 -0.12972,-2.907 -0.384623,-4.35 -14.516796,0.503 -29.801023,0.505 -44.3622676,0.004 -0.2539963,1.439 -0.3828087,2.896 -0.3828087,4.346 0,1.447 0.1288124,2.905 0.3837158,4.347 7.2271015,-0.25 14.6655645,-0.377 22.1248915,-0.377 z"
     id="path2995"
     inkscape:connector-curvature="0"
     style="fill:#ffffff" /></svg>