<?xml version="1.0" encoding="UTF-8" standalone="no"?>
<svg
   xmlns:dc="http://purl.org/dc/elements/1.1/"
   xmlns:cc="http://creativecommons.org/ns#"
   xmlns:rdf="http://www.w3.org/1999/02/22-rdf-syntax-ns#"
   xmlns:svg="http://www.w3.org/2000/svg"
   xmlns="http://www.w3.org/2000/svg"
   xmlns:sodipodi="http://sodipodi.sourceforge.net/DTD/sodipodi-0.dtd"
   xmlns:inkscape="http://www.inkscape.org/namespaces/inkscape"
   version="1.1"
   id="Layer_1"
   x="0px"
   y="0px"
   width="99.999px"
   height="79.176px"
   viewBox="4.99995 -7.9176 99.999 106.8876"
   enable-background="new 0 0 99.999 79.176"
   xml:space="preserve"
   inkscape:version="0.48.4 r9939"
   sodipodi:docname="myicon_like.svg"><metadata
     id="metadata15"><rdf:RDF><cc:Work
         rdf:about=""><dc:format>image/svg+xml</dc:format><dc:type
           rdf:resource="http://purl.org/dc/dcmitype/StillImage" /></cc:Work></rdf:RDF></metadata><defs
     id="defs13" /><sodipodi:namedview
     pagecolor="#ffffff"
     bordercolor="#666666"
     borderopacity="1"
     objecttolerance="10"
     gridtolerance="10"
     guidetolerance="10"
     inkscape:pageopacity="0"
     inkscape:pageshadow="2"
     inkscape:window-width="640"
     inkscape:window-height="480"
     id="namedview11"
     showgrid="false"
     showguides="true"
     inkscape:guide-bbox="true"
     inkscape:zoom="2.9200292"
     inkscape:cx="49.9995"
     inkscape:cy="39.588001"
     inkscape:window-x="10"
     inkscape:window-y="34"
     inkscape:window-maximized="0"
     inkscape:current-layer="Layer_1" /><path
     d="M73.838,68.824c1.291-2.823,1.845-7.347,1.845-13.972v-0.765c0-6.075-0.699-11.082-2.287-15.022  c-1.588-3.938-3.47-5.906-5.744-5.906c-0.233,0-0.477,0.039-0.77,0.116c-0.295,0.08-0.586,0.197-0.899,0.353  c0.353-0.784,0.81-1.382,1.358-1.794c0.549-0.411,22.073-0.615,22.78-0.615c2.782,0,5.124,2.215,7.027,6.643  c1.9,4.429,2.851,10.093,2.851,16.991c0,6.429-0.726,11.445-2.176,15.051c-1.449,3.606-3.447,5.409-5.995,5.409  c-0.706,0-22.287-0.374-22.953-0.728s-1.274,0.273-1.823-1.727h0.528C70.521,72.858,72.543,71.645,73.838,68.824z"
     id="path3" /><path
     d="M0,50.545c0-1.176,0.433-2.353,1.293-3.528c0.863-1.175,2.197-2.41,3.998-3.704c-0.313-0.038-0.646-0.067-1-0.088  c-0.353-0.02-6.474-2.914-2.031-11.675l0.308-0.678c2.844-1.916,7.146-3.289,11.358-4.199c-0.481-2.676-1.369-5.274-2.713-7.792  L10.37,17.47c-1.826-3.334-2.739-5.909-2.739-7.725c0-5.015,2.755-8.146,8.27-9.393L17.429,0l2.632,11.208l9.745,9.947  c0.667,0.74,1.826,2.171,3.477,4.289l1.417,1.8c1.448,0.549,3.083,1.237,4.926,2.077c0.705,0.353,1.783,0.861,3.233,1.528  c9.171,4.39,16.795,6.664,22.869,6.82c1.646,2.39,2.86,4.967,3.646,7.729c0.783,2.764,1.177,5.831,1.177,9.202  c0,3.724-0.346,6.781-1.032,9.171c-0.683,2.392-1.829,4.606-3.438,6.644c-1.606,0.393-3.937,0.705-6.994,0.941  c-3.058,0.234-5.272,0.568-6.645,0.998c-0.312,0.08-2.597,1.235-6.851,3.47c-4.252,2.234-8.455,3.351-12.611,3.351  c-3.682,0-7.544-0.391-11.582-1.176c-4.037-0.783-7.192-1.705-9.466-2.763c-0.9-0.431-1.606-1.078-2.115-1.94  c-0.51-0.861-0.765-1.822-0.765-2.881c0-0.354,0.028-0.764,0.087-1.234c0.06-0.471,0.128-1.039,0.206-1.705  c-1.724-0.392-3.028-1.049-3.911-1.97c-0.881-0.92-1.323-2.066-1.323-3.438c0-0.707,0.188-1.461,0.559-2.264  c0.375-0.804,0.991-1.734,1.853-2.793c-2.117-0.666-3.734-1.567-4.851-2.705C0.559,53.171,0,51.917,0,50.545z"
     id="path5" /></svg>