<?xml version="1.0" encoding="utf-8"?>
<!-- Generator: Adobe Illustrator 16.0.0, SVG Export Plug-In . SVG Version: 6.00 Build 0)  -->
<!DOCTYPE svg PUBLIC "-//W3C//DTD SVG 1.1//EN" "http://www.w3.org/Graphics/SVG/1.1/DTD/svg11.dtd">
<svg version="1.1" id="Layer_1" xmlns="http://www.w3.org/2000/svg" xmlns:xlink="http://www.w3.org/1999/xlink" x="0px" y="0px"
	 width="512px" height="512px" viewBox="0 0 512 512" enable-background="new 0 0 512 512" xml:space="preserve">
<path id="tools-8-icon" d="M300.666,204.326l-27.431-27.407L389.256,60.898l72.606,72.608l-116.02,116.02l-14.404-14.402
	l101.615-101.617l-43.799-43.799l-49.589,49.586l12.974,12.975l-7.201,7.201l-12.973-12.973l-7.822,7.82l12.973,12.975l-7.2,7.201
	l-12.974-12.973l-7.565,7.565l13.014,13.017l-7.201,7.201l-13.016-13.015l-7.82,7.82l13.014,13.017L300.666,204.326z
	 M406.016,133.786c0-9.491-7.697-17.186-17.188-17.186c-9.49,0-17.188,7.694-17.188,17.186c0,9.493,7.697,17.188,17.188,17.188
	C398.319,150.974,406.016,143.279,406.016,133.786z M333.806,414.693l68.98-68.981L177.367,120.291l-68.982,68.981L333.806,414.693z
	 M157.811,100.734l-38.69-38.691l-68.982,68.981l38.689,38.69L157.811,100.734z M353.406,434.21l86.313,15.93l-17.413-84.829
	L353.406,434.21z M144.266,422.295l-43.799-43.799l11.561-11.561l13.025,13.023l7.201-7.201l-13.023-13.025l7.873-7.873
	l13.015,13.014l7.2-7.201l-13.012-13.015l7.82-7.821l13.014,13.014l7.201-7.201l-13.012-13.015l7.565-7.567l12.972,12.972l7.2-7.201
	l-12.971-12.971l7.822-7.822l12.971,12.972l7.201-7.201l-27.33-27.422l-93.104,93.104l72.606,72.606l93.105-93.104l-14.404-14.401
	L144.266,422.295z"/>
</svg>
