<svg xmlns="http://www.w3.org/2000/svg" xmlns:xlink="http://www.w3.org/1999/xlink" version="1.1" id="Ebene_1" x="0px" y="0px" viewBox="0 0 90 90" enable-background="new 0 0 90 90" xml:space="preserve" height="100px" width="100px">
<g>
	<defs>
		<rect id="SVGID_1_" width="90" height="90"/>
	</defs>
	<clipPath id="SVGID_2_">
		<use xlink:href="#SVGID_1_" overflow="visible"/>
	</clipPath>
	<path clip-path="url(#SVGID_2_)" d="M5.6,83C2.2,86,0,83,0,83s0.6,4.2,4,5.9c3.5,1.7,6.6,1.4,9.4-0.6c2.8-2,4.1-4.6,4.2-6   c0,0,2,4.6,6.3,4.4c0,0-2.5-2.5,0.1-5.2c2.6-2.7,6.7-0.5,10.9-4.3c3.6-3.3,4.5-7,4.5-10.8c-0.1-3.7-2.3-6.7-2.3-6.7   c0.7,4.6-1.7,7.6-2.5,8.4c-0.8,0.8-1.8,1.6-3.9,2.1c-2.1,0.5-4.1,0.2-7.5,0.6c-3.4,0.4-5.4,4.2-5.4,4.2s-1.2-5.2,2.8-9.3   c0,0,2.2-2.3,5.6-1.8c0,0-0.7-1.8-2.6-2.6c-2.4-1-3.7,0.2-3.7,0.2c-0.2-2.5,2-4.7,2-4.7c4.1-4.1,10.1-2.4,10.1-2.4   s-3.1-2.8-8.8-2.4c-5.6,0.4-8.5,3.2-9.6,4.3c-1.1,1.1-4.4,5.3-5.1,11.4C7.7,74,7.6,81.1,5.6,83"/>
	<path clip-path="url(#SVGID_2_)" d="M71.6,18.7c-1.8-1.8-1.8-4.7,0-6.5c1.8-1.8,4.6-1.8,6.4,0c1.8,1.8,1.8,4.7,0,6.5   C76.2,20.5,73.4,20.5,71.6,18.7 M63.9,47.2c2.9-2.4,6.1-5.3,9.5-8.7C90.5,21.4,90,0,90,0S69-0.5,52.1,16.9   c-3.4,3.5-6.2,6.7-8.6,9.7c-7-5.1-18.6-0.7-24.1,4.9c-5.7,5.8-9.5,13.7-9.5,13.7c11.4-8,20.4-5.8,24-4.4c-1.5,2.9-2,4.5-2,4.5   c1.3,3.1,5.9,7.8,5.9,7.8s4.6,4.7,7.6,6c0,0,1.6-0.5,4.5-2.1c1.4,3.6,3.6,12.8-4.3,24.4c0,0,7.8-3.9,13.5-9.7   C64.6,66.1,68.9,54.4,63.9,47.2"/>
</g>
</svg>