<?xml version="1.0" encoding="utf-8"?>
<!-- Generator: Adobe Illustrator 16.0.0, SVG Export Plug-In . SVG Version: 6.00 Build 0)  -->
<!DOCTYPE svg PUBLIC "-//W3C//DTD SVG 1.1//EN" "http://www.w3.org/Graphics/SVG/1.1/DTD/svg11.dtd">
<svg version="1.1" id="Layer_1" xmlns="http://www.w3.org/2000/svg" xmlns:xlink="http://www.w3.org/1999/xlink" x="0px" y="0px"
	 width="512px" height="512px" viewBox="0 0 512 512" enable-background="new 0 0 512 512" xml:space="preserve">
<path id="minus-5-icon" d="M363.68,288.439H152.322v-58.877H363.68V288.439z M462,256c0,113.771-92.229,206-206,206
	c-113.771,0-206-92.229-206-206c0-113.771,92.229-206,206-206C369.771,50,462,142.229,462,256z M422,256
	c0-91.755-74.259-166-166-166c-91.755,0-166,74.259-166,166c0,91.755,74.258,166,166,166C347.755,422,422,347.741,422,256z"/>
</svg>
