<?xml version="1.0" encoding="utf-8"?>
<!-- Generator: Adobe Illustrator 16.0.0, SVG Export Plug-In . SVG Version: 6.00 Build 0)  -->
<!DOCTYPE svg PUBLIC "-//W3C//DTD SVG 1.1//EN" "http://www.w3.org/Graphics/SVG/1.1/DTD/svg11.dtd" [
	<!ENTITY ns_extend "http://ns.adobe.com/Extensibility/1.0/">
	<!ENTITY ns_ai "http://ns.adobe.com/AdobeIllustrator/10.0/">
	<!ENTITY ns_graphs "http://ns.adobe.com/Graphs/1.0/">
	<!ENTITY ns_vars "http://ns.adobe.com/Variables/1.0/">
	<!ENTITY ns_imrep "http://ns.adobe.com/ImageReplacement/1.0/">
	<!ENTITY ns_sfw "http://ns.adobe.com/SaveForWeb/1.0/">
	<!ENTITY ns_custom "http://ns.adobe.com/GenericCustomNamespace/1.0/">
	<!ENTITY ns_adobe_xpath "http://ns.adobe.com/XPath/1.0/">
]>
<svg version="1.1" id="Layer_1" xmlns:x="&ns_extend;" xmlns:i="&ns_ai;" xmlns:graph="&ns_graphs;"
	 xmlns="http://www.w3.org/2000/svg" xmlns:xlink="http://www.w3.org/1999/xlink" x="0px" y="0px" width="100px" height="100px"
	 viewBox="0 0 100 100" enable-background="new 0 0 100 100" xml:space="preserve">
<metadata>
	<sfw  xmlns="&ns_sfw;">
		<slices></slices>
		<sliceSourceBounds  height="92.617" width="93.024" y="369.5" x="374.5" bottomLeftOrigin="true"></sliceSourceBounds>
	</sfw>
</metadata>
<path d="M40.196,20.027c0-3.166,2.529-5.74,5.677-5.815c0.643-1.857,2.406-3.192,4.483-3.192c0.779,0,1.513,0.188,2.162,0.521
	c0.601-1.805,2.304-3.107,4.309-3.107c2.51,0,4.543,2.034,4.543,4.542c0,2.509-2.033,4.542-4.543,4.542
	c-0.686,0-1.337-0.152-1.919-0.426c-0.175,0.593-0.46,1.138-0.834,1.608c0.505,0.202,0.977,0.471,1.401,0.796
	c0.591-0.355,1.279-0.563,2.021-0.563c2.174,0,3.936,1.763,3.936,3.937c0,2.172-1.762,3.936-3.936,3.936
	c-0.136,0-0.27-0.006-0.402-0.021c-0.475,0.912-1.18,1.682-2.041,2.233c0.029,0.237,0.047,0.479,0.047,0.724
	c0,2.364-1.409,4.396-3.433,5.308c0.082,0.199,0.147,0.406,0.199,0.62c0.342-0.09,0.7-0.143,1.069-0.143
	c2.332,0,4.222,1.89,4.222,4.221c0,2.333-1.89,4.222-4.222,4.222c-0.665,0-1.294-0.159-1.854-0.433
	c-0.01,1.828-1.493,3.308-3.324,3.308c-1.835,0-3.324-1.489-3.324-3.324c0-1.273,0.715-2.376,1.764-2.934
	c-1.562-0.623-2.668-2.145-2.668-3.93c0-1.226,0.524-2.326,1.358-3.098c-0.888-1.022-1.428-2.356-1.428-3.817
	c0-1.539,0.599-2.939,1.576-3.979C42.288,25.296,40.196,22.907,40.196,20.027z M65.287,12.115c1.03,0,1.864-0.834,1.864-1.866
	c0-1.031-0.833-1.866-1.864-1.866c-1.03,0-1.865,0.835-1.865,1.866C63.422,11.28,64.257,12.115,65.287,12.115z M97.023,100.999
	l-34.06-38.095c-1.637-1.854-2.229-2.393-3.337-2.393c-1.108,0-2.218,1.819-3.297,1.819c-1.339,0-2.395-1.819-3.504-1.819
	c-0.735,0-1.469,0.794-2.195,1.333c-4.836,5.107-7.315,9.604-0.174,14.318C60.947,83.087,56.442,91.55,50.018,101L97.023,100.999
	L97.023,100.999z M40.918,77.059c-5.742-5.304,2.775-12.008,6.963-15.473c0,0,0.018-0.004,0.02-0.005
	c-0.646-0.502-1.253-1.069-1.875-1.069c-1.107,0-2.216,1.817-3.297,1.817c-1.337,0-2.394-1.817-3.502-1.817
	s-2.215,1.023-3.298,2.392L4,100.999H26.73C50.018,85.563,47.363,83.016,40.918,77.059z M51.853,51.764
	c-1.471-0.353-2.952,0.913-2.568,2.621c0.393,1.759,0.867,2.484,0.922,4.217c0.836-1.519,1.59-1.947,2.74-3.335
	C54.066,53.92,53.325,52.119,51.853,51.764z M61.906,41.427c-0.271,1.377-0.161,2.045-0.667,3.297
	c1.074-0.819,1.747-0.889,3.003-1.515c1.222-0.608,1.261-2.129,0.322-2.846C63.627,39.649,62.171,40.086,61.906,41.427z
	 M57.579,48.16c0.879-0.741,0.609-1.995-0.302-2.396c-0.91-0.398-2.018,0.249-1.967,1.397c0.049,1.185,0.271,1.708,0.104,2.836
	C56.135,49.113,56.671,48.923,57.579,48.16z M37.485,39.752c1.429,1.099,2.258,1.349,3.412,2.645
	c-0.33-1.703-0.027-2.515-0.034-4.315c-0.006-1.751-1.729-2.659-3.086-1.989C36.419,36.765,36.097,38.688,37.485,39.752z
	 M44.302,50.132c-1.093,0.463-1.433,1.956-0.395,2.852c1.069,0.926,1.707,1.16,2.552,2.227c-0.182-1.35,0.093-1.971,0.169-3.383
	C46.705,50.458,45.396,49.668,44.302,50.132z M42.608,47.396c0.192-0.926-0.617-1.6-1.409-1.397
	c-0.792,0.204-1.18,1.183-0.565,1.901c0.634,0.741,1.044,0.967,1.508,1.784C42.156,48.744,42.409,48.35,42.608,47.396z
	 M41.536,59.201c0.918,0.326,1.387,0.318,2.195,0.793c-0.454-0.821-0.433-1.29-0.736-2.215c-0.294-0.898-1.332-1.08-1.919-0.508
	C40.491,57.841,40.645,58.883,41.536,59.201z M59.986,32.991c-0.085,1.801,0.183,2.626-0.222,4.312
	c1.21-1.245,2.049-1.46,3.523-2.495c1.433-1.005,1.192-2.938-0.133-3.667C61.829,30.412,60.068,31.245,59.986,32.991z
	 M34.829,46.239c1.16,0.247,1.724,0.162,2.774,0.605c-0.678-0.917-0.728-1.486-1.241-2.553c-0.499-1.038-1.778-1.088-2.394-0.305
	C33.351,44.767,33.704,46,34.829,46.239z"/>
</svg>
