<?xml version="1.0" encoding="utf-8"?>
<!-- Generator: Adobe Illustrator 16.0.0, SVG Export Plug-In . SVG Version: 6.00 Build 0)  -->
<!DOCTYPE svg PUBLIC "-//W3C//DTD SVG 1.1//EN" "http://www.w3.org/Graphics/SVG/1.1/DTD/svg11.dtd" [
	<!ENTITY ns_extend "http://ns.adobe.com/Extensibility/1.0/">
	<!ENTITY ns_ai "http://ns.adobe.com/AdobeIllustrator/10.0/">
	<!ENTITY ns_graphs "http://ns.adobe.com/Graphs/1.0/">
	<!ENTITY ns_vars "http://ns.adobe.com/Variables/1.0/">
	<!ENTITY ns_imrep "http://ns.adobe.com/ImageReplacement/1.0/">
	<!ENTITY ns_sfw "http://ns.adobe.com/SaveForWeb/1.0/">
	<!ENTITY ns_custom "http://ns.adobe.com/GenericCustomNamespace/1.0/">
	<!ENTITY ns_adobe_xpath "http://ns.adobe.com/XPath/1.0/">
]>
<svg version="1.1" id="Your_Icon" xmlns:x="&ns_extend;" xmlns:i="&ns_ai;" xmlns:graph="&ns_graphs;"
	 xmlns="http://www.w3.org/2000/svg" xmlns:xlink="http://www.w3.org/1999/xlink" x="0px" y="0px" width="100px" height="100px"
	 viewBox="0 0 100 100" enable-background="new 0 0 100 100" xml:space="preserve">
<metadata>
	<sfw  xmlns="&ns_sfw;">
		<slices></slices>
		<sliceSourceBounds  width="69.024" height="100" y="370.5" x="389.163" bottomLeftOrigin="true"></sliceSourceBounds>
	</sfw>
</metadata>
<path d="M84.383,93.672h0.441v-10.18c0-10.936,0.775-25.401,0.775-27.031c0-1.596-0.975-3.006-1.877-3.881
	c0.904-0.872,1.298-2.284,1.298-3.88c0-1.595-0.684-3.007-1.587-3.878c0.903-0.876,2.215-2.287,2.215-3.882
	c0-1.632-0.824-14.891-0.824-24.892V6.33h-0.441c1.824,0,3.305-1.34,3.305-3.165c0-1.824-1.48-3.165-3.305-3.165H21.968
	c-1.826,0-3.305,1.341-3.305,3.165c0,1.825,1.479,3.165,3.305,3.165h2.096v6.133c-1.267,10.074-2.044,26.639-2.044,28.474
	c0,1.595,0.524,3.007,1.427,3.882c-0.903,0.873-1.525,2.285-1.525,3.878c0,1.595,0.572,3.007,1.477,3.882
	c-0.905,0.874-1.369,2.286-1.369,3.88c0,1.834,0.768,19.931,2.034,30.951v6.262h-2.096c-1.826,0-3.305,1.342-3.305,3.164
	c0,1.826,1.479,3.164,3.305,3.164h31.245h0.085h31.085c1.824,0,3.305-1.338,3.305-3.164C87.688,95.014,86.209,93.672,84.383,93.672z
	 M76.6,93.672l-3.2-6.639c-0.177-0.347-0.522-0.707-0.908-0.732c1.063-2.662,1.624-5.604,1.624-8.553
	c0-5.424-1.861-10.625-5.232-14.582l-9.382-11.1l0,0l-0.442-0.633c-0.068-0.08,0.641-0.167,0.561-0.253
	c-0.246-0.284-0.113-0.945-0.113-1.239v-0.083c0-0.13-0.65-0.487,0.132-1.405l9.539-11.479c3.553-4.168,5.083-8.281,5.083-13.417
	c0-3.662-1.071-7.103-2.63-9.633h0.781c0.427,0,0.816-0.555,0.998-0.942l2.983-6.652h4.631v5.088
	c-1.267,9.925-2.745,27.62-2.745,29.519c0,1.595,0.237,3.007,1.139,3.882c-0.904,0.873-1.669,2.285-1.669,3.878
	c0,1.595,0.501,3.007,1.401,3.882c-0.9,0.874-0.827,2.286-0.827,3.88c0,1.9,1.435,21.232,2.701,32.093v5.12H76.6z M27.86,93.672
	v-8.788c1.267-11.058,1.477-26.721,1.477-28.423c0-1.596-0.686-3.006-1.587-3.881c0.901-0.872,1.442-2.284,1.442-3.88
	c0-1.595-0.611-3.007-1.515-3.878c0.904-0.876,1.675-2.287,1.675-3.882c0-1.702-0.225-16.052-1.492-26.164V6.33h2.243l3.178,6.675
	c0.187,0.374,0.567,0.92,0.984,0.92h0.584c-1.559,2.531-2.441,5.972-2.441,9.633c0,5.223,1.767,9.732,5.255,13.828l9.652,11.041
	c0.055,0.104,0.123,0.148,0.2,0.242l0.647,0.158c0.237,0.274,1.215,0.818,1.215,1.025v0.083c0,0.257-1.058,0.848-1.307,1.135
	c-0.083,0.095-0.405,0.186-0.489,0.28c-0.05,0.06-0.219,0.123-0.257,0.186l-9.699,11.339c-3.304,3.875-5.23,9.275-5.23,14.805
	c0,2.96,0.551,5.843,1.624,8.516c-0.319,0.077-0.599,0.564-0.743,0.866l-3.034,6.61H27.86z M70.784,23.558
	c0,1.395-0.152,2.528-0.456,3.823c-4.839,0.021-11.645-0.629-19.081-2.118c-6.3-1.258-11.76-1.229-15.49-0.875
	c-0.025-0.394-0.043-0.402-0.043-0.805c0-3.758,1.098-7.127,2.987-9.659h29.098C69.688,16.456,70.784,19.8,70.784,23.558z
	 M69.038,85.757c-0.092-0.526-0.288-1.273-1.37-2.151c-12.803-10.116-14.455-10.22-14.455-10.22
	c-2.376,0-12.182,9.085-14.045,10.427c-1.218,0.879-1.55,1.682-1.635,2.129c-1.187-2.506-1.864-5.316-1.864-8.26
	c0-4.688,1.651-9.423,4.411-12.667l9.753-11.47c0.059-0.065,0.11-0.135,0.157-0.205c0.022-0.03,0.05-0.059,0.076-0.089
	c0.331-0.377,0.748-0.853,1.078-1.413c0.685,0.559,1.4,1.012,1.89,1.012c0.53,0,1.328-0.562,2.069-1.197
	c0.286,0.539,0.66,1.014,0.997,1.41l0,0l0.458,0.628l9.806,11.58c2.823,3.317,4.445,7.842,4.445,12.411
	C70.811,80.552,70.172,83.295,69.038,85.757z"/>
</svg>
