<?xml version="1.0" encoding="UTF-8" standalone="no"?>
<!-- Generator: Adobe Illustrator 16.0.0, SVG Export Plug-In . SVG Version: 6.00 Build 0)  -->

<svg
   xmlns:ns="&amp;ns_sfw;"
   xmlns:dc="http://purl.org/dc/elements/1.1/"
   xmlns:cc="http://creativecommons.org/ns#"
   xmlns:rdf="http://www.w3.org/1999/02/22-rdf-syntax-ns#"
   xmlns:svg="http://www.w3.org/2000/svg"
   xmlns="http://www.w3.org/2000/svg"
   xmlns:sodipodi="http://sodipodi.sourceforge.net/DTD/sodipodi-0.dtd"
   xmlns:inkscape="http://www.inkscape.org/namespaces/inkscape"
   version="1.1"
   id="Layer_1"
   x="0px"
   y="0px"
   width="250"
   height="50"
   viewBox="0 0 250 50"
   enable-background="new 0 0 50 50"
   xml:space="preserve"
   inkscape:version="0.48.4 r9939"
   sodipodi:docname="myicon-rating.svg"><defs
     id="defs11" /><sodipodi:namedview
     pagecolor="#ffffff"
     bordercolor="#666666"
     borderopacity="1"
     objecttolerance="10"
     gridtolerance="10"
     guidetolerance="10"
     inkscape:pageopacity="0"
     inkscape:pageshadow="2"
     inkscape:window-width="1920"
     inkscape:window-height="1056"
     id="namedview9"
     showgrid="false"
     inkscape:zoom="3.337544"
     inkscape:cx="108.07972"
     inkscape:cy="25.520673"
     inkscape:window-x="0"
     inkscape:window-y="24"
     inkscape:window-maximized="1"
     inkscape:current-layer="Layer_1" /><metadata
     id="metadata3"><ns:sfw><ns:slices /><ns:sliceSourceBounds
         width="54.75"
         height="13.832"
         x="393.313"
         y="413.585"
         bottomLeftOrigin="true" /></ns:sfw><rdf:RDF><cc:Work
         rdf:about=""><dc:format>image/svg+xml</dc:format><dc:type
           rdf:resource="http://purl.org/dc/dcmitype/StillImage" /><dc:title></dc:title></cc:Work></rdf:RDF></metadata><g
     id="g3014"
     transform="translate(100.17094,0.48449588)"><path
       style="fill:#3366cc"
       inkscape:connector-curvature="0"
       id="path5"
       d="m 50.638,19.366 c -8.236,0.271 -16.769,0.414 -25.512,0.414 -8.701,0 -17.191,-0.142 -25.39,-0.41 -0.436,1.81 -0.673,3.693 -0.673,5.629 0,1.937 0.238,3.819 0.673,5.63 8.199,-0.27 16.689,-0.41 25.39,-0.41 8.744,0 17.275,0.145 25.512,0.414 0.437,-1.813 0.675,-3.695 0.675,-5.634 0,-1.939 -0.239,-3.821 -0.675,-5.633 z" /><path
       style="fill:#ffffff"
       inkscape:connector-curvature="0"
       id="path7"
       d="M 51.614,31.915 50.596,31.882 C 33.793,31.332 16.27,31.336 -0.224,31.878 l -1.019,0.034 -0.238,-0.991 c -0.47,-1.953 -0.708,-3.946 -0.708,-5.922 0,-1.98 0.238,-3.973 0.708,-5.922 l 0.239,-0.99 1.018,0.033 c 16.655,0.545 34.22,0.542 50.82,-0.004 l 1.018,-0.033 0.238,0.99 c 0.472,1.955 0.71,3.948 0.71,5.926 0,1.978 -0.238,3.972 -0.71,5.927 l -0.238,0.989 z M 25.125,28.969 c 8.193,0 16.434,0.128 24.513,0.382 0.281,-1.443 0.424,-2.903 0.424,-4.352 0,-1.449 -0.143,-2.907 -0.424,-4.35 -16.003,0.503 -32.852,0.505 -48.904,0.004 -0.28,1.439 -0.422,2.896 -0.422,4.346 0,1.447 0.142,2.905 0.423,4.347 7.967,-0.25 16.167,-0.377 24.39,-0.377 z" /></g><g
     id="g3047"
     transform="translate(-1.1122926,0.48349588)"><path
       id="path3017"
       d="M 51.694,16.021 C 20.375,12.427 0,6.59 0,0 V 50 C 0,43.409 20.375,37.572 51.695,33.979 49.896,31.121 48.914,28.112 48.914,25 c 0.002,-3.112 0.982,-6.12 2.78,-8.979 z"
       inkscape:connector-curvature="0"
       style="fill:#702bd9" /><path
       id="path3019"
       d="m 1.25,50 h -2.5 V 0 h 2.5 c 0,4.14 13.249,10.495 50.586,14.779 l 1.973,0.226 -1.057,1.681 c -1.716,2.729 -2.587,5.526 -2.589,8.314 0,2.785 0.871,5.582 2.589,8.312 l 1.059,1.682 -1.974,0.227 C 14.499,39.505 1.25,45.859 1.25,50 z m 0,-45.529 V 45.53 C 9.017,38.856 33.194,34.926 49.674,32.958 48.339,30.352 47.663,27.683 47.663,25.001 47.665,22.317 48.34,19.648 49.673,17.044 33.194,15.074 9.017,11.144 1.25,4.471 z"
       inkscape:connector-curvature="0"
       style="fill:#ffffff" /></g><g
     transform="translate(200.12068,0.48349588)"
     id="g2988"><path
       style="fill:#2bd9cf"
       inkscape:connector-curvature="0"
       id="path5-2"
       d="m -0.355,16.008 c 1.804,2.862 2.788,5.875 2.788,8.991 0,3.116 -0.985,6.13 -2.789,8.992 C 30.897,37.588 51.223,43.418 51.223,50 V 0 c 0,6.582 -20.326,12.412 -51.578,16.008 z" /><path
       style="fill:#ffffff"
       inkscape:connector-curvature="0"
       id="path7-3"
       d="m 52.473,50 h -2.5 c 0,-4.133 -13.218,-10.479 -50.472,-14.768 l -1.974,-0.228 1.059,-1.681 c 1.723,-2.734 2.597,-5.536 2.597,-8.326 0,-2.791 -0.874,-5.591 -2.596,-8.324 l -1.059,-1.681 1.974,-0.227 C 36.755,10.48 49.973,4.133 49.973,0 h 2.5 V 50 z M 1.665,32.971 c 16.44,1.971 40.553,5.897 48.308,12.561 V 4.47 c -7.754,6.662 -31.867,10.59 -48.307,12.56 1.339,2.609 2.017,5.283 2.017,7.97 0,2.688 -0.678,5.359 -2.018,7.971 z" /></g><g
     id="g3054"
     transform="translate(-25.070857,-46.388876)"><g
       id="g3004"
       transform="translate(74.750722,46.872371)"><path
         id="path3006"
         d="M 49.609,19.371 C 32.002,18.795 15.746,17.635 1.693,16.022 c -1.798,2.858 -2.78,5.867 -2.78,8.978 0,3.111 0.982,6.12 2.781,8.979 14.051,-1.612 30.307,-2.772 47.915,-3.349 -0.436,-1.812 -0.672,-3.692 -0.672,-5.63 0.001,-1.937 0.237,-3.819 0.672,-5.629 z"
         inkscape:connector-curvature="0"
         style="fill:#322de3" /><path
         id="path3008"
         d="M 1.056,35.31 0.637,34.645 C -1.336,31.51 -2.336,28.265 -2.336,25 c 0,-3.265 1,-6.509 2.972,-9.644 l 0.419,-0.666 0.782,0.09 c 14.365,1.649 30.453,2.773 47.814,3.341 l 1.533,0.05 -0.359,1.492 c -0.422,1.757 -0.637,3.553 -0.637,5.336 0,1.783 0.215,3.579 0.638,5.338 l 0.358,1.491 -1.533,0.05 C 32.297,32.446 16.21,33.57 1.838,35.22 L 1.056,35.31 z M 2.35,17.355 C 0.899,19.872 0.164,22.44 0.164,25 c 0,2.56 0.735,5.129 2.187,7.646 C 16.174,31.085 31.546,30.004 48.082,29.431 47.82,27.962 47.687,26.478 47.687,25 c 0,-1.478 0.133,-2.962 0.395,-4.43 C 31.54,19.997 16.166,18.916 2.35,17.355 z"
         inkscape:connector-curvature="0"
         style="fill:#ffffff" /></g></g><g
     id="g3070"
     transform="translate(1.1011354,1.2509466)"><g
       id="g2991"
       transform="translate(149.45459,-0.76545074)"><path
         id="path2993"
         d="m 51.335,24.999 c 0,-3.116 -0.983,-6.128 -2.788,-8.991 -14.046,1.616 -30.301,2.779 -47.91,3.358 0.437,1.812 0.675,3.695 0.675,5.634 0,1.939 -0.238,3.822 -0.675,5.634 17.609,0.578 33.863,1.742 47.909,3.356 1.804,-2.861 2.789,-5.875 2.789,-8.991 z"
         inkscape:connector-curvature="0"
         style="fill:#2dabe3" /><path
         id="path2995"
         d="m 49.185,35.322 -0.781,-0.09 C 34.022,33.579 17.937,32.452 0.597,31.882 l -1.534,-0.05 0.36,-1.492 c 0.425,-1.761 0.64,-3.558 0.64,-5.341 0,-1.783 -0.215,-3.58 -0.64,-5.341 l -0.36,-1.492 1.534,-0.051 c 17.361,-0.571 33.447,-1.698 47.808,-3.351 l 0.781,-0.09 0.419,0.665 c 1.978,3.138 2.98,6.387 2.98,9.658 0,3.27 -1.003,6.52 -2.981,9.658 l -0.419,0.667 z M 2.166,29.435 c 16.522,0.575 31.895,1.659 45.725,3.223 1.457,-2.521 2.194,-5.094 2.194,-7.658 0,-2.565 -0.737,-5.138 -2.193,-7.658 -13.813,1.564 -29.184,2.647 -45.726,3.224 0.263,1.47 0.396,2.955 0.396,4.434 0,1.479 -0.133,2.965 -0.396,4.435 z"
         inkscape:connector-curvature="0"
         style="fill:#ffffff" /></g></g></svg>