<svg xmlns="http://www.w3.org/2000/svg" xmlns:xlink="http://www.w3.org/1999/xlink" version="1.1" id="Layer_1" x="0px" y="0px" width="100px" height="100px" viewBox="0 0 100 100" enable-background="new 0 0 100 100" xml:space="preserve">
<g>
	<path fill="none" d="M57.893,36.328c1.872,1.081,3.725,2.206,5.547,3.362c-0.248-3.91-0.636-7.576-1.134-10.979   c-3.259,1.295-6.636,2.798-10.077,4.497C54.112,34.199,56.003,35.237,57.893,36.328z"/>
	<path fill="none" d="M61.987,26.666C59.463,11.349,54.62,2.027,50.001,2.027s-9.462,9.321-11.987,24.64   c3.864,1.517,7.894,3.329,11.986,5.398C54.094,29.996,58.123,28.183,61.987,26.666z"/>
	<path fill="none" d="M42.106,63.669c-1.871-1.08-3.724-2.205-5.546-3.361c0.248,3.909,0.636,7.576,1.134,10.978   c3.259-1.295,6.637-2.797,10.077-4.497C45.888,65.799,43.996,64.76,42.106,63.669z"/>
	<path fill="none" d="M25.395,49.999c2.702,2.137,5.689,4.311,8.959,6.485c-0.091-2.156-0.139-4.323-0.139-6.484   c0-2.162,0.049-4.329,0.139-6.486C31.084,45.688,28.097,47.862,25.395,49.999z"/>
	<path fill="none" d="M8.453,26.014c-2.311,4.002,3.352,12.867,15.373,22.723c3.295-2.633,6.888-5.229,10.649-7.701   c0.26-4.484,0.711-8.888,1.342-13.05c-7.814-2.95-14.82-4.611-20.03-4.611C13.137,23.374,9.712,23.832,8.453,26.014z"/>
	<path fill="none" d="M23.826,51.263C11.805,61.117,6.143,69.983,8.454,73.986c1.259,2.181,4.682,2.638,7.332,2.638   c5.21,0,12.216-1.661,20.03-4.61c-0.631-4.163-1.082-8.566-1.341-13.051C30.714,56.491,27.121,53.895,23.826,51.263z"/>
	<path fill="none" d="M38.013,73.331c2.525,15.319,7.368,24.642,11.988,24.642c3.41,0,6.864-4.966,9.475-13.627   c0.999-3.311,1.832-7.023,2.493-11.022C58.11,71.809,54.086,69.998,50,67.932C45.906,70.001,41.877,71.814,38.013,73.331z"/>
	<path fill="none" d="M47.771,33.209c-3.44-1.699-6.818-3.201-10.076-4.496c-0.498,3.401-0.887,7.067-1.135,10.978   c1.822-1.156,3.675-2.281,5.546-3.361C43.997,35.237,45.888,34.199,47.771,33.209z"/>
	<path fill="none" d="M76.173,48.736c12.022-9.855,17.685-18.72,15.374-22.723c-1.259-2.182-4.684-2.64-7.334-2.64   c-5.21,0-12.215,1.661-20.029,4.61c0.63,4.163,1.082,8.566,1.341,13.051C69.286,43.507,72.879,46.104,76.173,48.736z"/>
	<path fill="none" d="M74.604,49.999c-2.702-2.136-5.688-4.311-8.958-6.484c0.091,2.156,0.139,4.324,0.139,6.485   c0,2.186-0.047,4.346-0.131,6.479C68.92,54.306,71.905,52.134,74.604,49.999z"/>
	<path fill="none" d="M76.173,51.263c-3.29,2.629-6.879,5.223-10.635,7.69c-0.251,4.563-0.694,8.954-1.315,13.074   c7.799,2.941,14.791,4.597,19.992,4.597c2.649,0,6.072-0.457,7.331-2.638C93.857,69.983,88.195,61.118,76.173,51.263z"/>
	<path fill="none" d="M56.879,38.083c-2.3-1.327-4.598-2.571-6.879-3.745c-2.281,1.174-4.58,2.418-6.88,3.746   c-2.337,1.35-4.57,2.711-6.696,4.076c-0.119,2.525-0.183,5.141-0.183,7.84c0,2.698,0.063,5.313,0.183,7.837   c1.624,1.043,3.318,2.084,5.066,3.119c0.638,0.541,1.371,0.968,2.17,1.263c2.12,1.213,4.236,2.359,6.34,3.44   c2.281-1.173,4.579-2.417,6.879-3.745c2.334-1.348,4.564-2.708,6.688-4.071c0.124-2.569,0.191-5.188,0.191-7.843   c0-2.699-0.063-5.314-0.183-7.839C61.45,40.795,59.217,39.433,56.879,38.083z M50,60c-5.523,0-10-4.478-10-10   c0-5.523,4.477-10,10-10c5.522,0,10,4.477,10,10C60,55.522,55.522,60,50,60z"/>
	<path fill="none" d="M52.229,66.788c3.434,1.697,6.806,3.196,10.059,4.49c0.512-3.479,0.894-7.155,1.14-10.964   c-1.818,1.154-3.667,2.276-5.534,3.354C56.003,64.76,54.111,65.798,52.229,66.788z"/>
	<path d="M77.728,49.999C89.258,40.47,96.586,30.688,93.303,25c-1.399-2.424-4.458-3.653-9.09-3.653   c-5.336,0-12.448,1.659-20.354,4.606C61.369,11.22,56.563,0,50.001,0S38.633,11.22,36.143,25.953   c-7.906-2.947-15.02-4.606-20.355-4.606c-4.632,0-7.69,1.229-9.09,3.653c-3.283,5.688,4.045,15.47,15.575,24.999   C10.742,59.529,3.415,69.312,6.698,75c1.399,2.423,4.457,3.651,9.088,3.651c5.336,0,12.449-1.659,20.355-4.607   C38.631,88.779,43.438,100,50.001,100c4.431,0,8.485-5.352,11.416-15.069c0.988-3.278,1.817-6.938,2.481-10.871   c7.891,2.938,14.988,4.592,20.316,4.592c4.631,0,7.688-1.229,9.087-3.651C96.585,69.312,89.258,59.529,77.728,49.999z    M15.786,76.624c-2.65,0-6.073-0.457-7.332-2.638c-2.312-4.003,3.351-12.869,15.372-22.724c3.295,2.632,6.888,5.229,10.649,7.7   c0.259,4.484,0.71,8.888,1.341,13.051C28.002,74.963,20.996,76.624,15.786,76.624z M34.354,56.484   c-3.27-2.175-6.257-4.349-8.959-6.485c2.702-2.137,5.689-4.311,8.959-6.485c-0.09,2.157-0.139,4.324-0.139,6.486   C34.215,52.161,34.263,54.328,34.354,56.484z M34.476,41.035c-3.762,2.472-7.354,5.068-10.649,7.701   C11.805,38.881,6.143,30.016,8.453,26.014c1.259-2.182,4.684-2.64,7.334-2.64c5.21,0,12.216,1.661,20.03,4.611   C35.187,32.147,34.735,36.551,34.476,41.035z M63.439,39.69c-1.822-1.156-3.675-2.281-5.547-3.362   c-1.89-1.091-3.78-2.129-5.664-3.119c3.441-1.699,6.818-3.202,10.077-4.497C62.804,32.114,63.191,35.78,63.439,39.69z    M50.001,2.027c4.619,0,9.462,9.321,11.986,24.639c-3.864,1.517-7.894,3.33-11.987,5.399c-4.093-2.069-8.122-3.882-11.986-5.398   C40.539,11.349,45.382,2.027,50.001,2.027z M37.695,28.713c3.258,1.295,6.636,2.797,10.076,4.496   c-1.884,0.99-3.774,2.028-5.665,3.12c-1.871,1.08-3.724,2.205-5.546,3.361C36.809,35.78,37.197,32.114,37.695,28.713z    M36.561,60.308c1.822,1.156,3.675,2.281,5.546,3.361c1.89,1.091,3.781,2.13,5.665,3.119c-3.44,1.7-6.818,3.202-10.077,4.497   C37.196,67.884,36.809,64.217,36.561,60.308z M59.476,84.346c-2.61,8.661-6.064,13.627-9.475,13.627   c-4.62,0-9.463-9.322-11.988-24.642c3.864-1.517,7.894-3.33,11.987-5.399c4.086,2.066,8.11,3.877,11.969,5.392   C61.308,77.322,60.475,81.035,59.476,84.346z M62.287,71.278c-3.253-1.294-6.625-2.793-10.059-4.49   c1.883-0.99,3.774-2.028,5.664-3.119c1.867-1.078,3.716-2.2,5.534-3.354C63.181,64.123,62.799,67.799,62.287,71.278z    M63.567,57.843c-2.124,1.363-4.354,2.724-6.688,4.071c-2.3,1.328-4.598,2.572-6.879,3.745c-2.104-1.081-4.22-2.228-6.34-3.44   c-0.799-0.295-1.532-0.722-2.17-1.263c-1.748-1.035-3.442-2.076-5.066-3.119c-0.119-2.523-0.183-5.139-0.183-7.837   c0-2.699,0.063-5.314,0.183-7.84c2.126-1.365,4.359-2.727,6.696-4.076c2.3-1.328,4.599-2.572,6.88-3.746   c2.281,1.174,4.579,2.418,6.879,3.745c2.338,1.35,4.571,2.712,6.697,4.078c0.119,2.524,0.183,5.14,0.183,7.839   C63.759,52.654,63.691,55.273,63.567,57.843z M84.213,23.374c2.65,0,6.075,0.458,7.334,2.64   c2.311,4.003-3.352,12.867-15.374,22.723c-3.294-2.632-6.887-5.229-10.648-7.701c-0.259-4.484-0.711-8.888-1.341-13.051   C71.998,25.035,79.003,23.374,84.213,23.374z M65.646,43.515c3.27,2.174,6.256,4.349,8.958,6.484   c-2.699,2.135-5.685,4.307-8.95,6.479c0.084-2.133,0.131-4.293,0.131-6.479C65.785,47.839,65.737,45.671,65.646,43.515z    M91.546,73.986c-1.259,2.181-4.682,2.638-7.331,2.638c-5.201,0-12.193-1.655-19.992-4.597c0.621-4.12,1.064-8.512,1.315-13.074   c3.756-2.468,7.345-5.062,10.635-7.69C88.195,61.118,93.857,69.983,91.546,73.986z"/>
	<circle cx="50" cy="50" r="10"/>
</g>
</svg>