<?xml version="1.0" encoding="utf-8"?>
<!-- Generator: Adobe Illustrator 16.0.0, SVG Export Plug-In . SVG Version: 6.00 Build 0)  -->
<!DOCTYPE svg PUBLIC "-//W3C//DTD SVG 1.1//EN" "http://www.w3.org/Graphics/SVG/1.1/DTD/svg11.dtd" [
	<!ENTITY ns_extend "http://ns.adobe.com/Extensibility/1.0/">
	<!ENTITY ns_ai "http://ns.adobe.com/AdobeIllustrator/10.0/">
	<!ENTITY ns_graphs "http://ns.adobe.com/Graphs/1.0/">
	<!ENTITY ns_vars "http://ns.adobe.com/Variables/1.0/">
	<!ENTITY ns_imrep "http://ns.adobe.com/ImageReplacement/1.0/">
	<!ENTITY ns_sfw "http://ns.adobe.com/SaveForWeb/1.0/">
	<!ENTITY ns_custom "http://ns.adobe.com/GenericCustomNamespace/1.0/">
	<!ENTITY ns_adobe_xpath "http://ns.adobe.com/XPath/1.0/">
]>
<svg version="1.1" id="Ebene_1" xmlns:x="&ns_extend;" xmlns:i="&ns_ai;" xmlns:graph="&ns_graphs;"
	 xmlns="http://www.w3.org/2000/svg" xmlns:xlink="http://www.w3.org/1999/xlink" x="0px" y="0px" width="100px" height="100px"
	 viewBox="0 0 100 100" enable-background="new 0 0 100 100" xml:space="preserve">
<metadata>
	<sfw  xmlns="&ns_sfw;">
		<slices></slices>
		<sliceSourceBounds  height="91.74" width="91.74" y="373.074" x="375.76" bottomLeftOrigin="true"></sliceSourceBounds>
	</sfw>
</metadata>
<g id="Captions">
</g>
<path d="M94.852,38.851c1.215,0,2.148-0.935,2.148-2.149v-5.138c0-1.215-0.934-2.148-2.148-2.148H82.614v-3.644
	c0-3.176-2.522-5.699-5.7-5.699h-3.549V7.834c0-1.214-0.934-2.148-2.148-2.148h-5.139c-1.214,0-2.149,0.934-2.149,2.148v12.238
	h-8.127V7.834c0-1.214-0.934-2.148-2.148-2.148h-5.138c-1.214,0-2.149,0.934-2.149,2.148v12.238h-7.94V7.834
	c0-1.214-0.935-2.148-2.149-2.148h-5.139c-1.214,0-2.148,0.934-2.148,2.148v12.238h-3.643c-3.177,0-5.699,2.522-5.699,5.699v3.644
	H7.409c-1.215,0-2.149,0.934-2.149,2.148v5.138c0,1.214,0.934,2.149,2.149,2.149h12.238v7.939H7.409
	c-1.215,0-2.149,0.935-2.149,2.15v5.137c0,1.215,0.934,2.149,2.149,2.149h12.238v8.034H7.409c-1.215,0-2.149,0.935-2.149,2.148
	v5.139c0,1.215,0.934,2.148,2.149,2.148h12.238v3.643c0,3.177,2.522,5.699,5.699,5.699h3.643v12.238
	c0,1.215,0.934,2.148,2.148,2.148h5.139c1.214,0,2.149-0.934,2.149-2.148V83.039h7.94v12.238c0,1.215,0.935,2.148,2.149,2.148h5.138
	c1.215,0,2.148-0.934,2.148-2.148V83.039h8.034v12.238c0,1.215,0.935,2.148,2.148,2.148h5.139c1.215,0,2.148-0.934,2.148-2.148
	V83.039h3.549c3.178,0,5.7-2.522,5.7-5.699v-3.643h12.238c1.214,0,2.148-0.934,2.148-2.148V66.41c0-1.214-0.935-2.148-2.148-2.148
	H82.614v-8.034h12.237c1.215,0,2.148-0.935,2.148-2.149v-5.137c0-1.216-0.934-2.15-2.148-2.15H82.614v-7.939H94.852z M73.271,73.697
	H56.362v-4.484c0-0.654-0.28-1.309-0.748-1.775l-9.996-10.09v-3.549c2.056-1.121,3.27-3.458,2.616-5.98
	c-0.467-1.868-1.962-3.364-3.924-3.831c-3.456-0.748-6.54,1.869-6.54,5.139c0,2.056,1.122,3.736,2.803,4.672v4.576
	c0,0.655,0.281,1.309,0.748,1.776l9.996,10.09v3.456H28.989V29.415h14.668v4.484c0,0.654,0.28,1.308,0.747,1.775l9.997,9.995v3.551
	c-2.055,1.121-3.27,3.457-2.616,5.979c0.468,1.867,1.963,3.362,3.924,3.83c3.456,0.747,6.54-1.869,6.54-5.138
	c0-2.058-1.121-3.737-2.804-4.672v-4.578c0-0.654-0.28-1.308-0.746-1.775l-9.996-10.09v-3.363h24.476v44.282H73.271z"/>
</svg>
