<?xml version="1.0" encoding="UTF-8" standalone="no"?>
<svg
   xmlns:dc="http://purl.org/dc/elements/1.1/"
   xmlns:cc="http://creativecommons.org/ns#"
   xmlns:rdf="http://www.w3.org/1999/02/22-rdf-syntax-ns#"
   xmlns:svg="http://www.w3.org/2000/svg"
   xmlns="http://www.w3.org/2000/svg"
   xmlns:sodipodi="http://sodipodi.sourceforge.net/DTD/sodipodi-0.dtd"
   xmlns:inkscape="http://www.inkscape.org/namespaces/inkscape"
   version="1.1"
   id="Layer_1"
   x="0px"
   y="0px"
   width="100px"
   height="100px"
   viewBox="0 0 100 100"
   enable-background="new 0 0 100 100"
   xml:space="preserve"
   inkscape:version="0.48.4 r9939"
   sodipodi:docname="myicon-f1.svg"><metadata
     id="metadata15"><rdf:RDF><cc:Work
         rdf:about=""><dc:format>image/svg+xml</dc:format><dc:type
           rdf:resource="http://purl.org/dc/dcmitype/StillImage" /><dc:title></dc:title></cc:Work></rdf:RDF></metadata><defs
     id="defs13" /><sodipodi:namedview
     pagecolor="#ffffff"
     bordercolor="#666666"
     borderopacity="1"
     objecttolerance="10"
     gridtolerance="10"
     guidetolerance="10"
     inkscape:pageopacity="0"
     inkscape:pageshadow="2"
     inkscape:window-width="1920"
     inkscape:window-height="1056"
     id="namedview11"
     showgrid="false"
     inkscape:zoom="2.36"
     inkscape:cx="49.576271"
     inkscape:cy="50"
     inkscape:window-x="0"
     inkscape:window-y="24"
     inkscape:window-maximized="1"
     inkscape:current-layer="Layer_1" /><path
     d="m 33.384221,26.305225 c -2.460966,0 -4.455173,1.995653 -4.455173,4.455174 0,2.460962 1.99565,4.456614 4.455173,4.456614 2.459519,0 4.45517,-1.995652 4.45517,-4.456614 0,-2.459521 -1.995651,-4.455174 -4.45517,-4.455174 z m 0.861265,5.749964 c -1.190742,0 -2.156056,-0.965314 -2.156056,-2.156052 0,-1.190749 0.965314,-2.156061 2.156056,-2.156061 1.190747,0 2.156054,0.965312 2.156054,2.156061 0,1.190738 -0.963865,2.156052 -2.156054,2.156052 z"
     id="path5"
     inkscape:connector-curvature="0" /><path
     d="m 86.703207,37.803703 c 0,0 6.036084,-14.94643 -10.348192,-22.420362 0,0 -16.670403,-5.7485167 -22.994057,11.210899 l -4.024537,0.286128 c 0,0 -6.036086,-19.2570887 -25.58219,-10.34819 0,0 -12.359738,6.323654 -7.761504,20.12124 0,0 -15.5215673,2.586688 -14.9464268,20.408818 0,0 0.2861247,12.93488 14.6588538,17.24699 0,0 33.631267,33.628364 70.422915,-0.287571 0,0 12.072167,-2.874257 12.933435,-20.119805 0.001,-0.002 -0.284682,-12.936324 -12.358297,-16.098147 z m -53.894126,1.150281 c -4.682049,0 -8.479706,-3.796219 -8.479706,-8.47971 0,-4.683491 3.797657,-8.479712 8.479706,-8.479712 4.683494,0 8.479709,3.796221 8.479709,8.479712 -10e-4,4.682044 -3.797665,8.47971 -8.479709,8.47971 z m 37.366789,0 c -4.682049,0 -8.478264,-3.796219 -8.478264,-8.47971 0,-4.683491 3.796215,-8.479712 8.478264,-8.479712 4.683493,0 8.479712,3.796221 8.479712,8.479712 0,4.682044 -3.796219,8.47971 -8.479712,8.47971 z"
     id="path7"
     inkscape:connector-curvature="0" /><path
     d="m 70.749566,26.305225 c -2.45952,0 -4.455171,1.995653 -4.455171,4.455174 0,2.460962 1.995651,4.456614 4.455171,4.456614 2.460968,0 4.456612,-1.995652 4.456612,-4.456614 0,-2.459521 -1.995644,-4.455174 -4.456612,-4.455174 z m 0.864152,5.749964 c -1.190743,0 -2.156052,-0.965314 -2.156052,-2.156052 0,-1.190749 0.965309,-2.156061 2.156052,-2.156061 1.190741,0 2.156057,0.965312 2.156057,2.156061 0,1.190738 -0.965316,2.156052 -2.156057,2.156052 z"
     id="path9"
     inkscape:connector-curvature="0" /><path
     d="m 50.047205,78.864409 c 13.566983,0 24.56445,-9.151727 24.56445,-20.440683 h -49.1311 c 0,11.287864 10.999665,20.440683 24.56665,20.440683 z"
     id="path12"
     inkscape:connector-curvature="0"
     style="fill:#ffffff" /></svg>