<?xml version="1.0" encoding="utf-8"?>
<!-- Generator: Adobe Illustrator 16.0.0, SVG Export Plug-In . SVG Version: 6.00 Build 0)  -->
<!DOCTYPE svg PUBLIC "-//W3C//DTD SVG 1.1//EN" "http://www.w3.org/Graphics/SVG/1.1/DTD/svg11.dtd" [
	<!ENTITY ns_extend "http://ns.adobe.com/Extensibility/1.0/">
	<!ENTITY ns_ai "http://ns.adobe.com/AdobeIllustrator/10.0/">
	<!ENTITY ns_graphs "http://ns.adobe.com/Graphs/1.0/">
	<!ENTITY ns_vars "http://ns.adobe.com/Variables/1.0/">
	<!ENTITY ns_imrep "http://ns.adobe.com/ImageReplacement/1.0/">
	<!ENTITY ns_sfw "http://ns.adobe.com/SaveForWeb/1.0/">
	<!ENTITY ns_custom "http://ns.adobe.com/GenericCustomNamespace/1.0/">
	<!ENTITY ns_adobe_xpath "http://ns.adobe.com/XPath/1.0/">
]>
<svg version="1.1" id="Layer_1" xmlns:x="&ns_extend;" xmlns:i="&ns_ai;" xmlns:graph="&ns_graphs;"
	 xmlns="http://www.w3.org/2000/svg" xmlns:xlink="http://www.w3.org/1999/xlink" x="0px" y="0px" width="50px" height="50px"
	 viewBox="0 0 50 50" enable-background="new 0 0 50 50" xml:space="preserve">
<metadata>
	<sfw  xmlns="&ns_sfw;">
		<slices></slices>
		<sliceSourceBounds  width="54.946" height="50" x="393.027" y="395.5" bottomLeftOrigin="true"></sliceSourceBounds>
	</sfw>
</metadata>
<path fill="#2BD9CF" d="M-0.355,16.008c1.804,2.862,2.788,5.875,2.788,8.991s-0.985,6.13-2.789,8.992
	C30.897,37.588,51.223,43.418,51.223,50V0C51.223,6.582,30.897,12.412-0.355,16.008z"/>
<path fill="#FFFFFF" d="M52.473,50h-2.5c0-4.133-13.218-10.479-50.472-14.768l-1.974-0.228l1.059-1.681
	c1.723-2.734,2.597-5.536,2.597-8.326c0-2.791-0.874-5.591-2.596-8.324l-1.059-1.681l1.974-0.227
	C36.755,10.48,49.973,4.133,49.973,0h2.5V50z M1.665,32.971c16.44,1.971,40.553,5.897,48.308,12.561V4.47
	c-7.754,6.662-31.867,10.59-48.307,12.56c1.339,2.609,2.017,5.283,2.017,7.97C3.683,27.688,3.005,30.359,1.665,32.971z"/>
</svg>
