<?xml version="1.0" encoding="utf-8"?>
<!-- Generator: Adobe Illustrator 16.0.0, SVG Export Plug-In . SVG Version: 6.00 Build 0)  -->
<!DOCTYPE svg PUBLIC "-//W3C//DTD SVG 1.1//EN" "http://www.w3.org/Graphics/SVG/1.1/DTD/svg11.dtd" [
	<!ENTITY ns_extend "http://ns.adobe.com/Extensibility/1.0/">
	<!ENTITY ns_ai "http://ns.adobe.com/AdobeIllustrator/10.0/">
	<!ENTITY ns_graphs "http://ns.adobe.com/Graphs/1.0/">
	<!ENTITY ns_vars "http://ns.adobe.com/Variables/1.0/">
	<!ENTITY ns_imrep "http://ns.adobe.com/ImageReplacement/1.0/">
	<!ENTITY ns_sfw "http://ns.adobe.com/SaveForWeb/1.0/">
	<!ENTITY ns_custom "http://ns.adobe.com/GenericCustomNamespace/1.0/">
	<!ENTITY ns_adobe_xpath "http://ns.adobe.com/XPath/1.0/">
]>
<svg version="1.1" id="Layer_1" xmlns:x="&ns_extend;" xmlns:i="&ns_ai;" xmlns:graph="&ns_graphs;"
	 xmlns="http://www.w3.org/2000/svg" xmlns:xlink="http://www.w3.org/1999/xlink" x="0px" y="0px" width="32px" height="32px"
	 viewBox="0 0 32 32" enable-background="new 0 0 32 32" xml:space="preserve">
<metadata>
	<sfw  xmlns="&ns_sfw;">
		<slices></slices>
		<sliceSourceBounds  width="31.922" height="26.547" y="406.667" x="404.5" bottomLeftOrigin="true"></sliceSourceBounds>
	</sfw>
</metadata>
<path d="M15.96,3.286C7.146,3.286,0,8.037,0,13.897c0,3.352,2.346,6.339,5.999,8.283c-0.521,1.723-1.558,3.621-3.562,5.314
	c0,0,4.679-0.313,7.984-3.664c0.189,0.044,0.387,0.075,0.579,0.121c-0.18-0.541-0.287-1.094-0.287-1.678
	c0-3.958,4.4-7.051,10.022-7.051c4.036,0,7.436,1.603,9.032,3.971c1.361-1.563,2.154-3.375,2.154-5.306
	C31.919,8.034,24.771,3.286,15.96,3.286z M29.59,22.283c0-3.25-3.964-5.889-8.857-5.889c-4.891,0-8.856,2.639-8.856,5.889
	c0,3.254,3.965,5.891,8.856,5.891c1.083,0,2.114-0.136,3.073-0.363c1.834,1.862,4.433,2.022,4.433,2.022
	c-1.113-0.938-1.677-1.997-1.967-2.944C28.287,25.801,29.59,24.146,29.59,22.283z"/>
</svg>
