<?xml version="1.0" encoding="utf-8"?>
<!-- Generator: Adobe Illustrator 16.0.0, SVG Export Plug-In . SVG Version: 6.00 Build 0)  -->
<!DOCTYPE svg PUBLIC "-//W3C//DTD SVG 1.1//EN" "http://www.w3.org/Graphics/SVG/1.1/DTD/svg11.dtd" [
	<!ENTITY ns_extend "http://ns.adobe.com/Extensibility/1.0/">
	<!ENTITY ns_ai "http://ns.adobe.com/AdobeIllustrator/10.0/">
	<!ENTITY ns_graphs "http://ns.adobe.com/Graphs/1.0/">
	<!ENTITY ns_vars "http://ns.adobe.com/Variables/1.0/">
	<!ENTITY ns_imrep "http://ns.adobe.com/ImageReplacement/1.0/">
	<!ENTITY ns_sfw "http://ns.adobe.com/SaveForWeb/1.0/">
	<!ENTITY ns_custom "http://ns.adobe.com/GenericCustomNamespace/1.0/">
	<!ENTITY ns_adobe_xpath "http://ns.adobe.com/XPath/1.0/">
]>
<svg version="1.1" id="Livello_1" xmlns:x="&ns_extend;" xmlns:i="&ns_ai;" xmlns:graph="&ns_graphs;"
	 xmlns="http://www.w3.org/2000/svg" xmlns:xlink="http://www.w3.org/1999/xlink" x="0px" y="0px" width="100px" height="100px"
	 viewBox="0 0 100 100" enable-background="new 0 0 100 100" xml:space="preserve">
<metadata>
	<sfw  xmlns="&ns_sfw;">
		<slices></slices>
		<sliceSourceBounds  width="99.741" height="93.761" y="372.65" x="370.5" bottomLeftOrigin="true"></sliceSourceBounds>
	</sfw>
</metadata>
<path id="gear-1" fill="#020202" d="M35.911,53.224l0.021-4.044l-6.289-1.427c-0.248-0.859-0.589-1.7-1.023-2.493l3.568-5.348
	l-2.856-2.876l-5.453,3.444c-0.806-0.456-1.645-0.797-2.503-1.057l-1.252-6.309l-4.044-0.01l-1.427,6.298
	c-0.859,0.236-1.706,0.579-2.504,1.013l-5.347-3.564l-2.867,2.854l3.432,5.461c-0.444,0.796-0.786,1.621-1.034,2.48L0.022,48.91
	L0,52.952l6.299,1.426c0.238,0.859,0.582,1.701,1.015,2.493l-3.56,5.349l2.845,2.866l5.453-3.435c0.796,0.456,1.634,0.8,2.491,1.045
	l1.264,6.313l4.042,0.013l1.429-6.292c0.858-0.235,1.696-0.578,2.503-1.01l5.349,3.556l2.867-2.847l-3.445-5.449
	c0.453-0.798,0.797-1.634,1.046-2.493L35.911,53.224z M21.357,54.486c-1.893,1.872-4.936,1.862-6.807-0.032
	c-1.873-1.882-1.862-4.933,0.032-6.806c1.88-1.871,4.934-1.853,6.804,0.031C23.26,49.573,23.239,52.612,21.357,54.486z"/>
<path id="gear-2" fill="#020202" d="M62.484,76.084c0.01-0.716-0.022-1.438-0.097-2.172c-0.082-0.748-0.217-1.46-0.392-2.153
	l4.375-4.995c-0.57-1.293-1.252-2.523-2.029-3.67l-6.548,1.002c-1.01-1.045-2.151-1.964-3.402-2.717l-0.444-6.582
	c-1.306-0.507-2.657-0.899-4.056-1.169l-3.902,5.308c-0.712-0.01-1.446,0.011-2.181,0.093c-0.723,0.083-1.439,0.219-2.139,0.394
	l-4.925-4.289c-1.315,0.569-2.565,1.262-3.732,2.058l0.993,6.443c-1.045,1.015-1.963,2.151-2.721,3.403l-6.476,0.434
	c-0.529,1.323-0.93,2.702-1.188,4.118l5.213,3.837c-0.012,0.711,0.023,1.443,0.106,2.179c0.071,0.735,0.205,1.447,0.38,2.142
	l-4.259,4.88c0.569,1.336,1.262,2.587,2.057,3.771l6.413-0.981c1.013,1.043,2.152,1.96,3.403,2.717l0.445,6.507
	c1.305,0.528,2.668,0.935,4.085,1.211l3.868-5.265c0.705,0.011,1.438-0.022,2.173-0.103c0.735-0.074,1.448-0.206,2.151-0.384
	l4.955,4.331c1.304-0.559,2.545-1.241,3.702-2.026l-1.005-6.517c1.057-1.014,1.965-2.151,2.732-3.402l6.601-0.444
	c0.516-1.281,0.922-2.641,1.189-4.027L62.484,76.084z M46.74,84.844c-5.025,0.549-9.547-3.071-10.107-8.099
	c-0.559-5.022,3.071-9.544,8.099-10.104c5.018-0.561,9.538,3.068,10.097,8.096C55.388,79.766,51.768,84.285,46.74,84.844z"/>
<path id="gear-3" fill="#020202" d="M92.802,37.181l0.269-5.034l6.671-5.411l-2.223-6.403l-0.993,0.015l-7.522,0.103l-3.328-3.796
	l0.877-8.626l-6.016-3l-0.694,0.725l-5.192,5.46l-4.979-0.331l-5.409-6.795l-6.299,2.182l0.021,1.003l0.163,7.624l-3.702,3.32
	l-8.544-0.97l-2.886,6.071l0.712,0.704l5.442,5.316l-0.27,5.028l-6.66,5.42l2.215,6.4l0.993-0.01l7.521-0.106l3.331,3.784
	l-0.88,8.64l6.018,2.979l0.682-0.713l5.204-5.452l4.976,0.322l5.409,6.795l6.3-2.174l-0.022-1.012l-0.165-7.613l3.704-3.331
	l8.543,0.974l2.887-6.072l-0.714-0.694L92.802,37.181z M74.091,42.219c-4.861,1.686-10.213-0.961-11.918-5.905
	c-1.717-4.955,0.84-10.334,5.711-12.021c4.871-1.686,10.208,0.953,11.925,5.907C81.524,35.153,78.96,40.532,74.091,42.219z"/>
</svg>
