<?xml version="1.0" encoding="utf-8"?>
<!-- Generator: Adobe Illustrator 16.0.0, SVG Export Plug-In . SVG Version: 6.00 Build 0)  -->
<!DOCTYPE svg PUBLIC "-//W3C//DTD SVG 1.1//EN" "http://www.w3.org/Graphics/SVG/1.1/DTD/svg11.dtd" [
	<!ENTITY ns_extend "http://ns.adobe.com/Extensibility/1.0/">
	<!ENTITY ns_ai "http://ns.adobe.com/AdobeIllustrator/10.0/">
	<!ENTITY ns_graphs "http://ns.adobe.com/Graphs/1.0/">
	<!ENTITY ns_vars "http://ns.adobe.com/Variables/1.0/">
	<!ENTITY ns_imrep "http://ns.adobe.com/ImageReplacement/1.0/">
	<!ENTITY ns_sfw "http://ns.adobe.com/SaveForWeb/1.0/">
	<!ENTITY ns_custom "http://ns.adobe.com/GenericCustomNamespace/1.0/">
	<!ENTITY ns_adobe_xpath "http://ns.adobe.com/XPath/1.0/">
]>
<svg version="1.1" id="Your_Icon" xmlns:x="&ns_extend;" xmlns:i="&ns_ai;" xmlns:graph="&ns_graphs;"
	 xmlns="http://www.w3.org/2000/svg" xmlns:xlink="http://www.w3.org/1999/xlink" x="0px" y="0px" width="100px" height="100px"
	 viewBox="0 0 100 100" enable-background="new 0 0 100 100" xml:space="preserve">
<metadata>
	<sfw  xmlns="&ns_sfw;">
		<slices></slices>
		<sliceSourceBounds  width="100.442" height="92.213" x="370.5" y="372.698" bottomLeftOrigin="true"></sliceSourceBounds>
	</sfw>
</metadata>
<g>
	<path d="M0,55.373l1.879,0.626c0,0,2.819-8.136,10.806-8.763c7.982-0.626,49.479-0.313,49.479-0.313v-9.244
		c0,0-43.405-1.084-51.983,2.038C1.565,42.85,0,55.373,0,55.373z"/>
	<path d="M18.479,45.826c0,0,2.975,25.52-12.997,41.646c0,0-3.761,6.575,4.069,10.02c0,0,7.048,2.506,9.867-6.736
		c0,0,3.755-11.27,4.072-26.303l1.252-19.102L18.479,45.826z"/>
	<path d="M38.831,45.979l-3.128,39.612c0,0,1.249,17.07,18.314,10.339c0,0,7.362-4.229,7.984-16.132h-2.814
		c0,0-5.951,11.587-11.587,6.108c0,0-3.135-1.565-2.196-17.689l1.571-22.391l-7.984-0.154"/>
</g>
<g>
	<path fill="#FFFFFF" d="M67.146,57.502c-10.029,10.031-26.292,10.031-36.333,0c-10.03-10.031-10.03-26.293,0-36.324
		c10.042-10.041,26.304-10.041,36.333,0C77.178,31.209,77.178,47.471,67.146,57.502z"/>
	<g>
		<path d="M20.206,34.333c-0.922,3.286-2.697,6.669-2.22,9.906c13.399-0.523,54.139-0.215,54.139-0.215V33.405
			C72.124,33.405,37.434,32.539,20.206,34.333z"/>
		<path d="M21.903,54.977c0.1,0.262,0.202,0.519,0.297,0.779c0.544,1.495,0.999,3.161,1.477,4.861
			c0.004,0.003,0.009,0.005,0.014,0.008c1.334,0.848,2.698,1.639,4.079,2.389l1.364-20.794l-7.194,0.545
			C21.938,42.764,22.518,47.783,21.903,54.977z"/>
		<path d="M52.738,71.26c0.033-0.882,0.076-1.803,0.133-2.775l1.804-25.72l-9.171-0.178l-0.185,0.353l-2.078,26.315
			C46.358,70.119,49.533,70.781,52.738,71.26z"/>
	</g>
	<path stroke="#FFFFFF" stroke-miterlimit="10" d="M97.908,78.63L81.098,61.818l-2.063,2.074l-3.959-3.957
		c10.329-13.053,9.473-32.058-2.582-44.103c-12.981-12.992-34.031-12.992-47.013,0c-12.992,12.982-12.992,34.031,0,47.015
		c11.984,11.983,30.84,12.889,43.881,2.75l3.979,3.979l-2.063,2.074l16.801,16.801c2.722,2.713,7.12,2.713,9.832,0
		C100.62,85.74,100.62,81.342,97.908,78.63z M67.146,57.502c-10.029,10.031-26.292,10.031-36.333,0
		c-10.03-10.031-10.03-26.293,0-36.324c10.042-10.041,26.304-10.041,36.333,0C77.178,31.209,77.178,47.471,67.146,57.502z
		 M92.134,87.505l-0.089,0.091c-0.479,0.477-1.247,0.477-1.725,0L76.529,73.805c-0.479-0.479-0.479-1.246,0-1.726l0.091-0.089
		c0.469-0.469,1.246-0.469,1.726,0l13.788,13.799C92.604,86.26,92.604,87.036,92.134,87.505z"/>
</g>
</svg>
