<svg xmlns="http://www.w3.org/2000/svg" xmlns:xlink="http://www.w3.org/1999/xlink" version="1.1" x="0px" y="0px" viewBox="0 0 100 100" enable-background="new 0 0 100 100" xml:space="preserve" height="100px" width="100px">
<g id="Helper">
</g>
<g id="Layer_2">
	<g>
		<path fill-rule="evenodd" clip-rule="evenodd" d="M65.747,67.496c-8.756-8.754-22.954-8.754-31.701-0.005l-0.005,0.005    c-1.094,1.095-1.101,2.863,0,3.964c1.089,1.089,2.867,1.094,3.964,0l0.005-0.006c6.564-6.563,17.202-6.569,23.774,0.006    c1.094,1.094,2.871,1.1,3.967,0.005C66.846,70.364,66.841,68.592,65.747,67.496z"/>
	</g>
	<g>
		<path d="M72.38,44.5c-0.52,0.82-1.38,1.28-2.28,1.3c0,3.1-2.51,5.61-5.61,5.61c-3.1,0-5.6-2.51-5.6-5.61    c0-2.03,1.08-3.82,2.71-4.78l-1.99-1.25c-1.29-0.82-1.69-2.53-0.87-3.82c0.81-1.3,2.52-1.69,3.82-0.88l8.94,5.61    C72.8,41.49,73.19,43.2,72.38,44.5z"/>
	</g>
	<g>
		<path d="M40.32,39.77l-2.18,1.37c1.51,1,2.51,2.71,2.51,4.66c0,3.1-2.73,5.61-5.83,5.61c-3.09,0-5.82-2.51-5.82-5.61v-0.04    c0-0.13-1.23-0.56-1.66-1.26c-0.82-1.3-0.31-3.01,0.98-3.82l9.005-5.61c1.3-0.81,3.038-0.42,3.848,0.88    C41.983,37.24,41.62,38.95,40.32,39.77z"/>
	</g>
	<g>
		<g>
			<path d="M81.6,18.15c-17.51-17.51-45.9-17.52-63.42,0c-17.51,17.52-17.51,45.91,0,63.42c17.52,17.52,45.91,17.52,63.42,0     C99.12,64.06,99.12,35.67,81.6,18.15z M77.68,70.77c-0.47,0-0.93-0.08-1.35-0.22c-1.68-0.57-2.9-2.15-2.9-4.02     c0-2.13,2.29-7.24,4.25-10.59c1.13,1.93,2.37,4.44,3.21,6.63c0.63,1.61,1.04,3.05,1.04,3.96C81.93,68.87,80.03,70.77,77.68,70.77     z M79.64,49.21c-1.08-1.09-2.83-1.08-3.92-0.01c-2.44,2.45-7.83,12.42-7.83,17.33c0,3.47,1.81,6.52,4.55,8.26l-0.01,0.01     c-5.34,4.84-12.23,8-19.96,8.59c-18.51,1.44-34.68-12.43-36.11-30.95c-1.43-18.52,12.43-34.68,30.95-36.11     C65.84,14.9,82,28.77,83.43,47.28c0.18,2.39-0.03,4.73-0.34,7.01C81.82,52,80.53,50.1,79.64,49.21z"/>
		</g>
	</g>
</g>
</svg>