<?xml version="1.0" encoding="utf-8"?>
<!-- Generator: Adobe Illustrator 16.0.0, SVG Export Plug-In . SVG Version: 6.00 Build 0)  -->
<!DOCTYPE svg PUBLIC "-//W3C//DTD SVG 1.1//EN" "http://www.w3.org/Graphics/SVG/1.1/DTD/svg11.dtd">
<svg version="1.1" id="Layer_1" xmlns="http://www.w3.org/2000/svg" xmlns:xlink="http://www.w3.org/1999/xlink" x="0px" y="0px"
	 width="512px" height="512px" viewBox="0 0 512 512" enable-background="new 0 0 512 512" xml:space="preserve">
<path id="gear-10-icon" d="M333.813,227.612V189.39l-20.652-7.344c-7.875-2.799-14.211-8.814-17.409-16.535
	c-0.002-0.002-0.004-0.006-0.004-0.01c-3.211-7.738-2.986-16.475,0.608-24.041l9.408-19.789l-27.029-27.027l-19.782,9.404
	c-7.563,3.596-16.313,3.822-24.048,0.615c-0.004-0.004-0.008-0.004-0.01-0.004c-7.727-3.203-13.729-9.531-16.533-17.412
	l-7.344-20.654h-38.223l-7.346,20.654c-2.802,7.873-8.813,14.211-16.532,17.412c-0.002,0-0.006,0.002-0.01,0.004
	c-7.74,3.209-16.478,2.984-24.046-0.613l-19.784-9.406l-27.029,27.027l9.406,19.785c3.596,7.562,3.819,16.312,0.612,24.049
	c-0.002,0.002-0.002,0.004-0.006,0.01c-3.201,7.723-9.528,13.729-17.408,16.531L50,189.39v38.223l20.653,7.344
	c7.873,2.801,14.209,8.814,17.41,16.533c0.002,0.004,0.002,0.008,0.004,0.01c3.209,7.74,2.984,16.477-0.61,24.045l-9.408,19.787
	l27.029,27.025l19.784-9.402c7.563-3.596,16.313-3.82,24.05-0.613c0.002,0.002,0.006,0.004,0.008,0.004
	c7.724,3.203,13.728,9.527,16.529,17.408l7.347,20.652h38.223l7.299-20.521c2.824-7.946,8.892-14.344,16.679-17.582
	c0.004-0.002,0.008-0.002,0.012-0.004c7.666-3.188,16.32-2.969,23.817,0.595l19.91,9.463l27.029-27.025l-9.412-19.799
	c-3.592-7.555-3.813-16.295-0.608-24.023c0.002-0.004,0.004-0.006,0.004-0.01c3.206-7.732,9.538-13.742,17.426-16.547
	L333.813,227.612z M191.906,260.542c-28.741,0-52.042-23.301-52.042-52.041c0-28.742,23.301-52.043,52.042-52.043
	c28.74,0,52.041,23.301,52.041,52.043C243.948,237.241,220.647,260.542,191.906,260.542z M462,339.991v-20.32l-10.979-3.901
	c-4.188-1.488-7.557-4.688-9.258-8.791c-0.002,0-0.002-0.002-0.002-0.004c-1.707-4.115-1.586-8.761,0.325-12.783l5-10.521
	l-14.368-14.367l-10.519,5c-4.02,1.91-8.67,2.031-12.783,0.326c-0.002,0-0.004,0-0.006,0c-4.104-1.705-7.299-5.067-8.787-9.258
	l-3.903-10.98H376.4l-3.904,10.98c-1.489,4.187-4.686,7.555-8.788,9.258c-0.003,0-0.005,0-0.007,0
	c-4.111,1.705-8.757,1.586-12.779-0.326l-10.521-5l-14.369,14.367l5.002,10.521c1.91,4.02,2.029,8.672,0.324,12.783
	c0,0.002,0,0.004-0.002,0.006c-1.701,4.106-5.066,7.299-9.254,8.789l-10.98,3.901v20.32l10.98,3.901
	c4.186,1.488,7.555,4.685,9.254,8.789c0.002,0.002,0.002,0.004,0.002,0.006c1.707,4.113,1.588,8.759-0.324,12.781l-5.002,10.521
	l14.369,14.366l10.521-4.998c4.02-1.911,8.67-2.03,12.781-0.325c0.003,0,0.003,0.002,0.005,0.002c4.106,1.7,7.297,5.063,8.788,9.252
	l3.904,10.981h20.32l3.879-10.91c1.502-4.225,4.727-7.625,8.867-9.348c0.002,0,0.004-0.002,0.006-0.002
	c4.074-1.695,8.676-1.578,12.662,0.316l10.584,5.031l14.369-14.367l-5.003-10.525c-1.909-4.018-2.028-8.664-0.325-12.771
	c0-0.003,0.002-0.005,0.002-0.005c1.707-4.11,5.071-7.307,9.264-8.799L462,339.991z M386.561,357.495
	c-15.279,0-27.665-12.388-27.665-27.664c0-15.279,12.386-27.666,27.665-27.666s27.666,12.387,27.666,27.666
	C414.227,345.107,401.84,357.495,386.561,357.495z M315.283,399.813v-11.139l-7.753-1.939c-1.604-0.401-2.873-1.646-3.3-3.245
	c-0.002-0.009-0.005-0.019-0.007-0.025c-0.423-1.575,0.045-3.26,1.218-4.394l5.771-5.584l-5.57-9.646l-7.647,2.187
	c-1.617,0.463-3.366,0.012-4.558-1.176c-0.001-0.002-0.002-0.002-0.002-0.004c-1.141-1.138-1.574-2.806-1.132-4.354l2.221-7.771
	l-9.646-5.569l-5.557,5.744c-1.149,1.188-2.856,1.664-4.453,1.235c-0.01,0-0.018-0.004-0.024-0.006
	c-1.58-0.42-2.807-1.666-3.204-3.254l-1.948-7.789h-11.139l-1.941,7.752c-0.4,1.604-1.646,2.873-3.246,3.301
	c-0.008,0.002-0.018,0.004-0.024,0.007c-1.576,0.424-3.258-0.046-4.394-1.218l-5.584-5.772l-9.646,5.569l2.186,7.648
	c0.464,1.616,0.013,3.366-1.176,4.559c-0.001,0-0.002,0.003-0.003,0.003c-1.138,1.141-2.805,1.573-4.354,1.131l-7.772-2.222
	l-5.568,9.646l5.744,5.556c1.188,1.149,1.662,2.858,1.236,4.455c-0.002,0.008-0.006,0.019-0.007,0.024
	c-0.42,1.58-1.667,2.808-3.254,3.203l-7.79,1.949v11.139l7.753,1.939c1.605,0.402,2.873,1.648,3.3,3.246
	c0.003,0.01,0.005,0.02,0.006,0.027c0.424,1.576-0.044,3.258-1.217,4.393l-5.771,5.584l5.568,9.646l7.648-2.188
	c1.617-0.461,3.366-0.012,4.559,1.176c0.001,0.002,0.002,0.004,0.004,0.004c1.141,1.138,1.572,2.808,1.13,4.354l-2.222,7.772
	l9.646,5.568l5.557-5.744c1.148-1.188,2.857-1.662,4.454-1.235c0.009,0.002,0.018,0.004,0.025,0.006
	c1.579,0.42,2.807,1.668,3.203,3.254l1.95,7.791h11.139l1.939-7.754c0.402-1.605,1.646-2.873,3.247-3.299
	c0.007-0.005,0.016-0.007,0.023-0.009c1.576-0.422,3.259,0.045,4.394,1.22l5.583,5.771l9.646-5.568l-2.186-7.649
	c-0.462-1.617-0.011-3.367,1.177-4.558c0.001-0.002,0.002-0.002,0.003-0.004c1.138-1.141,2.806-1.571,4.354-1.131l7.771,2.224
	l5.57-9.646l-5.744-5.557c-1.188-1.15-1.662-2.857-1.236-4.455c0.002-0.008,0.006-0.016,0.007-0.025
	c0.421-1.58,1.668-2.805,3.254-3.203L315.283,399.813z M264.122,414.323c-11.089,0-20.078-8.99-20.078-20.08
	c0-11.088,8.989-20.078,20.078-20.078c11.09,0,20.078,8.99,20.078,20.078C284.2,405.333,275.212,414.323,264.122,414.323z"/>
</svg>
