<?xml version="1.0" encoding="UTF-8" standalone="no"?>
<svg
   xmlns:dc="http://purl.org/dc/elements/1.1/"
   xmlns:cc="http://creativecommons.org/ns#"
   xmlns:rdf="http://www.w3.org/1999/02/22-rdf-syntax-ns#"
   xmlns:svg="http://www.w3.org/2000/svg"
   xmlns="http://www.w3.org/2000/svg"
   xmlns:sodipodi="http://sodipodi.sourceforge.net/DTD/sodipodi-0.dtd"
   xmlns:inkscape="http://www.inkscape.org/namespaces/inkscape"
   version="1.1"
   x="0px"
   y="0px"
   width="100px"
   height="100px"
   viewBox="5.0 -10.0 100.0 135.0"
   enable-background="new 0 0 100 100"
   xml:space="preserve"
   id="svg2"
   inkscape:version="0.48.4 r9939"
   sodipodi:docname="noun_14706_cc.svg"><metadata
     id="metadata22"><rdf:RDF><cc:Work
         rdf:about=""><dc:format>image/svg+xml</dc:format><dc:type
           rdf:resource="http://purl.org/dc/dcmitype/StillImage" /></cc:Work></rdf:RDF></metadata><defs
     id="defs20" /><sodipodi:namedview
     pagecolor="#ffffff"
     bordercolor="#666666"
     borderopacity="1"
     objecttolerance="10"
     gridtolerance="10"
     guidetolerance="10"
     inkscape:pageopacity="0"
     inkscape:pageshadow="2"
     inkscape:window-width="1920"
     inkscape:window-height="1056"
     id="namedview18"
     showgrid="false"
     inkscape:zoom="2.36"
     inkscape:cx="45.338983"
     inkscape:cy="50"
     inkscape:window-x="0"
     inkscape:window-y="24"
     inkscape:window-maximized="1"
     inkscape:current-layer="svg2" /><g
     id="Captions" /><g
     id="Your_Icon"
     transform="matrix(1.331,0,0,1.331,-11.918121,-8.4951854)"
     style="fill:#000000"><path
       d="m 49.83,3.86 c -25.402,0 -45.998,20.597 -45.998,46 0,25.405 20.596,46 45.998,46 25.406,0 46.002,-20.595 46.002,-46 0,-25.403 -20.596,-46 -46.002,-46 z m 0,82 c -19.879,0 -35.998,-16.118 -35.998,-36 0,-19.883 16.119,-36 35.998,-36 19.885,0 36.002,16.117 36.002,36 0,19.882 -16.117,36 -36.002,36 z"
       id="path6"
       inkscape:connector-curvature="0"
       style="fill:#000000" /><circle
       cx="36.332001"
       cy="38.721001"
       r="6.6669998"
       id="circle8"
       sodipodi:cx="36.332001"
       sodipodi:cy="38.721001"
       sodipodi:rx="6.6669998"
       sodipodi:ry="6.6669998"
       d="m 42.999001,38.721001 c 0,3.682082 -2.984918,6.666999 -6.667,6.666999 -3.682083,0 -6.667,-2.984917 -6.667,-6.666999 0,-3.682083 2.984917,-6.667 6.667,-6.667 3.682082,0 6.667,2.984917 6.667,6.667 z"
       style="fill:#000000" /><circle
       cx="63.332001"
       cy="38.721001"
       r="6.6669998"
       id="circle10"
       sodipodi:cx="63.332001"
       sodipodi:cy="38.721001"
       sodipodi:rx="6.6669998"
       sodipodi:ry="6.6669998"
       d="m 69.999001,38.721001 c 0,3.682082 -2.984918,6.666999 -6.667,6.666999 -3.682083,0 -6.667,-2.984917 -6.667,-6.666999 0,-3.682083 2.984917,-6.667 6.667,-6.667 3.682082,0 6.667,2.984917 6.667,6.667 z"
       style="fill:#000000" /><path
       d="m 49.832,74.388 c 12.334,0 22.332,-8.32 22.332,-18.583 H 27.498 c 0,10.262 10,18.583 22.334,18.583 z"
       id="path12"
       inkscape:connector-curvature="0"
       style="fill:#000000" /></g></svg>