<?xml version="1.0" encoding="UTF-8" standalone="no"?>
<svg
   xmlns:dc="http://purl.org/dc/elements/1.1/"
   xmlns:cc="http://creativecommons.org/ns#"
   xmlns:rdf="http://www.w3.org/1999/02/22-rdf-syntax-ns#"
   xmlns:svg="http://www.w3.org/2000/svg"
   xmlns="http://www.w3.org/2000/svg"
   xmlns:sodipodi="http://sodipodi.sourceforge.net/DTD/sodipodi-0.dtd"
   xmlns:inkscape="http://www.inkscape.org/namespaces/inkscape"
   version="1.1"
   id="Layer_1"
   x="0px"
   y="0px"
   width="100"
   height="100"
   viewBox="-0.5 0 100 100"
   enable-background="new -0.5 0 48 100"
   xml:space="preserve"
   inkscape:version="0.48.4 r9939"
   sodipodi:docname="myicon-biology.svg"><metadata
     id="metadata9"><rdf:RDF><cc:Work
         rdf:about=""><dc:format>image/svg+xml</dc:format><dc:type
           rdf:resource="http://purl.org/dc/dcmitype/StillImage" /></cc:Work></rdf:RDF></metadata><defs
     id="defs7" /><sodipodi:namedview
     pagecolor="#ffffff"
     bordercolor="#666666"
     borderopacity="1"
     objecttolerance="10"
     gridtolerance="10"
     guidetolerance="10"
     inkscape:pageopacity="0"
     inkscape:pageshadow="2"
     inkscape:window-width="640"
     inkscape:window-height="480"
     id="namedview5"
     showgrid="false"
     inkscape:zoom="2.36"
     inkscape:cx="24"
     inkscape:cy="50"
     inkscape:window-x="10"
     inkscape:window-y="34"
     inkscape:window-maximized="0"
     inkscape:current-layer="Layer_1" /><path
     d="m 61.804102,28.026729 c 1.404,-1.019 2.714,-2.133 3.902,-3.329 4.739,-4.771 7.246,-10.467 7.246,-16.4710002 v -3.532 c 0,-2.359 -1.911,-4.27099999 -4.27,-4.27099999 -2.357,0 -4.271,1.91199999 -4.271,4.27099999 v 0.854 h -29.892 v -0.854 c 0,-2.359 -1.912,-4.27099999 -4.27,-4.27099999 -2.359,0 -4.271,1.91199999 -4.271,4.27099999 v 3.532 c 0,6.0040002 2.505,11.7000002 7.246,16.4710002 3.991,4.017 9.347,7.12 15.082,8.738 4.279,1.208 8.414,3.59 11.342,6.538 1.741,1.753 3.751,4.407 4.48,7.799 h -29.325 c 0.357,-1.66 1.021,-3.143 1.808,-4.431 h 23.13 c -0.526,-0.708 -1.081,-1.334 -1.608,-1.864 -1.289,-1.297 -2.837,-2.476 -4.536,-3.474 h -12.071 c 1.455,-1.123 3.082,-2.118 4.802,-2.94 -3.263,-1.061 -6.385,-2.572 -9.2,-4.44 -1.404,1.019 -2.714,2.133 -3.902,3.329 -4.743,4.771 -7.248,10.467 -7.248,16.471 0,6.005 2.505,11.701 7.246,16.473 3.991,4.016 9.347,7.119 15.082,8.737 4.279,1.206 8.414,3.59 11.342,6.537 1.74,1.752 3.747,4.403 4.479,7.791 h -29.322 c 0.358,-1.66 1.022,-3.144 1.812,-4.43 h 23.119 c -0.524,-0.707 -1.078,-1.328 -1.604,-1.856 -1.292,-1.302 -2.846,-2.483 -4.551,-3.482 h -12.045 c 1.451,-1.119 3.075,-2.11 4.79,-2.931 -3.263,-1.062 -6.385,-2.573 -9.2,-4.44 -1.404,1.019 -2.714,2.133 -3.902,3.329 -4.741,4.771 -7.246,10.466 -7.246,16.47 v 3.532 c 0,2.359 1.912,4.270001 4.271,4.270001 2.357,0 4.27,-1.911001 4.27,-4.270001 v -0.855 h 29.894 v 0.855 c 0,2.358 1.912,4.270001 4.271,4.270001 2.359,0 4.271,-1.911001 4.271,-4.270001 v -3.532 c 0,-6.004 -2.506,-11.699 -7.246,-16.471 -3.991,-4.017 -9.348,-7.12 -15.081,-8.738 -4.28,-1.207 -8.414,-3.59 -11.342,-6.537 -1.742,-1.753 -3.751,-4.408 -4.48,-7.8 h 29.323 c -0.356,1.66 -1.021,3.144 -1.81,4.431 h -23.129 c 0.526,0.708 1.081,1.334 1.608,1.864 1.289,1.298 2.838,2.477 4.536,3.474 h 12.07 c -1.455,1.122 -3.082,2.117 -4.802,2.939 3.264,1.062 6.385,2.573 9.2,4.44 1.404,-1.019 2.713,-2.133 3.902,-3.328 4.739,-4.771 7.246,-10.468 7.246,-16.473 0,-6.004 -2.507,-11.7 -7.246,-16.472 -3.991,-4.016 -9.348,-7.12 -15.081,-8.737 -4.28,-1.207 -8.414,-3.59 -11.342,-6.537 -1.741,-1.752 -3.748,-4.404 -4.479,-7.791 h 29.321 c -0.357,1.66 -1.021,3.143 -1.812,4.43 h -23.12 c 0.525,0.706 1.078,1.327 1.604,1.856 1.293,1.301 2.847,2.483 4.551,3.482 h 12.046 c -1.453,1.119 -3.077,2.111 -4.791,2.931 3.265,1.062 6.386,2.574 9.203,4.442 z"
     id="path3"
     inkscape:connector-curvature="0" /></svg>