<svg xmlns="http://www.w3.org/2000/svg" xmlns:xlink="http://www.w3.org/1999/xlink" version="1.1" id="Layer_1" x="0px" y="0px" width="100px" height="100px" viewBox="0 0 100 100" enable-background="new 0 0 100 100" xml:space="preserve">
<path d="M82.397,81.775c-1.59-3.676-21.158-31.589-21.158-31.589l0.198-19.171c0.197-7.053,3.478-8.741,3.478-8.741H53.953h-2.448  H40.542c0,0,3.278,1.688,3.478,8.741l0.198,19.171c0,0-19.57,27.913-21.158,31.589c0,0-6.953,11.818,4.967,15.098h24.471h0.462  h24.47C89.351,93.594,82.397,81.775,82.397,81.775z M72.424,93.611H52.912h-0.368H33.032c-9.505-2.613-3.961-12.039-3.961-12.039  c1.268-2.932,8.8-12.998,8.8-12.998h30.08c0,0,0.674,0.947,1.644,2.342h-6.791c-0.615,0-1.11,0.5-1.11,1.113s0.495,1.111,1.11,1.111  h8.324c0.672,0.986,1.385,2.043,2.063,3.078h-6.113c-0.611,0-1.112,0.498-1.112,1.111s0.501,1.111,1.112,1.111h7.541  c0.792,1.268,1.43,2.369,1.743,3.078h-5.437c-0.612,0-1.112,0.498-1.112,1.111c0,0.615,0.5,1.111,1.112,1.111h6.423  C78.369,86.689,79.03,91.797,72.424,93.611z"/>
<circle cx="44.965" cy="13.758" r="6.58"/>
<circle cx="29.287" cy="35.436" r="6.58"/>
<circle cx="31.455" cy="18.241" r="5.349"/>
<polygon points="271.977,17.047 292.375,42.41 317.792,75.512 352.581,30.459 363.48,17.047 363.48,16.497 271.977,16.497 "/>
<g>
	<path d="M332.932,15.159h5.312C338.165,9.11,337.503,8.528,332.932,15.159z"/>
	<path d="M351.445,3.885c-12.362,2.838-12.247,3.454-5.136,7.192c-6.135-3.225-7.272-3.479-2.585,4.082h19.741L351.445,3.885z"/>
	<path d="M338.262,15.159h5.313C339.003,8.528,338.341,9.11,338.262,15.159z"/>
	<path d="M330.196,11.077c7.634-4.013,7.208-4.426-8.057-7.854c15.265,3.428,15.852,3.342,11.134-1.618   c4.259,4.479,4.887,4.479,4.968-6.245h-19.552h-2.08h-23.664l-20.954,19.799h60.791C337.469,7.598,336.33,7.852,330.196,11.077z"/>
	<path d="M343.232,1.605c-4.395,4.622-4.184,5.01,8.204,2.271l-9.081-8.516h-4.092C338.346,6.084,338.974,6.083,343.232,1.605z"/>
</g>
</svg>