<?xml version="1.0" encoding="utf-8"?>
<!-- Generator: Adobe Illustrator 15.1.0, SVG Export Plug-In . SVG Version: 6.00 Build 0)  -->
<!DOCTYPE svg PUBLIC "-//W3C//DTD SVG 1.1//EN" "http://www.w3.org/Graphics/SVG/1.1/DTD/svg11.dtd">
<svg version="1.1" id="Layer_1" xmlns="http://www.w3.org/2000/svg" xmlns:xlink="http://www.w3.org/1999/xlink" x="0px" y="0px"
	 width="100px" height="81.914px" viewBox="0 0 100 81.914" enable-background="new 0 0 100 81.914" xml:space="preserve">
<path fill="#010101" d="M12.536,37.211l4.266,1.767c1.277-1.618,2.738-3.08,4.355-4.358l-1.766-4.264l13.356-5.531l1.766,4.264
	c2.047-0.241,4.114-0.239,6.162,0.001l1.767-4.266l13.354,5.532l-1.767,4.266c1.618,1.277,3.081,2.738,4.357,4.355l4.265-1.767
	l5.532,13.356l-4.265,1.766c0.241,2.049,0.24,4.114-0.001,6.161l4.267,1.769l-2.146,5.18c1.655,0.299,3.273,0.805,4.814,1.501
	c1.289,0.59,2.732,0.911,4.15,0.911c1.456,0,2.871-0.325,4.188-0.916c2.071-0.941,4.292-1.534,6.554-1.736V41.251h11.288
	l-16.931-14.85V7.279h-13.17v7.57L50,0L2.967,41.251h7.895L12.536,37.211z"/>
<path fill="#010101" d="M12.494,79.149c2.255,0,4.423,0.518,6.343,1.419c1.88,0.844,3.983,1.346,6.159,1.346
	c2.192,0,4.295-0.501,6.167-1.346c1.912-0.901,4.08-1.419,6.342-1.419c2.255,0,4.423,0.518,6.343,1.419
	c1.873,0.844,3.959,1.346,6.151,1.346c2.191,0,4.288-0.501,6.175-1.346c1.921-0.901,4.088-1.419,6.327-1.419
	c2.263,0,4.431,0.518,6.351,1.419c1.865,0.844,3.983,1.346,6.15,1.346c2.192,0,4.279-0.501,6.176-1.346
	c1.913-0.901,4.08-1.419,6.327-1.419c2.263,0,4.43,0.518,6.343,1.419c1.873,0.844,3.983,1.346,6.151,1.346v-9.243
	c-2.168,0-4.278-0.492-6.151-1.347c-1.911-0.867-4.08-1.386-6.343-1.386c-2.247,0-4.414,0.518-6.327,1.386
	c-1.896,0.853-3.984,1.347-6.176,1.347c-2.167,0-4.285-0.492-6.15-1.347c-1.92-0.867-4.088-1.386-6.351-1.386
	c-2.239,0-4.406,0.518-6.327,1.386c-1.89,0.853-3.984,1.347-6.175,1.347c-2.19,0-4.278-0.492-6.151-1.347
	c-1.92-0.867-4.088-1.386-6.343-1.386c-2.263,0-4.43,0.518-6.342,1.386c-1.872,0.853-3.977,1.347-6.167,1.347
	c-2.175,0-4.279-0.492-6.159-1.347c-1.92-0.867-4.088-1.386-6.343-1.386c-2.247,0-4.414,0.518-6.334,1.386
	c-1.88,0.853-3.969,1.347-6.16,1.347v9.243c2.191,0,4.279-0.501,6.16-1.346C8.08,79.667,10.247,79.149,12.494,79.149z"/>
<path fill="#010101" d="M60.059,43.505l-3.464,1.431c-2.028-3.686-5.047-6.581-8.546-8.508l1.468-3.463l-4.479-1.844l-1.431,3.463
	c-3.836-1.112-8.006-1.172-12.046,0l-1.43-3.463l-4.442,1.844l1.431,3.463c-3.686,2.028-6.581,5.009-8.508,8.508l-3.463-1.431
	l-1.845,4.442l3.463,1.431c-1.112,3.835-1.172,8.005,0,12.046l-3.463,1.431l0.979,2.334c1.379,0.124,2.741,0.423,4.066,0.828
	l0.263-0.113l0.113,0.226c0.708,0.231,1.428,0.482,2.108,0.791c1.306,0.592,2.744,0.941,4.179,0.941h0.188
	c-1.05-1.046-1.975-2.254-2.748-3.576l10.691-4.404l-2.71,6.55c1.838-0.691,3.762-1.147,5.722-1.28l1.431-3.426l1.43,3.464
	c1.971,0.152,3.951,0.601,5.797,1.317l-2.748-6.625l10.654,4.404c-0.757,1.29-1.675,2.504-2.749,3.576h0.038
	c1.45,0,2.862-0.349,4.179-0.941c0.746-0.339,1.517-0.621,2.296-0.866l0.113-0.188l0.188,0.112c1.351-0.404,2.733-0.678,4.141-0.79
	l0.979-2.334l-3.463-1.431c1.11-3.837,1.172-8.007,0-12.046l3.463-1.431L60.059,43.505z M20.606,59.843
	c-0.778-2.976-0.742-6.009,0-8.847L31.297,55.4L20.606,59.843z M22.451,46.517c1.483-2.534,3.596-4.698,6.249-6.25l4.442,10.692
	L22.451,46.517z M37.584,49.114l-4.405-10.692c1.487-0.389,2.992-0.57,4.48-0.564c1.487,0.004,2.947,0.193,4.367,0.564
	L37.584,49.114z M46.468,40.267c2.533,1.483,4.697,3.595,6.25,6.25l-10.654,4.442L46.468,40.267z M54.562,59.843L43.871,55.4
	l10.692-4.404C55.341,53.971,55.303,57.003,54.562,59.843z"/>
</svg>
