<?xml version="1.0" encoding="utf-8"?>
<!-- Generator: Adobe Illustrator 16.0.0, SVG Export Plug-In . SVG Version: 6.00 Build 0)  -->
<!DOCTYPE svg PUBLIC "-//W3C//DTD SVG 1.1//EN" "http://www.w3.org/Graphics/SVG/1.1/DTD/svg11.dtd">
<svg version="1.1" id="Layer_1" xmlns="http://www.w3.org/2000/svg" xmlns:xlink="http://www.w3.org/1999/xlink" x="0px" y="0px"
	 width="100px" height="91.119px" viewBox="0 4.441 100 91.119" enable-background="new 0 4.441 100 91.119" xml:space="preserve">
<path d="M63.257,75.08c7.7-9.412,20.802-12.173,32.368-10.357l2.417,0.379l-1.476,1.951c-7.367,9.732-20.954,12.752-32.471,10.388
	l-2.372-0.486L63.257,75.08L63.257,75.08z"/>
<path d="M66.257,5.819c8.109,6.52,12.954,17.331,10.942,27.728l-0.441,2.28l-1.865-1.38c-8.315-6.151-13.932-17.569-10.961-27.892
	l0.61-2.115L66.257,5.819L66.257,5.819z"/>
<path d="M99.677,39.284c-1.592,11.312-9.717,22.791-21.304,25.347l-2.147,0.475l0.393-2.166
	c2.062-11.348,9.973-21.719,21.169-25.255l2.213-0.7L99.677,39.284L99.677,39.284z"/>
<path d="M87.602,14.431c4.292,9.906,2.988,21.889-3.632,30.465l-1.556,2.013l-0.961-2.355c-4.046-9.941-3.037-21.873,3.65-30.44
	l1.518-1.944L87.602,14.431L87.602,14.431z"/>
<path d="M14.897,14.114c6.689,8.567,7.696,20.499,3.65,30.44l-0.96,2.356l-1.555-2.013C9.411,36.32,8.108,24.337,12.4,14.431
	l0.981-2.261L14.897,14.114L14.897,14.114z"/>
<path d="M35.906,77.44c-11.517,2.364-25.104-0.655-32.47-10.388l-1.477-1.951l2.417-0.379c11.567-1.815,24.667,0.945,32.369,10.357
	l1.533,1.874L35.906,77.44L35.906,77.44z"/>
<path d="M36.068,6.556c2.972,10.322-2.643,21.74-10.958,27.891l-1.868,1.38l-0.44-2.28c-2.01-10.397,2.833-21.208,10.942-27.728
	l1.716-1.378L36.068,6.556L36.068,6.556z"/>
<path d="M2.215,37.685c11.194,3.536,19.107,13.907,21.169,25.255l0.393,2.166l-2.148-0.475C10.041,62.075,1.916,50.596,0.324,39.284
	L0,36.984L2.215,37.685L2.215,37.685z"/>
<path d="M58.127,85.581c1.885,2.004,3.843,3.933,6.104,5.458l1.557,1.046l-1.396,1.256c-0.577,0.518-1.146,1.04-1.713,1.567
	l-0.7,0.651l-0.878-0.38C55.713,92.853,54.184,87.067,50,84.338c-4.183,2.729-5.711,8.515-11.099,10.842l-0.88,0.38l-0.7-0.652
	c-0.566-0.528-1.136-1.049-1.711-1.566l-1.394-1.256l1.556-1.046c2.26-1.525,4.219-3.454,6.104-5.458
	c-2.582,1.278-5.145,2.751-8.085,3.302c-5.25,0.882-10.869,1.197-15.86-0.981l-2.413-1.051l2.167-1.495
	c4.935-3.404,10.232-6.577,16.371-7.065c4.831-0.265,9.729-0.146,14.464,0.945l0.061,0.014l0.061,0.021
	c0.894,0.289,1.826,0.289,2.721,0l0.06-0.021l0.063-0.014c4.732-1.091,9.631-1.21,14.48-0.945c6.124,0.488,11.42,3.662,16.353,7.065
	l2.166,1.495l-2.412,1.051c-4.991,2.179-10.61,1.863-15.873,0.979C63.267,88.331,60.706,86.859,58.127,85.581L58.127,85.581z"/>
</svg>
