<?xml version="1.0" encoding="UTF-8" standalone="no"?>
<svg
   xmlns:dc="http://purl.org/dc/elements/1.1/"
   xmlns:cc="http://creativecommons.org/ns#"
   xmlns:rdf="http://www.w3.org/1999/02/22-rdf-syntax-ns#"
   xmlns:svg="http://www.w3.org/2000/svg"
   xmlns="http://www.w3.org/2000/svg"
   xmlns:sodipodi="http://sodipodi.sourceforge.net/DTD/sodipodi-0.dtd"
   xmlns:inkscape="http://www.inkscape.org/namespaces/inkscape"
   version="1.1"
   id="Layer_1"
   x="0px"
   y="0px"
   width="100px"
   height="100px"
   viewBox="0 0 100 100"
   enable-background="new 0 0 100 100"
   xml:space="preserve"
   inkscape:version="0.48.4 r9939"
   sodipodi:docname="myicon-reference.svg"><metadata
     id="metadata25"><rdf:RDF><cc:Work
         rdf:about=""><dc:format>image/svg+xml</dc:format><dc:type
           rdf:resource="http://purl.org/dc/dcmitype/StillImage" /></cc:Work></rdf:RDF></metadata><defs
     id="defs23" /><sodipodi:namedview
     pagecolor="#ffffff"
     bordercolor="#666666"
     borderopacity="1"
     objecttolerance="10"
     gridtolerance="10"
     guidetolerance="10"
     inkscape:pageopacity="0"
     inkscape:pageshadow="2"
     inkscape:window-width="640"
     inkscape:window-height="480"
     id="namedview21"
     showgrid="false"
     inkscape:zoom="2.36"
     inkscape:cx="50"
     inkscape:cy="50"
     inkscape:window-x="10"
     inkscape:window-y="34"
     inkscape:window-maximized="0"
     inkscape:current-layer="Layer_1" /><g
     id="g3"
     transform="matrix(1.5436493,0,0,1.5436493,-39.741924,-26.974681)"><path
       d="m 37.521,32.511 -10e-4,1.615 c 10e-4,0.155 0.062,0.302 0.17,0.41 0.108,0.108 0.257,0.169 0.41,0.169 h 23.798 c 0.153,0 0.3,-0.061 0.409,-0.169 0.109,-0.108 0.169,-0.255 0.169,-0.409 V 32.51 c 0,-0.319 -0.259,-0.58 -0.578,-0.578 L 38.1,31.931 c -0.319,0 -0.579,0.259 -0.579,0.58 z"
       id="path5"
       inkscape:connector-curvature="0" /><path
       d="m 38.101,37.943 c -0.319,0.001 -0.578,0.261 -0.58,0.58 v 1.616 c 0,0.153 0.061,0.301 0.169,0.41 0.11,0.108 0.255,0.169 0.409,0.169 l 23.799,10e-4 c 0.159,-10e-4 0.304,-0.066 0.409,-0.17 0.106,-0.104 0.169,-0.249 0.171,-0.41 l -0.001,-1.616 c 0,-0.153 -0.061,-0.302 -0.169,-0.41 C 62.2,38.005 62.053,37.945 61.899,37.945 L 38.101,37.943 z"
       id="path7"
       inkscape:connector-curvature="0" /><path
       d="m 38.101,56.476 c -0.319,10e-4 -0.578,0.261 -0.58,0.58 V 67.29 c 0,0.323 0.258,0.581 0.581,0.581 h 10.622 c 0.159,0 0.304,-0.064 0.409,-0.169 0.105,-0.105 0.169,-0.25 0.17,-0.41 L 49.302,57.057 c 10e-4,-0.319 -0.259,-0.58 -0.578,-0.578 L 38.101,56.476 z"
       id="path9"
       inkscape:connector-curvature="0" /><path
       d="m 51.641,56.499 c -0.139,10e-4 -0.252,0.114 -0.254,0.254 v 4.468 c 0,0.142 0.112,0.253 0.254,0.253 h 4.637 c 0.069,0 0.134,-0.028 0.179,-0.074 0.046,-0.045 0.074,-0.108 0.076,-0.179 L 56.532,56.753 C 56.533,56.613 56.42,56.499 56.279,56.5 l -4.638,-10e-4 z"
       id="path11"
       inkscape:connector-curvature="0" /><path
       d="M 88.989,55.1 70.603,42.931 c -0.237,-0.16 -0.532,-0.215 -0.813,-0.155 l -20.365,4.3 c -0.411,0.086 -0.734,0.407 -0.825,0.818 l -0.123,0.55 c -0.097,0.434 0.085,0.882 0.456,1.128 l 8.526,5.643 -0.493,2.228 c -0.248,1.127 0.588,2.49 2.546,3.785 3.719,2.461 10.064,3.75 14.184,2.879 1.948,-0.411 3.047,-1.232 3.271,-2.243 l 0.425,-1.923 5.501,-1.162 c 0.684,0.967 1.13,2.141 1.243,3.637 -0.559,0.289 -0.946,0.864 -0.946,1.538 0,0.564 0.273,1.06 0.691,1.378 -0.473,2.411 -1.104,6.843 0.154,8.807 0.371,0.579 0.895,0.948 1.517,1.066 0.049,0.01 0.098,0.014 0.147,0.014 0.366,0 0.691,-0.259 0.763,-0.633 0.081,-0.421 -0.197,-0.829 -0.618,-0.91 -0.137,-0.025 -0.316,-0.091 -0.499,-0.375 -0.444,-0.693 -0.547,-2.062 -0.465,-3.605 0.383,1.198 0.973,2.275 1.882,2.874 0.362,0.239 0.843,0.137 1.078,-0.222 0.236,-0.359 0.137,-0.841 -0.222,-1.077 -1.223,-0.805 -1.738,-3.565 -1.848,-5.805 0.533,-0.297 0.897,-0.858 0.897,-1.511 0,-0.684 -0.398,-1.27 -0.973,-1.552 -0.103,-1.594 -0.517,-2.893 -1.157,-3.97 l 3.959,-0.837 c 0.411,-0.086 0.735,-0.406 0.826,-0.817 l 0.122,-0.551 C 89.541,55.793 89.36,55.344 88.989,55.1 z M 67.911,50.89 c 0.017,-0.141 0.159,-0.256 0.425,-0.312 0.529,-0.111 1.347,0.055 1.825,0.372 0.24,0.157 0.349,0.324 0.331,0.465 l 0,0 -0.077,0.385 h 0 c -0.017,0.14 -0.161,0.255 -0.425,0.311 -0.53,0.112 -1.347,-0.055 -1.825,-0.371 -0.24,-0.159 -0.349,-0.325 -0.332,-0.465 l 0.078,-0.385 z"
       id="path13"
       inkscape:connector-curvature="0" /><path
       d="m 47.275,52.073 c -0.768,-0.509 -1.313,-1.262 -1.598,-2.105 h -7.576 c -0.307,0 -0.58,0.272 -0.58,0.58 v 1.615 c 0,0.319 0.26,0.578 0.58,0.578 l 10.182,0 -1.008,-0.668 z"
       id="path15"
       inkscape:connector-curvature="0" /><path
       d="m 48.804,44.141 0.874,-0.185 H 38.101 c -0.307,0 -0.58,0.272 -0.58,0.579 v 1.616 c 0,0.319 0.26,0.578 0.58,0.578 l 7.723,0 c 0.478,-1.306 1.599,-2.297 2.98,-2.588 z"
       id="path17"
       inkscape:connector-curvature="0" /><path
       d="m 70.824,67.379 c -1.976,0 -4.053,-0.286 -6.052,-0.778 l 0,6.072 H 35.228 L 35.229,27.327 H 64.77 l 0,13.442 4.397,-0.929 c 0.277,-0.059 0.561,-0.088 0.844,-0.088 0.749,0 1.469,0.211 2.087,0.587 V 23.664 c 0,-0.978 -0.382,-1.898 -1.075,-2.591 C 70.333,20.38 69.414,20 68.435,20 H 31.564 c -0.978,0 -1.897,0.381 -2.59,1.073 -0.692,0.692 -1.073,1.613 -1.073,2.591 v 52.673 c -0.001,0.978 0.38,1.898 1.073,2.591 0.692,0.692 1.611,1.072 2.59,1.072 h 36.872 c 0.978,0 1.897,-0.382 2.589,-1.074 0.692,-0.691 1.075,-1.611 1.075,-2.589 V 67.32 c -0.419,0.027 -0.835,0.059 -1.276,0.059 z"
       id="path19"
       inkscape:connector-curvature="0" /></g></svg>