<?xml version="1.0" encoding="utf-8"?>
<!-- Generator: Adobe Illustrator 16.0.0, SVG Export Plug-In . SVG Version: 6.00 Build 0)  -->
<!DOCTYPE svg PUBLIC "-//W3C//DTD SVG 1.1//EN" "http://www.w3.org/Graphics/SVG/1.1/DTD/svg11.dtd" [
	<!ENTITY ns_extend "http://ns.adobe.com/Extensibility/1.0/">
	<!ENTITY ns_ai "http://ns.adobe.com/AdobeIllustrator/10.0/">
	<!ENTITY ns_graphs "http://ns.adobe.com/Graphs/1.0/">
	<!ENTITY ns_vars "http://ns.adobe.com/Variables/1.0/">
	<!ENTITY ns_imrep "http://ns.adobe.com/ImageReplacement/1.0/">
	<!ENTITY ns_sfw "http://ns.adobe.com/SaveForWeb/1.0/">
	<!ENTITY ns_custom "http://ns.adobe.com/GenericCustomNamespace/1.0/">
	<!ENTITY ns_adobe_xpath "http://ns.adobe.com/XPath/1.0/">
]>
<svg version="1.1" id="Layer_1" xmlns:x="&ns_extend;" xmlns:i="&ns_ai;" xmlns:graph="&ns_graphs;"
	 xmlns="http://www.w3.org/2000/svg" xmlns:xlink="http://www.w3.org/1999/xlink" x="0px" y="0px" width="50px" height="50px"
	 viewBox="0 0 50 50" enable-background="new 0 0 50 50" xml:space="preserve">
<metadata>
	<sfw  xmlns="&ns_sfw;">
		<slices></slices>
		<sliceSourceBounds  width="53.52" height="20.619" x="393.164" y="410.19" bottomLeftOrigin="true"></sliceSourceBounds>
	</sfw>
</metadata>
<g>
	<path fill="#322DE3" d="M49.609,19.371c-17.607-0.576-33.863-1.736-47.916-3.349c-1.798,2.858-2.78,5.867-2.78,8.978
		c0,3.111,0.982,6.12,2.781,8.979c14.051-1.612,30.307-2.772,47.915-3.349c-0.436-1.812-0.672-3.692-0.672-5.63
		C48.938,23.063,49.174,21.181,49.609,19.371z"/>
	<path fill="#FFFFFF" d="M1.056,35.31l-0.419-0.665C-1.336,31.51-2.336,28.265-2.336,25s1-6.509,2.972-9.644l0.419-0.666l0.782,0.09
		c14.365,1.649,30.453,2.773,47.814,3.341l1.533,0.05l-0.359,1.492c-0.422,1.757-0.637,3.553-0.637,5.336
		c0,1.783,0.215,3.579,0.638,5.338l0.358,1.491l-1.533,0.05c-17.354,0.568-33.441,1.692-47.813,3.342L1.056,35.31z M2.35,17.355
		C0.899,19.872,0.164,22.44,0.164,25s0.735,5.129,2.187,7.646c13.823-1.561,29.195-2.642,45.731-3.215
		c-0.262-1.469-0.395-2.953-0.395-4.431s0.133-2.962,0.395-4.43C31.54,19.997,16.166,18.916,2.35,17.355z"/>
</g>
</svg>
