<?xml version="1.0" encoding="utf-8"?>
<!-- Generated by IcoMoon.io -->
<!DOCTYPE svg PUBLIC "-//W3C//DTD SVG 1.1//EN" "http://www.w3.org/Graphics/SVG/1.1/DTD/svg11.dtd">
<svg version="1.1" xmlns="http://www.w3.org/2000/svg" xmlns:xlink="http://www.w3.org/1999/xlink" width="32" height="32" viewBox="0 0 32 32">
<path d="M12.285 6.247c-0.558 0-1.010 0.453-1.010 1.012 0 0.118 0.020 0.232 0.058 0.337h1.907c0.037-0.105 0.058-0.218 0.058-0.337-0.005-0.56-0.455-1.012-1.013-1.012zM12.48 7.552c-0.27 0-0.488-0.218-0.488-0.49 0-0.27 0.218-0.488 0.488-0.488s0.49 0.218 0.49 0.488c-0.002 0.27-0.222 0.49-0.49 0.49zM10.23 7.192c0-1.063 0.862-1.925 1.925-1.925s1.925 0.862 1.925 1.925c0 0.138-0.015 0.273-0.042 0.402h1.635v-1.772c-0.232-0.465-0.647-1.132-1.305-1.632h-4.533c-0.448 0.303-1.332 1.032-1.627 2.227v1.177h2.067c-0.032-0.128-0.045-0.263-0.045-0.402zM18.71 7.192c0-1.063 0.862-1.925 1.923-1.925 1.063 0 1.923 0.862 1.923 1.925 0 0.138-0.015 0.273-0.042 0.402h1.282v-2.54c-0.252-0.303-0.575-0.595-0.985-0.862h-4.437c-0.61 0.415-1.172 1.078-1.56 2.12l-0.487 0.035v1.248h2.42c-0.025-0.13-0.038-0.265-0.038-0.403zM21.773 7.257c0-0.558-0.453-1.012-1.012-1.012s-1.012 0.453-1.012 1.012c0 0.118 0.020 0.232 0.058 0.337h1.908c0.038-0.105 0.057-0.218 0.057-0.337zM20.96 7.552c-0.27 0-0.49-0.218-0.49-0.49 0-0.27 0.218-0.488 0.49-0.488s0.49 0.218 0.49 0.488c-0.002 0.27-0.22 0.49-0.49 0.49zM11.61 9.038c-0.438-0.128-0.81-0.408-1.058-0.78h-2.313c0.028 0.11 0.062 0.222 0.098 0.335 0 0-2.567 0.428-3.237 3.068h6.508v-2.623h0.002zM12.418 8.258h-0.148v0.008c0.005 0 0.008 0 0.013 0 0.047 0.002 0.090-0.002 0.135-0.008zM19.032 8.258h-5.277c-0.325 0.487-0.865 0.817-1.485 0.853v2.55h7.467v-2.767c-0.285-0.15-0.527-0.37-0.705-0.637zM24.385 8.855c0 0 0.092-0.228 0.163-0.597h-2.313c-0.345 0.517-0.933 0.857-1.602 0.857-0.080 0-0.158-0.005-0.237-0.015v2.56h6.658c-0.233-0.923-0.883-2.337-2.67-2.805v0zM20.898 8.258h-0.27c0.045 0.007 0.088 0.010 0.135 0.010s0.092-0.003 0.135-0.010zM24.457 6.257v1.337h0.168c0.018-0.398-0.018-0.86-0.168-1.337zM1.75 15.182v0c-0.142 0.183-0.272 0.365-0.393 0.547h1.087l-0.693-0.547zM5.995 15.728h1.548v-3.403h-2.562c-0.032 0.28-0.045 0.578-0.035 0.9 0 0 0.028 1.335 1.048 2.503zM8.205 12.325h7.467v3.403h-7.467v-3.403zM16.332 12.325h7.467v3.403h-7.467v-3.403zM30.188 15.248l-0.602 0.482h1.005c-0.235-0.315-0.403-0.482-0.403-0.482zM24.457 15.728h1.673c0.528-0.688 0.982-1.712 1.057-3.22 0 0-0.002-0.067-0.013-0.183h-2.717v3.403zM3.482 16.547v-0.153h-2.532c-0.48 0.867-0.755 1.718-0.873 2.542v0.862h3.405v-3.25zM7.882 17.922c-0.587 0-1.24-0.587-1.24-0.587l-0.587 1.238-1.912-1.505v2.728h6.32c-1.62-0.918-2.582-1.875-2.582-1.875zM8.273 17.14c0 0 1.268 1.268 3.338 2.25v-2.995h-4.885c0.412 0.297 0.92 0.557 1.547 0.745zM19.735 16.395h-7.467v3.402h7.467zM27.863 17.108l-1.913 1.532-0.327-1.24c-0.522 0.522-0.978 0.457-0.978 0.457-0.853 0.795-1.7 1.433-2.533 1.94h5.752v-2.688zM20.397 19.657c1.25-0.542 2.545-1.372 3.857-2.582 0 0 0.588-0.14 1.238-0.68h-5.095v3.262zM31.032 16.395h-2.508v3.403h3.4v-0.93c-0.163-1.023-0.533-1.863-0.892-2.473zM7.543 23.865v-3.403h-7.467v0.425c0.15 1.077 0.535 2.080 1.023 2.978h6.443zM15.672 21.443c-1.448-0.102-2.763-0.493-3.882-0.982h-3.585v3.403h7.467v-2.422zM15.672 20.462h-0.317c0.105 0.010 0.21 0.020 0.317 0.027v-0.027zM16.332 21.468v2.397h7.467v-3.403h-2.928c-1.593 0.737-3.122 1.017-4.538 1.007zM17.357 20.462h-1.027v0.050c0.335 0.002 0.68-0.015 1.027-0.050zM24.457 23.865h6.467c0.557-1.012 0.865-1.96 1-2.832v-0.572h-7.467v3.403zM3.482 24.532h-1.99c0.632 0.997 1.367 1.833 1.988 2.457l0.002-2.457zM4.142 27.615v0.32h7.468v-3.403h-7.468zM12.268 24.532h7.467v3.403h-7.467v-3.403zM20.397 27.935h7.467v-3.403h-7.467zM28.522 24.532v2.448c0.842-0.847 1.498-1.665 2.003-2.448h-2.003zM0.832 32h6.71v-3.403h-3.942c-2.697 1.032-2.78 2.993-2.768 3.403zM8.205 32h5.647c0.067-0.218-0.035-0.575-0.035-0.575 0.312 0.24 1.048 0.312 1.853 0.308v-3.135h-7.467l0.002 3.402zM16.332 31.713c1.183-0.057 2.312-0.223 2.312-0.223-0.275 0.183-0.325 0.398-0.33 0.51h5.483v-3.403h-7.467v3.117h0.002zM28.888 28.597h-4.433v3.403h6.837c-0.102-1.898-1.337-2.895-2.403-3.403z"></path>
</svg>
