<?xml version="1.0" encoding="utf-8"?>
<!-- Generated by IcoMoon.io -->
<!DOCTYPE svg PUBLIC "-//W3C//DTD SVG 1.1//EN" "http://www.w3.org/Graphics/SVG/1.1/DTD/svg11.dtd">
<svg version="1.1" xmlns="http://www.w3.org/2000/svg" xmlns:xlink="http://www.w3.org/1999/xlink" width="32" height="32" viewBox="0 0 32 32">
<path d="M16 0c-0.645 0-1.285 0.040-1.91 0.115h3.825c-0.63-0.075-1.27-0.115-1.915-0.115zM7.57 4.185h-2.36c-1.090 0.995-2.045 2.14-2.825 3.405h5.185v-3.405zM8.235 4.185h7.47v3.405h-7.47v-3.405zM11.635 0.605c-2.085 0.59-4 1.595-5.645 2.915h5.645v-2.915zM19.765 3.52v-3.075c-0.605-0.145-1.225-0.26-1.855-0.335h-3.825c-0.61 0.070-1.205 0.18-1.79 0.32v3.085l7.47 0.005zM16.365 4.185h7.47v3.405h-7.47v-3.405zM3.51 8.25h-1.51c-0.59 1.065-1.065 2.205-1.4 3.405h2.915v-3.405h-0.005zM4.17 8.25h7.47v3.405h-7.47v-3.405zM12.3 8.25h7.47v3.405h-7.47v-3.405zM20.43 8.25h7.47v3.405h-7.47v-3.405zM24.49 7.585h5.12c-0.78-1.26-1.735-2.41-2.825-3.405h-2.295v3.405zM28.56 11.655h2.845c-0.335-1.2-0.81-2.34-1.4-3.405h-1.44v3.405h-0.005zM26.010 3.52c-1.63-1.31-3.52-2.305-5.585-2.9v2.9h5.585zM7.57 15.725v-3.405h-7.145c-0.145 0.61-0.25 1.23-0.325 1.865v1.54h7.47zM8.235 12.32h7.47v3.405h-7.47v-3.405zM16.365 12.32h7.47v3.405h-7.47v-3.405zM24.49 15.725h7.47v-0.83c-0.060-0.88-0.19-1.74-0.385-2.575h-7.085v3.405zM3.51 16.39h-3.405v1.425c0.075 0.675 0.195 1.335 0.35 1.98h3.055v-3.405zM4.17 16.39h7.47v3.405h-7.47v-3.405zM18.235 16.39h-5.935v3.405h3.715c0.13-1.47 0.995-2.725 2.22-3.405zM24.64 19.795h3.26v-3.405h-5.48c1.225 0.68 2.090 1.935 2.22 3.405zM28.56 16.39v3.405h2.985c0.21-0.87 0.35-1.77 0.415-2.685v-0.715h-3.4v-0.005zM7.57 20.46h-6.94c0.345 1.2 0.83 2.34 1.435 3.405h5.51v-3.405h-0.005zM8.235 20.46h7.47v3.405h-7.47v-3.405zM22.6 23.86h1.23v-1.145c-0.33 0.46-0.745 0.85-1.23 1.145zM16.365 21.915v1.945h1.69c-0.745-0.46-1.335-1.135-1.69-1.945zM24.49 21.36v2.5h5.445c0.6-1.065 1.085-2.205 1.435-3.405h-6.725c-0.020 0.315-0.070 0.615-0.155 0.905zM2.46 24.53c0.32 0.51 0.67 1 1.050 1.47v-1.47h-1.050zM11.64 24.53h-7.47v2.245c0.37 0.405 0.76 0.79 1.17 1.16h6.3v-3.405zM12.3 24.53h7.47v3.405h-7.47v-3.405zM20.43 24.53v3.405h6.225c0.435-0.39 0.85-0.805 1.24-1.24v-2.165h-7.465zM28.56 25.915c0.35-0.445 0.675-0.905 0.98-1.385h-0.98v1.385zM6.135 28.595c0.46 0.36 0.94 0.695 1.44 1.005v-1.005h-1.44zM8.235 28.595v1.395c2.22 1.235 4.76 1.955 7.47 2.005v-3.4h-7.47zM16.365 28.595v3.4c2.71-0.060 5.25-0.795 7.47-2.040v-1.36h-7.47zM24.49 29.56c0.475-0.3 0.935-0.62 1.375-0.965h-1.375v0.965z"></path>
</svg>
