<?xml version="1.0" encoding="utf-8"?>
<!-- Generated by IcoMoon.io -->
<!DOCTYPE svg PUBLIC "-//W3C//DTD SVG 1.1//EN" "http://www.w3.org/Graphics/SVG/1.1/DTD/svg11.dtd">
<svg version="1.1" xmlns="http://www.w3.org/2000/svg" xmlns:xlink="http://www.w3.org/1999/xlink" width="32" height="32" viewBox="0 0 32 32">
<path d="M27.038 26.682c8.274-7.129 2.801-12.539 2.801-12.539l-4.138 3.31-0.319-1.209c-0.509 0.509-0.954 0.446-0.954 0.446-8.466 7.892-16.358 0.064-16.358 0.064-0.573 0-1.21-0.573-1.21-0.573l-0.573 1.209-4.201-3.309c-5.156 6.684 3.055 12.73 3.055 12.73-4.265 0.891-3.947 3.755-3.947 3.755h12.667c0.127-0.191 0-0.636 0-0.636 0.827 0.636 4.71 0.064 4.71 0.064-0.382 0.254-0.318 0.572-0.318 0.572h12.667c-0.127-3.373-3.883-3.883-3.883-3.883zM12.366 7.332c0.545 0 0.987-0.442 0.987-0.987s-0.442-0.987-0.987-0.987c-0.545 0-0.987 0.442-0.987 0.987s0.442 0.987 0.987 0.987zM12.557 5.677c0.264 0 0.477 0.214 0.477 0.477s-0.213 0.477-0.477 0.477c-0.264 0-0.477-0.214-0.477-0.477s0.214-0.477 0.477-0.477zM8.452 15.989c0 0 7.447 7.447 15.595-0.064 0 0 2.673-0.636 2.863-4.455 0-0.001-0.063-2.865-2.737-3.565 0 0 1.337-3.31-2.292-4.965 0 0-3.692-1.273-5.092 2.483l-0.891 0.063c0 0-1.337-4.264-5.665-2.292 0 0-2.737 1.4-1.719 4.456 0 0-3.437 0.573-3.31 4.519 0.001 0 0.064 2.864 3.247 3.819zM20.514 4.404c1.037 0 1.877 0.841 1.877 1.878s-0.841 1.878-1.877 1.878-1.877-0.841-1.877-1.878c0-1.037 0.841-1.878 1.877-1.878zM12.239 4.404c1.037 0 1.878 0.841 1.878 1.878s-0.841 1.878-1.878 1.878-1.878-0.841-1.878-1.878c0-1.037 0.841-1.878 1.878-1.878zM20.641 7.332c0.545 0 0.987-0.442 0.987-0.987s-0.442-0.987-0.987-0.987c-0.545 0-0.987 0.442-0.987 0.987s0.442 0.987 0.987 0.987zM20.832 5.677c0.264 0 0.477 0.214 0.477 0.477s-0.214 0.477-0.477 0.477-0.477-0.214-0.477-0.477c-0-0.264 0.213-0.477 0.477-0.477z"></path>
</svg>
