<?xml version="1.0" encoding="utf-8"?>
<!-- Generated by IcoMoon.io -->
<!DOCTYPE svg PUBLIC "-//W3C//DTD SVG 1.1//EN" "http://www.w3.org/Graphics/SVG/1.1/DTD/svg11.dtd">
<svg version="1.1" xmlns="http://www.w3.org/2000/svg" xmlns:xlink="http://www.w3.org/1999/xlink" width="117" height="32" viewBox="0 0 117 32">
<path d="M45.368 10.284c-0.777-0.175-1.607-0.156-2.413-0.153-0.902 0.002-1.804 0.105-2.707 0.125-0.624 0.014-0.824-0.22-0.609-0.781 0.237-0.616 0.562-1.204 0.907-1.769 0.25-0.409 0.671-0.589 1.168-0.558 0.261 0.016 0.527 0.031 0.784-0.002 0.11-0.014 0.244-0.135 0.29-0.241 0.028-0.063-0.070-0.233-0.154-0.281-0.204-0.118-0.436-0.185-0.651-0.285-0.163-0.076-0.231-0.18-0.032-0.3 0.082-0.049 0.167-0.091 0.252-0.135 0.291-0.152 0.466-0.377 0.277-0.691-0.167-0.278-0.418-0.127-0.633-0.029-0.651 0.294-1.285 0.633-1.954 0.879-1.18 0.433-1.97 1.238-2.378 2.399-0.203 0.578-0.305 1.194-0.417 1.8-0.103 0.557-0.082 0.564-0.66 0.575-0.595 0.012-1.194-0.012-1.786 0.036-0.363 0.029-0.314-0.104-0.266-0.359 0.105-0.557 0.223-1.108 0.058-1.692-0.224-0.79-0.648-1.111-1.461-0.948-0.465 0.093-0.919 0.243-1.378 0.367-0.109 0.030-0.219 0.058-0.328 0.088 0.063-0.087 0.111-0.194 0.193-0.257 0.996-0.773 2.003-1.53 2.989-2.316 0.133-0.106 0.161-0.342 0.238-0.518-0.19-0.046-0.392-0.158-0.565-0.122-0.248 0.051-0.485 0.19-0.706 0.325-0.568 0.348-1.123 0.718-1.689 1.070-0.066 0.041-0.167 0.025-0.252 0.035 0.029-0.062 0.050-0.131 0.090-0.184 0.201-0.266 0.43-0.514 0.601-0.797 0.081-0.136 0.054-0.337 0.076-0.508-0.172 0.034-0.387 0.015-0.51 0.112-0.428 0.339-0.818 0.727-1.234 1.082-1.301 1.108-2.315 2.396-2.625 4.133-0.079 0.444-0.182 0.885-0.233 1.333-0.034 0.296-0.161 0.417-0.449 0.432-0.617 0.032-1.233 0.081-1.85 0.12-0.877 0.056-1.762 0.058-2.63 0.177-1.765 0.242-3.535 0.481-5.278 0.84-4.262 0.877-8.378 2.199-12.222 4.281-1.436 0.778-2.714 1.768-3.788 3-0.454 0.522-0.832 1.108-0.941 1.816-0.019 0.122 0.068 0.26 0.106 0.391 0.127-0.043 0.277-0.058 0.374-0.137 0.145-0.119 0.26-0.278 0.373-0.43 0.808-1.084 1.828-1.93 2.969-2.635 2.674-1.652 5.621-2.565 8.69-3.087 1.66-0.282 3.346-0.411 5.020-0.61 2.195-0.26 4.391-0.486 6.74-0.408 0.509 0 1.153-0.002 1.796 0.001 0.94 0.004 0.923 0.006 0.958 0.912 0.014 0.352 0.067 0.457-0.355 0.231-0.785-0.421-2-0.284-2.224 0.935-0.372 2.031-0.323 4.078-0.273 6.123 0.012 0.505 0.209 1.017 0.389 1.5 0.057 0.152 0.327 0.26 0.518 0.303 0.057 0.013 0.181-0.262 0.27-0.408 0.036-0.058 0.058-0.125 0.086-0.188 0.045 0.070 0.128 0.14 0.13 0.211 0.019 0.571 0.007 1.144 0.044 1.714 0.008 0.132 0.164 0.254 0.253 0.381 0.103-0.116 0.276-0.22 0.298-0.35 0.15-0.914 0.309-1.829 0.083-2.76-0.292-1.201-0.589-2.403-0.825-3.615-0.084-0.429-0.010-0.892 0.030-1.337 0.010-0.105 0.162-0.222 0.276-0.28 0.037-0.019 0.186 0.12 0.241 0.212 0.209 0.346 0.403 0.701 0.598 1.056 0.564 1.023 1.141 2.034 2.007 2.849 0.411 0.387 0.82 0.801 1.427 0.623 0.64-0.188 0.788-0.802 0.887-1.361 0.111-0.629 0.149-1.273 0.177-1.913 0.042-0.975 0.060-1.951 0.060-2.926 0-0.308 0.101-0.337 0.33-0.213 1.111 0.601 2.362 0.709 3.558 1.007 0.619 0.155 1.263 0.208 1.897 0.303 0.653 0.098 0.688 0.154 0.509 0.761-0.074 0.249-0.136 0.504-0.175 0.76-0.15 0.978-0.096 1.938 0.184 2.896 0.27 0.928 0.242 0.935-0.598 1.356-0.213 0.107-0.437 0.201-0.625 0.343-0.119 0.090-0.18 0.257-0.267 0.39 0.137 0.068 0.268 0.177 0.411 0.196 0.209 0.027 0.432 0.015 0.639-0.027 0.806-0.163 1.611-0.173 2.407 0.034 0.759 0.198 1.504 0.448 2.263 0.648 0.387 0.102 0.789 0.159 1.187 0.201 0.113 0.012 0.239-0.1 0.359-0.156-0.087-0.098-0.157-0.225-0.264-0.288-0.697-0.411-1.404-0.804-2.103-1.21-1.424-0.829-1.953-2.475-1.419-3.952 0.321-0.888 0.461-0.982 1.383-0.963s1.859 0.027 2.764-0.119c2.078-0.335 3.818-1.344 5.112-3.008 1.217-1.565 1.072-2.584 0.011-3.785-1.014-1.147-2.312-1.93-3.807-2.267zM67.807 14.005l-16.191 2.11 16.191 2.11-1.347 3.171 12.519-5.281-12.519-5.281zM111.592 26.927c8.891-7.66 3.009-13.473 3.009-13.473l-4.445 3.556-0.343-1.299c-0.547 0.547-1.025 0.479-1.025 0.479-9.096 8.48-17.576 0.069-17.576 0.069-0.616 0-1.299-0.616-1.299-0.616l-0.616 1.299-4.513-3.556c-5.54 7.181 3.282 13.678 3.282 13.678-4.583 0.957-4.24 4.035-4.24 4.035h13.609c0.137-0.205 0-0.684 0-0.684 0.889 0.684 5.061 0.069 5.061 0.069-0.41 0.273-0.342 0.615-0.342 0.615h13.61c-0.136-3.624-4.172-4.172-4.172-4.172zM95.828 6.136c0.585 0 1.060-0.475 1.060-1.060s-0.475-1.060-1.060-1.060c-0.585 0-1.060 0.475-1.060 1.060s0.475 1.060 1.060 1.060zM96.033 4.358c0.283 0 0.513 0.23 0.513 0.513s-0.229 0.513-0.513 0.513c-0.283 0-0.513-0.23-0.513-0.513s0.23-0.513 0.513-0.513zM91.622 15.438c0 0 8.002 8.001 16.756-0.068 0 0 2.872-0.684 3.077-4.787 0-0.001-0.068-3.078-2.94-3.83 0 0 1.436-3.556-2.462-5.335 0 0-3.966-1.368-5.471 2.667l-0.958 0.068c0 0-1.436-4.582-6.087-2.462 0 0-2.941 1.505-1.847 4.788 0 0-3.693 0.615-3.556 4.856 0 0 0.068 3.078 3.488 4.104zM104.582 2.99c1.114 0 2.017 0.903 2.017 2.017s-0.903 2.018-2.017 2.018c-1.114 0-2.017-0.903-2.017-2.018s0.903-2.017 2.017-2.017zM95.691 2.99c1.114 0 2.018 0.903 2.018 2.017s-0.904 2.018-2.018 2.018c-1.114 0-2.018-0.903-2.018-2.018s0.904-2.017 2.018-2.017zM104.718 6.136c0.585 0 1.060-0.475 1.060-1.060s-0.475-1.060-1.060-1.060c-0.585 0-1.060 0.475-1.060 1.060s0.475 1.060 1.060 1.060zM104.924 4.358c0.283 0 0.513 0.23 0.513 0.513s-0.23 0.513-0.513 0.513c-0.283 0-0.513-0.23-0.513-0.513s0.23-0.513 0.513-0.513z"></path>
</svg>
